<svg xmlns="http://www.w3.org/2000/svg" width="256" height="256" viewBox="0 0 256 256"><rect x="1" y="0" width="254" height="1" fill="rgb(238,239,239)"/><rect x="1" y="1" width="4" height="1" fill="rgb(238,239,239)"/><rect x="5" y="1" width="246" height="1" fill="rgb(246,246,246)"/><rect x="251" y="1" width="4" height="1" fill="rgb(238,239,239)"/><rect x="1" y="2" width="254" height="1" fill="rgb(238,239,239)"/><rect x="1" y="3" width="4" height="1" fill="rgb(238,239,239)"/><rect x="5" y="3" width="246" height="1" fill="rgb(246,246,246)"/><rect x="251" y="3" width="4" height="1" fill="rgb(238,239,239)"/><rect x="1" y="4" width="254" height="1" fill="rgb(238,239,239)"/><rect x="1" y="5" width="4" height="1" fill="rgb(238,239,239)"/><rect x="5" y="5" width="246" height="1" fill="rgb(246,246,246)"/><rect x="251" y="5" width="4" height="1" fill="rgb(238,239,239)"/><rect x="1" y="6" width="254" height="1" fill="rgb(238,239,239)"/><rect x="1" y="7" width="4" height="1" fill="rgb(238,239,239)"/><rect x="5" y="7" width="246" height="1" fill="rgb(246,246,246)"/><rect x="251" y="7" width="4" height="1" fill="rgb(238,239,239)"/><rect x="1" y="8" width="254" height="1" fill="rgb(238,239,239)"/><rect x="1" y="9" width="4" height="1" fill="rgb(238,239,239)"/><rect x="5" y="9" width="246" height="1" fill="rgb(246,246,246)"/><rect x="251" y="9" width="4" height="1" fill="rgb(238,239,239)"/><rect x="1" y="10" width="254" height="1" fill="rgb(238,239,239)"/><rect x="1" y="11" width="4" height="1" fill="rgb(238,239,239)"/><rect x="5" y="11" width="246" height="1" fill="rgb(246,246,246)"/><rect x="251" y="11" width="4" height="1" fill="rgb(238,239,239)"/><rect x="1" y="12" width="254" height="1" fill="rgb(238,239,239)"/><rect x="1" y="13" width="4" height="1" fill="rgb(238,239,239)"/><rect x="5" y="13" width="246" height="1" fill="rgb(246,246,246)"/><rect x="251" y="13" width="4" height="1" fill="rgb(238,239,239)"/><rect x="1" y="14" width="254" height="1" fill="rgb(238,239,239)"/><rect x="1" y="15" width="4" height="1" fill="rgb(238,239,239)"/><rect x="5" y="15" width="246" height="1" fill="rgb(246,246,246)"/><rect x="251" y="15" width="4" height="1" fill="rgb(238,239,239)"/><rect x="1" y="16" width="254" height="1" fill="rgb(238,239,239)"/><rect x="1" y="17" width="4" height="1" fill="rgb(238,239,239)"/><rect x="5" y="17" width="246" height="1" fill="rgb(246,246,246)"/><rect x="251" y="17" width="4" height="1" fill="rgb(238,239,239)"/><rect x="1" y="18" width="254" height="1" fill="rgb(238,239,239)"/><rect x="1" y="19" width="4" height="1" fill="rgb(238,239,239)"/><rect x="5" y="19" width="246" height="1" fill="rgb(246,246,246)"/><rect x="251" y="19" width="4" height="1" fill="rgb(238,239,239)"/><rect x="1" y="20" width="254" height="1" fill="rgb(238,239,239)"/><rect x="1" y="21" width="4" height="1" fill="rgb(238,239,239)"/><rect x="5" y="21" width="246" height="1" fill="rgb(246,246,246)"/><rect x="251" y="21" width="4" height="1" fill="rgb(238,239,239)"/><rect x="1" y="22" width="254" height="1" fill="rgb(238,239,239)"/><rect x="1" y="23" width="4" height="1" fill="rgb(238,239,239)"/><rect x="5" y="23" width="246" height="1" fill="rgb(246,246,246)"/><rect x="251" y="23" width="4" height="1" fill="rgb(238,239,239)"/><rect x="1" y="24" width="254" height="1" fill="rgb(238,239,239)"/><rect x="1" y="25" width="4" height="1" fill="rgb(238,239,239)"/><rect x="5" y="25" width="246" height="1" fill="rgb(246,246,246)"/><rect x="251" y="25" width="4" height="1" fill="rgb(238,239,239)"/><rect x="1" y="26" width="254" height="1" fill="rgb(238,239,239)"/><rect x="1" y="27" width="4" height="1" fill="rgb(238,239,239)"/><rect x="5" y="27" width="246" height="1" fill="rgb(246,246,246)"/><rect x="251" y="27" width="4" height="1" fill="rgb(238,239,239)"/><rect x="1" y="28" width="254" height="1" fill="rgb(238,239,239)"/><rect x="1" y="29" width="4" height="1" fill="rgb(238,239,239)"/><rect x="5" y="29" width="246" height="1" fill="rgb(246,246,246)"/><rect x="251" y="29" width="4" height="1" fill="rgb(238,239,239)"/><rect x="1" y="30" width="254" height="1" fill="rgb(238,239,239)"/><rect x="1" y="31" width="4" height="1" fill="rgb(238,239,239)"/><rect x="5" y="31" width="246" height="1" fill="rgb(246,246,246)"/><rect x="251" y="31" width="4" height="1" fill="rgb(238,239,239)"/><rect x="1" y="32" width="254" height="1" fill="rgb(238,239,239)"/><rect x="1" y="33" width="4" height="1" fill="rgb(238,239,239)"/><rect x="5" y="33" width="246" height="1" fill="rgb(246,246,246)"/><rect x="251" y="33" width="4" height="1" fill="rgb(238,239,239)"/><rect x="1" y="34" width="254" height="1" fill="rgb(238,239,239)"/><rect x="1" y="35" width="4" height="1" fill="rgb(238,239,239)"/><rect x="5" y="35" width="246" height="1" fill="rgb(246,246,246)"/><rect x="251" y="35" width="4" height="1" fill="rgb(238,239,239)"/><rect x="1" y="36" width="254" height="1" fill="rgb(238,239,239)"/><rect x="1" y="37" width="4" height="1" fill="rgb(238,239,239)"/><rect x="5" y="37" width="246" height="1" fill="rgb(246,246,246)"/><rect x="251" y="37" width="4" height="1" fill="rgb(238,239,239)"/><rect x="1" y="38" width="254" height="1" fill="rgb(238,239,239)"/><rect x="1" y="39" width="4" height="1" fill="rgb(238,239,239)"/><rect x="5" y="39" width="246" height="1" fill="rgb(246,246,246)"/><rect x="251" y="39" width="4" height="1" fill="rgb(238,239,239)"/><rect x="1" y="40" width="254" height="1" fill="rgb(238,239,239)"/><rect x="1" y="41" width="4" height="1" fill="rgb(238,239,239)"/><rect x="5" y="41" width="246" height="1" fill="rgb(246,246,246)"/><rect x="251" y="41" width="4" height="1" fill="rgb(238,239,239)"/><rect x="1" y="42" width="254" height="1" fill="rgb(238,239,239)"/><rect x="1" y="43" width="4" height="1" fill="rgb(238,239,239)"/><rect x="5" y="43" width="246" height="1" fill="rgb(246,246,246)"/><rect x="251" y="43" width="4" height="1" fill="rgb(238,239,239)"/><rect x="1" y="44" width="254" height="1" fill="rgb(238,239,239)"/><rect x="1" y="45" width="4" height="1" fill="rgb(238,239,239)"/><rect x="5" y="45" width="246" height="1" fill="rgb(246,246,246)"/><rect x="251" y="45" width="4" height="1" fill="rgb(238,239,239)"/><rect x="1" y="46" width="254" height="1" fill="rgb(238,239,239)"/><rect x="1" y="47" width="4" height="1" fill="rgb(238,239,239)"/><rect x="5" y="47" width="246" height="1" fill="rgb(246,246,246)"/><rect x="251" y="47" width="4" height="1" fill="rgb(238,239,239)"/><rect x="1" y="48" width="254" height="1" fill="rgb(238,239,239)"/><rect x="1" y="49" width="4" height="1" fill="rgb(238,239,239)"/><rect x="5" y="49" width="246" height="1" fill="rgb(246,246,246)"/><rect x="251" y="49" width="4" height="1" fill="rgb(238,239,239)"/><rect x="1" y="50" width="254" height="1" fill="rgb(238,239,239)"/><rect x="1" y="51" width="4" height="1" fill="rgb(238,239,239)"/><rect x="5" y="51" width="246" height="1" fill="rgb(246,246,246)"/><rect x="251" y="51" width="4" height="1" fill="rgb(238,239,239)"/><rect x="1" y="52" width="254" height="1" fill="rgb(238,239,239)"/><rect x="1" y="53" width="4" height="1" fill="rgb(238,239,239)"/><rect x="5" y="53" width="246" height="1" fill="rgb(246,246,246)"/><rect x="251" y="53" width="4" height="1" fill="rgb(238,239,239)"/><rect x="1" y="54" width="254" height="1" fill="rgb(238,239,239)"/><rect x="1" y="55" width="4" height="1" fill="rgb(238,239,239)"/><rect x="5" y="55" width="246" height="1" fill="rgb(246,246,246)"/><rect x="251" y="55" width="4" height="1" fill="rgb(238,239,239)"/><rect x="1" y="56" width="254" height="1" fill="rgb(238,239,239)"/><rect x="1" y="57" width="4" height="1" fill="rgb(238,239,239)"/><rect x="5" y="57" width="246" height="1" fill="rgb(246,246,246)"/><rect x="251" y="57" width="4" height="1" fill="rgb(238,239,239)"/><rect x="1" y="58" width="254" height="1" fill="rgb(238,239,239)"/><rect x="1" y="59" width="4" height="1" fill="rgb(238,239,239)"/><rect x="5" y="59" width="246" height="1" fill="rgb(246,246,246)"/><rect x="251" y="59" width="4" height="1" fill="rgb(238,239,239)"/><rect x="1" y="60" width="254" height="1" fill="rgb(238,239,239)"/><rect x="1" y="61" width="4" height="1" fill="rgb(238,239,239)"/><rect x="5" y="61" width="246" height="1" fill="rgb(246,246,246)"/><rect x="251" y="61" width="4" height="1" fill="rgb(238,239,239)"/><rect x="1" y="62" width="254" height="1" fill="rgb(238,239,239)"/><rect x="1" y="63" width="4" height="1" fill="rgb(238,239,239)"/><rect x="5" y="63" width="246" height="1" fill="rgb(246,246,246)"/><rect x="251" y="63" width="4" height="1" fill="rgb(238,239,239)"/><rect x="1" y="64" width="254" height="1" fill="rgb(238,239,239)"/><rect x="1" y="65" width="4" height="1" fill="rgb(238,239,239)"/><rect x="5" y="65" width="246" height="1" fill="rgb(246,246,246)"/><rect x="251" y="65" width="4" height="1" fill="rgb(238,239,239)"/><rect x="1" y="66" width="254" height="1" fill="rgb(238,239,239)"/><rect x="1" y="67" width="4" height="1" fill="rgb(238,239,239)"/><rect x="5" y="67" width="246" height="1" fill="rgb(246,246,246)"/><rect x="251" y="67" width="4" height="1" fill="rgb(238,239,239)"/><rect x="1" y="68" width="254" height="1" fill="rgb(238,239,239)"/><rect x="1" y="69" width="4" height="1" fill="rgb(238,239,239)"/><rect x="5" y="69" width="246" height="1" fill="rgb(246,246,246)"/><rect x="251" y="69" width="4" height="1" fill="rgb(238,239,239)"/><rect x="1" y="70" width="254" height="1" fill="rgb(238,239,239)"/><rect x="1" y="71" width="4" height="1" fill="rgb(238,239,239)"/><rect x="5" y="71" width="246" height="1" fill="rgb(246,246,246)"/><rect x="251" y="71" width="4" height="1" fill="rgb(238,239,239)"/><rect x="1" y="72" width="254" height="1" fill="rgb(238,239,239)"/><rect x="1" y="73" width="4" height="1" fill="rgb(238,239,239)"/><rect x="5" y="73" width="246" height="1" fill="rgb(246,246,246)"/><rect x="251" y="73" width="4" height="1" fill="rgb(238,239,239)"/><rect x="1" y="74" width="254" height="1" fill="rgb(238,239,239)"/><rect x="1" y="75" width="4" height="1" fill="rgb(238,239,239)"/><rect x="5" y="75" width="246" height="1" fill="rgb(246,246,246)"/><rect x="251" y="75" width="4" height="1" fill="rgb(238,239,239)"/><rect x="1" y="76" width="254" height="1" fill="rgb(238,239,239)"/><rect x="1" y="77" width="4" height="1" fill="rgb(238,239,239)"/><rect x="5" y="77" width="246" height="1" fill="rgb(246,246,246)"/><rect x="251" y="77" width="4" height="1" fill="rgb(238,239,239)"/><rect x="1" y="78" width="254" height="1" fill="rgb(238,239,239)"/><rect x="1" y="79" width="4" height="1" fill="rgb(238,239,239)"/><rect x="5" y="79" width="246" height="1" fill="rgb(246,246,246)"/><rect x="251" y="79" width="4" height="1" fill="rgb(238,239,239)"/><rect x="1" y="80" width="254" height="1" fill="rgb(238,239,239)"/><rect x="1" y="81" width="4" height="1" fill="rgb(238,239,239)"/><rect x="5" y="81" width="246" height="1" fill="rgb(246,246,246)"/><rect x="251" y="81" width="4" height="1" fill="rgb(238,239,239)"/><rect x="1" y="82" width="254" height="1" fill="rgb(238,239,239)"/><rect x="1" y="83" width="4" height="1" fill="rgb(238,239,239)"/><rect x="5" y="83" width="246" height="1" fill="rgb(246,246,246)"/><rect x="251" y="83" width="4" height="1" fill="rgb(238,239,239)"/><rect x="1" y="84" width="254" height="1" fill="rgb(238,239,239)"/><rect x="1" y="85" width="4" height="1" fill="rgb(238,239,239)"/><rect x="5" y="85" width="246" height="1" fill="rgb(246,246,246)"/><rect x="251" y="85" width="4" height="1" fill="rgb(238,239,239)"/><rect x="1" y="86" width="254" height="1" fill="rgb(238,239,239)"/><rect x="1" y="87" width="4" height="1" fill="rgb(238,239,239)"/><rect x="5" y="87" width="246" height="1" fill="rgb(246,246,246)"/><rect x="251" y="87" width="4" height="1" fill="rgb(238,239,239)"/><rect x="1" y="88" width="254" height="1" fill="rgb(238,239,239)"/><rect x="1" y="89" width="4" height="1" fill="rgb(238,239,239)"/><rect x="5" y="89" width="246" height="1" fill="rgb(246,246,246)"/><rect x="251" y="89" width="4" height="1" fill="rgb(238,239,239)"/><rect x="1" y="90" width="254" height="1" fill="rgb(238,239,239)"/><rect x="1" y="91" width="4" height="1" fill="rgb(238,239,239)"/><rect x="5" y="91" width="246" height="1" fill="rgb(246,246,246)"/><rect x="251" y="91" width="4" height="1" fill="rgb(238,239,239)"/><rect x="1" y="92" width="254" height="1" fill="rgb(238,239,239)"/><rect x="1" y="93" width="4" height="1" fill="rgb(238,239,239)"/><rect x="5" y="93" width="246" height="1" fill="rgb(246,246,246)"/><rect x="251" y="93" width="4" height="1" fill="rgb(238,239,239)"/><rect x="1" y="94" width="254" height="1" fill="rgb(238,239,239)"/><rect x="1" y="95" width="4" height="1" fill="rgb(238,239,239)"/><rect x="5" y="95" width="246" height="1" fill="rgb(246,246,246)"/><rect x="251" y="95" width="4" height="1" fill="rgb(238,239,239)"/><rect x="1" y="96" width="254" height="1" fill="rgb(238,239,239)"/><rect x="1" y="97" width="4" height="1" fill="rgb(238,239,239)"/><rect x="5" y="97" width="246" height="1" fill="rgb(246,246,246)"/><rect x="251" y="97" width="4" height="1" fill="rgb(238,239,239)"/><rect x="1" y="98" width="254" height="1" fill="rgb(238,239,239)"/><rect x="1" y="99" width="4" height="1" fill="rgb(238,239,239)"/><rect x="5" y="99" width="246" height="1" fill="rgb(246,246,246)"/><rect x="251" y="99" width="4" height="1" fill="rgb(238,239,239)"/><rect x="1" y="100" width="254" height="1" fill="rgb(238,239,239)"/><rect x="1" y="101" width="4" height="1" fill="rgb(238,239,239)"/><rect x="5" y="101" width="246" height="1" fill="rgb(246,246,246)"/><rect x="251" y="101" width="4" height="1" fill="rgb(238,239,239)"/><rect x="1" y="102" width="254" height="1" fill="rgb(238,239,239)"/><rect x="1" y="103" width="4" height="1" fill="rgb(238,239,239)"/><rect x="5" y="103" width="246" height="1" fill="rgb(246,246,246)"/><rect x="251" y="103" width="4" height="1" fill="rgb(238,239,239)"/><rect x="1" y="104" width="254" height="1" fill="rgb(238,239,239)"/><rect x="1" y="105" width="4" height="1" fill="rgb(238,239,239)"/><rect x="5" y="105" width="246" height="1" fill="rgb(246,246,246)"/><rect x="251" y="105" width="4" height="1" fill="rgb(238,239,239)"/><rect x="1" y="106" width="254" height="1" fill="rgb(238,239,239)"/><rect x="1" y="107" width="4" height="1" fill="rgb(238,239,239)"/><rect x="5" y="107" width="246" height="1" fill="rgb(246,246,246)"/><rect x="251" y="107" width="4" height="1" fill="rgb(238,239,239)"/><rect x="1" y="108" width="254" height="1" fill="rgb(238,239,239)"/><rect x="1" y="109" width="4" height="1" fill="rgb(238,239,239)"/><rect x="5" y="109" width="246" height="1" fill="rgb(246,246,246)"/><rect x="251" y="109" width="4" height="1" fill="rgb(238,239,239)"/><rect x="1" y="110" width="254" height="1" fill="rgb(238,239,239)"/><rect x="1" y="111" width="4" height="1" fill="rgb(238,239,239)"/><rect x="5" y="111" width="246" height="1" fill="rgb(246,246,246)"/><rect x="251" y="111" width="4" height="1" fill="rgb(238,239,239)"/><rect x="1" y="112" width="254" height="1" fill="rgb(238,239,239)"/><rect x="1" y="113" width="4" height="1" fill="rgb(238,239,239)"/><rect x="5" y="113" width="246" height="1" fill="rgb(246,246,246)"/><rect x="251" y="113" width="4" height="1" fill="rgb(238,239,239)"/><rect x="1" y="114" width="254" height="1" fill="rgb(238,239,239)"/><rect x="1" y="115" width="4" height="1" fill="rgb(238,239,239)"/><rect x="5" y="115" width="246" height="1" fill="rgb(246,246,246)"/><rect x="251" y="115" width="4" height="1" fill="rgb(238,239,239)"/><rect x="1" y="116" width="254" height="1" fill="rgb(238,239,239)"/><rect x="1" y="117" width="4" height="1" fill="rgb(238,239,239)"/><rect x="5" y="117" width="246" height="1" fill="rgb(246,246,246)"/><rect x="251" y="117" width="4" height="1" fill="rgb(238,239,239)"/><rect x="1" y="118" width="254" height="1" fill="rgb(238,239,239)"/><rect x="1" y="119" width="4" height="1" fill="rgb(238,239,239)"/><rect x="5" y="119" width="246" height="1" fill="rgb(246,246,246)"/><rect x="251" y="119" width="4" height="1" fill="rgb(238,239,239)"/><rect x="1" y="120" width="254" height="1" fill="rgb(238,239,239)"/><rect x="1" y="121" width="4" height="1" fill="rgb(238,239,239)"/><rect x="5" y="121" width="246" height="1" fill="rgb(246,246,246)"/><rect x="251" y="121" width="4" height="1" fill="rgb(238,239,239)"/><rect x="1" y="122" width="254" height="1" fill="rgb(238,239,239)"/><rect x="1" y="123" width="4" height="1" fill="rgb(238,239,239)"/><rect x="5" y="123" width="246" height="1" fill="rgb(246,246,246)"/><rect x="251" y="123" width="4" height="1" fill="rgb(238,239,239)"/><rect x="1" y="124" width="254" height="1" fill="rgb(238,239,239)"/><rect x="1" y="125" width="4" height="1" fill="rgb(238,239,239)"/><rect x="5" y="125" width="246" height="1" fill="rgb(246,246,246)"/><rect x="251" y="125" width="4" height="1" fill="rgb(238,239,239)"/><rect x="1" y="126" width="254" height="1" fill="rgb(238,239,239)"/><rect x="1" y="127" width="4" height="1" fill="rgb(238,239,239)"/><rect x="5" y="127" width="246" height="1" fill="rgb(246,246,246)"/><rect x="251" y="127" width="4" height="1" fill="rgb(238,239,239)"/><rect x="1" y="128" width="254" height="1" fill="rgb(238,239,239)"/><rect x="1" y="129" width="4" height="1" fill="rgb(238,239,239)"/><rect x="5" y="129" width="246" height="1" fill="rgb(246,246,246)"/><rect x="251" y="129" width="4" height="1" fill="rgb(238,239,239)"/><rect x="1" y="130" width="254" height="1" fill="rgb(238,239,239)"/><rect x="1" y="131" width="4" height="1" fill="rgb(238,239,239)"/><rect x="5" y="131" width="246" height="1" fill="rgb(246,246,246)"/><rect x="251" y="131" width="4" height="1" fill="rgb(238,239,239)"/><rect x="1" y="132" width="254" height="1" fill="rgb(238,239,239)"/><rect x="1" y="133" width="4" height="1" fill="rgb(238,239,239)"/><rect x="5" y="133" width="246" height="1" fill="rgb(246,246,246)"/><rect x="251" y="133" width="4" height="1" fill="rgb(238,239,239)"/><rect x="1" y="134" width="254" height="1" fill="rgb(238,239,239)"/><rect x="1" y="135" width="4" height="1" fill="rgb(238,239,239)"/><rect x="5" y="135" width="246" height="1" fill="rgb(246,246,246)"/><rect x="251" y="135" width="4" height="1" fill="rgb(238,239,239)"/><rect x="1" y="136" width="254" height="1" fill="rgb(238,239,239)"/><rect x="1" y="137" width="4" height="1" fill="rgb(238,239,239)"/><rect x="5" y="137" width="246" height="1" fill="rgb(246,246,246)"/><rect x="251" y="137" width="4" height="1" fill="rgb(238,239,239)"/><rect x="1" y="138" width="254" height="1" fill="rgb(238,239,239)"/><rect x="1" y="139" width="4" height="1" fill="rgb(238,239,239)"/><rect x="5" y="139" width="246" height="1" fill="rgb(246,246,246)"/><rect x="251" y="139" width="4" height="1" fill="rgb(238,239,239)"/><rect x="1" y="140" width="254" height="1" fill="rgb(238,239,239)"/><rect x="1" y="141" width="4" height="1" fill="rgb(238,239,239)"/><rect x="5" y="141" width="246" height="1" fill="rgb(246,246,246)"/><rect x="251" y="141" width="4" height="1" fill="rgb(238,239,239)"/><rect x="1" y="142" width="254" height="1" fill="rgb(238,239,239)"/><rect x="1" y="143" width="4" height="1" fill="rgb(238,239,239)"/><rect x="5" y="143" width="246" height="1" fill="rgb(246,246,246)"/><rect x="251" y="143" width="4" height="1" fill="rgb(238,239,239)"/><rect x="1" y="144" width="254" height="1" fill="rgb(238,239,239)"/><rect x="1" y="145" width="4" height="1" fill="rgb(238,239,239)"/><rect x="5" y="145" width="246" height="1" fill="rgb(246,246,246)"/><rect x="251" y="145" width="4" height="1" fill="rgb(238,239,239)"/><rect x="1" y="146" width="254" height="1" fill="rgb(238,239,239)"/><rect x="1" y="147" width="4" height="1" fill="rgb(238,239,239)"/><rect x="5" y="147" width="246" height="1" fill="rgb(246,246,246)"/><rect x="251" y="147" width="4" height="1" fill="rgb(238,239,239)"/><rect x="1" y="148" width="254" height="1" fill="rgb(238,239,239)"/><rect x="1" y="149" width="4" height="1" fill="rgb(238,239,239)"/><rect x="5" y="149" width="246" height="1" fill="rgb(246,246,246)"/><rect x="251" y="149" width="4" height="1" fill="rgb(238,239,239)"/><rect x="1" y="150" width="254" height="1" fill="rgb(238,239,239)"/><rect x="1" y="151" width="4" height="1" fill="rgb(238,239,239)"/><rect x="5" y="151" width="246" height="1" fill="rgb(246,246,246)"/><rect x="251" y="151" width="4" height="1" fill="rgb(238,239,239)"/><rect x="1" y="152" width="254" height="1" fill="rgb(238,239,239)"/><rect x="1" y="153" width="4" height="1" fill="rgb(238,239,239)"/><rect x="5" y="153" width="246" height="1" fill="rgb(246,246,246)"/><rect x="251" y="153" width="4" height="1" fill="rgb(238,239,239)"/><rect x="1" y="154" width="254" height="1" fill="rgb(238,239,239)"/><rect x="1" y="155" width="4" height="1" fill="rgb(238,239,239)"/><rect x="5" y="155" width="246" height="1" fill="rgb(246,246,246)"/><rect x="251" y="155" width="4" height="1" fill="rgb(238,239,239)"/><rect x="1" y="156" width="254" height="1" fill="rgb(238,239,239)"/><rect x="1" y="157" width="4" height="1" fill="rgb(238,239,239)"/><rect x="5" y="157" width="246" height="1" fill="rgb(246,246,246)"/><rect x="251" y="157" width="4" height="1" fill="rgb(238,239,239)"/><rect x="1" y="158" width="254" height="1" fill="rgb(238,239,239)"/><rect x="1" y="159" width="4" height="1" fill="rgb(238,239,239)"/><rect x="5" y="159" width="246" height="1" fill="rgb(246,246,246)"/><rect x="251" y="159" width="4" height="1" fill="rgb(238,239,239)"/><rect x="1" y="160" width="254" height="1" fill="rgb(238,239,239)"/><rect x="1" y="161" width="4" height="1" fill="rgb(238,239,239)"/><rect x="5" y="161" width="246" height="1" fill="rgb(246,246,246)"/><rect x="251" y="161" width="4" height="1" fill="rgb(238,239,239)"/><rect x="1" y="162" width="254" height="1" fill="rgb(238,239,239)"/><rect x="1" y="163" width="4" height="1" fill="rgb(238,239,239)"/><rect x="5" y="163" width="246" height="1" fill="rgb(246,246,246)"/><rect x="251" y="163" width="4" height="1" fill="rgb(238,239,239)"/><rect x="1" y="164" width="254" height="1" fill="rgb(238,239,239)"/><rect x="1" y="165" width="4" height="1" fill="rgb(238,239,239)"/><rect x="5" y="165" width="246" height="1" fill="rgb(246,246,246)"/><rect x="251" y="165" width="4" height="1" fill="rgb(238,239,239)"/><rect x="1" y="166" width="254" height="1" fill="rgb(238,239,239)"/><rect x="1" y="167" width="4" height="1" fill="rgb(238,239,239)"/><rect x="5" y="167" width="246" height="1" fill="rgb(246,246,246)"/><rect x="251" y="167" width="4" height="1" fill="rgb(238,239,239)"/><rect x="1" y="168" width="254" height="1" fill="rgb(238,239,239)"/><rect x="1" y="169" width="4" height="1" fill="rgb(238,239,239)"/><rect x="5" y="169" width="246" height="1" fill="rgb(246,246,246)"/><rect x="251" y="169" width="4" height="1" fill="rgb(238,239,239)"/><rect x="1" y="170" width="254" height="1" fill="rgb(238,239,239)"/><rect x="1" y="171" width="4" height="1" fill="rgb(238,239,239)"/><rect x="5" y="171" width="246" height="1" fill="rgb(246,246,246)"/><rect x="251" y="171" width="4" height="1" fill="rgb(238,239,239)"/><rect x="1" y="172" width="254" height="1" fill="rgb(238,239,239)"/><rect x="1" y="173" width="4" height="1" fill="rgb(238,239,239)"/><rect x="5" y="173" width="246" height="1" fill="rgb(246,246,246)"/><rect x="251" y="173" width="4" height="1" fill="rgb(238,239,239)"/><rect x="1" y="174" width="254" height="1" fill="rgb(238,239,239)"/><rect x="1" y="175" width="4" height="1" fill="rgb(238,239,239)"/><rect x="5" y="175" width="246" height="1" fill="rgb(246,246,246)"/><rect x="251" y="175" width="4" height="1" fill="rgb(238,239,239)"/><rect x="1" y="176" width="254" height="1" fill="rgb(238,239,239)"/><rect x="1" y="177" width="4" height="1" fill="rgb(238,239,239)"/><rect x="5" y="177" width="246" height="1" fill="rgb(246,246,246)"/><rect x="251" y="177" width="4" height="1" fill="rgb(238,239,239)"/><rect x="1" y="178" width="254" height="1" fill="rgb(238,239,239)"/><rect x="1" y="179" width="4" height="1" fill="rgb(238,239,239)"/><rect x="5" y="179" width="246" height="1" fill="rgb(246,246,246)"/><rect x="251" y="179" width="4" height="1" fill="rgb(238,239,239)"/><rect x="1" y="180" width="254" height="1" fill="rgb(238,239,239)"/><rect x="1" y="181" width="4" height="1" fill="rgb(238,239,239)"/><rect x="5" y="181" width="246" height="1" fill="rgb(246,246,246)"/><rect x="251" y="181" width="4" height="1" fill="rgb(238,239,239)"/><rect x="1" y="182" width="254" height="1" fill="rgb(238,239,239)"/><rect x="1" y="183" width="4" height="1" fill="rgb(238,239,239)"/><rect x="5" y="183" width="246" height="1" fill="rgb(246,246,246)"/><rect x="251" y="183" width="4" height="1" fill="rgb(238,239,239)"/><rect x="1" y="184" width="254" height="1" fill="rgb(238,239,239)"/><rect x="1" y="185" width="4" height="1" fill="rgb(238,239,239)"/><rect x="5" y="185" width="246" height="1" fill="rgb(246,246,246)"/><rect x="251" y="185" width="4" height="1" fill="rgb(238,239,239)"/><rect x="1" y="186" width="254" height="1" fill="rgb(238,239,239)"/><rect x="1" y="187" width="4" height="1" fill="rgb(238,239,239)"/><rect x="5" y="187" width="246" height="1" fill="rgb(246,246,246)"/><rect x="251" y="187" width="4" height="1" fill="rgb(238,239,239)"/><rect x="1" y="188" width="254" height="1" fill="rgb(238,239,239)"/><rect x="1" y="189" width="4" height="1" fill="rgb(238,239,239)"/><rect x="5" y="189" width="246" height="1" fill="rgb(246,246,246)"/><rect x="251" y="189" width="4" height="1" fill="rgb(238,239,239)"/><rect x="1" y="190" width="254" height="1" fill="rgb(238,239,239)"/><rect x="0" y="0" width="1" height="192" fill="rgb(223,223,223)"/><rect x="255" y="0" width="1" height="192" fill="rgb(223,223,223)"/><rect x="1" y="191" width="4" height="1" fill="rgb(238,239,239)"/><rect x="5" y="191" width="246" height="1" fill="rgb(246,246,246)"/><rect x="251" y="191" width="4" height="1" fill="rgb(238,239,239)"/><rect x="0" y="192" width="256" height="64" fill="rgb(246,246,246)"/></svg>