<svg xmlns="http://www.w3.org/2000/svg" width="256" height="256" viewBox="0 0 256 256"><rect x="19" y="18" width="219" height="1" fill="rgb(223,223,223)"/><rect x="18" y="19" width="3" height="1" fill="rgb(223,223,223)"/><rect x="21" y="19" width="217" height="1" fill="rgb(214,214,214)"/><rect x="238" y="19" width="2" height="1" fill="rgb(223,223,223)"/><rect x="18" y="20" width="2" height="1" fill="rgb(223,223,223)"/><rect x="20" y="20" width="2" height="1" fill="rgb(214,214,214)"/><rect x="22" y="20" width="216" height="1" fill="rgb(206,206,206)"/><rect x="238" y="20" width="1" height="1" fill="rgb(214,214,214)"/><rect x="19" y="21" width="2" height="1" fill="rgb(214,214,214)"/><rect x="236" y="21" width="1" height="1" fill="rgb(190,190,190)"/><rect x="237" y="21" width="2" height="1" fill="rgb(206,206,206)"/><rect x="236" y="22" width="2" height="1" fill="rgb(190,190,190)"/><rect x="21" y="21" width="214" height="3" fill="rgb(255,255,255)"/><rect x="24" y="24" width="208" height="20" fill="rgb(173,214,206)"/><rect x="24" y="44" width="100" height="1" fill="rgb(173,214,206)"/><rect x="124" y="44" width="1" height="1" fill="rgb(149,198,190)"/><rect x="125" y="44" width="6" height="1" fill="rgb(116,181,174)"/><rect x="131" y="44" width="1" height="1" fill="rgb(149,198,190)"/><rect x="132" y="44" width="100" height="1" fill="rgb(173,214,206)"/><rect x="24" y="45" width="99" height="1" fill="rgb(173,214,206)"/><rect x="123" y="45" width="1" height="1" fill="rgb(149,198,190)"/><rect x="124" y="45" width="8" height="1" fill="rgb(116,181,174)"/><rect x="132" y="45" width="1" height="1" fill="rgb(149,198,190)"/><rect x="133" y="45" width="99" height="1" fill="rgb(173,214,206)"/><rect x="24" y="46" width="98" height="1" fill="rgb(173,214,206)"/><rect x="122" y="46" width="1" height="1" fill="rgb(149,198,190)"/><rect x="123" y="46" width="10" height="1" fill="rgb(116,181,174)"/><rect x="133" y="46" width="1" height="1" fill="rgb(149,198,190)"/><rect x="134" y="46" width="98" height="1" fill="rgb(173,214,206)"/><rect x="24" y="47" width="94" height="1" fill="rgb(173,214,206)"/><rect x="118" y="47" width="20" height="1" fill="rgb(116,181,174)"/><rect x="138" y="47" width="94" height="1" fill="rgb(173,214,206)"/><rect x="117" y="48" width="22" height="1" fill="rgb(116,181,174)"/><rect x="117" y="49" width="9" height="1" fill="rgb(116,181,174)"/><rect x="126" y="49" width="1" height="1" fill="rgb(149,198,190)"/><rect x="127" y="49" width="2" height="1" fill="rgb(173,214,206)"/><rect x="129" y="49" width="1" height="1" fill="rgb(149,198,190)"/><rect x="130" y="49" width="9" height="1" fill="rgb(116,181,174)"/><rect x="117" y="50" width="8" height="1" fill="rgb(116,181,174)"/><rect x="131" y="50" width="8" height="1" fill="rgb(116,181,174)"/><rect x="125" y="50" width="6" height="2" fill="rgb(173,214,206)"/><rect x="124" y="51" width="1" height="1" fill="rgb(149,198,190)"/><rect x="131" y="51" width="1" height="1" fill="rgb(149,198,190)"/><rect x="124" y="52" width="8" height="2" fill="rgb(173,214,206)"/><rect x="117" y="51" width="7" height="4" fill="rgb(116,181,174)"/><rect x="132" y="51" width="7" height="4" fill="rgb(116,181,174)"/><rect x="124" y="54" width="1" height="1" fill="rgb(149,198,190)"/><rect x="131" y="54" width="1" height="1" fill="rgb(149,198,190)"/><rect x="125" y="54" width="6" height="2" fill="rgb(173,214,206)"/><rect x="117" y="55" width="8" height="1" fill="rgb(116,181,174)"/><rect x="131" y="55" width="8" height="1" fill="rgb(116,181,174)"/><rect x="117" y="56" width="9" height="1" fill="rgb(116,181,174)"/><rect x="126" y="56" width="1" height="1" fill="rgb(149,198,190)"/><rect x="127" y="56" width="2" height="1" fill="rgb(173,214,206)"/><rect x="129" y="56" width="1" height="1" fill="rgb(149,198,190)"/><rect x="130" y="56" width="9" height="1" fill="rgb(116,181,174)"/><rect x="24" y="48" width="93" height="13" fill="rgb(173,214,206)"/><rect x="139" y="48" width="93" height="13" fill="rgb(173,214,206)"/><rect x="117" y="57" width="22" height="4" fill="rgb(116,181,174)"/><rect x="24" y="61" width="94" height="1" fill="rgb(173,214,206)"/><rect x="118" y="61" width="20" height="1" fill="rgb(116,181,174)"/><rect x="138" y="61" width="94" height="1" fill="rgb(173,214,206)"/><rect x="21" y="24" width="3" height="156" fill="rgb(255,255,255)"/><rect x="232" y="24" width="3" height="156" fill="rgb(255,255,255)"/><rect x="24" y="62" width="208" height="118" fill="rgb(173,214,206)"/><rect x="235" y="21" width="1" height="162" fill="rgb(173,174,174)"/><rect x="21" y="180" width="214" height="3" fill="rgb(255,255,255)"/><rect x="236" y="23" width="1" height="161" fill="rgb(181,181,181)"/><rect x="237" y="23" width="1" height="161" fill="rgb(190,190,190)"/><rect x="21" y="183" width="215" height="1" fill="rgb(173,174,174)"/><rect x="20" y="22" width="1" height="163" fill="rgb(206,206,206)"/><rect x="238" y="22" width="1" height="163" fill="rgb(206,206,206)"/><rect x="21" y="184" width="2" height="1" fill="rgb(190,190,190)"/><rect x="23" y="184" width="213" height="1" fill="rgb(181,181,181)"/><rect x="236" y="184" width="2" height="1" fill="rgb(190,190,190)"/><rect x="239" y="20" width="1" height="166" fill="rgb(223,223,223)"/><rect x="18" y="21" width="1" height="165" fill="rgb(223,223,223)"/><rect x="19" y="22" width="1" height="164" fill="rgb(214,214,214)"/><rect x="20" y="185" width="2" height="1" fill="rgb(206,206,206)"/><rect x="22" y="185" width="215" height="1" fill="rgb(190,190,190)"/><rect x="237" y="185" width="2" height="1" fill="rgb(206,206,206)"/><rect x="18" y="186" width="2" height="1" fill="rgb(223,223,223)"/><rect x="20" y="186" width="218" height="1" fill="rgb(206,206,206)"/><rect x="238" y="186" width="2" height="1" fill="rgb(223,223,223)"/><rect x="19" y="187" width="220" height="1" fill="rgb(223,223,223)"/></svg>