<svg xmlns="http://www.w3.org/2000/svg" width="128" height="144" viewBox="0 0 128 144"><rect x="62" y="25" width="4" height="1" fill="rgb(44,131,251)"/><rect x="60" y="26" width="2" height="1" fill="rgb(44,131,251)"/><rect x="62" y="26" width="1" height="1" fill="rgb(71,155,251)"/><rect x="63" y="26" width="2" height="1" fill="rgb(97,179,251)"/><rect x="65" y="26" width="1" height="1" fill="rgb(71,155,251)"/><rect x="66" y="26" width="2" height="1" fill="rgb(44,131,251)"/><rect x="60" y="27" width="1" height="1" fill="rgb(44,131,251)"/><rect x="61" y="27" width="6" height="1" fill="rgb(71,155,251)"/><rect x="67" y="27" width="1" height="1" fill="rgb(44,131,251)"/><rect x="59" y="28" width="1" height="1" fill="rgb(0,88,243)"/><rect x="60" y="28" width="1" height="1" fill="rgb(17,114,251)"/><rect x="61" y="28" width="1" height="1" fill="rgb(44,131,251)"/><rect x="62" y="28" width="4" height="1" fill="rgb(71,155,251)"/><rect x="66" y="28" width="1" height="1" fill="rgb(44,131,251)"/><rect x="67" y="28" width="1" height="1" fill="rgb(17,114,251)"/><rect x="68" y="28" width="1" height="1" fill="rgb(0,88,243)"/><rect x="59" y="29" width="1" height="1" fill="rgb(0,71,228)"/><rect x="60" y="29" width="2" height="1" fill="rgb(17,114,251)"/><rect x="62" y="29" width="4" height="1" fill="rgb(44,131,251)"/><rect x="66" y="29" width="2" height="1" fill="rgb(17,114,251)"/><rect x="68" y="29" width="1" height="1" fill="rgb(0,71,228)"/><rect x="60" y="30" width="1" height="1" fill="rgb(0,71,228)"/><rect x="61" y="30" width="1" height="1" fill="rgb(0,88,243)"/><rect x="62" y="30" width="4" height="1" fill="rgb(17,114,251)"/><rect x="66" y="30" width="1" height="1" fill="rgb(0,88,243)"/><rect x="67" y="30" width="1" height="1" fill="rgb(0,71,228)"/><rect x="59" y="30" width="1" height="2" fill="rgb(0,88,243)"/><rect x="68" y="30" width="1" height="2" fill="rgb(0,88,243)"/><rect x="60" y="31" width="2" height="1" fill="rgb(0,71,228)"/><rect x="62" y="31" width="4" height="1" fill="rgb(0,53,212)"/><rect x="66" y="31" width="2" height="1" fill="rgb(0,71,228)"/><rect x="83" y="31" width="4" height="1" fill="rgb(44,131,251)"/><rect x="40" y="32" width="4" height="1" fill="rgb(44,131,251)"/><rect x="60" y="32" width="1" height="1" fill="rgb(0,88,243)"/><rect x="61" y="32" width="6" height="1" fill="rgb(0,71,228)"/><rect x="67" y="32" width="1" height="1" fill="rgb(0,88,243)"/><rect x="81" y="32" width="2" height="1" fill="rgb(44,131,251)"/><rect x="83" y="32" width="1" height="1" fill="rgb(71,155,251)"/><rect x="84" y="32" width="2" height="1" fill="rgb(97,179,251)"/><rect x="86" y="32" width="1" height="1" fill="rgb(71,155,251)"/><rect x="87" y="32" width="2" height="1" fill="rgb(44,131,251)"/><rect x="38" y="33" width="2" height="1" fill="rgb(44,131,251)"/><rect x="40" y="33" width="1" height="1" fill="rgb(71,155,251)"/><rect x="41" y="33" width="2" height="1" fill="rgb(97,179,251)"/><rect x="43" y="33" width="1" height="1" fill="rgb(71,155,251)"/><rect x="44" y="33" width="2" height="1" fill="rgb(44,131,251)"/><rect x="60" y="33" width="2" height="1" fill="rgb(44,131,251)"/><rect x="62" y="33" width="4" height="1" fill="rgb(0,88,243)"/><rect x="66" y="33" width="2" height="1" fill="rgb(44,131,251)"/><rect x="81" y="33" width="1" height="1" fill="rgb(44,131,251)"/><rect x="82" y="33" width="6" height="1" fill="rgb(71,155,251)"/><rect x="88" y="33" width="1" height="1" fill="rgb(44,131,251)"/><rect x="38" y="34" width="1" height="1" fill="rgb(44,131,251)"/><rect x="39" y="34" width="6" height="1" fill="rgb(71,155,251)"/><rect x="45" y="34" width="1" height="1" fill="rgb(44,131,251)"/><rect x="62" y="34" width="4" height="1" fill="rgb(44,131,251)"/><rect x="80" y="34" width="1" height="1" fill="rgb(0,88,243)"/><rect x="81" y="34" width="1" height="1" fill="rgb(17,114,251)"/><rect x="82" y="34" width="1" height="1" fill="rgb(44,131,251)"/><rect x="83" y="34" width="4" height="1" fill="rgb(71,155,251)"/><rect x="87" y="34" width="1" height="1" fill="rgb(44,131,251)"/><rect x="88" y="34" width="1" height="1" fill="rgb(17,114,251)"/><rect x="89" y="34" width="1" height="1" fill="rgb(0,88,243)"/><rect x="37" y="35" width="1" height="1" fill="rgb(0,88,243)"/><rect x="38" y="35" width="1" height="1" fill="rgb(17,114,251)"/><rect x="39" y="35" width="1" height="1" fill="rgb(44,131,251)"/><rect x="40" y="35" width="4" height="1" fill="rgb(71,155,251)"/><rect x="44" y="35" width="1" height="1" fill="rgb(44,131,251)"/><rect x="45" y="35" width="1" height="1" fill="rgb(17,114,251)"/><rect x="46" y="35" width="1" height="1" fill="rgb(0,88,243)"/><rect x="80" y="35" width="1" height="1" fill="rgb(0,71,228)"/><rect x="81" y="35" width="2" height="1" fill="rgb(17,114,251)"/><rect x="83" y="35" width="4" height="1" fill="rgb(44,131,251)"/><rect x="87" y="35" width="2" height="1" fill="rgb(17,114,251)"/><rect x="89" y="35" width="1" height="1" fill="rgb(0,71,228)"/><rect x="37" y="36" width="1" height="1" fill="rgb(0,71,228)"/><rect x="38" y="36" width="2" height="1" fill="rgb(17,114,251)"/><rect x="40" y="36" width="4" height="1" fill="rgb(44,131,251)"/><rect x="44" y="36" width="2" height="1" fill="rgb(17,114,251)"/><rect x="46" y="36" width="1" height="1" fill="rgb(0,71,228)"/><rect x="81" y="36" width="1" height="1" fill="rgb(0,71,228)"/><rect x="82" y="36" width="1" height="1" fill="rgb(0,88,243)"/><rect x="83" y="36" width="4" height="1" fill="rgb(17,114,251)"/><rect x="87" y="36" width="1" height="1" fill="rgb(0,88,243)"/><rect x="88" y="36" width="1" height="1" fill="rgb(0,71,228)"/><rect x="80" y="36" width="1" height="2" fill="rgb(0,88,243)"/><rect x="89" y="36" width="1" height="2" fill="rgb(0,88,243)"/><rect x="38" y="37" width="1" height="1" fill="rgb(0,71,228)"/><rect x="39" y="37" width="1" height="1" fill="rgb(0,88,243)"/><rect x="40" y="37" width="4" height="1" fill="rgb(17,114,251)"/><rect x="44" y="37" width="1" height="1" fill="rgb(0,88,243)"/><rect x="45" y="37" width="1" height="1" fill="rgb(0,71,228)"/><rect x="81" y="37" width="2" height="1" fill="rgb(0,71,228)"/><rect x="83" y="37" width="4" height="1" fill="rgb(0,53,212)"/><rect x="87" y="37" width="2" height="1" fill="rgb(0,71,228)"/><rect x="37" y="37" width="1" height="2" fill="rgb(0,88,243)"/><rect x="46" y="37" width="1" height="2" fill="rgb(0,88,243)"/><rect x="38" y="38" width="2" height="1" fill="rgb(0,71,228)"/><rect x="40" y="38" width="4" height="1" fill="rgb(0,53,212)"/><rect x="44" y="38" width="2" height="1" fill="rgb(0,71,228)"/><rect x="81" y="38" width="1" height="1" fill="rgb(0,88,243)"/><rect x="82" y="38" width="6" height="1" fill="rgb(0,71,228)"/><rect x="88" y="38" width="1" height="1" fill="rgb(0,88,243)"/><rect x="38" y="39" width="1" height="1" fill="rgb(0,88,243)"/><rect x="39" y="39" width="6" height="1" fill="rgb(0,71,228)"/><rect x="45" y="39" width="1" height="1" fill="rgb(0,88,243)"/><rect x="81" y="39" width="2" height="1" fill="rgb(44,131,251)"/><rect x="83" y="39" width="4" height="1" fill="rgb(0,88,243)"/><rect x="87" y="39" width="2" height="1" fill="rgb(44,131,251)"/><rect x="38" y="40" width="2" height="1" fill="rgb(44,131,251)"/><rect x="40" y="40" width="4" height="1" fill="rgb(0,88,243)"/><rect x="44" y="40" width="2" height="1" fill="rgb(44,131,251)"/><rect x="83" y="40" width="4" height="1" fill="rgb(44,131,251)"/><rect x="40" y="41" width="4" height="1" fill="rgb(44,131,251)"/><rect x="97" y="45" width="4" height="1" fill="rgb(44,131,251)"/><rect x="26" y="46" width="4" height="1" fill="rgb(44,131,251)"/><rect x="95" y="46" width="2" height="1" fill="rgb(44,131,251)"/><rect x="97" y="46" width="1" height="1" fill="rgb(71,155,251)"/><rect x="98" y="46" width="2" height="1" fill="rgb(97,179,251)"/><rect x="100" y="46" width="1" height="1" fill="rgb(71,155,251)"/><rect x="101" y="46" width="2" height="1" fill="rgb(44,131,251)"/><rect x="24" y="47" width="2" height="1" fill="rgb(44,131,251)"/><rect x="26" y="47" width="1" height="1" fill="rgb(71,155,251)"/><rect x="27" y="47" width="2" height="1" fill="rgb(97,179,251)"/><rect x="29" y="47" width="1" height="1" fill="rgb(71,155,251)"/><rect x="30" y="47" width="2" height="1" fill="rgb(44,131,251)"/><rect x="95" y="47" width="1" height="1" fill="rgb(44,131,251)"/><rect x="96" y="47" width="6" height="1" fill="rgb(71,155,251)"/><rect x="102" y="47" width="1" height="1" fill="rgb(44,131,251)"/><rect x="24" y="48" width="1" height="1" fill="rgb(44,131,251)"/><rect x="25" y="48" width="6" height="1" fill="rgb(71,155,251)"/><rect x="31" y="48" width="1" height="1" fill="rgb(44,131,251)"/><rect x="94" y="48" width="1" height="1" fill="rgb(0,88,243)"/><rect x="95" y="48" width="1" height="1" fill="rgb(17,114,251)"/><rect x="96" y="48" width="1" height="1" fill="rgb(44,131,251)"/><rect x="97" y="48" width="4" height="1" fill="rgb(71,155,251)"/><rect x="101" y="48" width="1" height="1" fill="rgb(44,131,251)"/><rect x="102" y="48" width="1" height="1" fill="rgb(17,114,251)"/><rect x="103" y="48" width="1" height="1" fill="rgb(0,88,243)"/><rect x="23" y="49" width="1" height="1" fill="rgb(0,88,243)"/><rect x="24" y="49" width="1" height="1" fill="rgb(17,114,251)"/><rect x="25" y="49" width="1" height="1" fill="rgb(44,131,251)"/><rect x="26" y="49" width="4" height="1" fill="rgb(71,155,251)"/><rect x="30" y="49" width="1" height="1" fill="rgb(44,131,251)"/><rect x="31" y="49" width="1" height="1" fill="rgb(17,114,251)"/><rect x="32" y="49" width="1" height="1" fill="rgb(0,88,243)"/><rect x="94" y="49" width="1" height="1" fill="rgb(0,71,228)"/><rect x="95" y="49" width="2" height="1" fill="rgb(17,114,251)"/><rect x="97" y="49" width="4" height="1" fill="rgb(44,131,251)"/><rect x="101" y="49" width="2" height="1" fill="rgb(17,114,251)"/><rect x="103" y="49" width="1" height="1" fill="rgb(0,71,228)"/><rect x="23" y="50" width="1" height="1" fill="rgb(0,71,228)"/><rect x="24" y="50" width="2" height="1" fill="rgb(17,114,251)"/><rect x="26" y="50" width="4" height="1" fill="rgb(44,131,251)"/><rect x="30" y="50" width="2" height="1" fill="rgb(17,114,251)"/><rect x="32" y="50" width="1" height="1" fill="rgb(0,71,228)"/><rect x="95" y="50" width="1" height="1" fill="rgb(0,71,228)"/><rect x="96" y="50" width="1" height="1" fill="rgb(0,88,243)"/><rect x="97" y="50" width="4" height="1" fill="rgb(17,114,251)"/><rect x="101" y="50" width="1" height="1" fill="rgb(0,88,243)"/><rect x="102" y="50" width="1" height="1" fill="rgb(0,71,228)"/><rect x="94" y="50" width="1" height="2" fill="rgb(0,88,243)"/><rect x="103" y="50" width="1" height="2" fill="rgb(0,88,243)"/><rect x="24" y="51" width="1" height="1" fill="rgb(0,71,228)"/><rect x="25" y="51" width="1" height="1" fill="rgb(0,88,243)"/><rect x="26" y="51" width="4" height="1" fill="rgb(17,114,251)"/><rect x="30" y="51" width="1" height="1" fill="rgb(0,88,243)"/><rect x="31" y="51" width="1" height="1" fill="rgb(0,71,228)"/><rect x="95" y="51" width="2" height="1" fill="rgb(0,71,228)"/><rect x="97" y="51" width="4" height="1" fill="rgb(0,53,212)"/><rect x="101" y="51" width="2" height="1" fill="rgb(0,71,228)"/><rect x="23" y="51" width="1" height="2" fill="rgb(0,88,243)"/><rect x="32" y="51" width="1" height="2" fill="rgb(0,88,243)"/><rect x="24" y="52" width="2" height="1" fill="rgb(0,71,228)"/><rect x="26" y="52" width="4" height="1" fill="rgb(0,53,212)"/><rect x="30" y="52" width="2" height="1" fill="rgb(0,71,228)"/><rect x="95" y="52" width="1" height="1" fill="rgb(0,88,243)"/><rect x="96" y="52" width="6" height="1" fill="rgb(0,71,228)"/><rect x="102" y="52" width="1" height="1" fill="rgb(0,88,243)"/><rect x="24" y="53" width="1" height="1" fill="rgb(0,88,243)"/><rect x="25" y="53" width="6" height="1" fill="rgb(0,71,228)"/><rect x="31" y="53" width="1" height="1" fill="rgb(0,88,243)"/><rect x="95" y="53" width="2" height="1" fill="rgb(44,131,251)"/><rect x="97" y="53" width="4" height="1" fill="rgb(0,88,243)"/><rect x="101" y="53" width="2" height="1" fill="rgb(44,131,251)"/><rect x="24" y="54" width="2" height="1" fill="rgb(44,131,251)"/><rect x="26" y="54" width="4" height="1" fill="rgb(0,88,243)"/><rect x="30" y="54" width="2" height="1" fill="rgb(44,131,251)"/><rect x="97" y="54" width="4" height="1" fill="rgb(44,131,251)"/><rect x="26" y="55" width="4" height="1" fill="rgb(44,131,251)"/><rect x="20" y="67" width="4" height="1" fill="rgb(44,131,251)"/><rect x="104" y="67" width="4" height="1" fill="rgb(44,131,251)"/><rect x="18" y="68" width="2" height="1" fill="rgb(44,131,251)"/><rect x="20" y="68" width="1" height="1" fill="rgb(71,155,251)"/><rect x="21" y="68" width="2" height="1" fill="rgb(97,179,251)"/><rect x="23" y="68" width="1" height="1" fill="rgb(71,155,251)"/><rect x="24" y="68" width="2" height="1" fill="rgb(44,131,251)"/><rect x="102" y="68" width="2" height="1" fill="rgb(44,131,251)"/><rect x="104" y="68" width="1" height="1" fill="rgb(71,155,251)"/><rect x="105" y="68" width="2" height="1" fill="rgb(97,179,251)"/><rect x="107" y="68" width="1" height="1" fill="rgb(71,155,251)"/><rect x="108" y="68" width="2" height="1" fill="rgb(44,131,251)"/><rect x="18" y="69" width="1" height="1" fill="rgb(44,131,251)"/><rect x="19" y="69" width="6" height="1" fill="rgb(71,155,251)"/><rect x="25" y="69" width="1" height="1" fill="rgb(44,131,251)"/><rect x="102" y="69" width="1" height="1" fill="rgb(44,131,251)"/><rect x="103" y="69" width="6" height="1" fill="rgb(71,155,251)"/><rect x="109" y="69" width="1" height="1" fill="rgb(44,131,251)"/><rect x="17" y="70" width="1" height="1" fill="rgb(0,88,243)"/><rect x="18" y="70" width="1" height="1" fill="rgb(17,114,251)"/><rect x="19" y="70" width="1" height="1" fill="rgb(44,131,251)"/><rect x="20" y="70" width="4" height="1" fill="rgb(71,155,251)"/><rect x="24" y="70" width="1" height="1" fill="rgb(44,131,251)"/><rect x="25" y="70" width="1" height="1" fill="rgb(17,114,251)"/><rect x="26" y="70" width="1" height="1" fill="rgb(0,88,243)"/><rect x="101" y="70" width="1" height="1" fill="rgb(0,88,243)"/><rect x="102" y="70" width="1" height="1" fill="rgb(17,114,251)"/><rect x="103" y="70" width="1" height="1" fill="rgb(44,131,251)"/><rect x="104" y="70" width="4" height="1" fill="rgb(71,155,251)"/><rect x="108" y="70" width="1" height="1" fill="rgb(44,131,251)"/><rect x="109" y="70" width="1" height="1" fill="rgb(17,114,251)"/><rect x="110" y="70" width="1" height="1" fill="rgb(0,88,243)"/><rect x="17" y="71" width="1" height="1" fill="rgb(0,71,228)"/><rect x="18" y="71" width="2" height="1" fill="rgb(17,114,251)"/><rect x="20" y="71" width="4" height="1" fill="rgb(44,131,251)"/><rect x="24" y="71" width="2" height="1" fill="rgb(17,114,251)"/><rect x="26" y="71" width="1" height="1" fill="rgb(0,71,228)"/><rect x="101" y="71" width="1" height="1" fill="rgb(0,71,228)"/><rect x="102" y="71" width="2" height="1" fill="rgb(17,114,251)"/><rect x="104" y="71" width="4" height="1" fill="rgb(44,131,251)"/><rect x="108" y="71" width="2" height="1" fill="rgb(17,114,251)"/><rect x="110" y="71" width="1" height="1" fill="rgb(0,71,228)"/><rect x="18" y="72" width="1" height="1" fill="rgb(0,71,228)"/><rect x="19" y="72" width="1" height="1" fill="rgb(0,88,243)"/><rect x="20" y="72" width="4" height="1" fill="rgb(17,114,251)"/><rect x="24" y="72" width="1" height="1" fill="rgb(0,88,243)"/><rect x="25" y="72" width="1" height="1" fill="rgb(0,71,228)"/><rect x="102" y="72" width="1" height="1" fill="rgb(0,71,228)"/><rect x="103" y="72" width="1" height="1" fill="rgb(0,88,243)"/><rect x="104" y="72" width="4" height="1" fill="rgb(17,114,251)"/><rect x="108" y="72" width="1" height="1" fill="rgb(0,88,243)"/><rect x="109" y="72" width="1" height="1" fill="rgb(0,71,228)"/><rect x="17" y="72" width="1" height="2" fill="rgb(0,88,243)"/><rect x="26" y="72" width="1" height="2" fill="rgb(0,88,243)"/><rect x="101" y="72" width="1" height="2" fill="rgb(0,88,243)"/><rect x="110" y="72" width="1" height="2" fill="rgb(0,88,243)"/><rect x="18" y="73" width="2" height="1" fill="rgb(0,71,228)"/><rect x="20" y="73" width="4" height="1" fill="rgb(0,53,212)"/><rect x="24" y="73" width="2" height="1" fill="rgb(0,71,228)"/><rect x="102" y="73" width="2" height="1" fill="rgb(0,71,228)"/><rect x="104" y="73" width="4" height="1" fill="rgb(0,53,212)"/><rect x="108" y="73" width="2" height="1" fill="rgb(0,71,228)"/><rect x="18" y="74" width="1" height="1" fill="rgb(0,88,243)"/><rect x="19" y="74" width="6" height="1" fill="rgb(0,71,228)"/><rect x="25" y="74" width="1" height="1" fill="rgb(0,88,243)"/><rect x="102" y="74" width="1" height="1" fill="rgb(0,88,243)"/><rect x="103" y="74" width="6" height="1" fill="rgb(0,71,228)"/><rect x="109" y="74" width="1" height="1" fill="rgb(0,88,243)"/><rect x="18" y="75" width="2" height="1" fill="rgb(44,131,251)"/><rect x="20" y="75" width="4" height="1" fill="rgb(0,88,243)"/><rect x="24" y="75" width="2" height="1" fill="rgb(44,131,251)"/><rect x="102" y="75" width="2" height="1" fill="rgb(44,131,251)"/><rect x="104" y="75" width="4" height="1" fill="rgb(0,88,243)"/><rect x="108" y="75" width="2" height="1" fill="rgb(44,131,251)"/><rect x="20" y="76" width="4" height="1" fill="rgb(44,131,251)"/><rect x="104" y="76" width="4" height="1" fill="rgb(44,131,251)"/><rect x="98" y="88" width="4" height="1" fill="rgb(44,131,251)"/><rect x="27" y="89" width="4" height="1" fill="rgb(44,131,251)"/><rect x="96" y="89" width="2" height="1" fill="rgb(44,131,251)"/><rect x="98" y="89" width="1" height="1" fill="rgb(71,155,251)"/><rect x="99" y="89" width="2" height="1" fill="rgb(97,179,251)"/><rect x="101" y="89" width="1" height="1" fill="rgb(71,155,251)"/><rect x="102" y="89" width="2" height="1" fill="rgb(44,131,251)"/><rect x="25" y="90" width="2" height="1" fill="rgb(44,131,251)"/><rect x="27" y="90" width="1" height="1" fill="rgb(71,155,251)"/><rect x="28" y="90" width="2" height="1" fill="rgb(97,179,251)"/><rect x="30" y="90" width="1" height="1" fill="rgb(71,155,251)"/><rect x="31" y="90" width="2" height="1" fill="rgb(44,131,251)"/><rect x="96" y="90" width="1" height="1" fill="rgb(44,131,251)"/><rect x="97" y="90" width="6" height="1" fill="rgb(71,155,251)"/><rect x="103" y="90" width="1" height="1" fill="rgb(44,131,251)"/><rect x="25" y="91" width="1" height="1" fill="rgb(44,131,251)"/><rect x="26" y="91" width="6" height="1" fill="rgb(71,155,251)"/><rect x="32" y="91" width="1" height="1" fill="rgb(44,131,251)"/><rect x="95" y="91" width="1" height="1" fill="rgb(0,88,243)"/><rect x="96" y="91" width="1" height="1" fill="rgb(17,114,251)"/><rect x="97" y="91" width="1" height="1" fill="rgb(44,131,251)"/><rect x="98" y="91" width="4" height="1" fill="rgb(71,155,251)"/><rect x="102" y="91" width="1" height="1" fill="rgb(44,131,251)"/><rect x="103" y="91" width="1" height="1" fill="rgb(17,114,251)"/><rect x="104" y="91" width="1" height="1" fill="rgb(0,88,243)"/><rect x="24" y="92" width="1" height="1" fill="rgb(0,88,243)"/><rect x="25" y="92" width="1" height="1" fill="rgb(17,114,251)"/><rect x="26" y="92" width="1" height="1" fill="rgb(44,131,251)"/><rect x="27" y="92" width="4" height="1" fill="rgb(71,155,251)"/><rect x="31" y="92" width="1" height="1" fill="rgb(44,131,251)"/><rect x="32" y="92" width="1" height="1" fill="rgb(17,114,251)"/><rect x="33" y="92" width="1" height="1" fill="rgb(0,88,243)"/><rect x="95" y="92" width="1" height="1" fill="rgb(0,71,228)"/><rect x="96" y="92" width="2" height="1" fill="rgb(17,114,251)"/><rect x="98" y="92" width="4" height="1" fill="rgb(44,131,251)"/><rect x="102" y="92" width="2" height="1" fill="rgb(17,114,251)"/><rect x="104" y="92" width="1" height="1" fill="rgb(0,71,228)"/><rect x="24" y="93" width="1" height="1" fill="rgb(0,71,228)"/><rect x="25" y="93" width="2" height="1" fill="rgb(17,114,251)"/><rect x="27" y="93" width="4" height="1" fill="rgb(44,131,251)"/><rect x="31" y="93" width="2" height="1" fill="rgb(17,114,251)"/><rect x="33" y="93" width="1" height="1" fill="rgb(0,71,228)"/><rect x="96" y="93" width="1" height="1" fill="rgb(0,71,228)"/><rect x="97" y="93" width="1" height="1" fill="rgb(0,88,243)"/><rect x="98" y="93" width="4" height="1" fill="rgb(17,114,251)"/><rect x="102" y="93" width="1" height="1" fill="rgb(0,88,243)"/><rect x="103" y="93" width="1" height="1" fill="rgb(0,71,228)"/><rect x="95" y="93" width="1" height="2" fill="rgb(0,88,243)"/><rect x="104" y="93" width="1" height="2" fill="rgb(0,88,243)"/><rect x="25" y="94" width="1" height="1" fill="rgb(0,71,228)"/><rect x="26" y="94" width="1" height="1" fill="rgb(0,88,243)"/><rect x="27" y="94" width="4" height="1" fill="rgb(17,114,251)"/><rect x="31" y="94" width="1" height="1" fill="rgb(0,88,243)"/><rect x="32" y="94" width="1" height="1" fill="rgb(0,71,228)"/><rect x="96" y="94" width="2" height="1" fill="rgb(0,71,228)"/><rect x="98" y="94" width="4" height="1" fill="rgb(0,53,212)"/><rect x="102" y="94" width="2" height="1" fill="rgb(0,71,228)"/><rect x="24" y="94" width="1" height="2" fill="rgb(0,88,243)"/><rect x="33" y="94" width="1" height="2" fill="rgb(0,88,243)"/><rect x="25" y="95" width="2" height="1" fill="rgb(0,71,228)"/><rect x="27" y="95" width="4" height="1" fill="rgb(0,53,212)"/><rect x="31" y="95" width="2" height="1" fill="rgb(0,71,228)"/><rect x="96" y="95" width="1" height="1" fill="rgb(0,88,243)"/><rect x="97" y="95" width="6" height="1" fill="rgb(0,71,228)"/><rect x="103" y="95" width="1" height="1" fill="rgb(0,88,243)"/><rect x="25" y="96" width="1" height="1" fill="rgb(0,88,243)"/><rect x="26" y="96" width="6" height="1" fill="rgb(0,71,228)"/><rect x="32" y="96" width="1" height="1" fill="rgb(0,88,243)"/><rect x="96" y="96" width="2" height="1" fill="rgb(44,131,251)"/><rect x="98" y="96" width="4" height="1" fill="rgb(0,88,243)"/><rect x="102" y="96" width="2" height="1" fill="rgb(44,131,251)"/><rect x="25" y="97" width="2" height="1" fill="rgb(44,131,251)"/><rect x="27" y="97" width="4" height="1" fill="rgb(0,88,243)"/><rect x="31" y="97" width="2" height="1" fill="rgb(44,131,251)"/><rect x="98" y="97" width="4" height="1" fill="rgb(44,131,251)"/><rect x="27" y="98" width="4" height="1" fill="rgb(44,131,251)"/><rect x="84" y="102" width="4" height="1" fill="rgb(44,131,251)"/><rect x="41" y="103" width="4" height="1" fill="rgb(44,131,251)"/><rect x="82" y="103" width="2" height="1" fill="rgb(44,131,251)"/><rect x="84" y="103" width="1" height="1" fill="rgb(71,155,251)"/><rect x="85" y="103" width="2" height="1" fill="rgb(97,179,251)"/><rect x="87" y="103" width="1" height="1" fill="rgb(71,155,251)"/><rect x="88" y="103" width="2" height="1" fill="rgb(44,131,251)"/><rect x="39" y="104" width="2" height="1" fill="rgb(44,131,251)"/><rect x="41" y="104" width="1" height="1" fill="rgb(71,155,251)"/><rect x="42" y="104" width="2" height="1" fill="rgb(97,179,251)"/><rect x="44" y="104" width="1" height="1" fill="rgb(71,155,251)"/><rect x="45" y="104" width="2" height="1" fill="rgb(44,131,251)"/><rect x="82" y="104" width="1" height="1" fill="rgb(44,131,251)"/><rect x="83" y="104" width="6" height="1" fill="rgb(71,155,251)"/><rect x="89" y="104" width="1" height="1" fill="rgb(44,131,251)"/><rect x="39" y="105" width="1" height="1" fill="rgb(44,131,251)"/><rect x="40" y="105" width="6" height="1" fill="rgb(71,155,251)"/><rect x="46" y="105" width="1" height="1" fill="rgb(44,131,251)"/><rect x="81" y="105" width="1" height="1" fill="rgb(0,88,243)"/><rect x="82" y="105" width="1" height="1" fill="rgb(17,114,251)"/><rect x="83" y="105" width="1" height="1" fill="rgb(44,131,251)"/><rect x="84" y="105" width="4" height="1" fill="rgb(71,155,251)"/><rect x="88" y="105" width="1" height="1" fill="rgb(44,131,251)"/><rect x="89" y="105" width="1" height="1" fill="rgb(17,114,251)"/><rect x="90" y="105" width="1" height="1" fill="rgb(0,88,243)"/><rect x="38" y="106" width="1" height="1" fill="rgb(0,88,243)"/><rect x="39" y="106" width="1" height="1" fill="rgb(17,114,251)"/><rect x="40" y="106" width="1" height="1" fill="rgb(44,131,251)"/><rect x="41" y="106" width="4" height="1" fill="rgb(71,155,251)"/><rect x="45" y="106" width="1" height="1" fill="rgb(44,131,251)"/><rect x="46" y="106" width="1" height="1" fill="rgb(17,114,251)"/><rect x="47" y="106" width="1" height="1" fill="rgb(0,88,243)"/><rect x="81" y="106" width="1" height="1" fill="rgb(0,71,228)"/><rect x="82" y="106" width="2" height="1" fill="rgb(17,114,251)"/><rect x="84" y="106" width="4" height="1" fill="rgb(44,131,251)"/><rect x="88" y="106" width="2" height="1" fill="rgb(17,114,251)"/><rect x="90" y="106" width="1" height="1" fill="rgb(0,71,228)"/><rect x="38" y="107" width="1" height="1" fill="rgb(0,71,228)"/><rect x="39" y="107" width="2" height="1" fill="rgb(17,114,251)"/><rect x="41" y="107" width="4" height="1" fill="rgb(44,131,251)"/><rect x="45" y="107" width="2" height="1" fill="rgb(17,114,251)"/><rect x="47" y="107" width="1" height="1" fill="rgb(0,71,228)"/><rect x="82" y="107" width="1" height="1" fill="rgb(0,71,228)"/><rect x="83" y="107" width="1" height="1" fill="rgb(0,88,243)"/><rect x="84" y="107" width="4" height="1" fill="rgb(17,114,251)"/><rect x="88" y="107" width="1" height="1" fill="rgb(0,88,243)"/><rect x="89" y="107" width="1" height="1" fill="rgb(0,71,228)"/><rect x="81" y="107" width="1" height="2" fill="rgb(0,88,243)"/><rect x="90" y="107" width="1" height="2" fill="rgb(0,88,243)"/><rect x="39" y="108" width="1" height="1" fill="rgb(0,71,228)"/><rect x="40" y="108" width="1" height="1" fill="rgb(0,88,243)"/><rect x="41" y="108" width="4" height="1" fill="rgb(17,114,251)"/><rect x="45" y="108" width="1" height="1" fill="rgb(0,88,243)"/><rect x="46" y="108" width="1" height="1" fill="rgb(0,71,228)"/><rect x="82" y="108" width="2" height="1" fill="rgb(0,71,228)"/><rect x="84" y="108" width="4" height="1" fill="rgb(0,53,212)"/><rect x="88" y="108" width="2" height="1" fill="rgb(0,71,228)"/><rect x="38" y="108" width="1" height="2" fill="rgb(0,88,243)"/><rect x="47" y="108" width="1" height="2" fill="rgb(0,88,243)"/><rect x="39" y="109" width="2" height="1" fill="rgb(0,71,228)"/><rect x="41" y="109" width="4" height="1" fill="rgb(0,53,212)"/><rect x="45" y="109" width="2" height="1" fill="rgb(0,71,228)"/><rect x="62" y="109" width="4" height="1" fill="rgb(44,131,251)"/><rect x="82" y="109" width="1" height="1" fill="rgb(0,88,243)"/><rect x="83" y="109" width="6" height="1" fill="rgb(0,71,228)"/><rect x="89" y="109" width="1" height="1" fill="rgb(0,88,243)"/><rect x="39" y="110" width="1" height="1" fill="rgb(0,88,243)"/><rect x="40" y="110" width="6" height="1" fill="rgb(0,71,228)"/><rect x="46" y="110" width="1" height="1" fill="rgb(0,88,243)"/><rect x="60" y="110" width="2" height="1" fill="rgb(44,131,251)"/><rect x="62" y="110" width="1" height="1" fill="rgb(71,155,251)"/><rect x="63" y="110" width="2" height="1" fill="rgb(97,179,251)"/><rect x="65" y="110" width="1" height="1" fill="rgb(71,155,251)"/><rect x="66" y="110" width="2" height="1" fill="rgb(44,131,251)"/><rect x="82" y="110" width="2" height="1" fill="rgb(44,131,251)"/><rect x="84" y="110" width="4" height="1" fill="rgb(0,88,243)"/><rect x="88" y="110" width="2" height="1" fill="rgb(44,131,251)"/><rect x="39" y="111" width="2" height="1" fill="rgb(44,131,251)"/><rect x="41" y="111" width="4" height="1" fill="rgb(0,88,243)"/><rect x="45" y="111" width="2" height="1" fill="rgb(44,131,251)"/><rect x="60" y="111" width="1" height="1" fill="rgb(44,131,251)"/><rect x="61" y="111" width="6" height="1" fill="rgb(71,155,251)"/><rect x="67" y="111" width="1" height="1" fill="rgb(44,131,251)"/><rect x="84" y="111" width="4" height="1" fill="rgb(44,131,251)"/><rect x="41" y="112" width="4" height="1" fill="rgb(44,131,251)"/><rect x="59" y="112" width="1" height="1" fill="rgb(0,88,243)"/><rect x="60" y="112" width="1" height="1" fill="rgb(17,114,251)"/><rect x="61" y="112" width="1" height="1" fill="rgb(44,131,251)"/><rect x="62" y="112" width="4" height="1" fill="rgb(71,155,251)"/><rect x="66" y="112" width="1" height="1" fill="rgb(44,131,251)"/><rect x="67" y="112" width="1" height="1" fill="rgb(17,114,251)"/><rect x="68" y="112" width="1" height="1" fill="rgb(0,88,243)"/><rect x="59" y="113" width="1" height="1" fill="rgb(0,71,228)"/><rect x="60" y="113" width="2" height="1" fill="rgb(17,114,251)"/><rect x="62" y="113" width="4" height="1" fill="rgb(44,131,251)"/><rect x="66" y="113" width="2" height="1" fill="rgb(17,114,251)"/><rect x="68" y="113" width="1" height="1" fill="rgb(0,71,228)"/><rect x="60" y="114" width="1" height="1" fill="rgb(0,71,228)"/><rect x="61" y="114" width="1" height="1" fill="rgb(0,88,243)"/><rect x="62" y="114" width="4" height="1" fill="rgb(17,114,251)"/><rect x="66" y="114" width="1" height="1" fill="rgb(0,88,243)"/><rect x="67" y="114" width="1" height="1" fill="rgb(0,71,228)"/><rect x="59" y="114" width="1" height="2" fill="rgb(0,88,243)"/><rect x="68" y="114" width="1" height="2" fill="rgb(0,88,243)"/><rect x="60" y="115" width="2" height="1" fill="rgb(0,71,228)"/><rect x="62" y="115" width="4" height="1" fill="rgb(0,53,212)"/><rect x="66" y="115" width="2" height="1" fill="rgb(0,71,228)"/><rect x="60" y="116" width="1" height="1" fill="rgb(0,88,243)"/><rect x="61" y="116" width="6" height="1" fill="rgb(0,71,228)"/><rect x="67" y="116" width="1" height="1" fill="rgb(0,88,243)"/><rect x="60" y="117" width="2" height="1" fill="rgb(44,131,251)"/><rect x="62" y="117" width="4" height="1" fill="rgb(0,88,243)"/><rect x="66" y="117" width="2" height="1" fill="rgb(44,131,251)"/><rect x="62" y="118" width="4" height="1" fill="rgb(44,131,251)"/></svg>