<svg xmlns="http://www.w3.org/2000/svg" width="64" height="64" viewBox="0 0 64 64"><rect x="9" y="7" width="46" height="1" fill="rgb(212,212,212)"/><rect x="8" y="8" width="2" height="1" fill="rgb(212,212,212)"/><rect x="10" y="8" width="44" height="1" fill="rgb(220,220,220)"/><rect x="54" y="8" width="2" height="1" fill="rgb(212,212,212)"/><rect x="9" y="9" width="46" height="5" fill="rgb(220,220,220)"/><rect x="9" y="14" width="6" height="1" fill="rgb(220,220,220)"/><rect x="15" y="14" width="1" height="1" fill="rgb(212,212,212)"/><rect x="16" y="14" width="32" height="1" fill="rgb(204,204,204)"/><rect x="48" y="14" width="1" height="1" fill="rgb(212,212,212)"/><rect x="49" y="14" width="6" height="1" fill="rgb(220,220,220)"/><rect x="14" y="15" width="1" height="1" fill="rgb(212,212,212)"/><rect x="15" y="15" width="1" height="1" fill="rgb(204,204,204)"/><rect x="16" y="15" width="32" height="1" fill="rgb(228,228,228)"/><rect x="48" y="15" width="1" height="1" fill="rgb(204,204,204)"/><rect x="49" y="15" width="1" height="1" fill="rgb(212,212,212)"/><rect x="15" y="16" width="34" height="2" fill="rgb(228,228,228)"/><rect x="19" y="18" width="1" height="1" fill="rgb(228,228,228)"/><rect x="20" y="18" width="2" height="1" fill="rgb(196,196,196)"/><rect x="22" y="18" width="1" height="1" fill="rgb(228,228,228)"/><rect x="23" y="18" width="2" height="1" fill="rgb(196,196,196)"/><rect x="25" y="18" width="1" height="1" fill="rgb(228,228,228)"/><rect x="26" y="18" width="2" height="1" fill="rgb(196,196,196)"/><rect x="28" y="18" width="1" height="1" fill="rgb(228,228,228)"/><rect x="29" y="18" width="2" height="1" fill="rgb(196,196,196)"/><rect x="31" y="18" width="1" height="1" fill="rgb(228,228,228)"/><rect x="32" y="18" width="2" height="1" fill="rgb(196,196,196)"/><rect x="34" y="18" width="1" height="1" fill="rgb(228,228,228)"/><rect x="35" y="18" width="2" height="1" fill="rgb(196,196,196)"/><rect x="37" y="18" width="1" height="1" fill="rgb(228,228,228)"/><rect x="38" y="18" width="2" height="1" fill="rgb(196,196,196)"/><rect x="40" y="18" width="1" height="1" fill="rgb(228,228,228)"/><rect x="41" y="18" width="2" height="1" fill="rgb(196,196,196)"/><rect x="43" y="18" width="1" height="1" fill="rgb(228,228,228)"/><rect x="44" y="18" width="2" height="1" fill="rgb(196,196,196)"/><rect x="46" y="18" width="3" height="1" fill="rgb(228,228,228)"/><rect x="15" y="18" width="3" height="2" fill="rgb(228,228,228)"/><rect x="18" y="18" width="1" height="2" fill="rgb(196,196,196)"/><rect x="19" y="19" width="30" height="1" fill="rgb(228,228,228)"/><rect x="15" y="20" width="30" height="1" fill="rgb(228,228,228)"/><rect x="45" y="20" width="1" height="2" fill="rgb(196,196,196)"/><rect x="46" y="20" width="3" height="2" fill="rgb(228,228,228)"/><rect x="19" y="21" width="26" height="1" fill="rgb(228,228,228)"/><rect x="15" y="21" width="3" height="2" fill="rgb(228,228,228)"/><rect x="18" y="21" width="1" height="2" fill="rgb(196,196,196)"/><rect x="19" y="22" width="30" height="1" fill="rgb(228,228,228)"/><rect x="15" y="23" width="30" height="1" fill="rgb(228,228,228)"/><rect x="45" y="23" width="1" height="2" fill="rgb(196,196,196)"/><rect x="46" y="23" width="3" height="2" fill="rgb(228,228,228)"/><rect x="19" y="24" width="26" height="1" fill="rgb(228,228,228)"/><rect x="15" y="24" width="3" height="2" fill="rgb(228,228,228)"/><rect x="18" y="24" width="1" height="2" fill="rgb(196,196,196)"/><rect x="19" y="25" width="30" height="1" fill="rgb(228,228,228)"/><rect x="14" y="16" width="1" height="11" fill="rgb(204,204,204)"/><rect x="49" y="16" width="1" height="11" fill="rgb(204,204,204)"/><rect x="15" y="26" width="30" height="1" fill="rgb(228,228,228)"/><rect x="45" y="26" width="1" height="2" fill="rgb(196,196,196)"/><rect x="46" y="26" width="3" height="2" fill="rgb(228,228,228)"/><rect x="19" y="27" width="26" height="1" fill="rgb(228,228,228)"/><rect x="15" y="27" width="3" height="2" fill="rgb(228,228,228)"/><rect x="18" y="27" width="1" height="2" fill="rgb(196,196,196)"/><rect x="19" y="28" width="30" height="1" fill="rgb(228,228,228)"/><rect x="15" y="29" width="30" height="1" fill="rgb(228,228,228)"/><rect x="45" y="29" width="1" height="2" fill="rgb(196,196,196)"/><rect x="46" y="29" width="3" height="2" fill="rgb(228,228,228)"/><rect x="19" y="30" width="26" height="1" fill="rgb(228,228,228)"/><rect x="15" y="30" width="3" height="2" fill="rgb(228,228,228)"/><rect x="18" y="30" width="1" height="2" fill="rgb(196,196,196)"/><rect x="19" y="31" width="30" height="1" fill="rgb(228,228,228)"/><rect x="15" y="32" width="30" height="1" fill="rgb(228,228,228)"/><rect x="45" y="32" width="1" height="2" fill="rgb(196,196,196)"/><rect x="46" y="32" width="3" height="2" fill="rgb(228,228,228)"/><rect x="19" y="33" width="26" height="1" fill="rgb(228,228,228)"/><rect x="15" y="33" width="3" height="2" fill="rgb(228,228,228)"/><rect x="18" y="33" width="1" height="2" fill="rgb(196,196,196)"/><rect x="19" y="34" width="30" height="1" fill="rgb(228,228,228)"/><rect x="15" y="35" width="30" height="1" fill="rgb(228,228,228)"/><rect x="45" y="35" width="1" height="2" fill="rgb(196,196,196)"/><rect x="46" y="35" width="3" height="2" fill="rgb(228,228,228)"/><rect x="19" y="36" width="26" height="1" fill="rgb(228,228,228)"/><rect x="15" y="36" width="3" height="2" fill="rgb(228,228,228)"/><rect x="18" y="36" width="1" height="2" fill="rgb(196,196,196)"/><rect x="19" y="37" width="30" height="1" fill="rgb(228,228,228)"/><rect x="15" y="38" width="30" height="1" fill="rgb(228,228,228)"/><rect x="45" y="38" width="1" height="2" fill="rgb(196,196,196)"/><rect x="46" y="38" width="3" height="2" fill="rgb(228,228,228)"/><rect x="19" y="39" width="26" height="1" fill="rgb(228,228,228)"/><rect x="15" y="39" width="3" height="2" fill="rgb(228,228,228)"/><rect x="18" y="39" width="1" height="2" fill="rgb(196,196,196)"/><rect x="19" y="40" width="30" height="1" fill="rgb(228,228,228)"/><rect x="15" y="41" width="30" height="1" fill="rgb(228,228,228)"/><rect x="45" y="41" width="1" height="2" fill="rgb(196,196,196)"/><rect x="46" y="41" width="3" height="2" fill="rgb(228,228,228)"/><rect x="19" y="42" width="26" height="1" fill="rgb(228,228,228)"/><rect x="15" y="42" width="3" height="2" fill="rgb(228,228,228)"/><rect x="18" y="42" width="1" height="2" fill="rgb(196,196,196)"/><rect x="19" y="43" width="30" height="1" fill="rgb(228,228,228)"/><rect x="15" y="44" width="30" height="1" fill="rgb(228,228,228)"/><rect x="45" y="44" width="1" height="2" fill="rgb(196,196,196)"/><rect x="46" y="44" width="3" height="2" fill="rgb(228,228,228)"/><rect x="15" y="45" width="3" height="1" fill="rgb(228,228,228)"/><rect x="18" y="45" width="2" height="1" fill="rgb(196,196,196)"/><rect x="20" y="45" width="1" height="1" fill="rgb(228,228,228)"/><rect x="21" y="45" width="2" height="1" fill="rgb(196,196,196)"/><rect x="23" y="45" width="1" height="1" fill="rgb(228,228,228)"/><rect x="24" y="45" width="2" height="1" fill="rgb(196,196,196)"/><rect x="26" y="45" width="1" height="1" fill="rgb(228,228,228)"/><rect x="27" y="45" width="2" height="1" fill="rgb(196,196,196)"/><rect x="29" y="45" width="1" height="1" fill="rgb(228,228,228)"/><rect x="30" y="45" width="2" height="1" fill="rgb(196,196,196)"/><rect x="32" y="45" width="1" height="1" fill="rgb(228,228,228)"/><rect x="33" y="45" width="2" height="1" fill="rgb(196,196,196)"/><rect x="35" y="45" width="1" height="1" fill="rgb(228,228,228)"/><rect x="36" y="45" width="2" height="1" fill="rgb(196,196,196)"/><rect x="38" y="45" width="1" height="1" fill="rgb(228,228,228)"/><rect x="39" y="45" width="2" height="1" fill="rgb(196,196,196)"/><rect x="41" y="45" width="1" height="1" fill="rgb(228,228,228)"/><rect x="42" y="45" width="2" height="1" fill="rgb(196,196,196)"/><rect x="44" y="45" width="1" height="1" fill="rgb(228,228,228)"/><rect x="14" y="27" width="1" height="20" fill="rgb(212,212,212)"/><rect x="15" y="46" width="34" height="1" fill="rgb(228,228,228)"/><rect x="9" y="15" width="5" height="33" fill="rgb(220,220,220)"/><rect x="49" y="27" width="1" height="21" fill="rgb(212,212,212)"/><rect x="14" y="47" width="2" height="1" fill="rgb(212,212,212)"/><rect x="16" y="47" width="1" height="1" fill="rgb(220,220,220)"/><rect x="17" y="47" width="32" height="1" fill="rgb(228,228,228)"/><rect x="50" y="15" width="5" height="34" fill="rgb(220,220,220)"/><rect x="9" y="48" width="6" height="1" fill="rgb(220,220,220)"/><rect x="15" y="48" width="2" height="1" fill="rgb(212,212,212)"/><rect x="17" y="48" width="30" height="1" fill="rgb(228,228,228)"/><rect x="47" y="48" width="1" height="1" fill="rgb(220,220,220)"/><rect x="48" y="48" width="2" height="1" fill="rgb(212,212,212)"/><rect x="9" y="49" width="7" height="1" fill="rgb(220,220,220)"/><rect x="16" y="49" width="33" height="1" fill="rgb(212,212,212)"/><rect x="49" y="49" width="6" height="1" fill="rgb(220,220,220)"/><rect x="9" y="50" width="46" height="1" fill="rgb(220,220,220)"/><rect x="9" y="51" width="16" height="1" fill="rgb(220,220,220)"/><rect x="25" y="51" width="1" height="1" fill="rgb(212,212,212)"/><rect x="26" y="51" width="11" height="1" fill="rgb(204,204,204)"/><rect x="37" y="51" width="1" height="1" fill="rgb(212,212,212)"/><rect x="38" y="51" width="17" height="1" fill="rgb(220,220,220)"/><rect x="9" y="52" width="17" height="1" fill="rgb(220,220,220)"/><rect x="26" y="52" width="1" height="1" fill="rgb(212,212,212)"/><rect x="27" y="52" width="9" height="1" fill="rgb(204,204,204)"/><rect x="36" y="52" width="1" height="1" fill="rgb(212,212,212)"/><rect x="37" y="52" width="18" height="1" fill="rgb(220,220,220)"/><rect x="9" y="53" width="19" height="1" fill="rgb(220,220,220)"/><rect x="28" y="53" width="1" height="1" fill="rgb(212,212,212)"/><rect x="29" y="53" width="5" height="1" fill="rgb(204,204,204)"/><rect x="34" y="53" width="1" height="1" fill="rgb(212,212,212)"/><rect x="35" y="53" width="20" height="1" fill="rgb(220,220,220)"/><rect x="9" y="54" width="21" height="1" fill="rgb(220,220,220)"/><rect x="30" y="54" width="1" height="1" fill="rgb(212,212,212)"/><rect x="31" y="54" width="1" height="1" fill="rgb(204,204,204)"/><rect x="32" y="54" width="1" height="1" fill="rgb(212,212,212)"/><rect x="33" y="54" width="22" height="1" fill="rgb(220,220,220)"/><rect x="8" y="9" width="1" height="48" fill="rgb(212,212,212)"/><rect x="9" y="55" width="46" height="2" fill="rgb(220,220,220)"/><rect x="8" y="57" width="2" height="1" fill="rgb(212,212,212)"/><rect x="10" y="57" width="45" height="2" fill="rgb(220,220,220)"/><rect x="9" y="58" width="1" height="1" fill="rgb(212,212,212)"/><rect x="9" y="59" width="2" height="1" fill="rgb(212,212,212)"/><rect x="11" y="59" width="44" height="1" fill="rgb(220,220,220)"/><rect x="55" y="9" width="1" height="52" fill="rgb(212,212,212)"/><rect x="10" y="60" width="2" height="1" fill="rgb(212,212,212)"/><rect x="12" y="60" width="43" height="1" fill="rgb(220,220,220)"/><rect x="11" y="61" width="3" height="1" fill="rgb(212,212,212)"/><rect x="14" y="61" width="40" height="1" fill="rgb(220,220,220)"/><rect x="54" y="61" width="2" height="1" fill="rgb(212,212,212)"/><rect x="13" y="62" width="42" height="1" fill="rgb(212,212,212)"/></svg>