<svg xmlns="http://www.w3.org/2000/svg" width="128" height="144" viewBox="0 0 128 144"><rect x="62" y="27" width="4" height="1" fill="rgb(44,131,251)"/><rect x="60" y="28" width="2" height="1" fill="rgb(44,131,251)"/><rect x="62" y="28" width="1" height="1" fill="rgb(71,155,251)"/><rect x="63" y="28" width="2" height="1" fill="rgb(97,179,251)"/><rect x="65" y="28" width="1" height="1" fill="rgb(71,155,251)"/><rect x="66" y="28" width="2" height="1" fill="rgb(44,131,251)"/><rect x="60" y="29" width="1" height="1" fill="rgb(44,131,251)"/><rect x="61" y="29" width="6" height="1" fill="rgb(71,155,251)"/><rect x="67" y="29" width="1" height="1" fill="rgb(44,131,251)"/><rect x="59" y="30" width="1" height="1" fill="rgb(0,88,243)"/><rect x="60" y="30" width="1" height="1" fill="rgb(17,114,251)"/><rect x="61" y="30" width="1" height="1" fill="rgb(44,131,251)"/><rect x="62" y="30" width="4" height="1" fill="rgb(71,155,251)"/><rect x="66" y="30" width="1" height="1" fill="rgb(44,131,251)"/><rect x="67" y="30" width="1" height="1" fill="rgb(17,114,251)"/><rect x="68" y="30" width="1" height="1" fill="rgb(0,88,243)"/><rect x="59" y="31" width="1" height="1" fill="rgb(0,71,228)"/><rect x="60" y="31" width="2" height="1" fill="rgb(17,114,251)"/><rect x="62" y="31" width="4" height="1" fill="rgb(44,131,251)"/><rect x="66" y="31" width="2" height="1" fill="rgb(17,114,251)"/><rect x="68" y="31" width="1" height="1" fill="rgb(0,71,228)"/><rect x="60" y="32" width="1" height="1" fill="rgb(0,71,228)"/><rect x="61" y="32" width="1" height="1" fill="rgb(0,88,243)"/><rect x="62" y="32" width="4" height="1" fill="rgb(17,114,251)"/><rect x="66" y="32" width="1" height="1" fill="rgb(0,88,243)"/><rect x="67" y="32" width="1" height="1" fill="rgb(0,71,228)"/><rect x="59" y="32" width="1" height="2" fill="rgb(0,88,243)"/><rect x="68" y="32" width="1" height="2" fill="rgb(0,88,243)"/><rect x="42" y="33" width="4" height="1" fill="rgb(44,131,251)"/><rect x="60" y="33" width="2" height="1" fill="rgb(0,71,228)"/><rect x="62" y="33" width="4" height="1" fill="rgb(0,53,212)"/><rect x="66" y="33" width="2" height="1" fill="rgb(0,71,228)"/><rect x="82" y="33" width="4" height="1" fill="rgb(44,131,251)"/><rect x="40" y="34" width="2" height="1" fill="rgb(44,131,251)"/><rect x="42" y="34" width="1" height="1" fill="rgb(71,155,251)"/><rect x="43" y="34" width="2" height="1" fill="rgb(97,179,251)"/><rect x="45" y="34" width="1" height="1" fill="rgb(71,155,251)"/><rect x="46" y="34" width="2" height="1" fill="rgb(44,131,251)"/><rect x="60" y="34" width="1" height="1" fill="rgb(0,88,243)"/><rect x="61" y="34" width="6" height="1" fill="rgb(0,71,228)"/><rect x="67" y="34" width="1" height="1" fill="rgb(0,88,243)"/><rect x="80" y="34" width="2" height="1" fill="rgb(44,131,251)"/><rect x="82" y="34" width="1" height="1" fill="rgb(71,155,251)"/><rect x="83" y="34" width="2" height="1" fill="rgb(97,179,251)"/><rect x="85" y="34" width="1" height="1" fill="rgb(71,155,251)"/><rect x="86" y="34" width="2" height="1" fill="rgb(44,131,251)"/><rect x="40" y="35" width="1" height="1" fill="rgb(44,131,251)"/><rect x="41" y="35" width="6" height="1" fill="rgb(71,155,251)"/><rect x="47" y="35" width="1" height="1" fill="rgb(44,131,251)"/><rect x="60" y="35" width="2" height="1" fill="rgb(44,131,251)"/><rect x="62" y="35" width="4" height="1" fill="rgb(0,88,243)"/><rect x="66" y="35" width="2" height="1" fill="rgb(44,131,251)"/><rect x="80" y="35" width="1" height="1" fill="rgb(44,131,251)"/><rect x="81" y="35" width="6" height="1" fill="rgb(71,155,251)"/><rect x="87" y="35" width="1" height="1" fill="rgb(44,131,251)"/><rect x="39" y="36" width="1" height="1" fill="rgb(0,88,243)"/><rect x="40" y="36" width="1" height="1" fill="rgb(17,114,251)"/><rect x="41" y="36" width="1" height="1" fill="rgb(44,131,251)"/><rect x="42" y="36" width="4" height="1" fill="rgb(71,155,251)"/><rect x="46" y="36" width="1" height="1" fill="rgb(44,131,251)"/><rect x="47" y="36" width="1" height="1" fill="rgb(17,114,251)"/><rect x="48" y="36" width="1" height="1" fill="rgb(0,88,243)"/><rect x="62" y="36" width="4" height="1" fill="rgb(44,131,251)"/><rect x="79" y="36" width="1" height="1" fill="rgb(0,88,243)"/><rect x="80" y="36" width="1" height="1" fill="rgb(17,114,251)"/><rect x="81" y="36" width="1" height="1" fill="rgb(44,131,251)"/><rect x="82" y="36" width="4" height="1" fill="rgb(71,155,251)"/><rect x="86" y="36" width="1" height="1" fill="rgb(44,131,251)"/><rect x="87" y="36" width="1" height="1" fill="rgb(17,114,251)"/><rect x="88" y="36" width="1" height="1" fill="rgb(0,88,243)"/><rect x="39" y="37" width="1" height="1" fill="rgb(0,71,228)"/><rect x="40" y="37" width="2" height="1" fill="rgb(17,114,251)"/><rect x="42" y="37" width="4" height="1" fill="rgb(44,131,251)"/><rect x="46" y="37" width="2" height="1" fill="rgb(17,114,251)"/><rect x="48" y="37" width="1" height="1" fill="rgb(0,71,228)"/><rect x="79" y="37" width="1" height="1" fill="rgb(0,71,228)"/><rect x="80" y="37" width="2" height="1" fill="rgb(17,114,251)"/><rect x="82" y="37" width="4" height="1" fill="rgb(44,131,251)"/><rect x="86" y="37" width="2" height="1" fill="rgb(17,114,251)"/><rect x="88" y="37" width="1" height="1" fill="rgb(0,71,228)"/><rect x="40" y="38" width="1" height="1" fill="rgb(0,71,228)"/><rect x="41" y="38" width="1" height="1" fill="rgb(0,88,243)"/><rect x="42" y="38" width="4" height="1" fill="rgb(17,114,251)"/><rect x="46" y="38" width="1" height="1" fill="rgb(0,88,243)"/><rect x="47" y="38" width="1" height="1" fill="rgb(0,71,228)"/><rect x="80" y="38" width="1" height="1" fill="rgb(0,71,228)"/><rect x="81" y="38" width="1" height="1" fill="rgb(0,88,243)"/><rect x="82" y="38" width="4" height="1" fill="rgb(17,114,251)"/><rect x="86" y="38" width="1" height="1" fill="rgb(0,88,243)"/><rect x="87" y="38" width="1" height="1" fill="rgb(0,71,228)"/><rect x="39" y="38" width="1" height="2" fill="rgb(0,88,243)"/><rect x="48" y="38" width="1" height="2" fill="rgb(0,88,243)"/><rect x="79" y="38" width="1" height="2" fill="rgb(0,88,243)"/><rect x="88" y="38" width="1" height="2" fill="rgb(0,88,243)"/><rect x="40" y="39" width="2" height="1" fill="rgb(0,71,228)"/><rect x="42" y="39" width="4" height="1" fill="rgb(0,53,212)"/><rect x="46" y="39" width="2" height="1" fill="rgb(0,71,228)"/><rect x="80" y="39" width="2" height="1" fill="rgb(0,71,228)"/><rect x="82" y="39" width="4" height="1" fill="rgb(0,53,212)"/><rect x="86" y="39" width="2" height="1" fill="rgb(0,71,228)"/><rect x="40" y="40" width="1" height="1" fill="rgb(0,88,243)"/><rect x="41" y="40" width="6" height="1" fill="rgb(0,71,228)"/><rect x="47" y="40" width="1" height="1" fill="rgb(0,88,243)"/><rect x="80" y="40" width="1" height="1" fill="rgb(0,88,243)"/><rect x="81" y="40" width="6" height="1" fill="rgb(0,71,228)"/><rect x="87" y="40" width="1" height="1" fill="rgb(0,88,243)"/><rect x="40" y="41" width="2" height="1" fill="rgb(44,131,251)"/><rect x="42" y="41" width="4" height="1" fill="rgb(0,88,243)"/><rect x="46" y="41" width="2" height="1" fill="rgb(44,131,251)"/><rect x="80" y="41" width="2" height="1" fill="rgb(44,131,251)"/><rect x="82" y="41" width="4" height="1" fill="rgb(0,88,243)"/><rect x="86" y="41" width="2" height="1" fill="rgb(44,131,251)"/><rect x="42" y="42" width="4" height="1" fill="rgb(44,131,251)"/><rect x="82" y="42" width="4" height="1" fill="rgb(44,131,251)"/><rect x="28" y="47" width="4" height="1" fill="rgb(44,131,251)"/><rect x="96" y="47" width="4" height="1" fill="rgb(44,131,251)"/><rect x="26" y="48" width="2" height="1" fill="rgb(44,131,251)"/><rect x="28" y="48" width="1" height="1" fill="rgb(71,155,251)"/><rect x="29" y="48" width="2" height="1" fill="rgb(97,179,251)"/><rect x="31" y="48" width="1" height="1" fill="rgb(71,155,251)"/><rect x="32" y="48" width="2" height="1" fill="rgb(44,131,251)"/><rect x="94" y="48" width="2" height="1" fill="rgb(44,131,251)"/><rect x="96" y="48" width="1" height="1" fill="rgb(71,155,251)"/><rect x="97" y="48" width="2" height="1" fill="rgb(97,179,251)"/><rect x="99" y="48" width="1" height="1" fill="rgb(71,155,251)"/><rect x="100" y="48" width="2" height="1" fill="rgb(44,131,251)"/><rect x="26" y="49" width="1" height="1" fill="rgb(44,131,251)"/><rect x="27" y="49" width="6" height="1" fill="rgb(71,155,251)"/><rect x="33" y="49" width="1" height="1" fill="rgb(44,131,251)"/><rect x="94" y="49" width="1" height="1" fill="rgb(44,131,251)"/><rect x="95" y="49" width="6" height="1" fill="rgb(71,155,251)"/><rect x="101" y="49" width="1" height="1" fill="rgb(44,131,251)"/><rect x="25" y="50" width="1" height="1" fill="rgb(0,88,243)"/><rect x="26" y="50" width="1" height="1" fill="rgb(17,114,251)"/><rect x="27" y="50" width="1" height="1" fill="rgb(44,131,251)"/><rect x="28" y="50" width="4" height="1" fill="rgb(71,155,251)"/><rect x="32" y="50" width="1" height="1" fill="rgb(44,131,251)"/><rect x="33" y="50" width="1" height="1" fill="rgb(17,114,251)"/><rect x="34" y="50" width="1" height="1" fill="rgb(0,88,243)"/><rect x="93" y="50" width="1" height="1" fill="rgb(0,88,243)"/><rect x="94" y="50" width="1" height="1" fill="rgb(17,114,251)"/><rect x="95" y="50" width="1" height="1" fill="rgb(44,131,251)"/><rect x="96" y="50" width="4" height="1" fill="rgb(71,155,251)"/><rect x="100" y="50" width="1" height="1" fill="rgb(44,131,251)"/><rect x="101" y="50" width="1" height="1" fill="rgb(17,114,251)"/><rect x="102" y="50" width="1" height="1" fill="rgb(0,88,243)"/><rect x="25" y="51" width="1" height="1" fill="rgb(0,71,228)"/><rect x="26" y="51" width="2" height="1" fill="rgb(17,114,251)"/><rect x="28" y="51" width="4" height="1" fill="rgb(44,131,251)"/><rect x="32" y="51" width="2" height="1" fill="rgb(17,114,251)"/><rect x="34" y="51" width="1" height="1" fill="rgb(0,71,228)"/><rect x="93" y="51" width="1" height="1" fill="rgb(0,71,228)"/><rect x="94" y="51" width="2" height="1" fill="rgb(17,114,251)"/><rect x="96" y="51" width="4" height="1" fill="rgb(44,131,251)"/><rect x="100" y="51" width="2" height="1" fill="rgb(17,114,251)"/><rect x="102" y="51" width="1" height="1" fill="rgb(0,71,228)"/><rect x="26" y="52" width="1" height="1" fill="rgb(0,71,228)"/><rect x="27" y="52" width="1" height="1" fill="rgb(0,88,243)"/><rect x="28" y="52" width="4" height="1" fill="rgb(17,114,251)"/><rect x="32" y="52" width="1" height="1" fill="rgb(0,88,243)"/><rect x="33" y="52" width="1" height="1" fill="rgb(0,71,228)"/><rect x="94" y="52" width="1" height="1" fill="rgb(0,71,228)"/><rect x="95" y="52" width="1" height="1" fill="rgb(0,88,243)"/><rect x="96" y="52" width="4" height="1" fill="rgb(17,114,251)"/><rect x="100" y="52" width="1" height="1" fill="rgb(0,88,243)"/><rect x="101" y="52" width="1" height="1" fill="rgb(0,71,228)"/><rect x="25" y="52" width="1" height="2" fill="rgb(0,88,243)"/><rect x="34" y="52" width="1" height="2" fill="rgb(0,88,243)"/><rect x="93" y="52" width="1" height="2" fill="rgb(0,88,243)"/><rect x="102" y="52" width="1" height="2" fill="rgb(0,88,243)"/><rect x="26" y="53" width="2" height="1" fill="rgb(0,71,228)"/><rect x="28" y="53" width="4" height="1" fill="rgb(0,53,212)"/><rect x="32" y="53" width="2" height="1" fill="rgb(0,71,228)"/><rect x="94" y="53" width="2" height="1" fill="rgb(0,71,228)"/><rect x="96" y="53" width="4" height="1" fill="rgb(0,53,212)"/><rect x="100" y="53" width="2" height="1" fill="rgb(0,71,228)"/><rect x="26" y="54" width="1" height="1" fill="rgb(0,88,243)"/><rect x="27" y="54" width="6" height="1" fill="rgb(0,71,228)"/><rect x="33" y="54" width="1" height="1" fill="rgb(0,88,243)"/><rect x="94" y="54" width="1" height="1" fill="rgb(0,88,243)"/><rect x="95" y="54" width="6" height="1" fill="rgb(0,71,228)"/><rect x="101" y="54" width="1" height="1" fill="rgb(0,88,243)"/><rect x="26" y="55" width="2" height="1" fill="rgb(44,131,251)"/><rect x="28" y="55" width="4" height="1" fill="rgb(0,88,243)"/><rect x="32" y="55" width="2" height="1" fill="rgb(44,131,251)"/><rect x="94" y="55" width="2" height="1" fill="rgb(44,131,251)"/><rect x="96" y="55" width="4" height="1" fill="rgb(0,88,243)"/><rect x="100" y="55" width="2" height="1" fill="rgb(44,131,251)"/><rect x="28" y="56" width="4" height="1" fill="rgb(44,131,251)"/><rect x="96" y="56" width="4" height="1" fill="rgb(44,131,251)"/><rect x="22" y="67" width="4" height="1" fill="rgb(44,131,251)"/><rect x="102" y="67" width="4" height="1" fill="rgb(44,131,251)"/><rect x="20" y="68" width="2" height="1" fill="rgb(44,131,251)"/><rect x="22" y="68" width="1" height="1" fill="rgb(71,155,251)"/><rect x="23" y="68" width="2" height="1" fill="rgb(97,179,251)"/><rect x="25" y="68" width="1" height="1" fill="rgb(71,155,251)"/><rect x="26" y="68" width="2" height="1" fill="rgb(44,131,251)"/><rect x="100" y="68" width="2" height="1" fill="rgb(44,131,251)"/><rect x="102" y="68" width="1" height="1" fill="rgb(71,155,251)"/><rect x="103" y="68" width="2" height="1" fill="rgb(97,179,251)"/><rect x="105" y="68" width="1" height="1" fill="rgb(71,155,251)"/><rect x="106" y="68" width="2" height="1" fill="rgb(44,131,251)"/><rect x="20" y="69" width="1" height="1" fill="rgb(44,131,251)"/><rect x="21" y="69" width="6" height="1" fill="rgb(71,155,251)"/><rect x="27" y="69" width="1" height="1" fill="rgb(44,131,251)"/><rect x="100" y="69" width="1" height="1" fill="rgb(44,131,251)"/><rect x="101" y="69" width="6" height="1" fill="rgb(71,155,251)"/><rect x="107" y="69" width="1" height="1" fill="rgb(44,131,251)"/><rect x="19" y="70" width="1" height="1" fill="rgb(0,88,243)"/><rect x="20" y="70" width="1" height="1" fill="rgb(17,114,251)"/><rect x="21" y="70" width="1" height="1" fill="rgb(44,131,251)"/><rect x="22" y="70" width="4" height="1" fill="rgb(71,155,251)"/><rect x="26" y="70" width="1" height="1" fill="rgb(44,131,251)"/><rect x="27" y="70" width="1" height="1" fill="rgb(17,114,251)"/><rect x="28" y="70" width="1" height="1" fill="rgb(0,88,243)"/><rect x="99" y="70" width="1" height="1" fill="rgb(0,88,243)"/><rect x="100" y="70" width="1" height="1" fill="rgb(17,114,251)"/><rect x="101" y="70" width="1" height="1" fill="rgb(44,131,251)"/><rect x="102" y="70" width="4" height="1" fill="rgb(71,155,251)"/><rect x="106" y="70" width="1" height="1" fill="rgb(44,131,251)"/><rect x="107" y="70" width="1" height="1" fill="rgb(17,114,251)"/><rect x="108" y="70" width="1" height="1" fill="rgb(0,88,243)"/><rect x="19" y="71" width="1" height="1" fill="rgb(0,71,228)"/><rect x="20" y="71" width="2" height="1" fill="rgb(17,114,251)"/><rect x="22" y="71" width="4" height="1" fill="rgb(44,131,251)"/><rect x="26" y="71" width="2" height="1" fill="rgb(17,114,251)"/><rect x="28" y="71" width="1" height="1" fill="rgb(0,71,228)"/><rect x="99" y="71" width="1" height="1" fill="rgb(0,71,228)"/><rect x="100" y="71" width="2" height="1" fill="rgb(17,114,251)"/><rect x="102" y="71" width="4" height="1" fill="rgb(44,131,251)"/><rect x="106" y="71" width="2" height="1" fill="rgb(17,114,251)"/><rect x="108" y="71" width="1" height="1" fill="rgb(0,71,228)"/><rect x="20" y="72" width="1" height="1" fill="rgb(0,71,228)"/><rect x="21" y="72" width="1" height="1" fill="rgb(0,88,243)"/><rect x="22" y="72" width="4" height="1" fill="rgb(17,114,251)"/><rect x="26" y="72" width="1" height="1" fill="rgb(0,88,243)"/><rect x="27" y="72" width="1" height="1" fill="rgb(0,71,228)"/><rect x="100" y="72" width="1" height="1" fill="rgb(0,71,228)"/><rect x="101" y="72" width="1" height="1" fill="rgb(0,88,243)"/><rect x="102" y="72" width="4" height="1" fill="rgb(17,114,251)"/><rect x="106" y="72" width="1" height="1" fill="rgb(0,88,243)"/><rect x="107" y="72" width="1" height="1" fill="rgb(0,71,228)"/><rect x="19" y="72" width="1" height="2" fill="rgb(0,88,243)"/><rect x="28" y="72" width="1" height="2" fill="rgb(0,88,243)"/><rect x="99" y="72" width="1" height="2" fill="rgb(0,88,243)"/><rect x="108" y="72" width="1" height="2" fill="rgb(0,88,243)"/><rect x="20" y="73" width="2" height="1" fill="rgb(0,71,228)"/><rect x="22" y="73" width="4" height="1" fill="rgb(0,53,212)"/><rect x="26" y="73" width="2" height="1" fill="rgb(0,71,228)"/><rect x="100" y="73" width="2" height="1" fill="rgb(0,71,228)"/><rect x="102" y="73" width="4" height="1" fill="rgb(0,53,212)"/><rect x="106" y="73" width="2" height="1" fill="rgb(0,71,228)"/><rect x="20" y="74" width="1" height="1" fill="rgb(0,88,243)"/><rect x="21" y="74" width="6" height="1" fill="rgb(0,71,228)"/><rect x="27" y="74" width="1" height="1" fill="rgb(0,88,243)"/><rect x="100" y="74" width="1" height="1" fill="rgb(0,88,243)"/><rect x="101" y="74" width="6" height="1" fill="rgb(0,71,228)"/><rect x="107" y="74" width="1" height="1" fill="rgb(0,88,243)"/><rect x="20" y="75" width="2" height="1" fill="rgb(44,131,251)"/><rect x="22" y="75" width="4" height="1" fill="rgb(0,88,243)"/><rect x="26" y="75" width="2" height="1" fill="rgb(44,131,251)"/><rect x="100" y="75" width="2" height="1" fill="rgb(44,131,251)"/><rect x="102" y="75" width="4" height="1" fill="rgb(0,88,243)"/><rect x="106" y="75" width="2" height="1" fill="rgb(44,131,251)"/><rect x="22" y="76" width="4" height="1" fill="rgb(44,131,251)"/><rect x="102" y="76" width="4" height="1" fill="rgb(44,131,251)"/><rect x="28" y="87" width="4" height="1" fill="rgb(44,131,251)"/><rect x="96" y="87" width="4" height="1" fill="rgb(44,131,251)"/><rect x="26" y="88" width="2" height="1" fill="rgb(44,131,251)"/><rect x="28" y="88" width="1" height="1" fill="rgb(71,155,251)"/><rect x="29" y="88" width="2" height="1" fill="rgb(97,179,251)"/><rect x="31" y="88" width="1" height="1" fill="rgb(71,155,251)"/><rect x="32" y="88" width="2" height="1" fill="rgb(44,131,251)"/><rect x="94" y="88" width="2" height="1" fill="rgb(44,131,251)"/><rect x="96" y="88" width="1" height="1" fill="rgb(71,155,251)"/><rect x="97" y="88" width="2" height="1" fill="rgb(97,179,251)"/><rect x="99" y="88" width="1" height="1" fill="rgb(71,155,251)"/><rect x="100" y="88" width="2" height="1" fill="rgb(44,131,251)"/><rect x="26" y="89" width="1" height="1" fill="rgb(44,131,251)"/><rect x="27" y="89" width="6" height="1" fill="rgb(71,155,251)"/><rect x="33" y="89" width="1" height="1" fill="rgb(44,131,251)"/><rect x="94" y="89" width="1" height="1" fill="rgb(44,131,251)"/><rect x="95" y="89" width="6" height="1" fill="rgb(71,155,251)"/><rect x="101" y="89" width="1" height="1" fill="rgb(44,131,251)"/><rect x="25" y="90" width="1" height="1" fill="rgb(0,88,243)"/><rect x="26" y="90" width="1" height="1" fill="rgb(17,114,251)"/><rect x="27" y="90" width="1" height="1" fill="rgb(44,131,251)"/><rect x="28" y="90" width="4" height="1" fill="rgb(71,155,251)"/><rect x="32" y="90" width="1" height="1" fill="rgb(44,131,251)"/><rect x="33" y="90" width="1" height="1" fill="rgb(17,114,251)"/><rect x="34" y="90" width="1" height="1" fill="rgb(0,88,243)"/><rect x="93" y="90" width="1" height="1" fill="rgb(0,88,243)"/><rect x="94" y="90" width="1" height="1" fill="rgb(17,114,251)"/><rect x="95" y="90" width="1" height="1" fill="rgb(44,131,251)"/><rect x="96" y="90" width="4" height="1" fill="rgb(71,155,251)"/><rect x="100" y="90" width="1" height="1" fill="rgb(44,131,251)"/><rect x="101" y="90" width="1" height="1" fill="rgb(17,114,251)"/><rect x="102" y="90" width="1" height="1" fill="rgb(0,88,243)"/><rect x="25" y="91" width="1" height="1" fill="rgb(0,71,228)"/><rect x="26" y="91" width="2" height="1" fill="rgb(17,114,251)"/><rect x="28" y="91" width="4" height="1" fill="rgb(44,131,251)"/><rect x="32" y="91" width="2" height="1" fill="rgb(17,114,251)"/><rect x="34" y="91" width="1" height="1" fill="rgb(0,71,228)"/><rect x="93" y="91" width="1" height="1" fill="rgb(0,71,228)"/><rect x="94" y="91" width="2" height="1" fill="rgb(17,114,251)"/><rect x="96" y="91" width="4" height="1" fill="rgb(44,131,251)"/><rect x="100" y="91" width="2" height="1" fill="rgb(17,114,251)"/><rect x="102" y="91" width="1" height="1" fill="rgb(0,71,228)"/><rect x="26" y="92" width="1" height="1" fill="rgb(0,71,228)"/><rect x="27" y="92" width="1" height="1" fill="rgb(0,88,243)"/><rect x="28" y="92" width="4" height="1" fill="rgb(17,114,251)"/><rect x="32" y="92" width="1" height="1" fill="rgb(0,88,243)"/><rect x="33" y="92" width="1" height="1" fill="rgb(0,71,228)"/><rect x="94" y="92" width="1" height="1" fill="rgb(0,71,228)"/><rect x="95" y="92" width="1" height="1" fill="rgb(0,88,243)"/><rect x="96" y="92" width="4" height="1" fill="rgb(17,114,251)"/><rect x="100" y="92" width="1" height="1" fill="rgb(0,88,243)"/><rect x="101" y="92" width="1" height="1" fill="rgb(0,71,228)"/><rect x="25" y="92" width="1" height="2" fill="rgb(0,88,243)"/><rect x="34" y="92" width="1" height="2" fill="rgb(0,88,243)"/><rect x="93" y="92" width="1" height="2" fill="rgb(0,88,243)"/><rect x="102" y="92" width="1" height="2" fill="rgb(0,88,243)"/><rect x="26" y="93" width="2" height="1" fill="rgb(0,71,228)"/><rect x="28" y="93" width="4" height="1" fill="rgb(0,53,212)"/><rect x="32" y="93" width="2" height="1" fill="rgb(0,71,228)"/><rect x="94" y="93" width="2" height="1" fill="rgb(0,71,228)"/><rect x="96" y="93" width="4" height="1" fill="rgb(0,53,212)"/><rect x="100" y="93" width="2" height="1" fill="rgb(0,71,228)"/><rect x="26" y="94" width="1" height="1" fill="rgb(0,88,243)"/><rect x="27" y="94" width="6" height="1" fill="rgb(0,71,228)"/><rect x="33" y="94" width="1" height="1" fill="rgb(0,88,243)"/><rect x="94" y="94" width="1" height="1" fill="rgb(0,88,243)"/><rect x="95" y="94" width="6" height="1" fill="rgb(0,71,228)"/><rect x="101" y="94" width="1" height="1" fill="rgb(0,88,243)"/><rect x="26" y="95" width="2" height="1" fill="rgb(44,131,251)"/><rect x="28" y="95" width="4" height="1" fill="rgb(0,88,243)"/><rect x="32" y="95" width="2" height="1" fill="rgb(44,131,251)"/><rect x="94" y="95" width="2" height="1" fill="rgb(44,131,251)"/><rect x="96" y="95" width="4" height="1" fill="rgb(0,88,243)"/><rect x="100" y="95" width="2" height="1" fill="rgb(44,131,251)"/><rect x="28" y="96" width="4" height="1" fill="rgb(44,131,251)"/><rect x="96" y="96" width="4" height="1" fill="rgb(44,131,251)"/><rect x="42" y="101" width="4" height="1" fill="rgb(44,131,251)"/><rect x="82" y="101" width="4" height="1" fill="rgb(44,131,251)"/><rect x="40" y="102" width="2" height="1" fill="rgb(44,131,251)"/><rect x="42" y="102" width="1" height="1" fill="rgb(71,155,251)"/><rect x="43" y="102" width="2" height="1" fill="rgb(97,179,251)"/><rect x="45" y="102" width="1" height="1" fill="rgb(71,155,251)"/><rect x="46" y="102" width="2" height="1" fill="rgb(44,131,251)"/><rect x="80" y="102" width="2" height="1" fill="rgb(44,131,251)"/><rect x="82" y="102" width="1" height="1" fill="rgb(71,155,251)"/><rect x="83" y="102" width="2" height="1" fill="rgb(97,179,251)"/><rect x="85" y="102" width="1" height="1" fill="rgb(71,155,251)"/><rect x="86" y="102" width="2" height="1" fill="rgb(44,131,251)"/><rect x="40" y="103" width="1" height="1" fill="rgb(44,131,251)"/><rect x="41" y="103" width="6" height="1" fill="rgb(71,155,251)"/><rect x="47" y="103" width="1" height="1" fill="rgb(44,131,251)"/><rect x="80" y="103" width="1" height="1" fill="rgb(44,131,251)"/><rect x="81" y="103" width="6" height="1" fill="rgb(71,155,251)"/><rect x="87" y="103" width="1" height="1" fill="rgb(44,131,251)"/><rect x="39" y="104" width="1" height="1" fill="rgb(0,88,243)"/><rect x="40" y="104" width="1" height="1" fill="rgb(17,114,251)"/><rect x="41" y="104" width="1" height="1" fill="rgb(44,131,251)"/><rect x="42" y="104" width="4" height="1" fill="rgb(71,155,251)"/><rect x="46" y="104" width="1" height="1" fill="rgb(44,131,251)"/><rect x="47" y="104" width="1" height="1" fill="rgb(17,114,251)"/><rect x="48" y="104" width="1" height="1" fill="rgb(0,88,243)"/><rect x="79" y="104" width="1" height="1" fill="rgb(0,88,243)"/><rect x="80" y="104" width="1" height="1" fill="rgb(17,114,251)"/><rect x="81" y="104" width="1" height="1" fill="rgb(44,131,251)"/><rect x="82" y="104" width="4" height="1" fill="rgb(71,155,251)"/><rect x="86" y="104" width="1" height="1" fill="rgb(44,131,251)"/><rect x="87" y="104" width="1" height="1" fill="rgb(17,114,251)"/><rect x="88" y="104" width="1" height="1" fill="rgb(0,88,243)"/><rect x="39" y="105" width="1" height="1" fill="rgb(0,71,228)"/><rect x="40" y="105" width="2" height="1" fill="rgb(17,114,251)"/><rect x="42" y="105" width="4" height="1" fill="rgb(44,131,251)"/><rect x="46" y="105" width="2" height="1" fill="rgb(17,114,251)"/><rect x="48" y="105" width="1" height="1" fill="rgb(0,71,228)"/><rect x="79" y="105" width="1" height="1" fill="rgb(0,71,228)"/><rect x="80" y="105" width="2" height="1" fill="rgb(17,114,251)"/><rect x="82" y="105" width="4" height="1" fill="rgb(44,131,251)"/><rect x="86" y="105" width="2" height="1" fill="rgb(17,114,251)"/><rect x="88" y="105" width="1" height="1" fill="rgb(0,71,228)"/><rect x="40" y="106" width="1" height="1" fill="rgb(0,71,228)"/><rect x="41" y="106" width="1" height="1" fill="rgb(0,88,243)"/><rect x="42" y="106" width="4" height="1" fill="rgb(17,114,251)"/><rect x="46" y="106" width="1" height="1" fill="rgb(0,88,243)"/><rect x="47" y="106" width="1" height="1" fill="rgb(0,71,228)"/><rect x="80" y="106" width="1" height="1" fill="rgb(0,71,228)"/><rect x="81" y="106" width="1" height="1" fill="rgb(0,88,243)"/><rect x="82" y="106" width="4" height="1" fill="rgb(17,114,251)"/><rect x="86" y="106" width="1" height="1" fill="rgb(0,88,243)"/><rect x="87" y="106" width="1" height="1" fill="rgb(0,71,228)"/><rect x="39" y="106" width="1" height="2" fill="rgb(0,88,243)"/><rect x="48" y="106" width="1" height="2" fill="rgb(0,88,243)"/><rect x="79" y="106" width="1" height="2" fill="rgb(0,88,243)"/><rect x="88" y="106" width="1" height="2" fill="rgb(0,88,243)"/><rect x="40" y="107" width="2" height="1" fill="rgb(0,71,228)"/><rect x="42" y="107" width="4" height="1" fill="rgb(0,53,212)"/><rect x="46" y="107" width="2" height="1" fill="rgb(0,71,228)"/><rect x="62" y="107" width="4" height="1" fill="rgb(44,131,251)"/><rect x="80" y="107" width="2" height="1" fill="rgb(0,71,228)"/><rect x="82" y="107" width="4" height="1" fill="rgb(0,53,212)"/><rect x="86" y="107" width="2" height="1" fill="rgb(0,71,228)"/><rect x="40" y="108" width="1" height="1" fill="rgb(0,88,243)"/><rect x="41" y="108" width="6" height="1" fill="rgb(0,71,228)"/><rect x="47" y="108" width="1" height="1" fill="rgb(0,88,243)"/><rect x="60" y="108" width="2" height="1" fill="rgb(44,131,251)"/><rect x="62" y="108" width="1" height="1" fill="rgb(71,155,251)"/><rect x="63" y="108" width="2" height="1" fill="rgb(97,179,251)"/><rect x="65" y="108" width="1" height="1" fill="rgb(71,155,251)"/><rect x="66" y="108" width="2" height="1" fill="rgb(44,131,251)"/><rect x="80" y="108" width="1" height="1" fill="rgb(0,88,243)"/><rect x="81" y="108" width="6" height="1" fill="rgb(0,71,228)"/><rect x="87" y="108" width="1" height="1" fill="rgb(0,88,243)"/><rect x="40" y="109" width="2" height="1" fill="rgb(44,131,251)"/><rect x="42" y="109" width="4" height="1" fill="rgb(0,88,243)"/><rect x="46" y="109" width="2" height="1" fill="rgb(44,131,251)"/><rect x="60" y="109" width="1" height="1" fill="rgb(44,131,251)"/><rect x="61" y="109" width="6" height="1" fill="rgb(71,155,251)"/><rect x="67" y="109" width="1" height="1" fill="rgb(44,131,251)"/><rect x="80" y="109" width="2" height="1" fill="rgb(44,131,251)"/><rect x="82" y="109" width="4" height="1" fill="rgb(0,88,243)"/><rect x="86" y="109" width="2" height="1" fill="rgb(44,131,251)"/><rect x="42" y="110" width="4" height="1" fill="rgb(44,131,251)"/><rect x="59" y="110" width="1" height="1" fill="rgb(0,88,243)"/><rect x="60" y="110" width="1" height="1" fill="rgb(17,114,251)"/><rect x="61" y="110" width="1" height="1" fill="rgb(44,131,251)"/><rect x="62" y="110" width="4" height="1" fill="rgb(71,155,251)"/><rect x="66" y="110" width="1" height="1" fill="rgb(44,131,251)"/><rect x="67" y="110" width="1" height="1" fill="rgb(17,114,251)"/><rect x="68" y="110" width="1" height="1" fill="rgb(0,88,243)"/><rect x="82" y="110" width="4" height="1" fill="rgb(44,131,251)"/><rect x="59" y="111" width="1" height="1" fill="rgb(0,71,228)"/><rect x="60" y="111" width="2" height="1" fill="rgb(17,114,251)"/><rect x="62" y="111" width="4" height="1" fill="rgb(44,131,251)"/><rect x="66" y="111" width="2" height="1" fill="rgb(17,114,251)"/><rect x="68" y="111" width="1" height="1" fill="rgb(0,71,228)"/><rect x="60" y="112" width="1" height="1" fill="rgb(0,71,228)"/><rect x="61" y="112" width="1" height="1" fill="rgb(0,88,243)"/><rect x="62" y="112" width="4" height="1" fill="rgb(17,114,251)"/><rect x="66" y="112" width="1" height="1" fill="rgb(0,88,243)"/><rect x="67" y="112" width="1" height="1" fill="rgb(0,71,228)"/><rect x="59" y="112" width="1" height="2" fill="rgb(0,88,243)"/><rect x="68" y="112" width="1" height="2" fill="rgb(0,88,243)"/><rect x="60" y="113" width="2" height="1" fill="rgb(0,71,228)"/><rect x="62" y="113" width="4" height="1" fill="rgb(0,53,212)"/><rect x="66" y="113" width="2" height="1" fill="rgb(0,71,228)"/><rect x="60" y="114" width="1" height="1" fill="rgb(0,88,243)"/><rect x="61" y="114" width="6" height="1" fill="rgb(0,71,228)"/><rect x="67" y="114" width="1" height="1" fill="rgb(0,88,243)"/><rect x="60" y="115" width="2" height="1" fill="rgb(44,131,251)"/><rect x="62" y="115" width="4" height="1" fill="rgb(0,88,243)"/><rect x="66" y="115" width="2" height="1" fill="rgb(44,131,251)"/><rect x="62" y="116" width="4" height="1" fill="rgb(44,131,251)"/></svg>