<svg xmlns="http://www.w3.org/2000/svg" width="128" height="144" viewBox="0 0 128 144"><rect x="91" y="32" width="2" height="2" fill="rgb(44,131,251)"/><rect x="90" y="33" width="1" height="1" fill="rgb(0,71,228)"/><rect x="93" y="33" width="1" height="1" fill="rgb(0,71,228)"/><rect x="90" y="34" width="1" height="1" fill="rgb(0,88,243)"/><rect x="91" y="34" width="2" height="1" fill="rgb(0,71,228)"/><rect x="93" y="34" width="1" height="1" fill="rgb(0,88,243)"/><rect x="91" y="35" width="2" height="1" fill="rgb(17,114,251)"/><rect x="105" y="50" width="4" height="1" fill="rgb(44,131,251)"/><rect x="104" y="51" width="2" height="1" fill="rgb(44,131,251)"/><rect x="106" y="51" width="2" height="1" fill="rgb(71,155,251)"/><rect x="108" y="51" width="2" height="1" fill="rgb(44,131,251)"/><rect x="104" y="52" width="2" height="1" fill="rgb(17,114,251)"/><rect x="106" y="52" width="2" height="1" fill="rgb(44,131,251)"/><rect x="108" y="52" width="2" height="1" fill="rgb(17,114,251)"/><rect x="104" y="53" width="1" height="1" fill="rgb(0,71,228)"/><rect x="105" y="53" width="4" height="1" fill="rgb(17,114,251)"/><rect x="109" y="53" width="1" height="1" fill="rgb(0,71,228)"/><rect x="104" y="54" width="1" height="1" fill="rgb(17,114,251)"/><rect x="105" y="54" width="1" height="1" fill="rgb(0,71,228)"/><rect x="106" y="54" width="2" height="1" fill="rgb(0,53,212)"/><rect x="108" y="54" width="1" height="1" fill="rgb(0,71,228)"/><rect x="109" y="54" width="1" height="1" fill="rgb(17,114,251)"/><rect x="105" y="55" width="1" height="1" fill="rgb(17,114,251)"/><rect x="106" y="55" width="2" height="1" fill="rgb(0,71,228)"/><rect x="108" y="55" width="1" height="1" fill="rgb(17,114,251)"/><rect x="109" y="74" width="4" height="1" fill="rgb(44,131,251)"/><rect x="108" y="75" width="1" height="1" fill="rgb(44,131,251)"/><rect x="109" y="75" width="1" height="1" fill="rgb(71,155,251)"/><rect x="110" y="75" width="2" height="1" fill="rgb(97,179,251)"/><rect x="112" y="75" width="1" height="1" fill="rgb(71,155,251)"/><rect x="113" y="75" width="1" height="1" fill="rgb(44,131,251)"/><rect x="107" y="76" width="2" height="1" fill="rgb(17,114,251)"/><rect x="109" y="76" width="1" height="1" fill="rgb(44,131,251)"/><rect x="110" y="76" width="2" height="1" fill="rgb(71,155,251)"/><rect x="112" y="76" width="1" height="1" fill="rgb(44,131,251)"/><rect x="113" y="76" width="2" height="1" fill="rgb(17,114,251)"/><rect x="108" y="77" width="2" height="1" fill="rgb(17,114,251)"/><rect x="110" y="77" width="2" height="1" fill="rgb(44,131,251)"/><rect x="112" y="77" width="2" height="1" fill="rgb(17,114,251)"/><rect x="107" y="77" width="1" height="2" fill="rgb(0,88,243)"/><rect x="114" y="77" width="1" height="2" fill="rgb(0,88,243)"/><rect x="108" y="78" width="1" height="1" fill="rgb(0,71,228)"/><rect x="109" y="78" width="4" height="1" fill="rgb(17,114,251)"/><rect x="113" y="78" width="1" height="1" fill="rgb(0,71,228)"/><rect x="107" y="79" width="1" height="1" fill="rgb(17,114,251)"/><rect x="108" y="79" width="1" height="1" fill="rgb(0,88,243)"/><rect x="109" y="79" width="1" height="1" fill="rgb(0,71,228)"/><rect x="110" y="79" width="2" height="1" fill="rgb(0,53,212)"/><rect x="112" y="79" width="1" height="1" fill="rgb(0,71,228)"/><rect x="113" y="79" width="1" height="1" fill="rgb(0,88,243)"/><rect x="114" y="79" width="1" height="1" fill="rgb(17,114,251)"/><rect x="108" y="80" width="1" height="1" fill="rgb(44,131,251)"/><rect x="109" y="80" width="1" height="1" fill="rgb(0,88,243)"/><rect x="110" y="80" width="2" height="1" fill="rgb(0,71,228)"/><rect x="112" y="80" width="1" height="1" fill="rgb(0,88,243)"/><rect x="113" y="80" width="1" height="1" fill="rgb(44,131,251)"/><rect x="109" y="81" width="4" height="1" fill="rgb(44,131,251)"/><rect x="19" y="88" width="4" height="1" fill="rgb(44,131,251)"/><rect x="18" y="89" width="2" height="1" fill="rgb(44,131,251)"/><rect x="20" y="89" width="2" height="1" fill="rgb(71,155,251)"/><rect x="22" y="89" width="2" height="1" fill="rgb(44,131,251)"/><rect x="18" y="90" width="2" height="1" fill="rgb(17,114,251)"/><rect x="20" y="90" width="2" height="1" fill="rgb(44,131,251)"/><rect x="22" y="90" width="2" height="1" fill="rgb(17,114,251)"/><rect x="18" y="91" width="1" height="1" fill="rgb(0,71,228)"/><rect x="19" y="91" width="4" height="1" fill="rgb(17,114,251)"/><rect x="23" y="91" width="1" height="1" fill="rgb(0,71,228)"/><rect x="18" y="92" width="1" height="1" fill="rgb(17,114,251)"/><rect x="19" y="92" width="1" height="1" fill="rgb(0,71,228)"/><rect x="20" y="92" width="2" height="1" fill="rgb(0,53,212)"/><rect x="22" y="92" width="1" height="1" fill="rgb(0,71,228)"/><rect x="23" y="92" width="1" height="1" fill="rgb(17,114,251)"/><rect x="19" y="93" width="1" height="1" fill="rgb(17,114,251)"/><rect x="20" y="93" width="2" height="1" fill="rgb(0,71,228)"/><rect x="22" y="93" width="1" height="1" fill="rgb(17,114,251)"/><rect x="100" y="95" width="4" height="1" fill="rgb(44,131,251)"/><rect x="98" y="96" width="2" height="1" fill="rgb(44,131,251)"/><rect x="100" y="96" width="1" height="1" fill="rgb(71,155,251)"/><rect x="101" y="96" width="2" height="1" fill="rgb(97,179,251)"/><rect x="103" y="96" width="1" height="1" fill="rgb(71,155,251)"/><rect x="104" y="96" width="2" height="1" fill="rgb(44,131,251)"/><rect x="98" y="97" width="1" height="1" fill="rgb(44,131,251)"/><rect x="99" y="97" width="6" height="1" fill="rgb(71,155,251)"/><rect x="105" y="97" width="1" height="1" fill="rgb(44,131,251)"/><rect x="97" y="98" width="1" height="1" fill="rgb(0,88,243)"/><rect x="98" y="98" width="1" height="1" fill="rgb(17,114,251)"/><rect x="99" y="98" width="1" height="1" fill="rgb(44,131,251)"/><rect x="100" y="98" width="4" height="1" fill="rgb(71,155,251)"/><rect x="104" y="98" width="1" height="1" fill="rgb(44,131,251)"/><rect x="105" y="98" width="1" height="1" fill="rgb(17,114,251)"/><rect x="106" y="98" width="1" height="1" fill="rgb(0,88,243)"/><rect x="97" y="99" width="1" height="1" fill="rgb(0,71,228)"/><rect x="98" y="99" width="2" height="1" fill="rgb(17,114,251)"/><rect x="100" y="99" width="4" height="1" fill="rgb(44,131,251)"/><rect x="104" y="99" width="2" height="1" fill="rgb(17,114,251)"/><rect x="106" y="99" width="1" height="1" fill="rgb(0,71,228)"/><rect x="98" y="100" width="1" height="1" fill="rgb(0,71,228)"/><rect x="99" y="100" width="1" height="1" fill="rgb(0,88,243)"/><rect x="100" y="100" width="4" height="1" fill="rgb(17,114,251)"/><rect x="104" y="100" width="1" height="1" fill="rgb(0,88,243)"/><rect x="105" y="100" width="1" height="1" fill="rgb(0,71,228)"/><rect x="97" y="100" width="1" height="2" fill="rgb(0,88,243)"/><rect x="106" y="100" width="1" height="2" fill="rgb(0,88,243)"/><rect x="98" y="101" width="2" height="1" fill="rgb(0,71,228)"/><rect x="100" y="101" width="4" height="1" fill="rgb(0,53,212)"/><rect x="104" y="101" width="2" height="1" fill="rgb(0,71,228)"/><rect x="98" y="102" width="1" height="1" fill="rgb(0,88,243)"/><rect x="99" y="102" width="6" height="1" fill="rgb(0,71,228)"/><rect x="105" y="102" width="1" height="1" fill="rgb(0,88,243)"/><rect x="98" y="103" width="2" height="1" fill="rgb(44,131,251)"/><rect x="100" y="103" width="4" height="1" fill="rgb(0,88,243)"/><rect x="104" y="103" width="2" height="1" fill="rgb(44,131,251)"/><rect x="100" y="104" width="4" height="1" fill="rgb(44,131,251)"/><rect x="34" y="106" width="4" height="1" fill="rgb(44,131,251)"/><rect x="33" y="107" width="1" height="1" fill="rgb(44,131,251)"/><rect x="34" y="107" width="1" height="1" fill="rgb(71,155,251)"/><rect x="35" y="107" width="2" height="1" fill="rgb(97,179,251)"/><rect x="37" y="107" width="1" height="1" fill="rgb(71,155,251)"/><rect x="38" y="107" width="1" height="1" fill="rgb(44,131,251)"/><rect x="32" y="108" width="2" height="1" fill="rgb(17,114,251)"/><rect x="34" y="108" width="1" height="1" fill="rgb(44,131,251)"/><rect x="35" y="108" width="2" height="1" fill="rgb(71,155,251)"/><rect x="37" y="108" width="1" height="1" fill="rgb(44,131,251)"/><rect x="38" y="108" width="2" height="1" fill="rgb(17,114,251)"/><rect x="33" y="109" width="2" height="1" fill="rgb(17,114,251)"/><rect x="35" y="109" width="2" height="1" fill="rgb(44,131,251)"/><rect x="37" y="109" width="2" height="1" fill="rgb(17,114,251)"/><rect x="32" y="109" width="1" height="2" fill="rgb(0,88,243)"/><rect x="39" y="109" width="1" height="2" fill="rgb(0,88,243)"/><rect x="33" y="110" width="1" height="1" fill="rgb(0,71,228)"/><rect x="34" y="110" width="4" height="1" fill="rgb(17,114,251)"/><rect x="38" y="110" width="1" height="1" fill="rgb(0,71,228)"/><rect x="81" y="110" width="4" height="1" fill="rgb(44,131,251)"/><rect x="32" y="111" width="1" height="1" fill="rgb(17,114,251)"/><rect x="33" y="111" width="1" height="1" fill="rgb(0,88,243)"/><rect x="34" y="111" width="1" height="1" fill="rgb(0,71,228)"/><rect x="35" y="111" width="2" height="1" fill="rgb(0,53,212)"/><rect x="37" y="111" width="1" height="1" fill="rgb(0,71,228)"/><rect x="38" y="111" width="1" height="1" fill="rgb(0,88,243)"/><rect x="39" y="111" width="1" height="1" fill="rgb(17,114,251)"/><rect x="79" y="111" width="2" height="1" fill="rgb(44,131,251)"/><rect x="81" y="111" width="1" height="1" fill="rgb(71,155,251)"/><rect x="82" y="111" width="2" height="1" fill="rgb(97,179,251)"/><rect x="84" y="111" width="1" height="1" fill="rgb(71,155,251)"/><rect x="85" y="111" width="2" height="1" fill="rgb(44,131,251)"/><rect x="33" y="112" width="1" height="1" fill="rgb(44,131,251)"/><rect x="34" y="112" width="1" height="1" fill="rgb(0,88,243)"/><rect x="35" y="112" width="2" height="1" fill="rgb(0,71,228)"/><rect x="37" y="112" width="1" height="1" fill="rgb(0,88,243)"/><rect x="38" y="112" width="1" height="1" fill="rgb(44,131,251)"/><rect x="79" y="112" width="1" height="1" fill="rgb(44,131,251)"/><rect x="80" y="112" width="6" height="1" fill="rgb(71,155,251)"/><rect x="86" y="112" width="1" height="1" fill="rgb(44,131,251)"/><rect x="34" y="113" width="4" height="1" fill="rgb(44,131,251)"/><rect x="78" y="113" width="1" height="1" fill="rgb(0,88,243)"/><rect x="79" y="113" width="1" height="1" fill="rgb(17,114,251)"/><rect x="80" y="113" width="1" height="1" fill="rgb(44,131,251)"/><rect x="81" y="113" width="4" height="1" fill="rgb(71,155,251)"/><rect x="85" y="113" width="1" height="1" fill="rgb(44,131,251)"/><rect x="86" y="113" width="1" height="1" fill="rgb(17,114,251)"/><rect x="87" y="113" width="1" height="1" fill="rgb(0,88,243)"/><rect x="56" y="114" width="4" height="1" fill="rgb(44,131,251)"/><rect x="78" y="114" width="1" height="1" fill="rgb(0,71,228)"/><rect x="79" y="114" width="2" height="1" fill="rgb(17,114,251)"/><rect x="81" y="114" width="4" height="1" fill="rgb(44,131,251)"/><rect x="85" y="114" width="2" height="1" fill="rgb(17,114,251)"/><rect x="87" y="114" width="1" height="1" fill="rgb(0,71,228)"/><rect x="54" y="115" width="2" height="1" fill="rgb(44,131,251)"/><rect x="56" y="115" width="1" height="1" fill="rgb(71,155,251)"/><rect x="57" y="115" width="2" height="1" fill="rgb(97,179,251)"/><rect x="59" y="115" width="1" height="1" fill="rgb(71,155,251)"/><rect x="60" y="115" width="2" height="1" fill="rgb(44,131,251)"/><rect x="79" y="115" width="1" height="1" fill="rgb(0,71,228)"/><rect x="80" y="115" width="1" height="1" fill="rgb(0,88,243)"/><rect x="81" y="115" width="4" height="1" fill="rgb(17,114,251)"/><rect x="85" y="115" width="1" height="1" fill="rgb(0,88,243)"/><rect x="86" y="115" width="1" height="1" fill="rgb(0,71,228)"/><rect x="78" y="115" width="1" height="2" fill="rgb(0,88,243)"/><rect x="87" y="115" width="1" height="2" fill="rgb(0,88,243)"/><rect x="54" y="116" width="1" height="1" fill="rgb(44,131,251)"/><rect x="55" y="116" width="6" height="1" fill="rgb(71,155,251)"/><rect x="61" y="116" width="1" height="1" fill="rgb(44,131,251)"/><rect x="79" y="116" width="2" height="1" fill="rgb(0,71,228)"/><rect x="81" y="116" width="4" height="1" fill="rgb(0,53,212)"/><rect x="85" y="116" width="2" height="1" fill="rgb(0,71,228)"/><rect x="53" y="117" width="1" height="1" fill="rgb(0,88,243)"/><rect x="54" y="117" width="1" height="1" fill="rgb(17,114,251)"/><rect x="55" y="117" width="1" height="1" fill="rgb(44,131,251)"/><rect x="56" y="117" width="4" height="1" fill="rgb(71,155,251)"/><rect x="60" y="117" width="1" height="1" fill="rgb(44,131,251)"/><rect x="61" y="117" width="1" height="1" fill="rgb(17,114,251)"/><rect x="62" y="117" width="1" height="1" fill="rgb(0,88,243)"/><rect x="79" y="117" width="1" height="1" fill="rgb(0,88,243)"/><rect x="80" y="117" width="6" height="1" fill="rgb(0,71,228)"/><rect x="86" y="117" width="1" height="1" fill="rgb(0,88,243)"/><rect x="53" y="118" width="1" height="1" fill="rgb(0,71,228)"/><rect x="54" y="118" width="2" height="1" fill="rgb(17,114,251)"/><rect x="56" y="118" width="4" height="1" fill="rgb(44,131,251)"/><rect x="60" y="118" width="2" height="1" fill="rgb(17,114,251)"/><rect x="62" y="118" width="1" height="1" fill="rgb(0,71,228)"/><rect x="79" y="118" width="2" height="1" fill="rgb(44,131,251)"/><rect x="81" y="118" width="4" height="1" fill="rgb(0,88,243)"/><rect x="85" y="118" width="2" height="1" fill="rgb(44,131,251)"/><rect x="54" y="119" width="1" height="1" fill="rgb(0,71,228)"/><rect x="55" y="119" width="1" height="1" fill="rgb(0,88,243)"/><rect x="56" y="119" width="4" height="1" fill="rgb(17,114,251)"/><rect x="60" y="119" width="1" height="1" fill="rgb(0,88,243)"/><rect x="61" y="119" width="1" height="1" fill="rgb(0,71,228)"/><rect x="81" y="119" width="4" height="1" fill="rgb(44,131,251)"/><rect x="53" y="119" width="1" height="2" fill="rgb(0,88,243)"/><rect x="62" y="119" width="1" height="2" fill="rgb(0,88,243)"/><rect x="54" y="120" width="2" height="1" fill="rgb(0,71,228)"/><rect x="56" y="120" width="4" height="1" fill="rgb(0,53,212)"/><rect x="60" y="120" width="2" height="1" fill="rgb(0,71,228)"/><rect x="54" y="121" width="1" height="1" fill="rgb(0,88,243)"/><rect x="55" y="121" width="6" height="1" fill="rgb(0,71,228)"/><rect x="61" y="121" width="1" height="1" fill="rgb(0,88,243)"/><rect x="54" y="122" width="2" height="1" fill="rgb(44,131,251)"/><rect x="56" y="122" width="4" height="1" fill="rgb(0,88,243)"/><rect x="60" y="122" width="2" height="1" fill="rgb(44,131,251)"/><rect x="56" y="123" width="4" height="1" fill="rgb(44,131,251)"/></svg>