<svg xmlns="http://www.w3.org/2000/svg" width="128" height="144" viewBox="0 0 128 144"><rect x="49" y="23" width="4" height="1" fill="rgb(44,131,251)"/><rect x="74" y="23" width="4" height="1" fill="rgb(44,131,251)"/><rect x="48" y="24" width="1" height="1" fill="rgb(44,131,251)"/><rect x="49" y="24" width="1" height="1" fill="rgb(71,155,251)"/><rect x="50" y="24" width="2" height="1" fill="rgb(97,179,251)"/><rect x="52" y="24" width="1" height="1" fill="rgb(71,155,251)"/><rect x="53" y="24" width="1" height="1" fill="rgb(44,131,251)"/><rect x="73" y="24" width="1" height="1" fill="rgb(44,131,251)"/><rect x="74" y="24" width="1" height="1" fill="rgb(71,155,251)"/><rect x="75" y="24" width="2" height="1" fill="rgb(97,179,251)"/><rect x="77" y="24" width="1" height="1" fill="rgb(71,155,251)"/><rect x="78" y="24" width="1" height="1" fill="rgb(44,131,251)"/><rect x="47" y="25" width="2" height="1" fill="rgb(17,114,251)"/><rect x="49" y="25" width="1" height="1" fill="rgb(44,131,251)"/><rect x="50" y="25" width="2" height="1" fill="rgb(71,155,251)"/><rect x="52" y="25" width="1" height="1" fill="rgb(44,131,251)"/><rect x="53" y="25" width="2" height="1" fill="rgb(17,114,251)"/><rect x="72" y="25" width="2" height="1" fill="rgb(17,114,251)"/><rect x="74" y="25" width="1" height="1" fill="rgb(44,131,251)"/><rect x="75" y="25" width="2" height="1" fill="rgb(71,155,251)"/><rect x="77" y="25" width="1" height="1" fill="rgb(44,131,251)"/><rect x="78" y="25" width="2" height="1" fill="rgb(17,114,251)"/><rect x="48" y="26" width="2" height="1" fill="rgb(17,114,251)"/><rect x="50" y="26" width="2" height="1" fill="rgb(44,131,251)"/><rect x="52" y="26" width="2" height="1" fill="rgb(17,114,251)"/><rect x="73" y="26" width="2" height="1" fill="rgb(17,114,251)"/><rect x="75" y="26" width="2" height="1" fill="rgb(44,131,251)"/><rect x="77" y="26" width="2" height="1" fill="rgb(17,114,251)"/><rect x="47" y="26" width="1" height="2" fill="rgb(0,88,243)"/><rect x="54" y="26" width="1" height="2" fill="rgb(0,88,243)"/><rect x="72" y="26" width="1" height="2" fill="rgb(0,88,243)"/><rect x="79" y="26" width="1" height="2" fill="rgb(0,88,243)"/><rect x="48" y="27" width="1" height="1" fill="rgb(0,71,228)"/><rect x="49" y="27" width="4" height="1" fill="rgb(17,114,251)"/><rect x="53" y="27" width="1" height="1" fill="rgb(0,71,228)"/><rect x="73" y="27" width="1" height="1" fill="rgb(0,71,228)"/><rect x="74" y="27" width="4" height="1" fill="rgb(17,114,251)"/><rect x="78" y="27" width="1" height="1" fill="rgb(0,71,228)"/><rect x="47" y="28" width="1" height="1" fill="rgb(17,114,251)"/><rect x="48" y="28" width="1" height="1" fill="rgb(0,88,243)"/><rect x="49" y="28" width="1" height="1" fill="rgb(0,71,228)"/><rect x="50" y="28" width="2" height="1" fill="rgb(0,53,212)"/><rect x="52" y="28" width="1" height="1" fill="rgb(0,71,228)"/><rect x="53" y="28" width="1" height="1" fill="rgb(0,88,243)"/><rect x="54" y="28" width="1" height="1" fill="rgb(17,114,251)"/><rect x="72" y="28" width="1" height="1" fill="rgb(17,114,251)"/><rect x="73" y="28" width="1" height="1" fill="rgb(0,88,243)"/><rect x="74" y="28" width="1" height="1" fill="rgb(0,71,228)"/><rect x="75" y="28" width="2" height="1" fill="rgb(0,53,212)"/><rect x="77" y="28" width="1" height="1" fill="rgb(0,71,228)"/><rect x="78" y="28" width="1" height="1" fill="rgb(0,88,243)"/><rect x="79" y="28" width="1" height="1" fill="rgb(17,114,251)"/><rect x="48" y="29" width="1" height="1" fill="rgb(44,131,251)"/><rect x="49" y="29" width="1" height="1" fill="rgb(0,88,243)"/><rect x="50" y="29" width="2" height="1" fill="rgb(0,71,228)"/><rect x="52" y="29" width="1" height="1" fill="rgb(0,88,243)"/><rect x="53" y="29" width="1" height="1" fill="rgb(44,131,251)"/><rect x="73" y="29" width="1" height="1" fill="rgb(44,131,251)"/><rect x="74" y="29" width="1" height="1" fill="rgb(0,88,243)"/><rect x="75" y="29" width="2" height="1" fill="rgb(0,71,228)"/><rect x="77" y="29" width="1" height="1" fill="rgb(0,88,243)"/><rect x="78" y="29" width="1" height="1" fill="rgb(44,131,251)"/><rect x="49" y="30" width="4" height="1" fill="rgb(44,131,251)"/><rect x="74" y="30" width="4" height="1" fill="rgb(44,131,251)"/><rect x="95" y="34" width="4" height="1" fill="rgb(44,131,251)"/><rect x="28" y="35" width="4" height="1" fill="rgb(44,131,251)"/><rect x="94" y="35" width="1" height="1" fill="rgb(44,131,251)"/><rect x="95" y="35" width="1" height="1" fill="rgb(71,155,251)"/><rect x="96" y="35" width="2" height="1" fill="rgb(97,179,251)"/><rect x="98" y="35" width="1" height="1" fill="rgb(71,155,251)"/><rect x="99" y="35" width="1" height="1" fill="rgb(44,131,251)"/><rect x="27" y="36" width="1" height="1" fill="rgb(44,131,251)"/><rect x="28" y="36" width="1" height="1" fill="rgb(71,155,251)"/><rect x="29" y="36" width="2" height="1" fill="rgb(97,179,251)"/><rect x="31" y="36" width="1" height="1" fill="rgb(71,155,251)"/><rect x="32" y="36" width="1" height="1" fill="rgb(44,131,251)"/><rect x="93" y="36" width="2" height="1" fill="rgb(17,114,251)"/><rect x="95" y="36" width="1" height="1" fill="rgb(44,131,251)"/><rect x="96" y="36" width="2" height="1" fill="rgb(71,155,251)"/><rect x="98" y="36" width="1" height="1" fill="rgb(44,131,251)"/><rect x="99" y="36" width="2" height="1" fill="rgb(17,114,251)"/><rect x="26" y="37" width="2" height="1" fill="rgb(17,114,251)"/><rect x="28" y="37" width="1" height="1" fill="rgb(44,131,251)"/><rect x="29" y="37" width="2" height="1" fill="rgb(71,155,251)"/><rect x="31" y="37" width="1" height="1" fill="rgb(44,131,251)"/><rect x="32" y="37" width="2" height="1" fill="rgb(17,114,251)"/><rect x="94" y="37" width="2" height="1" fill="rgb(17,114,251)"/><rect x="96" y="37" width="2" height="1" fill="rgb(44,131,251)"/><rect x="98" y="37" width="2" height="1" fill="rgb(17,114,251)"/><rect x="93" y="37" width="1" height="2" fill="rgb(0,88,243)"/><rect x="100" y="37" width="1" height="2" fill="rgb(0,88,243)"/><rect x="27" y="38" width="2" height="1" fill="rgb(17,114,251)"/><rect x="29" y="38" width="2" height="1" fill="rgb(44,131,251)"/><rect x="31" y="38" width="2" height="1" fill="rgb(17,114,251)"/><rect x="94" y="38" width="1" height="1" fill="rgb(0,71,228)"/><rect x="95" y="38" width="4" height="1" fill="rgb(17,114,251)"/><rect x="99" y="38" width="1" height="1" fill="rgb(0,71,228)"/><rect x="26" y="38" width="1" height="2" fill="rgb(0,88,243)"/><rect x="33" y="38" width="1" height="2" fill="rgb(0,88,243)"/><rect x="27" y="39" width="1" height="1" fill="rgb(0,71,228)"/><rect x="28" y="39" width="4" height="1" fill="rgb(17,114,251)"/><rect x="32" y="39" width="1" height="1" fill="rgb(0,71,228)"/><rect x="93" y="39" width="1" height="1" fill="rgb(17,114,251)"/><rect x="94" y="39" width="1" height="1" fill="rgb(0,88,243)"/><rect x="95" y="39" width="1" height="1" fill="rgb(0,71,228)"/><rect x="96" y="39" width="2" height="1" fill="rgb(0,53,212)"/><rect x="98" y="39" width="1" height="1" fill="rgb(0,71,228)"/><rect x="99" y="39" width="1" height="1" fill="rgb(0,88,243)"/><rect x="100" y="39" width="1" height="1" fill="rgb(17,114,251)"/><rect x="26" y="40" width="1" height="1" fill="rgb(17,114,251)"/><rect x="27" y="40" width="1" height="1" fill="rgb(0,88,243)"/><rect x="28" y="40" width="1" height="1" fill="rgb(0,71,228)"/><rect x="29" y="40" width="2" height="1" fill="rgb(0,53,212)"/><rect x="31" y="40" width="1" height="1" fill="rgb(0,71,228)"/><rect x="32" y="40" width="1" height="1" fill="rgb(0,88,243)"/><rect x="33" y="40" width="1" height="1" fill="rgb(17,114,251)"/><rect x="94" y="40" width="1" height="1" fill="rgb(44,131,251)"/><rect x="95" y="40" width="1" height="1" fill="rgb(0,88,243)"/><rect x="96" y="40" width="2" height="1" fill="rgb(0,71,228)"/><rect x="98" y="40" width="1" height="1" fill="rgb(0,88,243)"/><rect x="99" y="40" width="1" height="1" fill="rgb(44,131,251)"/><rect x="27" y="41" width="1" height="1" fill="rgb(44,131,251)"/><rect x="28" y="41" width="1" height="1" fill="rgb(0,88,243)"/><rect x="29" y="41" width="2" height="1" fill="rgb(0,71,228)"/><rect x="31" y="41" width="1" height="1" fill="rgb(0,88,243)"/><rect x="32" y="41" width="1" height="1" fill="rgb(44,131,251)"/><rect x="95" y="41" width="4" height="1" fill="rgb(44,131,251)"/><rect x="28" y="42" width="4" height="1" fill="rgb(44,131,251)"/><rect x="107" y="54" width="4" height="1" fill="rgb(44,131,251)"/><rect x="105" y="55" width="2" height="1" fill="rgb(44,131,251)"/><rect x="107" y="55" width="1" height="1" fill="rgb(71,155,251)"/><rect x="108" y="55" width="2" height="1" fill="rgb(97,179,251)"/><rect x="110" y="55" width="1" height="1" fill="rgb(71,155,251)"/><rect x="111" y="55" width="2" height="1" fill="rgb(44,131,251)"/><rect x="17" y="56" width="4" height="1" fill="rgb(44,131,251)"/><rect x="105" y="56" width="1" height="1" fill="rgb(44,131,251)"/><rect x="106" y="56" width="6" height="1" fill="rgb(71,155,251)"/><rect x="112" y="56" width="1" height="1" fill="rgb(44,131,251)"/><rect x="16" y="57" width="1" height="1" fill="rgb(44,131,251)"/><rect x="17" y="57" width="1" height="1" fill="rgb(71,155,251)"/><rect x="18" y="57" width="2" height="1" fill="rgb(97,179,251)"/><rect x="20" y="57" width="1" height="1" fill="rgb(71,155,251)"/><rect x="21" y="57" width="1" height="1" fill="rgb(44,131,251)"/><rect x="104" y="57" width="1" height="1" fill="rgb(0,88,243)"/><rect x="105" y="57" width="1" height="1" fill="rgb(17,114,251)"/><rect x="106" y="57" width="1" height="1" fill="rgb(44,131,251)"/><rect x="107" y="57" width="4" height="1" fill="rgb(71,155,251)"/><rect x="111" y="57" width="1" height="1" fill="rgb(44,131,251)"/><rect x="112" y="57" width="1" height="1" fill="rgb(17,114,251)"/><rect x="113" y="57" width="1" height="1" fill="rgb(0,88,243)"/><rect x="15" y="58" width="2" height="1" fill="rgb(17,114,251)"/><rect x="17" y="58" width="1" height="1" fill="rgb(44,131,251)"/><rect x="18" y="58" width="2" height="1" fill="rgb(71,155,251)"/><rect x="20" y="58" width="1" height="1" fill="rgb(44,131,251)"/><rect x="21" y="58" width="2" height="1" fill="rgb(17,114,251)"/><rect x="104" y="58" width="1" height="1" fill="rgb(0,71,228)"/><rect x="105" y="58" width="2" height="1" fill="rgb(17,114,251)"/><rect x="107" y="58" width="4" height="1" fill="rgb(44,131,251)"/><rect x="111" y="58" width="2" height="1" fill="rgb(17,114,251)"/><rect x="113" y="58" width="1" height="1" fill="rgb(0,71,228)"/><rect x="16" y="59" width="2" height="1" fill="rgb(17,114,251)"/><rect x="18" y="59" width="2" height="1" fill="rgb(44,131,251)"/><rect x="20" y="59" width="2" height="1" fill="rgb(17,114,251)"/><rect x="105" y="59" width="1" height="1" fill="rgb(0,71,228)"/><rect x="106" y="59" width="1" height="1" fill="rgb(0,88,243)"/><rect x="107" y="59" width="4" height="1" fill="rgb(17,114,251)"/><rect x="111" y="59" width="1" height="1" fill="rgb(0,88,243)"/><rect x="112" y="59" width="1" height="1" fill="rgb(0,71,228)"/><rect x="15" y="59" width="1" height="2" fill="rgb(0,88,243)"/><rect x="22" y="59" width="1" height="2" fill="rgb(0,88,243)"/><rect x="104" y="59" width="1" height="2" fill="rgb(0,88,243)"/><rect x="113" y="59" width="1" height="2" fill="rgb(0,88,243)"/><rect x="16" y="60" width="1" height="1" fill="rgb(0,71,228)"/><rect x="17" y="60" width="4" height="1" fill="rgb(17,114,251)"/><rect x="21" y="60" width="1" height="1" fill="rgb(0,71,228)"/><rect x="105" y="60" width="2" height="1" fill="rgb(0,71,228)"/><rect x="107" y="60" width="4" height="1" fill="rgb(0,53,212)"/><rect x="111" y="60" width="2" height="1" fill="rgb(0,71,228)"/><rect x="15" y="61" width="1" height="1" fill="rgb(17,114,251)"/><rect x="16" y="61" width="1" height="1" fill="rgb(0,88,243)"/><rect x="17" y="61" width="1" height="1" fill="rgb(0,71,228)"/><rect x="18" y="61" width="2" height="1" fill="rgb(0,53,212)"/><rect x="20" y="61" width="1" height="1" fill="rgb(0,71,228)"/><rect x="21" y="61" width="1" height="1" fill="rgb(0,88,243)"/><rect x="22" y="61" width="1" height="1" fill="rgb(17,114,251)"/><rect x="105" y="61" width="1" height="1" fill="rgb(0,88,243)"/><rect x="106" y="61" width="6" height="1" fill="rgb(0,71,228)"/><rect x="112" y="61" width="1" height="1" fill="rgb(0,88,243)"/><rect x="16" y="62" width="1" height="1" fill="rgb(44,131,251)"/><rect x="17" y="62" width="1" height="1" fill="rgb(0,88,243)"/><rect x="18" y="62" width="2" height="1" fill="rgb(0,71,228)"/><rect x="20" y="62" width="1" height="1" fill="rgb(0,88,243)"/><rect x="21" y="62" width="1" height="1" fill="rgb(44,131,251)"/><rect x="105" y="62" width="2" height="1" fill="rgb(44,131,251)"/><rect x="107" y="62" width="4" height="1" fill="rgb(0,88,243)"/><rect x="111" y="62" width="2" height="1" fill="rgb(44,131,251)"/><rect x="17" y="63" width="4" height="1" fill="rgb(44,131,251)"/><rect x="107" y="63" width="4" height="1" fill="rgb(44,131,251)"/><rect x="107" y="79" width="4" height="1" fill="rgb(44,131,251)"/><rect x="17" y="80" width="4" height="1" fill="rgb(44,131,251)"/><rect x="105" y="80" width="2" height="1" fill="rgb(44,131,251)"/><rect x="107" y="80" width="1" height="1" fill="rgb(71,155,251)"/><rect x="108" y="80" width="2" height="1" fill="rgb(97,179,251)"/><rect x="110" y="80" width="1" height="1" fill="rgb(71,155,251)"/><rect x="111" y="80" width="2" height="1" fill="rgb(44,131,251)"/><rect x="15" y="81" width="2" height="1" fill="rgb(44,131,251)"/><rect x="17" y="81" width="1" height="1" fill="rgb(71,155,251)"/><rect x="18" y="81" width="2" height="1" fill="rgb(97,179,251)"/><rect x="20" y="81" width="1" height="1" fill="rgb(71,155,251)"/><rect x="21" y="81" width="2" height="1" fill="rgb(44,131,251)"/><rect x="105" y="81" width="1" height="1" fill="rgb(44,131,251)"/><rect x="106" y="81" width="6" height="1" fill="rgb(71,155,251)"/><rect x="112" y="81" width="1" height="1" fill="rgb(44,131,251)"/><rect x="15" y="82" width="1" height="1" fill="rgb(44,131,251)"/><rect x="16" y="82" width="6" height="1" fill="rgb(71,155,251)"/><rect x="22" y="82" width="1" height="1" fill="rgb(44,131,251)"/><rect x="104" y="82" width="1" height="1" fill="rgb(0,88,243)"/><rect x="105" y="82" width="1" height="1" fill="rgb(17,114,251)"/><rect x="106" y="82" width="1" height="1" fill="rgb(44,131,251)"/><rect x="107" y="82" width="4" height="1" fill="rgb(71,155,251)"/><rect x="111" y="82" width="1" height="1" fill="rgb(44,131,251)"/><rect x="112" y="82" width="1" height="1" fill="rgb(17,114,251)"/><rect x="113" y="82" width="1" height="1" fill="rgb(0,88,243)"/><rect x="14" y="83" width="1" height="1" fill="rgb(0,88,243)"/><rect x="15" y="83" width="1" height="1" fill="rgb(17,114,251)"/><rect x="16" y="83" width="1" height="1" fill="rgb(44,131,251)"/><rect x="17" y="83" width="4" height="1" fill="rgb(71,155,251)"/><rect x="21" y="83" width="1" height="1" fill="rgb(44,131,251)"/><rect x="22" y="83" width="1" height="1" fill="rgb(17,114,251)"/><rect x="23" y="83" width="1" height="1" fill="rgb(0,88,243)"/><rect x="104" y="83" width="1" height="1" fill="rgb(0,71,228)"/><rect x="105" y="83" width="2" height="1" fill="rgb(17,114,251)"/><rect x="107" y="83" width="4" height="1" fill="rgb(44,131,251)"/><rect x="111" y="83" width="2" height="1" fill="rgb(17,114,251)"/><rect x="113" y="83" width="1" height="1" fill="rgb(0,71,228)"/><rect x="14" y="84" width="1" height="1" fill="rgb(0,71,228)"/><rect x="15" y="84" width="2" height="1" fill="rgb(17,114,251)"/><rect x="17" y="84" width="4" height="1" fill="rgb(44,131,251)"/><rect x="21" y="84" width="2" height="1" fill="rgb(17,114,251)"/><rect x="23" y="84" width="1" height="1" fill="rgb(0,71,228)"/><rect x="105" y="84" width="1" height="1" fill="rgb(0,71,228)"/><rect x="106" y="84" width="1" height="1" fill="rgb(0,88,243)"/><rect x="107" y="84" width="4" height="1" fill="rgb(17,114,251)"/><rect x="111" y="84" width="1" height="1" fill="rgb(0,88,243)"/><rect x="112" y="84" width="1" height="1" fill="rgb(0,71,228)"/><rect x="104" y="84" width="1" height="2" fill="rgb(0,88,243)"/><rect x="113" y="84" width="1" height="2" fill="rgb(0,88,243)"/><rect x="15" y="85" width="1" height="1" fill="rgb(0,71,228)"/><rect x="16" y="85" width="1" height="1" fill="rgb(0,88,243)"/><rect x="17" y="85" width="4" height="1" fill="rgb(17,114,251)"/><rect x="21" y="85" width="1" height="1" fill="rgb(0,88,243)"/><rect x="22" y="85" width="1" height="1" fill="rgb(0,71,228)"/><rect x="105" y="85" width="2" height="1" fill="rgb(0,71,228)"/><rect x="107" y="85" width="4" height="1" fill="rgb(0,53,212)"/><rect x="111" y="85" width="2" height="1" fill="rgb(0,71,228)"/><rect x="14" y="85" width="1" height="2" fill="rgb(0,88,243)"/><rect x="23" y="85" width="1" height="2" fill="rgb(0,88,243)"/><rect x="15" y="86" width="2" height="1" fill="rgb(0,71,228)"/><rect x="17" y="86" width="4" height="1" fill="rgb(0,53,212)"/><rect x="21" y="86" width="2" height="1" fill="rgb(0,71,228)"/><rect x="105" y="86" width="1" height="1" fill="rgb(0,88,243)"/><rect x="106" y="86" width="6" height="1" fill="rgb(0,71,228)"/><rect x="112" y="86" width="1" height="1" fill="rgb(0,88,243)"/><rect x="15" y="87" width="1" height="1" fill="rgb(0,88,243)"/><rect x="16" y="87" width="6" height="1" fill="rgb(0,71,228)"/><rect x="22" y="87" width="1" height="1" fill="rgb(0,88,243)"/><rect x="105" y="87" width="2" height="1" fill="rgb(44,131,251)"/><rect x="107" y="87" width="4" height="1" fill="rgb(0,88,243)"/><rect x="111" y="87" width="2" height="1" fill="rgb(44,131,251)"/><rect x="15" y="88" width="2" height="1" fill="rgb(44,131,251)"/><rect x="17" y="88" width="4" height="1" fill="rgb(0,88,243)"/><rect x="21" y="88" width="2" height="1" fill="rgb(44,131,251)"/><rect x="107" y="88" width="4" height="1" fill="rgb(44,131,251)"/><rect x="17" y="89" width="4" height="1" fill="rgb(44,131,251)"/><rect x="96" y="99" width="4" height="1" fill="rgb(44,131,251)"/><rect x="29" y="100" width="4" height="1" fill="rgb(44,131,251)"/><rect x="94" y="100" width="2" height="1" fill="rgb(44,131,251)"/><rect x="96" y="100" width="4" height="1" fill="rgb(71,155,251)"/><rect x="100" y="100" width="2" height="1" fill="rgb(44,131,251)"/><rect x="27" y="101" width="2" height="1" fill="rgb(44,131,251)"/><rect x="29" y="101" width="4" height="1" fill="rgb(71,155,251)"/><rect x="33" y="101" width="2" height="1" fill="rgb(44,131,251)"/><rect x="93" y="101" width="2" height="1" fill="rgb(44,131,251)"/><rect x="95" y="101" width="1" height="1" fill="rgb(71,155,251)"/><rect x="96" y="101" width="4" height="1" fill="rgb(97,179,251)"/><rect x="100" y="101" width="1" height="1" fill="rgb(71,155,251)"/><rect x="101" y="101" width="2" height="1" fill="rgb(44,131,251)"/><rect x="26" y="102" width="2" height="1" fill="rgb(44,131,251)"/><rect x="28" y="102" width="1" height="1" fill="rgb(71,155,251)"/><rect x="29" y="102" width="4" height="1" fill="rgb(97,179,251)"/><rect x="33" y="102" width="1" height="1" fill="rgb(71,155,251)"/><rect x="34" y="102" width="2" height="1" fill="rgb(44,131,251)"/><rect x="93" y="102" width="1" height="1" fill="rgb(44,131,251)"/><rect x="94" y="102" width="8" height="1" fill="rgb(71,155,251)"/><rect x="102" y="102" width="1" height="1" fill="rgb(44,131,251)"/><rect x="26" y="103" width="1" height="1" fill="rgb(44,131,251)"/><rect x="27" y="103" width="8" height="1" fill="rgb(71,155,251)"/><rect x="35" y="103" width="1" height="1" fill="rgb(44,131,251)"/><rect x="94" y="103" width="1" height="1" fill="rgb(17,114,251)"/><rect x="95" y="103" width="1" height="1" fill="rgb(44,131,251)"/><rect x="96" y="103" width="4" height="1" fill="rgb(71,155,251)"/><rect x="100" y="103" width="1" height="1" fill="rgb(44,131,251)"/><rect x="101" y="103" width="1" height="1" fill="rgb(17,114,251)"/><rect x="93" y="103" width="1" height="2" fill="rgb(0,88,243)"/><rect x="102" y="103" width="1" height="2" fill="rgb(0,88,243)"/><rect x="27" y="104" width="1" height="1" fill="rgb(17,114,251)"/><rect x="28" y="104" width="1" height="1" fill="rgb(44,131,251)"/><rect x="29" y="104" width="4" height="1" fill="rgb(71,155,251)"/><rect x="33" y="104" width="1" height="1" fill="rgb(44,131,251)"/><rect x="34" y="104" width="1" height="1" fill="rgb(17,114,251)"/><rect x="94" y="104" width="2" height="1" fill="rgb(17,114,251)"/><rect x="96" y="104" width="4" height="1" fill="rgb(44,131,251)"/><rect x="100" y="104" width="2" height="1" fill="rgb(17,114,251)"/><rect x="26" y="104" width="1" height="2" fill="rgb(0,88,243)"/><rect x="35" y="104" width="1" height="2" fill="rgb(0,88,243)"/><rect x="27" y="105" width="2" height="1" fill="rgb(17,114,251)"/><rect x="29" y="105" width="4" height="1" fill="rgb(44,131,251)"/><rect x="33" y="105" width="2" height="1" fill="rgb(17,114,251)"/><rect x="93" y="105" width="1" height="1" fill="rgb(0,71,228)"/><rect x="94" y="105" width="2" height="1" fill="rgb(0,88,243)"/><rect x="96" y="105" width="4" height="1" fill="rgb(17,114,251)"/><rect x="100" y="105" width="2" height="1" fill="rgb(0,88,243)"/><rect x="102" y="105" width="1" height="1" fill="rgb(0,71,228)"/><rect x="92" y="103" width="1" height="4" fill="rgb(17,114,251)"/><rect x="103" y="103" width="1" height="4" fill="rgb(17,114,251)"/><rect x="26" y="106" width="1" height="1" fill="rgb(0,71,228)"/><rect x="27" y="106" width="2" height="1" fill="rgb(0,88,243)"/><rect x="29" y="106" width="4" height="1" fill="rgb(17,114,251)"/><rect x="33" y="106" width="2" height="1" fill="rgb(0,88,243)"/><rect x="35" y="106" width="1" height="1" fill="rgb(0,71,228)"/><rect x="93" y="106" width="1" height="1" fill="rgb(0,88,243)"/><rect x="94" y="106" width="1" height="1" fill="rgb(0,71,228)"/><rect x="95" y="106" width="1" height="1" fill="rgb(0,53,212)"/><rect x="96" y="106" width="1" height="1" fill="rgb(0,71,228)"/><rect x="97" y="106" width="2" height="1" fill="rgb(0,88,243)"/><rect x="99" y="106" width="1" height="1" fill="rgb(0,71,228)"/><rect x="100" y="106" width="1" height="1" fill="rgb(0,53,212)"/><rect x="101" y="106" width="1" height="1" fill="rgb(0,71,228)"/><rect x="102" y="106" width="1" height="1" fill="rgb(0,88,243)"/><rect x="25" y="104" width="1" height="4" fill="rgb(17,114,251)"/><rect x="36" y="104" width="1" height="4" fill="rgb(17,114,251)"/><rect x="26" y="107" width="1" height="1" fill="rgb(0,88,243)"/><rect x="27" y="107" width="1" height="1" fill="rgb(0,71,228)"/><rect x="28" y="107" width="1" height="1" fill="rgb(0,53,212)"/><rect x="29" y="107" width="1" height="1" fill="rgb(0,71,228)"/><rect x="30" y="107" width="2" height="1" fill="rgb(0,88,243)"/><rect x="32" y="107" width="1" height="1" fill="rgb(0,71,228)"/><rect x="33" y="107" width="1" height="1" fill="rgb(0,53,212)"/><rect x="34" y="107" width="1" height="1" fill="rgb(0,71,228)"/><rect x="35" y="107" width="1" height="1" fill="rgb(0,88,243)"/><rect x="94" y="107" width="1" height="1" fill="rgb(0,88,243)"/><rect x="95" y="107" width="1" height="1" fill="rgb(0,71,228)"/><rect x="96" y="107" width="1" height="1" fill="rgb(0,53,212)"/><rect x="97" y="107" width="2" height="1" fill="rgb(0,35,187)"/><rect x="99" y="107" width="1" height="1" fill="rgb(0,53,212)"/><rect x="100" y="107" width="1" height="1" fill="rgb(0,71,228)"/><rect x="101" y="107" width="1" height="1" fill="rgb(0,88,243)"/><rect x="93" y="107" width="1" height="2" fill="rgb(17,114,251)"/><rect x="102" y="107" width="1" height="2" fill="rgb(17,114,251)"/><rect x="27" y="108" width="1" height="1" fill="rgb(0,88,243)"/><rect x="28" y="108" width="1" height="1" fill="rgb(0,71,228)"/><rect x="29" y="108" width="1" height="1" fill="rgb(0,53,212)"/><rect x="30" y="108" width="2" height="1" fill="rgb(0,35,187)"/><rect x="32" y="108" width="1" height="1" fill="rgb(0,53,212)"/><rect x="33" y="108" width="1" height="1" fill="rgb(0,71,228)"/><rect x="34" y="108" width="1" height="1" fill="rgb(0,88,243)"/><rect x="94" y="108" width="2" height="1" fill="rgb(0,88,243)"/><rect x="96" y="108" width="4" height="1" fill="rgb(0,71,228)"/><rect x="100" y="108" width="2" height="1" fill="rgb(0,88,243)"/><rect x="26" y="108" width="1" height="2" fill="rgb(17,114,251)"/><rect x="35" y="108" width="1" height="2" fill="rgb(17,114,251)"/><rect x="27" y="109" width="2" height="1" fill="rgb(0,88,243)"/><rect x="29" y="109" width="4" height="1" fill="rgb(0,71,228)"/><rect x="33" y="109" width="2" height="1" fill="rgb(0,88,243)"/><rect x="94" y="109" width="1" height="1" fill="rgb(44,131,251)"/><rect x="95" y="109" width="6" height="1" fill="rgb(17,114,251)"/><rect x="101" y="109" width="1" height="1" fill="rgb(44,131,251)"/><rect x="27" y="110" width="1" height="1" fill="rgb(44,131,251)"/><rect x="28" y="110" width="6" height="1" fill="rgb(17,114,251)"/><rect x="34" y="110" width="1" height="1" fill="rgb(44,131,251)"/><rect x="96" y="110" width="4" height="1" fill="rgb(44,131,251)"/><rect x="29" y="111" width="4" height="1" fill="rgb(44,131,251)"/><rect x="50" y="111" width="4" height="1" fill="rgb(44,131,251)"/><rect x="75" y="111" width="4" height="1" fill="rgb(44,131,251)"/><rect x="48" y="112" width="2" height="1" fill="rgb(44,131,251)"/><rect x="50" y="112" width="4" height="1" fill="rgb(71,155,251)"/><rect x="54" y="112" width="2" height="1" fill="rgb(44,131,251)"/><rect x="73" y="112" width="2" height="1" fill="rgb(44,131,251)"/><rect x="75" y="112" width="4" height="1" fill="rgb(71,155,251)"/><rect x="79" y="112" width="2" height="1" fill="rgb(44,131,251)"/><rect x="47" y="113" width="2" height="1" fill="rgb(44,131,251)"/><rect x="49" y="113" width="1" height="1" fill="rgb(71,155,251)"/><rect x="50" y="113" width="4" height="1" fill="rgb(97,179,251)"/><rect x="54" y="113" width="1" height="1" fill="rgb(71,155,251)"/><rect x="55" y="113" width="2" height="1" fill="rgb(44,131,251)"/><rect x="72" y="113" width="2" height="1" fill="rgb(44,131,251)"/><rect x="74" y="113" width="1" height="1" fill="rgb(71,155,251)"/><rect x="75" y="113" width="4" height="1" fill="rgb(97,179,251)"/><rect x="79" y="113" width="1" height="1" fill="rgb(71,155,251)"/><rect x="80" y="113" width="2" height="1" fill="rgb(44,131,251)"/><rect x="47" y="114" width="1" height="1" fill="rgb(44,131,251)"/><rect x="48" y="114" width="8" height="1" fill="rgb(71,155,251)"/><rect x="56" y="114" width="1" height="1" fill="rgb(44,131,251)"/><rect x="72" y="114" width="1" height="1" fill="rgb(44,131,251)"/><rect x="73" y="114" width="8" height="1" fill="rgb(71,155,251)"/><rect x="81" y="114" width="1" height="1" fill="rgb(44,131,251)"/><rect x="48" y="115" width="1" height="1" fill="rgb(17,114,251)"/><rect x="49" y="115" width="1" height="1" fill="rgb(44,131,251)"/><rect x="50" y="115" width="4" height="1" fill="rgb(71,155,251)"/><rect x="54" y="115" width="1" height="1" fill="rgb(44,131,251)"/><rect x="55" y="115" width="1" height="1" fill="rgb(17,114,251)"/><rect x="73" y="115" width="1" height="1" fill="rgb(17,114,251)"/><rect x="74" y="115" width="1" height="1" fill="rgb(44,131,251)"/><rect x="75" y="115" width="4" height="1" fill="rgb(71,155,251)"/><rect x="79" y="115" width="1" height="1" fill="rgb(44,131,251)"/><rect x="80" y="115" width="1" height="1" fill="rgb(17,114,251)"/><rect x="47" y="115" width="1" height="2" fill="rgb(0,88,243)"/><rect x="56" y="115" width="1" height="2" fill="rgb(0,88,243)"/><rect x="72" y="115" width="1" height="2" fill="rgb(0,88,243)"/><rect x="81" y="115" width="1" height="2" fill="rgb(0,88,243)"/><rect x="48" y="116" width="2" height="1" fill="rgb(17,114,251)"/><rect x="50" y="116" width="4" height="1" fill="rgb(44,131,251)"/><rect x="54" y="116" width="2" height="1" fill="rgb(17,114,251)"/><rect x="73" y="116" width="2" height="1" fill="rgb(17,114,251)"/><rect x="75" y="116" width="4" height="1" fill="rgb(44,131,251)"/><rect x="79" y="116" width="2" height="1" fill="rgb(17,114,251)"/><rect x="47" y="117" width="1" height="1" fill="rgb(0,71,228)"/><rect x="48" y="117" width="2" height="1" fill="rgb(0,88,243)"/><rect x="50" y="117" width="4" height="1" fill="rgb(17,114,251)"/><rect x="54" y="117" width="2" height="1" fill="rgb(0,88,243)"/><rect x="56" y="117" width="1" height="1" fill="rgb(0,71,228)"/><rect x="72" y="117" width="1" height="1" fill="rgb(0,71,228)"/><rect x="73" y="117" width="2" height="1" fill="rgb(0,88,243)"/><rect x="75" y="117" width="4" height="1" fill="rgb(17,114,251)"/><rect x="79" y="117" width="2" height="1" fill="rgb(0,88,243)"/><rect x="81" y="117" width="1" height="1" fill="rgb(0,71,228)"/><rect x="46" y="115" width="1" height="4" fill="rgb(17,114,251)"/><rect x="57" y="115" width="1" height="4" fill="rgb(17,114,251)"/><rect x="71" y="115" width="1" height="4" fill="rgb(17,114,251)"/><rect x="82" y="115" width="1" height="4" fill="rgb(17,114,251)"/><rect x="47" y="118" width="1" height="1" fill="rgb(0,88,243)"/><rect x="48" y="118" width="1" height="1" fill="rgb(0,71,228)"/><rect x="49" y="118" width="1" height="1" fill="rgb(0,53,212)"/><rect x="50" y="118" width="1" height="1" fill="rgb(0,71,228)"/><rect x="51" y="118" width="2" height="1" fill="rgb(0,88,243)"/><rect x="53" y="118" width="1" height="1" fill="rgb(0,71,228)"/><rect x="54" y="118" width="1" height="1" fill="rgb(0,53,212)"/><rect x="55" y="118" width="1" height="1" fill="rgb(0,71,228)"/><rect x="56" y="118" width="1" height="1" fill="rgb(0,88,243)"/><rect x="72" y="118" width="1" height="1" fill="rgb(0,88,243)"/><rect x="73" y="118" width="1" height="1" fill="rgb(0,71,228)"/><rect x="74" y="118" width="1" height="1" fill="rgb(0,53,212)"/><rect x="75" y="118" width="1" height="1" fill="rgb(0,71,228)"/><rect x="76" y="118" width="2" height="1" fill="rgb(0,88,243)"/><rect x="78" y="118" width="1" height="1" fill="rgb(0,71,228)"/><rect x="79" y="118" width="1" height="1" fill="rgb(0,53,212)"/><rect x="80" y="118" width="1" height="1" fill="rgb(0,71,228)"/><rect x="81" y="118" width="1" height="1" fill="rgb(0,88,243)"/><rect x="48" y="119" width="1" height="1" fill="rgb(0,88,243)"/><rect x="49" y="119" width="1" height="1" fill="rgb(0,71,228)"/><rect x="50" y="119" width="1" height="1" fill="rgb(0,53,212)"/><rect x="51" y="119" width="2" height="1" fill="rgb(0,35,187)"/><rect x="53" y="119" width="1" height="1" fill="rgb(0,53,212)"/><rect x="54" y="119" width="1" height="1" fill="rgb(0,71,228)"/><rect x="55" y="119" width="1" height="1" fill="rgb(0,88,243)"/><rect x="73" y="119" width="1" height="1" fill="rgb(0,88,243)"/><rect x="74" y="119" width="1" height="1" fill="rgb(0,71,228)"/><rect x="75" y="119" width="1" height="1" fill="rgb(0,53,212)"/><rect x="76" y="119" width="2" height="1" fill="rgb(0,35,187)"/><rect x="78" y="119" width="1" height="1" fill="rgb(0,53,212)"/><rect x="79" y="119" width="1" height="1" fill="rgb(0,71,228)"/><rect x="80" y="119" width="1" height="1" fill="rgb(0,88,243)"/><rect x="47" y="119" width="1" height="2" fill="rgb(17,114,251)"/><rect x="56" y="119" width="1" height="2" fill="rgb(17,114,251)"/><rect x="72" y="119" width="1" height="2" fill="rgb(17,114,251)"/><rect x="81" y="119" width="1" height="2" fill="rgb(17,114,251)"/><rect x="48" y="120" width="2" height="1" fill="rgb(0,88,243)"/><rect x="50" y="120" width="4" height="1" fill="rgb(0,71,228)"/><rect x="54" y="120" width="2" height="1" fill="rgb(0,88,243)"/><rect x="73" y="120" width="2" height="1" fill="rgb(0,88,243)"/><rect x="75" y="120" width="4" height="1" fill="rgb(0,71,228)"/><rect x="79" y="120" width="2" height="1" fill="rgb(0,88,243)"/><rect x="48" y="121" width="1" height="1" fill="rgb(44,131,251)"/><rect x="49" y="121" width="6" height="1" fill="rgb(17,114,251)"/><rect x="55" y="121" width="1" height="1" fill="rgb(44,131,251)"/><rect x="73" y="121" width="1" height="1" fill="rgb(44,131,251)"/><rect x="74" y="121" width="6" height="1" fill="rgb(17,114,251)"/><rect x="80" y="121" width="1" height="1" fill="rgb(44,131,251)"/><rect x="50" y="122" width="4" height="1" fill="rgb(44,131,251)"/><rect x="75" y="122" width="4" height="1" fill="rgb(44,131,251)"/></svg>