<svg xmlns="http://www.w3.org/2000/svg" width="128" height="144" viewBox="0 0 128 144"><rect x="62" y="31" width="4" height="1" fill="rgb(44,131,251)"/><rect x="60" y="32" width="2" height="1" fill="rgb(44,131,251)"/><rect x="62" y="32" width="1" height="1" fill="rgb(71,155,251)"/><rect x="63" y="32" width="2" height="1" fill="rgb(97,179,251)"/><rect x="65" y="32" width="1" height="1" fill="rgb(71,155,251)"/><rect x="66" y="32" width="2" height="1" fill="rgb(44,131,251)"/><rect x="60" y="33" width="1" height="1" fill="rgb(44,131,251)"/><rect x="61" y="33" width="6" height="1" fill="rgb(71,155,251)"/><rect x="67" y="33" width="1" height="1" fill="rgb(44,131,251)"/><rect x="59" y="34" width="1" height="1" fill="rgb(0,88,243)"/><rect x="60" y="34" width="1" height="1" fill="rgb(17,114,251)"/><rect x="61" y="34" width="1" height="1" fill="rgb(44,131,251)"/><rect x="62" y="34" width="4" height="1" fill="rgb(71,155,251)"/><rect x="66" y="34" width="1" height="1" fill="rgb(44,131,251)"/><rect x="67" y="34" width="1" height="1" fill="rgb(17,114,251)"/><rect x="68" y="34" width="1" height="1" fill="rgb(0,88,243)"/><rect x="59" y="35" width="1" height="1" fill="rgb(0,71,228)"/><rect x="60" y="35" width="2" height="1" fill="rgb(17,114,251)"/><rect x="62" y="35" width="4" height="1" fill="rgb(44,131,251)"/><rect x="66" y="35" width="2" height="1" fill="rgb(17,114,251)"/><rect x="68" y="35" width="1" height="1" fill="rgb(0,71,228)"/><rect x="44" y="36" width="4" height="1" fill="rgb(44,131,251)"/><rect x="60" y="36" width="1" height="1" fill="rgb(0,71,228)"/><rect x="61" y="36" width="1" height="1" fill="rgb(0,88,243)"/><rect x="62" y="36" width="4" height="1" fill="rgb(17,114,251)"/><rect x="66" y="36" width="1" height="1" fill="rgb(0,88,243)"/><rect x="67" y="36" width="1" height="1" fill="rgb(0,71,228)"/><rect x="80" y="36" width="4" height="1" fill="rgb(44,131,251)"/><rect x="59" y="36" width="1" height="2" fill="rgb(0,88,243)"/><rect x="68" y="36" width="1" height="2" fill="rgb(0,88,243)"/><rect x="42" y="37" width="2" height="1" fill="rgb(44,131,251)"/><rect x="44" y="37" width="1" height="1" fill="rgb(71,155,251)"/><rect x="45" y="37" width="2" height="1" fill="rgb(97,179,251)"/><rect x="47" y="37" width="1" height="1" fill="rgb(71,155,251)"/><rect x="48" y="37" width="2" height="1" fill="rgb(44,131,251)"/><rect x="60" y="37" width="2" height="1" fill="rgb(0,71,228)"/><rect x="62" y="37" width="4" height="1" fill="rgb(0,53,212)"/><rect x="66" y="37" width="2" height="1" fill="rgb(0,71,228)"/><rect x="78" y="37" width="2" height="1" fill="rgb(44,131,251)"/><rect x="80" y="37" width="1" height="1" fill="rgb(71,155,251)"/><rect x="81" y="37" width="2" height="1" fill="rgb(97,179,251)"/><rect x="83" y="37" width="1" height="1" fill="rgb(71,155,251)"/><rect x="84" y="37" width="2" height="1" fill="rgb(44,131,251)"/><rect x="42" y="38" width="1" height="1" fill="rgb(44,131,251)"/><rect x="43" y="38" width="6" height="1" fill="rgb(71,155,251)"/><rect x="49" y="38" width="1" height="1" fill="rgb(44,131,251)"/><rect x="60" y="38" width="1" height="1" fill="rgb(0,88,243)"/><rect x="61" y="38" width="6" height="1" fill="rgb(0,71,228)"/><rect x="67" y="38" width="1" height="1" fill="rgb(0,88,243)"/><rect x="78" y="38" width="1" height="1" fill="rgb(44,131,251)"/><rect x="79" y="38" width="6" height="1" fill="rgb(71,155,251)"/><rect x="85" y="38" width="1" height="1" fill="rgb(44,131,251)"/><rect x="41" y="39" width="1" height="1" fill="rgb(0,88,243)"/><rect x="42" y="39" width="1" height="1" fill="rgb(17,114,251)"/><rect x="43" y="39" width="1" height="1" fill="rgb(44,131,251)"/><rect x="44" y="39" width="4" height="1" fill="rgb(71,155,251)"/><rect x="48" y="39" width="1" height="1" fill="rgb(44,131,251)"/><rect x="49" y="39" width="1" height="1" fill="rgb(17,114,251)"/><rect x="50" y="39" width="1" height="1" fill="rgb(0,88,243)"/><rect x="60" y="39" width="2" height="1" fill="rgb(44,131,251)"/><rect x="62" y="39" width="4" height="1" fill="rgb(0,88,243)"/><rect x="66" y="39" width="2" height="1" fill="rgb(44,131,251)"/><rect x="77" y="39" width="1" height="1" fill="rgb(0,88,243)"/><rect x="78" y="39" width="1" height="1" fill="rgb(17,114,251)"/><rect x="79" y="39" width="1" height="1" fill="rgb(44,131,251)"/><rect x="80" y="39" width="4" height="1" fill="rgb(71,155,251)"/><rect x="84" y="39" width="1" height="1" fill="rgb(44,131,251)"/><rect x="85" y="39" width="1" height="1" fill="rgb(17,114,251)"/><rect x="86" y="39" width="1" height="1" fill="rgb(0,88,243)"/><rect x="41" y="40" width="1" height="1" fill="rgb(0,71,228)"/><rect x="42" y="40" width="2" height="1" fill="rgb(17,114,251)"/><rect x="44" y="40" width="4" height="1" fill="rgb(44,131,251)"/><rect x="48" y="40" width="2" height="1" fill="rgb(17,114,251)"/><rect x="50" y="40" width="1" height="1" fill="rgb(0,71,228)"/><rect x="62" y="40" width="4" height="1" fill="rgb(44,131,251)"/><rect x="77" y="40" width="1" height="1" fill="rgb(0,71,228)"/><rect x="78" y="40" width="2" height="1" fill="rgb(17,114,251)"/><rect x="80" y="40" width="4" height="1" fill="rgb(44,131,251)"/><rect x="84" y="40" width="2" height="1" fill="rgb(17,114,251)"/><rect x="86" y="40" width="1" height="1" fill="rgb(0,71,228)"/><rect x="42" y="41" width="1" height="1" fill="rgb(0,71,228)"/><rect x="43" y="41" width="1" height="1" fill="rgb(0,88,243)"/><rect x="44" y="41" width="4" height="1" fill="rgb(17,114,251)"/><rect x="48" y="41" width="1" height="1" fill="rgb(0,88,243)"/><rect x="49" y="41" width="1" height="1" fill="rgb(0,71,228)"/><rect x="78" y="41" width="1" height="1" fill="rgb(0,71,228)"/><rect x="79" y="41" width="1" height="1" fill="rgb(0,88,243)"/><rect x="80" y="41" width="4" height="1" fill="rgb(17,114,251)"/><rect x="84" y="41" width="1" height="1" fill="rgb(0,88,243)"/><rect x="85" y="41" width="1" height="1" fill="rgb(0,71,228)"/><rect x="41" y="41" width="1" height="2" fill="rgb(0,88,243)"/><rect x="50" y="41" width="1" height="2" fill="rgb(0,88,243)"/><rect x="77" y="41" width="1" height="2" fill="rgb(0,88,243)"/><rect x="86" y="41" width="1" height="2" fill="rgb(0,88,243)"/><rect x="42" y="42" width="2" height="1" fill="rgb(0,71,228)"/><rect x="44" y="42" width="4" height="1" fill="rgb(0,53,212)"/><rect x="48" y="42" width="2" height="1" fill="rgb(0,71,228)"/><rect x="78" y="42" width="2" height="1" fill="rgb(0,71,228)"/><rect x="80" y="42" width="4" height="1" fill="rgb(0,53,212)"/><rect x="84" y="42" width="2" height="1" fill="rgb(0,71,228)"/><rect x="42" y="43" width="1" height="1" fill="rgb(0,88,243)"/><rect x="43" y="43" width="6" height="1" fill="rgb(0,71,228)"/><rect x="49" y="43" width="1" height="1" fill="rgb(0,88,243)"/><rect x="78" y="43" width="1" height="1" fill="rgb(0,88,243)"/><rect x="79" y="43" width="6" height="1" fill="rgb(0,71,228)"/><rect x="85" y="43" width="1" height="1" fill="rgb(0,88,243)"/><rect x="42" y="44" width="2" height="1" fill="rgb(44,131,251)"/><rect x="44" y="44" width="4" height="1" fill="rgb(0,88,243)"/><rect x="48" y="44" width="2" height="1" fill="rgb(44,131,251)"/><rect x="78" y="44" width="2" height="1" fill="rgb(44,131,251)"/><rect x="80" y="44" width="4" height="1" fill="rgb(0,88,243)"/><rect x="84" y="44" width="2" height="1" fill="rgb(44,131,251)"/><rect x="44" y="45" width="4" height="1" fill="rgb(44,131,251)"/><rect x="80" y="45" width="4" height="1" fill="rgb(44,131,251)"/><rect x="31" y="49" width="4" height="1" fill="rgb(44,131,251)"/><rect x="93" y="49" width="4" height="1" fill="rgb(44,131,251)"/><rect x="29" y="50" width="2" height="1" fill="rgb(44,131,251)"/><rect x="31" y="50" width="1" height="1" fill="rgb(71,155,251)"/><rect x="32" y="50" width="2" height="1" fill="rgb(97,179,251)"/><rect x="34" y="50" width="1" height="1" fill="rgb(71,155,251)"/><rect x="35" y="50" width="2" height="1" fill="rgb(44,131,251)"/><rect x="91" y="50" width="2" height="1" fill="rgb(44,131,251)"/><rect x="93" y="50" width="1" height="1" fill="rgb(71,155,251)"/><rect x="94" y="50" width="2" height="1" fill="rgb(97,179,251)"/><rect x="96" y="50" width="1" height="1" fill="rgb(71,155,251)"/><rect x="97" y="50" width="2" height="1" fill="rgb(44,131,251)"/><rect x="29" y="51" width="1" height="1" fill="rgb(44,131,251)"/><rect x="30" y="51" width="6" height="1" fill="rgb(71,155,251)"/><rect x="36" y="51" width="1" height="1" fill="rgb(44,131,251)"/><rect x="91" y="51" width="1" height="1" fill="rgb(44,131,251)"/><rect x="92" y="51" width="6" height="1" fill="rgb(71,155,251)"/><rect x="98" y="51" width="1" height="1" fill="rgb(44,131,251)"/><rect x="28" y="52" width="1" height="1" fill="rgb(0,88,243)"/><rect x="29" y="52" width="1" height="1" fill="rgb(17,114,251)"/><rect x="30" y="52" width="1" height="1" fill="rgb(44,131,251)"/><rect x="31" y="52" width="4" height="1" fill="rgb(71,155,251)"/><rect x="35" y="52" width="1" height="1" fill="rgb(44,131,251)"/><rect x="36" y="52" width="1" height="1" fill="rgb(17,114,251)"/><rect x="37" y="52" width="1" height="1" fill="rgb(0,88,243)"/><rect x="90" y="52" width="1" height="1" fill="rgb(0,88,243)"/><rect x="91" y="52" width="1" height="1" fill="rgb(17,114,251)"/><rect x="92" y="52" width="1" height="1" fill="rgb(44,131,251)"/><rect x="93" y="52" width="4" height="1" fill="rgb(71,155,251)"/><rect x="97" y="52" width="1" height="1" fill="rgb(44,131,251)"/><rect x="98" y="52" width="1" height="1" fill="rgb(17,114,251)"/><rect x="99" y="52" width="1" height="1" fill="rgb(0,88,243)"/><rect x="28" y="53" width="1" height="1" fill="rgb(0,71,228)"/><rect x="29" y="53" width="2" height="1" fill="rgb(17,114,251)"/><rect x="31" y="53" width="4" height="1" fill="rgb(44,131,251)"/><rect x="35" y="53" width="2" height="1" fill="rgb(17,114,251)"/><rect x="37" y="53" width="1" height="1" fill="rgb(0,71,228)"/><rect x="90" y="53" width="1" height="1" fill="rgb(0,71,228)"/><rect x="91" y="53" width="2" height="1" fill="rgb(17,114,251)"/><rect x="93" y="53" width="4" height="1" fill="rgb(44,131,251)"/><rect x="97" y="53" width="2" height="1" fill="rgb(17,114,251)"/><rect x="99" y="53" width="1" height="1" fill="rgb(0,71,228)"/><rect x="29" y="54" width="1" height="1" fill="rgb(0,71,228)"/><rect x="30" y="54" width="1" height="1" fill="rgb(0,88,243)"/><rect x="31" y="54" width="4" height="1" fill="rgb(17,114,251)"/><rect x="35" y="54" width="1" height="1" fill="rgb(0,88,243)"/><rect x="36" y="54" width="1" height="1" fill="rgb(0,71,228)"/><rect x="91" y="54" width="1" height="1" fill="rgb(0,71,228)"/><rect x="92" y="54" width="1" height="1" fill="rgb(0,88,243)"/><rect x="93" y="54" width="4" height="1" fill="rgb(17,114,251)"/><rect x="97" y="54" width="1" height="1" fill="rgb(0,88,243)"/><rect x="98" y="54" width="1" height="1" fill="rgb(0,71,228)"/><rect x="28" y="54" width="1" height="2" fill="rgb(0,88,243)"/><rect x="37" y="54" width="1" height="2" fill="rgb(0,88,243)"/><rect x="90" y="54" width="1" height="2" fill="rgb(0,88,243)"/><rect x="99" y="54" width="1" height="2" fill="rgb(0,88,243)"/><rect x="29" y="55" width="2" height="1" fill="rgb(0,71,228)"/><rect x="31" y="55" width="4" height="1" fill="rgb(0,53,212)"/><rect x="35" y="55" width="2" height="1" fill="rgb(0,71,228)"/><rect x="91" y="55" width="2" height="1" fill="rgb(0,71,228)"/><rect x="93" y="55" width="4" height="1" fill="rgb(0,53,212)"/><rect x="97" y="55" width="2" height="1" fill="rgb(0,71,228)"/><rect x="29" y="56" width="1" height="1" fill="rgb(0,88,243)"/><rect x="30" y="56" width="6" height="1" fill="rgb(0,71,228)"/><rect x="36" y="56" width="1" height="1" fill="rgb(0,88,243)"/><rect x="91" y="56" width="1" height="1" fill="rgb(0,88,243)"/><rect x="92" y="56" width="6" height="1" fill="rgb(0,71,228)"/><rect x="98" y="56" width="1" height="1" fill="rgb(0,88,243)"/><rect x="29" y="57" width="2" height="1" fill="rgb(44,131,251)"/><rect x="31" y="57" width="4" height="1" fill="rgb(0,88,243)"/><rect x="35" y="57" width="2" height="1" fill="rgb(44,131,251)"/><rect x="91" y="57" width="2" height="1" fill="rgb(44,131,251)"/><rect x="93" y="57" width="4" height="1" fill="rgb(0,88,243)"/><rect x="97" y="57" width="2" height="1" fill="rgb(44,131,251)"/><rect x="31" y="58" width="4" height="1" fill="rgb(44,131,251)"/><rect x="93" y="58" width="4" height="1" fill="rgb(44,131,251)"/><rect x="26" y="67" width="4" height="1" fill="rgb(44,131,251)"/><rect x="98" y="67" width="4" height="1" fill="rgb(44,131,251)"/><rect x="24" y="68" width="2" height="1" fill="rgb(44,131,251)"/><rect x="26" y="68" width="1" height="1" fill="rgb(71,155,251)"/><rect x="27" y="68" width="2" height="1" fill="rgb(97,179,251)"/><rect x="29" y="68" width="1" height="1" fill="rgb(71,155,251)"/><rect x="30" y="68" width="2" height="1" fill="rgb(44,131,251)"/><rect x="96" y="68" width="2" height="1" fill="rgb(44,131,251)"/><rect x="98" y="68" width="1" height="1" fill="rgb(71,155,251)"/><rect x="99" y="68" width="2" height="1" fill="rgb(97,179,251)"/><rect x="101" y="68" width="1" height="1" fill="rgb(71,155,251)"/><rect x="102" y="68" width="2" height="1" fill="rgb(44,131,251)"/><rect x="24" y="69" width="1" height="1" fill="rgb(44,131,251)"/><rect x="25" y="69" width="6" height="1" fill="rgb(71,155,251)"/><rect x="31" y="69" width="1" height="1" fill="rgb(44,131,251)"/><rect x="96" y="69" width="1" height="1" fill="rgb(44,131,251)"/><rect x="97" y="69" width="6" height="1" fill="rgb(71,155,251)"/><rect x="103" y="69" width="1" height="1" fill="rgb(44,131,251)"/><rect x="23" y="70" width="1" height="1" fill="rgb(0,88,243)"/><rect x="24" y="70" width="1" height="1" fill="rgb(17,114,251)"/><rect x="25" y="70" width="1" height="1" fill="rgb(44,131,251)"/><rect x="26" y="70" width="4" height="1" fill="rgb(71,155,251)"/><rect x="30" y="70" width="1" height="1" fill="rgb(44,131,251)"/><rect x="31" y="70" width="1" height="1" fill="rgb(17,114,251)"/><rect x="32" y="70" width="1" height="1" fill="rgb(0,88,243)"/><rect x="95" y="70" width="1" height="1" fill="rgb(0,88,243)"/><rect x="96" y="70" width="1" height="1" fill="rgb(17,114,251)"/><rect x="97" y="70" width="1" height="1" fill="rgb(44,131,251)"/><rect x="98" y="70" width="4" height="1" fill="rgb(71,155,251)"/><rect x="102" y="70" width="1" height="1" fill="rgb(44,131,251)"/><rect x="103" y="70" width="1" height="1" fill="rgb(17,114,251)"/><rect x="104" y="70" width="1" height="1" fill="rgb(0,88,243)"/><rect x="23" y="71" width="1" height="1" fill="rgb(0,71,228)"/><rect x="24" y="71" width="2" height="1" fill="rgb(17,114,251)"/><rect x="26" y="71" width="4" height="1" fill="rgb(44,131,251)"/><rect x="30" y="71" width="2" height="1" fill="rgb(17,114,251)"/><rect x="32" y="71" width="1" height="1" fill="rgb(0,71,228)"/><rect x="95" y="71" width="1" height="1" fill="rgb(0,71,228)"/><rect x="96" y="71" width="2" height="1" fill="rgb(17,114,251)"/><rect x="98" y="71" width="4" height="1" fill="rgb(44,131,251)"/><rect x="102" y="71" width="2" height="1" fill="rgb(17,114,251)"/><rect x="104" y="71" width="1" height="1" fill="rgb(0,71,228)"/><rect x="24" y="72" width="1" height="1" fill="rgb(0,71,228)"/><rect x="25" y="72" width="1" height="1" fill="rgb(0,88,243)"/><rect x="26" y="72" width="4" height="1" fill="rgb(17,114,251)"/><rect x="30" y="72" width="1" height="1" fill="rgb(0,88,243)"/><rect x="31" y="72" width="1" height="1" fill="rgb(0,71,228)"/><rect x="96" y="72" width="1" height="1" fill="rgb(0,71,228)"/><rect x="97" y="72" width="1" height="1" fill="rgb(0,88,243)"/><rect x="98" y="72" width="4" height="1" fill="rgb(17,114,251)"/><rect x="102" y="72" width="1" height="1" fill="rgb(0,88,243)"/><rect x="103" y="72" width="1" height="1" fill="rgb(0,71,228)"/><rect x="23" y="72" width="1" height="2" fill="rgb(0,88,243)"/><rect x="32" y="72" width="1" height="2" fill="rgb(0,88,243)"/><rect x="95" y="72" width="1" height="2" fill="rgb(0,88,243)"/><rect x="104" y="72" width="1" height="2" fill="rgb(0,88,243)"/><rect x="24" y="73" width="2" height="1" fill="rgb(0,71,228)"/><rect x="26" y="73" width="4" height="1" fill="rgb(0,53,212)"/><rect x="30" y="73" width="2" height="1" fill="rgb(0,71,228)"/><rect x="96" y="73" width="2" height="1" fill="rgb(0,71,228)"/><rect x="98" y="73" width="4" height="1" fill="rgb(0,53,212)"/><rect x="102" y="73" width="2" height="1" fill="rgb(0,71,228)"/><rect x="24" y="74" width="1" height="1" fill="rgb(0,88,243)"/><rect x="25" y="74" width="6" height="1" fill="rgb(0,71,228)"/><rect x="31" y="74" width="1" height="1" fill="rgb(0,88,243)"/><rect x="96" y="74" width="1" height="1" fill="rgb(0,88,243)"/><rect x="97" y="74" width="6" height="1" fill="rgb(0,71,228)"/><rect x="103" y="74" width="1" height="1" fill="rgb(0,88,243)"/><rect x="24" y="75" width="2" height="1" fill="rgb(44,131,251)"/><rect x="26" y="75" width="4" height="1" fill="rgb(0,88,243)"/><rect x="30" y="75" width="2" height="1" fill="rgb(44,131,251)"/><rect x="96" y="75" width="2" height="1" fill="rgb(44,131,251)"/><rect x="98" y="75" width="4" height="1" fill="rgb(0,88,243)"/><rect x="102" y="75" width="2" height="1" fill="rgb(44,131,251)"/><rect x="26" y="76" width="4" height="1" fill="rgb(44,131,251)"/><rect x="98" y="76" width="4" height="1" fill="rgb(44,131,251)"/><rect x="31" y="85" width="4" height="1" fill="rgb(44,131,251)"/><rect x="93" y="85" width="4" height="1" fill="rgb(44,131,251)"/><rect x="29" y="86" width="2" height="1" fill="rgb(44,131,251)"/><rect x="31" y="86" width="1" height="1" fill="rgb(71,155,251)"/><rect x="32" y="86" width="2" height="1" fill="rgb(97,179,251)"/><rect x="34" y="86" width="1" height="1" fill="rgb(71,155,251)"/><rect x="35" y="86" width="2" height="1" fill="rgb(44,131,251)"/><rect x="91" y="86" width="2" height="1" fill="rgb(44,131,251)"/><rect x="93" y="86" width="1" height="1" fill="rgb(71,155,251)"/><rect x="94" y="86" width="2" height="1" fill="rgb(97,179,251)"/><rect x="96" y="86" width="1" height="1" fill="rgb(71,155,251)"/><rect x="97" y="86" width="2" height="1" fill="rgb(44,131,251)"/><rect x="29" y="87" width="1" height="1" fill="rgb(44,131,251)"/><rect x="30" y="87" width="6" height="1" fill="rgb(71,155,251)"/><rect x="36" y="87" width="1" height="1" fill="rgb(44,131,251)"/><rect x="91" y="87" width="1" height="1" fill="rgb(44,131,251)"/><rect x="92" y="87" width="6" height="1" fill="rgb(71,155,251)"/><rect x="98" y="87" width="1" height="1" fill="rgb(44,131,251)"/><rect x="28" y="88" width="1" height="1" fill="rgb(0,88,243)"/><rect x="29" y="88" width="1" height="1" fill="rgb(17,114,251)"/><rect x="30" y="88" width="1" height="1" fill="rgb(44,131,251)"/><rect x="31" y="88" width="4" height="1" fill="rgb(71,155,251)"/><rect x="35" y="88" width="1" height="1" fill="rgb(44,131,251)"/><rect x="36" y="88" width="1" height="1" fill="rgb(17,114,251)"/><rect x="37" y="88" width="1" height="1" fill="rgb(0,88,243)"/><rect x="90" y="88" width="1" height="1" fill="rgb(0,88,243)"/><rect x="91" y="88" width="1" height="1" fill="rgb(17,114,251)"/><rect x="92" y="88" width="1" height="1" fill="rgb(44,131,251)"/><rect x="93" y="88" width="4" height="1" fill="rgb(71,155,251)"/><rect x="97" y="88" width="1" height="1" fill="rgb(44,131,251)"/><rect x="98" y="88" width="1" height="1" fill="rgb(17,114,251)"/><rect x="99" y="88" width="1" height="1" fill="rgb(0,88,243)"/><rect x="28" y="89" width="1" height="1" fill="rgb(0,71,228)"/><rect x="29" y="89" width="2" height="1" fill="rgb(17,114,251)"/><rect x="31" y="89" width="4" height="1" fill="rgb(44,131,251)"/><rect x="35" y="89" width="2" height="1" fill="rgb(17,114,251)"/><rect x="37" y="89" width="1" height="1" fill="rgb(0,71,228)"/><rect x="90" y="89" width="1" height="1" fill="rgb(0,71,228)"/><rect x="91" y="89" width="2" height="1" fill="rgb(17,114,251)"/><rect x="93" y="89" width="4" height="1" fill="rgb(44,131,251)"/><rect x="97" y="89" width="2" height="1" fill="rgb(17,114,251)"/><rect x="99" y="89" width="1" height="1" fill="rgb(0,71,228)"/><rect x="29" y="90" width="1" height="1" fill="rgb(0,71,228)"/><rect x="30" y="90" width="1" height="1" fill="rgb(0,88,243)"/><rect x="31" y="90" width="4" height="1" fill="rgb(17,114,251)"/><rect x="35" y="90" width="1" height="1" fill="rgb(0,88,243)"/><rect x="36" y="90" width="1" height="1" fill="rgb(0,71,228)"/><rect x="91" y="90" width="1" height="1" fill="rgb(0,71,228)"/><rect x="92" y="90" width="1" height="1" fill="rgb(0,88,243)"/><rect x="93" y="90" width="4" height="1" fill="rgb(17,114,251)"/><rect x="97" y="90" width="1" height="1" fill="rgb(0,88,243)"/><rect x="98" y="90" width="1" height="1" fill="rgb(0,71,228)"/><rect x="28" y="90" width="1" height="2" fill="rgb(0,88,243)"/><rect x="37" y="90" width="1" height="2" fill="rgb(0,88,243)"/><rect x="90" y="90" width="1" height="2" fill="rgb(0,88,243)"/><rect x="99" y="90" width="1" height="2" fill="rgb(0,88,243)"/><rect x="29" y="91" width="2" height="1" fill="rgb(0,71,228)"/><rect x="31" y="91" width="4" height="1" fill="rgb(0,53,212)"/><rect x="35" y="91" width="2" height="1" fill="rgb(0,71,228)"/><rect x="91" y="91" width="2" height="1" fill="rgb(0,71,228)"/><rect x="93" y="91" width="4" height="1" fill="rgb(0,53,212)"/><rect x="97" y="91" width="2" height="1" fill="rgb(0,71,228)"/><rect x="29" y="92" width="1" height="1" fill="rgb(0,88,243)"/><rect x="30" y="92" width="6" height="1" fill="rgb(0,71,228)"/><rect x="36" y="92" width="1" height="1" fill="rgb(0,88,243)"/><rect x="91" y="92" width="1" height="1" fill="rgb(0,88,243)"/><rect x="92" y="92" width="6" height="1" fill="rgb(0,71,228)"/><rect x="98" y="92" width="1" height="1" fill="rgb(0,88,243)"/><rect x="29" y="93" width="2" height="1" fill="rgb(44,131,251)"/><rect x="31" y="93" width="4" height="1" fill="rgb(0,88,243)"/><rect x="35" y="93" width="2" height="1" fill="rgb(44,131,251)"/><rect x="91" y="93" width="2" height="1" fill="rgb(44,131,251)"/><rect x="93" y="93" width="4" height="1" fill="rgb(0,88,243)"/><rect x="97" y="93" width="2" height="1" fill="rgb(44,131,251)"/><rect x="31" y="94" width="4" height="1" fill="rgb(44,131,251)"/><rect x="93" y="94" width="4" height="1" fill="rgb(44,131,251)"/><rect x="44" y="98" width="4" height="1" fill="rgb(44,131,251)"/><rect x="80" y="98" width="4" height="1" fill="rgb(44,131,251)"/><rect x="42" y="99" width="2" height="1" fill="rgb(44,131,251)"/><rect x="44" y="99" width="1" height="1" fill="rgb(71,155,251)"/><rect x="45" y="99" width="2" height="1" fill="rgb(97,179,251)"/><rect x="47" y="99" width="1" height="1" fill="rgb(71,155,251)"/><rect x="48" y="99" width="2" height="1" fill="rgb(44,131,251)"/><rect x="78" y="99" width="2" height="1" fill="rgb(44,131,251)"/><rect x="80" y="99" width="1" height="1" fill="rgb(71,155,251)"/><rect x="81" y="99" width="2" height="1" fill="rgb(97,179,251)"/><rect x="83" y="99" width="1" height="1" fill="rgb(71,155,251)"/><rect x="84" y="99" width="2" height="1" fill="rgb(44,131,251)"/><rect x="42" y="100" width="1" height="1" fill="rgb(44,131,251)"/><rect x="43" y="100" width="6" height="1" fill="rgb(71,155,251)"/><rect x="49" y="100" width="1" height="1" fill="rgb(44,131,251)"/><rect x="78" y="100" width="1" height="1" fill="rgb(44,131,251)"/><rect x="79" y="100" width="6" height="1" fill="rgb(71,155,251)"/><rect x="85" y="100" width="1" height="1" fill="rgb(44,131,251)"/><rect x="41" y="101" width="1" height="1" fill="rgb(0,88,243)"/><rect x="42" y="101" width="1" height="1" fill="rgb(17,114,251)"/><rect x="43" y="101" width="1" height="1" fill="rgb(44,131,251)"/><rect x="44" y="101" width="4" height="1" fill="rgb(71,155,251)"/><rect x="48" y="101" width="1" height="1" fill="rgb(44,131,251)"/><rect x="49" y="101" width="1" height="1" fill="rgb(17,114,251)"/><rect x="50" y="101" width="1" height="1" fill="rgb(0,88,243)"/><rect x="77" y="101" width="1" height="1" fill="rgb(0,88,243)"/><rect x="78" y="101" width="1" height="1" fill="rgb(17,114,251)"/><rect x="79" y="101" width="1" height="1" fill="rgb(44,131,251)"/><rect x="80" y="101" width="4" height="1" fill="rgb(71,155,251)"/><rect x="84" y="101" width="1" height="1" fill="rgb(44,131,251)"/><rect x="85" y="101" width="1" height="1" fill="rgb(17,114,251)"/><rect x="86" y="101" width="1" height="1" fill="rgb(0,88,243)"/><rect x="41" y="102" width="1" height="1" fill="rgb(0,71,228)"/><rect x="42" y="102" width="2" height="1" fill="rgb(17,114,251)"/><rect x="44" y="102" width="4" height="1" fill="rgb(44,131,251)"/><rect x="48" y="102" width="2" height="1" fill="rgb(17,114,251)"/><rect x="50" y="102" width="1" height="1" fill="rgb(0,71,228)"/><rect x="77" y="102" width="1" height="1" fill="rgb(0,71,228)"/><rect x="78" y="102" width="2" height="1" fill="rgb(17,114,251)"/><rect x="80" y="102" width="4" height="1" fill="rgb(44,131,251)"/><rect x="84" y="102" width="2" height="1" fill="rgb(17,114,251)"/><rect x="86" y="102" width="1" height="1" fill="rgb(0,71,228)"/><rect x="42" y="103" width="1" height="1" fill="rgb(0,71,228)"/><rect x="43" y="103" width="1" height="1" fill="rgb(0,88,243)"/><rect x="44" y="103" width="4" height="1" fill="rgb(17,114,251)"/><rect x="48" y="103" width="1" height="1" fill="rgb(0,88,243)"/><rect x="49" y="103" width="1" height="1" fill="rgb(0,71,228)"/><rect x="62" y="103" width="4" height="1" fill="rgb(44,131,251)"/><rect x="78" y="103" width="1" height="1" fill="rgb(0,71,228)"/><rect x="79" y="103" width="1" height="1" fill="rgb(0,88,243)"/><rect x="80" y="103" width="4" height="1" fill="rgb(17,114,251)"/><rect x="84" y="103" width="1" height="1" fill="rgb(0,88,243)"/><rect x="85" y="103" width="1" height="1" fill="rgb(0,71,228)"/><rect x="41" y="103" width="1" height="2" fill="rgb(0,88,243)"/><rect x="50" y="103" width="1" height="2" fill="rgb(0,88,243)"/><rect x="77" y="103" width="1" height="2" fill="rgb(0,88,243)"/><rect x="86" y="103" width="1" height="2" fill="rgb(0,88,243)"/><rect x="42" y="104" width="2" height="1" fill="rgb(0,71,228)"/><rect x="44" y="104" width="4" height="1" fill="rgb(0,53,212)"/><rect x="48" y="104" width="2" height="1" fill="rgb(0,71,228)"/><rect x="60" y="104" width="2" height="1" fill="rgb(44,131,251)"/><rect x="62" y="104" width="1" height="1" fill="rgb(71,155,251)"/><rect x="63" y="104" width="2" height="1" fill="rgb(97,179,251)"/><rect x="65" y="104" width="1" height="1" fill="rgb(71,155,251)"/><rect x="66" y="104" width="2" height="1" fill="rgb(44,131,251)"/><rect x="78" y="104" width="2" height="1" fill="rgb(0,71,228)"/><rect x="80" y="104" width="4" height="1" fill="rgb(0,53,212)"/><rect x="84" y="104" width="2" height="1" fill="rgb(0,71,228)"/><rect x="42" y="105" width="1" height="1" fill="rgb(0,88,243)"/><rect x="43" y="105" width="6" height="1" fill="rgb(0,71,228)"/><rect x="49" y="105" width="1" height="1" fill="rgb(0,88,243)"/><rect x="60" y="105" width="1" height="1" fill="rgb(44,131,251)"/><rect x="61" y="105" width="6" height="1" fill="rgb(71,155,251)"/><rect x="67" y="105" width="1" height="1" fill="rgb(44,131,251)"/><rect x="78" y="105" width="1" height="1" fill="rgb(0,88,243)"/><rect x="79" y="105" width="6" height="1" fill="rgb(0,71,228)"/><rect x="85" y="105" width="1" height="1" fill="rgb(0,88,243)"/><rect x="42" y="106" width="2" height="1" fill="rgb(44,131,251)"/><rect x="44" y="106" width="4" height="1" fill="rgb(0,88,243)"/><rect x="48" y="106" width="2" height="1" fill="rgb(44,131,251)"/><rect x="59" y="106" width="1" height="1" fill="rgb(0,88,243)"/><rect x="60" y="106" width="1" height="1" fill="rgb(17,114,251)"/><rect x="61" y="106" width="1" height="1" fill="rgb(44,131,251)"/><rect x="62" y="106" width="4" height="1" fill="rgb(71,155,251)"/><rect x="66" y="106" width="1" height="1" fill="rgb(44,131,251)"/><rect x="67" y="106" width="1" height="1" fill="rgb(17,114,251)"/><rect x="68" y="106" width="1" height="1" fill="rgb(0,88,243)"/><rect x="78" y="106" width="2" height="1" fill="rgb(44,131,251)"/><rect x="80" y="106" width="4" height="1" fill="rgb(0,88,243)"/><rect x="84" y="106" width="2" height="1" fill="rgb(44,131,251)"/><rect x="44" y="107" width="4" height="1" fill="rgb(44,131,251)"/><rect x="59" y="107" width="1" height="1" fill="rgb(0,71,228)"/><rect x="60" y="107" width="2" height="1" fill="rgb(17,114,251)"/><rect x="62" y="107" width="4" height="1" fill="rgb(44,131,251)"/><rect x="66" y="107" width="2" height="1" fill="rgb(17,114,251)"/><rect x="68" y="107" width="1" height="1" fill="rgb(0,71,228)"/><rect x="80" y="107" width="4" height="1" fill="rgb(44,131,251)"/><rect x="60" y="108" width="1" height="1" fill="rgb(0,71,228)"/><rect x="61" y="108" width="1" height="1" fill="rgb(0,88,243)"/><rect x="62" y="108" width="4" height="1" fill="rgb(17,114,251)"/><rect x="66" y="108" width="1" height="1" fill="rgb(0,88,243)"/><rect x="67" y="108" width="1" height="1" fill="rgb(0,71,228)"/><rect x="59" y="108" width="1" height="2" fill="rgb(0,88,243)"/><rect x="68" y="108" width="1" height="2" fill="rgb(0,88,243)"/><rect x="60" y="109" width="2" height="1" fill="rgb(0,71,228)"/><rect x="62" y="109" width="4" height="1" fill="rgb(0,53,212)"/><rect x="66" y="109" width="2" height="1" fill="rgb(0,71,228)"/><rect x="60" y="110" width="1" height="1" fill="rgb(0,88,243)"/><rect x="61" y="110" width="6" height="1" fill="rgb(0,71,228)"/><rect x="67" y="110" width="1" height="1" fill="rgb(0,88,243)"/><rect x="60" y="111" width="2" height="1" fill="rgb(44,131,251)"/><rect x="62" y="111" width="4" height="1" fill="rgb(0,88,243)"/><rect x="66" y="111" width="2" height="1" fill="rgb(44,131,251)"/><rect x="62" y="112" width="4" height="1" fill="rgb(44,131,251)"/></svg>