<svg xmlns="http://www.w3.org/2000/svg" width="128" height="144" viewBox="0 0 128 144"><rect x="64" y="22" width="4" height="1" fill="rgb(44,131,251)"/><rect x="63" y="23" width="2" height="1" fill="rgb(44,131,251)"/><rect x="65" y="23" width="2" height="1" fill="rgb(71,155,251)"/><rect x="67" y="23" width="2" height="1" fill="rgb(44,131,251)"/><rect x="63" y="24" width="2" height="1" fill="rgb(17,114,251)"/><rect x="65" y="24" width="2" height="1" fill="rgb(44,131,251)"/><rect x="67" y="24" width="2" height="1" fill="rgb(17,114,251)"/><rect x="63" y="25" width="1" height="1" fill="rgb(0,71,228)"/><rect x="64" y="25" width="4" height="1" fill="rgb(17,114,251)"/><rect x="68" y="25" width="1" height="1" fill="rgb(0,71,228)"/><rect x="63" y="26" width="1" height="1" fill="rgb(17,114,251)"/><rect x="64" y="26" width="1" height="1" fill="rgb(0,71,228)"/><rect x="65" y="26" width="2" height="1" fill="rgb(0,53,212)"/><rect x="67" y="26" width="1" height="1" fill="rgb(0,71,228)"/><rect x="68" y="26" width="1" height="1" fill="rgb(17,114,251)"/><rect x="64" y="27" width="1" height="1" fill="rgb(17,114,251)"/><rect x="65" y="27" width="2" height="1" fill="rgb(0,71,228)"/><rect x="67" y="27" width="1" height="1" fill="rgb(17,114,251)"/><rect x="41" y="28" width="2" height="2" fill="rgb(44,131,251)"/><rect x="40" y="29" width="1" height="1" fill="rgb(0,71,228)"/><rect x="43" y="29" width="1" height="1" fill="rgb(0,71,228)"/><rect x="40" y="30" width="1" height="1" fill="rgb(0,88,243)"/><rect x="41" y="30" width="2" height="1" fill="rgb(0,71,228)"/><rect x="43" y="30" width="1" height="1" fill="rgb(0,88,243)"/><rect x="88" y="30" width="4" height="1" fill="rgb(44,131,251)"/><rect x="41" y="31" width="2" height="1" fill="rgb(17,114,251)"/><rect x="87" y="31" width="2" height="1" fill="rgb(44,131,251)"/><rect x="89" y="31" width="2" height="1" fill="rgb(71,155,251)"/><rect x="91" y="31" width="2" height="1" fill="rgb(44,131,251)"/><rect x="87" y="32" width="2" height="1" fill="rgb(17,114,251)"/><rect x="89" y="32" width="2" height="1" fill="rgb(44,131,251)"/><rect x="91" y="32" width="2" height="1" fill="rgb(17,114,251)"/><rect x="87" y="33" width="1" height="1" fill="rgb(0,71,228)"/><rect x="88" y="33" width="4" height="1" fill="rgb(17,114,251)"/><rect x="92" y="33" width="1" height="1" fill="rgb(0,71,228)"/><rect x="87" y="34" width="1" height="1" fill="rgb(17,114,251)"/><rect x="88" y="34" width="1" height="1" fill="rgb(0,71,228)"/><rect x="89" y="34" width="2" height="1" fill="rgb(0,53,212)"/><rect x="91" y="34" width="1" height="1" fill="rgb(0,71,228)"/><rect x="92" y="34" width="1" height="1" fill="rgb(17,114,251)"/><rect x="88" y="35" width="1" height="1" fill="rgb(17,114,251)"/><rect x="89" y="35" width="2" height="1" fill="rgb(0,71,228)"/><rect x="91" y="35" width="1" height="1" fill="rgb(17,114,251)"/><rect x="23" y="43" width="4" height="1" fill="rgb(44,131,251)"/><rect x="22" y="44" width="2" height="1" fill="rgb(44,131,251)"/><rect x="24" y="44" width="2" height="1" fill="rgb(71,155,251)"/><rect x="26" y="44" width="2" height="1" fill="rgb(44,131,251)"/><rect x="22" y="45" width="2" height="1" fill="rgb(17,114,251)"/><rect x="24" y="45" width="2" height="1" fill="rgb(44,131,251)"/><rect x="26" y="45" width="2" height="1" fill="rgb(17,114,251)"/><rect x="22" y="46" width="1" height="1" fill="rgb(0,71,228)"/><rect x="23" y="46" width="4" height="1" fill="rgb(17,114,251)"/><rect x="27" y="46" width="1" height="1" fill="rgb(0,71,228)"/><rect x="104" y="46" width="4" height="1" fill="rgb(44,131,251)"/><rect x="22" y="47" width="1" height="1" fill="rgb(17,114,251)"/><rect x="23" y="47" width="1" height="1" fill="rgb(0,71,228)"/><rect x="24" y="47" width="2" height="1" fill="rgb(0,53,212)"/><rect x="26" y="47" width="1" height="1" fill="rgb(0,71,228)"/><rect x="27" y="47" width="1" height="1" fill="rgb(17,114,251)"/><rect x="103" y="47" width="1" height="1" fill="rgb(44,131,251)"/><rect x="104" y="47" width="1" height="1" fill="rgb(71,155,251)"/><rect x="105" y="47" width="2" height="1" fill="rgb(97,179,251)"/><rect x="107" y="47" width="1" height="1" fill="rgb(71,155,251)"/><rect x="108" y="47" width="1" height="1" fill="rgb(44,131,251)"/><rect x="23" y="48" width="1" height="1" fill="rgb(17,114,251)"/><rect x="24" y="48" width="2" height="1" fill="rgb(0,71,228)"/><rect x="26" y="48" width="1" height="1" fill="rgb(17,114,251)"/><rect x="102" y="48" width="2" height="1" fill="rgb(17,114,251)"/><rect x="104" y="48" width="1" height="1" fill="rgb(44,131,251)"/><rect x="105" y="48" width="2" height="1" fill="rgb(71,155,251)"/><rect x="107" y="48" width="1" height="1" fill="rgb(44,131,251)"/><rect x="108" y="48" width="2" height="1" fill="rgb(17,114,251)"/><rect x="103" y="49" width="2" height="1" fill="rgb(17,114,251)"/><rect x="105" y="49" width="2" height="1" fill="rgb(44,131,251)"/><rect x="107" y="49" width="2" height="1" fill="rgb(17,114,251)"/><rect x="102" y="49" width="1" height="2" fill="rgb(0,88,243)"/><rect x="109" y="49" width="1" height="2" fill="rgb(0,88,243)"/><rect x="103" y="50" width="1" height="1" fill="rgb(0,71,228)"/><rect x="104" y="50" width="4" height="1" fill="rgb(17,114,251)"/><rect x="108" y="50" width="1" height="1" fill="rgb(0,71,228)"/><rect x="102" y="51" width="1" height="1" fill="rgb(17,114,251)"/><rect x="103" y="51" width="1" height="1" fill="rgb(0,88,243)"/><rect x="104" y="51" width="1" height="1" fill="rgb(0,71,228)"/><rect x="105" y="51" width="2" height="1" fill="rgb(0,53,212)"/><rect x="107" y="51" width="1" height="1" fill="rgb(0,71,228)"/><rect x="108" y="51" width="1" height="1" fill="rgb(0,88,243)"/><rect x="109" y="51" width="1" height="1" fill="rgb(17,114,251)"/><rect x="103" y="52" width="1" height="1" fill="rgb(44,131,251)"/><rect x="104" y="52" width="1" height="1" fill="rgb(0,88,243)"/><rect x="105" y="52" width="2" height="1" fill="rgb(0,71,228)"/><rect x="107" y="52" width="1" height="1" fill="rgb(0,88,243)"/><rect x="108" y="52" width="1" height="1" fill="rgb(44,131,251)"/><rect x="104" y="53" width="4" height="1" fill="rgb(44,131,251)"/><rect x="15" y="66" width="4" height="1" fill="rgb(44,131,251)"/><rect x="14" y="67" width="1" height="1" fill="rgb(44,131,251)"/><rect x="15" y="67" width="1" height="1" fill="rgb(71,155,251)"/><rect x="16" y="67" width="2" height="1" fill="rgb(97,179,251)"/><rect x="18" y="67" width="1" height="1" fill="rgb(71,155,251)"/><rect x="19" y="67" width="1" height="1" fill="rgb(44,131,251)"/><rect x="13" y="68" width="2" height="1" fill="rgb(17,114,251)"/><rect x="15" y="68" width="1" height="1" fill="rgb(44,131,251)"/><rect x="16" y="68" width="2" height="1" fill="rgb(71,155,251)"/><rect x="18" y="68" width="1" height="1" fill="rgb(44,131,251)"/><rect x="19" y="68" width="2" height="1" fill="rgb(17,114,251)"/><rect x="14" y="69" width="2" height="1" fill="rgb(17,114,251)"/><rect x="16" y="69" width="2" height="1" fill="rgb(44,131,251)"/><rect x="18" y="69" width="2" height="1" fill="rgb(17,114,251)"/><rect x="109" y="69" width="4" height="1" fill="rgb(44,131,251)"/><rect x="13" y="69" width="1" height="2" fill="rgb(0,88,243)"/><rect x="20" y="69" width="1" height="2" fill="rgb(0,88,243)"/><rect x="14" y="70" width="1" height="1" fill="rgb(0,71,228)"/><rect x="15" y="70" width="4" height="1" fill="rgb(17,114,251)"/><rect x="19" y="70" width="1" height="1" fill="rgb(0,71,228)"/><rect x="107" y="70" width="2" height="1" fill="rgb(44,131,251)"/><rect x="109" y="70" width="1" height="1" fill="rgb(71,155,251)"/><rect x="110" y="70" width="2" height="1" fill="rgb(97,179,251)"/><rect x="112" y="70" width="1" height="1" fill="rgb(71,155,251)"/><rect x="113" y="70" width="2" height="1" fill="rgb(44,131,251)"/><rect x="13" y="71" width="1" height="1" fill="rgb(17,114,251)"/><rect x="14" y="71" width="1" height="1" fill="rgb(0,88,243)"/><rect x="15" y="71" width="1" height="1" fill="rgb(0,71,228)"/><rect x="16" y="71" width="2" height="1" fill="rgb(0,53,212)"/><rect x="18" y="71" width="1" height="1" fill="rgb(0,71,228)"/><rect x="19" y="71" width="1" height="1" fill="rgb(0,88,243)"/><rect x="20" y="71" width="1" height="1" fill="rgb(17,114,251)"/><rect x="107" y="71" width="1" height="1" fill="rgb(44,131,251)"/><rect x="108" y="71" width="6" height="1" fill="rgb(71,155,251)"/><rect x="114" y="71" width="1" height="1" fill="rgb(44,131,251)"/><rect x="14" y="72" width="1" height="1" fill="rgb(44,131,251)"/><rect x="15" y="72" width="1" height="1" fill="rgb(0,88,243)"/><rect x="16" y="72" width="2" height="1" fill="rgb(0,71,228)"/><rect x="18" y="72" width="1" height="1" fill="rgb(0,88,243)"/><rect x="19" y="72" width="1" height="1" fill="rgb(44,131,251)"/><rect x="106" y="72" width="1" height="1" fill="rgb(0,88,243)"/><rect x="107" y="72" width="1" height="1" fill="rgb(17,114,251)"/><rect x="108" y="72" width="1" height="1" fill="rgb(44,131,251)"/><rect x="109" y="72" width="4" height="1" fill="rgb(71,155,251)"/><rect x="113" y="72" width="1" height="1" fill="rgb(44,131,251)"/><rect x="114" y="72" width="1" height="1" fill="rgb(17,114,251)"/><rect x="115" y="72" width="1" height="1" fill="rgb(0,88,243)"/><rect x="15" y="73" width="4" height="1" fill="rgb(44,131,251)"/><rect x="106" y="73" width="1" height="1" fill="rgb(0,71,228)"/><rect x="107" y="73" width="2" height="1" fill="rgb(17,114,251)"/><rect x="109" y="73" width="4" height="1" fill="rgb(44,131,251)"/><rect x="113" y="73" width="2" height="1" fill="rgb(17,114,251)"/><rect x="115" y="73" width="1" height="1" fill="rgb(0,71,228)"/><rect x="107" y="74" width="1" height="1" fill="rgb(0,71,228)"/><rect x="108" y="74" width="1" height="1" fill="rgb(0,88,243)"/><rect x="109" y="74" width="4" height="1" fill="rgb(17,114,251)"/><rect x="113" y="74" width="1" height="1" fill="rgb(0,88,243)"/><rect x="114" y="74" width="1" height="1" fill="rgb(0,71,228)"/><rect x="106" y="74" width="1" height="2" fill="rgb(0,88,243)"/><rect x="115" y="74" width="1" height="2" fill="rgb(0,88,243)"/><rect x="107" y="75" width="2" height="1" fill="rgb(0,71,228)"/><rect x="109" y="75" width="4" height="1" fill="rgb(0,53,212)"/><rect x="113" y="75" width="2" height="1" fill="rgb(0,71,228)"/><rect x="107" y="76" width="1" height="1" fill="rgb(0,88,243)"/><rect x="108" y="76" width="6" height="1" fill="rgb(0,71,228)"/><rect x="114" y="76" width="1" height="1" fill="rgb(0,88,243)"/><rect x="107" y="77" width="2" height="1" fill="rgb(44,131,251)"/><rect x="109" y="77" width="4" height="1" fill="rgb(0,88,243)"/><rect x="113" y="77" width="2" height="1" fill="rgb(44,131,251)"/><rect x="109" y="78" width="4" height="1" fill="rgb(44,131,251)"/><rect x="20" y="89" width="4" height="1" fill="rgb(44,131,251)"/><rect x="18" y="90" width="2" height="1" fill="rgb(44,131,251)"/><rect x="20" y="90" width="1" height="1" fill="rgb(71,155,251)"/><rect x="21" y="90" width="2" height="1" fill="rgb(97,179,251)"/><rect x="23" y="90" width="1" height="1" fill="rgb(71,155,251)"/><rect x="24" y="90" width="2" height="1" fill="rgb(44,131,251)"/><rect x="18" y="91" width="1" height="1" fill="rgb(44,131,251)"/><rect x="19" y="91" width="6" height="1" fill="rgb(71,155,251)"/><rect x="25" y="91" width="1" height="1" fill="rgb(44,131,251)"/><rect x="17" y="92" width="1" height="1" fill="rgb(0,88,243)"/><rect x="18" y="92" width="1" height="1" fill="rgb(17,114,251)"/><rect x="19" y="92" width="1" height="1" fill="rgb(44,131,251)"/><rect x="20" y="92" width="4" height="1" fill="rgb(71,155,251)"/><rect x="24" y="92" width="1" height="1" fill="rgb(44,131,251)"/><rect x="25" y="92" width="1" height="1" fill="rgb(17,114,251)"/><rect x="26" y="92" width="1" height="1" fill="rgb(0,88,243)"/><rect x="101" y="92" width="4" height="1" fill="rgb(44,131,251)"/><rect x="17" y="93" width="1" height="1" fill="rgb(0,71,228)"/><rect x="18" y="93" width="2" height="1" fill="rgb(17,114,251)"/><rect x="20" y="93" width="4" height="1" fill="rgb(44,131,251)"/><rect x="24" y="93" width="2" height="1" fill="rgb(17,114,251)"/><rect x="26" y="93" width="1" height="1" fill="rgb(0,71,228)"/><rect x="99" y="93" width="2" height="1" fill="rgb(44,131,251)"/><rect x="101" y="93" width="4" height="1" fill="rgb(71,155,251)"/><rect x="105" y="93" width="2" height="1" fill="rgb(44,131,251)"/><rect x="18" y="94" width="1" height="1" fill="rgb(0,71,228)"/><rect x="19" y="94" width="1" height="1" fill="rgb(0,88,243)"/><rect x="20" y="94" width="4" height="1" fill="rgb(17,114,251)"/><rect x="24" y="94" width="1" height="1" fill="rgb(0,88,243)"/><rect x="25" y="94" width="1" height="1" fill="rgb(0,71,228)"/><rect x="98" y="94" width="2" height="1" fill="rgb(44,131,251)"/><rect x="100" y="94" width="1" height="1" fill="rgb(71,155,251)"/><rect x="101" y="94" width="4" height="1" fill="rgb(97,179,251)"/><rect x="105" y="94" width="1" height="1" fill="rgb(71,155,251)"/><rect x="106" y="94" width="2" height="1" fill="rgb(44,131,251)"/><rect x="17" y="94" width="1" height="2" fill="rgb(0,88,243)"/><rect x="26" y="94" width="1" height="2" fill="rgb(0,88,243)"/><rect x="18" y="95" width="2" height="1" fill="rgb(0,71,228)"/><rect x="20" y="95" width="4" height="1" fill="rgb(0,53,212)"/><rect x="24" y="95" width="2" height="1" fill="rgb(0,71,228)"/><rect x="98" y="95" width="1" height="1" fill="rgb(44,131,251)"/><rect x="99" y="95" width="8" height="1" fill="rgb(71,155,251)"/><rect x="107" y="95" width="1" height="1" fill="rgb(44,131,251)"/><rect x="18" y="96" width="1" height="1" fill="rgb(0,88,243)"/><rect x="19" y="96" width="6" height="1" fill="rgb(0,71,228)"/><rect x="25" y="96" width="1" height="1" fill="rgb(0,88,243)"/><rect x="99" y="96" width="1" height="1" fill="rgb(17,114,251)"/><rect x="100" y="96" width="1" height="1" fill="rgb(44,131,251)"/><rect x="101" y="96" width="4" height="1" fill="rgb(71,155,251)"/><rect x="105" y="96" width="1" height="1" fill="rgb(44,131,251)"/><rect x="106" y="96" width="1" height="1" fill="rgb(17,114,251)"/><rect x="98" y="96" width="1" height="2" fill="rgb(0,88,243)"/><rect x="107" y="96" width="1" height="2" fill="rgb(0,88,243)"/><rect x="18" y="97" width="2" height="1" fill="rgb(44,131,251)"/><rect x="20" y="97" width="4" height="1" fill="rgb(0,88,243)"/><rect x="24" y="97" width="2" height="1" fill="rgb(44,131,251)"/><rect x="99" y="97" width="2" height="1" fill="rgb(17,114,251)"/><rect x="101" y="97" width="4" height="1" fill="rgb(44,131,251)"/><rect x="105" y="97" width="2" height="1" fill="rgb(17,114,251)"/><rect x="20" y="98" width="4" height="1" fill="rgb(44,131,251)"/><rect x="98" y="98" width="1" height="1" fill="rgb(0,71,228)"/><rect x="99" y="98" width="2" height="1" fill="rgb(0,88,243)"/><rect x="101" y="98" width="4" height="1" fill="rgb(17,114,251)"/><rect x="105" y="98" width="2" height="1" fill="rgb(0,88,243)"/><rect x="107" y="98" width="1" height="1" fill="rgb(0,71,228)"/><rect x="97" y="96" width="1" height="4" fill="rgb(17,114,251)"/><rect x="108" y="96" width="1" height="4" fill="rgb(17,114,251)"/><rect x="98" y="99" width="1" height="1" fill="rgb(0,88,243)"/><rect x="99" y="99" width="1" height="1" fill="rgb(0,71,228)"/><rect x="100" y="99" width="1" height="1" fill="rgb(0,53,212)"/><rect x="101" y="99" width="1" height="1" fill="rgb(0,71,228)"/><rect x="102" y="99" width="2" height="1" fill="rgb(0,88,243)"/><rect x="104" y="99" width="1" height="1" fill="rgb(0,71,228)"/><rect x="105" y="99" width="1" height="1" fill="rgb(0,53,212)"/><rect x="106" y="99" width="1" height="1" fill="rgb(0,71,228)"/><rect x="107" y="99" width="1" height="1" fill="rgb(0,88,243)"/><rect x="99" y="100" width="1" height="1" fill="rgb(0,88,243)"/><rect x="100" y="100" width="1" height="1" fill="rgb(0,71,228)"/><rect x="101" y="100" width="1" height="1" fill="rgb(0,53,212)"/><rect x="102" y="100" width="2" height="1" fill="rgb(0,35,187)"/><rect x="104" y="100" width="1" height="1" fill="rgb(0,53,212)"/><rect x="105" y="100" width="1" height="1" fill="rgb(0,71,228)"/><rect x="106" y="100" width="1" height="1" fill="rgb(0,88,243)"/><rect x="98" y="100" width="1" height="2" fill="rgb(17,114,251)"/><rect x="107" y="100" width="1" height="2" fill="rgb(17,114,251)"/><rect x="99" y="101" width="2" height="1" fill="rgb(0,88,243)"/><rect x="101" y="101" width="4" height="1" fill="rgb(0,71,228)"/><rect x="105" y="101" width="2" height="1" fill="rgb(0,88,243)"/><rect x="99" y="102" width="1" height="1" fill="rgb(44,131,251)"/><rect x="100" y="102" width="6" height="1" fill="rgb(17,114,251)"/><rect x="106" y="102" width="1" height="1" fill="rgb(44,131,251)"/><rect x="101" y="103" width="4" height="1" fill="rgb(44,131,251)"/><rect x="36" y="105" width="4" height="1" fill="rgb(44,131,251)"/><rect x="34" y="106" width="2" height="1" fill="rgb(44,131,251)"/><rect x="36" y="106" width="4" height="1" fill="rgb(71,155,251)"/><rect x="40" y="106" width="2" height="1" fill="rgb(44,131,251)"/><rect x="33" y="107" width="2" height="1" fill="rgb(44,131,251)"/><rect x="35" y="107" width="1" height="1" fill="rgb(71,155,251)"/><rect x="36" y="107" width="4" height="1" fill="rgb(97,179,251)"/><rect x="40" y="107" width="1" height="1" fill="rgb(71,155,251)"/><rect x="41" y="107" width="2" height="1" fill="rgb(44,131,251)"/><rect x="33" y="108" width="1" height="1" fill="rgb(44,131,251)"/><rect x="34" y="108" width="8" height="1" fill="rgb(71,155,251)"/><rect x="42" y="108" width="1" height="1" fill="rgb(44,131,251)"/><rect x="84" y="108" width="4" height="1" fill="rgb(44,131,251)"/><rect x="34" y="109" width="1" height="1" fill="rgb(17,114,251)"/><rect x="35" y="109" width="1" height="1" fill="rgb(44,131,251)"/><rect x="36" y="109" width="4" height="1" fill="rgb(71,155,251)"/><rect x="40" y="109" width="1" height="1" fill="rgb(44,131,251)"/><rect x="41" y="109" width="1" height="1" fill="rgb(17,114,251)"/><rect x="82" y="109" width="2" height="1" fill="rgb(44,131,251)"/><rect x="84" y="109" width="4" height="1" fill="rgb(71,155,251)"/><rect x="88" y="109" width="2" height="1" fill="rgb(44,131,251)"/><rect x="33" y="109" width="1" height="2" fill="rgb(0,88,243)"/><rect x="42" y="109" width="1" height="2" fill="rgb(0,88,243)"/><rect x="34" y="110" width="2" height="1" fill="rgb(17,114,251)"/><rect x="36" y="110" width="4" height="1" fill="rgb(44,131,251)"/><rect x="40" y="110" width="2" height="1" fill="rgb(17,114,251)"/><rect x="81" y="110" width="2" height="1" fill="rgb(44,131,251)"/><rect x="83" y="110" width="1" height="1" fill="rgb(71,155,251)"/><rect x="84" y="110" width="4" height="1" fill="rgb(97,179,251)"/><rect x="88" y="110" width="1" height="1" fill="rgb(71,155,251)"/><rect x="89" y="110" width="2" height="1" fill="rgb(44,131,251)"/><rect x="33" y="111" width="1" height="1" fill="rgb(0,71,228)"/><rect x="34" y="111" width="2" height="1" fill="rgb(0,88,243)"/><rect x="36" y="111" width="4" height="1" fill="rgb(17,114,251)"/><rect x="40" y="111" width="2" height="1" fill="rgb(0,88,243)"/><rect x="42" y="111" width="1" height="1" fill="rgb(0,71,228)"/><rect x="81" y="111" width="1" height="1" fill="rgb(44,131,251)"/><rect x="82" y="111" width="8" height="1" fill="rgb(71,155,251)"/><rect x="90" y="111" width="1" height="1" fill="rgb(44,131,251)"/><rect x="32" y="109" width="1" height="4" fill="rgb(17,114,251)"/><rect x="43" y="109" width="1" height="4" fill="rgb(17,114,251)"/><rect x="33" y="112" width="1" height="1" fill="rgb(0,88,243)"/><rect x="34" y="112" width="1" height="1" fill="rgb(0,71,228)"/><rect x="35" y="112" width="1" height="1" fill="rgb(0,53,212)"/><rect x="36" y="112" width="1" height="1" fill="rgb(0,71,228)"/><rect x="37" y="112" width="2" height="1" fill="rgb(0,88,243)"/><rect x="39" y="112" width="1" height="1" fill="rgb(0,71,228)"/><rect x="40" y="112" width="1" height="1" fill="rgb(0,53,212)"/><rect x="41" y="112" width="1" height="1" fill="rgb(0,71,228)"/><rect x="42" y="112" width="1" height="1" fill="rgb(0,88,243)"/><rect x="82" y="112" width="1" height="1" fill="rgb(17,114,251)"/><rect x="83" y="112" width="1" height="1" fill="rgb(44,131,251)"/><rect x="84" y="112" width="4" height="1" fill="rgb(71,155,251)"/><rect x="88" y="112" width="1" height="1" fill="rgb(44,131,251)"/><rect x="89" y="112" width="1" height="1" fill="rgb(17,114,251)"/><rect x="81" y="112" width="1" height="2" fill="rgb(0,88,243)"/><rect x="90" y="112" width="1" height="2" fill="rgb(0,88,243)"/><rect x="34" y="113" width="1" height="1" fill="rgb(0,88,243)"/><rect x="35" y="113" width="1" height="1" fill="rgb(0,71,228)"/><rect x="36" y="113" width="1" height="1" fill="rgb(0,53,212)"/><rect x="37" y="113" width="2" height="1" fill="rgb(0,35,187)"/><rect x="39" y="113" width="1" height="1" fill="rgb(0,53,212)"/><rect x="40" y="113" width="1" height="1" fill="rgb(0,71,228)"/><rect x="41" y="113" width="1" height="1" fill="rgb(0,88,243)"/><rect x="60" y="113" width="4" height="1" fill="rgb(44,131,251)"/><rect x="82" y="113" width="2" height="1" fill="rgb(17,114,251)"/><rect x="84" y="113" width="4" height="1" fill="rgb(44,131,251)"/><rect x="88" y="113" width="2" height="1" fill="rgb(17,114,251)"/><rect x="33" y="113" width="1" height="2" fill="rgb(17,114,251)"/><rect x="42" y="113" width="1" height="2" fill="rgb(17,114,251)"/><rect x="34" y="114" width="2" height="1" fill="rgb(0,88,243)"/><rect x="36" y="114" width="4" height="1" fill="rgb(0,71,228)"/><rect x="40" y="114" width="2" height="1" fill="rgb(0,88,243)"/><rect x="58" y="114" width="2" height="1" fill="rgb(44,131,251)"/><rect x="60" y="114" width="4" height="1" fill="rgb(71,155,251)"/><rect x="64" y="114" width="2" height="1" fill="rgb(44,131,251)"/><rect x="81" y="114" width="1" height="1" fill="rgb(0,71,228)"/><rect x="82" y="114" width="2" height="1" fill="rgb(0,88,243)"/><rect x="84" y="114" width="4" height="1" fill="rgb(17,114,251)"/><rect x="88" y="114" width="2" height="1" fill="rgb(0,88,243)"/><rect x="90" y="114" width="1" height="1" fill="rgb(0,71,228)"/><rect x="80" y="112" width="1" height="4" fill="rgb(17,114,251)"/><rect x="91" y="112" width="1" height="4" fill="rgb(17,114,251)"/><rect x="34" y="115" width="1" height="1" fill="rgb(44,131,251)"/><rect x="35" y="115" width="6" height="1" fill="rgb(17,114,251)"/><rect x="41" y="115" width="1" height="1" fill="rgb(44,131,251)"/><rect x="57" y="115" width="2" height="1" fill="rgb(44,131,251)"/><rect x="59" y="115" width="1" height="1" fill="rgb(71,155,251)"/><rect x="60" y="115" width="4" height="1" fill="rgb(97,179,251)"/><rect x="64" y="115" width="1" height="1" fill="rgb(71,155,251)"/><rect x="65" y="115" width="2" height="1" fill="rgb(44,131,251)"/><rect x="81" y="115" width="1" height="1" fill="rgb(0,88,243)"/><rect x="82" y="115" width="1" height="1" fill="rgb(0,71,228)"/><rect x="83" y="115" width="1" height="1" fill="rgb(0,53,212)"/><rect x="84" y="115" width="1" height="1" fill="rgb(0,71,228)"/><rect x="85" y="115" width="2" height="1" fill="rgb(0,88,243)"/><rect x="87" y="115" width="1" height="1" fill="rgb(0,71,228)"/><rect x="88" y="115" width="1" height="1" fill="rgb(0,53,212)"/><rect x="89" y="115" width="1" height="1" fill="rgb(0,71,228)"/><rect x="90" y="115" width="1" height="1" fill="rgb(0,88,243)"/><rect x="36" y="116" width="4" height="1" fill="rgb(44,131,251)"/><rect x="57" y="116" width="1" height="1" fill="rgb(44,131,251)"/><rect x="58" y="116" width="8" height="1" fill="rgb(71,155,251)"/><rect x="66" y="116" width="1" height="1" fill="rgb(44,131,251)"/><rect x="82" y="116" width="1" height="1" fill="rgb(0,88,243)"/><rect x="83" y="116" width="1" height="1" fill="rgb(0,71,228)"/><rect x="84" y="116" width="1" height="1" fill="rgb(0,53,212)"/><rect x="85" y="116" width="2" height="1" fill="rgb(0,35,187)"/><rect x="87" y="116" width="1" height="1" fill="rgb(0,53,212)"/><rect x="88" y="116" width="1" height="1" fill="rgb(0,71,228)"/><rect x="89" y="116" width="1" height="1" fill="rgb(0,88,243)"/><rect x="81" y="116" width="1" height="2" fill="rgb(17,114,251)"/><rect x="90" y="116" width="1" height="2" fill="rgb(17,114,251)"/><rect x="58" y="117" width="1" height="1" fill="rgb(17,114,251)"/><rect x="59" y="117" width="1" height="1" fill="rgb(44,131,251)"/><rect x="60" y="117" width="4" height="1" fill="rgb(71,155,251)"/><rect x="64" y="117" width="1" height="1" fill="rgb(44,131,251)"/><rect x="65" y="117" width="1" height="1" fill="rgb(17,114,251)"/><rect x="82" y="117" width="2" height="1" fill="rgb(0,88,243)"/><rect x="84" y="117" width="4" height="1" fill="rgb(0,71,228)"/><rect x="88" y="117" width="2" height="1" fill="rgb(0,88,243)"/><rect x="57" y="117" width="1" height="2" fill="rgb(0,88,243)"/><rect x="66" y="117" width="1" height="2" fill="rgb(0,88,243)"/><rect x="58" y="118" width="2" height="1" fill="rgb(17,114,251)"/><rect x="60" y="118" width="4" height="1" fill="rgb(44,131,251)"/><rect x="64" y="118" width="2" height="1" fill="rgb(17,114,251)"/><rect x="82" y="118" width="1" height="1" fill="rgb(44,131,251)"/><rect x="83" y="118" width="6" height="1" fill="rgb(17,114,251)"/><rect x="89" y="118" width="1" height="1" fill="rgb(44,131,251)"/><rect x="57" y="119" width="1" height="1" fill="rgb(0,71,228)"/><rect x="58" y="119" width="2" height="1" fill="rgb(0,88,243)"/><rect x="60" y="119" width="4" height="1" fill="rgb(17,114,251)"/><rect x="64" y="119" width="2" height="1" fill="rgb(0,88,243)"/><rect x="66" y="119" width="1" height="1" fill="rgb(0,71,228)"/><rect x="84" y="119" width="4" height="1" fill="rgb(44,131,251)"/><rect x="56" y="117" width="1" height="4" fill="rgb(17,114,251)"/><rect x="67" y="117" width="1" height="4" fill="rgb(17,114,251)"/><rect x="57" y="120" width="1" height="1" fill="rgb(0,88,243)"/><rect x="58" y="120" width="1" height="1" fill="rgb(0,71,228)"/><rect x="59" y="120" width="1" height="1" fill="rgb(0,53,212)"/><rect x="60" y="120" width="1" height="1" fill="rgb(0,71,228)"/><rect x="61" y="120" width="2" height="1" fill="rgb(0,88,243)"/><rect x="63" y="120" width="1" height="1" fill="rgb(0,71,228)"/><rect x="64" y="120" width="1" height="1" fill="rgb(0,53,212)"/><rect x="65" y="120" width="1" height="1" fill="rgb(0,71,228)"/><rect x="66" y="120" width="1" height="1" fill="rgb(0,88,243)"/><rect x="58" y="121" width="1" height="1" fill="rgb(0,88,243)"/><rect x="59" y="121" width="1" height="1" fill="rgb(0,71,228)"/><rect x="60" y="121" width="1" height="1" fill="rgb(0,53,212)"/><rect x="61" y="121" width="2" height="1" fill="rgb(0,35,187)"/><rect x="63" y="121" width="1" height="1" fill="rgb(0,53,212)"/><rect x="64" y="121" width="1" height="1" fill="rgb(0,71,228)"/><rect x="65" y="121" width="1" height="1" fill="rgb(0,88,243)"/><rect x="57" y="121" width="1" height="2" fill="rgb(17,114,251)"/><rect x="66" y="121" width="1" height="2" fill="rgb(17,114,251)"/><rect x="58" y="122" width="2" height="1" fill="rgb(0,88,243)"/><rect x="60" y="122" width="4" height="1" fill="rgb(0,71,228)"/><rect x="64" y="122" width="2" height="1" fill="rgb(0,88,243)"/><rect x="58" y="123" width="1" height="1" fill="rgb(44,131,251)"/><rect x="59" y="123" width="6" height="1" fill="rgb(17,114,251)"/><rect x="65" y="123" width="1" height="1" fill="rgb(44,131,251)"/><rect x="60" y="124" width="4" height="1" fill="rgb(44,131,251)"/></svg>