<svg xmlns="http://www.w3.org/2000/svg" width="128" height="144" viewBox="0 0 128 144"><rect x="107" y="73" width="4" height="1" fill="rgb(44,131,251)"/><rect x="106" y="74" width="2" height="1" fill="rgb(44,131,251)"/><rect x="108" y="74" width="2" height="1" fill="rgb(71,155,251)"/><rect x="110" y="74" width="2" height="1" fill="rgb(44,131,251)"/><rect x="106" y="75" width="2" height="1" fill="rgb(17,114,251)"/><rect x="108" y="75" width="2" height="1" fill="rgb(44,131,251)"/><rect x="110" y="75" width="2" height="1" fill="rgb(17,114,251)"/><rect x="106" y="76" width="1" height="1" fill="rgb(0,71,228)"/><rect x="107" y="76" width="4" height="1" fill="rgb(17,114,251)"/><rect x="111" y="76" width="1" height="1" fill="rgb(0,71,228)"/><rect x="106" y="77" width="1" height="1" fill="rgb(17,114,251)"/><rect x="107" y="77" width="1" height="1" fill="rgb(0,71,228)"/><rect x="108" y="77" width="2" height="1" fill="rgb(0,53,212)"/><rect x="110" y="77" width="1" height="1" fill="rgb(0,71,228)"/><rect x="111" y="77" width="1" height="1" fill="rgb(17,114,251)"/><rect x="107" y="78" width="1" height="1" fill="rgb(17,114,251)"/><rect x="108" y="78" width="2" height="1" fill="rgb(0,71,228)"/><rect x="110" y="78" width="1" height="1" fill="rgb(17,114,251)"/><rect x="97" y="92" width="4" height="1" fill="rgb(44,131,251)"/><rect x="96" y="93" width="1" height="1" fill="rgb(44,131,251)"/><rect x="97" y="93" width="1" height="1" fill="rgb(71,155,251)"/><rect x="98" y="93" width="2" height="1" fill="rgb(97,179,251)"/><rect x="100" y="93" width="1" height="1" fill="rgb(71,155,251)"/><rect x="101" y="93" width="1" height="1" fill="rgb(44,131,251)"/><rect x="95" y="94" width="2" height="1" fill="rgb(17,114,251)"/><rect x="97" y="94" width="1" height="1" fill="rgb(44,131,251)"/><rect x="98" y="94" width="2" height="1" fill="rgb(71,155,251)"/><rect x="100" y="94" width="1" height="1" fill="rgb(44,131,251)"/><rect x="101" y="94" width="2" height="1" fill="rgb(17,114,251)"/><rect x="96" y="95" width="2" height="1" fill="rgb(17,114,251)"/><rect x="98" y="95" width="2" height="1" fill="rgb(44,131,251)"/><rect x="100" y="95" width="2" height="1" fill="rgb(17,114,251)"/><rect x="95" y="95" width="1" height="2" fill="rgb(0,88,243)"/><rect x="102" y="95" width="1" height="2" fill="rgb(0,88,243)"/><rect x="96" y="96" width="1" height="1" fill="rgb(0,71,228)"/><rect x="97" y="96" width="4" height="1" fill="rgb(17,114,251)"/><rect x="101" y="96" width="1" height="1" fill="rgb(0,71,228)"/><rect x="30" y="96" width="2" height="2" fill="rgb(44,131,251)"/><rect x="29" y="97" width="1" height="1" fill="rgb(0,71,228)"/><rect x="32" y="97" width="1" height="1" fill="rgb(0,71,228)"/><rect x="95" y="97" width="1" height="1" fill="rgb(17,114,251)"/><rect x="96" y="97" width="1" height="1" fill="rgb(0,88,243)"/><rect x="97" y="97" width="1" height="1" fill="rgb(0,71,228)"/><rect x="98" y="97" width="2" height="1" fill="rgb(0,53,212)"/><rect x="100" y="97" width="1" height="1" fill="rgb(0,71,228)"/><rect x="101" y="97" width="1" height="1" fill="rgb(0,88,243)"/><rect x="102" y="97" width="1" height="1" fill="rgb(17,114,251)"/><rect x="29" y="98" width="1" height="1" fill="rgb(0,88,243)"/><rect x="30" y="98" width="2" height="1" fill="rgb(0,71,228)"/><rect x="32" y="98" width="1" height="1" fill="rgb(0,88,243)"/><rect x="96" y="98" width="1" height="1" fill="rgb(44,131,251)"/><rect x="97" y="98" width="1" height="1" fill="rgb(0,88,243)"/><rect x="98" y="98" width="2" height="1" fill="rgb(0,71,228)"/><rect x="100" y="98" width="1" height="1" fill="rgb(0,88,243)"/><rect x="101" y="98" width="1" height="1" fill="rgb(44,131,251)"/><rect x="30" y="99" width="2" height="1" fill="rgb(17,114,251)"/><rect x="97" y="99" width="4" height="1" fill="rgb(44,131,251)"/><rect x="76" y="105" width="4" height="1" fill="rgb(44,131,251)"/><rect x="50" y="106" width="4" height="1" fill="rgb(44,131,251)"/><rect x="75" y="106" width="1" height="1" fill="rgb(44,131,251)"/><rect x="76" y="106" width="1" height="1" fill="rgb(71,155,251)"/><rect x="77" y="106" width="2" height="1" fill="rgb(97,179,251)"/><rect x="79" y="106" width="1" height="1" fill="rgb(71,155,251)"/><rect x="80" y="106" width="1" height="1" fill="rgb(44,131,251)"/><rect x="49" y="107" width="2" height="1" fill="rgb(44,131,251)"/><rect x="51" y="107" width="2" height="1" fill="rgb(71,155,251)"/><rect x="53" y="107" width="2" height="1" fill="rgb(44,131,251)"/><rect x="74" y="107" width="2" height="1" fill="rgb(17,114,251)"/><rect x="76" y="107" width="1" height="1" fill="rgb(44,131,251)"/><rect x="77" y="107" width="2" height="1" fill="rgb(71,155,251)"/><rect x="79" y="107" width="1" height="1" fill="rgb(44,131,251)"/><rect x="80" y="107" width="2" height="1" fill="rgb(17,114,251)"/><rect x="49" y="108" width="2" height="1" fill="rgb(17,114,251)"/><rect x="51" y="108" width="2" height="1" fill="rgb(44,131,251)"/><rect x="53" y="108" width="2" height="1" fill="rgb(17,114,251)"/><rect x="75" y="108" width="2" height="1" fill="rgb(17,114,251)"/><rect x="77" y="108" width="2" height="1" fill="rgb(44,131,251)"/><rect x="79" y="108" width="2" height="1" fill="rgb(17,114,251)"/><rect x="74" y="108" width="1" height="2" fill="rgb(0,88,243)"/><rect x="81" y="108" width="1" height="2" fill="rgb(0,88,243)"/><rect x="49" y="109" width="1" height="1" fill="rgb(0,71,228)"/><rect x="50" y="109" width="4" height="1" fill="rgb(17,114,251)"/><rect x="54" y="109" width="1" height="1" fill="rgb(0,71,228)"/><rect x="75" y="109" width="1" height="1" fill="rgb(0,71,228)"/><rect x="76" y="109" width="4" height="1" fill="rgb(17,114,251)"/><rect x="80" y="109" width="1" height="1" fill="rgb(0,71,228)"/><rect x="49" y="110" width="1" height="1" fill="rgb(17,114,251)"/><rect x="50" y="110" width="1" height="1" fill="rgb(0,71,228)"/><rect x="51" y="110" width="2" height="1" fill="rgb(0,53,212)"/><rect x="53" y="110" width="1" height="1" fill="rgb(0,71,228)"/><rect x="54" y="110" width="1" height="1" fill="rgb(17,114,251)"/><rect x="74" y="110" width="1" height="1" fill="rgb(17,114,251)"/><rect x="75" y="110" width="1" height="1" fill="rgb(0,88,243)"/><rect x="76" y="110" width="1" height="1" fill="rgb(0,71,228)"/><rect x="77" y="110" width="2" height="1" fill="rgb(0,53,212)"/><rect x="79" y="110" width="1" height="1" fill="rgb(0,71,228)"/><rect x="80" y="110" width="1" height="1" fill="rgb(0,88,243)"/><rect x="81" y="110" width="1" height="1" fill="rgb(17,114,251)"/><rect x="50" y="111" width="1" height="1" fill="rgb(17,114,251)"/><rect x="51" y="111" width="2" height="1" fill="rgb(0,71,228)"/><rect x="53" y="111" width="1" height="1" fill="rgb(17,114,251)"/><rect x="75" y="111" width="1" height="1" fill="rgb(44,131,251)"/><rect x="76" y="111" width="1" height="1" fill="rgb(0,88,243)"/><rect x="77" y="111" width="2" height="1" fill="rgb(0,71,228)"/><rect x="79" y="111" width="1" height="1" fill="rgb(0,88,243)"/><rect x="80" y="111" width="1" height="1" fill="rgb(44,131,251)"/><rect x="76" y="112" width="4" height="1" fill="rgb(44,131,251)"/></svg>