<svg xmlns="http://www.w3.org/2000/svg" width="128" height="144" viewBox="0 0 128 144"><rect x="52" y="22" width="4" height="1" fill="rgb(44,131,251)"/><rect x="51" y="23" width="1" height="1" fill="rgb(44,131,251)"/><rect x="52" y="23" width="1" height="1" fill="rgb(71,155,251)"/><rect x="53" y="23" width="2" height="1" fill="rgb(97,179,251)"/><rect x="55" y="23" width="1" height="1" fill="rgb(71,155,251)"/><rect x="56" y="23" width="1" height="1" fill="rgb(44,131,251)"/><rect x="50" y="24" width="2" height="1" fill="rgb(17,114,251)"/><rect x="52" y="24" width="1" height="1" fill="rgb(44,131,251)"/><rect x="53" y="24" width="2" height="1" fill="rgb(71,155,251)"/><rect x="55" y="24" width="1" height="1" fill="rgb(44,131,251)"/><rect x="56" y="24" width="2" height="1" fill="rgb(17,114,251)"/><rect x="78" y="24" width="4" height="1" fill="rgb(44,131,251)"/><rect x="51" y="25" width="2" height="1" fill="rgb(17,114,251)"/><rect x="53" y="25" width="2" height="1" fill="rgb(44,131,251)"/><rect x="55" y="25" width="2" height="1" fill="rgb(17,114,251)"/><rect x="77" y="25" width="1" height="1" fill="rgb(44,131,251)"/><rect x="78" y="25" width="1" height="1" fill="rgb(71,155,251)"/><rect x="79" y="25" width="2" height="1" fill="rgb(97,179,251)"/><rect x="81" y="25" width="1" height="1" fill="rgb(71,155,251)"/><rect x="82" y="25" width="1" height="1" fill="rgb(44,131,251)"/><rect x="50" y="25" width="1" height="2" fill="rgb(0,88,243)"/><rect x="57" y="25" width="1" height="2" fill="rgb(0,88,243)"/><rect x="51" y="26" width="1" height="1" fill="rgb(0,71,228)"/><rect x="52" y="26" width="4" height="1" fill="rgb(17,114,251)"/><rect x="56" y="26" width="1" height="1" fill="rgb(0,71,228)"/><rect x="76" y="26" width="2" height="1" fill="rgb(17,114,251)"/><rect x="78" y="26" width="1" height="1" fill="rgb(44,131,251)"/><rect x="79" y="26" width="2" height="1" fill="rgb(71,155,251)"/><rect x="81" y="26" width="1" height="1" fill="rgb(44,131,251)"/><rect x="82" y="26" width="2" height="1" fill="rgb(17,114,251)"/><rect x="50" y="27" width="1" height="1" fill="rgb(17,114,251)"/><rect x="51" y="27" width="1" height="1" fill="rgb(0,88,243)"/><rect x="52" y="27" width="1" height="1" fill="rgb(0,71,228)"/><rect x="53" y="27" width="2" height="1" fill="rgb(0,53,212)"/><rect x="55" y="27" width="1" height="1" fill="rgb(0,71,228)"/><rect x="56" y="27" width="1" height="1" fill="rgb(0,88,243)"/><rect x="57" y="27" width="1" height="1" fill="rgb(17,114,251)"/><rect x="77" y="27" width="2" height="1" fill="rgb(17,114,251)"/><rect x="79" y="27" width="2" height="1" fill="rgb(44,131,251)"/><rect x="81" y="27" width="2" height="1" fill="rgb(17,114,251)"/><rect x="76" y="27" width="1" height="2" fill="rgb(0,88,243)"/><rect x="83" y="27" width="1" height="2" fill="rgb(0,88,243)"/><rect x="51" y="28" width="1" height="1" fill="rgb(44,131,251)"/><rect x="52" y="28" width="1" height="1" fill="rgb(0,88,243)"/><rect x="53" y="28" width="2" height="1" fill="rgb(0,71,228)"/><rect x="55" y="28" width="1" height="1" fill="rgb(0,88,243)"/><rect x="56" y="28" width="1" height="1" fill="rgb(44,131,251)"/><rect x="77" y="28" width="1" height="1" fill="rgb(0,71,228)"/><rect x="78" y="28" width="4" height="1" fill="rgb(17,114,251)"/><rect x="82" y="28" width="1" height="1" fill="rgb(0,71,228)"/><rect x="52" y="29" width="4" height="1" fill="rgb(44,131,251)"/><rect x="76" y="29" width="1" height="1" fill="rgb(17,114,251)"/><rect x="77" y="29" width="1" height="1" fill="rgb(0,88,243)"/><rect x="78" y="29" width="1" height="1" fill="rgb(0,71,228)"/><rect x="79" y="29" width="2" height="1" fill="rgb(0,53,212)"/><rect x="81" y="29" width="1" height="1" fill="rgb(0,71,228)"/><rect x="82" y="29" width="1" height="1" fill="rgb(0,88,243)"/><rect x="83" y="29" width="1" height="1" fill="rgb(17,114,251)"/><rect x="77" y="30" width="1" height="1" fill="rgb(44,131,251)"/><rect x="78" y="30" width="1" height="1" fill="rgb(0,88,243)"/><rect x="79" y="30" width="2" height="1" fill="rgb(0,71,228)"/><rect x="81" y="30" width="1" height="1" fill="rgb(0,88,243)"/><rect x="82" y="30" width="1" height="1" fill="rgb(44,131,251)"/><rect x="78" y="31" width="4" height="1" fill="rgb(44,131,251)"/><rect x="31" y="33" width="4" height="1" fill="rgb(44,131,251)"/><rect x="30" y="34" width="1" height="1" fill="rgb(44,131,251)"/><rect x="31" y="34" width="1" height="1" fill="rgb(71,155,251)"/><rect x="32" y="34" width="2" height="1" fill="rgb(97,179,251)"/><rect x="34" y="34" width="1" height="1" fill="rgb(71,155,251)"/><rect x="35" y="34" width="1" height="1" fill="rgb(44,131,251)"/><rect x="29" y="35" width="2" height="1" fill="rgb(17,114,251)"/><rect x="31" y="35" width="1" height="1" fill="rgb(44,131,251)"/><rect x="32" y="35" width="2" height="1" fill="rgb(71,155,251)"/><rect x="34" y="35" width="1" height="1" fill="rgb(44,131,251)"/><rect x="35" y="35" width="2" height="1" fill="rgb(17,114,251)"/><rect x="30" y="36" width="2" height="1" fill="rgb(17,114,251)"/><rect x="32" y="36" width="2" height="1" fill="rgb(44,131,251)"/><rect x="34" y="36" width="2" height="1" fill="rgb(17,114,251)"/><rect x="29" y="36" width="1" height="2" fill="rgb(0,88,243)"/><rect x="36" y="36" width="1" height="2" fill="rgb(0,88,243)"/><rect x="30" y="37" width="1" height="1" fill="rgb(0,71,228)"/><rect x="31" y="37" width="4" height="1" fill="rgb(17,114,251)"/><rect x="35" y="37" width="1" height="1" fill="rgb(0,71,228)"/><rect x="97" y="37" width="4" height="1" fill="rgb(44,131,251)"/><rect x="29" y="38" width="1" height="1" fill="rgb(17,114,251)"/><rect x="30" y="38" width="1" height="1" fill="rgb(0,88,243)"/><rect x="31" y="38" width="1" height="1" fill="rgb(0,71,228)"/><rect x="32" y="38" width="2" height="1" fill="rgb(0,53,212)"/><rect x="34" y="38" width="1" height="1" fill="rgb(0,71,228)"/><rect x="35" y="38" width="1" height="1" fill="rgb(0,88,243)"/><rect x="36" y="38" width="1" height="1" fill="rgb(17,114,251)"/><rect x="96" y="38" width="1" height="1" fill="rgb(44,131,251)"/><rect x="97" y="38" width="1" height="1" fill="rgb(71,155,251)"/><rect x="98" y="38" width="2" height="1" fill="rgb(97,179,251)"/><rect x="100" y="38" width="1" height="1" fill="rgb(71,155,251)"/><rect x="101" y="38" width="1" height="1" fill="rgb(44,131,251)"/><rect x="30" y="39" width="1" height="1" fill="rgb(44,131,251)"/><rect x="31" y="39" width="1" height="1" fill="rgb(0,88,243)"/><rect x="32" y="39" width="2" height="1" fill="rgb(0,71,228)"/><rect x="34" y="39" width="1" height="1" fill="rgb(0,88,243)"/><rect x="35" y="39" width="1" height="1" fill="rgb(44,131,251)"/><rect x="95" y="39" width="2" height="1" fill="rgb(17,114,251)"/><rect x="97" y="39" width="1" height="1" fill="rgb(44,131,251)"/><rect x="98" y="39" width="2" height="1" fill="rgb(71,155,251)"/><rect x="100" y="39" width="1" height="1" fill="rgb(44,131,251)"/><rect x="101" y="39" width="2" height="1" fill="rgb(17,114,251)"/><rect x="31" y="40" width="4" height="1" fill="rgb(44,131,251)"/><rect x="96" y="40" width="2" height="1" fill="rgb(17,114,251)"/><rect x="98" y="40" width="2" height="1" fill="rgb(44,131,251)"/><rect x="100" y="40" width="2" height="1" fill="rgb(17,114,251)"/><rect x="95" y="40" width="1" height="2" fill="rgb(0,88,243)"/><rect x="102" y="40" width="1" height="2" fill="rgb(0,88,243)"/><rect x="96" y="41" width="1" height="1" fill="rgb(0,71,228)"/><rect x="97" y="41" width="4" height="1" fill="rgb(17,114,251)"/><rect x="101" y="41" width="1" height="1" fill="rgb(0,71,228)"/><rect x="95" y="42" width="1" height="1" fill="rgb(17,114,251)"/><rect x="96" y="42" width="1" height="1" fill="rgb(0,88,243)"/><rect x="97" y="42" width="1" height="1" fill="rgb(0,71,228)"/><rect x="98" y="42" width="2" height="1" fill="rgb(0,53,212)"/><rect x="100" y="42" width="1" height="1" fill="rgb(0,71,228)"/><rect x="101" y="42" width="1" height="1" fill="rgb(0,88,243)"/><rect x="102" y="42" width="1" height="1" fill="rgb(17,114,251)"/><rect x="96" y="43" width="1" height="1" fill="rgb(44,131,251)"/><rect x="97" y="43" width="1" height="1" fill="rgb(0,88,243)"/><rect x="98" y="43" width="2" height="1" fill="rgb(0,71,228)"/><rect x="100" y="43" width="1" height="1" fill="rgb(0,88,243)"/><rect x="101" y="43" width="1" height="1" fill="rgb(44,131,251)"/><rect x="97" y="44" width="4" height="1" fill="rgb(44,131,251)"/><rect x="18" y="51" width="4" height="1" fill="rgb(44,131,251)"/><rect x="16" y="52" width="2" height="1" fill="rgb(44,131,251)"/><rect x="18" y="52" width="1" height="1" fill="rgb(71,155,251)"/><rect x="19" y="52" width="2" height="1" fill="rgb(97,179,251)"/><rect x="21" y="52" width="1" height="1" fill="rgb(71,155,251)"/><rect x="22" y="52" width="2" height="1" fill="rgb(44,131,251)"/><rect x="16" y="53" width="1" height="1" fill="rgb(44,131,251)"/><rect x="17" y="53" width="6" height="1" fill="rgb(71,155,251)"/><rect x="23" y="53" width="1" height="1" fill="rgb(44,131,251)"/><rect x="15" y="54" width="1" height="1" fill="rgb(0,88,243)"/><rect x="16" y="54" width="1" height="1" fill="rgb(17,114,251)"/><rect x="17" y="54" width="1" height="1" fill="rgb(44,131,251)"/><rect x="18" y="54" width="4" height="1" fill="rgb(71,155,251)"/><rect x="22" y="54" width="1" height="1" fill="rgb(44,131,251)"/><rect x="23" y="54" width="1" height="1" fill="rgb(17,114,251)"/><rect x="24" y="54" width="1" height="1" fill="rgb(0,88,243)"/><rect x="15" y="55" width="1" height="1" fill="rgb(0,71,228)"/><rect x="16" y="55" width="2" height="1" fill="rgb(17,114,251)"/><rect x="18" y="55" width="4" height="1" fill="rgb(44,131,251)"/><rect x="22" y="55" width="2" height="1" fill="rgb(17,114,251)"/><rect x="24" y="55" width="1" height="1" fill="rgb(0,71,228)"/><rect x="16" y="56" width="1" height="1" fill="rgb(0,71,228)"/><rect x="17" y="56" width="1" height="1" fill="rgb(0,88,243)"/><rect x="18" y="56" width="4" height="1" fill="rgb(17,114,251)"/><rect x="22" y="56" width="1" height="1" fill="rgb(0,88,243)"/><rect x="23" y="56" width="1" height="1" fill="rgb(0,71,228)"/><rect x="15" y="56" width="1" height="2" fill="rgb(0,88,243)"/><rect x="24" y="56" width="1" height="2" fill="rgb(0,88,243)"/><rect x="16" y="57" width="2" height="1" fill="rgb(0,71,228)"/><rect x="18" y="57" width="4" height="1" fill="rgb(0,53,212)"/><rect x="22" y="57" width="2" height="1" fill="rgb(0,71,228)"/><rect x="108" y="57" width="4" height="1" fill="rgb(44,131,251)"/><rect x="16" y="58" width="1" height="1" fill="rgb(0,88,243)"/><rect x="17" y="58" width="6" height="1" fill="rgb(0,71,228)"/><rect x="23" y="58" width="1" height="1" fill="rgb(0,88,243)"/><rect x="106" y="58" width="2" height="1" fill="rgb(44,131,251)"/><rect x="108" y="58" width="1" height="1" fill="rgb(71,155,251)"/><rect x="109" y="58" width="2" height="1" fill="rgb(97,179,251)"/><rect x="111" y="58" width="1" height="1" fill="rgb(71,155,251)"/><rect x="112" y="58" width="2" height="1" fill="rgb(44,131,251)"/><rect x="16" y="59" width="2" height="1" fill="rgb(44,131,251)"/><rect x="18" y="59" width="4" height="1" fill="rgb(0,88,243)"/><rect x="22" y="59" width="2" height="1" fill="rgb(44,131,251)"/><rect x="106" y="59" width="1" height="1" fill="rgb(44,131,251)"/><rect x="107" y="59" width="6" height="1" fill="rgb(71,155,251)"/><rect x="113" y="59" width="1" height="1" fill="rgb(44,131,251)"/><rect x="18" y="60" width="4" height="1" fill="rgb(44,131,251)"/><rect x="105" y="60" width="1" height="1" fill="rgb(0,88,243)"/><rect x="106" y="60" width="1" height="1" fill="rgb(17,114,251)"/><rect x="107" y="60" width="1" height="1" fill="rgb(44,131,251)"/><rect x="108" y="60" width="4" height="1" fill="rgb(71,155,251)"/><rect x="112" y="60" width="1" height="1" fill="rgb(44,131,251)"/><rect x="113" y="60" width="1" height="1" fill="rgb(17,114,251)"/><rect x="114" y="60" width="1" height="1" fill="rgb(0,88,243)"/><rect x="105" y="61" width="1" height="1" fill="rgb(0,71,228)"/><rect x="106" y="61" width="2" height="1" fill="rgb(17,114,251)"/><rect x="108" y="61" width="4" height="1" fill="rgb(44,131,251)"/><rect x="112" y="61" width="2" height="1" fill="rgb(17,114,251)"/><rect x="114" y="61" width="1" height="1" fill="rgb(0,71,228)"/><rect x="106" y="62" width="1" height="1" fill="rgb(0,71,228)"/><rect x="107" y="62" width="1" height="1" fill="rgb(0,88,243)"/><rect x="108" y="62" width="4" height="1" fill="rgb(17,114,251)"/><rect x="112" y="62" width="1" height="1" fill="rgb(0,88,243)"/><rect x="113" y="62" width="1" height="1" fill="rgb(0,71,228)"/><rect x="105" y="62" width="1" height="2" fill="rgb(0,88,243)"/><rect x="114" y="62" width="1" height="2" fill="rgb(0,88,243)"/><rect x="106" y="63" width="2" height="1" fill="rgb(0,71,228)"/><rect x="108" y="63" width="4" height="1" fill="rgb(0,53,212)"/><rect x="112" y="63" width="2" height="1" fill="rgb(0,71,228)"/><rect x="106" y="64" width="1" height="1" fill="rgb(0,88,243)"/><rect x="107" y="64" width="6" height="1" fill="rgb(0,71,228)"/><rect x="113" y="64" width="1" height="1" fill="rgb(0,88,243)"/><rect x="106" y="65" width="2" height="1" fill="rgb(44,131,251)"/><rect x="108" y="65" width="4" height="1" fill="rgb(0,88,243)"/><rect x="112" y="65" width="2" height="1" fill="rgb(44,131,251)"/><rect x="108" y="66" width="4" height="1" fill="rgb(44,131,251)"/><rect x="16" y="77" width="4" height="1" fill="rgb(44,131,251)"/><rect x="14" y="78" width="2" height="1" fill="rgb(44,131,251)"/><rect x="16" y="78" width="1" height="1" fill="rgb(71,155,251)"/><rect x="17" y="78" width="2" height="1" fill="rgb(97,179,251)"/><rect x="19" y="78" width="1" height="1" fill="rgb(71,155,251)"/><rect x="20" y="78" width="2" height="1" fill="rgb(44,131,251)"/><rect x="14" y="79" width="1" height="1" fill="rgb(44,131,251)"/><rect x="15" y="79" width="6" height="1" fill="rgb(71,155,251)"/><rect x="21" y="79" width="1" height="1" fill="rgb(44,131,251)"/><rect x="13" y="80" width="1" height="1" fill="rgb(0,88,243)"/><rect x="14" y="80" width="1" height="1" fill="rgb(17,114,251)"/><rect x="15" y="80" width="1" height="1" fill="rgb(44,131,251)"/><rect x="16" y="80" width="4" height="1" fill="rgb(71,155,251)"/><rect x="20" y="80" width="1" height="1" fill="rgb(44,131,251)"/><rect x="21" y="80" width="1" height="1" fill="rgb(17,114,251)"/><rect x="22" y="80" width="1" height="1" fill="rgb(0,88,243)"/><rect x="13" y="81" width="1" height="1" fill="rgb(0,71,228)"/><rect x="14" y="81" width="2" height="1" fill="rgb(17,114,251)"/><rect x="16" y="81" width="4" height="1" fill="rgb(44,131,251)"/><rect x="20" y="81" width="2" height="1" fill="rgb(17,114,251)"/><rect x="22" y="81" width="1" height="1" fill="rgb(0,71,228)"/><rect x="14" y="82" width="1" height="1" fill="rgb(0,71,228)"/><rect x="15" y="82" width="1" height="1" fill="rgb(0,88,243)"/><rect x="16" y="82" width="4" height="1" fill="rgb(17,114,251)"/><rect x="20" y="82" width="1" height="1" fill="rgb(0,88,243)"/><rect x="21" y="82" width="1" height="1" fill="rgb(0,71,228)"/><rect x="13" y="82" width="1" height="2" fill="rgb(0,88,243)"/><rect x="22" y="82" width="1" height="2" fill="rgb(0,88,243)"/><rect x="14" y="83" width="2" height="1" fill="rgb(0,71,228)"/><rect x="16" y="83" width="4" height="1" fill="rgb(0,53,212)"/><rect x="20" y="83" width="2" height="1" fill="rgb(0,71,228)"/><rect x="106" y="83" width="4" height="1" fill="rgb(44,131,251)"/><rect x="14" y="84" width="1" height="1" fill="rgb(0,88,243)"/><rect x="15" y="84" width="6" height="1" fill="rgb(0,71,228)"/><rect x="21" y="84" width="1" height="1" fill="rgb(0,88,243)"/><rect x="104" y="84" width="2" height="1" fill="rgb(44,131,251)"/><rect x="106" y="84" width="1" height="1" fill="rgb(71,155,251)"/><rect x="107" y="84" width="2" height="1" fill="rgb(97,179,251)"/><rect x="109" y="84" width="1" height="1" fill="rgb(71,155,251)"/><rect x="110" y="84" width="2" height="1" fill="rgb(44,131,251)"/><rect x="14" y="85" width="2" height="1" fill="rgb(44,131,251)"/><rect x="16" y="85" width="4" height="1" fill="rgb(0,88,243)"/><rect x="20" y="85" width="2" height="1" fill="rgb(44,131,251)"/><rect x="104" y="85" width="1" height="1" fill="rgb(44,131,251)"/><rect x="105" y="85" width="6" height="1" fill="rgb(71,155,251)"/><rect x="111" y="85" width="1" height="1" fill="rgb(44,131,251)"/><rect x="16" y="86" width="4" height="1" fill="rgb(44,131,251)"/><rect x="103" y="86" width="1" height="1" fill="rgb(0,88,243)"/><rect x="104" y="86" width="1" height="1" fill="rgb(17,114,251)"/><rect x="105" y="86" width="1" height="1" fill="rgb(44,131,251)"/><rect x="106" y="86" width="4" height="1" fill="rgb(71,155,251)"/><rect x="110" y="86" width="1" height="1" fill="rgb(44,131,251)"/><rect x="111" y="86" width="1" height="1" fill="rgb(17,114,251)"/><rect x="112" y="86" width="1" height="1" fill="rgb(0,88,243)"/><rect x="103" y="87" width="1" height="1" fill="rgb(0,71,228)"/><rect x="104" y="87" width="2" height="1" fill="rgb(17,114,251)"/><rect x="106" y="87" width="4" height="1" fill="rgb(44,131,251)"/><rect x="110" y="87" width="2" height="1" fill="rgb(17,114,251)"/><rect x="112" y="87" width="1" height="1" fill="rgb(0,71,228)"/><rect x="104" y="88" width="1" height="1" fill="rgb(0,71,228)"/><rect x="105" y="88" width="1" height="1" fill="rgb(0,88,243)"/><rect x="106" y="88" width="4" height="1" fill="rgb(17,114,251)"/><rect x="110" y="88" width="1" height="1" fill="rgb(0,88,243)"/><rect x="111" y="88" width="1" height="1" fill="rgb(0,71,228)"/><rect x="103" y="88" width="1" height="2" fill="rgb(0,88,243)"/><rect x="112" y="88" width="1" height="2" fill="rgb(0,88,243)"/><rect x="104" y="89" width="2" height="1" fill="rgb(0,71,228)"/><rect x="106" y="89" width="4" height="1" fill="rgb(0,53,212)"/><rect x="110" y="89" width="2" height="1" fill="rgb(0,71,228)"/><rect x="104" y="90" width="1" height="1" fill="rgb(0,88,243)"/><rect x="105" y="90" width="6" height="1" fill="rgb(0,71,228)"/><rect x="111" y="90" width="1" height="1" fill="rgb(0,88,243)"/><rect x="104" y="91" width="2" height="1" fill="rgb(44,131,251)"/><rect x="106" y="91" width="4" height="1" fill="rgb(0,88,243)"/><rect x="110" y="91" width="2" height="1" fill="rgb(44,131,251)"/><rect x="106" y="92" width="4" height="1" fill="rgb(44,131,251)"/><rect x="27" y="97" width="4" height="1" fill="rgb(44,131,251)"/><rect x="25" y="98" width="2" height="1" fill="rgb(44,131,251)"/><rect x="27" y="98" width="4" height="1" fill="rgb(71,155,251)"/><rect x="31" y="98" width="2" height="1" fill="rgb(44,131,251)"/><rect x="24" y="99" width="2" height="1" fill="rgb(44,131,251)"/><rect x="26" y="99" width="1" height="1" fill="rgb(71,155,251)"/><rect x="27" y="99" width="4" height="1" fill="rgb(97,179,251)"/><rect x="31" y="99" width="1" height="1" fill="rgb(71,155,251)"/><rect x="32" y="99" width="2" height="1" fill="rgb(44,131,251)"/><rect x="24" y="100" width="1" height="1" fill="rgb(44,131,251)"/><rect x="25" y="100" width="8" height="1" fill="rgb(71,155,251)"/><rect x="33" y="100" width="1" height="1" fill="rgb(44,131,251)"/><rect x="25" y="101" width="1" height="1" fill="rgb(17,114,251)"/><rect x="26" y="101" width="1" height="1" fill="rgb(44,131,251)"/><rect x="27" y="101" width="4" height="1" fill="rgb(71,155,251)"/><rect x="31" y="101" width="1" height="1" fill="rgb(44,131,251)"/><rect x="32" y="101" width="1" height="1" fill="rgb(17,114,251)"/><rect x="93" y="101" width="4" height="1" fill="rgb(44,131,251)"/><rect x="24" y="101" width="1" height="2" fill="rgb(0,88,243)"/><rect x="33" y="101" width="1" height="2" fill="rgb(0,88,243)"/><rect x="25" y="102" width="2" height="1" fill="rgb(17,114,251)"/><rect x="27" y="102" width="4" height="1" fill="rgb(44,131,251)"/><rect x="31" y="102" width="2" height="1" fill="rgb(17,114,251)"/><rect x="91" y="102" width="2" height="1" fill="rgb(44,131,251)"/><rect x="93" y="102" width="4" height="1" fill="rgb(71,155,251)"/><rect x="97" y="102" width="2" height="1" fill="rgb(44,131,251)"/><rect x="24" y="103" width="1" height="1" fill="rgb(0,71,228)"/><rect x="25" y="103" width="2" height="1" fill="rgb(0,88,243)"/><rect x="27" y="103" width="4" height="1" fill="rgb(17,114,251)"/><rect x="31" y="103" width="2" height="1" fill="rgb(0,88,243)"/><rect x="33" y="103" width="1" height="1" fill="rgb(0,71,228)"/><rect x="90" y="103" width="2" height="1" fill="rgb(44,131,251)"/><rect x="92" y="103" width="1" height="1" fill="rgb(71,155,251)"/><rect x="93" y="103" width="4" height="1" fill="rgb(97,179,251)"/><rect x="97" y="103" width="1" height="1" fill="rgb(71,155,251)"/><rect x="98" y="103" width="2" height="1" fill="rgb(44,131,251)"/><rect x="23" y="101" width="1" height="4" fill="rgb(17,114,251)"/><rect x="34" y="101" width="1" height="4" fill="rgb(17,114,251)"/><rect x="24" y="104" width="1" height="1" fill="rgb(0,88,243)"/><rect x="25" y="104" width="1" height="1" fill="rgb(0,71,228)"/><rect x="26" y="104" width="1" height="1" fill="rgb(0,53,212)"/><rect x="27" y="104" width="1" height="1" fill="rgb(0,71,228)"/><rect x="28" y="104" width="2" height="1" fill="rgb(0,88,243)"/><rect x="30" y="104" width="1" height="1" fill="rgb(0,71,228)"/><rect x="31" y="104" width="1" height="1" fill="rgb(0,53,212)"/><rect x="32" y="104" width="1" height="1" fill="rgb(0,71,228)"/><rect x="33" y="104" width="1" height="1" fill="rgb(0,88,243)"/><rect x="90" y="104" width="1" height="1" fill="rgb(44,131,251)"/><rect x="91" y="104" width="8" height="1" fill="rgb(71,155,251)"/><rect x="99" y="104" width="1" height="1" fill="rgb(44,131,251)"/><rect x="25" y="105" width="1" height="1" fill="rgb(0,88,243)"/><rect x="26" y="105" width="1" height="1" fill="rgb(0,71,228)"/><rect x="27" y="105" width="1" height="1" fill="rgb(0,53,212)"/><rect x="28" y="105" width="2" height="1" fill="rgb(0,35,187)"/><rect x="30" y="105" width="1" height="1" fill="rgb(0,53,212)"/><rect x="31" y="105" width="1" height="1" fill="rgb(0,71,228)"/><rect x="32" y="105" width="1" height="1" fill="rgb(0,88,243)"/><rect x="91" y="105" width="1" height="1" fill="rgb(17,114,251)"/><rect x="92" y="105" width="1" height="1" fill="rgb(44,131,251)"/><rect x="93" y="105" width="4" height="1" fill="rgb(71,155,251)"/><rect x="97" y="105" width="1" height="1" fill="rgb(44,131,251)"/><rect x="98" y="105" width="1" height="1" fill="rgb(17,114,251)"/><rect x="24" y="105" width="1" height="2" fill="rgb(17,114,251)"/><rect x="33" y="105" width="1" height="2" fill="rgb(17,114,251)"/><rect x="90" y="105" width="1" height="2" fill="rgb(0,88,243)"/><rect x="99" y="105" width="1" height="2" fill="rgb(0,88,243)"/><rect x="25" y="106" width="2" height="1" fill="rgb(0,88,243)"/><rect x="27" y="106" width="4" height="1" fill="rgb(0,71,228)"/><rect x="31" y="106" width="2" height="1" fill="rgb(0,88,243)"/><rect x="91" y="106" width="2" height="1" fill="rgb(17,114,251)"/><rect x="93" y="106" width="4" height="1" fill="rgb(44,131,251)"/><rect x="97" y="106" width="2" height="1" fill="rgb(17,114,251)"/><rect x="25" y="107" width="1" height="1" fill="rgb(44,131,251)"/><rect x="26" y="107" width="6" height="1" fill="rgb(17,114,251)"/><rect x="32" y="107" width="1" height="1" fill="rgb(44,131,251)"/><rect x="90" y="107" width="1" height="1" fill="rgb(0,71,228)"/><rect x="91" y="107" width="2" height="1" fill="rgb(0,88,243)"/><rect x="93" y="107" width="4" height="1" fill="rgb(17,114,251)"/><rect x="97" y="107" width="2" height="1" fill="rgb(0,88,243)"/><rect x="99" y="107" width="1" height="1" fill="rgb(0,71,228)"/><rect x="89" y="105" width="1" height="4" fill="rgb(17,114,251)"/><rect x="100" y="105" width="1" height="4" fill="rgb(17,114,251)"/><rect x="27" y="108" width="4" height="1" fill="rgb(44,131,251)"/><rect x="90" y="108" width="1" height="1" fill="rgb(0,88,243)"/><rect x="91" y="108" width="1" height="1" fill="rgb(0,71,228)"/><rect x="92" y="108" width="1" height="1" fill="rgb(0,53,212)"/><rect x="93" y="108" width="1" height="1" fill="rgb(0,71,228)"/><rect x="94" y="108" width="2" height="1" fill="rgb(0,88,243)"/><rect x="96" y="108" width="1" height="1" fill="rgb(0,71,228)"/><rect x="97" y="108" width="1" height="1" fill="rgb(0,53,212)"/><rect x="98" y="108" width="1" height="1" fill="rgb(0,71,228)"/><rect x="99" y="108" width="1" height="1" fill="rgb(0,88,243)"/><rect x="91" y="109" width="1" height="1" fill="rgb(0,88,243)"/><rect x="92" y="109" width="1" height="1" fill="rgb(0,71,228)"/><rect x="93" y="109" width="1" height="1" fill="rgb(0,53,212)"/><rect x="94" y="109" width="2" height="1" fill="rgb(0,35,187)"/><rect x="96" y="109" width="1" height="1" fill="rgb(0,53,212)"/><rect x="97" y="109" width="1" height="1" fill="rgb(0,71,228)"/><rect x="98" y="109" width="1" height="1" fill="rgb(0,88,243)"/><rect x="90" y="109" width="1" height="2" fill="rgb(17,114,251)"/><rect x="99" y="109" width="1" height="2" fill="rgb(17,114,251)"/><rect x="46" y="110" width="4" height="1" fill="rgb(44,131,251)"/><rect x="91" y="110" width="2" height="1" fill="rgb(0,88,243)"/><rect x="93" y="110" width="4" height="1" fill="rgb(0,71,228)"/><rect x="97" y="110" width="2" height="1" fill="rgb(0,88,243)"/><rect x="44" y="111" width="2" height="1" fill="rgb(44,131,251)"/><rect x="46" y="111" width="4" height="1" fill="rgb(71,155,251)"/><rect x="50" y="111" width="2" height="1" fill="rgb(44,131,251)"/><rect x="91" y="111" width="1" height="1" fill="rgb(44,131,251)"/><rect x="92" y="111" width="6" height="1" fill="rgb(17,114,251)"/><rect x="98" y="111" width="1" height="1" fill="rgb(44,131,251)"/><rect x="43" y="112" width="2" height="1" fill="rgb(44,131,251)"/><rect x="45" y="112" width="1" height="1" fill="rgb(71,155,251)"/><rect x="46" y="112" width="4" height="1" fill="rgb(97,179,251)"/><rect x="50" y="112" width="1" height="1" fill="rgb(71,155,251)"/><rect x="51" y="112" width="2" height="1" fill="rgb(44,131,251)"/><rect x="72" y="112" width="4" height="1" fill="rgb(44,131,251)"/><rect x="93" y="112" width="4" height="1" fill="rgb(44,131,251)"/><rect x="43" y="113" width="1" height="1" fill="rgb(44,131,251)"/><rect x="44" y="113" width="8" height="1" fill="rgb(71,155,251)"/><rect x="52" y="113" width="1" height="1" fill="rgb(44,131,251)"/><rect x="70" y="113" width="2" height="1" fill="rgb(44,131,251)"/><rect x="72" y="113" width="4" height="1" fill="rgb(71,155,251)"/><rect x="76" y="113" width="2" height="1" fill="rgb(44,131,251)"/><rect x="44" y="114" width="1" height="1" fill="rgb(17,114,251)"/><rect x="45" y="114" width="1" height="1" fill="rgb(44,131,251)"/><rect x="46" y="114" width="4" height="1" fill="rgb(71,155,251)"/><rect x="50" y="114" width="1" height="1" fill="rgb(44,131,251)"/><rect x="51" y="114" width="1" height="1" fill="rgb(17,114,251)"/><rect x="69" y="114" width="2" height="1" fill="rgb(44,131,251)"/><rect x="71" y="114" width="1" height="1" fill="rgb(71,155,251)"/><rect x="72" y="114" width="4" height="1" fill="rgb(97,179,251)"/><rect x="76" y="114" width="1" height="1" fill="rgb(71,155,251)"/><rect x="77" y="114" width="2" height="1" fill="rgb(44,131,251)"/><rect x="43" y="114" width="1" height="2" fill="rgb(0,88,243)"/><rect x="52" y="114" width="1" height="2" fill="rgb(0,88,243)"/><rect x="44" y="115" width="2" height="1" fill="rgb(17,114,251)"/><rect x="46" y="115" width="4" height="1" fill="rgb(44,131,251)"/><rect x="50" y="115" width="2" height="1" fill="rgb(17,114,251)"/><rect x="69" y="115" width="1" height="1" fill="rgb(44,131,251)"/><rect x="70" y="115" width="8" height="1" fill="rgb(71,155,251)"/><rect x="78" y="115" width="1" height="1" fill="rgb(44,131,251)"/><rect x="43" y="116" width="1" height="1" fill="rgb(0,71,228)"/><rect x="44" y="116" width="2" height="1" fill="rgb(0,88,243)"/><rect x="46" y="116" width="4" height="1" fill="rgb(17,114,251)"/><rect x="50" y="116" width="2" height="1" fill="rgb(0,88,243)"/><rect x="52" y="116" width="1" height="1" fill="rgb(0,71,228)"/><rect x="70" y="116" width="1" height="1" fill="rgb(17,114,251)"/><rect x="71" y="116" width="1" height="1" fill="rgb(44,131,251)"/><rect x="72" y="116" width="4" height="1" fill="rgb(71,155,251)"/><rect x="76" y="116" width="1" height="1" fill="rgb(44,131,251)"/><rect x="77" y="116" width="1" height="1" fill="rgb(17,114,251)"/><rect x="42" y="114" width="1" height="4" fill="rgb(17,114,251)"/><rect x="53" y="114" width="1" height="4" fill="rgb(17,114,251)"/><rect x="69" y="116" width="1" height="2" fill="rgb(0,88,243)"/><rect x="78" y="116" width="1" height="2" fill="rgb(0,88,243)"/><rect x="43" y="117" width="1" height="1" fill="rgb(0,88,243)"/><rect x="44" y="117" width="1" height="1" fill="rgb(0,71,228)"/><rect x="45" y="117" width="1" height="1" fill="rgb(0,53,212)"/><rect x="46" y="117" width="1" height="1" fill="rgb(0,71,228)"/><rect x="47" y="117" width="2" height="1" fill="rgb(0,88,243)"/><rect x="49" y="117" width="1" height="1" fill="rgb(0,71,228)"/><rect x="50" y="117" width="1" height="1" fill="rgb(0,53,212)"/><rect x="51" y="117" width="1" height="1" fill="rgb(0,71,228)"/><rect x="52" y="117" width="1" height="1" fill="rgb(0,88,243)"/><rect x="70" y="117" width="2" height="1" fill="rgb(17,114,251)"/><rect x="72" y="117" width="4" height="1" fill="rgb(44,131,251)"/><rect x="76" y="117" width="2" height="1" fill="rgb(17,114,251)"/><rect x="44" y="118" width="1" height="1" fill="rgb(0,88,243)"/><rect x="45" y="118" width="1" height="1" fill="rgb(0,71,228)"/><rect x="46" y="118" width="1" height="1" fill="rgb(0,53,212)"/><rect x="47" y="118" width="2" height="1" fill="rgb(0,35,187)"/><rect x="49" y="118" width="1" height="1" fill="rgb(0,53,212)"/><rect x="50" y="118" width="1" height="1" fill="rgb(0,71,228)"/><rect x="51" y="118" width="1" height="1" fill="rgb(0,88,243)"/><rect x="69" y="118" width="1" height="1" fill="rgb(0,71,228)"/><rect x="70" y="118" width="2" height="1" fill="rgb(0,88,243)"/><rect x="72" y="118" width="4" height="1" fill="rgb(17,114,251)"/><rect x="76" y="118" width="2" height="1" fill="rgb(0,88,243)"/><rect x="78" y="118" width="1" height="1" fill="rgb(0,71,228)"/><rect x="68" y="116" width="1" height="4" fill="rgb(17,114,251)"/><rect x="79" y="116" width="1" height="4" fill="rgb(17,114,251)"/><rect x="43" y="118" width="1" height="2" fill="rgb(17,114,251)"/><rect x="52" y="118" width="1" height="2" fill="rgb(17,114,251)"/><rect x="44" y="119" width="2" height="1" fill="rgb(0,88,243)"/><rect x="46" y="119" width="4" height="1" fill="rgb(0,71,228)"/><rect x="50" y="119" width="2" height="1" fill="rgb(0,88,243)"/><rect x="69" y="119" width="1" height="1" fill="rgb(0,88,243)"/><rect x="70" y="119" width="1" height="1" fill="rgb(0,71,228)"/><rect x="71" y="119" width="1" height="1" fill="rgb(0,53,212)"/><rect x="72" y="119" width="1" height="1" fill="rgb(0,71,228)"/><rect x="73" y="119" width="2" height="1" fill="rgb(0,88,243)"/><rect x="75" y="119" width="1" height="1" fill="rgb(0,71,228)"/><rect x="76" y="119" width="1" height="1" fill="rgb(0,53,212)"/><rect x="77" y="119" width="1" height="1" fill="rgb(0,71,228)"/><rect x="78" y="119" width="1" height="1" fill="rgb(0,88,243)"/><rect x="44" y="120" width="1" height="1" fill="rgb(44,131,251)"/><rect x="45" y="120" width="6" height="1" fill="rgb(17,114,251)"/><rect x="51" y="120" width="1" height="1" fill="rgb(44,131,251)"/><rect x="70" y="120" width="1" height="1" fill="rgb(0,88,243)"/><rect x="71" y="120" width="1" height="1" fill="rgb(0,71,228)"/><rect x="72" y="120" width="1" height="1" fill="rgb(0,53,212)"/><rect x="73" y="120" width="2" height="1" fill="rgb(0,35,187)"/><rect x="75" y="120" width="1" height="1" fill="rgb(0,53,212)"/><rect x="76" y="120" width="1" height="1" fill="rgb(0,71,228)"/><rect x="77" y="120" width="1" height="1" fill="rgb(0,88,243)"/><rect x="69" y="120" width="1" height="2" fill="rgb(17,114,251)"/><rect x="78" y="120" width="1" height="2" fill="rgb(17,114,251)"/><rect x="46" y="121" width="4" height="1" fill="rgb(44,131,251)"/><rect x="70" y="121" width="2" height="1" fill="rgb(0,88,243)"/><rect x="72" y="121" width="4" height="1" fill="rgb(0,71,228)"/><rect x="76" y="121" width="2" height="1" fill="rgb(0,88,243)"/><rect x="70" y="122" width="1" height="1" fill="rgb(44,131,251)"/><rect x="71" y="122" width="6" height="1" fill="rgb(17,114,251)"/><rect x="77" y="122" width="1" height="1" fill="rgb(44,131,251)"/><rect x="72" y="123" width="4" height="1" fill="rgb(44,131,251)"/></svg>