<svg xmlns="http://www.w3.org/2000/svg" width="128" height="144" viewBox="0 0 128 144"><rect x="103" y="46" width="4" height="1" fill="rgb(44,131,251)"/><rect x="102" y="47" width="2" height="1" fill="rgb(44,131,251)"/><rect x="104" y="47" width="2" height="1" fill="rgb(71,155,251)"/><rect x="106" y="47" width="2" height="1" fill="rgb(44,131,251)"/><rect x="102" y="48" width="2" height="1" fill="rgb(17,114,251)"/><rect x="104" y="48" width="2" height="1" fill="rgb(44,131,251)"/><rect x="106" y="48" width="2" height="1" fill="rgb(17,114,251)"/><rect x="102" y="49" width="1" height="1" fill="rgb(0,71,228)"/><rect x="103" y="49" width="4" height="1" fill="rgb(17,114,251)"/><rect x="107" y="49" width="1" height="1" fill="rgb(0,71,228)"/><rect x="102" y="50" width="1" height="1" fill="rgb(17,114,251)"/><rect x="103" y="50" width="1" height="1" fill="rgb(0,71,228)"/><rect x="104" y="50" width="2" height="1" fill="rgb(0,53,212)"/><rect x="106" y="50" width="1" height="1" fill="rgb(0,71,228)"/><rect x="107" y="50" width="1" height="1" fill="rgb(17,114,251)"/><rect x="103" y="51" width="1" height="1" fill="rgb(17,114,251)"/><rect x="104" y="51" width="2" height="1" fill="rgb(0,71,228)"/><rect x="106" y="51" width="1" height="1" fill="rgb(17,114,251)"/><rect x="109" y="70" width="4" height="1" fill="rgb(44,131,251)"/><rect x="108" y="71" width="1" height="1" fill="rgb(44,131,251)"/><rect x="109" y="71" width="1" height="1" fill="rgb(71,155,251)"/><rect x="110" y="71" width="2" height="1" fill="rgb(97,179,251)"/><rect x="112" y="71" width="1" height="1" fill="rgb(71,155,251)"/><rect x="113" y="71" width="1" height="1" fill="rgb(44,131,251)"/><rect x="107" y="72" width="2" height="1" fill="rgb(17,114,251)"/><rect x="109" y="72" width="1" height="1" fill="rgb(44,131,251)"/><rect x="110" y="72" width="2" height="1" fill="rgb(71,155,251)"/><rect x="112" y="72" width="1" height="1" fill="rgb(44,131,251)"/><rect x="113" y="72" width="2" height="1" fill="rgb(17,114,251)"/><rect x="108" y="73" width="2" height="1" fill="rgb(17,114,251)"/><rect x="110" y="73" width="2" height="1" fill="rgb(44,131,251)"/><rect x="112" y="73" width="2" height="1" fill="rgb(17,114,251)"/><rect x="107" y="73" width="1" height="2" fill="rgb(0,88,243)"/><rect x="114" y="73" width="1" height="2" fill="rgb(0,88,243)"/><rect x="108" y="74" width="1" height="1" fill="rgb(0,71,228)"/><rect x="109" y="74" width="4" height="1" fill="rgb(17,114,251)"/><rect x="113" y="74" width="1" height="1" fill="rgb(0,71,228)"/><rect x="107" y="75" width="1" height="1" fill="rgb(17,114,251)"/><rect x="108" y="75" width="1" height="1" fill="rgb(0,88,243)"/><rect x="109" y="75" width="1" height="1" fill="rgb(0,71,228)"/><rect x="110" y="75" width="2" height="1" fill="rgb(0,53,212)"/><rect x="112" y="75" width="1" height="1" fill="rgb(0,71,228)"/><rect x="113" y="75" width="1" height="1" fill="rgb(0,88,243)"/><rect x="114" y="75" width="1" height="1" fill="rgb(17,114,251)"/><rect x="108" y="76" width="1" height="1" fill="rgb(44,131,251)"/><rect x="109" y="76" width="1" height="1" fill="rgb(0,88,243)"/><rect x="110" y="76" width="2" height="1" fill="rgb(0,71,228)"/><rect x="112" y="76" width="1" height="1" fill="rgb(0,88,243)"/><rect x="113" y="76" width="1" height="1" fill="rgb(44,131,251)"/><rect x="109" y="77" width="4" height="1" fill="rgb(44,131,251)"/><rect x="21" y="92" width="4" height="1" fill="rgb(44,131,251)"/><rect x="102" y="92" width="4" height="1" fill="rgb(44,131,251)"/><rect x="20" y="93" width="2" height="1" fill="rgb(44,131,251)"/><rect x="22" y="93" width="2" height="1" fill="rgb(71,155,251)"/><rect x="24" y="93" width="2" height="1" fill="rgb(44,131,251)"/><rect x="100" y="93" width="2" height="1" fill="rgb(44,131,251)"/><rect x="102" y="93" width="1" height="1" fill="rgb(71,155,251)"/><rect x="103" y="93" width="2" height="1" fill="rgb(97,179,251)"/><rect x="105" y="93" width="1" height="1" fill="rgb(71,155,251)"/><rect x="106" y="93" width="2" height="1" fill="rgb(44,131,251)"/><rect x="20" y="94" width="2" height="1" fill="rgb(17,114,251)"/><rect x="22" y="94" width="2" height="1" fill="rgb(44,131,251)"/><rect x="24" y="94" width="2" height="1" fill="rgb(17,114,251)"/><rect x="100" y="94" width="1" height="1" fill="rgb(44,131,251)"/><rect x="101" y="94" width="6" height="1" fill="rgb(71,155,251)"/><rect x="107" y="94" width="1" height="1" fill="rgb(44,131,251)"/><rect x="20" y="95" width="1" height="1" fill="rgb(0,71,228)"/><rect x="21" y="95" width="4" height="1" fill="rgb(17,114,251)"/><rect x="25" y="95" width="1" height="1" fill="rgb(0,71,228)"/><rect x="99" y="95" width="1" height="1" fill="rgb(0,88,243)"/><rect x="100" y="95" width="1" height="1" fill="rgb(17,114,251)"/><rect x="101" y="95" width="1" height="1" fill="rgb(44,131,251)"/><rect x="102" y="95" width="4" height="1" fill="rgb(71,155,251)"/><rect x="106" y="95" width="1" height="1" fill="rgb(44,131,251)"/><rect x="107" y="95" width="1" height="1" fill="rgb(17,114,251)"/><rect x="108" y="95" width="1" height="1" fill="rgb(0,88,243)"/><rect x="20" y="96" width="1" height="1" fill="rgb(17,114,251)"/><rect x="21" y="96" width="1" height="1" fill="rgb(0,71,228)"/><rect x="22" y="96" width="2" height="1" fill="rgb(0,53,212)"/><rect x="24" y="96" width="1" height="1" fill="rgb(0,71,228)"/><rect x="25" y="96" width="1" height="1" fill="rgb(17,114,251)"/><rect x="99" y="96" width="1" height="1" fill="rgb(0,71,228)"/><rect x="100" y="96" width="2" height="1" fill="rgb(17,114,251)"/><rect x="102" y="96" width="4" height="1" fill="rgb(44,131,251)"/><rect x="106" y="96" width="2" height="1" fill="rgb(17,114,251)"/><rect x="108" y="96" width="1" height="1" fill="rgb(0,71,228)"/><rect x="21" y="97" width="1" height="1" fill="rgb(17,114,251)"/><rect x="22" y="97" width="2" height="1" fill="rgb(0,71,228)"/><rect x="24" y="97" width="1" height="1" fill="rgb(17,114,251)"/><rect x="100" y="97" width="1" height="1" fill="rgb(0,71,228)"/><rect x="101" y="97" width="1" height="1" fill="rgb(0,88,243)"/><rect x="102" y="97" width="4" height="1" fill="rgb(17,114,251)"/><rect x="106" y="97" width="1" height="1" fill="rgb(0,88,243)"/><rect x="107" y="97" width="1" height="1" fill="rgb(0,71,228)"/><rect x="99" y="97" width="1" height="2" fill="rgb(0,88,243)"/><rect x="108" y="97" width="1" height="2" fill="rgb(0,88,243)"/><rect x="100" y="98" width="2" height="1" fill="rgb(0,71,228)"/><rect x="102" y="98" width="4" height="1" fill="rgb(0,53,212)"/><rect x="106" y="98" width="2" height="1" fill="rgb(0,71,228)"/><rect x="100" y="99" width="1" height="1" fill="rgb(0,88,243)"/><rect x="101" y="99" width="6" height="1" fill="rgb(0,71,228)"/><rect x="107" y="99" width="1" height="1" fill="rgb(0,88,243)"/><rect x="100" y="100" width="2" height="1" fill="rgb(44,131,251)"/><rect x="102" y="100" width="4" height="1" fill="rgb(0,88,243)"/><rect x="106" y="100" width="2" height="1" fill="rgb(44,131,251)"/><rect x="102" y="101" width="4" height="1" fill="rgb(44,131,251)"/><rect x="37" y="108" width="4" height="1" fill="rgb(44,131,251)"/><rect x="85" y="108" width="4" height="1" fill="rgb(44,131,251)"/><rect x="36" y="109" width="1" height="1" fill="rgb(44,131,251)"/><rect x="37" y="109" width="1" height="1" fill="rgb(71,155,251)"/><rect x="38" y="109" width="2" height="1" fill="rgb(97,179,251)"/><rect x="40" y="109" width="1" height="1" fill="rgb(71,155,251)"/><rect x="41" y="109" width="1" height="1" fill="rgb(44,131,251)"/><rect x="83" y="109" width="2" height="1" fill="rgb(44,131,251)"/><rect x="85" y="109" width="1" height="1" fill="rgb(71,155,251)"/><rect x="86" y="109" width="2" height="1" fill="rgb(97,179,251)"/><rect x="88" y="109" width="1" height="1" fill="rgb(71,155,251)"/><rect x="89" y="109" width="2" height="1" fill="rgb(44,131,251)"/><rect x="35" y="110" width="2" height="1" fill="rgb(17,114,251)"/><rect x="37" y="110" width="1" height="1" fill="rgb(44,131,251)"/><rect x="38" y="110" width="2" height="1" fill="rgb(71,155,251)"/><rect x="40" y="110" width="1" height="1" fill="rgb(44,131,251)"/><rect x="41" y="110" width="2" height="1" fill="rgb(17,114,251)"/><rect x="83" y="110" width="1" height="1" fill="rgb(44,131,251)"/><rect x="84" y="110" width="6" height="1" fill="rgb(71,155,251)"/><rect x="90" y="110" width="1" height="1" fill="rgb(44,131,251)"/><rect x="36" y="111" width="2" height="1" fill="rgb(17,114,251)"/><rect x="38" y="111" width="2" height="1" fill="rgb(44,131,251)"/><rect x="40" y="111" width="2" height="1" fill="rgb(17,114,251)"/><rect x="82" y="111" width="1" height="1" fill="rgb(0,88,243)"/><rect x="83" y="111" width="1" height="1" fill="rgb(17,114,251)"/><rect x="84" y="111" width="1" height="1" fill="rgb(44,131,251)"/><rect x="85" y="111" width="4" height="1" fill="rgb(71,155,251)"/><rect x="89" y="111" width="1" height="1" fill="rgb(44,131,251)"/><rect x="90" y="111" width="1" height="1" fill="rgb(17,114,251)"/><rect x="91" y="111" width="1" height="1" fill="rgb(0,88,243)"/><rect x="35" y="111" width="1" height="2" fill="rgb(0,88,243)"/><rect x="42" y="111" width="1" height="2" fill="rgb(0,88,243)"/><rect x="36" y="112" width="1" height="1" fill="rgb(0,71,228)"/><rect x="37" y="112" width="4" height="1" fill="rgb(17,114,251)"/><rect x="41" y="112" width="1" height="1" fill="rgb(0,71,228)"/><rect x="82" y="112" width="1" height="1" fill="rgb(0,71,228)"/><rect x="83" y="112" width="2" height="1" fill="rgb(17,114,251)"/><rect x="85" y="112" width="4" height="1" fill="rgb(44,131,251)"/><rect x="89" y="112" width="2" height="1" fill="rgb(17,114,251)"/><rect x="91" y="112" width="1" height="1" fill="rgb(0,71,228)"/><rect x="35" y="113" width="1" height="1" fill="rgb(17,114,251)"/><rect x="36" y="113" width="1" height="1" fill="rgb(0,88,243)"/><rect x="37" y="113" width="1" height="1" fill="rgb(0,71,228)"/><rect x="38" y="113" width="2" height="1" fill="rgb(0,53,212)"/><rect x="40" y="113" width="1" height="1" fill="rgb(0,71,228)"/><rect x="41" y="113" width="1" height="1" fill="rgb(0,88,243)"/><rect x="42" y="113" width="1" height="1" fill="rgb(17,114,251)"/><rect x="83" y="113" width="1" height="1" fill="rgb(0,71,228)"/><rect x="84" y="113" width="1" height="1" fill="rgb(0,88,243)"/><rect x="85" y="113" width="4" height="1" fill="rgb(17,114,251)"/><rect x="89" y="113" width="1" height="1" fill="rgb(0,88,243)"/><rect x="90" y="113" width="1" height="1" fill="rgb(0,71,228)"/><rect x="82" y="113" width="1" height="2" fill="rgb(0,88,243)"/><rect x="91" y="113" width="1" height="2" fill="rgb(0,88,243)"/><rect x="36" y="114" width="1" height="1" fill="rgb(44,131,251)"/><rect x="37" y="114" width="1" height="1" fill="rgb(0,88,243)"/><rect x="38" y="114" width="2" height="1" fill="rgb(0,71,228)"/><rect x="40" y="114" width="1" height="1" fill="rgb(0,88,243)"/><rect x="41" y="114" width="1" height="1" fill="rgb(44,131,251)"/><rect x="60" y="114" width="4" height="1" fill="rgb(44,131,251)"/><rect x="83" y="114" width="2" height="1" fill="rgb(0,71,228)"/><rect x="85" y="114" width="4" height="1" fill="rgb(0,53,212)"/><rect x="89" y="114" width="2" height="1" fill="rgb(0,71,228)"/><rect x="37" y="115" width="4" height="1" fill="rgb(44,131,251)"/><rect x="58" y="115" width="2" height="1" fill="rgb(44,131,251)"/><rect x="60" y="115" width="1" height="1" fill="rgb(71,155,251)"/><rect x="61" y="115" width="2" height="1" fill="rgb(97,179,251)"/><rect x="63" y="115" width="1" height="1" fill="rgb(71,155,251)"/><rect x="64" y="115" width="2" height="1" fill="rgb(44,131,251)"/><rect x="83" y="115" width="1" height="1" fill="rgb(0,88,243)"/><rect x="84" y="115" width="6" height="1" fill="rgb(0,71,228)"/><rect x="90" y="115" width="1" height="1" fill="rgb(0,88,243)"/><rect x="58" y="116" width="1" height="1" fill="rgb(44,131,251)"/><rect x="59" y="116" width="6" height="1" fill="rgb(71,155,251)"/><rect x="65" y="116" width="1" height="1" fill="rgb(44,131,251)"/><rect x="83" y="116" width="2" height="1" fill="rgb(44,131,251)"/><rect x="85" y="116" width="4" height="1" fill="rgb(0,88,243)"/><rect x="89" y="116" width="2" height="1" fill="rgb(44,131,251)"/><rect x="57" y="117" width="1" height="1" fill="rgb(0,88,243)"/><rect x="58" y="117" width="1" height="1" fill="rgb(17,114,251)"/><rect x="59" y="117" width="1" height="1" fill="rgb(44,131,251)"/><rect x="60" y="117" width="4" height="1" fill="rgb(71,155,251)"/><rect x="64" y="117" width="1" height="1" fill="rgb(44,131,251)"/><rect x="65" y="117" width="1" height="1" fill="rgb(17,114,251)"/><rect x="66" y="117" width="1" height="1" fill="rgb(0,88,243)"/><rect x="85" y="117" width="4" height="1" fill="rgb(44,131,251)"/><rect x="57" y="118" width="1" height="1" fill="rgb(0,71,228)"/><rect x="58" y="118" width="2" height="1" fill="rgb(17,114,251)"/><rect x="60" y="118" width="4" height="1" fill="rgb(44,131,251)"/><rect x="64" y="118" width="2" height="1" fill="rgb(17,114,251)"/><rect x="66" y="118" width="1" height="1" fill="rgb(0,71,228)"/><rect x="58" y="119" width="1" height="1" fill="rgb(0,71,228)"/><rect x="59" y="119" width="1" height="1" fill="rgb(0,88,243)"/><rect x="60" y="119" width="4" height="1" fill="rgb(17,114,251)"/><rect x="64" y="119" width="1" height="1" fill="rgb(0,88,243)"/><rect x="65" y="119" width="1" height="1" fill="rgb(0,71,228)"/><rect x="57" y="119" width="1" height="2" fill="rgb(0,88,243)"/><rect x="66" y="119" width="1" height="2" fill="rgb(0,88,243)"/><rect x="58" y="120" width="2" height="1" fill="rgb(0,71,228)"/><rect x="60" y="120" width="4" height="1" fill="rgb(0,53,212)"/><rect x="64" y="120" width="2" height="1" fill="rgb(0,71,228)"/><rect x="58" y="121" width="1" height="1" fill="rgb(0,88,243)"/><rect x="59" y="121" width="6" height="1" fill="rgb(0,71,228)"/><rect x="65" y="121" width="1" height="1" fill="rgb(0,88,243)"/><rect x="58" y="122" width="2" height="1" fill="rgb(44,131,251)"/><rect x="60" y="122" width="4" height="1" fill="rgb(0,88,243)"/><rect x="64" y="122" width="2" height="1" fill="rgb(44,131,251)"/><rect x="60" y="123" width="4" height="1" fill="rgb(44,131,251)"/></svg>