<svg xmlns="http://www.w3.org/2000/svg" width="128" height="144" viewBox="0 0 128 144"><rect x="61" y="23" width="4" height="1" fill="rgb(44,131,251)"/><rect x="59" y="24" width="2" height="1" fill="rgb(44,131,251)"/><rect x="61" y="24" width="1" height="1" fill="rgb(71,155,251)"/><rect x="62" y="24" width="2" height="1" fill="rgb(97,179,251)"/><rect x="64" y="24" width="1" height="1" fill="rgb(71,155,251)"/><rect x="65" y="24" width="2" height="1" fill="rgb(44,131,251)"/><rect x="59" y="25" width="1" height="1" fill="rgb(44,131,251)"/><rect x="60" y="25" width="6" height="1" fill="rgb(71,155,251)"/><rect x="66" y="25" width="1" height="1" fill="rgb(44,131,251)"/><rect x="58" y="26" width="1" height="1" fill="rgb(0,88,243)"/><rect x="59" y="26" width="1" height="1" fill="rgb(17,114,251)"/><rect x="60" y="26" width="1" height="1" fill="rgb(44,131,251)"/><rect x="61" y="26" width="4" height="1" fill="rgb(71,155,251)"/><rect x="65" y="26" width="1" height="1" fill="rgb(44,131,251)"/><rect x="66" y="26" width="1" height="1" fill="rgb(17,114,251)"/><rect x="67" y="26" width="1" height="1" fill="rgb(0,88,243)"/><rect x="58" y="27" width="1" height="1" fill="rgb(0,71,228)"/><rect x="59" y="27" width="2" height="1" fill="rgb(17,114,251)"/><rect x="61" y="27" width="4" height="1" fill="rgb(44,131,251)"/><rect x="65" y="27" width="2" height="1" fill="rgb(17,114,251)"/><rect x="67" y="27" width="1" height="1" fill="rgb(0,71,228)"/><rect x="59" y="28" width="1" height="1" fill="rgb(0,71,228)"/><rect x="60" y="28" width="1" height="1" fill="rgb(0,88,243)"/><rect x="61" y="28" width="4" height="1" fill="rgb(17,114,251)"/><rect x="65" y="28" width="1" height="1" fill="rgb(0,88,243)"/><rect x="66" y="28" width="1" height="1" fill="rgb(0,71,228)"/><rect x="58" y="28" width="1" height="2" fill="rgb(0,88,243)"/><rect x="67" y="28" width="1" height="2" fill="rgb(0,88,243)"/><rect x="59" y="29" width="2" height="1" fill="rgb(0,71,228)"/><rect x="61" y="29" width="4" height="1" fill="rgb(0,53,212)"/><rect x="65" y="29" width="2" height="1" fill="rgb(0,71,228)"/><rect x="85" y="29" width="4" height="1" fill="rgb(44,131,251)"/><rect x="38" y="30" width="4" height="1" fill="rgb(44,131,251)"/><rect x="59" y="30" width="1" height="1" fill="rgb(0,88,243)"/><rect x="60" y="30" width="6" height="1" fill="rgb(0,71,228)"/><rect x="66" y="30" width="1" height="1" fill="rgb(0,88,243)"/><rect x="83" y="30" width="2" height="1" fill="rgb(44,131,251)"/><rect x="85" y="30" width="1" height="1" fill="rgb(71,155,251)"/><rect x="86" y="30" width="2" height="1" fill="rgb(97,179,251)"/><rect x="88" y="30" width="1" height="1" fill="rgb(71,155,251)"/><rect x="89" y="30" width="2" height="1" fill="rgb(44,131,251)"/><rect x="36" y="31" width="2" height="1" fill="rgb(44,131,251)"/><rect x="38" y="31" width="1" height="1" fill="rgb(71,155,251)"/><rect x="39" y="31" width="2" height="1" fill="rgb(97,179,251)"/><rect x="41" y="31" width="1" height="1" fill="rgb(71,155,251)"/><rect x="42" y="31" width="2" height="1" fill="rgb(44,131,251)"/><rect x="59" y="31" width="2" height="1" fill="rgb(44,131,251)"/><rect x="61" y="31" width="4" height="1" fill="rgb(0,88,243)"/><rect x="65" y="31" width="2" height="1" fill="rgb(44,131,251)"/><rect x="83" y="31" width="1" height="1" fill="rgb(44,131,251)"/><rect x="84" y="31" width="6" height="1" fill="rgb(71,155,251)"/><rect x="90" y="31" width="1" height="1" fill="rgb(44,131,251)"/><rect x="36" y="32" width="1" height="1" fill="rgb(44,131,251)"/><rect x="37" y="32" width="6" height="1" fill="rgb(71,155,251)"/><rect x="43" y="32" width="1" height="1" fill="rgb(44,131,251)"/><rect x="61" y="32" width="4" height="1" fill="rgb(44,131,251)"/><rect x="82" y="32" width="1" height="1" fill="rgb(0,88,243)"/><rect x="83" y="32" width="1" height="1" fill="rgb(17,114,251)"/><rect x="84" y="32" width="1" height="1" fill="rgb(44,131,251)"/><rect x="85" y="32" width="4" height="1" fill="rgb(71,155,251)"/><rect x="89" y="32" width="1" height="1" fill="rgb(44,131,251)"/><rect x="90" y="32" width="1" height="1" fill="rgb(17,114,251)"/><rect x="91" y="32" width="1" height="1" fill="rgb(0,88,243)"/><rect x="35" y="33" width="1" height="1" fill="rgb(0,88,243)"/><rect x="36" y="33" width="1" height="1" fill="rgb(17,114,251)"/><rect x="37" y="33" width="1" height="1" fill="rgb(44,131,251)"/><rect x="38" y="33" width="4" height="1" fill="rgb(71,155,251)"/><rect x="42" y="33" width="1" height="1" fill="rgb(44,131,251)"/><rect x="43" y="33" width="1" height="1" fill="rgb(17,114,251)"/><rect x="44" y="33" width="1" height="1" fill="rgb(0,88,243)"/><rect x="82" y="33" width="1" height="1" fill="rgb(0,71,228)"/><rect x="83" y="33" width="2" height="1" fill="rgb(17,114,251)"/><rect x="85" y="33" width="4" height="1" fill="rgb(44,131,251)"/><rect x="89" y="33" width="2" height="1" fill="rgb(17,114,251)"/><rect x="91" y="33" width="1" height="1" fill="rgb(0,71,228)"/><rect x="35" y="34" width="1" height="1" fill="rgb(0,71,228)"/><rect x="36" y="34" width="2" height="1" fill="rgb(17,114,251)"/><rect x="38" y="34" width="4" height="1" fill="rgb(44,131,251)"/><rect x="42" y="34" width="2" height="1" fill="rgb(17,114,251)"/><rect x="44" y="34" width="1" height="1" fill="rgb(0,71,228)"/><rect x="83" y="34" width="1" height="1" fill="rgb(0,71,228)"/><rect x="84" y="34" width="1" height="1" fill="rgb(0,88,243)"/><rect x="85" y="34" width="4" height="1" fill="rgb(17,114,251)"/><rect x="89" y="34" width="1" height="1" fill="rgb(0,88,243)"/><rect x="90" y="34" width="1" height="1" fill="rgb(0,71,228)"/><rect x="82" y="34" width="1" height="2" fill="rgb(0,88,243)"/><rect x="91" y="34" width="1" height="2" fill="rgb(0,88,243)"/><rect x="36" y="35" width="1" height="1" fill="rgb(0,71,228)"/><rect x="37" y="35" width="1" height="1" fill="rgb(0,88,243)"/><rect x="38" y="35" width="4" height="1" fill="rgb(17,114,251)"/><rect x="42" y="35" width="1" height="1" fill="rgb(0,88,243)"/><rect x="43" y="35" width="1" height="1" fill="rgb(0,71,228)"/><rect x="83" y="35" width="2" height="1" fill="rgb(0,71,228)"/><rect x="85" y="35" width="4" height="1" fill="rgb(0,53,212)"/><rect x="89" y="35" width="2" height="1" fill="rgb(0,71,228)"/><rect x="35" y="35" width="1" height="2" fill="rgb(0,88,243)"/><rect x="44" y="35" width="1" height="2" fill="rgb(0,88,243)"/><rect x="36" y="36" width="2" height="1" fill="rgb(0,71,228)"/><rect x="38" y="36" width="4" height="1" fill="rgb(0,53,212)"/><rect x="42" y="36" width="2" height="1" fill="rgb(0,71,228)"/><rect x="83" y="36" width="1" height="1" fill="rgb(0,88,243)"/><rect x="84" y="36" width="6" height="1" fill="rgb(0,71,228)"/><rect x="90" y="36" width="1" height="1" fill="rgb(0,88,243)"/><rect x="36" y="37" width="1" height="1" fill="rgb(0,88,243)"/><rect x="37" y="37" width="6" height="1" fill="rgb(0,71,228)"/><rect x="43" y="37" width="1" height="1" fill="rgb(0,88,243)"/><rect x="83" y="37" width="2" height="1" fill="rgb(44,131,251)"/><rect x="85" y="37" width="4" height="1" fill="rgb(0,88,243)"/><rect x="89" y="37" width="2" height="1" fill="rgb(44,131,251)"/><rect x="36" y="38" width="2" height="1" fill="rgb(44,131,251)"/><rect x="38" y="38" width="4" height="1" fill="rgb(0,88,243)"/><rect x="42" y="38" width="2" height="1" fill="rgb(44,131,251)"/><rect x="85" y="38" width="4" height="1" fill="rgb(44,131,251)"/><rect x="38" y="39" width="4" height="1" fill="rgb(44,131,251)"/><rect x="99" y="43" width="4" height="1" fill="rgb(44,131,251)"/><rect x="24" y="44" width="4" height="1" fill="rgb(44,131,251)"/><rect x="97" y="44" width="2" height="1" fill="rgb(44,131,251)"/><rect x="99" y="44" width="1" height="1" fill="rgb(71,155,251)"/><rect x="100" y="44" width="2" height="1" fill="rgb(97,179,251)"/><rect x="102" y="44" width="1" height="1" fill="rgb(71,155,251)"/><rect x="103" y="44" width="2" height="1" fill="rgb(44,131,251)"/><rect x="22" y="45" width="2" height="1" fill="rgb(44,131,251)"/><rect x="24" y="45" width="1" height="1" fill="rgb(71,155,251)"/><rect x="25" y="45" width="2" height="1" fill="rgb(97,179,251)"/><rect x="27" y="45" width="1" height="1" fill="rgb(71,155,251)"/><rect x="28" y="45" width="2" height="1" fill="rgb(44,131,251)"/><rect x="97" y="45" width="1" height="1" fill="rgb(44,131,251)"/><rect x="98" y="45" width="6" height="1" fill="rgb(71,155,251)"/><rect x="104" y="45" width="1" height="1" fill="rgb(44,131,251)"/><rect x="22" y="46" width="1" height="1" fill="rgb(44,131,251)"/><rect x="23" y="46" width="6" height="1" fill="rgb(71,155,251)"/><rect x="29" y="46" width="1" height="1" fill="rgb(44,131,251)"/><rect x="96" y="46" width="1" height="1" fill="rgb(0,88,243)"/><rect x="97" y="46" width="1" height="1" fill="rgb(17,114,251)"/><rect x="98" y="46" width="1" height="1" fill="rgb(44,131,251)"/><rect x="99" y="46" width="4" height="1" fill="rgb(71,155,251)"/><rect x="103" y="46" width="1" height="1" fill="rgb(44,131,251)"/><rect x="104" y="46" width="1" height="1" fill="rgb(17,114,251)"/><rect x="105" y="46" width="1" height="1" fill="rgb(0,88,243)"/><rect x="21" y="47" width="1" height="1" fill="rgb(0,88,243)"/><rect x="22" y="47" width="1" height="1" fill="rgb(17,114,251)"/><rect x="23" y="47" width="1" height="1" fill="rgb(44,131,251)"/><rect x="24" y="47" width="4" height="1" fill="rgb(71,155,251)"/><rect x="28" y="47" width="1" height="1" fill="rgb(44,131,251)"/><rect x="29" y="47" width="1" height="1" fill="rgb(17,114,251)"/><rect x="30" y="47" width="1" height="1" fill="rgb(0,88,243)"/><rect x="96" y="47" width="1" height="1" fill="rgb(0,71,228)"/><rect x="97" y="47" width="2" height="1" fill="rgb(17,114,251)"/><rect x="99" y="47" width="4" height="1" fill="rgb(44,131,251)"/><rect x="103" y="47" width="2" height="1" fill="rgb(17,114,251)"/><rect x="105" y="47" width="1" height="1" fill="rgb(0,71,228)"/><rect x="21" y="48" width="1" height="1" fill="rgb(0,71,228)"/><rect x="22" y="48" width="2" height="1" fill="rgb(17,114,251)"/><rect x="24" y="48" width="4" height="1" fill="rgb(44,131,251)"/><rect x="28" y="48" width="2" height="1" fill="rgb(17,114,251)"/><rect x="30" y="48" width="1" height="1" fill="rgb(0,71,228)"/><rect x="97" y="48" width="1" height="1" fill="rgb(0,71,228)"/><rect x="98" y="48" width="1" height="1" fill="rgb(0,88,243)"/><rect x="99" y="48" width="4" height="1" fill="rgb(17,114,251)"/><rect x="103" y="48" width="1" height="1" fill="rgb(0,88,243)"/><rect x="104" y="48" width="1" height="1" fill="rgb(0,71,228)"/><rect x="96" y="48" width="1" height="2" fill="rgb(0,88,243)"/><rect x="105" y="48" width="1" height="2" fill="rgb(0,88,243)"/><rect x="22" y="49" width="1" height="1" fill="rgb(0,71,228)"/><rect x="23" y="49" width="1" height="1" fill="rgb(0,88,243)"/><rect x="24" y="49" width="4" height="1" fill="rgb(17,114,251)"/><rect x="28" y="49" width="1" height="1" fill="rgb(0,88,243)"/><rect x="29" y="49" width="1" height="1" fill="rgb(0,71,228)"/><rect x="97" y="49" width="2" height="1" fill="rgb(0,71,228)"/><rect x="99" y="49" width="4" height="1" fill="rgb(0,53,212)"/><rect x="103" y="49" width="2" height="1" fill="rgb(0,71,228)"/><rect x="21" y="49" width="1" height="2" fill="rgb(0,88,243)"/><rect x="30" y="49" width="1" height="2" fill="rgb(0,88,243)"/><rect x="22" y="50" width="2" height="1" fill="rgb(0,71,228)"/><rect x="24" y="50" width="4" height="1" fill="rgb(0,53,212)"/><rect x="28" y="50" width="2" height="1" fill="rgb(0,71,228)"/><rect x="97" y="50" width="1" height="1" fill="rgb(0,88,243)"/><rect x="98" y="50" width="6" height="1" fill="rgb(0,71,228)"/><rect x="104" y="50" width="1" height="1" fill="rgb(0,88,243)"/><rect x="22" y="51" width="1" height="1" fill="rgb(0,88,243)"/><rect x="23" y="51" width="6" height="1" fill="rgb(0,71,228)"/><rect x="29" y="51" width="1" height="1" fill="rgb(0,88,243)"/><rect x="97" y="51" width="2" height="1" fill="rgb(44,131,251)"/><rect x="99" y="51" width="4" height="1" fill="rgb(0,88,243)"/><rect x="103" y="51" width="2" height="1" fill="rgb(44,131,251)"/><rect x="22" y="52" width="2" height="1" fill="rgb(44,131,251)"/><rect x="24" y="52" width="4" height="1" fill="rgb(0,88,243)"/><rect x="28" y="52" width="2" height="1" fill="rgb(44,131,251)"/><rect x="99" y="52" width="4" height="1" fill="rgb(44,131,251)"/><rect x="24" y="53" width="4" height="1" fill="rgb(44,131,251)"/><rect x="106" y="66" width="4" height="1" fill="rgb(44,131,251)"/><rect x="104" y="67" width="2" height="1" fill="rgb(44,131,251)"/><rect x="106" y="67" width="1" height="1" fill="rgb(71,155,251)"/><rect x="107" y="67" width="2" height="1" fill="rgb(97,179,251)"/><rect x="109" y="67" width="1" height="1" fill="rgb(71,155,251)"/><rect x="110" y="67" width="2" height="1" fill="rgb(44,131,251)"/><rect x="18" y="68" width="4" height="1" fill="rgb(44,131,251)"/><rect x="104" y="68" width="1" height="1" fill="rgb(44,131,251)"/><rect x="105" y="68" width="6" height="1" fill="rgb(71,155,251)"/><rect x="111" y="68" width="1" height="1" fill="rgb(44,131,251)"/><rect x="16" y="69" width="2" height="1" fill="rgb(44,131,251)"/><rect x="18" y="69" width="1" height="1" fill="rgb(71,155,251)"/><rect x="19" y="69" width="2" height="1" fill="rgb(97,179,251)"/><rect x="21" y="69" width="1" height="1" fill="rgb(71,155,251)"/><rect x="22" y="69" width="2" height="1" fill="rgb(44,131,251)"/><rect x="103" y="69" width="1" height="1" fill="rgb(0,88,243)"/><rect x="104" y="69" width="1" height="1" fill="rgb(17,114,251)"/><rect x="105" y="69" width="1" height="1" fill="rgb(44,131,251)"/><rect x="106" y="69" width="4" height="1" fill="rgb(71,155,251)"/><rect x="110" y="69" width="1" height="1" fill="rgb(44,131,251)"/><rect x="111" y="69" width="1" height="1" fill="rgb(17,114,251)"/><rect x="112" y="69" width="1" height="1" fill="rgb(0,88,243)"/><rect x="16" y="70" width="1" height="1" fill="rgb(44,131,251)"/><rect x="17" y="70" width="6" height="1" fill="rgb(71,155,251)"/><rect x="23" y="70" width="1" height="1" fill="rgb(44,131,251)"/><rect x="103" y="70" width="1" height="1" fill="rgb(0,71,228)"/><rect x="104" y="70" width="2" height="1" fill="rgb(17,114,251)"/><rect x="106" y="70" width="4" height="1" fill="rgb(44,131,251)"/><rect x="110" y="70" width="2" height="1" fill="rgb(17,114,251)"/><rect x="112" y="70" width="1" height="1" fill="rgb(0,71,228)"/><rect x="15" y="71" width="1" height="1" fill="rgb(0,88,243)"/><rect x="16" y="71" width="1" height="1" fill="rgb(17,114,251)"/><rect x="17" y="71" width="1" height="1" fill="rgb(44,131,251)"/><rect x="18" y="71" width="4" height="1" fill="rgb(71,155,251)"/><rect x="22" y="71" width="1" height="1" fill="rgb(44,131,251)"/><rect x="23" y="71" width="1" height="1" fill="rgb(17,114,251)"/><rect x="24" y="71" width="1" height="1" fill="rgb(0,88,243)"/><rect x="104" y="71" width="1" height="1" fill="rgb(0,71,228)"/><rect x="105" y="71" width="1" height="1" fill="rgb(0,88,243)"/><rect x="106" y="71" width="4" height="1" fill="rgb(17,114,251)"/><rect x="110" y="71" width="1" height="1" fill="rgb(0,88,243)"/><rect x="111" y="71" width="1" height="1" fill="rgb(0,71,228)"/><rect x="103" y="71" width="1" height="2" fill="rgb(0,88,243)"/><rect x="112" y="71" width="1" height="2" fill="rgb(0,88,243)"/><rect x="15" y="72" width="1" height="1" fill="rgb(0,71,228)"/><rect x="16" y="72" width="2" height="1" fill="rgb(17,114,251)"/><rect x="18" y="72" width="4" height="1" fill="rgb(44,131,251)"/><rect x="22" y="72" width="2" height="1" fill="rgb(17,114,251)"/><rect x="24" y="72" width="1" height="1" fill="rgb(0,71,228)"/><rect x="104" y="72" width="2" height="1" fill="rgb(0,71,228)"/><rect x="106" y="72" width="4" height="1" fill="rgb(0,53,212)"/><rect x="110" y="72" width="2" height="1" fill="rgb(0,71,228)"/><rect x="16" y="73" width="1" height="1" fill="rgb(0,71,228)"/><rect x="17" y="73" width="1" height="1" fill="rgb(0,88,243)"/><rect x="18" y="73" width="4" height="1" fill="rgb(17,114,251)"/><rect x="22" y="73" width="1" height="1" fill="rgb(0,88,243)"/><rect x="23" y="73" width="1" height="1" fill="rgb(0,71,228)"/><rect x="104" y="73" width="1" height="1" fill="rgb(0,88,243)"/><rect x="105" y="73" width="6" height="1" fill="rgb(0,71,228)"/><rect x="111" y="73" width="1" height="1" fill="rgb(0,88,243)"/><rect x="15" y="73" width="1" height="2" fill="rgb(0,88,243)"/><rect x="24" y="73" width="1" height="2" fill="rgb(0,88,243)"/><rect x="16" y="74" width="2" height="1" fill="rgb(0,71,228)"/><rect x="18" y="74" width="4" height="1" fill="rgb(0,53,212)"/><rect x="22" y="74" width="2" height="1" fill="rgb(0,71,228)"/><rect x="104" y="74" width="2" height="1" fill="rgb(44,131,251)"/><rect x="106" y="74" width="4" height="1" fill="rgb(0,88,243)"/><rect x="110" y="74" width="2" height="1" fill="rgb(44,131,251)"/><rect x="16" y="75" width="1" height="1" fill="rgb(0,88,243)"/><rect x="17" y="75" width="6" height="1" fill="rgb(0,71,228)"/><rect x="23" y="75" width="1" height="1" fill="rgb(0,88,243)"/><rect x="106" y="75" width="4" height="1" fill="rgb(44,131,251)"/><rect x="16" y="76" width="2" height="1" fill="rgb(44,131,251)"/><rect x="18" y="76" width="4" height="1" fill="rgb(0,88,243)"/><rect x="22" y="76" width="2" height="1" fill="rgb(44,131,251)"/><rect x="18" y="77" width="4" height="1" fill="rgb(44,131,251)"/><rect x="100" y="90" width="4" height="1" fill="rgb(44,131,251)"/><rect x="25" y="91" width="4" height="1" fill="rgb(44,131,251)"/><rect x="98" y="91" width="2" height="1" fill="rgb(44,131,251)"/><rect x="100" y="91" width="1" height="1" fill="rgb(71,155,251)"/><rect x="101" y="91" width="2" height="1" fill="rgb(97,179,251)"/><rect x="103" y="91" width="1" height="1" fill="rgb(71,155,251)"/><rect x="104" y="91" width="2" height="1" fill="rgb(44,131,251)"/><rect x="23" y="92" width="2" height="1" fill="rgb(44,131,251)"/><rect x="25" y="92" width="1" height="1" fill="rgb(71,155,251)"/><rect x="26" y="92" width="2" height="1" fill="rgb(97,179,251)"/><rect x="28" y="92" width="1" height="1" fill="rgb(71,155,251)"/><rect x="29" y="92" width="2" height="1" fill="rgb(44,131,251)"/><rect x="98" y="92" width="1" height="1" fill="rgb(44,131,251)"/><rect x="99" y="92" width="6" height="1" fill="rgb(71,155,251)"/><rect x="105" y="92" width="1" height="1" fill="rgb(44,131,251)"/><rect x="23" y="93" width="1" height="1" fill="rgb(44,131,251)"/><rect x="24" y="93" width="6" height="1" fill="rgb(71,155,251)"/><rect x="30" y="93" width="1" height="1" fill="rgb(44,131,251)"/><rect x="97" y="93" width="1" height="1" fill="rgb(0,88,243)"/><rect x="98" y="93" width="1" height="1" fill="rgb(17,114,251)"/><rect x="99" y="93" width="1" height="1" fill="rgb(44,131,251)"/><rect x="100" y="93" width="4" height="1" fill="rgb(71,155,251)"/><rect x="104" y="93" width="1" height="1" fill="rgb(44,131,251)"/><rect x="105" y="93" width="1" height="1" fill="rgb(17,114,251)"/><rect x="106" y="93" width="1" height="1" fill="rgb(0,88,243)"/><rect x="22" y="94" width="1" height="1" fill="rgb(0,88,243)"/><rect x="23" y="94" width="1" height="1" fill="rgb(17,114,251)"/><rect x="24" y="94" width="1" height="1" fill="rgb(44,131,251)"/><rect x="25" y="94" width="4" height="1" fill="rgb(71,155,251)"/><rect x="29" y="94" width="1" height="1" fill="rgb(44,131,251)"/><rect x="30" y="94" width="1" height="1" fill="rgb(17,114,251)"/><rect x="31" y="94" width="1" height="1" fill="rgb(0,88,243)"/><rect x="97" y="94" width="1" height="1" fill="rgb(0,71,228)"/><rect x="98" y="94" width="2" height="1" fill="rgb(17,114,251)"/><rect x="100" y="94" width="4" height="1" fill="rgb(44,131,251)"/><rect x="104" y="94" width="2" height="1" fill="rgb(17,114,251)"/><rect x="106" y="94" width="1" height="1" fill="rgb(0,71,228)"/><rect x="22" y="95" width="1" height="1" fill="rgb(0,71,228)"/><rect x="23" y="95" width="2" height="1" fill="rgb(17,114,251)"/><rect x="25" y="95" width="4" height="1" fill="rgb(44,131,251)"/><rect x="29" y="95" width="2" height="1" fill="rgb(17,114,251)"/><rect x="31" y="95" width="1" height="1" fill="rgb(0,71,228)"/><rect x="98" y="95" width="1" height="1" fill="rgb(0,71,228)"/><rect x="99" y="95" width="1" height="1" fill="rgb(0,88,243)"/><rect x="100" y="95" width="4" height="1" fill="rgb(17,114,251)"/><rect x="104" y="95" width="1" height="1" fill="rgb(0,88,243)"/><rect x="105" y="95" width="1" height="1" fill="rgb(0,71,228)"/><rect x="97" y="95" width="1" height="2" fill="rgb(0,88,243)"/><rect x="106" y="95" width="1" height="2" fill="rgb(0,88,243)"/><rect x="23" y="96" width="1" height="1" fill="rgb(0,71,228)"/><rect x="24" y="96" width="1" height="1" fill="rgb(0,88,243)"/><rect x="25" y="96" width="4" height="1" fill="rgb(17,114,251)"/><rect x="29" y="96" width="1" height="1" fill="rgb(0,88,243)"/><rect x="30" y="96" width="1" height="1" fill="rgb(0,71,228)"/><rect x="98" y="96" width="2" height="1" fill="rgb(0,71,228)"/><rect x="100" y="96" width="4" height="1" fill="rgb(0,53,212)"/><rect x="104" y="96" width="2" height="1" fill="rgb(0,71,228)"/><rect x="22" y="96" width="1" height="2" fill="rgb(0,88,243)"/><rect x="31" y="96" width="1" height="2" fill="rgb(0,88,243)"/><rect x="23" y="97" width="2" height="1" fill="rgb(0,71,228)"/><rect x="25" y="97" width="4" height="1" fill="rgb(0,53,212)"/><rect x="29" y="97" width="2" height="1" fill="rgb(0,71,228)"/><rect x="98" y="97" width="1" height="1" fill="rgb(0,88,243)"/><rect x="99" y="97" width="6" height="1" fill="rgb(0,71,228)"/><rect x="105" y="97" width="1" height="1" fill="rgb(0,88,243)"/><rect x="23" y="98" width="1" height="1" fill="rgb(0,88,243)"/><rect x="24" y="98" width="6" height="1" fill="rgb(0,71,228)"/><rect x="30" y="98" width="1" height="1" fill="rgb(0,88,243)"/><rect x="98" y="98" width="2" height="1" fill="rgb(44,131,251)"/><rect x="100" y="98" width="4" height="1" fill="rgb(0,88,243)"/><rect x="104" y="98" width="2" height="1" fill="rgb(44,131,251)"/><rect x="23" y="99" width="2" height="1" fill="rgb(44,131,251)"/><rect x="25" y="99" width="4" height="1" fill="rgb(0,88,243)"/><rect x="29" y="99" width="2" height="1" fill="rgb(44,131,251)"/><rect x="100" y="99" width="4" height="1" fill="rgb(44,131,251)"/><rect x="25" y="100" width="4" height="1" fill="rgb(44,131,251)"/><rect x="86" y="104" width="4" height="1" fill="rgb(44,131,251)"/><rect x="39" y="105" width="4" height="1" fill="rgb(44,131,251)"/><rect x="84" y="105" width="2" height="1" fill="rgb(44,131,251)"/><rect x="86" y="105" width="1" height="1" fill="rgb(71,155,251)"/><rect x="87" y="105" width="2" height="1" fill="rgb(97,179,251)"/><rect x="89" y="105" width="1" height="1" fill="rgb(71,155,251)"/><rect x="90" y="105" width="2" height="1" fill="rgb(44,131,251)"/><rect x="37" y="106" width="2" height="1" fill="rgb(44,131,251)"/><rect x="39" y="106" width="1" height="1" fill="rgb(71,155,251)"/><rect x="40" y="106" width="2" height="1" fill="rgb(97,179,251)"/><rect x="42" y="106" width="1" height="1" fill="rgb(71,155,251)"/><rect x="43" y="106" width="2" height="1" fill="rgb(44,131,251)"/><rect x="84" y="106" width="1" height="1" fill="rgb(44,131,251)"/><rect x="85" y="106" width="6" height="1" fill="rgb(71,155,251)"/><rect x="91" y="106" width="1" height="1" fill="rgb(44,131,251)"/><rect x="37" y="107" width="1" height="1" fill="rgb(44,131,251)"/><rect x="38" y="107" width="6" height="1" fill="rgb(71,155,251)"/><rect x="44" y="107" width="1" height="1" fill="rgb(44,131,251)"/><rect x="83" y="107" width="1" height="1" fill="rgb(0,88,243)"/><rect x="84" y="107" width="1" height="1" fill="rgb(17,114,251)"/><rect x="85" y="107" width="1" height="1" fill="rgb(44,131,251)"/><rect x="86" y="107" width="4" height="1" fill="rgb(71,155,251)"/><rect x="90" y="107" width="1" height="1" fill="rgb(44,131,251)"/><rect x="91" y="107" width="1" height="1" fill="rgb(17,114,251)"/><rect x="92" y="107" width="1" height="1" fill="rgb(0,88,243)"/><rect x="36" y="108" width="1" height="1" fill="rgb(0,88,243)"/><rect x="37" y="108" width="1" height="1" fill="rgb(17,114,251)"/><rect x="38" y="108" width="1" height="1" fill="rgb(44,131,251)"/><rect x="39" y="108" width="4" height="1" fill="rgb(71,155,251)"/><rect x="43" y="108" width="1" height="1" fill="rgb(44,131,251)"/><rect x="44" y="108" width="1" height="1" fill="rgb(17,114,251)"/><rect x="45" y="108" width="1" height="1" fill="rgb(0,88,243)"/><rect x="83" y="108" width="1" height="1" fill="rgb(0,71,228)"/><rect x="84" y="108" width="2" height="1" fill="rgb(17,114,251)"/><rect x="86" y="108" width="4" height="1" fill="rgb(44,131,251)"/><rect x="90" y="108" width="2" height="1" fill="rgb(17,114,251)"/><rect x="92" y="108" width="1" height="1" fill="rgb(0,71,228)"/><rect x="36" y="109" width="1" height="1" fill="rgb(0,71,228)"/><rect x="37" y="109" width="2" height="1" fill="rgb(17,114,251)"/><rect x="39" y="109" width="4" height="1" fill="rgb(44,131,251)"/><rect x="43" y="109" width="2" height="1" fill="rgb(17,114,251)"/><rect x="45" y="109" width="1" height="1" fill="rgb(0,71,228)"/><rect x="84" y="109" width="1" height="1" fill="rgb(0,71,228)"/><rect x="85" y="109" width="1" height="1" fill="rgb(0,88,243)"/><rect x="86" y="109" width="4" height="1" fill="rgb(17,114,251)"/><rect x="90" y="109" width="1" height="1" fill="rgb(0,88,243)"/><rect x="91" y="109" width="1" height="1" fill="rgb(0,71,228)"/><rect x="83" y="109" width="1" height="2" fill="rgb(0,88,243)"/><rect x="92" y="109" width="1" height="2" fill="rgb(0,88,243)"/><rect x="37" y="110" width="1" height="1" fill="rgb(0,71,228)"/><rect x="38" y="110" width="1" height="1" fill="rgb(0,88,243)"/><rect x="39" y="110" width="4" height="1" fill="rgb(17,114,251)"/><rect x="43" y="110" width="1" height="1" fill="rgb(0,88,243)"/><rect x="44" y="110" width="1" height="1" fill="rgb(0,71,228)"/><rect x="84" y="110" width="2" height="1" fill="rgb(0,71,228)"/><rect x="86" y="110" width="4" height="1" fill="rgb(0,53,212)"/><rect x="90" y="110" width="2" height="1" fill="rgb(0,71,228)"/><rect x="36" y="110" width="1" height="2" fill="rgb(0,88,243)"/><rect x="45" y="110" width="1" height="2" fill="rgb(0,88,243)"/><rect x="37" y="111" width="2" height="1" fill="rgb(0,71,228)"/><rect x="39" y="111" width="4" height="1" fill="rgb(0,53,212)"/><rect x="43" y="111" width="2" height="1" fill="rgb(0,71,228)"/><rect x="63" y="111" width="4" height="1" fill="rgb(44,131,251)"/><rect x="84" y="111" width="1" height="1" fill="rgb(0,88,243)"/><rect x="85" y="111" width="6" height="1" fill="rgb(0,71,228)"/><rect x="91" y="111" width="1" height="1" fill="rgb(0,88,243)"/><rect x="37" y="112" width="1" height="1" fill="rgb(0,88,243)"/><rect x="38" y="112" width="6" height="1" fill="rgb(0,71,228)"/><rect x="44" y="112" width="1" height="1" fill="rgb(0,88,243)"/><rect x="61" y="112" width="2" height="1" fill="rgb(44,131,251)"/><rect x="63" y="112" width="1" height="1" fill="rgb(71,155,251)"/><rect x="64" y="112" width="2" height="1" fill="rgb(97,179,251)"/><rect x="66" y="112" width="1" height="1" fill="rgb(71,155,251)"/><rect x="67" y="112" width="2" height="1" fill="rgb(44,131,251)"/><rect x="84" y="112" width="2" height="1" fill="rgb(44,131,251)"/><rect x="86" y="112" width="4" height="1" fill="rgb(0,88,243)"/><rect x="90" y="112" width="2" height="1" fill="rgb(44,131,251)"/><rect x="37" y="113" width="2" height="1" fill="rgb(44,131,251)"/><rect x="39" y="113" width="4" height="1" fill="rgb(0,88,243)"/><rect x="43" y="113" width="2" height="1" fill="rgb(44,131,251)"/><rect x="61" y="113" width="1" height="1" fill="rgb(44,131,251)"/><rect x="62" y="113" width="6" height="1" fill="rgb(71,155,251)"/><rect x="68" y="113" width="1" height="1" fill="rgb(44,131,251)"/><rect x="86" y="113" width="4" height="1" fill="rgb(44,131,251)"/><rect x="39" y="114" width="4" height="1" fill="rgb(44,131,251)"/><rect x="60" y="114" width="1" height="1" fill="rgb(0,88,243)"/><rect x="61" y="114" width="1" height="1" fill="rgb(17,114,251)"/><rect x="62" y="114" width="1" height="1" fill="rgb(44,131,251)"/><rect x="63" y="114" width="4" height="1" fill="rgb(71,155,251)"/><rect x="67" y="114" width="1" height="1" fill="rgb(44,131,251)"/><rect x="68" y="114" width="1" height="1" fill="rgb(17,114,251)"/><rect x="69" y="114" width="1" height="1" fill="rgb(0,88,243)"/><rect x="60" y="115" width="1" height="1" fill="rgb(0,71,228)"/><rect x="61" y="115" width="2" height="1" fill="rgb(17,114,251)"/><rect x="63" y="115" width="4" height="1" fill="rgb(44,131,251)"/><rect x="67" y="115" width="2" height="1" fill="rgb(17,114,251)"/><rect x="69" y="115" width="1" height="1" fill="rgb(0,71,228)"/><rect x="61" y="116" width="1" height="1" fill="rgb(0,71,228)"/><rect x="62" y="116" width="1" height="1" fill="rgb(0,88,243)"/><rect x="63" y="116" width="4" height="1" fill="rgb(17,114,251)"/><rect x="67" y="116" width="1" height="1" fill="rgb(0,88,243)"/><rect x="68" y="116" width="1" height="1" fill="rgb(0,71,228)"/><rect x="60" y="116" width="1" height="2" fill="rgb(0,88,243)"/><rect x="69" y="116" width="1" height="2" fill="rgb(0,88,243)"/><rect x="61" y="117" width="2" height="1" fill="rgb(0,71,228)"/><rect x="63" y="117" width="4" height="1" fill="rgb(0,53,212)"/><rect x="67" y="117" width="2" height="1" fill="rgb(0,71,228)"/><rect x="61" y="118" width="1" height="1" fill="rgb(0,88,243)"/><rect x="62" y="118" width="6" height="1" fill="rgb(0,71,228)"/><rect x="68" y="118" width="1" height="1" fill="rgb(0,88,243)"/><rect x="61" y="119" width="2" height="1" fill="rgb(44,131,251)"/><rect x="63" y="119" width="4" height="1" fill="rgb(0,88,243)"/><rect x="67" y="119" width="2" height="1" fill="rgb(44,131,251)"/><rect x="63" y="120" width="4" height="1" fill="rgb(44,131,251)"/></svg>