<svg xmlns="http://www.w3.org/2000/svg" width="128" height="144" viewBox="0 0 128 144"><rect x="70" y="23" width="4" height="1" fill="rgb(44,131,251)"/><rect x="69" y="24" width="2" height="1" fill="rgb(44,131,251)"/><rect x="71" y="24" width="2" height="1" fill="rgb(71,155,251)"/><rect x="73" y="24" width="2" height="1" fill="rgb(44,131,251)"/><rect x="45" y="25" width="4" height="1" fill="rgb(44,131,251)"/><rect x="69" y="25" width="2" height="1" fill="rgb(17,114,251)"/><rect x="71" y="25" width="2" height="1" fill="rgb(44,131,251)"/><rect x="73" y="25" width="2" height="1" fill="rgb(17,114,251)"/><rect x="44" y="26" width="2" height="1" fill="rgb(44,131,251)"/><rect x="46" y="26" width="2" height="1" fill="rgb(71,155,251)"/><rect x="48" y="26" width="2" height="1" fill="rgb(44,131,251)"/><rect x="69" y="26" width="1" height="1" fill="rgb(0,71,228)"/><rect x="70" y="26" width="4" height="1" fill="rgb(17,114,251)"/><rect x="74" y="26" width="1" height="1" fill="rgb(0,71,228)"/><rect x="44" y="27" width="2" height="1" fill="rgb(17,114,251)"/><rect x="46" y="27" width="2" height="1" fill="rgb(44,131,251)"/><rect x="48" y="27" width="2" height="1" fill="rgb(17,114,251)"/><rect x="69" y="27" width="1" height="1" fill="rgb(17,114,251)"/><rect x="70" y="27" width="1" height="1" fill="rgb(0,71,228)"/><rect x="71" y="27" width="2" height="1" fill="rgb(0,53,212)"/><rect x="73" y="27" width="1" height="1" fill="rgb(0,71,228)"/><rect x="74" y="27" width="1" height="1" fill="rgb(17,114,251)"/><rect x="44" y="28" width="1" height="1" fill="rgb(0,71,228)"/><rect x="45" y="28" width="4" height="1" fill="rgb(17,114,251)"/><rect x="49" y="28" width="1" height="1" fill="rgb(0,71,228)"/><rect x="70" y="28" width="1" height="1" fill="rgb(17,114,251)"/><rect x="71" y="28" width="2" height="1" fill="rgb(0,71,228)"/><rect x="73" y="28" width="1" height="1" fill="rgb(17,114,251)"/><rect x="44" y="29" width="1" height="1" fill="rgb(17,114,251)"/><rect x="45" y="29" width="1" height="1" fill="rgb(0,71,228)"/><rect x="46" y="29" width="2" height="1" fill="rgb(0,53,212)"/><rect x="48" y="29" width="1" height="1" fill="rgb(0,71,228)"/><rect x="49" y="29" width="1" height="1" fill="rgb(17,114,251)"/><rect x="45" y="30" width="1" height="1" fill="rgb(17,114,251)"/><rect x="46" y="30" width="2" height="1" fill="rgb(0,71,228)"/><rect x="48" y="30" width="1" height="1" fill="rgb(17,114,251)"/><rect x="92" y="31" width="4" height="1" fill="rgb(44,131,251)"/><rect x="91" y="32" width="1" height="1" fill="rgb(44,131,251)"/><rect x="92" y="32" width="1" height="1" fill="rgb(71,155,251)"/><rect x="93" y="32" width="2" height="1" fill="rgb(97,179,251)"/><rect x="95" y="32" width="1" height="1" fill="rgb(71,155,251)"/><rect x="96" y="32" width="1" height="1" fill="rgb(44,131,251)"/><rect x="90" y="33" width="2" height="1" fill="rgb(17,114,251)"/><rect x="92" y="33" width="1" height="1" fill="rgb(44,131,251)"/><rect x="93" y="33" width="2" height="1" fill="rgb(71,155,251)"/><rect x="95" y="33" width="1" height="1" fill="rgb(44,131,251)"/><rect x="96" y="33" width="2" height="1" fill="rgb(17,114,251)"/><rect x="91" y="34" width="2" height="1" fill="rgb(17,114,251)"/><rect x="93" y="34" width="2" height="1" fill="rgb(44,131,251)"/><rect x="95" y="34" width="2" height="1" fill="rgb(17,114,251)"/><rect x="90" y="34" width="1" height="2" fill="rgb(0,88,243)"/><rect x="97" y="34" width="1" height="2" fill="rgb(0,88,243)"/><rect x="91" y="35" width="1" height="1" fill="rgb(0,71,228)"/><rect x="92" y="35" width="4" height="1" fill="rgb(17,114,251)"/><rect x="96" y="35" width="1" height="1" fill="rgb(0,71,228)"/><rect x="90" y="36" width="1" height="1" fill="rgb(17,114,251)"/><rect x="91" y="36" width="1" height="1" fill="rgb(0,88,243)"/><rect x="92" y="36" width="1" height="1" fill="rgb(0,71,228)"/><rect x="93" y="36" width="2" height="1" fill="rgb(0,53,212)"/><rect x="95" y="36" width="1" height="1" fill="rgb(0,71,228)"/><rect x="96" y="36" width="1" height="1" fill="rgb(0,88,243)"/><rect x="97" y="36" width="1" height="1" fill="rgb(17,114,251)"/><rect x="91" y="37" width="1" height="1" fill="rgb(44,131,251)"/><rect x="92" y="37" width="1" height="1" fill="rgb(0,88,243)"/><rect x="93" y="37" width="2" height="1" fill="rgb(0,71,228)"/><rect x="95" y="37" width="1" height="1" fill="rgb(0,88,243)"/><rect x="96" y="37" width="1" height="1" fill="rgb(44,131,251)"/><rect x="25" y="38" width="4" height="1" fill="rgb(44,131,251)"/><rect x="92" y="38" width="4" height="1" fill="rgb(44,131,251)"/><rect x="24" y="39" width="1" height="1" fill="rgb(44,131,251)"/><rect x="25" y="39" width="1" height="1" fill="rgb(71,155,251)"/><rect x="26" y="39" width="2" height="1" fill="rgb(97,179,251)"/><rect x="28" y="39" width="1" height="1" fill="rgb(71,155,251)"/><rect x="29" y="39" width="1" height="1" fill="rgb(44,131,251)"/><rect x="23" y="40" width="2" height="1" fill="rgb(17,114,251)"/><rect x="25" y="40" width="1" height="1" fill="rgb(44,131,251)"/><rect x="26" y="40" width="2" height="1" fill="rgb(71,155,251)"/><rect x="28" y="40" width="1" height="1" fill="rgb(44,131,251)"/><rect x="29" y="40" width="2" height="1" fill="rgb(17,114,251)"/><rect x="24" y="41" width="2" height="1" fill="rgb(17,114,251)"/><rect x="26" y="41" width="2" height="1" fill="rgb(44,131,251)"/><rect x="28" y="41" width="2" height="1" fill="rgb(17,114,251)"/><rect x="23" y="41" width="1" height="2" fill="rgb(0,88,243)"/><rect x="30" y="41" width="1" height="2" fill="rgb(0,88,243)"/><rect x="24" y="42" width="1" height="1" fill="rgb(0,71,228)"/><rect x="25" y="42" width="4" height="1" fill="rgb(17,114,251)"/><rect x="29" y="42" width="1" height="1" fill="rgb(0,71,228)"/><rect x="23" y="43" width="1" height="1" fill="rgb(17,114,251)"/><rect x="24" y="43" width="1" height="1" fill="rgb(0,88,243)"/><rect x="25" y="43" width="1" height="1" fill="rgb(0,71,228)"/><rect x="26" y="43" width="2" height="1" fill="rgb(0,53,212)"/><rect x="28" y="43" width="1" height="1" fill="rgb(0,71,228)"/><rect x="29" y="43" width="1" height="1" fill="rgb(0,88,243)"/><rect x="30" y="43" width="1" height="1" fill="rgb(17,114,251)"/><rect x="24" y="44" width="1" height="1" fill="rgb(44,131,251)"/><rect x="25" y="44" width="1" height="1" fill="rgb(0,88,243)"/><rect x="26" y="44" width="2" height="1" fill="rgb(0,71,228)"/><rect x="28" y="44" width="1" height="1" fill="rgb(0,88,243)"/><rect x="29" y="44" width="1" height="1" fill="rgb(44,131,251)"/><rect x="25" y="45" width="4" height="1" fill="rgb(44,131,251)"/><rect x="106" y="51" width="4" height="1" fill="rgb(44,131,251)"/><rect x="105" y="52" width="1" height="1" fill="rgb(44,131,251)"/><rect x="106" y="52" width="1" height="1" fill="rgb(71,155,251)"/><rect x="107" y="52" width="2" height="1" fill="rgb(97,179,251)"/><rect x="109" y="52" width="1" height="1" fill="rgb(71,155,251)"/><rect x="110" y="52" width="1" height="1" fill="rgb(44,131,251)"/><rect x="104" y="53" width="2" height="1" fill="rgb(17,114,251)"/><rect x="106" y="53" width="1" height="1" fill="rgb(44,131,251)"/><rect x="107" y="53" width="2" height="1" fill="rgb(71,155,251)"/><rect x="109" y="53" width="1" height="1" fill="rgb(44,131,251)"/><rect x="110" y="53" width="2" height="1" fill="rgb(17,114,251)"/><rect x="105" y="54" width="2" height="1" fill="rgb(17,114,251)"/><rect x="107" y="54" width="2" height="1" fill="rgb(44,131,251)"/><rect x="109" y="54" width="2" height="1" fill="rgb(17,114,251)"/><rect x="104" y="54" width="1" height="2" fill="rgb(0,88,243)"/><rect x="111" y="54" width="1" height="2" fill="rgb(0,88,243)"/><rect x="105" y="55" width="1" height="1" fill="rgb(0,71,228)"/><rect x="106" y="55" width="4" height="1" fill="rgb(17,114,251)"/><rect x="110" y="55" width="1" height="1" fill="rgb(0,71,228)"/><rect x="104" y="56" width="1" height="1" fill="rgb(17,114,251)"/><rect x="105" y="56" width="1" height="1" fill="rgb(0,88,243)"/><rect x="106" y="56" width="1" height="1" fill="rgb(0,71,228)"/><rect x="107" y="56" width="2" height="1" fill="rgb(0,53,212)"/><rect x="109" y="56" width="1" height="1" fill="rgb(0,71,228)"/><rect x="110" y="56" width="1" height="1" fill="rgb(0,88,243)"/><rect x="111" y="56" width="1" height="1" fill="rgb(17,114,251)"/><rect x="105" y="57" width="1" height="1" fill="rgb(44,131,251)"/><rect x="106" y="57" width="1" height="1" fill="rgb(0,88,243)"/><rect x="107" y="57" width="2" height="1" fill="rgb(0,71,228)"/><rect x="109" y="57" width="1" height="1" fill="rgb(0,88,243)"/><rect x="110" y="57" width="1" height="1" fill="rgb(44,131,251)"/><rect x="106" y="58" width="4" height="1" fill="rgb(44,131,251)"/><rect x="16" y="60" width="4" height="1" fill="rgb(44,131,251)"/><rect x="15" y="61" width="1" height="1" fill="rgb(44,131,251)"/><rect x="16" y="61" width="1" height="1" fill="rgb(71,155,251)"/><rect x="17" y="61" width="2" height="1" fill="rgb(97,179,251)"/><rect x="19" y="61" width="1" height="1" fill="rgb(71,155,251)"/><rect x="20" y="61" width="1" height="1" fill="rgb(44,131,251)"/><rect x="14" y="62" width="2" height="1" fill="rgb(17,114,251)"/><rect x="16" y="62" width="1" height="1" fill="rgb(44,131,251)"/><rect x="17" y="62" width="2" height="1" fill="rgb(71,155,251)"/><rect x="19" y="62" width="1" height="1" fill="rgb(44,131,251)"/><rect x="20" y="62" width="2" height="1" fill="rgb(17,114,251)"/><rect x="15" y="63" width="2" height="1" fill="rgb(17,114,251)"/><rect x="17" y="63" width="2" height="1" fill="rgb(44,131,251)"/><rect x="19" y="63" width="2" height="1" fill="rgb(17,114,251)"/><rect x="14" y="63" width="1" height="2" fill="rgb(0,88,243)"/><rect x="21" y="63" width="1" height="2" fill="rgb(0,88,243)"/><rect x="15" y="64" width="1" height="1" fill="rgb(0,71,228)"/><rect x="16" y="64" width="4" height="1" fill="rgb(17,114,251)"/><rect x="20" y="64" width="1" height="1" fill="rgb(0,71,228)"/><rect x="14" y="65" width="1" height="1" fill="rgb(17,114,251)"/><rect x="15" y="65" width="1" height="1" fill="rgb(0,88,243)"/><rect x="16" y="65" width="1" height="1" fill="rgb(0,71,228)"/><rect x="17" y="65" width="2" height="1" fill="rgb(0,53,212)"/><rect x="19" y="65" width="1" height="1" fill="rgb(0,71,228)"/><rect x="20" y="65" width="1" height="1" fill="rgb(0,88,243)"/><rect x="21" y="65" width="1" height="1" fill="rgb(17,114,251)"/><rect x="15" y="66" width="1" height="1" fill="rgb(44,131,251)"/><rect x="16" y="66" width="1" height="1" fill="rgb(0,88,243)"/><rect x="17" y="66" width="2" height="1" fill="rgb(0,71,228)"/><rect x="19" y="66" width="1" height="1" fill="rgb(0,88,243)"/><rect x="20" y="66" width="1" height="1" fill="rgb(44,131,251)"/><rect x="16" y="67" width="4" height="1" fill="rgb(44,131,251)"/><rect x="108" y="75" width="4" height="1" fill="rgb(44,131,251)"/><rect x="106" y="76" width="2" height="1" fill="rgb(44,131,251)"/><rect x="108" y="76" width="1" height="1" fill="rgb(71,155,251)"/><rect x="109" y="76" width="2" height="1" fill="rgb(97,179,251)"/><rect x="111" y="76" width="1" height="1" fill="rgb(71,155,251)"/><rect x="112" y="76" width="2" height="1" fill="rgb(44,131,251)"/><rect x="106" y="77" width="1" height="1" fill="rgb(44,131,251)"/><rect x="107" y="77" width="6" height="1" fill="rgb(71,155,251)"/><rect x="113" y="77" width="1" height="1" fill="rgb(44,131,251)"/><rect x="105" y="78" width="1" height="1" fill="rgb(0,88,243)"/><rect x="106" y="78" width="1" height="1" fill="rgb(17,114,251)"/><rect x="107" y="78" width="1" height="1" fill="rgb(44,131,251)"/><rect x="108" y="78" width="4" height="1" fill="rgb(71,155,251)"/><rect x="112" y="78" width="1" height="1" fill="rgb(44,131,251)"/><rect x="113" y="78" width="1" height="1" fill="rgb(17,114,251)"/><rect x="114" y="78" width="1" height="1" fill="rgb(0,88,243)"/><rect x="105" y="79" width="1" height="1" fill="rgb(0,71,228)"/><rect x="106" y="79" width="2" height="1" fill="rgb(17,114,251)"/><rect x="108" y="79" width="4" height="1" fill="rgb(44,131,251)"/><rect x="112" y="79" width="2" height="1" fill="rgb(17,114,251)"/><rect x="114" y="79" width="1" height="1" fill="rgb(0,71,228)"/><rect x="106" y="80" width="1" height="1" fill="rgb(0,71,228)"/><rect x="107" y="80" width="1" height="1" fill="rgb(0,88,243)"/><rect x="108" y="80" width="4" height="1" fill="rgb(17,114,251)"/><rect x="112" y="80" width="1" height="1" fill="rgb(0,88,243)"/><rect x="113" y="80" width="1" height="1" fill="rgb(0,71,228)"/><rect x="105" y="80" width="1" height="2" fill="rgb(0,88,243)"/><rect x="114" y="80" width="1" height="2" fill="rgb(0,88,243)"/><rect x="106" y="81" width="2" height="1" fill="rgb(0,71,228)"/><rect x="108" y="81" width="4" height="1" fill="rgb(0,53,212)"/><rect x="112" y="81" width="2" height="1" fill="rgb(0,71,228)"/><rect x="106" y="82" width="1" height="1" fill="rgb(0,88,243)"/><rect x="107" y="82" width="6" height="1" fill="rgb(0,71,228)"/><rect x="113" y="82" width="1" height="1" fill="rgb(0,88,243)"/><rect x="106" y="83" width="2" height="1" fill="rgb(44,131,251)"/><rect x="108" y="83" width="4" height="1" fill="rgb(0,88,243)"/><rect x="112" y="83" width="2" height="1" fill="rgb(44,131,251)"/><rect x="18" y="84" width="4" height="1" fill="rgb(44,131,251)"/><rect x="108" y="84" width="4" height="1" fill="rgb(44,131,251)"/><rect x="16" y="85" width="2" height="1" fill="rgb(44,131,251)"/><rect x="18" y="85" width="1" height="1" fill="rgb(71,155,251)"/><rect x="19" y="85" width="2" height="1" fill="rgb(97,179,251)"/><rect x="21" y="85" width="1" height="1" fill="rgb(71,155,251)"/><rect x="22" y="85" width="2" height="1" fill="rgb(44,131,251)"/><rect x="16" y="86" width="1" height="1" fill="rgb(44,131,251)"/><rect x="17" y="86" width="6" height="1" fill="rgb(71,155,251)"/><rect x="23" y="86" width="1" height="1" fill="rgb(44,131,251)"/><rect x="15" y="87" width="1" height="1" fill="rgb(0,88,243)"/><rect x="16" y="87" width="1" height="1" fill="rgb(17,114,251)"/><rect x="17" y="87" width="1" height="1" fill="rgb(44,131,251)"/><rect x="18" y="87" width="4" height="1" fill="rgb(71,155,251)"/><rect x="22" y="87" width="1" height="1" fill="rgb(44,131,251)"/><rect x="23" y="87" width="1" height="1" fill="rgb(17,114,251)"/><rect x="24" y="87" width="1" height="1" fill="rgb(0,88,243)"/><rect x="15" y="88" width="1" height="1" fill="rgb(0,71,228)"/><rect x="16" y="88" width="2" height="1" fill="rgb(17,114,251)"/><rect x="18" y="88" width="4" height="1" fill="rgb(44,131,251)"/><rect x="22" y="88" width="2" height="1" fill="rgb(17,114,251)"/><rect x="24" y="88" width="1" height="1" fill="rgb(0,71,228)"/><rect x="16" y="89" width="1" height="1" fill="rgb(0,71,228)"/><rect x="17" y="89" width="1" height="1" fill="rgb(0,88,243)"/><rect x="18" y="89" width="4" height="1" fill="rgb(17,114,251)"/><rect x="22" y="89" width="1" height="1" fill="rgb(0,88,243)"/><rect x="23" y="89" width="1" height="1" fill="rgb(0,71,228)"/><rect x="15" y="89" width="1" height="2" fill="rgb(0,88,243)"/><rect x="24" y="89" width="1" height="2" fill="rgb(0,88,243)"/><rect x="16" y="90" width="2" height="1" fill="rgb(0,71,228)"/><rect x="18" y="90" width="4" height="1" fill="rgb(0,53,212)"/><rect x="22" y="90" width="2" height="1" fill="rgb(0,71,228)"/><rect x="16" y="91" width="1" height="1" fill="rgb(0,88,243)"/><rect x="17" y="91" width="6" height="1" fill="rgb(0,71,228)"/><rect x="23" y="91" width="1" height="1" fill="rgb(0,88,243)"/><rect x="16" y="92" width="2" height="1" fill="rgb(44,131,251)"/><rect x="18" y="92" width="4" height="1" fill="rgb(0,88,243)"/><rect x="22" y="92" width="2" height="1" fill="rgb(44,131,251)"/><rect x="18" y="93" width="4" height="1" fill="rgb(44,131,251)"/><rect x="99" y="96" width="4" height="1" fill="rgb(44,131,251)"/><rect x="97" y="97" width="2" height="1" fill="rgb(44,131,251)"/><rect x="99" y="97" width="4" height="1" fill="rgb(71,155,251)"/><rect x="103" y="97" width="2" height="1" fill="rgb(44,131,251)"/><rect x="96" y="98" width="2" height="1" fill="rgb(44,131,251)"/><rect x="98" y="98" width="1" height="1" fill="rgb(71,155,251)"/><rect x="99" y="98" width="4" height="1" fill="rgb(97,179,251)"/><rect x="103" y="98" width="1" height="1" fill="rgb(71,155,251)"/><rect x="104" y="98" width="2" height="1" fill="rgb(44,131,251)"/><rect x="96" y="99" width="1" height="1" fill="rgb(44,131,251)"/><rect x="97" y="99" width="8" height="1" fill="rgb(71,155,251)"/><rect x="105" y="99" width="1" height="1" fill="rgb(44,131,251)"/><rect x="97" y="100" width="1" height="1" fill="rgb(17,114,251)"/><rect x="98" y="100" width="1" height="1" fill="rgb(44,131,251)"/><rect x="99" y="100" width="4" height="1" fill="rgb(71,155,251)"/><rect x="103" y="100" width="1" height="1" fill="rgb(44,131,251)"/><rect x="104" y="100" width="1" height="1" fill="rgb(17,114,251)"/><rect x="96" y="100" width="1" height="2" fill="rgb(0,88,243)"/><rect x="105" y="100" width="1" height="2" fill="rgb(0,88,243)"/><rect x="97" y="101" width="2" height="1" fill="rgb(17,114,251)"/><rect x="99" y="101" width="4" height="1" fill="rgb(44,131,251)"/><rect x="103" y="101" width="2" height="1" fill="rgb(17,114,251)"/><rect x="96" y="102" width="1" height="1" fill="rgb(0,71,228)"/><rect x="97" y="102" width="2" height="1" fill="rgb(0,88,243)"/><rect x="99" y="102" width="4" height="1" fill="rgb(17,114,251)"/><rect x="103" y="102" width="2" height="1" fill="rgb(0,88,243)"/><rect x="105" y="102" width="1" height="1" fill="rgb(0,71,228)"/><rect x="95" y="100" width="1" height="4" fill="rgb(17,114,251)"/><rect x="106" y="100" width="1" height="4" fill="rgb(17,114,251)"/><rect x="32" y="103" width="4" height="1" fill="rgb(44,131,251)"/><rect x="96" y="103" width="1" height="1" fill="rgb(0,88,243)"/><rect x="97" y="103" width="1" height="1" fill="rgb(0,71,228)"/><rect x="98" y="103" width="1" height="1" fill="rgb(0,53,212)"/><rect x="99" y="103" width="1" height="1" fill="rgb(0,71,228)"/><rect x="100" y="103" width="2" height="1" fill="rgb(0,88,243)"/><rect x="102" y="103" width="1" height="1" fill="rgb(0,71,228)"/><rect x="103" y="103" width="1" height="1" fill="rgb(0,53,212)"/><rect x="104" y="103" width="1" height="1" fill="rgb(0,71,228)"/><rect x="105" y="103" width="1" height="1" fill="rgb(0,88,243)"/><rect x="30" y="104" width="2" height="1" fill="rgb(44,131,251)"/><rect x="32" y="104" width="4" height="1" fill="rgb(71,155,251)"/><rect x="36" y="104" width="2" height="1" fill="rgb(44,131,251)"/><rect x="97" y="104" width="1" height="1" fill="rgb(0,88,243)"/><rect x="98" y="104" width="1" height="1" fill="rgb(0,71,228)"/><rect x="99" y="104" width="1" height="1" fill="rgb(0,53,212)"/><rect x="100" y="104" width="2" height="1" fill="rgb(0,35,187)"/><rect x="102" y="104" width="1" height="1" fill="rgb(0,53,212)"/><rect x="103" y="104" width="1" height="1" fill="rgb(0,71,228)"/><rect x="104" y="104" width="1" height="1" fill="rgb(0,88,243)"/><rect x="96" y="104" width="1" height="2" fill="rgb(17,114,251)"/><rect x="105" y="104" width="1" height="2" fill="rgb(17,114,251)"/><rect x="29" y="105" width="2" height="1" fill="rgb(44,131,251)"/><rect x="31" y="105" width="1" height="1" fill="rgb(71,155,251)"/><rect x="32" y="105" width="4" height="1" fill="rgb(97,179,251)"/><rect x="36" y="105" width="1" height="1" fill="rgb(71,155,251)"/><rect x="37" y="105" width="2" height="1" fill="rgb(44,131,251)"/><rect x="97" y="105" width="2" height="1" fill="rgb(0,88,243)"/><rect x="99" y="105" width="4" height="1" fill="rgb(0,71,228)"/><rect x="103" y="105" width="2" height="1" fill="rgb(0,88,243)"/><rect x="29" y="106" width="1" height="1" fill="rgb(44,131,251)"/><rect x="30" y="106" width="8" height="1" fill="rgb(71,155,251)"/><rect x="38" y="106" width="1" height="1" fill="rgb(44,131,251)"/><rect x="97" y="106" width="1" height="1" fill="rgb(44,131,251)"/><rect x="98" y="106" width="6" height="1" fill="rgb(17,114,251)"/><rect x="104" y="106" width="1" height="1" fill="rgb(44,131,251)"/><rect x="30" y="107" width="1" height="1" fill="rgb(17,114,251)"/><rect x="31" y="107" width="1" height="1" fill="rgb(44,131,251)"/><rect x="32" y="107" width="4" height="1" fill="rgb(71,155,251)"/><rect x="36" y="107" width="1" height="1" fill="rgb(44,131,251)"/><rect x="37" y="107" width="1" height="1" fill="rgb(17,114,251)"/><rect x="99" y="107" width="4" height="1" fill="rgb(44,131,251)"/><rect x="29" y="107" width="1" height="2" fill="rgb(0,88,243)"/><rect x="38" y="107" width="1" height="2" fill="rgb(0,88,243)"/><rect x="30" y="108" width="2" height="1" fill="rgb(17,114,251)"/><rect x="32" y="108" width="4" height="1" fill="rgb(44,131,251)"/><rect x="36" y="108" width="2" height="1" fill="rgb(17,114,251)"/><rect x="29" y="109" width="1" height="1" fill="rgb(0,71,228)"/><rect x="30" y="109" width="2" height="1" fill="rgb(0,88,243)"/><rect x="32" y="109" width="4" height="1" fill="rgb(17,114,251)"/><rect x="36" y="109" width="2" height="1" fill="rgb(0,88,243)"/><rect x="38" y="109" width="1" height="1" fill="rgb(0,71,228)"/><rect x="28" y="107" width="1" height="4" fill="rgb(17,114,251)"/><rect x="39" y="107" width="1" height="4" fill="rgb(17,114,251)"/><rect x="29" y="110" width="1" height="1" fill="rgb(0,88,243)"/><rect x="30" y="110" width="1" height="1" fill="rgb(0,71,228)"/><rect x="31" y="110" width="1" height="1" fill="rgb(0,53,212)"/><rect x="32" y="110" width="1" height="1" fill="rgb(0,71,228)"/><rect x="33" y="110" width="2" height="1" fill="rgb(0,88,243)"/><rect x="35" y="110" width="1" height="1" fill="rgb(0,71,228)"/><rect x="36" y="110" width="1" height="1" fill="rgb(0,53,212)"/><rect x="37" y="110" width="1" height="1" fill="rgb(0,71,228)"/><rect x="38" y="110" width="1" height="1" fill="rgb(0,88,243)"/><rect x="79" y="110" width="4" height="1" fill="rgb(44,131,251)"/><rect x="30" y="111" width="1" height="1" fill="rgb(0,88,243)"/><rect x="31" y="111" width="1" height="1" fill="rgb(0,71,228)"/><rect x="32" y="111" width="1" height="1" fill="rgb(0,53,212)"/><rect x="33" y="111" width="2" height="1" fill="rgb(0,35,187)"/><rect x="35" y="111" width="1" height="1" fill="rgb(0,53,212)"/><rect x="36" y="111" width="1" height="1" fill="rgb(0,71,228)"/><rect x="37" y="111" width="1" height="1" fill="rgb(0,88,243)"/><rect x="77" y="111" width="2" height="1" fill="rgb(44,131,251)"/><rect x="79" y="111" width="4" height="1" fill="rgb(71,155,251)"/><rect x="83" y="111" width="2" height="1" fill="rgb(44,131,251)"/><rect x="29" y="111" width="1" height="2" fill="rgb(17,114,251)"/><rect x="38" y="111" width="1" height="2" fill="rgb(17,114,251)"/><rect x="30" y="112" width="2" height="1" fill="rgb(0,88,243)"/><rect x="32" y="112" width="4" height="1" fill="rgb(0,71,228)"/><rect x="36" y="112" width="2" height="1" fill="rgb(0,88,243)"/><rect x="54" y="112" width="4" height="1" fill="rgb(44,131,251)"/><rect x="76" y="112" width="2" height="1" fill="rgb(44,131,251)"/><rect x="78" y="112" width="1" height="1" fill="rgb(71,155,251)"/><rect x="79" y="112" width="4" height="1" fill="rgb(97,179,251)"/><rect x="83" y="112" width="1" height="1" fill="rgb(71,155,251)"/><rect x="84" y="112" width="2" height="1" fill="rgb(44,131,251)"/><rect x="30" y="113" width="1" height="1" fill="rgb(44,131,251)"/><rect x="31" y="113" width="6" height="1" fill="rgb(17,114,251)"/><rect x="37" y="113" width="1" height="1" fill="rgb(44,131,251)"/><rect x="52" y="113" width="2" height="1" fill="rgb(44,131,251)"/><rect x="54" y="113" width="4" height="1" fill="rgb(71,155,251)"/><rect x="58" y="113" width="2" height="1" fill="rgb(44,131,251)"/><rect x="76" y="113" width="1" height="1" fill="rgb(44,131,251)"/><rect x="77" y="113" width="8" height="1" fill="rgb(71,155,251)"/><rect x="85" y="113" width="1" height="1" fill="rgb(44,131,251)"/><rect x="32" y="114" width="4" height="1" fill="rgb(44,131,251)"/><rect x="51" y="114" width="2" height="1" fill="rgb(44,131,251)"/><rect x="53" y="114" width="1" height="1" fill="rgb(71,155,251)"/><rect x="54" y="114" width="4" height="1" fill="rgb(97,179,251)"/><rect x="58" y="114" width="1" height="1" fill="rgb(71,155,251)"/><rect x="59" y="114" width="2" height="1" fill="rgb(44,131,251)"/><rect x="77" y="114" width="1" height="1" fill="rgb(17,114,251)"/><rect x="78" y="114" width="1" height="1" fill="rgb(44,131,251)"/><rect x="79" y="114" width="4" height="1" fill="rgb(71,155,251)"/><rect x="83" y="114" width="1" height="1" fill="rgb(44,131,251)"/><rect x="84" y="114" width="1" height="1" fill="rgb(17,114,251)"/><rect x="76" y="114" width="1" height="2" fill="rgb(0,88,243)"/><rect x="85" y="114" width="1" height="2" fill="rgb(0,88,243)"/><rect x="51" y="115" width="1" height="1" fill="rgb(44,131,251)"/><rect x="52" y="115" width="8" height="1" fill="rgb(71,155,251)"/><rect x="60" y="115" width="1" height="1" fill="rgb(44,131,251)"/><rect x="77" y="115" width="2" height="1" fill="rgb(17,114,251)"/><rect x="79" y="115" width="4" height="1" fill="rgb(44,131,251)"/><rect x="83" y="115" width="2" height="1" fill="rgb(17,114,251)"/><rect x="52" y="116" width="1" height="1" fill="rgb(17,114,251)"/><rect x="53" y="116" width="1" height="1" fill="rgb(44,131,251)"/><rect x="54" y="116" width="4" height="1" fill="rgb(71,155,251)"/><rect x="58" y="116" width="1" height="1" fill="rgb(44,131,251)"/><rect x="59" y="116" width="1" height="1" fill="rgb(17,114,251)"/><rect x="76" y="116" width="1" height="1" fill="rgb(0,71,228)"/><rect x="77" y="116" width="2" height="1" fill="rgb(0,88,243)"/><rect x="79" y="116" width="4" height="1" fill="rgb(17,114,251)"/><rect x="83" y="116" width="2" height="1" fill="rgb(0,88,243)"/><rect x="85" y="116" width="1" height="1" fill="rgb(0,71,228)"/><rect x="75" y="114" width="1" height="4" fill="rgb(17,114,251)"/><rect x="86" y="114" width="1" height="4" fill="rgb(17,114,251)"/><rect x="51" y="116" width="1" height="2" fill="rgb(0,88,243)"/><rect x="60" y="116" width="1" height="2" fill="rgb(0,88,243)"/><rect x="52" y="117" width="2" height="1" fill="rgb(17,114,251)"/><rect x="54" y="117" width="4" height="1" fill="rgb(44,131,251)"/><rect x="58" y="117" width="2" height="1" fill="rgb(17,114,251)"/><rect x="76" y="117" width="1" height="1" fill="rgb(0,88,243)"/><rect x="77" y="117" width="1" height="1" fill="rgb(0,71,228)"/><rect x="78" y="117" width="1" height="1" fill="rgb(0,53,212)"/><rect x="79" y="117" width="1" height="1" fill="rgb(0,71,228)"/><rect x="80" y="117" width="2" height="1" fill="rgb(0,88,243)"/><rect x="82" y="117" width="1" height="1" fill="rgb(0,71,228)"/><rect x="83" y="117" width="1" height="1" fill="rgb(0,53,212)"/><rect x="84" y="117" width="1" height="1" fill="rgb(0,71,228)"/><rect x="85" y="117" width="1" height="1" fill="rgb(0,88,243)"/><rect x="51" y="118" width="1" height="1" fill="rgb(0,71,228)"/><rect x="52" y="118" width="2" height="1" fill="rgb(0,88,243)"/><rect x="54" y="118" width="4" height="1" fill="rgb(17,114,251)"/><rect x="58" y="118" width="2" height="1" fill="rgb(0,88,243)"/><rect x="60" y="118" width="1" height="1" fill="rgb(0,71,228)"/><rect x="77" y="118" width="1" height="1" fill="rgb(0,88,243)"/><rect x="78" y="118" width="1" height="1" fill="rgb(0,71,228)"/><rect x="79" y="118" width="1" height="1" fill="rgb(0,53,212)"/><rect x="80" y="118" width="2" height="1" fill="rgb(0,35,187)"/><rect x="82" y="118" width="1" height="1" fill="rgb(0,53,212)"/><rect x="83" y="118" width="1" height="1" fill="rgb(0,71,228)"/><rect x="84" y="118" width="1" height="1" fill="rgb(0,88,243)"/><rect x="50" y="116" width="1" height="4" fill="rgb(17,114,251)"/><rect x="61" y="116" width="1" height="4" fill="rgb(17,114,251)"/><rect x="76" y="118" width="1" height="2" fill="rgb(17,114,251)"/><rect x="85" y="118" width="1" height="2" fill="rgb(17,114,251)"/><rect x="51" y="119" width="1" height="1" fill="rgb(0,88,243)"/><rect x="52" y="119" width="1" height="1" fill="rgb(0,71,228)"/><rect x="53" y="119" width="1" height="1" fill="rgb(0,53,212)"/><rect x="54" y="119" width="1" height="1" fill="rgb(0,71,228)"/><rect x="55" y="119" width="2" height="1" fill="rgb(0,88,243)"/><rect x="57" y="119" width="1" height="1" fill="rgb(0,71,228)"/><rect x="58" y="119" width="1" height="1" fill="rgb(0,53,212)"/><rect x="59" y="119" width="1" height="1" fill="rgb(0,71,228)"/><rect x="60" y="119" width="1" height="1" fill="rgb(0,88,243)"/><rect x="77" y="119" width="2" height="1" fill="rgb(0,88,243)"/><rect x="79" y="119" width="4" height="1" fill="rgb(0,71,228)"/><rect x="83" y="119" width="2" height="1" fill="rgb(0,88,243)"/><rect x="52" y="120" width="1" height="1" fill="rgb(0,88,243)"/><rect x="53" y="120" width="1" height="1" fill="rgb(0,71,228)"/><rect x="54" y="120" width="1" height="1" fill="rgb(0,53,212)"/><rect x="55" y="120" width="2" height="1" fill="rgb(0,35,187)"/><rect x="57" y="120" width="1" height="1" fill="rgb(0,53,212)"/><rect x="58" y="120" width="1" height="1" fill="rgb(0,71,228)"/><rect x="59" y="120" width="1" height="1" fill="rgb(0,88,243)"/><rect x="77" y="120" width="1" height="1" fill="rgb(44,131,251)"/><rect x="78" y="120" width="6" height="1" fill="rgb(17,114,251)"/><rect x="84" y="120" width="1" height="1" fill="rgb(44,131,251)"/><rect x="51" y="120" width="1" height="2" fill="rgb(17,114,251)"/><rect x="60" y="120" width="1" height="2" fill="rgb(17,114,251)"/><rect x="52" y="121" width="2" height="1" fill="rgb(0,88,243)"/><rect x="54" y="121" width="4" height="1" fill="rgb(0,71,228)"/><rect x="58" y="121" width="2" height="1" fill="rgb(0,88,243)"/><rect x="79" y="121" width="4" height="1" fill="rgb(44,131,251)"/><rect x="52" y="122" width="1" height="1" fill="rgb(44,131,251)"/><rect x="53" y="122" width="6" height="1" fill="rgb(17,114,251)"/><rect x="59" y="122" width="1" height="1" fill="rgb(44,131,251)"/><rect x="54" y="123" width="4" height="1" fill="rgb(44,131,251)"/></svg>