<svg xmlns="http://www.w3.org/2000/svg" width="128" height="144" viewBox="0 0 128 144"><rect x="109" y="69" width="2" height="2" fill="rgb(44,131,251)"/><rect x="108" y="70" width="1" height="1" fill="rgb(0,71,228)"/><rect x="111" y="70" width="1" height="1" fill="rgb(0,71,228)"/><rect x="108" y="71" width="1" height="1" fill="rgb(0,88,243)"/><rect x="109" y="71" width="2" height="1" fill="rgb(0,71,228)"/><rect x="111" y="71" width="1" height="1" fill="rgb(0,88,243)"/><rect x="109" y="72" width="2" height="1" fill="rgb(17,114,251)"/><rect x="99" y="88" width="4" height="1" fill="rgb(44,131,251)"/><rect x="98" y="89" width="2" height="1" fill="rgb(44,131,251)"/><rect x="100" y="89" width="2" height="1" fill="rgb(71,155,251)"/><rect x="102" y="89" width="2" height="1" fill="rgb(44,131,251)"/><rect x="98" y="90" width="2" height="1" fill="rgb(17,114,251)"/><rect x="100" y="90" width="2" height="1" fill="rgb(44,131,251)"/><rect x="102" y="90" width="2" height="1" fill="rgb(17,114,251)"/><rect x="98" y="91" width="1" height="1" fill="rgb(0,71,228)"/><rect x="99" y="91" width="4" height="1" fill="rgb(17,114,251)"/><rect x="103" y="91" width="1" height="1" fill="rgb(0,71,228)"/><rect x="98" y="92" width="1" height="1" fill="rgb(17,114,251)"/><rect x="99" y="92" width="1" height="1" fill="rgb(0,71,228)"/><rect x="100" y="92" width="2" height="1" fill="rgb(0,53,212)"/><rect x="102" y="92" width="1" height="1" fill="rgb(0,71,228)"/><rect x="103" y="92" width="1" height="1" fill="rgb(17,114,251)"/><rect x="99" y="93" width="1" height="1" fill="rgb(17,114,251)"/><rect x="100" y="93" width="2" height="1" fill="rgb(0,71,228)"/><rect x="102" y="93" width="1" height="1" fill="rgb(17,114,251)"/><rect x="79" y="102" width="4" height="1" fill="rgb(44,131,251)"/><rect x="78" y="103" width="1" height="1" fill="rgb(44,131,251)"/><rect x="79" y="103" width="1" height="1" fill="rgb(71,155,251)"/><rect x="80" y="103" width="2" height="1" fill="rgb(97,179,251)"/><rect x="82" y="103" width="1" height="1" fill="rgb(71,155,251)"/><rect x="83" y="103" width="1" height="1" fill="rgb(44,131,251)"/><rect x="77" y="104" width="2" height="1" fill="rgb(17,114,251)"/><rect x="79" y="104" width="1" height="1" fill="rgb(44,131,251)"/><rect x="80" y="104" width="2" height="1" fill="rgb(71,155,251)"/><rect x="82" y="104" width="1" height="1" fill="rgb(44,131,251)"/><rect x="83" y="104" width="2" height="1" fill="rgb(17,114,251)"/><rect x="53" y="105" width="4" height="1" fill="rgb(44,131,251)"/><rect x="78" y="105" width="2" height="1" fill="rgb(17,114,251)"/><rect x="80" y="105" width="2" height="1" fill="rgb(44,131,251)"/><rect x="82" y="105" width="2" height="1" fill="rgb(17,114,251)"/><rect x="77" y="105" width="1" height="2" fill="rgb(0,88,243)"/><rect x="84" y="105" width="1" height="2" fill="rgb(0,88,243)"/><rect x="52" y="106" width="2" height="1" fill="rgb(44,131,251)"/><rect x="54" y="106" width="2" height="1" fill="rgb(71,155,251)"/><rect x="56" y="106" width="2" height="1" fill="rgb(44,131,251)"/><rect x="78" y="106" width="1" height="1" fill="rgb(0,71,228)"/><rect x="79" y="106" width="4" height="1" fill="rgb(17,114,251)"/><rect x="83" y="106" width="1" height="1" fill="rgb(0,71,228)"/><rect x="52" y="107" width="2" height="1" fill="rgb(17,114,251)"/><rect x="54" y="107" width="2" height="1" fill="rgb(44,131,251)"/><rect x="56" y="107" width="2" height="1" fill="rgb(17,114,251)"/><rect x="77" y="107" width="1" height="1" fill="rgb(17,114,251)"/><rect x="78" y="107" width="1" height="1" fill="rgb(0,88,243)"/><rect x="79" y="107" width="1" height="1" fill="rgb(0,71,228)"/><rect x="80" y="107" width="2" height="1" fill="rgb(0,53,212)"/><rect x="82" y="107" width="1" height="1" fill="rgb(0,71,228)"/><rect x="83" y="107" width="1" height="1" fill="rgb(0,88,243)"/><rect x="84" y="107" width="1" height="1" fill="rgb(17,114,251)"/><rect x="52" y="108" width="1" height="1" fill="rgb(0,71,228)"/><rect x="53" y="108" width="4" height="1" fill="rgb(17,114,251)"/><rect x="57" y="108" width="1" height="1" fill="rgb(0,71,228)"/><rect x="78" y="108" width="1" height="1" fill="rgb(44,131,251)"/><rect x="79" y="108" width="1" height="1" fill="rgb(0,88,243)"/><rect x="80" y="108" width="2" height="1" fill="rgb(0,71,228)"/><rect x="82" y="108" width="1" height="1" fill="rgb(0,88,243)"/><rect x="83" y="108" width="1" height="1" fill="rgb(44,131,251)"/><rect x="52" y="109" width="1" height="1" fill="rgb(17,114,251)"/><rect x="53" y="109" width="1" height="1" fill="rgb(0,71,228)"/><rect x="54" y="109" width="2" height="1" fill="rgb(0,53,212)"/><rect x="56" y="109" width="1" height="1" fill="rgb(0,71,228)"/><rect x="57" y="109" width="1" height="1" fill="rgb(17,114,251)"/><rect x="79" y="109" width="4" height="1" fill="rgb(44,131,251)"/><rect x="53" y="110" width="1" height="1" fill="rgb(17,114,251)"/><rect x="54" y="110" width="2" height="1" fill="rgb(0,71,228)"/><rect x="56" y="110" width="1" height="1" fill="rgb(17,114,251)"/></svg>