<svg xmlns="http://www.w3.org/2000/svg" width="128" height="144" viewBox="0 0 128 144"><rect x="78" y="25" width="2" height="2" fill="rgb(44,131,251)"/><rect x="77" y="26" width="1" height="1" fill="rgb(0,71,228)"/><rect x="80" y="26" width="1" height="1" fill="rgb(0,71,228)"/><rect x="77" y="27" width="1" height="1" fill="rgb(0,88,243)"/><rect x="78" y="27" width="2" height="1" fill="rgb(0,71,228)"/><rect x="80" y="27" width="1" height="1" fill="rgb(0,88,243)"/><rect x="78" y="28" width="2" height="1" fill="rgb(17,114,251)"/><rect x="96" y="37" width="4" height="1" fill="rgb(44,131,251)"/><rect x="95" y="38" width="2" height="1" fill="rgb(44,131,251)"/><rect x="97" y="38" width="2" height="1" fill="rgb(71,155,251)"/><rect x="99" y="38" width="2" height="1" fill="rgb(44,131,251)"/><rect x="95" y="39" width="2" height="1" fill="rgb(17,114,251)"/><rect x="97" y="39" width="2" height="1" fill="rgb(44,131,251)"/><rect x="99" y="39" width="2" height="1" fill="rgb(17,114,251)"/><rect x="95" y="40" width="1" height="1" fill="rgb(0,71,228)"/><rect x="96" y="40" width="4" height="1" fill="rgb(17,114,251)"/><rect x="100" y="40" width="1" height="1" fill="rgb(0,71,228)"/><rect x="95" y="41" width="1" height="1" fill="rgb(17,114,251)"/><rect x="96" y="41" width="1" height="1" fill="rgb(0,71,228)"/><rect x="97" y="41" width="2" height="1" fill="rgb(0,53,212)"/><rect x="99" y="41" width="1" height="1" fill="rgb(0,71,228)"/><rect x="100" y="41" width="1" height="1" fill="rgb(17,114,251)"/><rect x="96" y="42" width="1" height="1" fill="rgb(17,114,251)"/><rect x="97" y="42" width="2" height="1" fill="rgb(0,71,228)"/><rect x="99" y="42" width="1" height="1" fill="rgb(17,114,251)"/><rect x="18" y="55" width="2" height="2" fill="rgb(44,131,251)"/><rect x="17" y="56" width="1" height="1" fill="rgb(0,71,228)"/><rect x="20" y="56" width="1" height="1" fill="rgb(0,71,228)"/><rect x="17" y="57" width="1" height="1" fill="rgb(0,88,243)"/><rect x="18" y="57" width="2" height="1" fill="rgb(0,71,228)"/><rect x="20" y="57" width="1" height="1" fill="rgb(0,88,243)"/><rect x="108" y="57" width="4" height="1" fill="rgb(44,131,251)"/><rect x="18" y="58" width="2" height="1" fill="rgb(17,114,251)"/><rect x="107" y="58" width="1" height="1" fill="rgb(44,131,251)"/><rect x="108" y="58" width="1" height="1" fill="rgb(71,155,251)"/><rect x="109" y="58" width="2" height="1" fill="rgb(97,179,251)"/><rect x="111" y="58" width="1" height="1" fill="rgb(71,155,251)"/><rect x="112" y="58" width="1" height="1" fill="rgb(44,131,251)"/><rect x="106" y="59" width="2" height="1" fill="rgb(17,114,251)"/><rect x="108" y="59" width="1" height="1" fill="rgb(44,131,251)"/><rect x="109" y="59" width="2" height="1" fill="rgb(71,155,251)"/><rect x="111" y="59" width="1" height="1" fill="rgb(44,131,251)"/><rect x="112" y="59" width="2" height="1" fill="rgb(17,114,251)"/><rect x="107" y="60" width="2" height="1" fill="rgb(17,114,251)"/><rect x="109" y="60" width="2" height="1" fill="rgb(44,131,251)"/><rect x="111" y="60" width="2" height="1" fill="rgb(17,114,251)"/><rect x="106" y="60" width="1" height="2" fill="rgb(0,88,243)"/><rect x="113" y="60" width="1" height="2" fill="rgb(0,88,243)"/><rect x="107" y="61" width="1" height="1" fill="rgb(0,71,228)"/><rect x="108" y="61" width="4" height="1" fill="rgb(17,114,251)"/><rect x="112" y="61" width="1" height="1" fill="rgb(0,71,228)"/><rect x="106" y="62" width="1" height="1" fill="rgb(17,114,251)"/><rect x="107" y="62" width="1" height="1" fill="rgb(0,88,243)"/><rect x="108" y="62" width="1" height="1" fill="rgb(0,71,228)"/><rect x="109" y="62" width="2" height="1" fill="rgb(0,53,212)"/><rect x="111" y="62" width="1" height="1" fill="rgb(0,71,228)"/><rect x="112" y="62" width="1" height="1" fill="rgb(0,88,243)"/><rect x="113" y="62" width="1" height="1" fill="rgb(17,114,251)"/><rect x="107" y="63" width="1" height="1" fill="rgb(44,131,251)"/><rect x="108" y="63" width="1" height="1" fill="rgb(0,88,243)"/><rect x="109" y="63" width="2" height="1" fill="rgb(0,71,228)"/><rect x="111" y="63" width="1" height="1" fill="rgb(0,88,243)"/><rect x="112" y="63" width="1" height="1" fill="rgb(44,131,251)"/><rect x="108" y="64" width="4" height="1" fill="rgb(44,131,251)"/><rect x="16" y="80" width="4" height="1" fill="rgb(44,131,251)"/><rect x="15" y="81" width="2" height="1" fill="rgb(44,131,251)"/><rect x="17" y="81" width="2" height="1" fill="rgb(71,155,251)"/><rect x="19" y="81" width="2" height="1" fill="rgb(44,131,251)"/><rect x="15" y="82" width="2" height="1" fill="rgb(17,114,251)"/><rect x="17" y="82" width="2" height="1" fill="rgb(44,131,251)"/><rect x="19" y="82" width="2" height="1" fill="rgb(17,114,251)"/><rect x="107" y="82" width="4" height="1" fill="rgb(44,131,251)"/><rect x="15" y="83" width="1" height="1" fill="rgb(0,71,228)"/><rect x="16" y="83" width="4" height="1" fill="rgb(17,114,251)"/><rect x="20" y="83" width="1" height="1" fill="rgb(0,71,228)"/><rect x="105" y="83" width="2" height="1" fill="rgb(44,131,251)"/><rect x="107" y="83" width="1" height="1" fill="rgb(71,155,251)"/><rect x="108" y="83" width="2" height="1" fill="rgb(97,179,251)"/><rect x="110" y="83" width="1" height="1" fill="rgb(71,155,251)"/><rect x="111" y="83" width="2" height="1" fill="rgb(44,131,251)"/><rect x="15" y="84" width="1" height="1" fill="rgb(17,114,251)"/><rect x="16" y="84" width="1" height="1" fill="rgb(0,71,228)"/><rect x="17" y="84" width="2" height="1" fill="rgb(0,53,212)"/><rect x="19" y="84" width="1" height="1" fill="rgb(0,71,228)"/><rect x="20" y="84" width="1" height="1" fill="rgb(17,114,251)"/><rect x="105" y="84" width="1" height="1" fill="rgb(44,131,251)"/><rect x="106" y="84" width="6" height="1" fill="rgb(71,155,251)"/><rect x="112" y="84" width="1" height="1" fill="rgb(44,131,251)"/><rect x="16" y="85" width="1" height="1" fill="rgb(17,114,251)"/><rect x="17" y="85" width="2" height="1" fill="rgb(0,71,228)"/><rect x="19" y="85" width="1" height="1" fill="rgb(17,114,251)"/><rect x="104" y="85" width="1" height="1" fill="rgb(0,88,243)"/><rect x="105" y="85" width="1" height="1" fill="rgb(17,114,251)"/><rect x="106" y="85" width="1" height="1" fill="rgb(44,131,251)"/><rect x="107" y="85" width="4" height="1" fill="rgb(71,155,251)"/><rect x="111" y="85" width="1" height="1" fill="rgb(44,131,251)"/><rect x="112" y="85" width="1" height="1" fill="rgb(17,114,251)"/><rect x="113" y="85" width="1" height="1" fill="rgb(0,88,243)"/><rect x="104" y="86" width="1" height="1" fill="rgb(0,71,228)"/><rect x="105" y="86" width="2" height="1" fill="rgb(17,114,251)"/><rect x="107" y="86" width="4" height="1" fill="rgb(44,131,251)"/><rect x="111" y="86" width="2" height="1" fill="rgb(17,114,251)"/><rect x="113" y="86" width="1" height="1" fill="rgb(0,71,228)"/><rect x="105" y="87" width="1" height="1" fill="rgb(0,71,228)"/><rect x="106" y="87" width="1" height="1" fill="rgb(0,88,243)"/><rect x="107" y="87" width="4" height="1" fill="rgb(17,114,251)"/><rect x="111" y="87" width="1" height="1" fill="rgb(0,88,243)"/><rect x="112" y="87" width="1" height="1" fill="rgb(0,71,228)"/><rect x="104" y="87" width="1" height="2" fill="rgb(0,88,243)"/><rect x="113" y="87" width="1" height="2" fill="rgb(0,88,243)"/><rect x="105" y="88" width="2" height="1" fill="rgb(0,71,228)"/><rect x="107" y="88" width="4" height="1" fill="rgb(0,53,212)"/><rect x="111" y="88" width="2" height="1" fill="rgb(0,71,228)"/><rect x="105" y="89" width="1" height="1" fill="rgb(0,88,243)"/><rect x="106" y="89" width="6" height="1" fill="rgb(0,71,228)"/><rect x="112" y="89" width="1" height="1" fill="rgb(0,88,243)"/><rect x="105" y="90" width="2" height="1" fill="rgb(44,131,251)"/><rect x="107" y="90" width="4" height="1" fill="rgb(0,88,243)"/><rect x="111" y="90" width="2" height="1" fill="rgb(44,131,251)"/><rect x="107" y="91" width="4" height="1" fill="rgb(44,131,251)"/><rect x="28" y="100" width="4" height="1" fill="rgb(44,131,251)"/><rect x="27" y="101" width="1" height="1" fill="rgb(44,131,251)"/><rect x="28" y="101" width="1" height="1" fill="rgb(71,155,251)"/><rect x="29" y="101" width="2" height="1" fill="rgb(97,179,251)"/><rect x="31" y="101" width="1" height="1" fill="rgb(71,155,251)"/><rect x="32" y="101" width="1" height="1" fill="rgb(44,131,251)"/><rect x="94" y="101" width="4" height="1" fill="rgb(44,131,251)"/><rect x="26" y="102" width="2" height="1" fill="rgb(17,114,251)"/><rect x="28" y="102" width="1" height="1" fill="rgb(44,131,251)"/><rect x="29" y="102" width="2" height="1" fill="rgb(71,155,251)"/><rect x="31" y="102" width="1" height="1" fill="rgb(44,131,251)"/><rect x="32" y="102" width="2" height="1" fill="rgb(17,114,251)"/><rect x="92" y="102" width="2" height="1" fill="rgb(44,131,251)"/><rect x="94" y="102" width="1" height="1" fill="rgb(71,155,251)"/><rect x="95" y="102" width="2" height="1" fill="rgb(97,179,251)"/><rect x="97" y="102" width="1" height="1" fill="rgb(71,155,251)"/><rect x="98" y="102" width="2" height="1" fill="rgb(44,131,251)"/><rect x="27" y="103" width="2" height="1" fill="rgb(17,114,251)"/><rect x="29" y="103" width="2" height="1" fill="rgb(44,131,251)"/><rect x="31" y="103" width="2" height="1" fill="rgb(17,114,251)"/><rect x="92" y="103" width="1" height="1" fill="rgb(44,131,251)"/><rect x="93" y="103" width="6" height="1" fill="rgb(71,155,251)"/><rect x="99" y="103" width="1" height="1" fill="rgb(44,131,251)"/><rect x="26" y="103" width="1" height="2" fill="rgb(0,88,243)"/><rect x="33" y="103" width="1" height="2" fill="rgb(0,88,243)"/><rect x="27" y="104" width="1" height="1" fill="rgb(0,71,228)"/><rect x="28" y="104" width="4" height="1" fill="rgb(17,114,251)"/><rect x="32" y="104" width="1" height="1" fill="rgb(0,71,228)"/><rect x="91" y="104" width="1" height="1" fill="rgb(0,88,243)"/><rect x="92" y="104" width="1" height="1" fill="rgb(17,114,251)"/><rect x="93" y="104" width="1" height="1" fill="rgb(44,131,251)"/><rect x="94" y="104" width="4" height="1" fill="rgb(71,155,251)"/><rect x="98" y="104" width="1" height="1" fill="rgb(44,131,251)"/><rect x="99" y="104" width="1" height="1" fill="rgb(17,114,251)"/><rect x="100" y="104" width="1" height="1" fill="rgb(0,88,243)"/><rect x="26" y="105" width="1" height="1" fill="rgb(17,114,251)"/><rect x="27" y="105" width="1" height="1" fill="rgb(0,88,243)"/><rect x="28" y="105" width="1" height="1" fill="rgb(0,71,228)"/><rect x="29" y="105" width="2" height="1" fill="rgb(0,53,212)"/><rect x="31" y="105" width="1" height="1" fill="rgb(0,71,228)"/><rect x="32" y="105" width="1" height="1" fill="rgb(0,88,243)"/><rect x="33" y="105" width="1" height="1" fill="rgb(17,114,251)"/><rect x="91" y="105" width="1" height="1" fill="rgb(0,71,228)"/><rect x="92" y="105" width="2" height="1" fill="rgb(17,114,251)"/><rect x="94" y="105" width="4" height="1" fill="rgb(44,131,251)"/><rect x="98" y="105" width="2" height="1" fill="rgb(17,114,251)"/><rect x="100" y="105" width="1" height="1" fill="rgb(0,71,228)"/><rect x="27" y="106" width="1" height="1" fill="rgb(44,131,251)"/><rect x="28" y="106" width="1" height="1" fill="rgb(0,88,243)"/><rect x="29" y="106" width="2" height="1" fill="rgb(0,71,228)"/><rect x="31" y="106" width="1" height="1" fill="rgb(0,88,243)"/><rect x="32" y="106" width="1" height="1" fill="rgb(44,131,251)"/><rect x="92" y="106" width="1" height="1" fill="rgb(0,71,228)"/><rect x="93" y="106" width="1" height="1" fill="rgb(0,88,243)"/><rect x="94" y="106" width="4" height="1" fill="rgb(17,114,251)"/><rect x="98" y="106" width="1" height="1" fill="rgb(0,88,243)"/><rect x="99" y="106" width="1" height="1" fill="rgb(0,71,228)"/><rect x="91" y="106" width="1" height="2" fill="rgb(0,88,243)"/><rect x="100" y="106" width="1" height="2" fill="rgb(0,88,243)"/><rect x="28" y="107" width="4" height="1" fill="rgb(44,131,251)"/><rect x="92" y="107" width="2" height="1" fill="rgb(0,71,228)"/><rect x="94" y="107" width="4" height="1" fill="rgb(0,53,212)"/><rect x="98" y="107" width="2" height="1" fill="rgb(0,71,228)"/><rect x="92" y="108" width="1" height="1" fill="rgb(0,88,243)"/><rect x="93" y="108" width="6" height="1" fill="rgb(0,71,228)"/><rect x="99" y="108" width="1" height="1" fill="rgb(0,88,243)"/><rect x="92" y="109" width="2" height="1" fill="rgb(44,131,251)"/><rect x="94" y="109" width="4" height="1" fill="rgb(0,88,243)"/><rect x="98" y="109" width="2" height="1" fill="rgb(44,131,251)"/><rect x="94" y="110" width="4" height="1" fill="rgb(44,131,251)"/><rect x="47" y="112" width="4" height="1" fill="rgb(44,131,251)"/><rect x="73" y="112" width="4" height="1" fill="rgb(44,131,251)"/><rect x="45" y="113" width="2" height="1" fill="rgb(44,131,251)"/><rect x="47" y="113" width="1" height="1" fill="rgb(71,155,251)"/><rect x="48" y="113" width="2" height="1" fill="rgb(97,179,251)"/><rect x="50" y="113" width="1" height="1" fill="rgb(71,155,251)"/><rect x="51" y="113" width="2" height="1" fill="rgb(44,131,251)"/><rect x="71" y="113" width="2" height="1" fill="rgb(44,131,251)"/><rect x="73" y="113" width="4" height="1" fill="rgb(71,155,251)"/><rect x="77" y="113" width="2" height="1" fill="rgb(44,131,251)"/><rect x="45" y="114" width="1" height="1" fill="rgb(44,131,251)"/><rect x="46" y="114" width="6" height="1" fill="rgb(71,155,251)"/><rect x="52" y="114" width="1" height="1" fill="rgb(44,131,251)"/><rect x="70" y="114" width="2" height="1" fill="rgb(44,131,251)"/><rect x="72" y="114" width="1" height="1" fill="rgb(71,155,251)"/><rect x="73" y="114" width="4" height="1" fill="rgb(97,179,251)"/><rect x="77" y="114" width="1" height="1" fill="rgb(71,155,251)"/><rect x="78" y="114" width="2" height="1" fill="rgb(44,131,251)"/><rect x="44" y="115" width="1" height="1" fill="rgb(0,88,243)"/><rect x="45" y="115" width="1" height="1" fill="rgb(17,114,251)"/><rect x="46" y="115" width="1" height="1" fill="rgb(44,131,251)"/><rect x="47" y="115" width="4" height="1" fill="rgb(71,155,251)"/><rect x="51" y="115" width="1" height="1" fill="rgb(44,131,251)"/><rect x="52" y="115" width="1" height="1" fill="rgb(17,114,251)"/><rect x="53" y="115" width="1" height="1" fill="rgb(0,88,243)"/><rect x="70" y="115" width="1" height="1" fill="rgb(44,131,251)"/><rect x="71" y="115" width="8" height="1" fill="rgb(71,155,251)"/><rect x="79" y="115" width="1" height="1" fill="rgb(44,131,251)"/><rect x="44" y="116" width="1" height="1" fill="rgb(0,71,228)"/><rect x="45" y="116" width="2" height="1" fill="rgb(17,114,251)"/><rect x="47" y="116" width="4" height="1" fill="rgb(44,131,251)"/><rect x="51" y="116" width="2" height="1" fill="rgb(17,114,251)"/><rect x="53" y="116" width="1" height="1" fill="rgb(0,71,228)"/><rect x="71" y="116" width="1" height="1" fill="rgb(17,114,251)"/><rect x="72" y="116" width="1" height="1" fill="rgb(44,131,251)"/><rect x="73" y="116" width="4" height="1" fill="rgb(71,155,251)"/><rect x="77" y="116" width="1" height="1" fill="rgb(44,131,251)"/><rect x="78" y="116" width="1" height="1" fill="rgb(17,114,251)"/><rect x="70" y="116" width="1" height="2" fill="rgb(0,88,243)"/><rect x="79" y="116" width="1" height="2" fill="rgb(0,88,243)"/><rect x="45" y="117" width="1" height="1" fill="rgb(0,71,228)"/><rect x="46" y="117" width="1" height="1" fill="rgb(0,88,243)"/><rect x="47" y="117" width="4" height="1" fill="rgb(17,114,251)"/><rect x="51" y="117" width="1" height="1" fill="rgb(0,88,243)"/><rect x="52" y="117" width="1" height="1" fill="rgb(0,71,228)"/><rect x="71" y="117" width="2" height="1" fill="rgb(17,114,251)"/><rect x="73" y="117" width="4" height="1" fill="rgb(44,131,251)"/><rect x="77" y="117" width="2" height="1" fill="rgb(17,114,251)"/><rect x="44" y="117" width="1" height="2" fill="rgb(0,88,243)"/><rect x="53" y="117" width="1" height="2" fill="rgb(0,88,243)"/><rect x="45" y="118" width="2" height="1" fill="rgb(0,71,228)"/><rect x="47" y="118" width="4" height="1" fill="rgb(0,53,212)"/><rect x="51" y="118" width="2" height="1" fill="rgb(0,71,228)"/><rect x="70" y="118" width="1" height="1" fill="rgb(0,71,228)"/><rect x="71" y="118" width="2" height="1" fill="rgb(0,88,243)"/><rect x="73" y="118" width="4" height="1" fill="rgb(17,114,251)"/><rect x="77" y="118" width="2" height="1" fill="rgb(0,88,243)"/><rect x="79" y="118" width="1" height="1" fill="rgb(0,71,228)"/><rect x="69" y="116" width="1" height="4" fill="rgb(17,114,251)"/><rect x="80" y="116" width="1" height="4" fill="rgb(17,114,251)"/><rect x="45" y="119" width="1" height="1" fill="rgb(0,88,243)"/><rect x="46" y="119" width="6" height="1" fill="rgb(0,71,228)"/><rect x="52" y="119" width="1" height="1" fill="rgb(0,88,243)"/><rect x="70" y="119" width="1" height="1" fill="rgb(0,88,243)"/><rect x="71" y="119" width="1" height="1" fill="rgb(0,71,228)"/><rect x="72" y="119" width="1" height="1" fill="rgb(0,53,212)"/><rect x="73" y="119" width="1" height="1" fill="rgb(0,71,228)"/><rect x="74" y="119" width="2" height="1" fill="rgb(0,88,243)"/><rect x="76" y="119" width="1" height="1" fill="rgb(0,71,228)"/><rect x="77" y="119" width="1" height="1" fill="rgb(0,53,212)"/><rect x="78" y="119" width="1" height="1" fill="rgb(0,71,228)"/><rect x="79" y="119" width="1" height="1" fill="rgb(0,88,243)"/><rect x="45" y="120" width="2" height="1" fill="rgb(44,131,251)"/><rect x="47" y="120" width="4" height="1" fill="rgb(0,88,243)"/><rect x="51" y="120" width="2" height="1" fill="rgb(44,131,251)"/><rect x="71" y="120" width="1" height="1" fill="rgb(0,88,243)"/><rect x="72" y="120" width="1" height="1" fill="rgb(0,71,228)"/><rect x="73" y="120" width="1" height="1" fill="rgb(0,53,212)"/><rect x="74" y="120" width="2" height="1" fill="rgb(0,35,187)"/><rect x="76" y="120" width="1" height="1" fill="rgb(0,53,212)"/><rect x="77" y="120" width="1" height="1" fill="rgb(0,71,228)"/><rect x="78" y="120" width="1" height="1" fill="rgb(0,88,243)"/><rect x="70" y="120" width="1" height="2" fill="rgb(17,114,251)"/><rect x="79" y="120" width="1" height="2" fill="rgb(17,114,251)"/><rect x="47" y="121" width="4" height="1" fill="rgb(44,131,251)"/><rect x="71" y="121" width="2" height="1" fill="rgb(0,88,243)"/><rect x="73" y="121" width="4" height="1" fill="rgb(0,71,228)"/><rect x="77" y="121" width="2" height="1" fill="rgb(0,88,243)"/><rect x="71" y="122" width="1" height="1" fill="rgb(44,131,251)"/><rect x="72" y="122" width="6" height="1" fill="rgb(17,114,251)"/><rect x="78" y="122" width="1" height="1" fill="rgb(44,131,251)"/><rect x="73" y="123" width="4" height="1" fill="rgb(44,131,251)"/></svg>