<svg xmlns="http://www.w3.org/2000/svg" width="128" height="144" viewBox="0 0 128 144"><rect x="62" y="29" width="4" height="1" fill="rgb(44,131,251)"/><rect x="60" y="30" width="2" height="1" fill="rgb(44,131,251)"/><rect x="62" y="30" width="1" height="1" fill="rgb(71,155,251)"/><rect x="63" y="30" width="2" height="1" fill="rgb(97,179,251)"/><rect x="65" y="30" width="1" height="1" fill="rgb(71,155,251)"/><rect x="66" y="30" width="2" height="1" fill="rgb(44,131,251)"/><rect x="60" y="31" width="1" height="1" fill="rgb(44,131,251)"/><rect x="61" y="31" width="6" height="1" fill="rgb(71,155,251)"/><rect x="67" y="31" width="1" height="1" fill="rgb(44,131,251)"/><rect x="59" y="32" width="1" height="1" fill="rgb(0,88,243)"/><rect x="60" y="32" width="1" height="1" fill="rgb(17,114,251)"/><rect x="61" y="32" width="1" height="1" fill="rgb(44,131,251)"/><rect x="62" y="32" width="4" height="1" fill="rgb(71,155,251)"/><rect x="66" y="32" width="1" height="1" fill="rgb(44,131,251)"/><rect x="67" y="32" width="1" height="1" fill="rgb(17,114,251)"/><rect x="68" y="32" width="1" height="1" fill="rgb(0,88,243)"/><rect x="59" y="33" width="1" height="1" fill="rgb(0,71,228)"/><rect x="60" y="33" width="2" height="1" fill="rgb(17,114,251)"/><rect x="62" y="33" width="4" height="1" fill="rgb(44,131,251)"/><rect x="66" y="33" width="2" height="1" fill="rgb(17,114,251)"/><rect x="68" y="33" width="1" height="1" fill="rgb(0,71,228)"/><rect x="60" y="34" width="1" height="1" fill="rgb(0,71,228)"/><rect x="61" y="34" width="1" height="1" fill="rgb(0,88,243)"/><rect x="62" y="34" width="4" height="1" fill="rgb(17,114,251)"/><rect x="66" y="34" width="1" height="1" fill="rgb(0,88,243)"/><rect x="67" y="34" width="1" height="1" fill="rgb(0,71,228)"/><rect x="59" y="34" width="1" height="2" fill="rgb(0,88,243)"/><rect x="68" y="34" width="1" height="2" fill="rgb(0,88,243)"/><rect x="43" y="35" width="4" height="1" fill="rgb(44,131,251)"/><rect x="60" y="35" width="2" height="1" fill="rgb(0,71,228)"/><rect x="62" y="35" width="4" height="1" fill="rgb(0,53,212)"/><rect x="66" y="35" width="2" height="1" fill="rgb(0,71,228)"/><rect x="81" y="35" width="4" height="1" fill="rgb(44,131,251)"/><rect x="41" y="36" width="2" height="1" fill="rgb(44,131,251)"/><rect x="43" y="36" width="1" height="1" fill="rgb(71,155,251)"/><rect x="44" y="36" width="2" height="1" fill="rgb(97,179,251)"/><rect x="46" y="36" width="1" height="1" fill="rgb(71,155,251)"/><rect x="47" y="36" width="2" height="1" fill="rgb(44,131,251)"/><rect x="60" y="36" width="1" height="1" fill="rgb(0,88,243)"/><rect x="61" y="36" width="6" height="1" fill="rgb(0,71,228)"/><rect x="67" y="36" width="1" height="1" fill="rgb(0,88,243)"/><rect x="79" y="36" width="2" height="1" fill="rgb(44,131,251)"/><rect x="81" y="36" width="1" height="1" fill="rgb(71,155,251)"/><rect x="82" y="36" width="2" height="1" fill="rgb(97,179,251)"/><rect x="84" y="36" width="1" height="1" fill="rgb(71,155,251)"/><rect x="85" y="36" width="2" height="1" fill="rgb(44,131,251)"/><rect x="41" y="37" width="1" height="1" fill="rgb(44,131,251)"/><rect x="42" y="37" width="6" height="1" fill="rgb(71,155,251)"/><rect x="48" y="37" width="1" height="1" fill="rgb(44,131,251)"/><rect x="60" y="37" width="2" height="1" fill="rgb(44,131,251)"/><rect x="62" y="37" width="4" height="1" fill="rgb(0,88,243)"/><rect x="66" y="37" width="2" height="1" fill="rgb(44,131,251)"/><rect x="79" y="37" width="1" height="1" fill="rgb(44,131,251)"/><rect x="80" y="37" width="6" height="1" fill="rgb(71,155,251)"/><rect x="86" y="37" width="1" height="1" fill="rgb(44,131,251)"/><rect x="40" y="38" width="1" height="1" fill="rgb(0,88,243)"/><rect x="41" y="38" width="1" height="1" fill="rgb(17,114,251)"/><rect x="42" y="38" width="1" height="1" fill="rgb(44,131,251)"/><rect x="43" y="38" width="4" height="1" fill="rgb(71,155,251)"/><rect x="47" y="38" width="1" height="1" fill="rgb(44,131,251)"/><rect x="48" y="38" width="1" height="1" fill="rgb(17,114,251)"/><rect x="49" y="38" width="1" height="1" fill="rgb(0,88,243)"/><rect x="62" y="38" width="4" height="1" fill="rgb(44,131,251)"/><rect x="78" y="38" width="1" height="1" fill="rgb(0,88,243)"/><rect x="79" y="38" width="1" height="1" fill="rgb(17,114,251)"/><rect x="80" y="38" width="1" height="1" fill="rgb(44,131,251)"/><rect x="81" y="38" width="4" height="1" fill="rgb(71,155,251)"/><rect x="85" y="38" width="1" height="1" fill="rgb(44,131,251)"/><rect x="86" y="38" width="1" height="1" fill="rgb(17,114,251)"/><rect x="87" y="38" width="1" height="1" fill="rgb(0,88,243)"/><rect x="40" y="39" width="1" height="1" fill="rgb(0,71,228)"/><rect x="41" y="39" width="2" height="1" fill="rgb(17,114,251)"/><rect x="43" y="39" width="4" height="1" fill="rgb(44,131,251)"/><rect x="47" y="39" width="2" height="1" fill="rgb(17,114,251)"/><rect x="49" y="39" width="1" height="1" fill="rgb(0,71,228)"/><rect x="78" y="39" width="1" height="1" fill="rgb(0,71,228)"/><rect x="79" y="39" width="2" height="1" fill="rgb(17,114,251)"/><rect x="81" y="39" width="4" height="1" fill="rgb(44,131,251)"/><rect x="85" y="39" width="2" height="1" fill="rgb(17,114,251)"/><rect x="87" y="39" width="1" height="1" fill="rgb(0,71,228)"/><rect x="41" y="40" width="1" height="1" fill="rgb(0,71,228)"/><rect x="42" y="40" width="1" height="1" fill="rgb(0,88,243)"/><rect x="43" y="40" width="4" height="1" fill="rgb(17,114,251)"/><rect x="47" y="40" width="1" height="1" fill="rgb(0,88,243)"/><rect x="48" y="40" width="1" height="1" fill="rgb(0,71,228)"/><rect x="79" y="40" width="1" height="1" fill="rgb(0,71,228)"/><rect x="80" y="40" width="1" height="1" fill="rgb(0,88,243)"/><rect x="81" y="40" width="4" height="1" fill="rgb(17,114,251)"/><rect x="85" y="40" width="1" height="1" fill="rgb(0,88,243)"/><rect x="86" y="40" width="1" height="1" fill="rgb(0,71,228)"/><rect x="40" y="40" width="1" height="2" fill="rgb(0,88,243)"/><rect x="49" y="40" width="1" height="2" fill="rgb(0,88,243)"/><rect x="78" y="40" width="1" height="2" fill="rgb(0,88,243)"/><rect x="87" y="40" width="1" height="2" fill="rgb(0,88,243)"/><rect x="41" y="41" width="2" height="1" fill="rgb(0,71,228)"/><rect x="43" y="41" width="4" height="1" fill="rgb(0,53,212)"/><rect x="47" y="41" width="2" height="1" fill="rgb(0,71,228)"/><rect x="79" y="41" width="2" height="1" fill="rgb(0,71,228)"/><rect x="81" y="41" width="4" height="1" fill="rgb(0,53,212)"/><rect x="85" y="41" width="2" height="1" fill="rgb(0,71,228)"/><rect x="41" y="42" width="1" height="1" fill="rgb(0,88,243)"/><rect x="42" y="42" width="6" height="1" fill="rgb(0,71,228)"/><rect x="48" y="42" width="1" height="1" fill="rgb(0,88,243)"/><rect x="79" y="42" width="1" height="1" fill="rgb(0,88,243)"/><rect x="80" y="42" width="6" height="1" fill="rgb(0,71,228)"/><rect x="86" y="42" width="1" height="1" fill="rgb(0,88,243)"/><rect x="41" y="43" width="2" height="1" fill="rgb(44,131,251)"/><rect x="43" y="43" width="4" height="1" fill="rgb(0,88,243)"/><rect x="47" y="43" width="2" height="1" fill="rgb(44,131,251)"/><rect x="79" y="43" width="2" height="1" fill="rgb(44,131,251)"/><rect x="81" y="43" width="4" height="1" fill="rgb(0,88,243)"/><rect x="85" y="43" width="2" height="1" fill="rgb(44,131,251)"/><rect x="43" y="44" width="4" height="1" fill="rgb(44,131,251)"/><rect x="81" y="44" width="4" height="1" fill="rgb(44,131,251)"/><rect x="30" y="48" width="4" height="1" fill="rgb(44,131,251)"/><rect x="94" y="48" width="4" height="1" fill="rgb(44,131,251)"/><rect x="28" y="49" width="2" height="1" fill="rgb(44,131,251)"/><rect x="30" y="49" width="1" height="1" fill="rgb(71,155,251)"/><rect x="31" y="49" width="2" height="1" fill="rgb(97,179,251)"/><rect x="33" y="49" width="1" height="1" fill="rgb(71,155,251)"/><rect x="34" y="49" width="2" height="1" fill="rgb(44,131,251)"/><rect x="92" y="49" width="2" height="1" fill="rgb(44,131,251)"/><rect x="94" y="49" width="1" height="1" fill="rgb(71,155,251)"/><rect x="95" y="49" width="2" height="1" fill="rgb(97,179,251)"/><rect x="97" y="49" width="1" height="1" fill="rgb(71,155,251)"/><rect x="98" y="49" width="2" height="1" fill="rgb(44,131,251)"/><rect x="28" y="50" width="1" height="1" fill="rgb(44,131,251)"/><rect x="29" y="50" width="6" height="1" fill="rgb(71,155,251)"/><rect x="35" y="50" width="1" height="1" fill="rgb(44,131,251)"/><rect x="92" y="50" width="1" height="1" fill="rgb(44,131,251)"/><rect x="93" y="50" width="6" height="1" fill="rgb(71,155,251)"/><rect x="99" y="50" width="1" height="1" fill="rgb(44,131,251)"/><rect x="27" y="51" width="1" height="1" fill="rgb(0,88,243)"/><rect x="28" y="51" width="1" height="1" fill="rgb(17,114,251)"/><rect x="29" y="51" width="1" height="1" fill="rgb(44,131,251)"/><rect x="30" y="51" width="4" height="1" fill="rgb(71,155,251)"/><rect x="34" y="51" width="1" height="1" fill="rgb(44,131,251)"/><rect x="35" y="51" width="1" height="1" fill="rgb(17,114,251)"/><rect x="36" y="51" width="1" height="1" fill="rgb(0,88,243)"/><rect x="91" y="51" width="1" height="1" fill="rgb(0,88,243)"/><rect x="92" y="51" width="1" height="1" fill="rgb(17,114,251)"/><rect x="93" y="51" width="1" height="1" fill="rgb(44,131,251)"/><rect x="94" y="51" width="4" height="1" fill="rgb(71,155,251)"/><rect x="98" y="51" width="1" height="1" fill="rgb(44,131,251)"/><rect x="99" y="51" width="1" height="1" fill="rgb(17,114,251)"/><rect x="100" y="51" width="1" height="1" fill="rgb(0,88,243)"/><rect x="27" y="52" width="1" height="1" fill="rgb(0,71,228)"/><rect x="28" y="52" width="2" height="1" fill="rgb(17,114,251)"/><rect x="30" y="52" width="4" height="1" fill="rgb(44,131,251)"/><rect x="34" y="52" width="2" height="1" fill="rgb(17,114,251)"/><rect x="36" y="52" width="1" height="1" fill="rgb(0,71,228)"/><rect x="91" y="52" width="1" height="1" fill="rgb(0,71,228)"/><rect x="92" y="52" width="2" height="1" fill="rgb(17,114,251)"/><rect x="94" y="52" width="4" height="1" fill="rgb(44,131,251)"/><rect x="98" y="52" width="2" height="1" fill="rgb(17,114,251)"/><rect x="100" y="52" width="1" height="1" fill="rgb(0,71,228)"/><rect x="28" y="53" width="1" height="1" fill="rgb(0,71,228)"/><rect x="29" y="53" width="1" height="1" fill="rgb(0,88,243)"/><rect x="30" y="53" width="4" height="1" fill="rgb(17,114,251)"/><rect x="34" y="53" width="1" height="1" fill="rgb(0,88,243)"/><rect x="35" y="53" width="1" height="1" fill="rgb(0,71,228)"/><rect x="92" y="53" width="1" height="1" fill="rgb(0,71,228)"/><rect x="93" y="53" width="1" height="1" fill="rgb(0,88,243)"/><rect x="94" y="53" width="4" height="1" fill="rgb(17,114,251)"/><rect x="98" y="53" width="1" height="1" fill="rgb(0,88,243)"/><rect x="99" y="53" width="1" height="1" fill="rgb(0,71,228)"/><rect x="27" y="53" width="1" height="2" fill="rgb(0,88,243)"/><rect x="36" y="53" width="1" height="2" fill="rgb(0,88,243)"/><rect x="91" y="53" width="1" height="2" fill="rgb(0,88,243)"/><rect x="100" y="53" width="1" height="2" fill="rgb(0,88,243)"/><rect x="28" y="54" width="2" height="1" fill="rgb(0,71,228)"/><rect x="30" y="54" width="4" height="1" fill="rgb(0,53,212)"/><rect x="34" y="54" width="2" height="1" fill="rgb(0,71,228)"/><rect x="92" y="54" width="2" height="1" fill="rgb(0,71,228)"/><rect x="94" y="54" width="4" height="1" fill="rgb(0,53,212)"/><rect x="98" y="54" width="2" height="1" fill="rgb(0,71,228)"/><rect x="28" y="55" width="1" height="1" fill="rgb(0,88,243)"/><rect x="29" y="55" width="6" height="1" fill="rgb(0,71,228)"/><rect x="35" y="55" width="1" height="1" fill="rgb(0,88,243)"/><rect x="92" y="55" width="1" height="1" fill="rgb(0,88,243)"/><rect x="93" y="55" width="6" height="1" fill="rgb(0,71,228)"/><rect x="99" y="55" width="1" height="1" fill="rgb(0,88,243)"/><rect x="28" y="56" width="2" height="1" fill="rgb(44,131,251)"/><rect x="30" y="56" width="4" height="1" fill="rgb(0,88,243)"/><rect x="34" y="56" width="2" height="1" fill="rgb(44,131,251)"/><rect x="92" y="56" width="2" height="1" fill="rgb(44,131,251)"/><rect x="94" y="56" width="4" height="1" fill="rgb(0,88,243)"/><rect x="98" y="56" width="2" height="1" fill="rgb(44,131,251)"/><rect x="30" y="57" width="4" height="1" fill="rgb(44,131,251)"/><rect x="94" y="57" width="4" height="1" fill="rgb(44,131,251)"/><rect x="24" y="67" width="4" height="1" fill="rgb(44,131,251)"/><rect x="100" y="67" width="4" height="1" fill="rgb(44,131,251)"/><rect x="22" y="68" width="2" height="1" fill="rgb(44,131,251)"/><rect x="24" y="68" width="1" height="1" fill="rgb(71,155,251)"/><rect x="25" y="68" width="2" height="1" fill="rgb(97,179,251)"/><rect x="27" y="68" width="1" height="1" fill="rgb(71,155,251)"/><rect x="28" y="68" width="2" height="1" fill="rgb(44,131,251)"/><rect x="98" y="68" width="2" height="1" fill="rgb(44,131,251)"/><rect x="100" y="68" width="1" height="1" fill="rgb(71,155,251)"/><rect x="101" y="68" width="2" height="1" fill="rgb(97,179,251)"/><rect x="103" y="68" width="1" height="1" fill="rgb(71,155,251)"/><rect x="104" y="68" width="2" height="1" fill="rgb(44,131,251)"/><rect x="22" y="69" width="1" height="1" fill="rgb(44,131,251)"/><rect x="23" y="69" width="6" height="1" fill="rgb(71,155,251)"/><rect x="29" y="69" width="1" height="1" fill="rgb(44,131,251)"/><rect x="98" y="69" width="1" height="1" fill="rgb(44,131,251)"/><rect x="99" y="69" width="6" height="1" fill="rgb(71,155,251)"/><rect x="105" y="69" width="1" height="1" fill="rgb(44,131,251)"/><rect x="21" y="70" width="1" height="1" fill="rgb(0,88,243)"/><rect x="22" y="70" width="1" height="1" fill="rgb(17,114,251)"/><rect x="23" y="70" width="1" height="1" fill="rgb(44,131,251)"/><rect x="24" y="70" width="4" height="1" fill="rgb(71,155,251)"/><rect x="28" y="70" width="1" height="1" fill="rgb(44,131,251)"/><rect x="29" y="70" width="1" height="1" fill="rgb(17,114,251)"/><rect x="30" y="70" width="1" height="1" fill="rgb(0,88,243)"/><rect x="97" y="70" width="1" height="1" fill="rgb(0,88,243)"/><rect x="98" y="70" width="1" height="1" fill="rgb(17,114,251)"/><rect x="99" y="70" width="1" height="1" fill="rgb(44,131,251)"/><rect x="100" y="70" width="4" height="1" fill="rgb(71,155,251)"/><rect x="104" y="70" width="1" height="1" fill="rgb(44,131,251)"/><rect x="105" y="70" width="1" height="1" fill="rgb(17,114,251)"/><rect x="106" y="70" width="1" height="1" fill="rgb(0,88,243)"/><rect x="21" y="71" width="1" height="1" fill="rgb(0,71,228)"/><rect x="22" y="71" width="2" height="1" fill="rgb(17,114,251)"/><rect x="24" y="71" width="4" height="1" fill="rgb(44,131,251)"/><rect x="28" y="71" width="2" height="1" fill="rgb(17,114,251)"/><rect x="30" y="71" width="1" height="1" fill="rgb(0,71,228)"/><rect x="97" y="71" width="1" height="1" fill="rgb(0,71,228)"/><rect x="98" y="71" width="2" height="1" fill="rgb(17,114,251)"/><rect x="100" y="71" width="4" height="1" fill="rgb(44,131,251)"/><rect x="104" y="71" width="2" height="1" fill="rgb(17,114,251)"/><rect x="106" y="71" width="1" height="1" fill="rgb(0,71,228)"/><rect x="22" y="72" width="1" height="1" fill="rgb(0,71,228)"/><rect x="23" y="72" width="1" height="1" fill="rgb(0,88,243)"/><rect x="24" y="72" width="4" height="1" fill="rgb(17,114,251)"/><rect x="28" y="72" width="1" height="1" fill="rgb(0,88,243)"/><rect x="29" y="72" width="1" height="1" fill="rgb(0,71,228)"/><rect x="98" y="72" width="1" height="1" fill="rgb(0,71,228)"/><rect x="99" y="72" width="1" height="1" fill="rgb(0,88,243)"/><rect x="100" y="72" width="4" height="1" fill="rgb(17,114,251)"/><rect x="104" y="72" width="1" height="1" fill="rgb(0,88,243)"/><rect x="105" y="72" width="1" height="1" fill="rgb(0,71,228)"/><rect x="21" y="72" width="1" height="2" fill="rgb(0,88,243)"/><rect x="30" y="72" width="1" height="2" fill="rgb(0,88,243)"/><rect x="97" y="72" width="1" height="2" fill="rgb(0,88,243)"/><rect x="106" y="72" width="1" height="2" fill="rgb(0,88,243)"/><rect x="22" y="73" width="2" height="1" fill="rgb(0,71,228)"/><rect x="24" y="73" width="4" height="1" fill="rgb(0,53,212)"/><rect x="28" y="73" width="2" height="1" fill="rgb(0,71,228)"/><rect x="98" y="73" width="2" height="1" fill="rgb(0,71,228)"/><rect x="100" y="73" width="4" height="1" fill="rgb(0,53,212)"/><rect x="104" y="73" width="2" height="1" fill="rgb(0,71,228)"/><rect x="22" y="74" width="1" height="1" fill="rgb(0,88,243)"/><rect x="23" y="74" width="6" height="1" fill="rgb(0,71,228)"/><rect x="29" y="74" width="1" height="1" fill="rgb(0,88,243)"/><rect x="98" y="74" width="1" height="1" fill="rgb(0,88,243)"/><rect x="99" y="74" width="6" height="1" fill="rgb(0,71,228)"/><rect x="105" y="74" width="1" height="1" fill="rgb(0,88,243)"/><rect x="22" y="75" width="2" height="1" fill="rgb(44,131,251)"/><rect x="24" y="75" width="4" height="1" fill="rgb(0,88,243)"/><rect x="28" y="75" width="2" height="1" fill="rgb(44,131,251)"/><rect x="98" y="75" width="2" height="1" fill="rgb(44,131,251)"/><rect x="100" y="75" width="4" height="1" fill="rgb(0,88,243)"/><rect x="104" y="75" width="2" height="1" fill="rgb(44,131,251)"/><rect x="24" y="76" width="4" height="1" fill="rgb(44,131,251)"/><rect x="100" y="76" width="4" height="1" fill="rgb(44,131,251)"/><rect x="30" y="86" width="4" height="1" fill="rgb(44,131,251)"/><rect x="94" y="86" width="4" height="1" fill="rgb(44,131,251)"/><rect x="28" y="87" width="2" height="1" fill="rgb(44,131,251)"/><rect x="30" y="87" width="1" height="1" fill="rgb(71,155,251)"/><rect x="31" y="87" width="2" height="1" fill="rgb(97,179,251)"/><rect x="33" y="87" width="1" height="1" fill="rgb(71,155,251)"/><rect x="34" y="87" width="2" height="1" fill="rgb(44,131,251)"/><rect x="92" y="87" width="2" height="1" fill="rgb(44,131,251)"/><rect x="94" y="87" width="1" height="1" fill="rgb(71,155,251)"/><rect x="95" y="87" width="2" height="1" fill="rgb(97,179,251)"/><rect x="97" y="87" width="1" height="1" fill="rgb(71,155,251)"/><rect x="98" y="87" width="2" height="1" fill="rgb(44,131,251)"/><rect x="28" y="88" width="1" height="1" fill="rgb(44,131,251)"/><rect x="29" y="88" width="6" height="1" fill="rgb(71,155,251)"/><rect x="35" y="88" width="1" height="1" fill="rgb(44,131,251)"/><rect x="92" y="88" width="1" height="1" fill="rgb(44,131,251)"/><rect x="93" y="88" width="6" height="1" fill="rgb(71,155,251)"/><rect x="99" y="88" width="1" height="1" fill="rgb(44,131,251)"/><rect x="27" y="89" width="1" height="1" fill="rgb(0,88,243)"/><rect x="28" y="89" width="1" height="1" fill="rgb(17,114,251)"/><rect x="29" y="89" width="1" height="1" fill="rgb(44,131,251)"/><rect x="30" y="89" width="4" height="1" fill="rgb(71,155,251)"/><rect x="34" y="89" width="1" height="1" fill="rgb(44,131,251)"/><rect x="35" y="89" width="1" height="1" fill="rgb(17,114,251)"/><rect x="36" y="89" width="1" height="1" fill="rgb(0,88,243)"/><rect x="91" y="89" width="1" height="1" fill="rgb(0,88,243)"/><rect x="92" y="89" width="1" height="1" fill="rgb(17,114,251)"/><rect x="93" y="89" width="1" height="1" fill="rgb(44,131,251)"/><rect x="94" y="89" width="4" height="1" fill="rgb(71,155,251)"/><rect x="98" y="89" width="1" height="1" fill="rgb(44,131,251)"/><rect x="99" y="89" width="1" height="1" fill="rgb(17,114,251)"/><rect x="100" y="89" width="1" height="1" fill="rgb(0,88,243)"/><rect x="27" y="90" width="1" height="1" fill="rgb(0,71,228)"/><rect x="28" y="90" width="2" height="1" fill="rgb(17,114,251)"/><rect x="30" y="90" width="4" height="1" fill="rgb(44,131,251)"/><rect x="34" y="90" width="2" height="1" fill="rgb(17,114,251)"/><rect x="36" y="90" width="1" height="1" fill="rgb(0,71,228)"/><rect x="91" y="90" width="1" height="1" fill="rgb(0,71,228)"/><rect x="92" y="90" width="2" height="1" fill="rgb(17,114,251)"/><rect x="94" y="90" width="4" height="1" fill="rgb(44,131,251)"/><rect x="98" y="90" width="2" height="1" fill="rgb(17,114,251)"/><rect x="100" y="90" width="1" height="1" fill="rgb(0,71,228)"/><rect x="28" y="91" width="1" height="1" fill="rgb(0,71,228)"/><rect x="29" y="91" width="1" height="1" fill="rgb(0,88,243)"/><rect x="30" y="91" width="4" height="1" fill="rgb(17,114,251)"/><rect x="34" y="91" width="1" height="1" fill="rgb(0,88,243)"/><rect x="35" y="91" width="1" height="1" fill="rgb(0,71,228)"/><rect x="92" y="91" width="1" height="1" fill="rgb(0,71,228)"/><rect x="93" y="91" width="1" height="1" fill="rgb(0,88,243)"/><rect x="94" y="91" width="4" height="1" fill="rgb(17,114,251)"/><rect x="98" y="91" width="1" height="1" fill="rgb(0,88,243)"/><rect x="99" y="91" width="1" height="1" fill="rgb(0,71,228)"/><rect x="27" y="91" width="1" height="2" fill="rgb(0,88,243)"/><rect x="36" y="91" width="1" height="2" fill="rgb(0,88,243)"/><rect x="91" y="91" width="1" height="2" fill="rgb(0,88,243)"/><rect x="100" y="91" width="1" height="2" fill="rgb(0,88,243)"/><rect x="28" y="92" width="2" height="1" fill="rgb(0,71,228)"/><rect x="30" y="92" width="4" height="1" fill="rgb(0,53,212)"/><rect x="34" y="92" width="2" height="1" fill="rgb(0,71,228)"/><rect x="92" y="92" width="2" height="1" fill="rgb(0,71,228)"/><rect x="94" y="92" width="4" height="1" fill="rgb(0,53,212)"/><rect x="98" y="92" width="2" height="1" fill="rgb(0,71,228)"/><rect x="28" y="93" width="1" height="1" fill="rgb(0,88,243)"/><rect x="29" y="93" width="6" height="1" fill="rgb(0,71,228)"/><rect x="35" y="93" width="1" height="1" fill="rgb(0,88,243)"/><rect x="92" y="93" width="1" height="1" fill="rgb(0,88,243)"/><rect x="93" y="93" width="6" height="1" fill="rgb(0,71,228)"/><rect x="99" y="93" width="1" height="1" fill="rgb(0,88,243)"/><rect x="28" y="94" width="2" height="1" fill="rgb(44,131,251)"/><rect x="30" y="94" width="4" height="1" fill="rgb(0,88,243)"/><rect x="34" y="94" width="2" height="1" fill="rgb(44,131,251)"/><rect x="92" y="94" width="2" height="1" fill="rgb(44,131,251)"/><rect x="94" y="94" width="4" height="1" fill="rgb(0,88,243)"/><rect x="98" y="94" width="2" height="1" fill="rgb(44,131,251)"/><rect x="30" y="95" width="4" height="1" fill="rgb(44,131,251)"/><rect x="94" y="95" width="4" height="1" fill="rgb(44,131,251)"/><rect x="43" y="99" width="4" height="1" fill="rgb(44,131,251)"/><rect x="81" y="99" width="4" height="1" fill="rgb(44,131,251)"/><rect x="41" y="100" width="2" height="1" fill="rgb(44,131,251)"/><rect x="43" y="100" width="1" height="1" fill="rgb(71,155,251)"/><rect x="44" y="100" width="2" height="1" fill="rgb(97,179,251)"/><rect x="46" y="100" width="1" height="1" fill="rgb(71,155,251)"/><rect x="47" y="100" width="2" height="1" fill="rgb(44,131,251)"/><rect x="79" y="100" width="2" height="1" fill="rgb(44,131,251)"/><rect x="81" y="100" width="1" height="1" fill="rgb(71,155,251)"/><rect x="82" y="100" width="2" height="1" fill="rgb(97,179,251)"/><rect x="84" y="100" width="1" height="1" fill="rgb(71,155,251)"/><rect x="85" y="100" width="2" height="1" fill="rgb(44,131,251)"/><rect x="41" y="101" width="1" height="1" fill="rgb(44,131,251)"/><rect x="42" y="101" width="6" height="1" fill="rgb(71,155,251)"/><rect x="48" y="101" width="1" height="1" fill="rgb(44,131,251)"/><rect x="79" y="101" width="1" height="1" fill="rgb(44,131,251)"/><rect x="80" y="101" width="6" height="1" fill="rgb(71,155,251)"/><rect x="86" y="101" width="1" height="1" fill="rgb(44,131,251)"/><rect x="40" y="102" width="1" height="1" fill="rgb(0,88,243)"/><rect x="41" y="102" width="1" height="1" fill="rgb(17,114,251)"/><rect x="42" y="102" width="1" height="1" fill="rgb(44,131,251)"/><rect x="43" y="102" width="4" height="1" fill="rgb(71,155,251)"/><rect x="47" y="102" width="1" height="1" fill="rgb(44,131,251)"/><rect x="48" y="102" width="1" height="1" fill="rgb(17,114,251)"/><rect x="49" y="102" width="1" height="1" fill="rgb(0,88,243)"/><rect x="78" y="102" width="1" height="1" fill="rgb(0,88,243)"/><rect x="79" y="102" width="1" height="1" fill="rgb(17,114,251)"/><rect x="80" y="102" width="1" height="1" fill="rgb(44,131,251)"/><rect x="81" y="102" width="4" height="1" fill="rgb(71,155,251)"/><rect x="85" y="102" width="1" height="1" fill="rgb(44,131,251)"/><rect x="86" y="102" width="1" height="1" fill="rgb(17,114,251)"/><rect x="87" y="102" width="1" height="1" fill="rgb(0,88,243)"/><rect x="40" y="103" width="1" height="1" fill="rgb(0,71,228)"/><rect x="41" y="103" width="2" height="1" fill="rgb(17,114,251)"/><rect x="43" y="103" width="4" height="1" fill="rgb(44,131,251)"/><rect x="47" y="103" width="2" height="1" fill="rgb(17,114,251)"/><rect x="49" y="103" width="1" height="1" fill="rgb(0,71,228)"/><rect x="78" y="103" width="1" height="1" fill="rgb(0,71,228)"/><rect x="79" y="103" width="2" height="1" fill="rgb(17,114,251)"/><rect x="81" y="103" width="4" height="1" fill="rgb(44,131,251)"/><rect x="85" y="103" width="2" height="1" fill="rgb(17,114,251)"/><rect x="87" y="103" width="1" height="1" fill="rgb(0,71,228)"/><rect x="41" y="104" width="1" height="1" fill="rgb(0,71,228)"/><rect x="42" y="104" width="1" height="1" fill="rgb(0,88,243)"/><rect x="43" y="104" width="4" height="1" fill="rgb(17,114,251)"/><rect x="47" y="104" width="1" height="1" fill="rgb(0,88,243)"/><rect x="48" y="104" width="1" height="1" fill="rgb(0,71,228)"/><rect x="79" y="104" width="1" height="1" fill="rgb(0,71,228)"/><rect x="80" y="104" width="1" height="1" fill="rgb(0,88,243)"/><rect x="81" y="104" width="4" height="1" fill="rgb(17,114,251)"/><rect x="85" y="104" width="1" height="1" fill="rgb(0,88,243)"/><rect x="86" y="104" width="1" height="1" fill="rgb(0,71,228)"/><rect x="40" y="104" width="1" height="2" fill="rgb(0,88,243)"/><rect x="49" y="104" width="1" height="2" fill="rgb(0,88,243)"/><rect x="78" y="104" width="1" height="2" fill="rgb(0,88,243)"/><rect x="87" y="104" width="1" height="2" fill="rgb(0,88,243)"/><rect x="41" y="105" width="2" height="1" fill="rgb(0,71,228)"/><rect x="43" y="105" width="4" height="1" fill="rgb(0,53,212)"/><rect x="47" y="105" width="2" height="1" fill="rgb(0,71,228)"/><rect x="62" y="105" width="4" height="1" fill="rgb(44,131,251)"/><rect x="79" y="105" width="2" height="1" fill="rgb(0,71,228)"/><rect x="81" y="105" width="4" height="1" fill="rgb(0,53,212)"/><rect x="85" y="105" width="2" height="1" fill="rgb(0,71,228)"/><rect x="41" y="106" width="1" height="1" fill="rgb(0,88,243)"/><rect x="42" y="106" width="6" height="1" fill="rgb(0,71,228)"/><rect x="48" y="106" width="1" height="1" fill="rgb(0,88,243)"/><rect x="60" y="106" width="2" height="1" fill="rgb(44,131,251)"/><rect x="62" y="106" width="1" height="1" fill="rgb(71,155,251)"/><rect x="63" y="106" width="2" height="1" fill="rgb(97,179,251)"/><rect x="65" y="106" width="1" height="1" fill="rgb(71,155,251)"/><rect x="66" y="106" width="2" height="1" fill="rgb(44,131,251)"/><rect x="79" y="106" width="1" height="1" fill="rgb(0,88,243)"/><rect x="80" y="106" width="6" height="1" fill="rgb(0,71,228)"/><rect x="86" y="106" width="1" height="1" fill="rgb(0,88,243)"/><rect x="41" y="107" width="2" height="1" fill="rgb(44,131,251)"/><rect x="43" y="107" width="4" height="1" fill="rgb(0,88,243)"/><rect x="47" y="107" width="2" height="1" fill="rgb(44,131,251)"/><rect x="60" y="107" width="1" height="1" fill="rgb(44,131,251)"/><rect x="61" y="107" width="6" height="1" fill="rgb(71,155,251)"/><rect x="67" y="107" width="1" height="1" fill="rgb(44,131,251)"/><rect x="79" y="107" width="2" height="1" fill="rgb(44,131,251)"/><rect x="81" y="107" width="4" height="1" fill="rgb(0,88,243)"/><rect x="85" y="107" width="2" height="1" fill="rgb(44,131,251)"/><rect x="43" y="108" width="4" height="1" fill="rgb(44,131,251)"/><rect x="59" y="108" width="1" height="1" fill="rgb(0,88,243)"/><rect x="60" y="108" width="1" height="1" fill="rgb(17,114,251)"/><rect x="61" y="108" width="1" height="1" fill="rgb(44,131,251)"/><rect x="62" y="108" width="4" height="1" fill="rgb(71,155,251)"/><rect x="66" y="108" width="1" height="1" fill="rgb(44,131,251)"/><rect x="67" y="108" width="1" height="1" fill="rgb(17,114,251)"/><rect x="68" y="108" width="1" height="1" fill="rgb(0,88,243)"/><rect x="81" y="108" width="4" height="1" fill="rgb(44,131,251)"/><rect x="59" y="109" width="1" height="1" fill="rgb(0,71,228)"/><rect x="60" y="109" width="2" height="1" fill="rgb(17,114,251)"/><rect x="62" y="109" width="4" height="1" fill="rgb(44,131,251)"/><rect x="66" y="109" width="2" height="1" fill="rgb(17,114,251)"/><rect x="68" y="109" width="1" height="1" fill="rgb(0,71,228)"/><rect x="60" y="110" width="1" height="1" fill="rgb(0,71,228)"/><rect x="61" y="110" width="1" height="1" fill="rgb(0,88,243)"/><rect x="62" y="110" width="4" height="1" fill="rgb(17,114,251)"/><rect x="66" y="110" width="1" height="1" fill="rgb(0,88,243)"/><rect x="67" y="110" width="1" height="1" fill="rgb(0,71,228)"/><rect x="59" y="110" width="1" height="2" fill="rgb(0,88,243)"/><rect x="68" y="110" width="1" height="2" fill="rgb(0,88,243)"/><rect x="60" y="111" width="2" height="1" fill="rgb(0,71,228)"/><rect x="62" y="111" width="4" height="1" fill="rgb(0,53,212)"/><rect x="66" y="111" width="2" height="1" fill="rgb(0,71,228)"/><rect x="60" y="112" width="1" height="1" fill="rgb(0,88,243)"/><rect x="61" y="112" width="6" height="1" fill="rgb(0,71,228)"/><rect x="67" y="112" width="1" height="1" fill="rgb(0,88,243)"/><rect x="60" y="113" width="2" height="1" fill="rgb(44,131,251)"/><rect x="62" y="113" width="4" height="1" fill="rgb(0,88,243)"/><rect x="66" y="113" width="2" height="1" fill="rgb(44,131,251)"/><rect x="62" y="114" width="4" height="1" fill="rgb(44,131,251)"/></svg>