<svg xmlns="http://www.w3.org/2000/svg" width="128" height="144" viewBox="0 0 128 144"><rect x="109" y="58" width="2" height="2" fill="rgb(44,131,251)"/><rect x="108" y="59" width="1" height="1" fill="rgb(0,71,228)"/><rect x="111" y="59" width="1" height="1" fill="rgb(0,71,228)"/><rect x="108" y="60" width="1" height="1" fill="rgb(0,88,243)"/><rect x="109" y="60" width="2" height="1" fill="rgb(0,71,228)"/><rect x="111" y="60" width="1" height="1" fill="rgb(0,88,243)"/><rect x="109" y="61" width="2" height="1" fill="rgb(17,114,251)"/><rect x="106" y="82" width="4" height="1" fill="rgb(44,131,251)"/><rect x="105" y="83" width="1" height="1" fill="rgb(44,131,251)"/><rect x="106" y="83" width="1" height="1" fill="rgb(71,155,251)"/><rect x="107" y="83" width="2" height="1" fill="rgb(97,179,251)"/><rect x="109" y="83" width="1" height="1" fill="rgb(71,155,251)"/><rect x="110" y="83" width="1" height="1" fill="rgb(44,131,251)"/><rect x="104" y="84" width="2" height="1" fill="rgb(17,114,251)"/><rect x="106" y="84" width="1" height="1" fill="rgb(44,131,251)"/><rect x="107" y="84" width="2" height="1" fill="rgb(71,155,251)"/><rect x="109" y="84" width="1" height="1" fill="rgb(44,131,251)"/><rect x="110" y="84" width="2" height="1" fill="rgb(17,114,251)"/><rect x="105" y="85" width="2" height="1" fill="rgb(17,114,251)"/><rect x="107" y="85" width="2" height="1" fill="rgb(44,131,251)"/><rect x="109" y="85" width="2" height="1" fill="rgb(17,114,251)"/><rect x="104" y="85" width="1" height="2" fill="rgb(0,88,243)"/><rect x="111" y="85" width="1" height="2" fill="rgb(0,88,243)"/><rect x="105" y="86" width="1" height="1" fill="rgb(0,71,228)"/><rect x="106" y="86" width="4" height="1" fill="rgb(17,114,251)"/><rect x="110" y="86" width="1" height="1" fill="rgb(0,71,228)"/><rect x="104" y="87" width="1" height="1" fill="rgb(17,114,251)"/><rect x="105" y="87" width="1" height="1" fill="rgb(0,88,243)"/><rect x="106" y="87" width="1" height="1" fill="rgb(0,71,228)"/><rect x="107" y="87" width="2" height="1" fill="rgb(0,53,212)"/><rect x="109" y="87" width="1" height="1" fill="rgb(0,71,228)"/><rect x="110" y="87" width="1" height="1" fill="rgb(0,88,243)"/><rect x="111" y="87" width="1" height="1" fill="rgb(17,114,251)"/><rect x="105" y="88" width="1" height="1" fill="rgb(44,131,251)"/><rect x="106" y="88" width="1" height="1" fill="rgb(0,88,243)"/><rect x="107" y="88" width="2" height="1" fill="rgb(0,71,228)"/><rect x="109" y="88" width="1" height="1" fill="rgb(0,88,243)"/><rect x="110" y="88" width="1" height="1" fill="rgb(44,131,251)"/><rect x="106" y="89" width="4" height="1" fill="rgb(44,131,251)"/><rect x="26" y="95" width="4" height="1" fill="rgb(44,131,251)"/><rect x="25" y="96" width="2" height="1" fill="rgb(44,131,251)"/><rect x="27" y="96" width="2" height="1" fill="rgb(71,155,251)"/><rect x="29" y="96" width="2" height="1" fill="rgb(44,131,251)"/><rect x="25" y="97" width="2" height="1" fill="rgb(17,114,251)"/><rect x="27" y="97" width="2" height="1" fill="rgb(44,131,251)"/><rect x="29" y="97" width="2" height="1" fill="rgb(17,114,251)"/><rect x="25" y="98" width="1" height="1" fill="rgb(0,71,228)"/><rect x="26" y="98" width="4" height="1" fill="rgb(17,114,251)"/><rect x="30" y="98" width="1" height="1" fill="rgb(0,71,228)"/><rect x="25" y="99" width="1" height="1" fill="rgb(17,114,251)"/><rect x="26" y="99" width="1" height="1" fill="rgb(0,71,228)"/><rect x="27" y="99" width="2" height="1" fill="rgb(0,53,212)"/><rect x="29" y="99" width="1" height="1" fill="rgb(0,71,228)"/><rect x="30" y="99" width="1" height="1" fill="rgb(17,114,251)"/><rect x="92" y="99" width="4" height="1" fill="rgb(44,131,251)"/><rect x="26" y="100" width="1" height="1" fill="rgb(17,114,251)"/><rect x="27" y="100" width="2" height="1" fill="rgb(0,71,228)"/><rect x="29" y="100" width="1" height="1" fill="rgb(17,114,251)"/><rect x="90" y="100" width="2" height="1" fill="rgb(44,131,251)"/><rect x="92" y="100" width="1" height="1" fill="rgb(71,155,251)"/><rect x="93" y="100" width="2" height="1" fill="rgb(97,179,251)"/><rect x="95" y="100" width="1" height="1" fill="rgb(71,155,251)"/><rect x="96" y="100" width="2" height="1" fill="rgb(44,131,251)"/><rect x="90" y="101" width="1" height="1" fill="rgb(44,131,251)"/><rect x="91" y="101" width="6" height="1" fill="rgb(71,155,251)"/><rect x="97" y="101" width="1" height="1" fill="rgb(44,131,251)"/><rect x="89" y="102" width="1" height="1" fill="rgb(0,88,243)"/><rect x="90" y="102" width="1" height="1" fill="rgb(17,114,251)"/><rect x="91" y="102" width="1" height="1" fill="rgb(44,131,251)"/><rect x="92" y="102" width="4" height="1" fill="rgb(71,155,251)"/><rect x="96" y="102" width="1" height="1" fill="rgb(44,131,251)"/><rect x="97" y="102" width="1" height="1" fill="rgb(17,114,251)"/><rect x="98" y="102" width="1" height="1" fill="rgb(0,88,243)"/><rect x="89" y="103" width="1" height="1" fill="rgb(0,71,228)"/><rect x="90" y="103" width="2" height="1" fill="rgb(17,114,251)"/><rect x="92" y="103" width="4" height="1" fill="rgb(44,131,251)"/><rect x="96" y="103" width="2" height="1" fill="rgb(17,114,251)"/><rect x="98" y="103" width="1" height="1" fill="rgb(0,71,228)"/><rect x="90" y="104" width="1" height="1" fill="rgb(0,71,228)"/><rect x="91" y="104" width="1" height="1" fill="rgb(0,88,243)"/><rect x="92" y="104" width="4" height="1" fill="rgb(17,114,251)"/><rect x="96" y="104" width="1" height="1" fill="rgb(0,88,243)"/><rect x="97" y="104" width="1" height="1" fill="rgb(0,71,228)"/><rect x="89" y="104" width="1" height="2" fill="rgb(0,88,243)"/><rect x="98" y="104" width="1" height="2" fill="rgb(0,88,243)"/><rect x="90" y="105" width="2" height="1" fill="rgb(0,71,228)"/><rect x="92" y="105" width="4" height="1" fill="rgb(0,53,212)"/><rect x="96" y="105" width="2" height="1" fill="rgb(0,71,228)"/><rect x="90" y="106" width="1" height="1" fill="rgb(0,88,243)"/><rect x="91" y="106" width="6" height="1" fill="rgb(0,71,228)"/><rect x="97" y="106" width="1" height="1" fill="rgb(0,88,243)"/><rect x="90" y="107" width="2" height="1" fill="rgb(44,131,251)"/><rect x="92" y="107" width="4" height="1" fill="rgb(0,88,243)"/><rect x="96" y="107" width="2" height="1" fill="rgb(44,131,251)"/><rect x="44" y="108" width="4" height="1" fill="rgb(44,131,251)"/><rect x="92" y="108" width="4" height="1" fill="rgb(44,131,251)"/><rect x="43" y="109" width="1" height="1" fill="rgb(44,131,251)"/><rect x="44" y="109" width="1" height="1" fill="rgb(71,155,251)"/><rect x="45" y="109" width="2" height="1" fill="rgb(97,179,251)"/><rect x="47" y="109" width="1" height="1" fill="rgb(71,155,251)"/><rect x="48" y="109" width="1" height="1" fill="rgb(44,131,251)"/><rect x="70" y="109" width="4" height="1" fill="rgb(44,131,251)"/><rect x="42" y="110" width="2" height="1" fill="rgb(17,114,251)"/><rect x="44" y="110" width="1" height="1" fill="rgb(44,131,251)"/><rect x="45" y="110" width="2" height="1" fill="rgb(71,155,251)"/><rect x="47" y="110" width="1" height="1" fill="rgb(44,131,251)"/><rect x="48" y="110" width="2" height="1" fill="rgb(17,114,251)"/><rect x="68" y="110" width="2" height="1" fill="rgb(44,131,251)"/><rect x="70" y="110" width="1" height="1" fill="rgb(71,155,251)"/><rect x="71" y="110" width="2" height="1" fill="rgb(97,179,251)"/><rect x="73" y="110" width="1" height="1" fill="rgb(71,155,251)"/><rect x="74" y="110" width="2" height="1" fill="rgb(44,131,251)"/><rect x="43" y="111" width="2" height="1" fill="rgb(17,114,251)"/><rect x="45" y="111" width="2" height="1" fill="rgb(44,131,251)"/><rect x="47" y="111" width="2" height="1" fill="rgb(17,114,251)"/><rect x="68" y="111" width="1" height="1" fill="rgb(44,131,251)"/><rect x="69" y="111" width="6" height="1" fill="rgb(71,155,251)"/><rect x="75" y="111" width="1" height="1" fill="rgb(44,131,251)"/><rect x="42" y="111" width="1" height="2" fill="rgb(0,88,243)"/><rect x="49" y="111" width="1" height="2" fill="rgb(0,88,243)"/><rect x="43" y="112" width="1" height="1" fill="rgb(0,71,228)"/><rect x="44" y="112" width="4" height="1" fill="rgb(17,114,251)"/><rect x="48" y="112" width="1" height="1" fill="rgb(0,71,228)"/><rect x="67" y="112" width="1" height="1" fill="rgb(0,88,243)"/><rect x="68" y="112" width="1" height="1" fill="rgb(17,114,251)"/><rect x="69" y="112" width="1" height="1" fill="rgb(44,131,251)"/><rect x="70" y="112" width="4" height="1" fill="rgb(71,155,251)"/><rect x="74" y="112" width="1" height="1" fill="rgb(44,131,251)"/><rect x="75" y="112" width="1" height="1" fill="rgb(17,114,251)"/><rect x="76" y="112" width="1" height="1" fill="rgb(0,88,243)"/><rect x="42" y="113" width="1" height="1" fill="rgb(17,114,251)"/><rect x="43" y="113" width="1" height="1" fill="rgb(0,88,243)"/><rect x="44" y="113" width="1" height="1" fill="rgb(0,71,228)"/><rect x="45" y="113" width="2" height="1" fill="rgb(0,53,212)"/><rect x="47" y="113" width="1" height="1" fill="rgb(0,71,228)"/><rect x="48" y="113" width="1" height="1" fill="rgb(0,88,243)"/><rect x="49" y="113" width="1" height="1" fill="rgb(17,114,251)"/><rect x="67" y="113" width="1" height="1" fill="rgb(0,71,228)"/><rect x="68" y="113" width="2" height="1" fill="rgb(17,114,251)"/><rect x="70" y="113" width="4" height="1" fill="rgb(44,131,251)"/><rect x="74" y="113" width="2" height="1" fill="rgb(17,114,251)"/><rect x="76" y="113" width="1" height="1" fill="rgb(0,71,228)"/><rect x="43" y="114" width="1" height="1" fill="rgb(44,131,251)"/><rect x="44" y="114" width="1" height="1" fill="rgb(0,88,243)"/><rect x="45" y="114" width="2" height="1" fill="rgb(0,71,228)"/><rect x="47" y="114" width="1" height="1" fill="rgb(0,88,243)"/><rect x="48" y="114" width="1" height="1" fill="rgb(44,131,251)"/><rect x="68" y="114" width="1" height="1" fill="rgb(0,71,228)"/><rect x="69" y="114" width="1" height="1" fill="rgb(0,88,243)"/><rect x="70" y="114" width="4" height="1" fill="rgb(17,114,251)"/><rect x="74" y="114" width="1" height="1" fill="rgb(0,88,243)"/><rect x="75" y="114" width="1" height="1" fill="rgb(0,71,228)"/><rect x="67" y="114" width="1" height="2" fill="rgb(0,88,243)"/><rect x="76" y="114" width="1" height="2" fill="rgb(0,88,243)"/><rect x="44" y="115" width="4" height="1" fill="rgb(44,131,251)"/><rect x="68" y="115" width="2" height="1" fill="rgb(0,71,228)"/><rect x="70" y="115" width="4" height="1" fill="rgb(0,53,212)"/><rect x="74" y="115" width="2" height="1" fill="rgb(0,71,228)"/><rect x="68" y="116" width="1" height="1" fill="rgb(0,88,243)"/><rect x="69" y="116" width="6" height="1" fill="rgb(0,71,228)"/><rect x="75" y="116" width="1" height="1" fill="rgb(0,88,243)"/><rect x="68" y="117" width="2" height="1" fill="rgb(44,131,251)"/><rect x="70" y="117" width="4" height="1" fill="rgb(0,88,243)"/><rect x="74" y="117" width="2" height="1" fill="rgb(44,131,251)"/><rect x="70" y="118" width="4" height="1" fill="rgb(44,131,251)"/></svg>