<svg xmlns="http://www.w3.org/2000/svg" width="128" height="144" viewBox="0 0 128 144"><rect x="107" y="78" width="4" height="1" fill="rgb(44,131,251)"/><rect x="106" y="79" width="2" height="1" fill="rgb(44,131,251)"/><rect x="108" y="79" width="2" height="1" fill="rgb(71,155,251)"/><rect x="110" y="79" width="2" height="1" fill="rgb(44,131,251)"/><rect x="106" y="80" width="2" height="1" fill="rgb(17,114,251)"/><rect x="108" y="80" width="2" height="1" fill="rgb(44,131,251)"/><rect x="110" y="80" width="2" height="1" fill="rgb(17,114,251)"/><rect x="106" y="81" width="1" height="1" fill="rgb(0,71,228)"/><rect x="107" y="81" width="4" height="1" fill="rgb(17,114,251)"/><rect x="111" y="81" width="1" height="1" fill="rgb(0,71,228)"/><rect x="106" y="82" width="1" height="1" fill="rgb(17,114,251)"/><rect x="107" y="82" width="1" height="1" fill="rgb(0,71,228)"/><rect x="108" y="82" width="2" height="1" fill="rgb(0,53,212)"/><rect x="110" y="82" width="1" height="1" fill="rgb(0,71,228)"/><rect x="111" y="82" width="1" height="1" fill="rgb(17,114,251)"/><rect x="107" y="83" width="1" height="1" fill="rgb(17,114,251)"/><rect x="108" y="83" width="2" height="1" fill="rgb(0,71,228)"/><rect x="110" y="83" width="1" height="1" fill="rgb(17,114,251)"/><rect x="95" y="96" width="4" height="1" fill="rgb(44,131,251)"/><rect x="94" y="97" width="1" height="1" fill="rgb(44,131,251)"/><rect x="95" y="97" width="1" height="1" fill="rgb(71,155,251)"/><rect x="96" y="97" width="2" height="1" fill="rgb(97,179,251)"/><rect x="98" y="97" width="1" height="1" fill="rgb(71,155,251)"/><rect x="99" y="97" width="1" height="1" fill="rgb(44,131,251)"/><rect x="29" y="97" width="2" height="2" fill="rgb(44,131,251)"/><rect x="28" y="98" width="1" height="1" fill="rgb(0,71,228)"/><rect x="31" y="98" width="1" height="1" fill="rgb(0,71,228)"/><rect x="93" y="98" width="2" height="1" fill="rgb(17,114,251)"/><rect x="95" y="98" width="1" height="1" fill="rgb(44,131,251)"/><rect x="96" y="98" width="2" height="1" fill="rgb(71,155,251)"/><rect x="98" y="98" width="1" height="1" fill="rgb(44,131,251)"/><rect x="99" y="98" width="2" height="1" fill="rgb(17,114,251)"/><rect x="28" y="99" width="1" height="1" fill="rgb(0,88,243)"/><rect x="29" y="99" width="2" height="1" fill="rgb(0,71,228)"/><rect x="31" y="99" width="1" height="1" fill="rgb(0,88,243)"/><rect x="94" y="99" width="2" height="1" fill="rgb(17,114,251)"/><rect x="96" y="99" width="2" height="1" fill="rgb(44,131,251)"/><rect x="98" y="99" width="2" height="1" fill="rgb(17,114,251)"/><rect x="93" y="99" width="1" height="2" fill="rgb(0,88,243)"/><rect x="100" y="99" width="1" height="2" fill="rgb(0,88,243)"/><rect x="29" y="100" width="2" height="1" fill="rgb(17,114,251)"/><rect x="94" y="100" width="1" height="1" fill="rgb(0,71,228)"/><rect x="95" y="100" width="4" height="1" fill="rgb(17,114,251)"/><rect x="99" y="100" width="1" height="1" fill="rgb(0,71,228)"/><rect x="93" y="101" width="1" height="1" fill="rgb(17,114,251)"/><rect x="94" y="101" width="1" height="1" fill="rgb(0,88,243)"/><rect x="95" y="101" width="1" height="1" fill="rgb(0,71,228)"/><rect x="96" y="101" width="2" height="1" fill="rgb(0,53,212)"/><rect x="98" y="101" width="1" height="1" fill="rgb(0,71,228)"/><rect x="99" y="101" width="1" height="1" fill="rgb(0,88,243)"/><rect x="100" y="101" width="1" height="1" fill="rgb(17,114,251)"/><rect x="94" y="102" width="1" height="1" fill="rgb(44,131,251)"/><rect x="95" y="102" width="1" height="1" fill="rgb(0,88,243)"/><rect x="96" y="102" width="2" height="1" fill="rgb(0,71,228)"/><rect x="98" y="102" width="1" height="1" fill="rgb(0,88,243)"/><rect x="99" y="102" width="1" height="1" fill="rgb(44,131,251)"/><rect x="95" y="103" width="4" height="1" fill="rgb(44,131,251)"/><rect x="47" y="107" width="4" height="1" fill="rgb(44,131,251)"/><rect x="73" y="107" width="4" height="1" fill="rgb(44,131,251)"/><rect x="46" y="108" width="1" height="1" fill="rgb(44,131,251)"/><rect x="47" y="108" width="1" height="1" fill="rgb(71,155,251)"/><rect x="48" y="108" width="2" height="1" fill="rgb(97,179,251)"/><rect x="50" y="108" width="1" height="1" fill="rgb(71,155,251)"/><rect x="51" y="108" width="1" height="1" fill="rgb(44,131,251)"/><rect x="71" y="108" width="2" height="1" fill="rgb(44,131,251)"/><rect x="73" y="108" width="1" height="1" fill="rgb(71,155,251)"/><rect x="74" y="108" width="2" height="1" fill="rgb(97,179,251)"/><rect x="76" y="108" width="1" height="1" fill="rgb(71,155,251)"/><rect x="77" y="108" width="2" height="1" fill="rgb(44,131,251)"/><rect x="45" y="109" width="2" height="1" fill="rgb(17,114,251)"/><rect x="47" y="109" width="1" height="1" fill="rgb(44,131,251)"/><rect x="48" y="109" width="2" height="1" fill="rgb(71,155,251)"/><rect x="50" y="109" width="1" height="1" fill="rgb(44,131,251)"/><rect x="51" y="109" width="2" height="1" fill="rgb(17,114,251)"/><rect x="71" y="109" width="1" height="1" fill="rgb(44,131,251)"/><rect x="72" y="109" width="6" height="1" fill="rgb(71,155,251)"/><rect x="78" y="109" width="1" height="1" fill="rgb(44,131,251)"/><rect x="46" y="110" width="2" height="1" fill="rgb(17,114,251)"/><rect x="48" y="110" width="2" height="1" fill="rgb(44,131,251)"/><rect x="50" y="110" width="2" height="1" fill="rgb(17,114,251)"/><rect x="70" y="110" width="1" height="1" fill="rgb(0,88,243)"/><rect x="71" y="110" width="1" height="1" fill="rgb(17,114,251)"/><rect x="72" y="110" width="1" height="1" fill="rgb(44,131,251)"/><rect x="73" y="110" width="4" height="1" fill="rgb(71,155,251)"/><rect x="77" y="110" width="1" height="1" fill="rgb(44,131,251)"/><rect x="78" y="110" width="1" height="1" fill="rgb(17,114,251)"/><rect x="79" y="110" width="1" height="1" fill="rgb(0,88,243)"/><rect x="45" y="110" width="1" height="2" fill="rgb(0,88,243)"/><rect x="52" y="110" width="1" height="2" fill="rgb(0,88,243)"/><rect x="46" y="111" width="1" height="1" fill="rgb(0,71,228)"/><rect x="47" y="111" width="4" height="1" fill="rgb(17,114,251)"/><rect x="51" y="111" width="1" height="1" fill="rgb(0,71,228)"/><rect x="70" y="111" width="1" height="1" fill="rgb(0,71,228)"/><rect x="71" y="111" width="2" height="1" fill="rgb(17,114,251)"/><rect x="73" y="111" width="4" height="1" fill="rgb(44,131,251)"/><rect x="77" y="111" width="2" height="1" fill="rgb(17,114,251)"/><rect x="79" y="111" width="1" height="1" fill="rgb(0,71,228)"/><rect x="45" y="112" width="1" height="1" fill="rgb(17,114,251)"/><rect x="46" y="112" width="1" height="1" fill="rgb(0,88,243)"/><rect x="47" y="112" width="1" height="1" fill="rgb(0,71,228)"/><rect x="48" y="112" width="2" height="1" fill="rgb(0,53,212)"/><rect x="50" y="112" width="1" height="1" fill="rgb(0,71,228)"/><rect x="51" y="112" width="1" height="1" fill="rgb(0,88,243)"/><rect x="52" y="112" width="1" height="1" fill="rgb(17,114,251)"/><rect x="71" y="112" width="1" height="1" fill="rgb(0,71,228)"/><rect x="72" y="112" width="1" height="1" fill="rgb(0,88,243)"/><rect x="73" y="112" width="4" height="1" fill="rgb(17,114,251)"/><rect x="77" y="112" width="1" height="1" fill="rgb(0,88,243)"/><rect x="78" y="112" width="1" height="1" fill="rgb(0,71,228)"/><rect x="70" y="112" width="1" height="2" fill="rgb(0,88,243)"/><rect x="79" y="112" width="1" height="2" fill="rgb(0,88,243)"/><rect x="46" y="113" width="1" height="1" fill="rgb(44,131,251)"/><rect x="47" y="113" width="1" height="1" fill="rgb(0,88,243)"/><rect x="48" y="113" width="2" height="1" fill="rgb(0,71,228)"/><rect x="50" y="113" width="1" height="1" fill="rgb(0,88,243)"/><rect x="51" y="113" width="1" height="1" fill="rgb(44,131,251)"/><rect x="71" y="113" width="2" height="1" fill="rgb(0,71,228)"/><rect x="73" y="113" width="4" height="1" fill="rgb(0,53,212)"/><rect x="77" y="113" width="2" height="1" fill="rgb(0,71,228)"/><rect x="47" y="114" width="4" height="1" fill="rgb(44,131,251)"/><rect x="71" y="114" width="1" height="1" fill="rgb(0,88,243)"/><rect x="72" y="114" width="6" height="1" fill="rgb(0,71,228)"/><rect x="78" y="114" width="1" height="1" fill="rgb(0,88,243)"/><rect x="71" y="115" width="2" height="1" fill="rgb(44,131,251)"/><rect x="73" y="115" width="4" height="1" fill="rgb(0,88,243)"/><rect x="77" y="115" width="2" height="1" fill="rgb(44,131,251)"/><rect x="73" y="116" width="4" height="1" fill="rgb(44,131,251)"/></svg>