<svg xmlns="http://www.w3.org/2000/svg" width="128" height="144" viewBox="0 0 128 144"><rect x="76" y="25" width="2" height="2" fill="rgb(44,131,251)"/><rect x="75" y="26" width="1" height="1" fill="rgb(0,71,228)"/><rect x="78" y="26" width="1" height="1" fill="rgb(0,71,228)"/><rect x="75" y="27" width="1" height="1" fill="rgb(0,88,243)"/><rect x="76" y="27" width="2" height="1" fill="rgb(0,71,228)"/><rect x="78" y="27" width="1" height="1" fill="rgb(0,88,243)"/><rect x="76" y="28" width="2" height="1" fill="rgb(17,114,251)"/><rect x="95" y="35" width="4" height="1" fill="rgb(44,131,251)"/><rect x="94" y="36" width="2" height="1" fill="rgb(44,131,251)"/><rect x="96" y="36" width="2" height="1" fill="rgb(71,155,251)"/><rect x="98" y="36" width="2" height="1" fill="rgb(44,131,251)"/><rect x="94" y="37" width="2" height="1" fill="rgb(17,114,251)"/><rect x="96" y="37" width="2" height="1" fill="rgb(44,131,251)"/><rect x="98" y="37" width="2" height="1" fill="rgb(17,114,251)"/><rect x="94" y="38" width="1" height="1" fill="rgb(0,71,228)"/><rect x="95" y="38" width="4" height="1" fill="rgb(17,114,251)"/><rect x="99" y="38" width="1" height="1" fill="rgb(0,71,228)"/><rect x="94" y="39" width="1" height="1" fill="rgb(17,114,251)"/><rect x="95" y="39" width="1" height="1" fill="rgb(0,71,228)"/><rect x="96" y="39" width="2" height="1" fill="rgb(0,53,212)"/><rect x="98" y="39" width="1" height="1" fill="rgb(0,71,228)"/><rect x="99" y="39" width="1" height="1" fill="rgb(17,114,251)"/><rect x="95" y="40" width="1" height="1" fill="rgb(17,114,251)"/><rect x="96" y="40" width="2" height="1" fill="rgb(0,71,228)"/><rect x="98" y="40" width="1" height="1" fill="rgb(17,114,251)"/><rect x="107" y="54" width="4" height="1" fill="rgb(44,131,251)"/><rect x="106" y="55" width="1" height="1" fill="rgb(44,131,251)"/><rect x="107" y="55" width="1" height="1" fill="rgb(71,155,251)"/><rect x="108" y="55" width="2" height="1" fill="rgb(97,179,251)"/><rect x="110" y="55" width="1" height="1" fill="rgb(71,155,251)"/><rect x="111" y="55" width="1" height="1" fill="rgb(44,131,251)"/><rect x="105" y="56" width="2" height="1" fill="rgb(17,114,251)"/><rect x="107" y="56" width="1" height="1" fill="rgb(44,131,251)"/><rect x="108" y="56" width="2" height="1" fill="rgb(71,155,251)"/><rect x="110" y="56" width="1" height="1" fill="rgb(44,131,251)"/><rect x="111" y="56" width="2" height="1" fill="rgb(17,114,251)"/><rect x="106" y="57" width="2" height="1" fill="rgb(17,114,251)"/><rect x="108" y="57" width="2" height="1" fill="rgb(44,131,251)"/><rect x="110" y="57" width="2" height="1" fill="rgb(17,114,251)"/><rect x="19" y="57" width="2" height="2" fill="rgb(44,131,251)"/><rect x="105" y="57" width="1" height="2" fill="rgb(0,88,243)"/><rect x="112" y="57" width="1" height="2" fill="rgb(0,88,243)"/><rect x="18" y="58" width="1" height="1" fill="rgb(0,71,228)"/><rect x="21" y="58" width="1" height="1" fill="rgb(0,71,228)"/><rect x="106" y="58" width="1" height="1" fill="rgb(0,71,228)"/><rect x="107" y="58" width="4" height="1" fill="rgb(17,114,251)"/><rect x="111" y="58" width="1" height="1" fill="rgb(0,71,228)"/><rect x="18" y="59" width="1" height="1" fill="rgb(0,88,243)"/><rect x="19" y="59" width="2" height="1" fill="rgb(0,71,228)"/><rect x="21" y="59" width="1" height="1" fill="rgb(0,88,243)"/><rect x="105" y="59" width="1" height="1" fill="rgb(17,114,251)"/><rect x="106" y="59" width="1" height="1" fill="rgb(0,88,243)"/><rect x="107" y="59" width="1" height="1" fill="rgb(0,71,228)"/><rect x="108" y="59" width="2" height="1" fill="rgb(0,53,212)"/><rect x="110" y="59" width="1" height="1" fill="rgb(0,71,228)"/><rect x="111" y="59" width="1" height="1" fill="rgb(0,88,243)"/><rect x="112" y="59" width="1" height="1" fill="rgb(17,114,251)"/><rect x="19" y="60" width="2" height="1" fill="rgb(17,114,251)"/><rect x="106" y="60" width="1" height="1" fill="rgb(44,131,251)"/><rect x="107" y="60" width="1" height="1" fill="rgb(0,88,243)"/><rect x="108" y="60" width="2" height="1" fill="rgb(0,71,228)"/><rect x="110" y="60" width="1" height="1" fill="rgb(0,88,243)"/><rect x="111" y="60" width="1" height="1" fill="rgb(44,131,251)"/><rect x="107" y="61" width="4" height="1" fill="rgb(44,131,251)"/><rect x="107" y="80" width="4" height="1" fill="rgb(44,131,251)"/><rect x="105" y="81" width="2" height="1" fill="rgb(44,131,251)"/><rect x="107" y="81" width="1" height="1" fill="rgb(71,155,251)"/><rect x="108" y="81" width="2" height="1" fill="rgb(97,179,251)"/><rect x="110" y="81" width="1" height="1" fill="rgb(71,155,251)"/><rect x="111" y="81" width="2" height="1" fill="rgb(44,131,251)"/><rect x="105" y="82" width="1" height="1" fill="rgb(44,131,251)"/><rect x="106" y="82" width="6" height="1" fill="rgb(71,155,251)"/><rect x="112" y="82" width="1" height="1" fill="rgb(44,131,251)"/><rect x="17" y="83" width="4" height="1" fill="rgb(44,131,251)"/><rect x="104" y="83" width="1" height="1" fill="rgb(0,88,243)"/><rect x="105" y="83" width="1" height="1" fill="rgb(17,114,251)"/><rect x="106" y="83" width="1" height="1" fill="rgb(44,131,251)"/><rect x="107" y="83" width="4" height="1" fill="rgb(71,155,251)"/><rect x="111" y="83" width="1" height="1" fill="rgb(44,131,251)"/><rect x="112" y="83" width="1" height="1" fill="rgb(17,114,251)"/><rect x="113" y="83" width="1" height="1" fill="rgb(0,88,243)"/><rect x="16" y="84" width="2" height="1" fill="rgb(44,131,251)"/><rect x="18" y="84" width="2" height="1" fill="rgb(71,155,251)"/><rect x="20" y="84" width="2" height="1" fill="rgb(44,131,251)"/><rect x="104" y="84" width="1" height="1" fill="rgb(0,71,228)"/><rect x="105" y="84" width="2" height="1" fill="rgb(17,114,251)"/><rect x="107" y="84" width="4" height="1" fill="rgb(44,131,251)"/><rect x="111" y="84" width="2" height="1" fill="rgb(17,114,251)"/><rect x="113" y="84" width="1" height="1" fill="rgb(0,71,228)"/><rect x="16" y="85" width="2" height="1" fill="rgb(17,114,251)"/><rect x="18" y="85" width="2" height="1" fill="rgb(44,131,251)"/><rect x="20" y="85" width="2" height="1" fill="rgb(17,114,251)"/><rect x="105" y="85" width="1" height="1" fill="rgb(0,71,228)"/><rect x="106" y="85" width="1" height="1" fill="rgb(0,88,243)"/><rect x="107" y="85" width="4" height="1" fill="rgb(17,114,251)"/><rect x="111" y="85" width="1" height="1" fill="rgb(0,88,243)"/><rect x="112" y="85" width="1" height="1" fill="rgb(0,71,228)"/><rect x="104" y="85" width="1" height="2" fill="rgb(0,88,243)"/><rect x="113" y="85" width="1" height="2" fill="rgb(0,88,243)"/><rect x="16" y="86" width="1" height="1" fill="rgb(0,71,228)"/><rect x="17" y="86" width="4" height="1" fill="rgb(17,114,251)"/><rect x="21" y="86" width="1" height="1" fill="rgb(0,71,228)"/><rect x="105" y="86" width="2" height="1" fill="rgb(0,71,228)"/><rect x="107" y="86" width="4" height="1" fill="rgb(0,53,212)"/><rect x="111" y="86" width="2" height="1" fill="rgb(0,71,228)"/><rect x="16" y="87" width="1" height="1" fill="rgb(17,114,251)"/><rect x="17" y="87" width="1" height="1" fill="rgb(0,71,228)"/><rect x="18" y="87" width="2" height="1" fill="rgb(0,53,212)"/><rect x="20" y="87" width="1" height="1" fill="rgb(0,71,228)"/><rect x="21" y="87" width="1" height="1" fill="rgb(17,114,251)"/><rect x="105" y="87" width="1" height="1" fill="rgb(0,88,243)"/><rect x="106" y="87" width="6" height="1" fill="rgb(0,71,228)"/><rect x="112" y="87" width="1" height="1" fill="rgb(0,88,243)"/><rect x="17" y="88" width="1" height="1" fill="rgb(17,114,251)"/><rect x="18" y="88" width="2" height="1" fill="rgb(0,71,228)"/><rect x="20" y="88" width="1" height="1" fill="rgb(17,114,251)"/><rect x="105" y="88" width="2" height="1" fill="rgb(44,131,251)"/><rect x="107" y="88" width="4" height="1" fill="rgb(0,88,243)"/><rect x="111" y="88" width="2" height="1" fill="rgb(44,131,251)"/><rect x="107" y="89" width="4" height="1" fill="rgb(44,131,251)"/><rect x="96" y="100" width="4" height="1" fill="rgb(44,131,251)"/><rect x="94" y="101" width="2" height="1" fill="rgb(44,131,251)"/><rect x="96" y="101" width="1" height="1" fill="rgb(71,155,251)"/><rect x="97" y="101" width="2" height="1" fill="rgb(97,179,251)"/><rect x="99" y="101" width="1" height="1" fill="rgb(71,155,251)"/><rect x="100" y="101" width="2" height="1" fill="rgb(44,131,251)"/><rect x="29" y="102" width="4" height="1" fill="rgb(44,131,251)"/><rect x="94" y="102" width="1" height="1" fill="rgb(44,131,251)"/><rect x="95" y="102" width="6" height="1" fill="rgb(71,155,251)"/><rect x="101" y="102" width="1" height="1" fill="rgb(44,131,251)"/><rect x="28" y="103" width="1" height="1" fill="rgb(44,131,251)"/><rect x="29" y="103" width="1" height="1" fill="rgb(71,155,251)"/><rect x="30" y="103" width="2" height="1" fill="rgb(97,179,251)"/><rect x="32" y="103" width="1" height="1" fill="rgb(71,155,251)"/><rect x="33" y="103" width="1" height="1" fill="rgb(44,131,251)"/><rect x="93" y="103" width="1" height="1" fill="rgb(0,88,243)"/><rect x="94" y="103" width="1" height="1" fill="rgb(17,114,251)"/><rect x="95" y="103" width="1" height="1" fill="rgb(44,131,251)"/><rect x="96" y="103" width="4" height="1" fill="rgb(71,155,251)"/><rect x="100" y="103" width="1" height="1" fill="rgb(44,131,251)"/><rect x="101" y="103" width="1" height="1" fill="rgb(17,114,251)"/><rect x="102" y="103" width="1" height="1" fill="rgb(0,88,243)"/><rect x="27" y="104" width="2" height="1" fill="rgb(17,114,251)"/><rect x="29" y="104" width="1" height="1" fill="rgb(44,131,251)"/><rect x="30" y="104" width="2" height="1" fill="rgb(71,155,251)"/><rect x="32" y="104" width="1" height="1" fill="rgb(44,131,251)"/><rect x="33" y="104" width="2" height="1" fill="rgb(17,114,251)"/><rect x="93" y="104" width="1" height="1" fill="rgb(0,71,228)"/><rect x="94" y="104" width="2" height="1" fill="rgb(17,114,251)"/><rect x="96" y="104" width="4" height="1" fill="rgb(44,131,251)"/><rect x="100" y="104" width="2" height="1" fill="rgb(17,114,251)"/><rect x="102" y="104" width="1" height="1" fill="rgb(0,71,228)"/><rect x="28" y="105" width="2" height="1" fill="rgb(17,114,251)"/><rect x="30" y="105" width="2" height="1" fill="rgb(44,131,251)"/><rect x="32" y="105" width="2" height="1" fill="rgb(17,114,251)"/><rect x="94" y="105" width="1" height="1" fill="rgb(0,71,228)"/><rect x="95" y="105" width="1" height="1" fill="rgb(0,88,243)"/><rect x="96" y="105" width="4" height="1" fill="rgb(17,114,251)"/><rect x="100" y="105" width="1" height="1" fill="rgb(0,88,243)"/><rect x="101" y="105" width="1" height="1" fill="rgb(0,71,228)"/><rect x="27" y="105" width="1" height="2" fill="rgb(0,88,243)"/><rect x="34" y="105" width="1" height="2" fill="rgb(0,88,243)"/><rect x="93" y="105" width="1" height="2" fill="rgb(0,88,243)"/><rect x="102" y="105" width="1" height="2" fill="rgb(0,88,243)"/><rect x="28" y="106" width="1" height="1" fill="rgb(0,71,228)"/><rect x="29" y="106" width="4" height="1" fill="rgb(17,114,251)"/><rect x="33" y="106" width="1" height="1" fill="rgb(0,71,228)"/><rect x="94" y="106" width="2" height="1" fill="rgb(0,71,228)"/><rect x="96" y="106" width="4" height="1" fill="rgb(0,53,212)"/><rect x="100" y="106" width="2" height="1" fill="rgb(0,71,228)"/><rect x="27" y="107" width="1" height="1" fill="rgb(17,114,251)"/><rect x="28" y="107" width="1" height="1" fill="rgb(0,88,243)"/><rect x="29" y="107" width="1" height="1" fill="rgb(0,71,228)"/><rect x="30" y="107" width="2" height="1" fill="rgb(0,53,212)"/><rect x="32" y="107" width="1" height="1" fill="rgb(0,71,228)"/><rect x="33" y="107" width="1" height="1" fill="rgb(0,88,243)"/><rect x="34" y="107" width="1" height="1" fill="rgb(17,114,251)"/><rect x="94" y="107" width="1" height="1" fill="rgb(0,88,243)"/><rect x="95" y="107" width="6" height="1" fill="rgb(0,71,228)"/><rect x="101" y="107" width="1" height="1" fill="rgb(0,88,243)"/><rect x="28" y="108" width="1" height="1" fill="rgb(44,131,251)"/><rect x="29" y="108" width="1" height="1" fill="rgb(0,88,243)"/><rect x="30" y="108" width="2" height="1" fill="rgb(0,71,228)"/><rect x="32" y="108" width="1" height="1" fill="rgb(0,88,243)"/><rect x="33" y="108" width="1" height="1" fill="rgb(44,131,251)"/><rect x="94" y="108" width="2" height="1" fill="rgb(44,131,251)"/><rect x="96" y="108" width="4" height="1" fill="rgb(0,88,243)"/><rect x="100" y="108" width="2" height="1" fill="rgb(44,131,251)"/><rect x="29" y="109" width="4" height="1" fill="rgb(44,131,251)"/><rect x="96" y="109" width="4" height="1" fill="rgb(44,131,251)"/><rect x="49" y="112" width="4" height="1" fill="rgb(44,131,251)"/><rect x="76" y="112" width="4" height="1" fill="rgb(44,131,251)"/><rect x="47" y="113" width="2" height="1" fill="rgb(44,131,251)"/><rect x="49" y="113" width="1" height="1" fill="rgb(71,155,251)"/><rect x="50" y="113" width="2" height="1" fill="rgb(97,179,251)"/><rect x="52" y="113" width="1" height="1" fill="rgb(71,155,251)"/><rect x="53" y="113" width="2" height="1" fill="rgb(44,131,251)"/><rect x="74" y="113" width="2" height="1" fill="rgb(44,131,251)"/><rect x="76" y="113" width="1" height="1" fill="rgb(71,155,251)"/><rect x="77" y="113" width="2" height="1" fill="rgb(97,179,251)"/><rect x="79" y="113" width="1" height="1" fill="rgb(71,155,251)"/><rect x="80" y="113" width="2" height="1" fill="rgb(44,131,251)"/><rect x="47" y="114" width="1" height="1" fill="rgb(44,131,251)"/><rect x="48" y="114" width="6" height="1" fill="rgb(71,155,251)"/><rect x="54" y="114" width="1" height="1" fill="rgb(44,131,251)"/><rect x="74" y="114" width="1" height="1" fill="rgb(44,131,251)"/><rect x="75" y="114" width="6" height="1" fill="rgb(71,155,251)"/><rect x="81" y="114" width="1" height="1" fill="rgb(44,131,251)"/><rect x="46" y="115" width="1" height="1" fill="rgb(0,88,243)"/><rect x="47" y="115" width="1" height="1" fill="rgb(17,114,251)"/><rect x="48" y="115" width="1" height="1" fill="rgb(44,131,251)"/><rect x="49" y="115" width="4" height="1" fill="rgb(71,155,251)"/><rect x="53" y="115" width="1" height="1" fill="rgb(44,131,251)"/><rect x="54" y="115" width="1" height="1" fill="rgb(17,114,251)"/><rect x="55" y="115" width="1" height="1" fill="rgb(0,88,243)"/><rect x="73" y="115" width="1" height="1" fill="rgb(0,88,243)"/><rect x="74" y="115" width="1" height="1" fill="rgb(17,114,251)"/><rect x="75" y="115" width="1" height="1" fill="rgb(44,131,251)"/><rect x="76" y="115" width="4" height="1" fill="rgb(71,155,251)"/><rect x="80" y="115" width="1" height="1" fill="rgb(44,131,251)"/><rect x="81" y="115" width="1" height="1" fill="rgb(17,114,251)"/><rect x="82" y="115" width="1" height="1" fill="rgb(0,88,243)"/><rect x="46" y="116" width="1" height="1" fill="rgb(0,71,228)"/><rect x="47" y="116" width="2" height="1" fill="rgb(17,114,251)"/><rect x="49" y="116" width="4" height="1" fill="rgb(44,131,251)"/><rect x="53" y="116" width="2" height="1" fill="rgb(17,114,251)"/><rect x="55" y="116" width="1" height="1" fill="rgb(0,71,228)"/><rect x="73" y="116" width="1" height="1" fill="rgb(0,71,228)"/><rect x="74" y="116" width="2" height="1" fill="rgb(17,114,251)"/><rect x="76" y="116" width="4" height="1" fill="rgb(44,131,251)"/><rect x="80" y="116" width="2" height="1" fill="rgb(17,114,251)"/><rect x="82" y="116" width="1" height="1" fill="rgb(0,71,228)"/><rect x="47" y="117" width="1" height="1" fill="rgb(0,71,228)"/><rect x="48" y="117" width="1" height="1" fill="rgb(0,88,243)"/><rect x="49" y="117" width="4" height="1" fill="rgb(17,114,251)"/><rect x="53" y="117" width="1" height="1" fill="rgb(0,88,243)"/><rect x="54" y="117" width="1" height="1" fill="rgb(0,71,228)"/><rect x="74" y="117" width="1" height="1" fill="rgb(0,71,228)"/><rect x="75" y="117" width="1" height="1" fill="rgb(0,88,243)"/><rect x="76" y="117" width="4" height="1" fill="rgb(17,114,251)"/><rect x="80" y="117" width="1" height="1" fill="rgb(0,88,243)"/><rect x="81" y="117" width="1" height="1" fill="rgb(0,71,228)"/><rect x="46" y="117" width="1" height="2" fill="rgb(0,88,243)"/><rect x="55" y="117" width="1" height="2" fill="rgb(0,88,243)"/><rect x="73" y="117" width="1" height="2" fill="rgb(0,88,243)"/><rect x="82" y="117" width="1" height="2" fill="rgb(0,88,243)"/><rect x="47" y="118" width="2" height="1" fill="rgb(0,71,228)"/><rect x="49" y="118" width="4" height="1" fill="rgb(0,53,212)"/><rect x="53" y="118" width="2" height="1" fill="rgb(0,71,228)"/><rect x="74" y="118" width="2" height="1" fill="rgb(0,71,228)"/><rect x="76" y="118" width="4" height="1" fill="rgb(0,53,212)"/><rect x="80" y="118" width="2" height="1" fill="rgb(0,71,228)"/><rect x="47" y="119" width="1" height="1" fill="rgb(0,88,243)"/><rect x="48" y="119" width="6" height="1" fill="rgb(0,71,228)"/><rect x="54" y="119" width="1" height="1" fill="rgb(0,88,243)"/><rect x="74" y="119" width="1" height="1" fill="rgb(0,88,243)"/><rect x="75" y="119" width="6" height="1" fill="rgb(0,71,228)"/><rect x="81" y="119" width="1" height="1" fill="rgb(0,88,243)"/><rect x="47" y="120" width="2" height="1" fill="rgb(44,131,251)"/><rect x="49" y="120" width="4" height="1" fill="rgb(0,88,243)"/><rect x="53" y="120" width="2" height="1" fill="rgb(44,131,251)"/><rect x="74" y="120" width="2" height="1" fill="rgb(44,131,251)"/><rect x="76" y="120" width="4" height="1" fill="rgb(0,88,243)"/><rect x="80" y="120" width="2" height="1" fill="rgb(44,131,251)"/><rect x="49" y="121" width="4" height="1" fill="rgb(44,131,251)"/><rect x="76" y="121" width="4" height="1" fill="rgb(44,131,251)"/></svg>