<svg xmlns="http://www.w3.org/2000/svg" width="64" height="80" viewBox="0 0 64 80"><rect x="4" y="0" width="56" height="1" fill="rgb(251,251,138)"/><rect x="2" y="1" width="1" height="1" fill="rgb(251,243,89)"/><rect x="3" y="1" width="3" height="1" fill="rgb(251,219,24)"/><rect x="6" y="1" width="52" height="1" fill="rgb(243,211,8)"/><rect x="58" y="1" width="3" height="1" fill="rgb(251,219,24)"/><rect x="61" y="1" width="1" height="1" fill="rgb(251,243,89)"/><rect x="1" y="2" width="1" height="1" fill="rgb(251,243,89)"/><rect x="7" y="2" width="3" height="1" fill="rgb(235,195,0)"/><rect x="10" y="2" width="2" height="1" fill="rgb(235,186,0)"/><rect x="12" y="2" width="40" height="1" fill="rgb(243,170,0)"/><rect x="52" y="2" width="2" height="1" fill="rgb(235,186,0)"/><rect x="54" y="2" width="3" height="1" fill="rgb(235,195,0)"/><rect x="62" y="2" width="1" height="1" fill="rgb(251,243,89)"/><rect x="2" y="2" width="3" height="2" fill="rgb(251,219,24)"/><rect x="5" y="2" width="2" height="2" fill="rgb(243,211,8)"/><rect x="57" y="2" width="2" height="2" fill="rgb(243,211,8)"/><rect x="59" y="2" width="3" height="2" fill="rgb(251,219,24)"/><rect x="1" y="3" width="1" height="1" fill="rgb(235,195,0)"/><rect x="7" y="3" width="1" height="1" fill="rgb(235,195,0)"/><rect x="8" y="3" width="9" height="1" fill="rgb(235,186,0)"/><rect x="17" y="3" width="30" height="1" fill="rgb(243,170,0)"/><rect x="47" y="3" width="9" height="1" fill="rgb(235,186,0)"/><rect x="56" y="3" width="1" height="1" fill="rgb(235,195,0)"/><rect x="62" y="3" width="1" height="1" fill="rgb(235,195,0)"/><rect x="1" y="4" width="1" height="1" fill="rgb(243,170,0)"/><rect x="2" y="4" width="1" height="1" fill="rgb(235,195,0)"/><rect x="4" y="4" width="2" height="1" fill="rgb(243,211,8)"/><rect x="6" y="4" width="5" height="1" fill="rgb(235,195,0)"/><rect x="11" y="4" width="42" height="1" fill="rgb(235,186,0)"/><rect x="53" y="4" width="5" height="1" fill="rgb(235,195,0)"/><rect x="58" y="4" width="2" height="1" fill="rgb(243,211,8)"/><rect x="61" y="4" width="1" height="1" fill="rgb(235,195,0)"/><rect x="62" y="4" width="1" height="1" fill="rgb(243,170,0)"/><rect x="3" y="4" width="1" height="2" fill="rgb(251,219,24)"/><rect x="60" y="4" width="1" height="2" fill="rgb(251,219,24)"/><rect x="2" y="5" width="1" height="1" fill="rgb(235,186,0)"/><rect x="4" y="5" width="1" height="1" fill="rgb(243,211,8)"/><rect x="5" y="5" width="54" height="1" fill="rgb(235,195,0)"/><rect x="59" y="5" width="1" height="1" fill="rgb(243,211,8)"/><rect x="61" y="5" width="1" height="1" fill="rgb(235,186,0)"/><rect x="3" y="6" width="58" height="1" fill="rgb(243,211,8)"/><rect x="1" y="5" width="1" height="3" fill="rgb(235,162,0)"/><rect x="62" y="5" width="1" height="3" fill="rgb(235,162,0)"/><rect x="2" y="6" width="1" height="2" fill="rgb(243,170,0)"/><rect x="61" y="6" width="1" height="2" fill="rgb(243,170,0)"/><rect x="3" y="7" width="6" height="1" fill="rgb(243,211,8)"/><rect x="9" y="7" width="2" height="1" fill="rgb(251,219,24)"/><rect x="11" y="7" width="42" height="1" fill="rgb(251,235,40)"/><rect x="53" y="7" width="2" height="1" fill="rgb(251,219,24)"/><rect x="55" y="7" width="6" height="1" fill="rgb(243,211,8)"/><rect x="3" y="8" width="5" height="1" fill="rgb(243,211,8)"/><rect x="8" y="8" width="1" height="1" fill="rgb(251,219,24)"/><rect x="9" y="8" width="2" height="1" fill="rgb(251,243,89)"/><rect x="11" y="8" width="1" height="1" fill="rgb(235,195,0)"/><rect x="12" y="8" width="40" height="1" fill="rgb(235,186,0)"/><rect x="52" y="8" width="1" height="1" fill="rgb(235,195,0)"/><rect x="53" y="8" width="2" height="1" fill="rgb(251,243,89)"/><rect x="55" y="8" width="1" height="1" fill="rgb(251,219,24)"/><rect x="56" y="8" width="5" height="1" fill="rgb(243,211,8)"/><rect x="4" y="9" width="3" height="1" fill="rgb(243,211,8)"/><rect x="7" y="9" width="1" height="1" fill="rgb(251,219,24)"/><rect x="8" y="9" width="1" height="1" fill="rgb(251,243,89)"/><rect x="9" y="9" width="3" height="1" fill="rgb(235,195,0)"/><rect x="52" y="9" width="3" height="1" fill="rgb(235,195,0)"/><rect x="55" y="9" width="1" height="1" fill="rgb(251,243,89)"/><rect x="56" y="9" width="1" height="1" fill="rgb(251,219,24)"/><rect x="57" y="9" width="3" height="1" fill="rgb(243,211,8)"/><rect x="1" y="8" width="2" height="3" fill="rgb(235,162,0)"/><rect x="61" y="8" width="2" height="3" fill="rgb(235,162,0)"/><rect x="7" y="10" width="1" height="1" fill="rgb(251,243,89)"/><rect x="9" y="10" width="1" height="1" fill="rgb(235,195,0)"/><rect x="54" y="10" width="1" height="1" fill="rgb(235,195,0)"/><rect x="56" y="10" width="1" height="1" fill="rgb(251,243,89)"/><rect x="3" y="9" width="1" height="3" fill="rgb(235,195,0)"/><rect x="60" y="9" width="1" height="3" fill="rgb(235,195,0)"/><rect x="4" y="10" width="3" height="2" fill="rgb(251,235,40)"/><rect x="8" y="10" width="1" height="2" fill="rgb(243,211,8)"/><rect x="55" y="10" width="1" height="2" fill="rgb(243,211,8)"/><rect x="57" y="10" width="3" height="2" fill="rgb(251,235,40)"/><rect x="7" y="11" width="1" height="1" fill="rgb(251,251,138)"/><rect x="56" y="11" width="1" height="1" fill="rgb(251,251,138)"/><rect x="7" y="12" width="2" height="1" fill="rgb(243,211,8)"/><rect x="55" y="12" width="2" height="1" fill="rgb(243,211,8)"/><rect x="4" y="12" width="2" height="2" fill="rgb(251,243,89)"/><rect x="6" y="12" width="1" height="2" fill="rgb(251,251,138)"/><rect x="57" y="12" width="1" height="2" fill="rgb(251,251,138)"/><rect x="58" y="12" width="2" height="2" fill="rgb(251,243,89)"/><rect x="3" y="12" width="1" height="3" fill="rgb(235,186,0)"/><rect x="60" y="12" width="1" height="3" fill="rgb(235,186,0)"/><rect x="4" y="14" width="3" height="1" fill="rgb(251,251,138)"/><rect x="57" y="14" width="3" height="1" fill="rgb(251,251,138)"/><rect x="2" y="11" width="1" height="6" fill="rgb(235,162,0)"/><rect x="61" y="11" width="1" height="6" fill="rgb(235,162,0)"/><rect x="3" y="15" width="1" height="2" fill="rgb(243,170,0)"/><rect x="60" y="15" width="1" height="2" fill="rgb(243,170,0)"/><rect x="2" y="17" width="2" height="1" fill="rgb(235,162,0)"/><rect x="60" y="17" width="2" height="1" fill="rgb(235,162,0)"/><rect x="4" y="15" width="2" height="5" fill="rgb(251,251,186)"/><rect x="6" y="15" width="1" height="5" fill="rgb(251,251,138)"/><rect x="57" y="15" width="1" height="5" fill="rgb(251,251,138)"/><rect x="58" y="15" width="2" height="5" fill="rgb(251,251,186)"/><rect x="4" y="20" width="3" height="2" fill="rgb(251,251,138)"/><rect x="57" y="20" width="3" height="2" fill="rgb(251,251,138)"/><rect x="1" y="11" width="1" height="14" fill="rgb(235,186,0)"/><rect x="62" y="11" width="1" height="14" fill="rgb(235,186,0)"/><rect x="2" y="18" width="1" height="7" fill="rgb(243,170,0)"/><rect x="61" y="18" width="1" height="7" fill="rgb(243,170,0)"/><rect x="4" y="22" width="2" height="10" fill="rgb(251,243,89)"/><rect x="58" y="22" width="2" height="10" fill="rgb(251,243,89)"/><rect x="7" y="13" width="1" height="21" fill="rgb(243,211,8)"/><rect x="56" y="13" width="1" height="21" fill="rgb(243,211,8)"/><rect x="6" y="22" width="1" height="14" fill="rgb(251,251,138)"/><rect x="57" y="22" width="1" height="14" fill="rgb(251,251,138)"/><rect x="4" y="32" width="2" height="4" fill="rgb(251,235,40)"/><rect x="58" y="32" width="2" height="4" fill="rgb(251,235,40)"/><rect x="4" y="36" width="2" height="3" fill="rgb(251,219,24)"/><rect x="58" y="36" width="2" height="3" fill="rgb(251,219,24)"/><rect x="4" y="39" width="2" height="5" fill="rgb(243,211,8)"/><rect x="58" y="39" width="2" height="5" fill="rgb(243,211,8)"/><rect x="1" y="25" width="2" height="25" fill="rgb(235,186,0)"/><rect x="61" y="25" width="2" height="25" fill="rgb(235,186,0)"/><rect x="6" y="36" width="1" height="14" fill="rgb(251,243,89)"/><rect x="57" y="36" width="1" height="14" fill="rgb(251,243,89)"/><rect x="4" y="44" width="2" height="6" fill="rgb(235,195,0)"/><rect x="58" y="44" width="2" height="6" fill="rgb(235,195,0)"/><rect x="4" y="50" width="2" height="2" fill="rgb(235,186,0)"/><rect x="58" y="50" width="2" height="2" fill="rgb(235,186,0)"/><rect x="7" y="34" width="1" height="19" fill="rgb(251,219,24)"/><rect x="56" y="34" width="1" height="19" fill="rgb(251,219,24)"/><rect x="6" y="50" width="1" height="4" fill="rgb(251,251,138)"/><rect x="57" y="50" width="1" height="4" fill="rgb(251,251,138)"/><rect x="7" y="53" width="2" height="1" fill="rgb(251,235,40)"/><rect x="55" y="53" width="2" height="1" fill="rgb(251,235,40)"/><rect x="6" y="54" width="1" height="1" fill="rgb(251,235,40)"/><rect x="7" y="54" width="1" height="1" fill="rgb(251,243,89)"/><rect x="8" y="54" width="1" height="1" fill="rgb(251,235,40)"/><rect x="55" y="54" width="1" height="1" fill="rgb(251,235,40)"/><rect x="56" y="54" width="1" height="1" fill="rgb(251,243,89)"/><rect x="57" y="54" width="1" height="1" fill="rgb(251,235,40)"/><rect x="6" y="55" width="1" height="1" fill="rgb(235,186,0)"/><rect x="7" y="55" width="1" height="1" fill="rgb(251,251,138)"/><rect x="8" y="55" width="2" height="1" fill="rgb(251,235,40)"/><rect x="54" y="55" width="2" height="1" fill="rgb(251,235,40)"/><rect x="56" y="55" width="1" height="1" fill="rgb(251,251,138)"/><rect x="57" y="55" width="1" height="1" fill="rgb(235,186,0)"/><rect x="4" y="52" width="2" height="5" fill="rgb(243,170,0)"/><rect x="58" y="52" width="2" height="5" fill="rgb(243,170,0)"/><rect x="7" y="56" width="1" height="1" fill="rgb(251,219,24)"/><rect x="8" y="56" width="1" height="1" fill="rgb(251,251,138)"/><rect x="9" y="56" width="3" height="1" fill="rgb(251,235,40)"/><rect x="52" y="56" width="3" height="1" fill="rgb(251,235,40)"/><rect x="55" y="56" width="1" height="1" fill="rgb(251,251,138)"/><rect x="56" y="56" width="1" height="1" fill="rgb(251,219,24)"/><rect x="6" y="56" width="1" height="2" fill="rgb(235,162,0)"/><rect x="57" y="56" width="1" height="2" fill="rgb(235,162,0)"/><rect x="7" y="57" width="1" height="1" fill="rgb(235,186,0)"/><rect x="8" y="57" width="1" height="1" fill="rgb(251,219,24)"/><rect x="9" y="57" width="1" height="1" fill="rgb(251,251,138)"/><rect x="10" y="57" width="1" height="1" fill="rgb(251,243,89)"/><rect x="11" y="57" width="42" height="1" fill="rgb(251,235,40)"/><rect x="53" y="57" width="1" height="1" fill="rgb(251,243,89)"/><rect x="54" y="57" width="1" height="1" fill="rgb(251,251,138)"/><rect x="55" y="57" width="1" height="1" fill="rgb(251,219,24)"/><rect x="56" y="57" width="1" height="1" fill="rgb(235,186,0)"/><rect x="6" y="58" width="3" height="1" fill="rgb(235,162,0)"/><rect x="9" y="58" width="1" height="1" fill="rgb(235,186,0)"/><rect x="10" y="58" width="1" height="1" fill="rgb(251,219,24)"/><rect x="11" y="58" width="4" height="1" fill="rgb(251,251,138)"/><rect x="15" y="58" width="34" height="1" fill="rgb(251,243,89)"/><rect x="49" y="58" width="4" height="1" fill="rgb(251,251,138)"/><rect x="53" y="58" width="1" height="1" fill="rgb(251,219,24)"/><rect x="54" y="58" width="1" height="1" fill="rgb(235,186,0)"/><rect x="55" y="58" width="3" height="1" fill="rgb(235,162,0)"/><rect x="3" y="18" width="1" height="42" fill="rgb(235,162,0)"/><rect x="60" y="18" width="1" height="42" fill="rgb(235,162,0)"/><rect x="2" y="50" width="1" height="10" fill="rgb(243,170,0)"/><rect x="61" y="50" width="1" height="10" fill="rgb(243,170,0)"/><rect x="5" y="57" width="1" height="3" fill="rgb(243,170,0)"/><rect x="58" y="57" width="1" height="3" fill="rgb(243,170,0)"/><rect x="6" y="59" width="5" height="1" fill="rgb(235,162,0)"/><rect x="11" y="59" width="1" height="1" fill="rgb(235,186,0)"/><rect x="12" y="59" width="40" height="1" fill="rgb(235,195,0)"/><rect x="52" y="59" width="1" height="1" fill="rgb(235,186,0)"/><rect x="53" y="59" width="5" height="1" fill="rgb(235,162,0)"/><rect x="4" y="57" width="1" height="4" fill="rgb(235,186,0)"/><rect x="59" y="57" width="1" height="4" fill="rgb(235,186,0)"/><rect x="5" y="60" width="2" height="1" fill="rgb(243,170,0)"/><rect x="57" y="60" width="2" height="1" fill="rgb(243,170,0)"/><rect x="7" y="60" width="50" height="2" fill="rgb(235,162,0)"/><rect x="6" y="61" width="1" height="1" fill="rgb(243,170,0)"/><rect x="57" y="61" width="1" height="1" fill="rgb(243,170,0)"/><rect x="6" y="62" width="2" height="1" fill="rgb(243,170,0)"/><rect x="8" y="62" width="48" height="1" fill="rgb(235,162,0)"/><rect x="56" y="62" width="2" height="1" fill="rgb(243,170,0)"/><rect x="5" y="61" width="1" height="3" fill="rgb(235,186,0)"/><rect x="58" y="61" width="1" height="3" fill="rgb(235,186,0)"/><rect x="6" y="63" width="4" height="1" fill="rgb(243,170,0)"/><rect x="10" y="63" width="14" height="1" fill="rgb(235,162,0)"/><rect x="24" y="63" width="16" height="1" fill="rgb(243,170,0)"/><rect x="40" y="63" width="14" height="1" fill="rgb(235,162,0)"/><rect x="54" y="63" width="4" height="1" fill="rgb(243,170,0)"/><rect x="4" y="61" width="1" height="4" fill="rgb(235,195,0)"/><rect x="59" y="61" width="1" height="4" fill="rgb(235,195,0)"/><rect x="5" y="64" width="2" height="1" fill="rgb(235,186,0)"/><rect x="7" y="64" width="50" height="1" fill="rgb(243,170,0)"/><rect x="57" y="64" width="2" height="1" fill="rgb(235,186,0)"/><rect x="1" y="50" width="1" height="16" fill="rgb(235,186,0)"/><rect x="62" y="50" width="1" height="16" fill="rgb(235,186,0)"/><rect x="2" y="60" width="2" height="6" fill="rgb(243,170,0)"/><rect x="60" y="60" width="2" height="6" fill="rgb(243,170,0)"/><rect x="4" y="65" width="2" height="1" fill="rgb(235,195,0)"/><rect x="6" y="65" width="2" height="1" fill="rgb(235,186,0)"/><rect x="8" y="65" width="48" height="1" fill="rgb(243,170,0)"/><rect x="56" y="65" width="2" height="1" fill="rgb(235,186,0)"/><rect x="58" y="65" width="2" height="1" fill="rgb(235,195,0)"/><rect x="5" y="66" width="1" height="1" fill="rgb(235,195,0)"/><rect x="6" y="66" width="3" height="1" fill="rgb(235,186,0)"/><rect x="9" y="66" width="11" height="1" fill="rgb(243,170,0)"/><rect x="20" y="66" width="24" height="1" fill="rgb(235,186,0)"/><rect x="44" y="66" width="11" height="1" fill="rgb(243,170,0)"/><rect x="55" y="66" width="3" height="1" fill="rgb(235,186,0)"/><rect x="58" y="66" width="1" height="1" fill="rgb(235,195,0)"/><rect x="3" y="66" width="1" height="2" fill="rgb(235,186,0)"/><rect x="4" y="66" width="1" height="2" fill="rgb(243,211,8)"/><rect x="59" y="66" width="1" height="2" fill="rgb(243,211,8)"/><rect x="60" y="66" width="1" height="2" fill="rgb(235,186,0)"/><rect x="5" y="67" width="2" height="1" fill="rgb(235,195,0)"/><rect x="7" y="67" width="50" height="1" fill="rgb(235,186,0)"/><rect x="57" y="67" width="2" height="1" fill="rgb(235,195,0)"/><rect x="1" y="66" width="2" height="3" fill="rgb(243,170,0)"/><rect x="61" y="66" width="2" height="3" fill="rgb(243,170,0)"/><rect x="4" y="68" width="2" height="1" fill="rgb(243,211,8)"/><rect x="6" y="68" width="2" height="1" fill="rgb(235,195,0)"/><rect x="8" y="68" width="21" height="1" fill="rgb(235,186,0)"/><rect x="29" y="68" width="6" height="1" fill="rgb(235,195,0)"/><rect x="35" y="68" width="21" height="1" fill="rgb(235,186,0)"/><rect x="56" y="68" width="2" height="1" fill="rgb(235,195,0)"/><rect x="58" y="68" width="2" height="1" fill="rgb(243,211,8)"/><rect x="4" y="69" width="1" height="1" fill="rgb(251,219,24)"/><rect x="5" y="69" width="2" height="1" fill="rgb(243,211,8)"/><rect x="7" y="69" width="2" height="1" fill="rgb(235,195,0)"/><rect x="9" y="69" width="11" height="1" fill="rgb(235,186,0)"/><rect x="20" y="69" width="24" height="1" fill="rgb(235,195,0)"/><rect x="44" y="69" width="11" height="1" fill="rgb(235,186,0)"/><rect x="55" y="69" width="2" height="1" fill="rgb(235,195,0)"/><rect x="57" y="69" width="2" height="1" fill="rgb(243,211,8)"/><rect x="59" y="69" width="1" height="1" fill="rgb(251,219,24)"/><rect x="3" y="68" width="1" height="3" fill="rgb(235,195,0)"/><rect x="60" y="68" width="1" height="3" fill="rgb(235,195,0)"/><rect x="1" y="69" width="1" height="2" fill="rgb(243,170,0)"/><rect x="2" y="69" width="1" height="2" fill="rgb(235,162,0)"/><rect x="61" y="69" width="1" height="2" fill="rgb(235,162,0)"/><rect x="62" y="69" width="1" height="2" fill="rgb(243,170,0)"/><rect x="6" y="70" width="2" height="1" fill="rgb(243,211,8)"/><rect x="8" y="70" width="48" height="1" fill="rgb(235,195,0)"/><rect x="56" y="70" width="2" height="1" fill="rgb(243,211,8)"/><rect x="4" y="70" width="2" height="2" fill="rgb(251,219,24)"/><rect x="58" y="70" width="2" height="2" fill="rgb(251,219,24)"/><rect x="1" y="71" width="2" height="1" fill="rgb(235,162,0)"/><rect x="3" y="71" width="1" height="1" fill="rgb(243,211,8)"/><rect x="6" y="71" width="3" height="1" fill="rgb(243,211,8)"/><rect x="9" y="71" width="16" height="1" fill="rgb(235,195,0)"/><rect x="25" y="71" width="14" height="1" fill="rgb(243,211,8)"/><rect x="39" y="71" width="16" height="1" fill="rgb(235,195,0)"/><rect x="55" y="71" width="3" height="1" fill="rgb(243,211,8)"/><rect x="60" y="71" width="1" height="1" fill="rgb(243,211,8)"/><rect x="61" y="71" width="2" height="1" fill="rgb(235,162,0)"/><rect x="2" y="72" width="1" height="1" fill="rgb(243,170,0)"/><rect x="3" y="72" width="1" height="1" fill="rgb(251,219,24)"/><rect x="4" y="72" width="1" height="1" fill="rgb(251,235,40)"/><rect x="5" y="72" width="2" height="1" fill="rgb(251,219,24)"/><rect x="7" y="72" width="6" height="1" fill="rgb(243,211,8)"/><rect x="13" y="72" width="6" height="1" fill="rgb(235,195,0)"/><rect x="19" y="72" width="26" height="1" fill="rgb(243,211,8)"/><rect x="45" y="72" width="6" height="1" fill="rgb(235,195,0)"/><rect x="51" y="72" width="6" height="1" fill="rgb(243,211,8)"/><rect x="57" y="72" width="2" height="1" fill="rgb(251,219,24)"/><rect x="59" y="72" width="1" height="1" fill="rgb(251,235,40)"/><rect x="60" y="72" width="1" height="1" fill="rgb(251,219,24)"/><rect x="61" y="72" width="1" height="1" fill="rgb(243,170,0)"/><rect x="3" y="73" width="3" height="1" fill="rgb(251,235,40)"/><rect x="6" y="73" width="2" height="1" fill="rgb(251,219,24)"/><rect x="8" y="73" width="48" height="1" fill="rgb(243,211,8)"/><rect x="56" y="73" width="2" height="1" fill="rgb(251,219,24)"/><rect x="58" y="73" width="3" height="1" fill="rgb(251,235,40)"/><rect x="1" y="72" width="1" height="3" fill="rgb(235,162,0)"/><rect x="62" y="72" width="1" height="3" fill="rgb(235,162,0)"/><rect x="2" y="73" width="1" height="2" fill="rgb(235,186,0)"/><rect x="61" y="73" width="1" height="2" fill="rgb(235,186,0)"/><rect x="3" y="74" width="4" height="1" fill="rgb(251,235,40)"/><rect x="7" y="74" width="4" height="1" fill="rgb(251,219,24)"/><rect x="11" y="74" width="9" height="1" fill="rgb(243,211,8)"/><rect x="20" y="74" width="24" height="1" fill="rgb(251,219,24)"/><rect x="44" y="74" width="9" height="1" fill="rgb(243,211,8)"/><rect x="53" y="74" width="4" height="1" fill="rgb(251,219,24)"/><rect x="57" y="74" width="4" height="1" fill="rgb(251,235,40)"/><rect x="0" y="4" width="1" height="72" fill="rgb(251,251,138)"/><rect x="63" y="4" width="1" height="72" fill="rgb(251,251,138)"/><rect x="1" y="75" width="1" height="1" fill="rgb(243,170,0)"/><rect x="2" y="75" width="1" height="1" fill="rgb(243,211,8)"/><rect x="3" y="75" width="6" height="1" fill="rgb(251,235,40)"/><rect x="9" y="75" width="46" height="1" fill="rgb(251,219,24)"/><rect x="55" y="75" width="6" height="1" fill="rgb(251,235,40)"/><rect x="61" y="75" width="1" height="1" fill="rgb(243,211,8)"/><rect x="62" y="75" width="1" height="1" fill="rgb(243,170,0)"/><rect x="1" y="76" width="1" height="1" fill="rgb(235,195,0)"/><rect x="2" y="76" width="11" height="1" fill="rgb(251,235,40)"/><rect x="13" y="76" width="38" height="1" fill="rgb(251,219,24)"/><rect x="51" y="76" width="11" height="1" fill="rgb(251,235,40)"/><rect x="62" y="76" width="1" height="1" fill="rgb(235,195,0)"/><rect x="1" y="77" width="1" height="1" fill="rgb(251,243,89)"/><rect x="2" y="77" width="60" height="1" fill="rgb(251,235,40)"/><rect x="62" y="77" width="1" height="1" fill="rgb(251,243,89)"/><rect x="2" y="78" width="1" height="1" fill="rgb(251,243,89)"/><rect x="3" y="78" width="58" height="1" fill="rgb(251,219,24)"/><rect x="61" y="78" width="1" height="1" fill="rgb(251,243,89)"/><rect x="4" y="79" width="56" height="1" fill="rgb(251,251,138)"/></svg>