<svg xmlns="http://www.w3.org/2000/svg" width="128" height="144" viewBox="0 0 128 144"><rect x="54" y="22" width="4" height="1" fill="rgb(44,131,251)"/><rect x="53" y="23" width="1" height="1" fill="rgb(44,131,251)"/><rect x="54" y="23" width="1" height="1" fill="rgb(71,155,251)"/><rect x="55" y="23" width="2" height="1" fill="rgb(97,179,251)"/><rect x="57" y="23" width="1" height="1" fill="rgb(71,155,251)"/><rect x="58" y="23" width="1" height="1" fill="rgb(44,131,251)"/><rect x="52" y="24" width="2" height="1" fill="rgb(17,114,251)"/><rect x="54" y="24" width="1" height="1" fill="rgb(44,131,251)"/><rect x="55" y="24" width="2" height="1" fill="rgb(71,155,251)"/><rect x="57" y="24" width="1" height="1" fill="rgb(44,131,251)"/><rect x="58" y="24" width="2" height="1" fill="rgb(17,114,251)"/><rect x="80" y="24" width="4" height="1" fill="rgb(44,131,251)"/><rect x="53" y="25" width="2" height="1" fill="rgb(17,114,251)"/><rect x="55" y="25" width="2" height="1" fill="rgb(44,131,251)"/><rect x="57" y="25" width="2" height="1" fill="rgb(17,114,251)"/><rect x="79" y="25" width="1" height="1" fill="rgb(44,131,251)"/><rect x="80" y="25" width="1" height="1" fill="rgb(71,155,251)"/><rect x="81" y="25" width="2" height="1" fill="rgb(97,179,251)"/><rect x="83" y="25" width="1" height="1" fill="rgb(71,155,251)"/><rect x="84" y="25" width="1" height="1" fill="rgb(44,131,251)"/><rect x="52" y="25" width="1" height="2" fill="rgb(0,88,243)"/><rect x="59" y="25" width="1" height="2" fill="rgb(0,88,243)"/><rect x="53" y="26" width="1" height="1" fill="rgb(0,71,228)"/><rect x="54" y="26" width="4" height="1" fill="rgb(17,114,251)"/><rect x="58" y="26" width="1" height="1" fill="rgb(0,71,228)"/><rect x="78" y="26" width="2" height="1" fill="rgb(17,114,251)"/><rect x="80" y="26" width="1" height="1" fill="rgb(44,131,251)"/><rect x="81" y="26" width="2" height="1" fill="rgb(71,155,251)"/><rect x="83" y="26" width="1" height="1" fill="rgb(44,131,251)"/><rect x="84" y="26" width="2" height="1" fill="rgb(17,114,251)"/><rect x="52" y="27" width="1" height="1" fill="rgb(17,114,251)"/><rect x="53" y="27" width="1" height="1" fill="rgb(0,88,243)"/><rect x="54" y="27" width="1" height="1" fill="rgb(0,71,228)"/><rect x="55" y="27" width="2" height="1" fill="rgb(0,53,212)"/><rect x="57" y="27" width="1" height="1" fill="rgb(0,71,228)"/><rect x="58" y="27" width="1" height="1" fill="rgb(0,88,243)"/><rect x="59" y="27" width="1" height="1" fill="rgb(17,114,251)"/><rect x="79" y="27" width="2" height="1" fill="rgb(17,114,251)"/><rect x="81" y="27" width="2" height="1" fill="rgb(44,131,251)"/><rect x="83" y="27" width="2" height="1" fill="rgb(17,114,251)"/><rect x="78" y="27" width="1" height="2" fill="rgb(0,88,243)"/><rect x="85" y="27" width="1" height="2" fill="rgb(0,88,243)"/><rect x="53" y="28" width="1" height="1" fill="rgb(44,131,251)"/><rect x="54" y="28" width="1" height="1" fill="rgb(0,88,243)"/><rect x="55" y="28" width="2" height="1" fill="rgb(0,71,228)"/><rect x="57" y="28" width="1" height="1" fill="rgb(0,88,243)"/><rect x="58" y="28" width="1" height="1" fill="rgb(44,131,251)"/><rect x="79" y="28" width="1" height="1" fill="rgb(0,71,228)"/><rect x="80" y="28" width="4" height="1" fill="rgb(17,114,251)"/><rect x="84" y="28" width="1" height="1" fill="rgb(0,71,228)"/><rect x="54" y="29" width="4" height="1" fill="rgb(44,131,251)"/><rect x="78" y="29" width="1" height="1" fill="rgb(17,114,251)"/><rect x="79" y="29" width="1" height="1" fill="rgb(0,88,243)"/><rect x="80" y="29" width="1" height="1" fill="rgb(0,71,228)"/><rect x="81" y="29" width="2" height="1" fill="rgb(0,53,212)"/><rect x="83" y="29" width="1" height="1" fill="rgb(0,71,228)"/><rect x="84" y="29" width="1" height="1" fill="rgb(0,88,243)"/><rect x="85" y="29" width="1" height="1" fill="rgb(17,114,251)"/><rect x="79" y="30" width="1" height="1" fill="rgb(44,131,251)"/><rect x="80" y="30" width="1" height="1" fill="rgb(0,88,243)"/><rect x="81" y="30" width="2" height="1" fill="rgb(0,71,228)"/><rect x="83" y="30" width="1" height="1" fill="rgb(0,88,243)"/><rect x="84" y="30" width="1" height="1" fill="rgb(44,131,251)"/><rect x="80" y="31" width="4" height="1" fill="rgb(44,131,251)"/><rect x="32" y="32" width="4" height="1" fill="rgb(44,131,251)"/><rect x="31" y="33" width="1" height="1" fill="rgb(44,131,251)"/><rect x="32" y="33" width="1" height="1" fill="rgb(71,155,251)"/><rect x="33" y="33" width="2" height="1" fill="rgb(97,179,251)"/><rect x="35" y="33" width="1" height="1" fill="rgb(71,155,251)"/><rect x="36" y="33" width="1" height="1" fill="rgb(44,131,251)"/><rect x="30" y="34" width="2" height="1" fill="rgb(17,114,251)"/><rect x="32" y="34" width="1" height="1" fill="rgb(44,131,251)"/><rect x="33" y="34" width="2" height="1" fill="rgb(71,155,251)"/><rect x="35" y="34" width="1" height="1" fill="rgb(44,131,251)"/><rect x="36" y="34" width="2" height="1" fill="rgb(17,114,251)"/><rect x="31" y="35" width="2" height="1" fill="rgb(17,114,251)"/><rect x="33" y="35" width="2" height="1" fill="rgb(44,131,251)"/><rect x="35" y="35" width="2" height="1" fill="rgb(17,114,251)"/><rect x="30" y="35" width="1" height="2" fill="rgb(0,88,243)"/><rect x="37" y="35" width="1" height="2" fill="rgb(0,88,243)"/><rect x="31" y="36" width="1" height="1" fill="rgb(0,71,228)"/><rect x="32" y="36" width="4" height="1" fill="rgb(17,114,251)"/><rect x="36" y="36" width="1" height="1" fill="rgb(0,71,228)"/><rect x="30" y="37" width="1" height="1" fill="rgb(17,114,251)"/><rect x="31" y="37" width="1" height="1" fill="rgb(0,88,243)"/><rect x="32" y="37" width="1" height="1" fill="rgb(0,71,228)"/><rect x="33" y="37" width="2" height="1" fill="rgb(0,53,212)"/><rect x="35" y="37" width="1" height="1" fill="rgb(0,71,228)"/><rect x="36" y="37" width="1" height="1" fill="rgb(0,88,243)"/><rect x="37" y="37" width="1" height="1" fill="rgb(17,114,251)"/><rect x="98" y="37" width="4" height="1" fill="rgb(44,131,251)"/><rect x="31" y="38" width="1" height="1" fill="rgb(44,131,251)"/><rect x="32" y="38" width="1" height="1" fill="rgb(0,88,243)"/><rect x="33" y="38" width="2" height="1" fill="rgb(0,71,228)"/><rect x="35" y="38" width="1" height="1" fill="rgb(0,88,243)"/><rect x="36" y="38" width="1" height="1" fill="rgb(44,131,251)"/><rect x="96" y="38" width="2" height="1" fill="rgb(44,131,251)"/><rect x="98" y="38" width="1" height="1" fill="rgb(71,155,251)"/><rect x="99" y="38" width="2" height="1" fill="rgb(97,179,251)"/><rect x="101" y="38" width="1" height="1" fill="rgb(71,155,251)"/><rect x="102" y="38" width="2" height="1" fill="rgb(44,131,251)"/><rect x="32" y="39" width="4" height="1" fill="rgb(44,131,251)"/><rect x="96" y="39" width="1" height="1" fill="rgb(44,131,251)"/><rect x="97" y="39" width="6" height="1" fill="rgb(71,155,251)"/><rect x="103" y="39" width="1" height="1" fill="rgb(44,131,251)"/><rect x="95" y="40" width="1" height="1" fill="rgb(0,88,243)"/><rect x="96" y="40" width="1" height="1" fill="rgb(17,114,251)"/><rect x="97" y="40" width="1" height="1" fill="rgb(44,131,251)"/><rect x="98" y="40" width="4" height="1" fill="rgb(71,155,251)"/><rect x="102" y="40" width="1" height="1" fill="rgb(44,131,251)"/><rect x="103" y="40" width="1" height="1" fill="rgb(17,114,251)"/><rect x="104" y="40" width="1" height="1" fill="rgb(0,88,243)"/><rect x="95" y="41" width="1" height="1" fill="rgb(0,71,228)"/><rect x="96" y="41" width="2" height="1" fill="rgb(17,114,251)"/><rect x="98" y="41" width="4" height="1" fill="rgb(44,131,251)"/><rect x="102" y="41" width="2" height="1" fill="rgb(17,114,251)"/><rect x="104" y="41" width="1" height="1" fill="rgb(0,71,228)"/><rect x="96" y="42" width="1" height="1" fill="rgb(0,71,228)"/><rect x="97" y="42" width="1" height="1" fill="rgb(0,88,243)"/><rect x="98" y="42" width="4" height="1" fill="rgb(17,114,251)"/><rect x="102" y="42" width="1" height="1" fill="rgb(0,88,243)"/><rect x="103" y="42" width="1" height="1" fill="rgb(0,71,228)"/><rect x="95" y="42" width="1" height="2" fill="rgb(0,88,243)"/><rect x="104" y="42" width="1" height="2" fill="rgb(0,88,243)"/><rect x="96" y="43" width="2" height="1" fill="rgb(0,71,228)"/><rect x="98" y="43" width="4" height="1" fill="rgb(0,53,212)"/><rect x="102" y="43" width="2" height="1" fill="rgb(0,71,228)"/><rect x="96" y="44" width="1" height="1" fill="rgb(0,88,243)"/><rect x="97" y="44" width="6" height="1" fill="rgb(0,71,228)"/><rect x="103" y="44" width="1" height="1" fill="rgb(0,88,243)"/><rect x="96" y="45" width="2" height="1" fill="rgb(44,131,251)"/><rect x="98" y="45" width="4" height="1" fill="rgb(0,88,243)"/><rect x="102" y="45" width="2" height="1" fill="rgb(44,131,251)"/><rect x="98" y="46" width="4" height="1" fill="rgb(44,131,251)"/><rect x="18" y="49" width="4" height="1" fill="rgb(44,131,251)"/><rect x="16" y="50" width="2" height="1" fill="rgb(44,131,251)"/><rect x="18" y="50" width="1" height="1" fill="rgb(71,155,251)"/><rect x="19" y="50" width="2" height="1" fill="rgb(97,179,251)"/><rect x="21" y="50" width="1" height="1" fill="rgb(71,155,251)"/><rect x="22" y="50" width="2" height="1" fill="rgb(44,131,251)"/><rect x="16" y="51" width="1" height="1" fill="rgb(44,131,251)"/><rect x="17" y="51" width="6" height="1" fill="rgb(71,155,251)"/><rect x="23" y="51" width="1" height="1" fill="rgb(44,131,251)"/><rect x="15" y="52" width="1" height="1" fill="rgb(0,88,243)"/><rect x="16" y="52" width="1" height="1" fill="rgb(17,114,251)"/><rect x="17" y="52" width="1" height="1" fill="rgb(44,131,251)"/><rect x="18" y="52" width="4" height="1" fill="rgb(71,155,251)"/><rect x="22" y="52" width="1" height="1" fill="rgb(44,131,251)"/><rect x="23" y="52" width="1" height="1" fill="rgb(17,114,251)"/><rect x="24" y="52" width="1" height="1" fill="rgb(0,88,243)"/><rect x="15" y="53" width="1" height="1" fill="rgb(0,71,228)"/><rect x="16" y="53" width="2" height="1" fill="rgb(17,114,251)"/><rect x="18" y="53" width="4" height="1" fill="rgb(44,131,251)"/><rect x="22" y="53" width="2" height="1" fill="rgb(17,114,251)"/><rect x="24" y="53" width="1" height="1" fill="rgb(0,71,228)"/><rect x="16" y="54" width="1" height="1" fill="rgb(0,71,228)"/><rect x="17" y="54" width="1" height="1" fill="rgb(0,88,243)"/><rect x="18" y="54" width="4" height="1" fill="rgb(17,114,251)"/><rect x="22" y="54" width="1" height="1" fill="rgb(0,88,243)"/><rect x="23" y="54" width="1" height="1" fill="rgb(0,71,228)"/><rect x="15" y="54" width="1" height="2" fill="rgb(0,88,243)"/><rect x="24" y="54" width="1" height="2" fill="rgb(0,88,243)"/><rect x="16" y="55" width="2" height="1" fill="rgb(0,71,228)"/><rect x="18" y="55" width="4" height="1" fill="rgb(0,53,212)"/><rect x="22" y="55" width="2" height="1" fill="rgb(0,71,228)"/><rect x="16" y="56" width="1" height="1" fill="rgb(0,88,243)"/><rect x="17" y="56" width="6" height="1" fill="rgb(0,71,228)"/><rect x="23" y="56" width="1" height="1" fill="rgb(0,88,243)"/><rect x="16" y="57" width="2" height="1" fill="rgb(44,131,251)"/><rect x="18" y="57" width="4" height="1" fill="rgb(0,88,243)"/><rect x="22" y="57" width="2" height="1" fill="rgb(44,131,251)"/><rect x="18" y="58" width="4" height="1" fill="rgb(44,131,251)"/><rect x="108" y="59" width="4" height="1" fill="rgb(44,131,251)"/><rect x="106" y="60" width="2" height="1" fill="rgb(44,131,251)"/><rect x="108" y="60" width="1" height="1" fill="rgb(71,155,251)"/><rect x="109" y="60" width="2" height="1" fill="rgb(97,179,251)"/><rect x="111" y="60" width="1" height="1" fill="rgb(71,155,251)"/><rect x="112" y="60" width="2" height="1" fill="rgb(44,131,251)"/><rect x="106" y="61" width="1" height="1" fill="rgb(44,131,251)"/><rect x="107" y="61" width="6" height="1" fill="rgb(71,155,251)"/><rect x="113" y="61" width="1" height="1" fill="rgb(44,131,251)"/><rect x="105" y="62" width="1" height="1" fill="rgb(0,88,243)"/><rect x="106" y="62" width="1" height="1" fill="rgb(17,114,251)"/><rect x="107" y="62" width="1" height="1" fill="rgb(44,131,251)"/><rect x="108" y="62" width="4" height="1" fill="rgb(71,155,251)"/><rect x="112" y="62" width="1" height="1" fill="rgb(44,131,251)"/><rect x="113" y="62" width="1" height="1" fill="rgb(17,114,251)"/><rect x="114" y="62" width="1" height="1" fill="rgb(0,88,243)"/><rect x="105" y="63" width="1" height="1" fill="rgb(0,71,228)"/><rect x="106" y="63" width="2" height="1" fill="rgb(17,114,251)"/><rect x="108" y="63" width="4" height="1" fill="rgb(44,131,251)"/><rect x="112" y="63" width="2" height="1" fill="rgb(17,114,251)"/><rect x="114" y="63" width="1" height="1" fill="rgb(0,71,228)"/><rect x="106" y="64" width="1" height="1" fill="rgb(0,71,228)"/><rect x="107" y="64" width="1" height="1" fill="rgb(0,88,243)"/><rect x="108" y="64" width="4" height="1" fill="rgb(17,114,251)"/><rect x="112" y="64" width="1" height="1" fill="rgb(0,88,243)"/><rect x="113" y="64" width="1" height="1" fill="rgb(0,71,228)"/><rect x="105" y="64" width="1" height="2" fill="rgb(0,88,243)"/><rect x="114" y="64" width="1" height="2" fill="rgb(0,88,243)"/><rect x="106" y="65" width="2" height="1" fill="rgb(0,71,228)"/><rect x="108" y="65" width="4" height="1" fill="rgb(0,53,212)"/><rect x="112" y="65" width="2" height="1" fill="rgb(0,71,228)"/><rect x="106" y="66" width="1" height="1" fill="rgb(0,88,243)"/><rect x="107" y="66" width="6" height="1" fill="rgb(0,71,228)"/><rect x="113" y="66" width="1" height="1" fill="rgb(0,88,243)"/><rect x="106" y="67" width="2" height="1" fill="rgb(44,131,251)"/><rect x="108" y="67" width="4" height="1" fill="rgb(0,88,243)"/><rect x="112" y="67" width="2" height="1" fill="rgb(44,131,251)"/><rect x="108" y="68" width="4" height="1" fill="rgb(44,131,251)"/><rect x="16" y="75" width="4" height="1" fill="rgb(44,131,251)"/><rect x="14" y="76" width="2" height="1" fill="rgb(44,131,251)"/><rect x="16" y="76" width="1" height="1" fill="rgb(71,155,251)"/><rect x="17" y="76" width="2" height="1" fill="rgb(97,179,251)"/><rect x="19" y="76" width="1" height="1" fill="rgb(71,155,251)"/><rect x="20" y="76" width="2" height="1" fill="rgb(44,131,251)"/><rect x="14" y="77" width="1" height="1" fill="rgb(44,131,251)"/><rect x="15" y="77" width="6" height="1" fill="rgb(71,155,251)"/><rect x="21" y="77" width="1" height="1" fill="rgb(44,131,251)"/><rect x="13" y="78" width="1" height="1" fill="rgb(0,88,243)"/><rect x="14" y="78" width="1" height="1" fill="rgb(17,114,251)"/><rect x="15" y="78" width="1" height="1" fill="rgb(44,131,251)"/><rect x="16" y="78" width="4" height="1" fill="rgb(71,155,251)"/><rect x="20" y="78" width="1" height="1" fill="rgb(44,131,251)"/><rect x="21" y="78" width="1" height="1" fill="rgb(17,114,251)"/><rect x="22" y="78" width="1" height="1" fill="rgb(0,88,243)"/><rect x="13" y="79" width="1" height="1" fill="rgb(0,71,228)"/><rect x="14" y="79" width="2" height="1" fill="rgb(17,114,251)"/><rect x="16" y="79" width="4" height="1" fill="rgb(44,131,251)"/><rect x="20" y="79" width="2" height="1" fill="rgb(17,114,251)"/><rect x="22" y="79" width="1" height="1" fill="rgb(0,71,228)"/><rect x="14" y="80" width="1" height="1" fill="rgb(0,71,228)"/><rect x="15" y="80" width="1" height="1" fill="rgb(0,88,243)"/><rect x="16" y="80" width="4" height="1" fill="rgb(17,114,251)"/><rect x="20" y="80" width="1" height="1" fill="rgb(0,88,243)"/><rect x="21" y="80" width="1" height="1" fill="rgb(0,71,228)"/><rect x="13" y="80" width="1" height="2" fill="rgb(0,88,243)"/><rect x="22" y="80" width="1" height="2" fill="rgb(0,88,243)"/><rect x="14" y="81" width="2" height="1" fill="rgb(0,71,228)"/><rect x="16" y="81" width="4" height="1" fill="rgb(0,53,212)"/><rect x="20" y="81" width="2" height="1" fill="rgb(0,71,228)"/><rect x="14" y="82" width="1" height="1" fill="rgb(0,88,243)"/><rect x="15" y="82" width="6" height="1" fill="rgb(0,71,228)"/><rect x="21" y="82" width="1" height="1" fill="rgb(0,88,243)"/><rect x="14" y="83" width="2" height="1" fill="rgb(44,131,251)"/><rect x="16" y="83" width="4" height="1" fill="rgb(0,88,243)"/><rect x="20" y="83" width="2" height="1" fill="rgb(44,131,251)"/><rect x="16" y="84" width="4" height="1" fill="rgb(44,131,251)"/><rect x="106" y="85" width="4" height="1" fill="rgb(44,131,251)"/><rect x="104" y="86" width="2" height="1" fill="rgb(44,131,251)"/><rect x="106" y="86" width="1" height="1" fill="rgb(71,155,251)"/><rect x="107" y="86" width="2" height="1" fill="rgb(97,179,251)"/><rect x="109" y="86" width="1" height="1" fill="rgb(71,155,251)"/><rect x="110" y="86" width="2" height="1" fill="rgb(44,131,251)"/><rect x="104" y="87" width="1" height="1" fill="rgb(44,131,251)"/><rect x="105" y="87" width="6" height="1" fill="rgb(71,155,251)"/><rect x="111" y="87" width="1" height="1" fill="rgb(44,131,251)"/><rect x="103" y="88" width="1" height="1" fill="rgb(0,88,243)"/><rect x="104" y="88" width="1" height="1" fill="rgb(17,114,251)"/><rect x="105" y="88" width="1" height="1" fill="rgb(44,131,251)"/><rect x="106" y="88" width="4" height="1" fill="rgb(71,155,251)"/><rect x="110" y="88" width="1" height="1" fill="rgb(44,131,251)"/><rect x="111" y="88" width="1" height="1" fill="rgb(17,114,251)"/><rect x="112" y="88" width="1" height="1" fill="rgb(0,88,243)"/><rect x="103" y="89" width="1" height="1" fill="rgb(0,71,228)"/><rect x="104" y="89" width="2" height="1" fill="rgb(17,114,251)"/><rect x="106" y="89" width="4" height="1" fill="rgb(44,131,251)"/><rect x="110" y="89" width="2" height="1" fill="rgb(17,114,251)"/><rect x="112" y="89" width="1" height="1" fill="rgb(0,71,228)"/><rect x="104" y="90" width="1" height="1" fill="rgb(0,71,228)"/><rect x="105" y="90" width="1" height="1" fill="rgb(0,88,243)"/><rect x="106" y="90" width="4" height="1" fill="rgb(17,114,251)"/><rect x="110" y="90" width="1" height="1" fill="rgb(0,88,243)"/><rect x="111" y="90" width="1" height="1" fill="rgb(0,71,228)"/><rect x="103" y="90" width="1" height="2" fill="rgb(0,88,243)"/><rect x="112" y="90" width="1" height="2" fill="rgb(0,88,243)"/><rect x="104" y="91" width="2" height="1" fill="rgb(0,71,228)"/><rect x="106" y="91" width="4" height="1" fill="rgb(0,53,212)"/><rect x="110" y="91" width="2" height="1" fill="rgb(0,71,228)"/><rect x="104" y="92" width="1" height="1" fill="rgb(0,88,243)"/><rect x="105" y="92" width="6" height="1" fill="rgb(0,71,228)"/><rect x="111" y="92" width="1" height="1" fill="rgb(0,88,243)"/><rect x="104" y="93" width="2" height="1" fill="rgb(44,131,251)"/><rect x="106" y="93" width="4" height="1" fill="rgb(0,88,243)"/><rect x="110" y="93" width="2" height="1" fill="rgb(44,131,251)"/><rect x="106" y="94" width="4" height="1" fill="rgb(44,131,251)"/><rect x="26" y="97" width="4" height="1" fill="rgb(44,131,251)"/><rect x="24" y="98" width="2" height="1" fill="rgb(44,131,251)"/><rect x="26" y="98" width="1" height="1" fill="rgb(71,155,251)"/><rect x="27" y="98" width="2" height="1" fill="rgb(97,179,251)"/><rect x="29" y="98" width="1" height="1" fill="rgb(71,155,251)"/><rect x="30" y="98" width="2" height="1" fill="rgb(44,131,251)"/><rect x="24" y="99" width="1" height="1" fill="rgb(44,131,251)"/><rect x="25" y="99" width="6" height="1" fill="rgb(71,155,251)"/><rect x="31" y="99" width="1" height="1" fill="rgb(44,131,251)"/><rect x="23" y="100" width="1" height="1" fill="rgb(0,88,243)"/><rect x="24" y="100" width="1" height="1" fill="rgb(17,114,251)"/><rect x="25" y="100" width="1" height="1" fill="rgb(44,131,251)"/><rect x="26" y="100" width="4" height="1" fill="rgb(71,155,251)"/><rect x="30" y="100" width="1" height="1" fill="rgb(44,131,251)"/><rect x="31" y="100" width="1" height="1" fill="rgb(17,114,251)"/><rect x="32" y="100" width="1" height="1" fill="rgb(0,88,243)"/><rect x="23" y="101" width="1" height="1" fill="rgb(0,71,228)"/><rect x="24" y="101" width="2" height="1" fill="rgb(17,114,251)"/><rect x="26" y="101" width="4" height="1" fill="rgb(44,131,251)"/><rect x="30" y="101" width="2" height="1" fill="rgb(17,114,251)"/><rect x="32" y="101" width="1" height="1" fill="rgb(0,71,228)"/><rect x="24" y="102" width="1" height="1" fill="rgb(0,71,228)"/><rect x="25" y="102" width="1" height="1" fill="rgb(0,88,243)"/><rect x="26" y="102" width="4" height="1" fill="rgb(17,114,251)"/><rect x="30" y="102" width="1" height="1" fill="rgb(0,88,243)"/><rect x="31" y="102" width="1" height="1" fill="rgb(0,71,228)"/><rect x="92" y="102" width="4" height="1" fill="rgb(44,131,251)"/><rect x="23" y="102" width="1" height="2" fill="rgb(0,88,243)"/><rect x="32" y="102" width="1" height="2" fill="rgb(0,88,243)"/><rect x="24" y="103" width="2" height="1" fill="rgb(0,71,228)"/><rect x="26" y="103" width="4" height="1" fill="rgb(0,53,212)"/><rect x="30" y="103" width="2" height="1" fill="rgb(0,71,228)"/><rect x="90" y="103" width="2" height="1" fill="rgb(44,131,251)"/><rect x="92" y="103" width="4" height="1" fill="rgb(71,155,251)"/><rect x="96" y="103" width="2" height="1" fill="rgb(44,131,251)"/><rect x="24" y="104" width="1" height="1" fill="rgb(0,88,243)"/><rect x="25" y="104" width="6" height="1" fill="rgb(0,71,228)"/><rect x="31" y="104" width="1" height="1" fill="rgb(0,88,243)"/><rect x="89" y="104" width="2" height="1" fill="rgb(44,131,251)"/><rect x="91" y="104" width="1" height="1" fill="rgb(71,155,251)"/><rect x="92" y="104" width="4" height="1" fill="rgb(97,179,251)"/><rect x="96" y="104" width="1" height="1" fill="rgb(71,155,251)"/><rect x="97" y="104" width="2" height="1" fill="rgb(44,131,251)"/><rect x="24" y="105" width="2" height="1" fill="rgb(44,131,251)"/><rect x="26" y="105" width="4" height="1" fill="rgb(0,88,243)"/><rect x="30" y="105" width="2" height="1" fill="rgb(44,131,251)"/><rect x="89" y="105" width="1" height="1" fill="rgb(44,131,251)"/><rect x="90" y="105" width="8" height="1" fill="rgb(71,155,251)"/><rect x="98" y="105" width="1" height="1" fill="rgb(44,131,251)"/><rect x="26" y="106" width="4" height="1" fill="rgb(44,131,251)"/><rect x="90" y="106" width="1" height="1" fill="rgb(17,114,251)"/><rect x="91" y="106" width="1" height="1" fill="rgb(44,131,251)"/><rect x="92" y="106" width="4" height="1" fill="rgb(71,155,251)"/><rect x="96" y="106" width="1" height="1" fill="rgb(44,131,251)"/><rect x="97" y="106" width="1" height="1" fill="rgb(17,114,251)"/><rect x="89" y="106" width="1" height="2" fill="rgb(0,88,243)"/><rect x="98" y="106" width="1" height="2" fill="rgb(0,88,243)"/><rect x="90" y="107" width="2" height="1" fill="rgb(17,114,251)"/><rect x="92" y="107" width="4" height="1" fill="rgb(44,131,251)"/><rect x="96" y="107" width="2" height="1" fill="rgb(17,114,251)"/><rect x="89" y="108" width="1" height="1" fill="rgb(0,71,228)"/><rect x="90" y="108" width="2" height="1" fill="rgb(0,88,243)"/><rect x="92" y="108" width="4" height="1" fill="rgb(17,114,251)"/><rect x="96" y="108" width="2" height="1" fill="rgb(0,88,243)"/><rect x="98" y="108" width="1" height="1" fill="rgb(0,71,228)"/><rect x="88" y="106" width="1" height="4" fill="rgb(17,114,251)"/><rect x="99" y="106" width="1" height="4" fill="rgb(17,114,251)"/><rect x="89" y="109" width="1" height="1" fill="rgb(0,88,243)"/><rect x="90" y="109" width="1" height="1" fill="rgb(0,71,228)"/><rect x="91" y="109" width="1" height="1" fill="rgb(0,53,212)"/><rect x="92" y="109" width="1" height="1" fill="rgb(0,71,228)"/><rect x="93" y="109" width="2" height="1" fill="rgb(0,88,243)"/><rect x="95" y="109" width="1" height="1" fill="rgb(0,71,228)"/><rect x="96" y="109" width="1" height="1" fill="rgb(0,53,212)"/><rect x="97" y="109" width="1" height="1" fill="rgb(0,71,228)"/><rect x="98" y="109" width="1" height="1" fill="rgb(0,88,243)"/><rect x="44" y="110" width="4" height="1" fill="rgb(44,131,251)"/><rect x="90" y="110" width="1" height="1" fill="rgb(0,88,243)"/><rect x="91" y="110" width="1" height="1" fill="rgb(0,71,228)"/><rect x="92" y="110" width="1" height="1" fill="rgb(0,53,212)"/><rect x="93" y="110" width="2" height="1" fill="rgb(0,35,187)"/><rect x="95" y="110" width="1" height="1" fill="rgb(0,53,212)"/><rect x="96" y="110" width="1" height="1" fill="rgb(0,71,228)"/><rect x="97" y="110" width="1" height="1" fill="rgb(0,88,243)"/><rect x="89" y="110" width="1" height="2" fill="rgb(17,114,251)"/><rect x="98" y="110" width="1" height="2" fill="rgb(17,114,251)"/><rect x="42" y="111" width="2" height="1" fill="rgb(44,131,251)"/><rect x="44" y="111" width="4" height="1" fill="rgb(71,155,251)"/><rect x="48" y="111" width="2" height="1" fill="rgb(44,131,251)"/><rect x="90" y="111" width="2" height="1" fill="rgb(0,88,243)"/><rect x="92" y="111" width="4" height="1" fill="rgb(0,71,228)"/><rect x="96" y="111" width="2" height="1" fill="rgb(0,88,243)"/><rect x="41" y="112" width="2" height="1" fill="rgb(44,131,251)"/><rect x="43" y="112" width="1" height="1" fill="rgb(71,155,251)"/><rect x="44" y="112" width="4" height="1" fill="rgb(97,179,251)"/><rect x="48" y="112" width="1" height="1" fill="rgb(71,155,251)"/><rect x="49" y="112" width="2" height="1" fill="rgb(44,131,251)"/><rect x="70" y="112" width="4" height="1" fill="rgb(44,131,251)"/><rect x="90" y="112" width="1" height="1" fill="rgb(44,131,251)"/><rect x="91" y="112" width="6" height="1" fill="rgb(17,114,251)"/><rect x="97" y="112" width="1" height="1" fill="rgb(44,131,251)"/><rect x="41" y="113" width="1" height="1" fill="rgb(44,131,251)"/><rect x="42" y="113" width="8" height="1" fill="rgb(71,155,251)"/><rect x="50" y="113" width="1" height="1" fill="rgb(44,131,251)"/><rect x="68" y="113" width="2" height="1" fill="rgb(44,131,251)"/><rect x="70" y="113" width="4" height="1" fill="rgb(71,155,251)"/><rect x="74" y="113" width="2" height="1" fill="rgb(44,131,251)"/><rect x="92" y="113" width="4" height="1" fill="rgb(44,131,251)"/><rect x="42" y="114" width="1" height="1" fill="rgb(17,114,251)"/><rect x="43" y="114" width="1" height="1" fill="rgb(44,131,251)"/><rect x="44" y="114" width="4" height="1" fill="rgb(71,155,251)"/><rect x="48" y="114" width="1" height="1" fill="rgb(44,131,251)"/><rect x="49" y="114" width="1" height="1" fill="rgb(17,114,251)"/><rect x="67" y="114" width="2" height="1" fill="rgb(44,131,251)"/><rect x="69" y="114" width="1" height="1" fill="rgb(71,155,251)"/><rect x="70" y="114" width="4" height="1" fill="rgb(97,179,251)"/><rect x="74" y="114" width="1" height="1" fill="rgb(71,155,251)"/><rect x="75" y="114" width="2" height="1" fill="rgb(44,131,251)"/><rect x="41" y="114" width="1" height="2" fill="rgb(0,88,243)"/><rect x="50" y="114" width="1" height="2" fill="rgb(0,88,243)"/><rect x="42" y="115" width="2" height="1" fill="rgb(17,114,251)"/><rect x="44" y="115" width="4" height="1" fill="rgb(44,131,251)"/><rect x="48" y="115" width="2" height="1" fill="rgb(17,114,251)"/><rect x="67" y="115" width="1" height="1" fill="rgb(44,131,251)"/><rect x="68" y="115" width="8" height="1" fill="rgb(71,155,251)"/><rect x="76" y="115" width="1" height="1" fill="rgb(44,131,251)"/><rect x="41" y="116" width="1" height="1" fill="rgb(0,71,228)"/><rect x="42" y="116" width="2" height="1" fill="rgb(0,88,243)"/><rect x="44" y="116" width="4" height="1" fill="rgb(17,114,251)"/><rect x="48" y="116" width="2" height="1" fill="rgb(0,88,243)"/><rect x="50" y="116" width="1" height="1" fill="rgb(0,71,228)"/><rect x="68" y="116" width="1" height="1" fill="rgb(17,114,251)"/><rect x="69" y="116" width="1" height="1" fill="rgb(44,131,251)"/><rect x="70" y="116" width="4" height="1" fill="rgb(71,155,251)"/><rect x="74" y="116" width="1" height="1" fill="rgb(44,131,251)"/><rect x="75" y="116" width="1" height="1" fill="rgb(17,114,251)"/><rect x="40" y="114" width="1" height="4" fill="rgb(17,114,251)"/><rect x="51" y="114" width="1" height="4" fill="rgb(17,114,251)"/><rect x="67" y="116" width="1" height="2" fill="rgb(0,88,243)"/><rect x="76" y="116" width="1" height="2" fill="rgb(0,88,243)"/><rect x="41" y="117" width="1" height="1" fill="rgb(0,88,243)"/><rect x="42" y="117" width="1" height="1" fill="rgb(0,71,228)"/><rect x="43" y="117" width="1" height="1" fill="rgb(0,53,212)"/><rect x="44" y="117" width="1" height="1" fill="rgb(0,71,228)"/><rect x="45" y="117" width="2" height="1" fill="rgb(0,88,243)"/><rect x="47" y="117" width="1" height="1" fill="rgb(0,71,228)"/><rect x="48" y="117" width="1" height="1" fill="rgb(0,53,212)"/><rect x="49" y="117" width="1" height="1" fill="rgb(0,71,228)"/><rect x="50" y="117" width="1" height="1" fill="rgb(0,88,243)"/><rect x="68" y="117" width="2" height="1" fill="rgb(17,114,251)"/><rect x="70" y="117" width="4" height="1" fill="rgb(44,131,251)"/><rect x="74" y="117" width="2" height="1" fill="rgb(17,114,251)"/><rect x="42" y="118" width="1" height="1" fill="rgb(0,88,243)"/><rect x="43" y="118" width="1" height="1" fill="rgb(0,71,228)"/><rect x="44" y="118" width="1" height="1" fill="rgb(0,53,212)"/><rect x="45" y="118" width="2" height="1" fill="rgb(0,35,187)"/><rect x="47" y="118" width="1" height="1" fill="rgb(0,53,212)"/><rect x="48" y="118" width="1" height="1" fill="rgb(0,71,228)"/><rect x="49" y="118" width="1" height="1" fill="rgb(0,88,243)"/><rect x="67" y="118" width="1" height="1" fill="rgb(0,71,228)"/><rect x="68" y="118" width="2" height="1" fill="rgb(0,88,243)"/><rect x="70" y="118" width="4" height="1" fill="rgb(17,114,251)"/><rect x="74" y="118" width="2" height="1" fill="rgb(0,88,243)"/><rect x="76" y="118" width="1" height="1" fill="rgb(0,71,228)"/><rect x="66" y="116" width="1" height="4" fill="rgb(17,114,251)"/><rect x="77" y="116" width="1" height="4" fill="rgb(17,114,251)"/><rect x="41" y="118" width="1" height="2" fill="rgb(17,114,251)"/><rect x="50" y="118" width="1" height="2" fill="rgb(17,114,251)"/><rect x="42" y="119" width="2" height="1" fill="rgb(0,88,243)"/><rect x="44" y="119" width="4" height="1" fill="rgb(0,71,228)"/><rect x="48" y="119" width="2" height="1" fill="rgb(0,88,243)"/><rect x="67" y="119" width="1" height="1" fill="rgb(0,88,243)"/><rect x="68" y="119" width="1" height="1" fill="rgb(0,71,228)"/><rect x="69" y="119" width="1" height="1" fill="rgb(0,53,212)"/><rect x="70" y="119" width="1" height="1" fill="rgb(0,71,228)"/><rect x="71" y="119" width="2" height="1" fill="rgb(0,88,243)"/><rect x="73" y="119" width="1" height="1" fill="rgb(0,71,228)"/><rect x="74" y="119" width="1" height="1" fill="rgb(0,53,212)"/><rect x="75" y="119" width="1" height="1" fill="rgb(0,71,228)"/><rect x="76" y="119" width="1" height="1" fill="rgb(0,88,243)"/><rect x="42" y="120" width="1" height="1" fill="rgb(44,131,251)"/><rect x="43" y="120" width="6" height="1" fill="rgb(17,114,251)"/><rect x="49" y="120" width="1" height="1" fill="rgb(44,131,251)"/><rect x="68" y="120" width="1" height="1" fill="rgb(0,88,243)"/><rect x="69" y="120" width="1" height="1" fill="rgb(0,71,228)"/><rect x="70" y="120" width="1" height="1" fill="rgb(0,53,212)"/><rect x="71" y="120" width="2" height="1" fill="rgb(0,35,187)"/><rect x="73" y="120" width="1" height="1" fill="rgb(0,53,212)"/><rect x="74" y="120" width="1" height="1" fill="rgb(0,71,228)"/><rect x="75" y="120" width="1" height="1" fill="rgb(0,88,243)"/><rect x="67" y="120" width="1" height="2" fill="rgb(17,114,251)"/><rect x="76" y="120" width="1" height="2" fill="rgb(17,114,251)"/><rect x="44" y="121" width="4" height="1" fill="rgb(44,131,251)"/><rect x="68" y="121" width="2" height="1" fill="rgb(0,88,243)"/><rect x="70" y="121" width="4" height="1" fill="rgb(0,71,228)"/><rect x="74" y="121" width="2" height="1" fill="rgb(0,88,243)"/><rect x="68" y="122" width="1" height="1" fill="rgb(44,131,251)"/><rect x="69" y="122" width="6" height="1" fill="rgb(17,114,251)"/><rect x="75" y="122" width="1" height="1" fill="rgb(44,131,251)"/><rect x="70" y="123" width="4" height="1" fill="rgb(44,131,251)"/></svg>