<svg xmlns="http://www.w3.org/2000/svg" width="128" height="144" viewBox="0 0 128 144"><rect x="102" y="44" width="2" height="2" fill="rgb(44,131,251)"/><rect x="101" y="45" width="1" height="1" fill="rgb(0,71,228)"/><rect x="104" y="45" width="1" height="1" fill="rgb(0,71,228)"/><rect x="101" y="46" width="1" height="1" fill="rgb(0,88,243)"/><rect x="102" y="46" width="2" height="1" fill="rgb(0,71,228)"/><rect x="104" y="46" width="1" height="1" fill="rgb(0,88,243)"/><rect x="102" y="47" width="2" height="1" fill="rgb(17,114,251)"/><rect x="109" y="68" width="4" height="1" fill="rgb(44,131,251)"/><rect x="108" y="69" width="2" height="1" fill="rgb(44,131,251)"/><rect x="110" y="69" width="2" height="1" fill="rgb(71,155,251)"/><rect x="112" y="69" width="2" height="1" fill="rgb(44,131,251)"/><rect x="108" y="70" width="2" height="1" fill="rgb(17,114,251)"/><rect x="110" y="70" width="2" height="1" fill="rgb(44,131,251)"/><rect x="112" y="70" width="2" height="1" fill="rgb(17,114,251)"/><rect x="108" y="71" width="1" height="1" fill="rgb(0,71,228)"/><rect x="109" y="71" width="4" height="1" fill="rgb(17,114,251)"/><rect x="113" y="71" width="1" height="1" fill="rgb(0,71,228)"/><rect x="108" y="72" width="1" height="1" fill="rgb(17,114,251)"/><rect x="109" y="72" width="1" height="1" fill="rgb(0,71,228)"/><rect x="110" y="72" width="2" height="1" fill="rgb(0,53,212)"/><rect x="112" y="72" width="1" height="1" fill="rgb(0,71,228)"/><rect x="113" y="72" width="1" height="1" fill="rgb(17,114,251)"/><rect x="109" y="73" width="1" height="1" fill="rgb(17,114,251)"/><rect x="110" y="73" width="2" height="1" fill="rgb(0,71,228)"/><rect x="112" y="73" width="1" height="1" fill="rgb(17,114,251)"/><rect x="103" y="90" width="4" height="1" fill="rgb(44,131,251)"/><rect x="102" y="91" width="1" height="1" fill="rgb(44,131,251)"/><rect x="103" y="91" width="1" height="1" fill="rgb(71,155,251)"/><rect x="104" y="91" width="2" height="1" fill="rgb(97,179,251)"/><rect x="106" y="91" width="1" height="1" fill="rgb(71,155,251)"/><rect x="107" y="91" width="1" height="1" fill="rgb(44,131,251)"/><rect x="101" y="92" width="2" height="1" fill="rgb(17,114,251)"/><rect x="103" y="92" width="1" height="1" fill="rgb(44,131,251)"/><rect x="104" y="92" width="2" height="1" fill="rgb(71,155,251)"/><rect x="106" y="92" width="1" height="1" fill="rgb(44,131,251)"/><rect x="107" y="92" width="2" height="1" fill="rgb(17,114,251)"/><rect x="102" y="93" width="2" height="1" fill="rgb(17,114,251)"/><rect x="104" y="93" width="2" height="1" fill="rgb(44,131,251)"/><rect x="106" y="93" width="2" height="1" fill="rgb(17,114,251)"/><rect x="101" y="93" width="1" height="2" fill="rgb(0,88,243)"/><rect x="108" y="93" width="1" height="2" fill="rgb(0,88,243)"/><rect x="102" y="94" width="1" height="1" fill="rgb(0,71,228)"/><rect x="103" y="94" width="4" height="1" fill="rgb(17,114,251)"/><rect x="107" y="94" width="1" height="1" fill="rgb(0,71,228)"/><rect x="23" y="95" width="4" height="1" fill="rgb(44,131,251)"/><rect x="101" y="95" width="1" height="1" fill="rgb(17,114,251)"/><rect x="102" y="95" width="1" height="1" fill="rgb(0,88,243)"/><rect x="103" y="95" width="1" height="1" fill="rgb(0,71,228)"/><rect x="104" y="95" width="2" height="1" fill="rgb(0,53,212)"/><rect x="106" y="95" width="1" height="1" fill="rgb(0,71,228)"/><rect x="107" y="95" width="1" height="1" fill="rgb(0,88,243)"/><rect x="108" y="95" width="1" height="1" fill="rgb(17,114,251)"/><rect x="22" y="96" width="2" height="1" fill="rgb(44,131,251)"/><rect x="24" y="96" width="2" height="1" fill="rgb(71,155,251)"/><rect x="26" y="96" width="2" height="1" fill="rgb(44,131,251)"/><rect x="102" y="96" width="1" height="1" fill="rgb(44,131,251)"/><rect x="103" y="96" width="1" height="1" fill="rgb(0,88,243)"/><rect x="104" y="96" width="2" height="1" fill="rgb(0,71,228)"/><rect x="106" y="96" width="1" height="1" fill="rgb(0,88,243)"/><rect x="107" y="96" width="1" height="1" fill="rgb(44,131,251)"/><rect x="22" y="97" width="2" height="1" fill="rgb(17,114,251)"/><rect x="24" y="97" width="2" height="1" fill="rgb(44,131,251)"/><rect x="26" y="97" width="2" height="1" fill="rgb(17,114,251)"/><rect x="103" y="97" width="4" height="1" fill="rgb(44,131,251)"/><rect x="22" y="98" width="1" height="1" fill="rgb(0,71,228)"/><rect x="23" y="98" width="4" height="1" fill="rgb(17,114,251)"/><rect x="27" y="98" width="1" height="1" fill="rgb(0,71,228)"/><rect x="22" y="99" width="1" height="1" fill="rgb(17,114,251)"/><rect x="23" y="99" width="1" height="1" fill="rgb(0,71,228)"/><rect x="24" y="99" width="2" height="1" fill="rgb(0,53,212)"/><rect x="26" y="99" width="1" height="1" fill="rgb(0,71,228)"/><rect x="27" y="99" width="1" height="1" fill="rgb(17,114,251)"/><rect x="23" y="100" width="1" height="1" fill="rgb(17,114,251)"/><rect x="24" y="100" width="2" height="1" fill="rgb(0,71,228)"/><rect x="26" y="100" width="1" height="1" fill="rgb(17,114,251)"/><rect x="88" y="106" width="4" height="1" fill="rgb(44,131,251)"/><rect x="86" y="107" width="2" height="1" fill="rgb(44,131,251)"/><rect x="88" y="107" width="1" height="1" fill="rgb(71,155,251)"/><rect x="89" y="107" width="2" height="1" fill="rgb(97,179,251)"/><rect x="91" y="107" width="1" height="1" fill="rgb(71,155,251)"/><rect x="92" y="107" width="2" height="1" fill="rgb(44,131,251)"/><rect x="86" y="108" width="1" height="1" fill="rgb(44,131,251)"/><rect x="87" y="108" width="6" height="1" fill="rgb(71,155,251)"/><rect x="93" y="108" width="1" height="1" fill="rgb(44,131,251)"/><rect x="40" y="109" width="4" height="1" fill="rgb(44,131,251)"/><rect x="85" y="109" width="1" height="1" fill="rgb(0,88,243)"/><rect x="86" y="109" width="1" height="1" fill="rgb(17,114,251)"/><rect x="87" y="109" width="1" height="1" fill="rgb(44,131,251)"/><rect x="88" y="109" width="4" height="1" fill="rgb(71,155,251)"/><rect x="92" y="109" width="1" height="1" fill="rgb(44,131,251)"/><rect x="93" y="109" width="1" height="1" fill="rgb(17,114,251)"/><rect x="94" y="109" width="1" height="1" fill="rgb(0,88,243)"/><rect x="39" y="110" width="1" height="1" fill="rgb(44,131,251)"/><rect x="40" y="110" width="1" height="1" fill="rgb(71,155,251)"/><rect x="41" y="110" width="2" height="1" fill="rgb(97,179,251)"/><rect x="43" y="110" width="1" height="1" fill="rgb(71,155,251)"/><rect x="44" y="110" width="1" height="1" fill="rgb(44,131,251)"/><rect x="85" y="110" width="1" height="1" fill="rgb(0,71,228)"/><rect x="86" y="110" width="2" height="1" fill="rgb(17,114,251)"/><rect x="88" y="110" width="4" height="1" fill="rgb(44,131,251)"/><rect x="92" y="110" width="2" height="1" fill="rgb(17,114,251)"/><rect x="94" y="110" width="1" height="1" fill="rgb(0,71,228)"/><rect x="38" y="111" width="2" height="1" fill="rgb(17,114,251)"/><rect x="40" y="111" width="1" height="1" fill="rgb(44,131,251)"/><rect x="41" y="111" width="2" height="1" fill="rgb(71,155,251)"/><rect x="43" y="111" width="1" height="1" fill="rgb(44,131,251)"/><rect x="44" y="111" width="2" height="1" fill="rgb(17,114,251)"/><rect x="86" y="111" width="1" height="1" fill="rgb(0,71,228)"/><rect x="87" y="111" width="1" height="1" fill="rgb(0,88,243)"/><rect x="88" y="111" width="4" height="1" fill="rgb(17,114,251)"/><rect x="92" y="111" width="1" height="1" fill="rgb(0,88,243)"/><rect x="93" y="111" width="1" height="1" fill="rgb(0,71,228)"/><rect x="85" y="111" width="1" height="2" fill="rgb(0,88,243)"/><rect x="94" y="111" width="1" height="2" fill="rgb(0,88,243)"/><rect x="39" y="112" width="2" height="1" fill="rgb(17,114,251)"/><rect x="41" y="112" width="2" height="1" fill="rgb(44,131,251)"/><rect x="43" y="112" width="2" height="1" fill="rgb(17,114,251)"/><rect x="86" y="112" width="2" height="1" fill="rgb(0,71,228)"/><rect x="88" y="112" width="4" height="1" fill="rgb(0,53,212)"/><rect x="92" y="112" width="2" height="1" fill="rgb(0,71,228)"/><rect x="38" y="112" width="1" height="2" fill="rgb(0,88,243)"/><rect x="45" y="112" width="1" height="2" fill="rgb(0,88,243)"/><rect x="39" y="113" width="1" height="1" fill="rgb(0,71,228)"/><rect x="40" y="113" width="4" height="1" fill="rgb(17,114,251)"/><rect x="44" y="113" width="1" height="1" fill="rgb(0,71,228)"/><rect x="86" y="113" width="1" height="1" fill="rgb(0,88,243)"/><rect x="87" y="113" width="6" height="1" fill="rgb(0,71,228)"/><rect x="93" y="113" width="1" height="1" fill="rgb(0,88,243)"/><rect x="38" y="114" width="1" height="1" fill="rgb(17,114,251)"/><rect x="39" y="114" width="1" height="1" fill="rgb(0,88,243)"/><rect x="40" y="114" width="1" height="1" fill="rgb(0,71,228)"/><rect x="41" y="114" width="2" height="1" fill="rgb(0,53,212)"/><rect x="43" y="114" width="1" height="1" fill="rgb(0,71,228)"/><rect x="44" y="114" width="1" height="1" fill="rgb(0,88,243)"/><rect x="45" y="114" width="1" height="1" fill="rgb(17,114,251)"/><rect x="63" y="114" width="4" height="1" fill="rgb(44,131,251)"/><rect x="86" y="114" width="2" height="1" fill="rgb(44,131,251)"/><rect x="88" y="114" width="4" height="1" fill="rgb(0,88,243)"/><rect x="92" y="114" width="2" height="1" fill="rgb(44,131,251)"/><rect x="39" y="115" width="1" height="1" fill="rgb(44,131,251)"/><rect x="40" y="115" width="1" height="1" fill="rgb(0,88,243)"/><rect x="41" y="115" width="2" height="1" fill="rgb(0,71,228)"/><rect x="43" y="115" width="1" height="1" fill="rgb(0,88,243)"/><rect x="44" y="115" width="1" height="1" fill="rgb(44,131,251)"/><rect x="61" y="115" width="2" height="1" fill="rgb(44,131,251)"/><rect x="63" y="115" width="1" height="1" fill="rgb(71,155,251)"/><rect x="64" y="115" width="2" height="1" fill="rgb(97,179,251)"/><rect x="66" y="115" width="1" height="1" fill="rgb(71,155,251)"/><rect x="67" y="115" width="2" height="1" fill="rgb(44,131,251)"/><rect x="88" y="115" width="4" height="1" fill="rgb(44,131,251)"/><rect x="40" y="116" width="4" height="1" fill="rgb(44,131,251)"/><rect x="61" y="116" width="1" height="1" fill="rgb(44,131,251)"/><rect x="62" y="116" width="6" height="1" fill="rgb(71,155,251)"/><rect x="68" y="116" width="1" height="1" fill="rgb(44,131,251)"/><rect x="60" y="117" width="1" height="1" fill="rgb(0,88,243)"/><rect x="61" y="117" width="1" height="1" fill="rgb(17,114,251)"/><rect x="62" y="117" width="1" height="1" fill="rgb(44,131,251)"/><rect x="63" y="117" width="4" height="1" fill="rgb(71,155,251)"/><rect x="67" y="117" width="1" height="1" fill="rgb(44,131,251)"/><rect x="68" y="117" width="1" height="1" fill="rgb(17,114,251)"/><rect x="69" y="117" width="1" height="1" fill="rgb(0,88,243)"/><rect x="60" y="118" width="1" height="1" fill="rgb(0,71,228)"/><rect x="61" y="118" width="2" height="1" fill="rgb(17,114,251)"/><rect x="63" y="118" width="4" height="1" fill="rgb(44,131,251)"/><rect x="67" y="118" width="2" height="1" fill="rgb(17,114,251)"/><rect x="69" y="118" width="1" height="1" fill="rgb(0,71,228)"/><rect x="61" y="119" width="1" height="1" fill="rgb(0,71,228)"/><rect x="62" y="119" width="1" height="1" fill="rgb(0,88,243)"/><rect x="63" y="119" width="4" height="1" fill="rgb(17,114,251)"/><rect x="67" y="119" width="1" height="1" fill="rgb(0,88,243)"/><rect x="68" y="119" width="1" height="1" fill="rgb(0,71,228)"/><rect x="60" y="119" width="1" height="2" fill="rgb(0,88,243)"/><rect x="69" y="119" width="1" height="2" fill="rgb(0,88,243)"/><rect x="61" y="120" width="2" height="1" fill="rgb(0,71,228)"/><rect x="63" y="120" width="4" height="1" fill="rgb(0,53,212)"/><rect x="67" y="120" width="2" height="1" fill="rgb(0,71,228)"/><rect x="61" y="121" width="1" height="1" fill="rgb(0,88,243)"/><rect x="62" y="121" width="6" height="1" fill="rgb(0,71,228)"/><rect x="68" y="121" width="1" height="1" fill="rgb(0,88,243)"/><rect x="61" y="122" width="2" height="1" fill="rgb(44,131,251)"/><rect x="63" y="122" width="4" height="1" fill="rgb(0,88,243)"/><rect x="67" y="122" width="2" height="1" fill="rgb(44,131,251)"/><rect x="63" y="123" width="4" height="1" fill="rgb(44,131,251)"/></svg>