<svg xmlns="http://www.w3.org/2000/svg" width="128" height="144" viewBox="0 0 128 144"><rect x="67" y="22" width="4" height="1" fill="rgb(44,131,251)"/><rect x="66" y="23" width="2" height="1" fill="rgb(44,131,251)"/><rect x="68" y="23" width="2" height="1" fill="rgb(71,155,251)"/><rect x="70" y="23" width="2" height="1" fill="rgb(44,131,251)"/><rect x="66" y="24" width="2" height="1" fill="rgb(17,114,251)"/><rect x="68" y="24" width="2" height="1" fill="rgb(44,131,251)"/><rect x="70" y="24" width="2" height="1" fill="rgb(17,114,251)"/><rect x="66" y="25" width="1" height="1" fill="rgb(0,71,228)"/><rect x="67" y="25" width="4" height="1" fill="rgb(17,114,251)"/><rect x="71" y="25" width="1" height="1" fill="rgb(0,71,228)"/><rect x="43" y="26" width="4" height="1" fill="rgb(44,131,251)"/><rect x="66" y="26" width="1" height="1" fill="rgb(17,114,251)"/><rect x="67" y="26" width="1" height="1" fill="rgb(0,71,228)"/><rect x="68" y="26" width="2" height="1" fill="rgb(0,53,212)"/><rect x="70" y="26" width="1" height="1" fill="rgb(0,71,228)"/><rect x="71" y="26" width="1" height="1" fill="rgb(17,114,251)"/><rect x="42" y="27" width="2" height="1" fill="rgb(44,131,251)"/><rect x="44" y="27" width="2" height="1" fill="rgb(71,155,251)"/><rect x="46" y="27" width="2" height="1" fill="rgb(44,131,251)"/><rect x="67" y="27" width="1" height="1" fill="rgb(17,114,251)"/><rect x="68" y="27" width="2" height="1" fill="rgb(0,71,228)"/><rect x="70" y="27" width="1" height="1" fill="rgb(17,114,251)"/><rect x="42" y="28" width="2" height="1" fill="rgb(17,114,251)"/><rect x="44" y="28" width="2" height="1" fill="rgb(44,131,251)"/><rect x="46" y="28" width="2" height="1" fill="rgb(17,114,251)"/><rect x="42" y="29" width="1" height="1" fill="rgb(0,71,228)"/><rect x="43" y="29" width="4" height="1" fill="rgb(17,114,251)"/><rect x="47" y="29" width="1" height="1" fill="rgb(0,71,228)"/><rect x="42" y="30" width="1" height="1" fill="rgb(17,114,251)"/><rect x="43" y="30" width="1" height="1" fill="rgb(0,71,228)"/><rect x="44" y="30" width="2" height="1" fill="rgb(0,53,212)"/><rect x="46" y="30" width="1" height="1" fill="rgb(0,71,228)"/><rect x="47" y="30" width="1" height="1" fill="rgb(17,114,251)"/><rect x="90" y="30" width="4" height="1" fill="rgb(44,131,251)"/><rect x="43" y="31" width="1" height="1" fill="rgb(17,114,251)"/><rect x="44" y="31" width="2" height="1" fill="rgb(0,71,228)"/><rect x="46" y="31" width="1" height="1" fill="rgb(17,114,251)"/><rect x="89" y="31" width="1" height="1" fill="rgb(44,131,251)"/><rect x="90" y="31" width="1" height="1" fill="rgb(71,155,251)"/><rect x="91" y="31" width="2" height="1" fill="rgb(97,179,251)"/><rect x="93" y="31" width="1" height="1" fill="rgb(71,155,251)"/><rect x="94" y="31" width="1" height="1" fill="rgb(44,131,251)"/><rect x="88" y="32" width="2" height="1" fill="rgb(17,114,251)"/><rect x="90" y="32" width="1" height="1" fill="rgb(44,131,251)"/><rect x="91" y="32" width="2" height="1" fill="rgb(71,155,251)"/><rect x="93" y="32" width="1" height="1" fill="rgb(44,131,251)"/><rect x="94" y="32" width="2" height="1" fill="rgb(17,114,251)"/><rect x="89" y="33" width="2" height="1" fill="rgb(17,114,251)"/><rect x="91" y="33" width="2" height="1" fill="rgb(44,131,251)"/><rect x="93" y="33" width="2" height="1" fill="rgb(17,114,251)"/><rect x="88" y="33" width="1" height="2" fill="rgb(0,88,243)"/><rect x="95" y="33" width="1" height="2" fill="rgb(0,88,243)"/><rect x="89" y="34" width="1" height="1" fill="rgb(0,71,228)"/><rect x="90" y="34" width="4" height="1" fill="rgb(17,114,251)"/><rect x="94" y="34" width="1" height="1" fill="rgb(0,71,228)"/><rect x="88" y="35" width="1" height="1" fill="rgb(17,114,251)"/><rect x="89" y="35" width="1" height="1" fill="rgb(0,88,243)"/><rect x="90" y="35" width="1" height="1" fill="rgb(0,71,228)"/><rect x="91" y="35" width="2" height="1" fill="rgb(0,53,212)"/><rect x="93" y="35" width="1" height="1" fill="rgb(0,71,228)"/><rect x="94" y="35" width="1" height="1" fill="rgb(0,88,243)"/><rect x="95" y="35" width="1" height="1" fill="rgb(17,114,251)"/><rect x="89" y="36" width="1" height="1" fill="rgb(44,131,251)"/><rect x="90" y="36" width="1" height="1" fill="rgb(0,88,243)"/><rect x="91" y="36" width="2" height="1" fill="rgb(0,71,228)"/><rect x="93" y="36" width="1" height="1" fill="rgb(0,88,243)"/><rect x="94" y="36" width="1" height="1" fill="rgb(44,131,251)"/><rect x="90" y="37" width="4" height="1" fill="rgb(44,131,251)"/><rect x="24" y="41" width="4" height="1" fill="rgb(44,131,251)"/><rect x="23" y="42" width="2" height="1" fill="rgb(44,131,251)"/><rect x="25" y="42" width="2" height="1" fill="rgb(71,155,251)"/><rect x="27" y="42" width="2" height="1" fill="rgb(44,131,251)"/><rect x="23" y="43" width="2" height="1" fill="rgb(17,114,251)"/><rect x="25" y="43" width="2" height="1" fill="rgb(44,131,251)"/><rect x="27" y="43" width="2" height="1" fill="rgb(17,114,251)"/><rect x="23" y="44" width="1" height="1" fill="rgb(0,71,228)"/><rect x="24" y="44" width="4" height="1" fill="rgb(17,114,251)"/><rect x="28" y="44" width="1" height="1" fill="rgb(0,71,228)"/><rect x="23" y="45" width="1" height="1" fill="rgb(17,114,251)"/><rect x="24" y="45" width="1" height="1" fill="rgb(0,71,228)"/><rect x="25" y="45" width="2" height="1" fill="rgb(0,53,212)"/><rect x="27" y="45" width="1" height="1" fill="rgb(0,71,228)"/><rect x="28" y="45" width="1" height="1" fill="rgb(17,114,251)"/><rect x="24" y="46" width="1" height="1" fill="rgb(17,114,251)"/><rect x="25" y="46" width="2" height="1" fill="rgb(0,71,228)"/><rect x="27" y="46" width="1" height="1" fill="rgb(17,114,251)"/><rect x="105" y="49" width="4" height="1" fill="rgb(44,131,251)"/><rect x="104" y="50" width="1" height="1" fill="rgb(44,131,251)"/><rect x="105" y="50" width="1" height="1" fill="rgb(71,155,251)"/><rect x="106" y="50" width="2" height="1" fill="rgb(97,179,251)"/><rect x="108" y="50" width="1" height="1" fill="rgb(71,155,251)"/><rect x="109" y="50" width="1" height="1" fill="rgb(44,131,251)"/><rect x="103" y="51" width="2" height="1" fill="rgb(17,114,251)"/><rect x="105" y="51" width="1" height="1" fill="rgb(44,131,251)"/><rect x="106" y="51" width="2" height="1" fill="rgb(71,155,251)"/><rect x="108" y="51" width="1" height="1" fill="rgb(44,131,251)"/><rect x="109" y="51" width="2" height="1" fill="rgb(17,114,251)"/><rect x="104" y="52" width="2" height="1" fill="rgb(17,114,251)"/><rect x="106" y="52" width="2" height="1" fill="rgb(44,131,251)"/><rect x="108" y="52" width="2" height="1" fill="rgb(17,114,251)"/><rect x="103" y="52" width="1" height="2" fill="rgb(0,88,243)"/><rect x="110" y="52" width="1" height="2" fill="rgb(0,88,243)"/><rect x="104" y="53" width="1" height="1" fill="rgb(0,71,228)"/><rect x="105" y="53" width="4" height="1" fill="rgb(17,114,251)"/><rect x="109" y="53" width="1" height="1" fill="rgb(0,71,228)"/><rect x="103" y="54" width="1" height="1" fill="rgb(17,114,251)"/><rect x="104" y="54" width="1" height="1" fill="rgb(0,88,243)"/><rect x="105" y="54" width="1" height="1" fill="rgb(0,71,228)"/><rect x="106" y="54" width="2" height="1" fill="rgb(0,53,212)"/><rect x="108" y="54" width="1" height="1" fill="rgb(0,71,228)"/><rect x="109" y="54" width="1" height="1" fill="rgb(0,88,243)"/><rect x="110" y="54" width="1" height="1" fill="rgb(17,114,251)"/><rect x="104" y="55" width="1" height="1" fill="rgb(44,131,251)"/><rect x="105" y="55" width="1" height="1" fill="rgb(0,88,243)"/><rect x="106" y="55" width="2" height="1" fill="rgb(0,71,228)"/><rect x="108" y="55" width="1" height="1" fill="rgb(0,88,243)"/><rect x="109" y="55" width="1" height="1" fill="rgb(44,131,251)"/><rect x="105" y="56" width="4" height="1" fill="rgb(44,131,251)"/><rect x="15" y="63" width="4" height="1" fill="rgb(44,131,251)"/><rect x="14" y="64" width="1" height="1" fill="rgb(44,131,251)"/><rect x="15" y="64" width="1" height="1" fill="rgb(71,155,251)"/><rect x="16" y="64" width="2" height="1" fill="rgb(97,179,251)"/><rect x="18" y="64" width="1" height="1" fill="rgb(71,155,251)"/><rect x="19" y="64" width="1" height="1" fill="rgb(44,131,251)"/><rect x="13" y="65" width="2" height="1" fill="rgb(17,114,251)"/><rect x="15" y="65" width="1" height="1" fill="rgb(44,131,251)"/><rect x="16" y="65" width="2" height="1" fill="rgb(71,155,251)"/><rect x="18" y="65" width="1" height="1" fill="rgb(44,131,251)"/><rect x="19" y="65" width="2" height="1" fill="rgb(17,114,251)"/><rect x="14" y="66" width="2" height="1" fill="rgb(17,114,251)"/><rect x="16" y="66" width="2" height="1" fill="rgb(44,131,251)"/><rect x="18" y="66" width="2" height="1" fill="rgb(17,114,251)"/><rect x="13" y="66" width="1" height="2" fill="rgb(0,88,243)"/><rect x="20" y="66" width="1" height="2" fill="rgb(0,88,243)"/><rect x="14" y="67" width="1" height="1" fill="rgb(0,71,228)"/><rect x="15" y="67" width="4" height="1" fill="rgb(17,114,251)"/><rect x="19" y="67" width="1" height="1" fill="rgb(0,71,228)"/><rect x="13" y="68" width="1" height="1" fill="rgb(17,114,251)"/><rect x="14" y="68" width="1" height="1" fill="rgb(0,88,243)"/><rect x="15" y="68" width="1" height="1" fill="rgb(0,71,228)"/><rect x="16" y="68" width="2" height="1" fill="rgb(0,53,212)"/><rect x="18" y="68" width="1" height="1" fill="rgb(0,71,228)"/><rect x="19" y="68" width="1" height="1" fill="rgb(0,88,243)"/><rect x="20" y="68" width="1" height="1" fill="rgb(17,114,251)"/><rect x="14" y="69" width="1" height="1" fill="rgb(44,131,251)"/><rect x="15" y="69" width="1" height="1" fill="rgb(0,88,243)"/><rect x="16" y="69" width="2" height="1" fill="rgb(0,71,228)"/><rect x="18" y="69" width="1" height="1" fill="rgb(0,88,243)"/><rect x="19" y="69" width="1" height="1" fill="rgb(44,131,251)"/><rect x="15" y="70" width="4" height="1" fill="rgb(44,131,251)"/><rect x="109" y="72" width="4" height="1" fill="rgb(44,131,251)"/><rect x="107" y="73" width="2" height="1" fill="rgb(44,131,251)"/><rect x="109" y="73" width="1" height="1" fill="rgb(71,155,251)"/><rect x="110" y="73" width="2" height="1" fill="rgb(97,179,251)"/><rect x="112" y="73" width="1" height="1" fill="rgb(71,155,251)"/><rect x="113" y="73" width="2" height="1" fill="rgb(44,131,251)"/><rect x="107" y="74" width="1" height="1" fill="rgb(44,131,251)"/><rect x="108" y="74" width="6" height="1" fill="rgb(71,155,251)"/><rect x="114" y="74" width="1" height="1" fill="rgb(44,131,251)"/><rect x="106" y="75" width="1" height="1" fill="rgb(0,88,243)"/><rect x="107" y="75" width="1" height="1" fill="rgb(17,114,251)"/><rect x="108" y="75" width="1" height="1" fill="rgb(44,131,251)"/><rect x="109" y="75" width="4" height="1" fill="rgb(71,155,251)"/><rect x="113" y="75" width="1" height="1" fill="rgb(44,131,251)"/><rect x="114" y="75" width="1" height="1" fill="rgb(17,114,251)"/><rect x="115" y="75" width="1" height="1" fill="rgb(0,88,243)"/><rect x="106" y="76" width="1" height="1" fill="rgb(0,71,228)"/><rect x="107" y="76" width="2" height="1" fill="rgb(17,114,251)"/><rect x="109" y="76" width="4" height="1" fill="rgb(44,131,251)"/><rect x="113" y="76" width="2" height="1" fill="rgb(17,114,251)"/><rect x="115" y="76" width="1" height="1" fill="rgb(0,71,228)"/><rect x="107" y="77" width="1" height="1" fill="rgb(0,71,228)"/><rect x="108" y="77" width="1" height="1" fill="rgb(0,88,243)"/><rect x="109" y="77" width="4" height="1" fill="rgb(17,114,251)"/><rect x="113" y="77" width="1" height="1" fill="rgb(0,88,243)"/><rect x="114" y="77" width="1" height="1" fill="rgb(0,71,228)"/><rect x="106" y="77" width="1" height="2" fill="rgb(0,88,243)"/><rect x="115" y="77" width="1" height="2" fill="rgb(0,88,243)"/><rect x="107" y="78" width="2" height="1" fill="rgb(0,71,228)"/><rect x="109" y="78" width="4" height="1" fill="rgb(0,53,212)"/><rect x="113" y="78" width="2" height="1" fill="rgb(0,71,228)"/><rect x="107" y="79" width="1" height="1" fill="rgb(0,88,243)"/><rect x="108" y="79" width="6" height="1" fill="rgb(0,71,228)"/><rect x="114" y="79" width="1" height="1" fill="rgb(0,88,243)"/><rect x="107" y="80" width="2" height="1" fill="rgb(44,131,251)"/><rect x="109" y="80" width="4" height="1" fill="rgb(0,88,243)"/><rect x="113" y="80" width="2" height="1" fill="rgb(44,131,251)"/><rect x="109" y="81" width="4" height="1" fill="rgb(44,131,251)"/><rect x="19" y="86" width="4" height="1" fill="rgb(44,131,251)"/><rect x="17" y="87" width="2" height="1" fill="rgb(44,131,251)"/><rect x="19" y="87" width="1" height="1" fill="rgb(71,155,251)"/><rect x="20" y="87" width="2" height="1" fill="rgb(97,179,251)"/><rect x="22" y="87" width="1" height="1" fill="rgb(71,155,251)"/><rect x="23" y="87" width="2" height="1" fill="rgb(44,131,251)"/><rect x="17" y="88" width="1" height="1" fill="rgb(44,131,251)"/><rect x="18" y="88" width="6" height="1" fill="rgb(71,155,251)"/><rect x="24" y="88" width="1" height="1" fill="rgb(44,131,251)"/><rect x="16" y="89" width="1" height="1" fill="rgb(0,88,243)"/><rect x="17" y="89" width="1" height="1" fill="rgb(17,114,251)"/><rect x="18" y="89" width="1" height="1" fill="rgb(44,131,251)"/><rect x="19" y="89" width="4" height="1" fill="rgb(71,155,251)"/><rect x="23" y="89" width="1" height="1" fill="rgb(44,131,251)"/><rect x="24" y="89" width="1" height="1" fill="rgb(17,114,251)"/><rect x="25" y="89" width="1" height="1" fill="rgb(0,88,243)"/><rect x="16" y="90" width="1" height="1" fill="rgb(0,71,228)"/><rect x="17" y="90" width="2" height="1" fill="rgb(17,114,251)"/><rect x="19" y="90" width="4" height="1" fill="rgb(44,131,251)"/><rect x="23" y="90" width="2" height="1" fill="rgb(17,114,251)"/><rect x="25" y="90" width="1" height="1" fill="rgb(0,71,228)"/><rect x="17" y="91" width="1" height="1" fill="rgb(0,71,228)"/><rect x="18" y="91" width="1" height="1" fill="rgb(0,88,243)"/><rect x="19" y="91" width="4" height="1" fill="rgb(17,114,251)"/><rect x="23" y="91" width="1" height="1" fill="rgb(0,88,243)"/><rect x="24" y="91" width="1" height="1" fill="rgb(0,71,228)"/><rect x="16" y="91" width="1" height="2" fill="rgb(0,88,243)"/><rect x="25" y="91" width="1" height="2" fill="rgb(0,88,243)"/><rect x="17" y="92" width="2" height="1" fill="rgb(0,71,228)"/><rect x="19" y="92" width="4" height="1" fill="rgb(0,53,212)"/><rect x="23" y="92" width="2" height="1" fill="rgb(0,71,228)"/><rect x="17" y="93" width="1" height="1" fill="rgb(0,88,243)"/><rect x="18" y="93" width="6" height="1" fill="rgb(0,71,228)"/><rect x="24" y="93" width="1" height="1" fill="rgb(0,88,243)"/><rect x="17" y="94" width="2" height="1" fill="rgb(44,131,251)"/><rect x="19" y="94" width="4" height="1" fill="rgb(0,88,243)"/><rect x="23" y="94" width="2" height="1" fill="rgb(44,131,251)"/><rect x="100" y="94" width="4" height="1" fill="rgb(44,131,251)"/><rect x="19" y="95" width="4" height="1" fill="rgb(44,131,251)"/><rect x="98" y="95" width="2" height="1" fill="rgb(44,131,251)"/><rect x="100" y="95" width="4" height="1" fill="rgb(71,155,251)"/><rect x="104" y="95" width="2" height="1" fill="rgb(44,131,251)"/><rect x="97" y="96" width="2" height="1" fill="rgb(44,131,251)"/><rect x="99" y="96" width="1" height="1" fill="rgb(71,155,251)"/><rect x="100" y="96" width="4" height="1" fill="rgb(97,179,251)"/><rect x="104" y="96" width="1" height="1" fill="rgb(71,155,251)"/><rect x="105" y="96" width="2" height="1" fill="rgb(44,131,251)"/><rect x="97" y="97" width="1" height="1" fill="rgb(44,131,251)"/><rect x="98" y="97" width="8" height="1" fill="rgb(71,155,251)"/><rect x="106" y="97" width="1" height="1" fill="rgb(44,131,251)"/><rect x="98" y="98" width="1" height="1" fill="rgb(17,114,251)"/><rect x="99" y="98" width="1" height="1" fill="rgb(44,131,251)"/><rect x="100" y="98" width="4" height="1" fill="rgb(71,155,251)"/><rect x="104" y="98" width="1" height="1" fill="rgb(44,131,251)"/><rect x="105" y="98" width="1" height="1" fill="rgb(17,114,251)"/><rect x="97" y="98" width="1" height="2" fill="rgb(0,88,243)"/><rect x="106" y="98" width="1" height="2" fill="rgb(0,88,243)"/><rect x="98" y="99" width="2" height="1" fill="rgb(17,114,251)"/><rect x="100" y="99" width="4" height="1" fill="rgb(44,131,251)"/><rect x="104" y="99" width="2" height="1" fill="rgb(17,114,251)"/><rect x="97" y="100" width="1" height="1" fill="rgb(0,71,228)"/><rect x="98" y="100" width="2" height="1" fill="rgb(0,88,243)"/><rect x="100" y="100" width="4" height="1" fill="rgb(17,114,251)"/><rect x="104" y="100" width="2" height="1" fill="rgb(0,88,243)"/><rect x="106" y="100" width="1" height="1" fill="rgb(0,71,228)"/><rect x="96" y="98" width="1" height="4" fill="rgb(17,114,251)"/><rect x="107" y="98" width="1" height="4" fill="rgb(17,114,251)"/><rect x="97" y="101" width="1" height="1" fill="rgb(0,88,243)"/><rect x="98" y="101" width="1" height="1" fill="rgb(0,71,228)"/><rect x="99" y="101" width="1" height="1" fill="rgb(0,53,212)"/><rect x="100" y="101" width="1" height="1" fill="rgb(0,71,228)"/><rect x="101" y="101" width="2" height="1" fill="rgb(0,88,243)"/><rect x="103" y="101" width="1" height="1" fill="rgb(0,71,228)"/><rect x="104" y="101" width="1" height="1" fill="rgb(0,53,212)"/><rect x="105" y="101" width="1" height="1" fill="rgb(0,71,228)"/><rect x="106" y="101" width="1" height="1" fill="rgb(0,88,243)"/><rect x="98" y="102" width="1" height="1" fill="rgb(0,88,243)"/><rect x="99" y="102" width="1" height="1" fill="rgb(0,71,228)"/><rect x="100" y="102" width="1" height="1" fill="rgb(0,53,212)"/><rect x="101" y="102" width="2" height="1" fill="rgb(0,35,187)"/><rect x="103" y="102" width="1" height="1" fill="rgb(0,53,212)"/><rect x="104" y="102" width="1" height="1" fill="rgb(0,71,228)"/><rect x="105" y="102" width="1" height="1" fill="rgb(0,88,243)"/><rect x="97" y="102" width="1" height="2" fill="rgb(17,114,251)"/><rect x="106" y="102" width="1" height="2" fill="rgb(17,114,251)"/><rect x="98" y="103" width="2" height="1" fill="rgb(0,88,243)"/><rect x="100" y="103" width="4" height="1" fill="rgb(0,71,228)"/><rect x="104" y="103" width="2" height="1" fill="rgb(0,88,243)"/><rect x="34" y="104" width="4" height="1" fill="rgb(44,131,251)"/><rect x="98" y="104" width="1" height="1" fill="rgb(44,131,251)"/><rect x="99" y="104" width="6" height="1" fill="rgb(17,114,251)"/><rect x="105" y="104" width="1" height="1" fill="rgb(44,131,251)"/><rect x="32" y="105" width="2" height="1" fill="rgb(44,131,251)"/><rect x="34" y="105" width="4" height="1" fill="rgb(71,155,251)"/><rect x="38" y="105" width="2" height="1" fill="rgb(44,131,251)"/><rect x="100" y="105" width="4" height="1" fill="rgb(44,131,251)"/><rect x="31" y="106" width="2" height="1" fill="rgb(44,131,251)"/><rect x="33" y="106" width="1" height="1" fill="rgb(71,155,251)"/><rect x="34" y="106" width="4" height="1" fill="rgb(97,179,251)"/><rect x="38" y="106" width="1" height="1" fill="rgb(71,155,251)"/><rect x="39" y="106" width="2" height="1" fill="rgb(44,131,251)"/><rect x="31" y="107" width="1" height="1" fill="rgb(44,131,251)"/><rect x="32" y="107" width="8" height="1" fill="rgb(71,155,251)"/><rect x="40" y="107" width="1" height="1" fill="rgb(44,131,251)"/><rect x="32" y="108" width="1" height="1" fill="rgb(17,114,251)"/><rect x="33" y="108" width="1" height="1" fill="rgb(44,131,251)"/><rect x="34" y="108" width="4" height="1" fill="rgb(71,155,251)"/><rect x="38" y="108" width="1" height="1" fill="rgb(44,131,251)"/><rect x="39" y="108" width="1" height="1" fill="rgb(17,114,251)"/><rect x="31" y="108" width="1" height="2" fill="rgb(0,88,243)"/><rect x="40" y="108" width="1" height="2" fill="rgb(0,88,243)"/><rect x="32" y="109" width="2" height="1" fill="rgb(17,114,251)"/><rect x="34" y="109" width="4" height="1" fill="rgb(44,131,251)"/><rect x="38" y="109" width="2" height="1" fill="rgb(17,114,251)"/><rect x="81" y="109" width="4" height="1" fill="rgb(44,131,251)"/><rect x="31" y="110" width="1" height="1" fill="rgb(0,71,228)"/><rect x="32" y="110" width="2" height="1" fill="rgb(0,88,243)"/><rect x="34" y="110" width="4" height="1" fill="rgb(17,114,251)"/><rect x="38" y="110" width="2" height="1" fill="rgb(0,88,243)"/><rect x="40" y="110" width="1" height="1" fill="rgb(0,71,228)"/><rect x="79" y="110" width="2" height="1" fill="rgb(44,131,251)"/><rect x="81" y="110" width="4" height="1" fill="rgb(71,155,251)"/><rect x="85" y="110" width="2" height="1" fill="rgb(44,131,251)"/><rect x="30" y="108" width="1" height="4" fill="rgb(17,114,251)"/><rect x="41" y="108" width="1" height="4" fill="rgb(17,114,251)"/><rect x="31" y="111" width="1" height="1" fill="rgb(0,88,243)"/><rect x="32" y="111" width="1" height="1" fill="rgb(0,71,228)"/><rect x="33" y="111" width="1" height="1" fill="rgb(0,53,212)"/><rect x="34" y="111" width="1" height="1" fill="rgb(0,71,228)"/><rect x="35" y="111" width="2" height="1" fill="rgb(0,88,243)"/><rect x="37" y="111" width="1" height="1" fill="rgb(0,71,228)"/><rect x="38" y="111" width="1" height="1" fill="rgb(0,53,212)"/><rect x="39" y="111" width="1" height="1" fill="rgb(0,71,228)"/><rect x="40" y="111" width="1" height="1" fill="rgb(0,88,243)"/><rect x="78" y="111" width="2" height="1" fill="rgb(44,131,251)"/><rect x="80" y="111" width="1" height="1" fill="rgb(71,155,251)"/><rect x="81" y="111" width="4" height="1" fill="rgb(97,179,251)"/><rect x="85" y="111" width="1" height="1" fill="rgb(71,155,251)"/><rect x="86" y="111" width="2" height="1" fill="rgb(44,131,251)"/><rect x="32" y="112" width="1" height="1" fill="rgb(0,88,243)"/><rect x="33" y="112" width="1" height="1" fill="rgb(0,71,228)"/><rect x="34" y="112" width="1" height="1" fill="rgb(0,53,212)"/><rect x="35" y="112" width="2" height="1" fill="rgb(0,35,187)"/><rect x="37" y="112" width="1" height="1" fill="rgb(0,53,212)"/><rect x="38" y="112" width="1" height="1" fill="rgb(0,71,228)"/><rect x="39" y="112" width="1" height="1" fill="rgb(0,88,243)"/><rect x="78" y="112" width="1" height="1" fill="rgb(44,131,251)"/><rect x="79" y="112" width="8" height="1" fill="rgb(71,155,251)"/><rect x="87" y="112" width="1" height="1" fill="rgb(44,131,251)"/><rect x="31" y="112" width="1" height="2" fill="rgb(17,114,251)"/><rect x="40" y="112" width="1" height="2" fill="rgb(17,114,251)"/><rect x="32" y="113" width="2" height="1" fill="rgb(0,88,243)"/><rect x="34" y="113" width="4" height="1" fill="rgb(0,71,228)"/><rect x="38" y="113" width="2" height="1" fill="rgb(0,88,243)"/><rect x="57" y="113" width="4" height="1" fill="rgb(44,131,251)"/><rect x="79" y="113" width="1" height="1" fill="rgb(17,114,251)"/><rect x="80" y="113" width="1" height="1" fill="rgb(44,131,251)"/><rect x="81" y="113" width="4" height="1" fill="rgb(71,155,251)"/><rect x="85" y="113" width="1" height="1" fill="rgb(44,131,251)"/><rect x="86" y="113" width="1" height="1" fill="rgb(17,114,251)"/><rect x="78" y="113" width="1" height="2" fill="rgb(0,88,243)"/><rect x="87" y="113" width="1" height="2" fill="rgb(0,88,243)"/><rect x="32" y="114" width="1" height="1" fill="rgb(44,131,251)"/><rect x="33" y="114" width="6" height="1" fill="rgb(17,114,251)"/><rect x="39" y="114" width="1" height="1" fill="rgb(44,131,251)"/><rect x="55" y="114" width="2" height="1" fill="rgb(44,131,251)"/><rect x="57" y="114" width="4" height="1" fill="rgb(71,155,251)"/><rect x="61" y="114" width="2" height="1" fill="rgb(44,131,251)"/><rect x="79" y="114" width="2" height="1" fill="rgb(17,114,251)"/><rect x="81" y="114" width="4" height="1" fill="rgb(44,131,251)"/><rect x="85" y="114" width="2" height="1" fill="rgb(17,114,251)"/><rect x="34" y="115" width="4" height="1" fill="rgb(44,131,251)"/><rect x="54" y="115" width="2" height="1" fill="rgb(44,131,251)"/><rect x="56" y="115" width="1" height="1" fill="rgb(71,155,251)"/><rect x="57" y="115" width="4" height="1" fill="rgb(97,179,251)"/><rect x="61" y="115" width="1" height="1" fill="rgb(71,155,251)"/><rect x="62" y="115" width="2" height="1" fill="rgb(44,131,251)"/><rect x="78" y="115" width="1" height="1" fill="rgb(0,71,228)"/><rect x="79" y="115" width="2" height="1" fill="rgb(0,88,243)"/><rect x="81" y="115" width="4" height="1" fill="rgb(17,114,251)"/><rect x="85" y="115" width="2" height="1" fill="rgb(0,88,243)"/><rect x="87" y="115" width="1" height="1" fill="rgb(0,71,228)"/><rect x="77" y="113" width="1" height="4" fill="rgb(17,114,251)"/><rect x="88" y="113" width="1" height="4" fill="rgb(17,114,251)"/><rect x="54" y="116" width="1" height="1" fill="rgb(44,131,251)"/><rect x="55" y="116" width="8" height="1" fill="rgb(71,155,251)"/><rect x="63" y="116" width="1" height="1" fill="rgb(44,131,251)"/><rect x="78" y="116" width="1" height="1" fill="rgb(0,88,243)"/><rect x="79" y="116" width="1" height="1" fill="rgb(0,71,228)"/><rect x="80" y="116" width="1" height="1" fill="rgb(0,53,212)"/><rect x="81" y="116" width="1" height="1" fill="rgb(0,71,228)"/><rect x="82" y="116" width="2" height="1" fill="rgb(0,88,243)"/><rect x="84" y="116" width="1" height="1" fill="rgb(0,71,228)"/><rect x="85" y="116" width="1" height="1" fill="rgb(0,53,212)"/><rect x="86" y="116" width="1" height="1" fill="rgb(0,71,228)"/><rect x="87" y="116" width="1" height="1" fill="rgb(0,88,243)"/><rect x="55" y="117" width="1" height="1" fill="rgb(17,114,251)"/><rect x="56" y="117" width="1" height="1" fill="rgb(44,131,251)"/><rect x="57" y="117" width="4" height="1" fill="rgb(71,155,251)"/><rect x="61" y="117" width="1" height="1" fill="rgb(44,131,251)"/><rect x="62" y="117" width="1" height="1" fill="rgb(17,114,251)"/><rect x="79" y="117" width="1" height="1" fill="rgb(0,88,243)"/><rect x="80" y="117" width="1" height="1" fill="rgb(0,71,228)"/><rect x="81" y="117" width="1" height="1" fill="rgb(0,53,212)"/><rect x="82" y="117" width="2" height="1" fill="rgb(0,35,187)"/><rect x="84" y="117" width="1" height="1" fill="rgb(0,53,212)"/><rect x="85" y="117" width="1" height="1" fill="rgb(0,71,228)"/><rect x="86" y="117" width="1" height="1" fill="rgb(0,88,243)"/><rect x="54" y="117" width="1" height="2" fill="rgb(0,88,243)"/><rect x="63" y="117" width="1" height="2" fill="rgb(0,88,243)"/><rect x="78" y="117" width="1" height="2" fill="rgb(17,114,251)"/><rect x="87" y="117" width="1" height="2" fill="rgb(17,114,251)"/><rect x="55" y="118" width="2" height="1" fill="rgb(17,114,251)"/><rect x="57" y="118" width="4" height="1" fill="rgb(44,131,251)"/><rect x="61" y="118" width="2" height="1" fill="rgb(17,114,251)"/><rect x="79" y="118" width="2" height="1" fill="rgb(0,88,243)"/><rect x="81" y="118" width="4" height="1" fill="rgb(0,71,228)"/><rect x="85" y="118" width="2" height="1" fill="rgb(0,88,243)"/><rect x="54" y="119" width="1" height="1" fill="rgb(0,71,228)"/><rect x="55" y="119" width="2" height="1" fill="rgb(0,88,243)"/><rect x="57" y="119" width="4" height="1" fill="rgb(17,114,251)"/><rect x="61" y="119" width="2" height="1" fill="rgb(0,88,243)"/><rect x="63" y="119" width="1" height="1" fill="rgb(0,71,228)"/><rect x="79" y="119" width="1" height="1" fill="rgb(44,131,251)"/><rect x="80" y="119" width="6" height="1" fill="rgb(17,114,251)"/><rect x="86" y="119" width="1" height="1" fill="rgb(44,131,251)"/><rect x="53" y="117" width="1" height="4" fill="rgb(17,114,251)"/><rect x="64" y="117" width="1" height="4" fill="rgb(17,114,251)"/><rect x="54" y="120" width="1" height="1" fill="rgb(0,88,243)"/><rect x="55" y="120" width="1" height="1" fill="rgb(0,71,228)"/><rect x="56" y="120" width="1" height="1" fill="rgb(0,53,212)"/><rect x="57" y="120" width="1" height="1" fill="rgb(0,71,228)"/><rect x="58" y="120" width="2" height="1" fill="rgb(0,88,243)"/><rect x="60" y="120" width="1" height="1" fill="rgb(0,71,228)"/><rect x="61" y="120" width="1" height="1" fill="rgb(0,53,212)"/><rect x="62" y="120" width="1" height="1" fill="rgb(0,71,228)"/><rect x="63" y="120" width="1" height="1" fill="rgb(0,88,243)"/><rect x="81" y="120" width="4" height="1" fill="rgb(44,131,251)"/><rect x="55" y="121" width="1" height="1" fill="rgb(0,88,243)"/><rect x="56" y="121" width="1" height="1" fill="rgb(0,71,228)"/><rect x="57" y="121" width="1" height="1" fill="rgb(0,53,212)"/><rect x="58" y="121" width="2" height="1" fill="rgb(0,35,187)"/><rect x="60" y="121" width="1" height="1" fill="rgb(0,53,212)"/><rect x="61" y="121" width="1" height="1" fill="rgb(0,71,228)"/><rect x="62" y="121" width="1" height="1" fill="rgb(0,88,243)"/><rect x="54" y="121" width="1" height="2" fill="rgb(17,114,251)"/><rect x="63" y="121" width="1" height="2" fill="rgb(17,114,251)"/><rect x="55" y="122" width="2" height="1" fill="rgb(0,88,243)"/><rect x="57" y="122" width="4" height="1" fill="rgb(0,71,228)"/><rect x="61" y="122" width="2" height="1" fill="rgb(0,88,243)"/><rect x="55" y="123" width="1" height="1" fill="rgb(44,131,251)"/><rect x="56" y="123" width="6" height="1" fill="rgb(17,114,251)"/><rect x="62" y="123" width="1" height="1" fill="rgb(44,131,251)"/><rect x="57" y="124" width="4" height="1" fill="rgb(44,131,251)"/></svg>