<svg xmlns="http://www.w3.org/2000/svg" width="128" height="144" viewBox="0 0 128 144"><rect x="59" y="23" width="2" height="2" fill="rgb(44,131,251)"/><rect x="58" y="24" width="1" height="1" fill="rgb(0,71,228)"/><rect x="61" y="24" width="1" height="1" fill="rgb(0,71,228)"/><rect x="58" y="25" width="1" height="1" fill="rgb(0,88,243)"/><rect x="59" y="25" width="2" height="1" fill="rgb(0,71,228)"/><rect x="61" y="25" width="1" height="1" fill="rgb(0,88,243)"/><rect x="59" y="26" width="2" height="1" fill="rgb(17,114,251)"/><rect x="82" y="26" width="4" height="1" fill="rgb(44,131,251)"/><rect x="81" y="27" width="2" height="1" fill="rgb(44,131,251)"/><rect x="83" y="27" width="2" height="1" fill="rgb(71,155,251)"/><rect x="85" y="27" width="2" height="1" fill="rgb(44,131,251)"/><rect x="81" y="28" width="2" height="1" fill="rgb(17,114,251)"/><rect x="83" y="28" width="2" height="1" fill="rgb(44,131,251)"/><rect x="85" y="28" width="2" height="1" fill="rgb(17,114,251)"/><rect x="81" y="29" width="1" height="1" fill="rgb(0,71,228)"/><rect x="82" y="29" width="4" height="1" fill="rgb(17,114,251)"/><rect x="86" y="29" width="1" height="1" fill="rgb(0,71,228)"/><rect x="81" y="30" width="1" height="1" fill="rgb(17,114,251)"/><rect x="82" y="30" width="1" height="1" fill="rgb(0,71,228)"/><rect x="83" y="30" width="2" height="1" fill="rgb(0,53,212)"/><rect x="85" y="30" width="1" height="1" fill="rgb(0,71,228)"/><rect x="86" y="30" width="1" height="1" fill="rgb(17,114,251)"/><rect x="82" y="31" width="1" height="1" fill="rgb(17,114,251)"/><rect x="83" y="31" width="2" height="1" fill="rgb(0,71,228)"/><rect x="85" y="31" width="1" height="1" fill="rgb(17,114,251)"/><rect x="101" y="41" width="4" height="1" fill="rgb(44,131,251)"/><rect x="100" y="42" width="1" height="1" fill="rgb(44,131,251)"/><rect x="101" y="42" width="1" height="1" fill="rgb(71,155,251)"/><rect x="102" y="42" width="2" height="1" fill="rgb(97,179,251)"/><rect x="104" y="42" width="1" height="1" fill="rgb(71,155,251)"/><rect x="105" y="42" width="1" height="1" fill="rgb(44,131,251)"/><rect x="99" y="43" width="2" height="1" fill="rgb(17,114,251)"/><rect x="101" y="43" width="1" height="1" fill="rgb(44,131,251)"/><rect x="102" y="43" width="2" height="1" fill="rgb(71,155,251)"/><rect x="104" y="43" width="1" height="1" fill="rgb(44,131,251)"/><rect x="105" y="43" width="2" height="1" fill="rgb(17,114,251)"/><rect x="100" y="44" width="2" height="1" fill="rgb(17,114,251)"/><rect x="102" y="44" width="2" height="1" fill="rgb(44,131,251)"/><rect x="104" y="44" width="2" height="1" fill="rgb(17,114,251)"/><rect x="99" y="44" width="1" height="2" fill="rgb(0,88,243)"/><rect x="106" y="44" width="1" height="2" fill="rgb(0,88,243)"/><rect x="100" y="45" width="1" height="1" fill="rgb(0,71,228)"/><rect x="101" y="45" width="4" height="1" fill="rgb(17,114,251)"/><rect x="105" y="45" width="1" height="1" fill="rgb(0,71,228)"/><rect x="99" y="46" width="1" height="1" fill="rgb(17,114,251)"/><rect x="100" y="46" width="1" height="1" fill="rgb(0,88,243)"/><rect x="101" y="46" width="1" height="1" fill="rgb(0,71,228)"/><rect x="102" y="46" width="2" height="1" fill="rgb(0,53,212)"/><rect x="104" y="46" width="1" height="1" fill="rgb(0,71,228)"/><rect x="105" y="46" width="1" height="1" fill="rgb(0,88,243)"/><rect x="106" y="46" width="1" height="1" fill="rgb(17,114,251)"/><rect x="100" y="47" width="1" height="1" fill="rgb(44,131,251)"/><rect x="101" y="47" width="1" height="1" fill="rgb(0,88,243)"/><rect x="102" y="47" width="2" height="1" fill="rgb(0,71,228)"/><rect x="104" y="47" width="1" height="1" fill="rgb(0,88,243)"/><rect x="105" y="47" width="1" height="1" fill="rgb(44,131,251)"/><rect x="101" y="48" width="4" height="1" fill="rgb(44,131,251)"/><rect x="19" y="49" width="4" height="1" fill="rgb(44,131,251)"/><rect x="18" y="50" width="2" height="1" fill="rgb(44,131,251)"/><rect x="20" y="50" width="2" height="1" fill="rgb(71,155,251)"/><rect x="22" y="50" width="2" height="1" fill="rgb(44,131,251)"/><rect x="18" y="51" width="2" height="1" fill="rgb(17,114,251)"/><rect x="20" y="51" width="2" height="1" fill="rgb(44,131,251)"/><rect x="22" y="51" width="2" height="1" fill="rgb(17,114,251)"/><rect x="18" y="52" width="1" height="1" fill="rgb(0,71,228)"/><rect x="19" y="52" width="4" height="1" fill="rgb(17,114,251)"/><rect x="23" y="52" width="1" height="1" fill="rgb(0,71,228)"/><rect x="18" y="53" width="1" height="1" fill="rgb(17,114,251)"/><rect x="19" y="53" width="1" height="1" fill="rgb(0,71,228)"/><rect x="20" y="53" width="2" height="1" fill="rgb(0,53,212)"/><rect x="22" y="53" width="1" height="1" fill="rgb(0,71,228)"/><rect x="23" y="53" width="1" height="1" fill="rgb(17,114,251)"/><rect x="19" y="54" width="1" height="1" fill="rgb(17,114,251)"/><rect x="20" y="54" width="2" height="1" fill="rgb(0,71,228)"/><rect x="22" y="54" width="1" height="1" fill="rgb(17,114,251)"/><rect x="109" y="63" width="4" height="1" fill="rgb(44,131,251)"/><rect x="107" y="64" width="2" height="1" fill="rgb(44,131,251)"/><rect x="109" y="64" width="1" height="1" fill="rgb(71,155,251)"/><rect x="110" y="64" width="2" height="1" fill="rgb(97,179,251)"/><rect x="112" y="64" width="1" height="1" fill="rgb(71,155,251)"/><rect x="113" y="64" width="2" height="1" fill="rgb(44,131,251)"/><rect x="107" y="65" width="1" height="1" fill="rgb(44,131,251)"/><rect x="108" y="65" width="6" height="1" fill="rgb(71,155,251)"/><rect x="114" y="65" width="1" height="1" fill="rgb(44,131,251)"/><rect x="106" y="66" width="1" height="1" fill="rgb(0,88,243)"/><rect x="107" y="66" width="1" height="1" fill="rgb(17,114,251)"/><rect x="108" y="66" width="1" height="1" fill="rgb(44,131,251)"/><rect x="109" y="66" width="4" height="1" fill="rgb(71,155,251)"/><rect x="113" y="66" width="1" height="1" fill="rgb(44,131,251)"/><rect x="114" y="66" width="1" height="1" fill="rgb(17,114,251)"/><rect x="115" y="66" width="1" height="1" fill="rgb(0,88,243)"/><rect x="106" y="67" width="1" height="1" fill="rgb(0,71,228)"/><rect x="107" y="67" width="2" height="1" fill="rgb(17,114,251)"/><rect x="109" y="67" width="4" height="1" fill="rgb(44,131,251)"/><rect x="113" y="67" width="2" height="1" fill="rgb(17,114,251)"/><rect x="115" y="67" width="1" height="1" fill="rgb(0,71,228)"/><rect x="107" y="68" width="1" height="1" fill="rgb(0,71,228)"/><rect x="108" y="68" width="1" height="1" fill="rgb(0,88,243)"/><rect x="109" y="68" width="4" height="1" fill="rgb(17,114,251)"/><rect x="113" y="68" width="1" height="1" fill="rgb(0,88,243)"/><rect x="114" y="68" width="1" height="1" fill="rgb(0,71,228)"/><rect x="106" y="68" width="1" height="2" fill="rgb(0,88,243)"/><rect x="115" y="68" width="1" height="2" fill="rgb(0,88,243)"/><rect x="107" y="69" width="2" height="1" fill="rgb(0,71,228)"/><rect x="109" y="69" width="4" height="1" fill="rgb(0,53,212)"/><rect x="113" y="69" width="2" height="1" fill="rgb(0,71,228)"/><rect x="107" y="70" width="1" height="1" fill="rgb(0,88,243)"/><rect x="108" y="70" width="6" height="1" fill="rgb(0,71,228)"/><rect x="114" y="70" width="1" height="1" fill="rgb(0,88,243)"/><rect x="107" y="71" width="2" height="1" fill="rgb(44,131,251)"/><rect x="109" y="71" width="4" height="1" fill="rgb(0,88,243)"/><rect x="113" y="71" width="2" height="1" fill="rgb(44,131,251)"/><rect x="15" y="72" width="4" height="1" fill="rgb(44,131,251)"/><rect x="109" y="72" width="4" height="1" fill="rgb(44,131,251)"/><rect x="14" y="73" width="1" height="1" fill="rgb(44,131,251)"/><rect x="15" y="73" width="1" height="1" fill="rgb(71,155,251)"/><rect x="16" y="73" width="2" height="1" fill="rgb(97,179,251)"/><rect x="18" y="73" width="1" height="1" fill="rgb(71,155,251)"/><rect x="19" y="73" width="1" height="1" fill="rgb(44,131,251)"/><rect x="13" y="74" width="2" height="1" fill="rgb(17,114,251)"/><rect x="15" y="74" width="1" height="1" fill="rgb(44,131,251)"/><rect x="16" y="74" width="2" height="1" fill="rgb(71,155,251)"/><rect x="18" y="74" width="1" height="1" fill="rgb(44,131,251)"/><rect x="19" y="74" width="2" height="1" fill="rgb(17,114,251)"/><rect x="14" y="75" width="2" height="1" fill="rgb(17,114,251)"/><rect x="16" y="75" width="2" height="1" fill="rgb(44,131,251)"/><rect x="18" y="75" width="2" height="1" fill="rgb(17,114,251)"/><rect x="13" y="75" width="1" height="2" fill="rgb(0,88,243)"/><rect x="20" y="75" width="1" height="2" fill="rgb(0,88,243)"/><rect x="14" y="76" width="1" height="1" fill="rgb(0,71,228)"/><rect x="15" y="76" width="4" height="1" fill="rgb(17,114,251)"/><rect x="19" y="76" width="1" height="1" fill="rgb(0,71,228)"/><rect x="13" y="77" width="1" height="1" fill="rgb(17,114,251)"/><rect x="14" y="77" width="1" height="1" fill="rgb(0,88,243)"/><rect x="15" y="77" width="1" height="1" fill="rgb(0,71,228)"/><rect x="16" y="77" width="2" height="1" fill="rgb(0,53,212)"/><rect x="18" y="77" width="1" height="1" fill="rgb(0,71,228)"/><rect x="19" y="77" width="1" height="1" fill="rgb(0,88,243)"/><rect x="20" y="77" width="1" height="1" fill="rgb(17,114,251)"/><rect x="14" y="78" width="1" height="1" fill="rgb(44,131,251)"/><rect x="15" y="78" width="1" height="1" fill="rgb(0,88,243)"/><rect x="16" y="78" width="2" height="1" fill="rgb(0,71,228)"/><rect x="18" y="78" width="1" height="1" fill="rgb(0,88,243)"/><rect x="19" y="78" width="1" height="1" fill="rgb(44,131,251)"/><rect x="15" y="79" width="4" height="1" fill="rgb(44,131,251)"/><rect x="105" y="87" width="4" height="1" fill="rgb(44,131,251)"/><rect x="103" y="88" width="2" height="1" fill="rgb(44,131,251)"/><rect x="105" y="88" width="1" height="1" fill="rgb(71,155,251)"/><rect x="106" y="88" width="2" height="1" fill="rgb(97,179,251)"/><rect x="108" y="88" width="1" height="1" fill="rgb(71,155,251)"/><rect x="109" y="88" width="2" height="1" fill="rgb(44,131,251)"/><rect x="103" y="89" width="1" height="1" fill="rgb(44,131,251)"/><rect x="104" y="89" width="6" height="1" fill="rgb(71,155,251)"/><rect x="110" y="89" width="1" height="1" fill="rgb(44,131,251)"/><rect x="102" y="90" width="1" height="1" fill="rgb(0,88,243)"/><rect x="103" y="90" width="1" height="1" fill="rgb(17,114,251)"/><rect x="104" y="90" width="1" height="1" fill="rgb(44,131,251)"/><rect x="105" y="90" width="4" height="1" fill="rgb(71,155,251)"/><rect x="109" y="90" width="1" height="1" fill="rgb(44,131,251)"/><rect x="110" y="90" width="1" height="1" fill="rgb(17,114,251)"/><rect x="111" y="90" width="1" height="1" fill="rgb(0,88,243)"/><rect x="102" y="91" width="1" height="1" fill="rgb(0,71,228)"/><rect x="103" y="91" width="2" height="1" fill="rgb(17,114,251)"/><rect x="105" y="91" width="4" height="1" fill="rgb(44,131,251)"/><rect x="109" y="91" width="2" height="1" fill="rgb(17,114,251)"/><rect x="111" y="91" width="1" height="1" fill="rgb(0,71,228)"/><rect x="103" y="92" width="1" height="1" fill="rgb(0,71,228)"/><rect x="104" y="92" width="1" height="1" fill="rgb(0,88,243)"/><rect x="105" y="92" width="4" height="1" fill="rgb(17,114,251)"/><rect x="109" y="92" width="1" height="1" fill="rgb(0,88,243)"/><rect x="110" y="92" width="1" height="1" fill="rgb(0,71,228)"/><rect x="102" y="92" width="1" height="2" fill="rgb(0,88,243)"/><rect x="111" y="92" width="1" height="2" fill="rgb(0,88,243)"/><rect x="103" y="93" width="2" height="1" fill="rgb(0,71,228)"/><rect x="105" y="93" width="4" height="1" fill="rgb(0,53,212)"/><rect x="109" y="93" width="2" height="1" fill="rgb(0,71,228)"/><rect x="23" y="94" width="4" height="1" fill="rgb(44,131,251)"/><rect x="103" y="94" width="1" height="1" fill="rgb(0,88,243)"/><rect x="104" y="94" width="6" height="1" fill="rgb(0,71,228)"/><rect x="110" y="94" width="1" height="1" fill="rgb(0,88,243)"/><rect x="21" y="95" width="2" height="1" fill="rgb(44,131,251)"/><rect x="23" y="95" width="1" height="1" fill="rgb(71,155,251)"/><rect x="24" y="95" width="2" height="1" fill="rgb(97,179,251)"/><rect x="26" y="95" width="1" height="1" fill="rgb(71,155,251)"/><rect x="27" y="95" width="2" height="1" fill="rgb(44,131,251)"/><rect x="103" y="95" width="2" height="1" fill="rgb(44,131,251)"/><rect x="105" y="95" width="4" height="1" fill="rgb(0,88,243)"/><rect x="109" y="95" width="2" height="1" fill="rgb(44,131,251)"/><rect x="21" y="96" width="1" height="1" fill="rgb(44,131,251)"/><rect x="22" y="96" width="6" height="1" fill="rgb(71,155,251)"/><rect x="28" y="96" width="1" height="1" fill="rgb(44,131,251)"/><rect x="105" y="96" width="4" height="1" fill="rgb(44,131,251)"/><rect x="20" y="97" width="1" height="1" fill="rgb(0,88,243)"/><rect x="21" y="97" width="1" height="1" fill="rgb(17,114,251)"/><rect x="22" y="97" width="1" height="1" fill="rgb(44,131,251)"/><rect x="23" y="97" width="4" height="1" fill="rgb(71,155,251)"/><rect x="27" y="97" width="1" height="1" fill="rgb(44,131,251)"/><rect x="28" y="97" width="1" height="1" fill="rgb(17,114,251)"/><rect x="29" y="97" width="1" height="1" fill="rgb(0,88,243)"/><rect x="20" y="98" width="1" height="1" fill="rgb(0,71,228)"/><rect x="21" y="98" width="2" height="1" fill="rgb(17,114,251)"/><rect x="23" y="98" width="4" height="1" fill="rgb(44,131,251)"/><rect x="27" y="98" width="2" height="1" fill="rgb(17,114,251)"/><rect x="29" y="98" width="1" height="1" fill="rgb(0,71,228)"/><rect x="21" y="99" width="1" height="1" fill="rgb(0,71,228)"/><rect x="22" y="99" width="1" height="1" fill="rgb(0,88,243)"/><rect x="23" y="99" width="4" height="1" fill="rgb(17,114,251)"/><rect x="27" y="99" width="1" height="1" fill="rgb(0,88,243)"/><rect x="28" y="99" width="1" height="1" fill="rgb(0,71,228)"/><rect x="20" y="99" width="1" height="2" fill="rgb(0,88,243)"/><rect x="29" y="99" width="1" height="2" fill="rgb(0,88,243)"/><rect x="21" y="100" width="2" height="1" fill="rgb(0,71,228)"/><rect x="23" y="100" width="4" height="1" fill="rgb(0,53,212)"/><rect x="27" y="100" width="2" height="1" fill="rgb(0,71,228)"/><rect x="21" y="101" width="1" height="1" fill="rgb(0,88,243)"/><rect x="22" y="101" width="6" height="1" fill="rgb(0,71,228)"/><rect x="28" y="101" width="1" height="1" fill="rgb(0,88,243)"/><rect x="21" y="102" width="2" height="1" fill="rgb(44,131,251)"/><rect x="23" y="102" width="4" height="1" fill="rgb(0,88,243)"/><rect x="27" y="102" width="2" height="1" fill="rgb(44,131,251)"/><rect x="23" y="103" width="4" height="1" fill="rgb(44,131,251)"/><rect x="89" y="105" width="4" height="1" fill="rgb(44,131,251)"/><rect x="87" y="106" width="2" height="1" fill="rgb(44,131,251)"/><rect x="89" y="106" width="4" height="1" fill="rgb(71,155,251)"/><rect x="93" y="106" width="2" height="1" fill="rgb(44,131,251)"/><rect x="86" y="107" width="2" height="1" fill="rgb(44,131,251)"/><rect x="88" y="107" width="1" height="1" fill="rgb(71,155,251)"/><rect x="89" y="107" width="4" height="1" fill="rgb(97,179,251)"/><rect x="93" y="107" width="1" height="1" fill="rgb(71,155,251)"/><rect x="94" y="107" width="2" height="1" fill="rgb(44,131,251)"/><rect x="86" y="108" width="1" height="1" fill="rgb(44,131,251)"/><rect x="87" y="108" width="8" height="1" fill="rgb(71,155,251)"/><rect x="95" y="108" width="1" height="1" fill="rgb(44,131,251)"/><rect x="87" y="109" width="1" height="1" fill="rgb(17,114,251)"/><rect x="88" y="109" width="1" height="1" fill="rgb(44,131,251)"/><rect x="89" y="109" width="4" height="1" fill="rgb(71,155,251)"/><rect x="93" y="109" width="1" height="1" fill="rgb(44,131,251)"/><rect x="94" y="109" width="1" height="1" fill="rgb(17,114,251)"/><rect x="86" y="109" width="1" height="2" fill="rgb(0,88,243)"/><rect x="95" y="109" width="1" height="2" fill="rgb(0,88,243)"/><rect x="42" y="110" width="4" height="1" fill="rgb(44,131,251)"/><rect x="87" y="110" width="2" height="1" fill="rgb(17,114,251)"/><rect x="89" y="110" width="4" height="1" fill="rgb(44,131,251)"/><rect x="93" y="110" width="2" height="1" fill="rgb(17,114,251)"/><rect x="40" y="111" width="2" height="1" fill="rgb(44,131,251)"/><rect x="42" y="111" width="1" height="1" fill="rgb(71,155,251)"/><rect x="43" y="111" width="2" height="1" fill="rgb(97,179,251)"/><rect x="45" y="111" width="1" height="1" fill="rgb(71,155,251)"/><rect x="46" y="111" width="2" height="1" fill="rgb(44,131,251)"/><rect x="86" y="111" width="1" height="1" fill="rgb(0,71,228)"/><rect x="87" y="111" width="2" height="1" fill="rgb(0,88,243)"/><rect x="89" y="111" width="4" height="1" fill="rgb(17,114,251)"/><rect x="93" y="111" width="2" height="1" fill="rgb(0,88,243)"/><rect x="95" y="111" width="1" height="1" fill="rgb(0,71,228)"/><rect x="85" y="109" width="1" height="4" fill="rgb(17,114,251)"/><rect x="96" y="109" width="1" height="4" fill="rgb(17,114,251)"/><rect x="40" y="112" width="1" height="1" fill="rgb(44,131,251)"/><rect x="41" y="112" width="6" height="1" fill="rgb(71,155,251)"/><rect x="47" y="112" width="1" height="1" fill="rgb(44,131,251)"/><rect x="86" y="112" width="1" height="1" fill="rgb(0,88,243)"/><rect x="87" y="112" width="1" height="1" fill="rgb(0,71,228)"/><rect x="88" y="112" width="1" height="1" fill="rgb(0,53,212)"/><rect x="89" y="112" width="1" height="1" fill="rgb(0,71,228)"/><rect x="90" y="112" width="2" height="1" fill="rgb(0,88,243)"/><rect x="92" y="112" width="1" height="1" fill="rgb(0,71,228)"/><rect x="93" y="112" width="1" height="1" fill="rgb(0,53,212)"/><rect x="94" y="112" width="1" height="1" fill="rgb(0,71,228)"/><rect x="95" y="112" width="1" height="1" fill="rgb(0,88,243)"/><rect x="39" y="113" width="1" height="1" fill="rgb(0,88,243)"/><rect x="40" y="113" width="1" height="1" fill="rgb(17,114,251)"/><rect x="41" y="113" width="1" height="1" fill="rgb(44,131,251)"/><rect x="42" y="113" width="4" height="1" fill="rgb(71,155,251)"/><rect x="46" y="113" width="1" height="1" fill="rgb(44,131,251)"/><rect x="47" y="113" width="1" height="1" fill="rgb(17,114,251)"/><rect x="48" y="113" width="1" height="1" fill="rgb(0,88,243)"/><rect x="66" y="113" width="4" height="1" fill="rgb(44,131,251)"/><rect x="87" y="113" width="1" height="1" fill="rgb(0,88,243)"/><rect x="88" y="113" width="1" height="1" fill="rgb(0,71,228)"/><rect x="89" y="113" width="1" height="1" fill="rgb(0,53,212)"/><rect x="90" y="113" width="2" height="1" fill="rgb(0,35,187)"/><rect x="92" y="113" width="1" height="1" fill="rgb(0,53,212)"/><rect x="93" y="113" width="1" height="1" fill="rgb(0,71,228)"/><rect x="94" y="113" width="1" height="1" fill="rgb(0,88,243)"/><rect x="86" y="113" width="1" height="2" fill="rgb(17,114,251)"/><rect x="95" y="113" width="1" height="2" fill="rgb(17,114,251)"/><rect x="39" y="114" width="1" height="1" fill="rgb(0,71,228)"/><rect x="40" y="114" width="2" height="1" fill="rgb(17,114,251)"/><rect x="42" y="114" width="4" height="1" fill="rgb(44,131,251)"/><rect x="46" y="114" width="2" height="1" fill="rgb(17,114,251)"/><rect x="48" y="114" width="1" height="1" fill="rgb(0,71,228)"/><rect x="64" y="114" width="2" height="1" fill="rgb(44,131,251)"/><rect x="66" y="114" width="4" height="1" fill="rgb(71,155,251)"/><rect x="70" y="114" width="2" height="1" fill="rgb(44,131,251)"/><rect x="87" y="114" width="2" height="1" fill="rgb(0,88,243)"/><rect x="89" y="114" width="4" height="1" fill="rgb(0,71,228)"/><rect x="93" y="114" width="2" height="1" fill="rgb(0,88,243)"/><rect x="40" y="115" width="1" height="1" fill="rgb(0,71,228)"/><rect x="41" y="115" width="1" height="1" fill="rgb(0,88,243)"/><rect x="42" y="115" width="4" height="1" fill="rgb(17,114,251)"/><rect x="46" y="115" width="1" height="1" fill="rgb(0,88,243)"/><rect x="47" y="115" width="1" height="1" fill="rgb(0,71,228)"/><rect x="63" y="115" width="2" height="1" fill="rgb(44,131,251)"/><rect x="65" y="115" width="1" height="1" fill="rgb(71,155,251)"/><rect x="66" y="115" width="4" height="1" fill="rgb(97,179,251)"/><rect x="70" y="115" width="1" height="1" fill="rgb(71,155,251)"/><rect x="71" y="115" width="2" height="1" fill="rgb(44,131,251)"/><rect x="87" y="115" width="1" height="1" fill="rgb(44,131,251)"/><rect x="88" y="115" width="6" height="1" fill="rgb(17,114,251)"/><rect x="94" y="115" width="1" height="1" fill="rgb(44,131,251)"/><rect x="39" y="115" width="1" height="2" fill="rgb(0,88,243)"/><rect x="48" y="115" width="1" height="2" fill="rgb(0,88,243)"/><rect x="40" y="116" width="2" height="1" fill="rgb(0,71,228)"/><rect x="42" y="116" width="4" height="1" fill="rgb(0,53,212)"/><rect x="46" y="116" width="2" height="1" fill="rgb(0,71,228)"/><rect x="63" y="116" width="1" height="1" fill="rgb(44,131,251)"/><rect x="64" y="116" width="8" height="1" fill="rgb(71,155,251)"/><rect x="72" y="116" width="1" height="1" fill="rgb(44,131,251)"/><rect x="89" y="116" width="4" height="1" fill="rgb(44,131,251)"/><rect x="40" y="117" width="1" height="1" fill="rgb(0,88,243)"/><rect x="41" y="117" width="6" height="1" fill="rgb(0,71,228)"/><rect x="47" y="117" width="1" height="1" fill="rgb(0,88,243)"/><rect x="64" y="117" width="1" height="1" fill="rgb(17,114,251)"/><rect x="65" y="117" width="1" height="1" fill="rgb(44,131,251)"/><rect x="66" y="117" width="4" height="1" fill="rgb(71,155,251)"/><rect x="70" y="117" width="1" height="1" fill="rgb(44,131,251)"/><rect x="71" y="117" width="1" height="1" fill="rgb(17,114,251)"/><rect x="63" y="117" width="1" height="2" fill="rgb(0,88,243)"/><rect x="72" y="117" width="1" height="2" fill="rgb(0,88,243)"/><rect x="40" y="118" width="2" height="1" fill="rgb(44,131,251)"/><rect x="42" y="118" width="4" height="1" fill="rgb(0,88,243)"/><rect x="46" y="118" width="2" height="1" fill="rgb(44,131,251)"/><rect x="64" y="118" width="2" height="1" fill="rgb(17,114,251)"/><rect x="66" y="118" width="4" height="1" fill="rgb(44,131,251)"/><rect x="70" y="118" width="2" height="1" fill="rgb(17,114,251)"/><rect x="42" y="119" width="4" height="1" fill="rgb(44,131,251)"/><rect x="63" y="119" width="1" height="1" fill="rgb(0,71,228)"/><rect x="64" y="119" width="2" height="1" fill="rgb(0,88,243)"/><rect x="66" y="119" width="4" height="1" fill="rgb(17,114,251)"/><rect x="70" y="119" width="2" height="1" fill="rgb(0,88,243)"/><rect x="72" y="119" width="1" height="1" fill="rgb(0,71,228)"/><rect x="62" y="117" width="1" height="4" fill="rgb(17,114,251)"/><rect x="73" y="117" width="1" height="4" fill="rgb(17,114,251)"/><rect x="63" y="120" width="1" height="1" fill="rgb(0,88,243)"/><rect x="64" y="120" width="1" height="1" fill="rgb(0,71,228)"/><rect x="65" y="120" width="1" height="1" fill="rgb(0,53,212)"/><rect x="66" y="120" width="1" height="1" fill="rgb(0,71,228)"/><rect x="67" y="120" width="2" height="1" fill="rgb(0,88,243)"/><rect x="69" y="120" width="1" height="1" fill="rgb(0,71,228)"/><rect x="70" y="120" width="1" height="1" fill="rgb(0,53,212)"/><rect x="71" y="120" width="1" height="1" fill="rgb(0,71,228)"/><rect x="72" y="120" width="1" height="1" fill="rgb(0,88,243)"/><rect x="64" y="121" width="1" height="1" fill="rgb(0,88,243)"/><rect x="65" y="121" width="1" height="1" fill="rgb(0,71,228)"/><rect x="66" y="121" width="1" height="1" fill="rgb(0,53,212)"/><rect x="67" y="121" width="2" height="1" fill="rgb(0,35,187)"/><rect x="69" y="121" width="1" height="1" fill="rgb(0,53,212)"/><rect x="70" y="121" width="1" height="1" fill="rgb(0,71,228)"/><rect x="71" y="121" width="1" height="1" fill="rgb(0,88,243)"/><rect x="63" y="121" width="1" height="2" fill="rgb(17,114,251)"/><rect x="72" y="121" width="1" height="2" fill="rgb(17,114,251)"/><rect x="64" y="122" width="2" height="1" fill="rgb(0,88,243)"/><rect x="66" y="122" width="4" height="1" fill="rgb(0,71,228)"/><rect x="70" y="122" width="2" height="1" fill="rgb(0,88,243)"/><rect x="64" y="123" width="1" height="1" fill="rgb(44,131,251)"/><rect x="65" y="123" width="6" height="1" fill="rgb(17,114,251)"/><rect x="71" y="123" width="1" height="1" fill="rgb(44,131,251)"/><rect x="66" y="124" width="4" height="1" fill="rgb(44,131,251)"/></svg>