<svg xmlns="http://www.w3.org/2000/svg" width="32" height="32" viewBox="0 0 32 32"><rect x="6" y="5" width="17" height="1" fill="rgb(71,155,251)"/><rect x="7" y="6" width="15" height="1" fill="rgb(97,179,251)"/><rect x="22" y="6" width="1" height="1" fill="rgb(71,155,251)"/><rect x="23" y="6" width="1" height="1" fill="rgb(44,131,251)"/><rect x="7" y="7" width="1" height="1" fill="rgb(97,179,251)"/><rect x="8" y="7" width="14" height="1" fill="rgb(122,204,251)"/><rect x="22" y="7" width="1" height="1" fill="rgb(97,179,251)"/><rect x="23" y="7" width="1" height="1" fill="rgb(71,155,251)"/><rect x="6" y="6" width="1" height="3" fill="rgb(71,155,251)"/><rect x="7" y="8" width="15" height="1" fill="rgb(97,179,251)"/><rect x="22" y="8" width="1" height="1" fill="rgb(122,204,251)"/><rect x="23" y="8" width="1" height="1" fill="rgb(97,179,251)"/><rect x="6" y="9" width="1" height="1" fill="rgb(44,131,251)"/><rect x="7" y="9" width="15" height="1" fill="rgb(71,155,251)"/><rect x="22" y="9" width="2" height="1" fill="rgb(97,179,251)"/><rect x="7" y="10" width="15" height="1" fill="rgb(44,131,251)"/><rect x="22" y="10" width="2" height="1" fill="rgb(71,155,251)"/><rect x="24" y="7" width="1" height="5" fill="rgb(44,131,251)"/><rect x="6" y="10" width="1" height="2" fill="rgb(17,114,251)"/><rect x="7" y="11" width="4" height="1" fill="rgb(44,131,251)"/><rect x="11" y="11" width="1" height="1" fill="rgb(251,251,251)"/><rect x="12" y="11" width="1" height="1" fill="rgb(122,204,251)"/><rect x="13" y="11" width="10" height="1" fill="rgb(44,131,251)"/><rect x="23" y="11" width="1" height="1" fill="rgb(71,155,251)"/><rect x="11" y="12" width="3" height="1" fill="rgb(251,251,251)"/><rect x="14" y="12" width="1" height="1" fill="rgb(122,204,251)"/><rect x="15" y="12" width="8" height="1" fill="rgb(17,114,251)"/><rect x="11" y="13" width="5" height="1" fill="rgb(251,251,251)"/><rect x="16" y="13" width="1" height="1" fill="rgb(122,204,251)"/><rect x="17" y="13" width="6" height="1" fill="rgb(17,114,251)"/><rect x="6" y="12" width="1" height="3" fill="rgb(0,88,243)"/><rect x="7" y="12" width="4" height="3" fill="rgb(17,114,251)"/><rect x="23" y="12" width="1" height="3" fill="rgb(44,131,251)"/><rect x="24" y="12" width="1" height="3" fill="rgb(17,114,251)"/><rect x="11" y="14" width="7" height="1" fill="rgb(251,251,251)"/><rect x="18" y="14" width="1" height="1" fill="rgb(122,204,251)"/><rect x="19" y="14" width="4" height="1" fill="rgb(17,114,251)"/><rect x="6" y="15" width="5" height="1" fill="rgb(0,88,243)"/><rect x="11" y="15" width="9" height="1" fill="rgb(251,251,251)"/><rect x="20" y="15" width="1" height="1" fill="rgb(122,204,251)"/><rect x="21" y="15" width="2" height="1" fill="rgb(0,88,243)"/><rect x="24" y="15" width="1" height="1" fill="rgb(0,88,243)"/><rect x="23" y="15" width="1" height="2" fill="rgb(17,114,251)"/><rect x="11" y="16" width="7" height="1" fill="rgb(147,220,251)"/><rect x="18" y="16" width="1" height="1" fill="rgb(122,204,251)"/><rect x="19" y="16" width="1" height="1" fill="rgb(0,71,228)"/><rect x="20" y="16" width="3" height="1" fill="rgb(0,53,212)"/><rect x="11" y="17" width="5" height="1" fill="rgb(147,220,251)"/><rect x="16" y="17" width="1" height="1" fill="rgb(122,204,251)"/><rect x="17" y="17" width="1" height="1" fill="rgb(0,71,228)"/><rect x="18" y="17" width="5" height="1" fill="rgb(0,53,212)"/><rect x="24" y="16" width="1" height="3" fill="rgb(0,71,228)"/><rect x="23" y="17" width="1" height="2" fill="rgb(0,88,243)"/><rect x="11" y="18" width="3" height="1" fill="rgb(147,220,251)"/><rect x="14" y="18" width="1" height="1" fill="rgb(122,204,251)"/><rect x="15" y="18" width="1" height="1" fill="rgb(0,71,228)"/><rect x="16" y="18" width="7" height="1" fill="rgb(0,53,212)"/><rect x="7" y="16" width="4" height="4" fill="rgb(0,53,212)"/><rect x="11" y="19" width="1" height="1" fill="rgb(147,220,251)"/><rect x="12" y="19" width="1" height="1" fill="rgb(122,204,251)"/><rect x="13" y="19" width="1" height="1" fill="rgb(0,71,228)"/><rect x="14" y="19" width="9" height="1" fill="rgb(0,53,212)"/><rect x="23" y="19" width="2" height="2" fill="rgb(0,71,228)"/><rect x="7" y="20" width="16" height="1" fill="rgb(0,53,212)"/><rect x="7" y="21" width="17" height="1" fill="rgb(0,71,228)"/><rect x="24" y="21" width="1" height="1" fill="rgb(17,114,251)"/><rect x="6" y="16" width="1" height="7" fill="rgb(0,88,243)"/><rect x="7" y="22" width="16" height="1" fill="rgb(0,71,228)"/><rect x="23" y="22" width="2" height="2" fill="rgb(17,114,251)"/><rect x="6" y="23" width="17" height="1" fill="rgb(0,88,243)"/><rect x="6" y="24" width="17" height="1" fill="rgb(17,114,251)"/><rect x="23" y="24" width="1" height="1" fill="rgb(0,88,243)"/><rect x="6" y="25" width="2" height="1" fill="rgb(17,114,251)"/><rect x="8" y="25" width="15" height="1" fill="rgb(44,131,251)"/></svg>