<svg xmlns="http://www.w3.org/2000/svg" width="128" height="144" viewBox="0 0 128 144"><rect x="109" y="62" width="4" height="1" fill="rgb(44,131,251)"/><rect x="108" y="63" width="2" height="1" fill="rgb(44,131,251)"/><rect x="110" y="63" width="2" height="1" fill="rgb(71,155,251)"/><rect x="112" y="63" width="2" height="1" fill="rgb(44,131,251)"/><rect x="108" y="64" width="2" height="1" fill="rgb(17,114,251)"/><rect x="110" y="64" width="2" height="1" fill="rgb(44,131,251)"/><rect x="112" y="64" width="2" height="1" fill="rgb(17,114,251)"/><rect x="108" y="65" width="1" height="1" fill="rgb(0,71,228)"/><rect x="109" y="65" width="4" height="1" fill="rgb(17,114,251)"/><rect x="113" y="65" width="1" height="1" fill="rgb(0,71,228)"/><rect x="108" y="66" width="1" height="1" fill="rgb(17,114,251)"/><rect x="109" y="66" width="1" height="1" fill="rgb(0,71,228)"/><rect x="110" y="66" width="2" height="1" fill="rgb(0,53,212)"/><rect x="112" y="66" width="1" height="1" fill="rgb(0,71,228)"/><rect x="113" y="66" width="1" height="1" fill="rgb(17,114,251)"/><rect x="109" y="67" width="1" height="1" fill="rgb(17,114,251)"/><rect x="110" y="67" width="2" height="1" fill="rgb(0,71,228)"/><rect x="112" y="67" width="1" height="1" fill="rgb(17,114,251)"/><rect x="105" y="86" width="4" height="1" fill="rgb(44,131,251)"/><rect x="104" y="87" width="1" height="1" fill="rgb(44,131,251)"/><rect x="105" y="87" width="1" height="1" fill="rgb(71,155,251)"/><rect x="106" y="87" width="2" height="1" fill="rgb(97,179,251)"/><rect x="108" y="87" width="1" height="1" fill="rgb(71,155,251)"/><rect x="109" y="87" width="1" height="1" fill="rgb(44,131,251)"/><rect x="103" y="88" width="2" height="1" fill="rgb(17,114,251)"/><rect x="105" y="88" width="1" height="1" fill="rgb(44,131,251)"/><rect x="106" y="88" width="2" height="1" fill="rgb(71,155,251)"/><rect x="108" y="88" width="1" height="1" fill="rgb(44,131,251)"/><rect x="109" y="88" width="2" height="1" fill="rgb(17,114,251)"/><rect x="104" y="89" width="2" height="1" fill="rgb(17,114,251)"/><rect x="106" y="89" width="2" height="1" fill="rgb(44,131,251)"/><rect x="108" y="89" width="2" height="1" fill="rgb(17,114,251)"/><rect x="103" y="89" width="1" height="2" fill="rgb(0,88,243)"/><rect x="110" y="89" width="1" height="2" fill="rgb(0,88,243)"/><rect x="104" y="90" width="1" height="1" fill="rgb(0,71,228)"/><rect x="105" y="90" width="4" height="1" fill="rgb(17,114,251)"/><rect x="109" y="90" width="1" height="1" fill="rgb(0,71,228)"/><rect x="103" y="91" width="1" height="1" fill="rgb(17,114,251)"/><rect x="104" y="91" width="1" height="1" fill="rgb(0,88,243)"/><rect x="105" y="91" width="1" height="1" fill="rgb(0,71,228)"/><rect x="106" y="91" width="2" height="1" fill="rgb(0,53,212)"/><rect x="108" y="91" width="1" height="1" fill="rgb(0,71,228)"/><rect x="109" y="91" width="1" height="1" fill="rgb(0,88,243)"/><rect x="110" y="91" width="1" height="1" fill="rgb(17,114,251)"/><rect x="104" y="92" width="1" height="1" fill="rgb(44,131,251)"/><rect x="105" y="92" width="1" height="1" fill="rgb(0,88,243)"/><rect x="106" y="92" width="2" height="1" fill="rgb(0,71,228)"/><rect x="108" y="92" width="1" height="1" fill="rgb(0,88,243)"/><rect x="109" y="92" width="1" height="1" fill="rgb(44,131,251)"/><rect x="105" y="93" width="4" height="1" fill="rgb(44,131,251)"/><rect x="25" y="95" width="4" height="1" fill="rgb(44,131,251)"/><rect x="24" y="96" width="2" height="1" fill="rgb(44,131,251)"/><rect x="26" y="96" width="2" height="1" fill="rgb(71,155,251)"/><rect x="28" y="96" width="2" height="1" fill="rgb(44,131,251)"/><rect x="24" y="97" width="2" height="1" fill="rgb(17,114,251)"/><rect x="26" y="97" width="2" height="1" fill="rgb(44,131,251)"/><rect x="28" y="97" width="2" height="1" fill="rgb(17,114,251)"/><rect x="24" y="98" width="1" height="1" fill="rgb(0,71,228)"/><rect x="25" y="98" width="4" height="1" fill="rgb(17,114,251)"/><rect x="29" y="98" width="1" height="1" fill="rgb(0,71,228)"/><rect x="24" y="99" width="1" height="1" fill="rgb(17,114,251)"/><rect x="25" y="99" width="1" height="1" fill="rgb(0,71,228)"/><rect x="26" y="99" width="2" height="1" fill="rgb(0,53,212)"/><rect x="28" y="99" width="1" height="1" fill="rgb(0,71,228)"/><rect x="29" y="99" width="1" height="1" fill="rgb(17,114,251)"/><rect x="25" y="100" width="1" height="1" fill="rgb(17,114,251)"/><rect x="26" y="100" width="2" height="1" fill="rgb(0,71,228)"/><rect x="28" y="100" width="1" height="1" fill="rgb(17,114,251)"/><rect x="90" y="102" width="4" height="1" fill="rgb(44,131,251)"/><rect x="88" y="103" width="2" height="1" fill="rgb(44,131,251)"/><rect x="90" y="103" width="1" height="1" fill="rgb(71,155,251)"/><rect x="91" y="103" width="2" height="1" fill="rgb(97,179,251)"/><rect x="93" y="103" width="1" height="1" fill="rgb(71,155,251)"/><rect x="94" y="103" width="2" height="1" fill="rgb(44,131,251)"/><rect x="88" y="104" width="1" height="1" fill="rgb(44,131,251)"/><rect x="89" y="104" width="6" height="1" fill="rgb(71,155,251)"/><rect x="95" y="104" width="1" height="1" fill="rgb(44,131,251)"/><rect x="87" y="105" width="1" height="1" fill="rgb(0,88,243)"/><rect x="88" y="105" width="1" height="1" fill="rgb(17,114,251)"/><rect x="89" y="105" width="1" height="1" fill="rgb(44,131,251)"/><rect x="90" y="105" width="4" height="1" fill="rgb(71,155,251)"/><rect x="94" y="105" width="1" height="1" fill="rgb(44,131,251)"/><rect x="95" y="105" width="1" height="1" fill="rgb(17,114,251)"/><rect x="96" y="105" width="1" height="1" fill="rgb(0,88,243)"/><rect x="87" y="106" width="1" height="1" fill="rgb(0,71,228)"/><rect x="88" y="106" width="2" height="1" fill="rgb(17,114,251)"/><rect x="90" y="106" width="4" height="1" fill="rgb(44,131,251)"/><rect x="94" y="106" width="2" height="1" fill="rgb(17,114,251)"/><rect x="96" y="106" width="1" height="1" fill="rgb(0,71,228)"/><rect x="88" y="107" width="1" height="1" fill="rgb(0,71,228)"/><rect x="89" y="107" width="1" height="1" fill="rgb(0,88,243)"/><rect x="90" y="107" width="4" height="1" fill="rgb(17,114,251)"/><rect x="94" y="107" width="1" height="1" fill="rgb(0,88,243)"/><rect x="95" y="107" width="1" height="1" fill="rgb(0,71,228)"/><rect x="87" y="107" width="1" height="2" fill="rgb(0,88,243)"/><rect x="96" y="107" width="1" height="2" fill="rgb(0,88,243)"/><rect x="88" y="108" width="2" height="1" fill="rgb(0,71,228)"/><rect x="90" y="108" width="4" height="1" fill="rgb(0,53,212)"/><rect x="94" y="108" width="2" height="1" fill="rgb(0,71,228)"/><rect x="42" y="109" width="4" height="1" fill="rgb(44,131,251)"/><rect x="88" y="109" width="1" height="1" fill="rgb(0,88,243)"/><rect x="89" y="109" width="6" height="1" fill="rgb(0,71,228)"/><rect x="95" y="109" width="1" height="1" fill="rgb(0,88,243)"/><rect x="41" y="110" width="1" height="1" fill="rgb(44,131,251)"/><rect x="42" y="110" width="1" height="1" fill="rgb(71,155,251)"/><rect x="43" y="110" width="2" height="1" fill="rgb(97,179,251)"/><rect x="45" y="110" width="1" height="1" fill="rgb(71,155,251)"/><rect x="46" y="110" width="1" height="1" fill="rgb(44,131,251)"/><rect x="88" y="110" width="2" height="1" fill="rgb(44,131,251)"/><rect x="90" y="110" width="4" height="1" fill="rgb(0,88,243)"/><rect x="94" y="110" width="2" height="1" fill="rgb(44,131,251)"/><rect x="40" y="111" width="2" height="1" fill="rgb(17,114,251)"/><rect x="42" y="111" width="1" height="1" fill="rgb(44,131,251)"/><rect x="43" y="111" width="2" height="1" fill="rgb(71,155,251)"/><rect x="45" y="111" width="1" height="1" fill="rgb(44,131,251)"/><rect x="46" y="111" width="2" height="1" fill="rgb(17,114,251)"/><rect x="90" y="111" width="4" height="1" fill="rgb(44,131,251)"/><rect x="41" y="112" width="2" height="1" fill="rgb(17,114,251)"/><rect x="43" y="112" width="2" height="1" fill="rgb(44,131,251)"/><rect x="45" y="112" width="2" height="1" fill="rgb(17,114,251)"/><rect x="67" y="112" width="4" height="1" fill="rgb(44,131,251)"/><rect x="40" y="112" width="1" height="2" fill="rgb(0,88,243)"/><rect x="47" y="112" width="1" height="2" fill="rgb(0,88,243)"/><rect x="41" y="113" width="1" height="1" fill="rgb(0,71,228)"/><rect x="42" y="113" width="4" height="1" fill="rgb(17,114,251)"/><rect x="46" y="113" width="1" height="1" fill="rgb(0,71,228)"/><rect x="65" y="113" width="2" height="1" fill="rgb(44,131,251)"/><rect x="67" y="113" width="1" height="1" fill="rgb(71,155,251)"/><rect x="68" y="113" width="2" height="1" fill="rgb(97,179,251)"/><rect x="70" y="113" width="1" height="1" fill="rgb(71,155,251)"/><rect x="71" y="113" width="2" height="1" fill="rgb(44,131,251)"/><rect x="40" y="114" width="1" height="1" fill="rgb(17,114,251)"/><rect x="41" y="114" width="1" height="1" fill="rgb(0,88,243)"/><rect x="42" y="114" width="1" height="1" fill="rgb(0,71,228)"/><rect x="43" y="114" width="2" height="1" fill="rgb(0,53,212)"/><rect x="45" y="114" width="1" height="1" fill="rgb(0,71,228)"/><rect x="46" y="114" width="1" height="1" fill="rgb(0,88,243)"/><rect x="47" y="114" width="1" height="1" fill="rgb(17,114,251)"/><rect x="65" y="114" width="1" height="1" fill="rgb(44,131,251)"/><rect x="66" y="114" width="6" height="1" fill="rgb(71,155,251)"/><rect x="72" y="114" width="1" height="1" fill="rgb(44,131,251)"/><rect x="41" y="115" width="1" height="1" fill="rgb(44,131,251)"/><rect x="42" y="115" width="1" height="1" fill="rgb(0,88,243)"/><rect x="43" y="115" width="2" height="1" fill="rgb(0,71,228)"/><rect x="45" y="115" width="1" height="1" fill="rgb(0,88,243)"/><rect x="46" y="115" width="1" height="1" fill="rgb(44,131,251)"/><rect x="64" y="115" width="1" height="1" fill="rgb(0,88,243)"/><rect x="65" y="115" width="1" height="1" fill="rgb(17,114,251)"/><rect x="66" y="115" width="1" height="1" fill="rgb(44,131,251)"/><rect x="67" y="115" width="4" height="1" fill="rgb(71,155,251)"/><rect x="71" y="115" width="1" height="1" fill="rgb(44,131,251)"/><rect x="72" y="115" width="1" height="1" fill="rgb(17,114,251)"/><rect x="73" y="115" width="1" height="1" fill="rgb(0,88,243)"/><rect x="42" y="116" width="4" height="1" fill="rgb(44,131,251)"/><rect x="64" y="116" width="1" height="1" fill="rgb(0,71,228)"/><rect x="65" y="116" width="2" height="1" fill="rgb(17,114,251)"/><rect x="67" y="116" width="4" height="1" fill="rgb(44,131,251)"/><rect x="71" y="116" width="2" height="1" fill="rgb(17,114,251)"/><rect x="73" y="116" width="1" height="1" fill="rgb(0,71,228)"/><rect x="65" y="117" width="1" height="1" fill="rgb(0,71,228)"/><rect x="66" y="117" width="1" height="1" fill="rgb(0,88,243)"/><rect x="67" y="117" width="4" height="1" fill="rgb(17,114,251)"/><rect x="71" y="117" width="1" height="1" fill="rgb(0,88,243)"/><rect x="72" y="117" width="1" height="1" fill="rgb(0,71,228)"/><rect x="64" y="117" width="1" height="2" fill="rgb(0,88,243)"/><rect x="73" y="117" width="1" height="2" fill="rgb(0,88,243)"/><rect x="65" y="118" width="2" height="1" fill="rgb(0,71,228)"/><rect x="67" y="118" width="4" height="1" fill="rgb(0,53,212)"/><rect x="71" y="118" width="2" height="1" fill="rgb(0,71,228)"/><rect x="65" y="119" width="1" height="1" fill="rgb(0,88,243)"/><rect x="66" y="119" width="6" height="1" fill="rgb(0,71,228)"/><rect x="72" y="119" width="1" height="1" fill="rgb(0,88,243)"/><rect x="65" y="120" width="2" height="1" fill="rgb(44,131,251)"/><rect x="67" y="120" width="4" height="1" fill="rgb(0,88,243)"/><rect x="71" y="120" width="2" height="1" fill="rgb(44,131,251)"/><rect x="67" y="121" width="4" height="1" fill="rgb(44,131,251)"/></svg>