<svg xmlns="http://www.w3.org/2000/svg" width="128" height="144" viewBox="0 0 128 144"><rect x="55" y="21" width="4" height="1" fill="rgb(44,131,251)"/><rect x="54" y="22" width="1" height="1" fill="rgb(44,131,251)"/><rect x="55" y="22" width="1" height="1" fill="rgb(71,155,251)"/><rect x="56" y="22" width="2" height="1" fill="rgb(97,179,251)"/><rect x="58" y="22" width="1" height="1" fill="rgb(71,155,251)"/><rect x="59" y="22" width="1" height="1" fill="rgb(44,131,251)"/><rect x="53" y="23" width="2" height="1" fill="rgb(17,114,251)"/><rect x="55" y="23" width="1" height="1" fill="rgb(44,131,251)"/><rect x="56" y="23" width="2" height="1" fill="rgb(71,155,251)"/><rect x="58" y="23" width="1" height="1" fill="rgb(44,131,251)"/><rect x="59" y="23" width="2" height="1" fill="rgb(17,114,251)"/><rect x="54" y="24" width="2" height="1" fill="rgb(17,114,251)"/><rect x="56" y="24" width="2" height="1" fill="rgb(44,131,251)"/><rect x="58" y="24" width="2" height="1" fill="rgb(17,114,251)"/><rect x="53" y="24" width="1" height="2" fill="rgb(0,88,243)"/><rect x="60" y="24" width="1" height="2" fill="rgb(0,88,243)"/><rect x="54" y="25" width="1" height="1" fill="rgb(0,71,228)"/><rect x="55" y="25" width="4" height="1" fill="rgb(17,114,251)"/><rect x="59" y="25" width="1" height="1" fill="rgb(0,71,228)"/><rect x="81" y="25" width="4" height="1" fill="rgb(44,131,251)"/><rect x="53" y="26" width="1" height="1" fill="rgb(17,114,251)"/><rect x="54" y="26" width="1" height="1" fill="rgb(0,88,243)"/><rect x="55" y="26" width="1" height="1" fill="rgb(0,71,228)"/><rect x="56" y="26" width="2" height="1" fill="rgb(0,53,212)"/><rect x="58" y="26" width="1" height="1" fill="rgb(0,71,228)"/><rect x="59" y="26" width="1" height="1" fill="rgb(0,88,243)"/><rect x="60" y="26" width="1" height="1" fill="rgb(17,114,251)"/><rect x="80" y="26" width="1" height="1" fill="rgb(44,131,251)"/><rect x="81" y="26" width="1" height="1" fill="rgb(71,155,251)"/><rect x="82" y="26" width="2" height="1" fill="rgb(97,179,251)"/><rect x="84" y="26" width="1" height="1" fill="rgb(71,155,251)"/><rect x="85" y="26" width="1" height="1" fill="rgb(44,131,251)"/><rect x="54" y="27" width="1" height="1" fill="rgb(44,131,251)"/><rect x="55" y="27" width="1" height="1" fill="rgb(0,88,243)"/><rect x="56" y="27" width="2" height="1" fill="rgb(0,71,228)"/><rect x="58" y="27" width="1" height="1" fill="rgb(0,88,243)"/><rect x="59" y="27" width="1" height="1" fill="rgb(44,131,251)"/><rect x="79" y="27" width="2" height="1" fill="rgb(17,114,251)"/><rect x="81" y="27" width="1" height="1" fill="rgb(44,131,251)"/><rect x="82" y="27" width="2" height="1" fill="rgb(71,155,251)"/><rect x="84" y="27" width="1" height="1" fill="rgb(44,131,251)"/><rect x="85" y="27" width="2" height="1" fill="rgb(17,114,251)"/><rect x="55" y="28" width="4" height="1" fill="rgb(44,131,251)"/><rect x="80" y="28" width="2" height="1" fill="rgb(17,114,251)"/><rect x="82" y="28" width="2" height="1" fill="rgb(44,131,251)"/><rect x="84" y="28" width="2" height="1" fill="rgb(17,114,251)"/><rect x="79" y="28" width="1" height="2" fill="rgb(0,88,243)"/><rect x="86" y="28" width="1" height="2" fill="rgb(0,88,243)"/><rect x="80" y="29" width="1" height="1" fill="rgb(0,71,228)"/><rect x="81" y="29" width="4" height="1" fill="rgb(17,114,251)"/><rect x="85" y="29" width="1" height="1" fill="rgb(0,71,228)"/><rect x="33" y="30" width="4" height="1" fill="rgb(44,131,251)"/><rect x="79" y="30" width="1" height="1" fill="rgb(17,114,251)"/><rect x="80" y="30" width="1" height="1" fill="rgb(0,88,243)"/><rect x="81" y="30" width="1" height="1" fill="rgb(0,71,228)"/><rect x="82" y="30" width="2" height="1" fill="rgb(0,53,212)"/><rect x="84" y="30" width="1" height="1" fill="rgb(0,71,228)"/><rect x="85" y="30" width="1" height="1" fill="rgb(0,88,243)"/><rect x="86" y="30" width="1" height="1" fill="rgb(17,114,251)"/><rect x="31" y="31" width="2" height="1" fill="rgb(44,131,251)"/><rect x="33" y="31" width="1" height="1" fill="rgb(71,155,251)"/><rect x="34" y="31" width="2" height="1" fill="rgb(97,179,251)"/><rect x="36" y="31" width="1" height="1" fill="rgb(71,155,251)"/><rect x="37" y="31" width="2" height="1" fill="rgb(44,131,251)"/><rect x="80" y="31" width="1" height="1" fill="rgb(44,131,251)"/><rect x="81" y="31" width="1" height="1" fill="rgb(0,88,243)"/><rect x="82" y="31" width="2" height="1" fill="rgb(0,71,228)"/><rect x="84" y="31" width="1" height="1" fill="rgb(0,88,243)"/><rect x="85" y="31" width="1" height="1" fill="rgb(44,131,251)"/><rect x="31" y="32" width="1" height="1" fill="rgb(44,131,251)"/><rect x="32" y="32" width="6" height="1" fill="rgb(71,155,251)"/><rect x="38" y="32" width="1" height="1" fill="rgb(44,131,251)"/><rect x="81" y="32" width="4" height="1" fill="rgb(44,131,251)"/><rect x="30" y="33" width="1" height="1" fill="rgb(0,88,243)"/><rect x="31" y="33" width="1" height="1" fill="rgb(17,114,251)"/><rect x="32" y="33" width="1" height="1" fill="rgb(44,131,251)"/><rect x="33" y="33" width="4" height="1" fill="rgb(71,155,251)"/><rect x="37" y="33" width="1" height="1" fill="rgb(44,131,251)"/><rect x="38" y="33" width="1" height="1" fill="rgb(17,114,251)"/><rect x="39" y="33" width="1" height="1" fill="rgb(0,88,243)"/><rect x="30" y="34" width="1" height="1" fill="rgb(0,71,228)"/><rect x="31" y="34" width="2" height="1" fill="rgb(17,114,251)"/><rect x="33" y="34" width="4" height="1" fill="rgb(44,131,251)"/><rect x="37" y="34" width="2" height="1" fill="rgb(17,114,251)"/><rect x="39" y="34" width="1" height="1" fill="rgb(0,71,228)"/><rect x="31" y="35" width="1" height="1" fill="rgb(0,71,228)"/><rect x="32" y="35" width="1" height="1" fill="rgb(0,88,243)"/><rect x="33" y="35" width="4" height="1" fill="rgb(17,114,251)"/><rect x="37" y="35" width="1" height="1" fill="rgb(0,88,243)"/><rect x="38" y="35" width="1" height="1" fill="rgb(0,71,228)"/><rect x="30" y="35" width="1" height="2" fill="rgb(0,88,243)"/><rect x="39" y="35" width="1" height="2" fill="rgb(0,88,243)"/><rect x="31" y="36" width="2" height="1" fill="rgb(0,71,228)"/><rect x="33" y="36" width="4" height="1" fill="rgb(0,53,212)"/><rect x="37" y="36" width="2" height="1" fill="rgb(0,71,228)"/><rect x="31" y="37" width="1" height="1" fill="rgb(0,88,243)"/><rect x="32" y="37" width="6" height="1" fill="rgb(0,71,228)"/><rect x="38" y="37" width="1" height="1" fill="rgb(0,88,243)"/><rect x="31" y="38" width="2" height="1" fill="rgb(44,131,251)"/><rect x="33" y="38" width="4" height="1" fill="rgb(0,88,243)"/><rect x="37" y="38" width="2" height="1" fill="rgb(44,131,251)"/><rect x="99" y="38" width="4" height="1" fill="rgb(44,131,251)"/><rect x="33" y="39" width="4" height="1" fill="rgb(44,131,251)"/><rect x="97" y="39" width="2" height="1" fill="rgb(44,131,251)"/><rect x="99" y="39" width="1" height="1" fill="rgb(71,155,251)"/><rect x="100" y="39" width="2" height="1" fill="rgb(97,179,251)"/><rect x="102" y="39" width="1" height="1" fill="rgb(71,155,251)"/><rect x="103" y="39" width="2" height="1" fill="rgb(44,131,251)"/><rect x="97" y="40" width="1" height="1" fill="rgb(44,131,251)"/><rect x="98" y="40" width="6" height="1" fill="rgb(71,155,251)"/><rect x="104" y="40" width="1" height="1" fill="rgb(44,131,251)"/><rect x="96" y="41" width="1" height="1" fill="rgb(0,88,243)"/><rect x="97" y="41" width="1" height="1" fill="rgb(17,114,251)"/><rect x="98" y="41" width="1" height="1" fill="rgb(44,131,251)"/><rect x="99" y="41" width="4" height="1" fill="rgb(71,155,251)"/><rect x="103" y="41" width="1" height="1" fill="rgb(44,131,251)"/><rect x="104" y="41" width="1" height="1" fill="rgb(17,114,251)"/><rect x="105" y="41" width="1" height="1" fill="rgb(0,88,243)"/><rect x="96" y="42" width="1" height="1" fill="rgb(0,71,228)"/><rect x="97" y="42" width="2" height="1" fill="rgb(17,114,251)"/><rect x="99" y="42" width="4" height="1" fill="rgb(44,131,251)"/><rect x="103" y="42" width="2" height="1" fill="rgb(17,114,251)"/><rect x="105" y="42" width="1" height="1" fill="rgb(0,71,228)"/><rect x="97" y="43" width="1" height="1" fill="rgb(0,71,228)"/><rect x="98" y="43" width="1" height="1" fill="rgb(0,88,243)"/><rect x="99" y="43" width="4" height="1" fill="rgb(17,114,251)"/><rect x="103" y="43" width="1" height="1" fill="rgb(0,88,243)"/><rect x="104" y="43" width="1" height="1" fill="rgb(0,71,228)"/><rect x="96" y="43" width="1" height="2" fill="rgb(0,88,243)"/><rect x="105" y="43" width="1" height="2" fill="rgb(0,88,243)"/><rect x="97" y="44" width="2" height="1" fill="rgb(0,71,228)"/><rect x="99" y="44" width="4" height="1" fill="rgb(0,53,212)"/><rect x="103" y="44" width="2" height="1" fill="rgb(0,71,228)"/><rect x="97" y="45" width="1" height="1" fill="rgb(0,88,243)"/><rect x="98" y="45" width="6" height="1" fill="rgb(0,71,228)"/><rect x="104" y="45" width="1" height="1" fill="rgb(0,88,243)"/><rect x="97" y="46" width="2" height="1" fill="rgb(44,131,251)"/><rect x="99" y="46" width="4" height="1" fill="rgb(0,88,243)"/><rect x="103" y="46" width="2" height="1" fill="rgb(44,131,251)"/><rect x="99" y="47" width="4" height="1" fill="rgb(44,131,251)"/><rect x="19" y="48" width="4" height="1" fill="rgb(44,131,251)"/><rect x="17" y="49" width="2" height="1" fill="rgb(44,131,251)"/><rect x="19" y="49" width="1" height="1" fill="rgb(71,155,251)"/><rect x="20" y="49" width="2" height="1" fill="rgb(97,179,251)"/><rect x="22" y="49" width="1" height="1" fill="rgb(71,155,251)"/><rect x="23" y="49" width="2" height="1" fill="rgb(44,131,251)"/><rect x="17" y="50" width="1" height="1" fill="rgb(44,131,251)"/><rect x="18" y="50" width="6" height="1" fill="rgb(71,155,251)"/><rect x="24" y="50" width="1" height="1" fill="rgb(44,131,251)"/><rect x="16" y="51" width="1" height="1" fill="rgb(0,88,243)"/><rect x="17" y="51" width="1" height="1" fill="rgb(17,114,251)"/><rect x="18" y="51" width="1" height="1" fill="rgb(44,131,251)"/><rect x="19" y="51" width="4" height="1" fill="rgb(71,155,251)"/><rect x="23" y="51" width="1" height="1" fill="rgb(44,131,251)"/><rect x="24" y="51" width="1" height="1" fill="rgb(17,114,251)"/><rect x="25" y="51" width="1" height="1" fill="rgb(0,88,243)"/><rect x="16" y="52" width="1" height="1" fill="rgb(0,71,228)"/><rect x="17" y="52" width="2" height="1" fill="rgb(17,114,251)"/><rect x="19" y="52" width="4" height="1" fill="rgb(44,131,251)"/><rect x="23" y="52" width="2" height="1" fill="rgb(17,114,251)"/><rect x="25" y="52" width="1" height="1" fill="rgb(0,71,228)"/><rect x="17" y="53" width="1" height="1" fill="rgb(0,71,228)"/><rect x="18" y="53" width="1" height="1" fill="rgb(0,88,243)"/><rect x="19" y="53" width="4" height="1" fill="rgb(17,114,251)"/><rect x="23" y="53" width="1" height="1" fill="rgb(0,88,243)"/><rect x="24" y="53" width="1" height="1" fill="rgb(0,71,228)"/><rect x="16" y="53" width="1" height="2" fill="rgb(0,88,243)"/><rect x="25" y="53" width="1" height="2" fill="rgb(0,88,243)"/><rect x="17" y="54" width="2" height="1" fill="rgb(0,71,228)"/><rect x="19" y="54" width="4" height="1" fill="rgb(0,53,212)"/><rect x="23" y="54" width="2" height="1" fill="rgb(0,71,228)"/><rect x="17" y="55" width="1" height="1" fill="rgb(0,88,243)"/><rect x="18" y="55" width="6" height="1" fill="rgb(0,71,228)"/><rect x="24" y="55" width="1" height="1" fill="rgb(0,88,243)"/><rect x="17" y="56" width="2" height="1" fill="rgb(44,131,251)"/><rect x="19" y="56" width="4" height="1" fill="rgb(0,88,243)"/><rect x="23" y="56" width="2" height="1" fill="rgb(44,131,251)"/><rect x="19" y="57" width="4" height="1" fill="rgb(44,131,251)"/><rect x="109" y="60" width="4" height="1" fill="rgb(44,131,251)"/><rect x="107" y="61" width="2" height="1" fill="rgb(44,131,251)"/><rect x="109" y="61" width="1" height="1" fill="rgb(71,155,251)"/><rect x="110" y="61" width="2" height="1" fill="rgb(97,179,251)"/><rect x="112" y="61" width="1" height="1" fill="rgb(71,155,251)"/><rect x="113" y="61" width="2" height="1" fill="rgb(44,131,251)"/><rect x="107" y="62" width="1" height="1" fill="rgb(44,131,251)"/><rect x="108" y="62" width="6" height="1" fill="rgb(71,155,251)"/><rect x="114" y="62" width="1" height="1" fill="rgb(44,131,251)"/><rect x="106" y="63" width="1" height="1" fill="rgb(0,88,243)"/><rect x="107" y="63" width="1" height="1" fill="rgb(17,114,251)"/><rect x="108" y="63" width="1" height="1" fill="rgb(44,131,251)"/><rect x="109" y="63" width="4" height="1" fill="rgb(71,155,251)"/><rect x="113" y="63" width="1" height="1" fill="rgb(44,131,251)"/><rect x="114" y="63" width="1" height="1" fill="rgb(17,114,251)"/><rect x="115" y="63" width="1" height="1" fill="rgb(0,88,243)"/><rect x="106" y="64" width="1" height="1" fill="rgb(0,71,228)"/><rect x="107" y="64" width="2" height="1" fill="rgb(17,114,251)"/><rect x="109" y="64" width="4" height="1" fill="rgb(44,131,251)"/><rect x="113" y="64" width="2" height="1" fill="rgb(17,114,251)"/><rect x="115" y="64" width="1" height="1" fill="rgb(0,71,228)"/><rect x="107" y="65" width="1" height="1" fill="rgb(0,71,228)"/><rect x="108" y="65" width="1" height="1" fill="rgb(0,88,243)"/><rect x="109" y="65" width="4" height="1" fill="rgb(17,114,251)"/><rect x="113" y="65" width="1" height="1" fill="rgb(0,88,243)"/><rect x="114" y="65" width="1" height="1" fill="rgb(0,71,228)"/><rect x="106" y="65" width="1" height="2" fill="rgb(0,88,243)"/><rect x="115" y="65" width="1" height="2" fill="rgb(0,88,243)"/><rect x="107" y="66" width="2" height="1" fill="rgb(0,71,228)"/><rect x="109" y="66" width="4" height="1" fill="rgb(0,53,212)"/><rect x="113" y="66" width="2" height="1" fill="rgb(0,71,228)"/><rect x="107" y="67" width="1" height="1" fill="rgb(0,88,243)"/><rect x="108" y="67" width="6" height="1" fill="rgb(0,71,228)"/><rect x="114" y="67" width="1" height="1" fill="rgb(0,88,243)"/><rect x="107" y="68" width="2" height="1" fill="rgb(44,131,251)"/><rect x="109" y="68" width="4" height="1" fill="rgb(0,88,243)"/><rect x="113" y="68" width="2" height="1" fill="rgb(44,131,251)"/><rect x="109" y="69" width="4" height="1" fill="rgb(44,131,251)"/><rect x="15" y="74" width="4" height="1" fill="rgb(44,131,251)"/><rect x="13" y="75" width="2" height="1" fill="rgb(44,131,251)"/><rect x="15" y="75" width="1" height="1" fill="rgb(71,155,251)"/><rect x="16" y="75" width="2" height="1" fill="rgb(97,179,251)"/><rect x="18" y="75" width="1" height="1" fill="rgb(71,155,251)"/><rect x="19" y="75" width="2" height="1" fill="rgb(44,131,251)"/><rect x="13" y="76" width="1" height="1" fill="rgb(44,131,251)"/><rect x="14" y="76" width="6" height="1" fill="rgb(71,155,251)"/><rect x="20" y="76" width="1" height="1" fill="rgb(44,131,251)"/><rect x="12" y="77" width="1" height="1" fill="rgb(0,88,243)"/><rect x="13" y="77" width="1" height="1" fill="rgb(17,114,251)"/><rect x="14" y="77" width="1" height="1" fill="rgb(44,131,251)"/><rect x="15" y="77" width="4" height="1" fill="rgb(71,155,251)"/><rect x="19" y="77" width="1" height="1" fill="rgb(44,131,251)"/><rect x="20" y="77" width="1" height="1" fill="rgb(17,114,251)"/><rect x="21" y="77" width="1" height="1" fill="rgb(0,88,243)"/><rect x="12" y="78" width="1" height="1" fill="rgb(0,71,228)"/><rect x="13" y="78" width="2" height="1" fill="rgb(17,114,251)"/><rect x="15" y="78" width="4" height="1" fill="rgb(44,131,251)"/><rect x="19" y="78" width="2" height="1" fill="rgb(17,114,251)"/><rect x="21" y="78" width="1" height="1" fill="rgb(0,71,228)"/><rect x="13" y="79" width="1" height="1" fill="rgb(0,71,228)"/><rect x="14" y="79" width="1" height="1" fill="rgb(0,88,243)"/><rect x="15" y="79" width="4" height="1" fill="rgb(17,114,251)"/><rect x="19" y="79" width="1" height="1" fill="rgb(0,88,243)"/><rect x="20" y="79" width="1" height="1" fill="rgb(0,71,228)"/><rect x="12" y="79" width="1" height="2" fill="rgb(0,88,243)"/><rect x="21" y="79" width="1" height="2" fill="rgb(0,88,243)"/><rect x="13" y="80" width="2" height="1" fill="rgb(0,71,228)"/><rect x="15" y="80" width="4" height="1" fill="rgb(0,53,212)"/><rect x="19" y="80" width="2" height="1" fill="rgb(0,71,228)"/><rect x="13" y="81" width="1" height="1" fill="rgb(0,88,243)"/><rect x="14" y="81" width="6" height="1" fill="rgb(0,71,228)"/><rect x="20" y="81" width="1" height="1" fill="rgb(0,88,243)"/><rect x="13" y="82" width="2" height="1" fill="rgb(44,131,251)"/><rect x="15" y="82" width="4" height="1" fill="rgb(0,88,243)"/><rect x="19" y="82" width="2" height="1" fill="rgb(44,131,251)"/><rect x="15" y="83" width="4" height="1" fill="rgb(44,131,251)"/><rect x="105" y="86" width="4" height="1" fill="rgb(44,131,251)"/><rect x="103" y="87" width="2" height="1" fill="rgb(44,131,251)"/><rect x="105" y="87" width="1" height="1" fill="rgb(71,155,251)"/><rect x="106" y="87" width="2" height="1" fill="rgb(97,179,251)"/><rect x="108" y="87" width="1" height="1" fill="rgb(71,155,251)"/><rect x="109" y="87" width="2" height="1" fill="rgb(44,131,251)"/><rect x="103" y="88" width="1" height="1" fill="rgb(44,131,251)"/><rect x="104" y="88" width="6" height="1" fill="rgb(71,155,251)"/><rect x="110" y="88" width="1" height="1" fill="rgb(44,131,251)"/><rect x="102" y="89" width="1" height="1" fill="rgb(0,88,243)"/><rect x="103" y="89" width="1" height="1" fill="rgb(17,114,251)"/><rect x="104" y="89" width="1" height="1" fill="rgb(44,131,251)"/><rect x="105" y="89" width="4" height="1" fill="rgb(71,155,251)"/><rect x="109" y="89" width="1" height="1" fill="rgb(44,131,251)"/><rect x="110" y="89" width="1" height="1" fill="rgb(17,114,251)"/><rect x="111" y="89" width="1" height="1" fill="rgb(0,88,243)"/><rect x="102" y="90" width="1" height="1" fill="rgb(0,71,228)"/><rect x="103" y="90" width="2" height="1" fill="rgb(17,114,251)"/><rect x="105" y="90" width="4" height="1" fill="rgb(44,131,251)"/><rect x="109" y="90" width="2" height="1" fill="rgb(17,114,251)"/><rect x="111" y="90" width="1" height="1" fill="rgb(0,71,228)"/><rect x="103" y="91" width="1" height="1" fill="rgb(0,71,228)"/><rect x="104" y="91" width="1" height="1" fill="rgb(0,88,243)"/><rect x="105" y="91" width="4" height="1" fill="rgb(17,114,251)"/><rect x="109" y="91" width="1" height="1" fill="rgb(0,88,243)"/><rect x="110" y="91" width="1" height="1" fill="rgb(0,71,228)"/><rect x="102" y="91" width="1" height="2" fill="rgb(0,88,243)"/><rect x="111" y="91" width="1" height="2" fill="rgb(0,88,243)"/><rect x="103" y="92" width="2" height="1" fill="rgb(0,71,228)"/><rect x="105" y="92" width="4" height="1" fill="rgb(0,53,212)"/><rect x="109" y="92" width="2" height="1" fill="rgb(0,71,228)"/><rect x="103" y="93" width="1" height="1" fill="rgb(0,88,243)"/><rect x="104" y="93" width="6" height="1" fill="rgb(0,71,228)"/><rect x="110" y="93" width="1" height="1" fill="rgb(0,88,243)"/><rect x="103" y="94" width="2" height="1" fill="rgb(44,131,251)"/><rect x="105" y="94" width="4" height="1" fill="rgb(0,88,243)"/><rect x="109" y="94" width="2" height="1" fill="rgb(44,131,251)"/><rect x="105" y="95" width="4" height="1" fill="rgb(44,131,251)"/><rect x="25" y="96" width="4" height="1" fill="rgb(44,131,251)"/><rect x="23" y="97" width="2" height="1" fill="rgb(44,131,251)"/><rect x="25" y="97" width="1" height="1" fill="rgb(71,155,251)"/><rect x="26" y="97" width="2" height="1" fill="rgb(97,179,251)"/><rect x="28" y="97" width="1" height="1" fill="rgb(71,155,251)"/><rect x="29" y="97" width="2" height="1" fill="rgb(44,131,251)"/><rect x="23" y="98" width="1" height="1" fill="rgb(44,131,251)"/><rect x="24" y="98" width="6" height="1" fill="rgb(71,155,251)"/><rect x="30" y="98" width="1" height="1" fill="rgb(44,131,251)"/><rect x="22" y="99" width="1" height="1" fill="rgb(0,88,243)"/><rect x="23" y="99" width="1" height="1" fill="rgb(17,114,251)"/><rect x="24" y="99" width="1" height="1" fill="rgb(44,131,251)"/><rect x="25" y="99" width="4" height="1" fill="rgb(71,155,251)"/><rect x="29" y="99" width="1" height="1" fill="rgb(44,131,251)"/><rect x="30" y="99" width="1" height="1" fill="rgb(17,114,251)"/><rect x="31" y="99" width="1" height="1" fill="rgb(0,88,243)"/><rect x="22" y="100" width="1" height="1" fill="rgb(0,71,228)"/><rect x="23" y="100" width="2" height="1" fill="rgb(17,114,251)"/><rect x="25" y="100" width="4" height="1" fill="rgb(44,131,251)"/><rect x="29" y="100" width="2" height="1" fill="rgb(17,114,251)"/><rect x="31" y="100" width="1" height="1" fill="rgb(0,71,228)"/><rect x="23" y="101" width="1" height="1" fill="rgb(0,71,228)"/><rect x="24" y="101" width="1" height="1" fill="rgb(0,88,243)"/><rect x="25" y="101" width="4" height="1" fill="rgb(17,114,251)"/><rect x="29" y="101" width="1" height="1" fill="rgb(0,88,243)"/><rect x="30" y="101" width="1" height="1" fill="rgb(0,71,228)"/><rect x="22" y="101" width="1" height="2" fill="rgb(0,88,243)"/><rect x="31" y="101" width="1" height="2" fill="rgb(0,88,243)"/><rect x="23" y="102" width="2" height="1" fill="rgb(0,71,228)"/><rect x="25" y="102" width="4" height="1" fill="rgb(0,53,212)"/><rect x="29" y="102" width="2" height="1" fill="rgb(0,71,228)"/><rect x="23" y="103" width="1" height="1" fill="rgb(0,88,243)"/><rect x="24" y="103" width="6" height="1" fill="rgb(0,71,228)"/><rect x="30" y="103" width="1" height="1" fill="rgb(0,88,243)"/><rect x="23" y="104" width="2" height="1" fill="rgb(44,131,251)"/><rect x="25" y="104" width="4" height="1" fill="rgb(0,88,243)"/><rect x="29" y="104" width="2" height="1" fill="rgb(44,131,251)"/><rect x="91" y="104" width="4" height="1" fill="rgb(44,131,251)"/><rect x="25" y="105" width="4" height="1" fill="rgb(44,131,251)"/><rect x="89" y="105" width="2" height="1" fill="rgb(44,131,251)"/><rect x="91" y="105" width="1" height="1" fill="rgb(71,155,251)"/><rect x="92" y="105" width="2" height="1" fill="rgb(97,179,251)"/><rect x="94" y="105" width="1" height="1" fill="rgb(71,155,251)"/><rect x="95" y="105" width="2" height="1" fill="rgb(44,131,251)"/><rect x="89" y="106" width="1" height="1" fill="rgb(44,131,251)"/><rect x="90" y="106" width="6" height="1" fill="rgb(71,155,251)"/><rect x="96" y="106" width="1" height="1" fill="rgb(44,131,251)"/><rect x="88" y="107" width="1" height="1" fill="rgb(0,88,243)"/><rect x="89" y="107" width="1" height="1" fill="rgb(17,114,251)"/><rect x="90" y="107" width="1" height="1" fill="rgb(44,131,251)"/><rect x="91" y="107" width="4" height="1" fill="rgb(71,155,251)"/><rect x="95" y="107" width="1" height="1" fill="rgb(44,131,251)"/><rect x="96" y="107" width="1" height="1" fill="rgb(17,114,251)"/><rect x="97" y="107" width="1" height="1" fill="rgb(0,88,243)"/><rect x="88" y="108" width="1" height="1" fill="rgb(0,71,228)"/><rect x="89" y="108" width="2" height="1" fill="rgb(17,114,251)"/><rect x="91" y="108" width="4" height="1" fill="rgb(44,131,251)"/><rect x="95" y="108" width="2" height="1" fill="rgb(17,114,251)"/><rect x="97" y="108" width="1" height="1" fill="rgb(0,71,228)"/><rect x="43" y="109" width="4" height="1" fill="rgb(44,131,251)"/><rect x="89" y="109" width="1" height="1" fill="rgb(0,71,228)"/><rect x="90" y="109" width="1" height="1" fill="rgb(0,88,243)"/><rect x="91" y="109" width="4" height="1" fill="rgb(17,114,251)"/><rect x="95" y="109" width="1" height="1" fill="rgb(0,88,243)"/><rect x="96" y="109" width="1" height="1" fill="rgb(0,71,228)"/><rect x="88" y="109" width="1" height="2" fill="rgb(0,88,243)"/><rect x="97" y="109" width="1" height="2" fill="rgb(0,88,243)"/><rect x="41" y="110" width="2" height="1" fill="rgb(44,131,251)"/><rect x="43" y="110" width="4" height="1" fill="rgb(71,155,251)"/><rect x="47" y="110" width="2" height="1" fill="rgb(44,131,251)"/><rect x="89" y="110" width="2" height="1" fill="rgb(0,71,228)"/><rect x="91" y="110" width="4" height="1" fill="rgb(0,53,212)"/><rect x="95" y="110" width="2" height="1" fill="rgb(0,71,228)"/><rect x="40" y="111" width="2" height="1" fill="rgb(44,131,251)"/><rect x="42" y="111" width="1" height="1" fill="rgb(71,155,251)"/><rect x="43" y="111" width="4" height="1" fill="rgb(97,179,251)"/><rect x="47" y="111" width="1" height="1" fill="rgb(71,155,251)"/><rect x="48" y="111" width="2" height="1" fill="rgb(44,131,251)"/><rect x="89" y="111" width="1" height="1" fill="rgb(0,88,243)"/><rect x="90" y="111" width="6" height="1" fill="rgb(0,71,228)"/><rect x="96" y="111" width="1" height="1" fill="rgb(0,88,243)"/><rect x="40" y="112" width="1" height="1" fill="rgb(44,131,251)"/><rect x="41" y="112" width="8" height="1" fill="rgb(71,155,251)"/><rect x="49" y="112" width="1" height="1" fill="rgb(44,131,251)"/><rect x="89" y="112" width="2" height="1" fill="rgb(44,131,251)"/><rect x="91" y="112" width="4" height="1" fill="rgb(0,88,243)"/><rect x="95" y="112" width="2" height="1" fill="rgb(44,131,251)"/><rect x="41" y="113" width="1" height="1" fill="rgb(17,114,251)"/><rect x="42" y="113" width="1" height="1" fill="rgb(44,131,251)"/><rect x="43" y="113" width="4" height="1" fill="rgb(71,155,251)"/><rect x="47" y="113" width="1" height="1" fill="rgb(44,131,251)"/><rect x="48" y="113" width="1" height="1" fill="rgb(17,114,251)"/><rect x="69" y="113" width="4" height="1" fill="rgb(44,131,251)"/><rect x="91" y="113" width="4" height="1" fill="rgb(44,131,251)"/><rect x="40" y="113" width="1" height="2" fill="rgb(0,88,243)"/><rect x="49" y="113" width="1" height="2" fill="rgb(0,88,243)"/><rect x="41" y="114" width="2" height="1" fill="rgb(17,114,251)"/><rect x="43" y="114" width="4" height="1" fill="rgb(44,131,251)"/><rect x="47" y="114" width="2" height="1" fill="rgb(17,114,251)"/><rect x="67" y="114" width="2" height="1" fill="rgb(44,131,251)"/><rect x="69" y="114" width="4" height="1" fill="rgb(71,155,251)"/><rect x="73" y="114" width="2" height="1" fill="rgb(44,131,251)"/><rect x="40" y="115" width="1" height="1" fill="rgb(0,71,228)"/><rect x="41" y="115" width="2" height="1" fill="rgb(0,88,243)"/><rect x="43" y="115" width="4" height="1" fill="rgb(17,114,251)"/><rect x="47" y="115" width="2" height="1" fill="rgb(0,88,243)"/><rect x="49" y="115" width="1" height="1" fill="rgb(0,71,228)"/><rect x="66" y="115" width="2" height="1" fill="rgb(44,131,251)"/><rect x="68" y="115" width="1" height="1" fill="rgb(71,155,251)"/><rect x="69" y="115" width="4" height="1" fill="rgb(97,179,251)"/><rect x="73" y="115" width="1" height="1" fill="rgb(71,155,251)"/><rect x="74" y="115" width="2" height="1" fill="rgb(44,131,251)"/><rect x="39" y="113" width="1" height="4" fill="rgb(17,114,251)"/><rect x="50" y="113" width="1" height="4" fill="rgb(17,114,251)"/><rect x="40" y="116" width="1" height="1" fill="rgb(0,88,243)"/><rect x="41" y="116" width="1" height="1" fill="rgb(0,71,228)"/><rect x="42" y="116" width="1" height="1" fill="rgb(0,53,212)"/><rect x="43" y="116" width="1" height="1" fill="rgb(0,71,228)"/><rect x="44" y="116" width="2" height="1" fill="rgb(0,88,243)"/><rect x="46" y="116" width="1" height="1" fill="rgb(0,71,228)"/><rect x="47" y="116" width="1" height="1" fill="rgb(0,53,212)"/><rect x="48" y="116" width="1" height="1" fill="rgb(0,71,228)"/><rect x="49" y="116" width="1" height="1" fill="rgb(0,88,243)"/><rect x="66" y="116" width="1" height="1" fill="rgb(44,131,251)"/><rect x="67" y="116" width="8" height="1" fill="rgb(71,155,251)"/><rect x="75" y="116" width="1" height="1" fill="rgb(44,131,251)"/><rect x="41" y="117" width="1" height="1" fill="rgb(0,88,243)"/><rect x="42" y="117" width="1" height="1" fill="rgb(0,71,228)"/><rect x="43" y="117" width="1" height="1" fill="rgb(0,53,212)"/><rect x="44" y="117" width="2" height="1" fill="rgb(0,35,187)"/><rect x="46" y="117" width="1" height="1" fill="rgb(0,53,212)"/><rect x="47" y="117" width="1" height="1" fill="rgb(0,71,228)"/><rect x="48" y="117" width="1" height="1" fill="rgb(0,88,243)"/><rect x="67" y="117" width="1" height="1" fill="rgb(17,114,251)"/><rect x="68" y="117" width="1" height="1" fill="rgb(44,131,251)"/><rect x="69" y="117" width="4" height="1" fill="rgb(71,155,251)"/><rect x="73" y="117" width="1" height="1" fill="rgb(44,131,251)"/><rect x="74" y="117" width="1" height="1" fill="rgb(17,114,251)"/><rect x="40" y="117" width="1" height="2" fill="rgb(17,114,251)"/><rect x="49" y="117" width="1" height="2" fill="rgb(17,114,251)"/><rect x="66" y="117" width="1" height="2" fill="rgb(0,88,243)"/><rect x="75" y="117" width="1" height="2" fill="rgb(0,88,243)"/><rect x="41" y="118" width="2" height="1" fill="rgb(0,88,243)"/><rect x="43" y="118" width="4" height="1" fill="rgb(0,71,228)"/><rect x="47" y="118" width="2" height="1" fill="rgb(0,88,243)"/><rect x="67" y="118" width="2" height="1" fill="rgb(17,114,251)"/><rect x="69" y="118" width="4" height="1" fill="rgb(44,131,251)"/><rect x="73" y="118" width="2" height="1" fill="rgb(17,114,251)"/><rect x="41" y="119" width="1" height="1" fill="rgb(44,131,251)"/><rect x="42" y="119" width="6" height="1" fill="rgb(17,114,251)"/><rect x="48" y="119" width="1" height="1" fill="rgb(44,131,251)"/><rect x="66" y="119" width="1" height="1" fill="rgb(0,71,228)"/><rect x="67" y="119" width="2" height="1" fill="rgb(0,88,243)"/><rect x="69" y="119" width="4" height="1" fill="rgb(17,114,251)"/><rect x="73" y="119" width="2" height="1" fill="rgb(0,88,243)"/><rect x="75" y="119" width="1" height="1" fill="rgb(0,71,228)"/><rect x="65" y="117" width="1" height="4" fill="rgb(17,114,251)"/><rect x="76" y="117" width="1" height="4" fill="rgb(17,114,251)"/><rect x="43" y="120" width="4" height="1" fill="rgb(44,131,251)"/><rect x="66" y="120" width="1" height="1" fill="rgb(0,88,243)"/><rect x="67" y="120" width="1" height="1" fill="rgb(0,71,228)"/><rect x="68" y="120" width="1" height="1" fill="rgb(0,53,212)"/><rect x="69" y="120" width="1" height="1" fill="rgb(0,71,228)"/><rect x="70" y="120" width="2" height="1" fill="rgb(0,88,243)"/><rect x="72" y="120" width="1" height="1" fill="rgb(0,71,228)"/><rect x="73" y="120" width="1" height="1" fill="rgb(0,53,212)"/><rect x="74" y="120" width="1" height="1" fill="rgb(0,71,228)"/><rect x="75" y="120" width="1" height="1" fill="rgb(0,88,243)"/><rect x="67" y="121" width="1" height="1" fill="rgb(0,88,243)"/><rect x="68" y="121" width="1" height="1" fill="rgb(0,71,228)"/><rect x="69" y="121" width="1" height="1" fill="rgb(0,53,212)"/><rect x="70" y="121" width="2" height="1" fill="rgb(0,35,187)"/><rect x="72" y="121" width="1" height="1" fill="rgb(0,53,212)"/><rect x="73" y="121" width="1" height="1" fill="rgb(0,71,228)"/><rect x="74" y="121" width="1" height="1" fill="rgb(0,88,243)"/><rect x="66" y="121" width="1" height="2" fill="rgb(17,114,251)"/><rect x="75" y="121" width="1" height="2" fill="rgb(17,114,251)"/><rect x="67" y="122" width="2" height="1" fill="rgb(0,88,243)"/><rect x="69" y="122" width="4" height="1" fill="rgb(0,71,228)"/><rect x="73" y="122" width="2" height="1" fill="rgb(0,88,243)"/><rect x="67" y="123" width="1" height="1" fill="rgb(44,131,251)"/><rect x="68" y="123" width="6" height="1" fill="rgb(17,114,251)"/><rect x="74" y="123" width="1" height="1" fill="rgb(44,131,251)"/><rect x="69" y="124" width="4" height="1" fill="rgb(44,131,251)"/></svg>