<svg xmlns="http://www.w3.org/2000/svg" width="66" height="82" viewBox="0 0 66 82"><rect x="4" y="0" width="58" height="1" fill="rgb(251,211,154)"/><rect x="2" y="1" width="1" height="1" fill="rgb(251,203,121)"/><rect x="3" y="1" width="3" height="1" fill="rgb(251,170,73)"/><rect x="6" y="1" width="54" height="1" fill="rgb(251,162,40)"/><rect x="60" y="1" width="3" height="1" fill="rgb(251,170,73)"/><rect x="63" y="1" width="1" height="1" fill="rgb(251,203,121)"/><rect x="1" y="2" width="1" height="1" fill="rgb(251,203,121)"/><rect x="7" y="2" width="3" height="1" fill="rgb(251,154,16)"/><rect x="10" y="2" width="2" height="1" fill="rgb(251,138,0)"/><rect x="12" y="2" width="42" height="1" fill="rgb(251,121,0)"/><rect x="54" y="2" width="2" height="1" fill="rgb(251,138,0)"/><rect x="56" y="2" width="3" height="1" fill="rgb(251,154,16)"/><rect x="64" y="2" width="1" height="1" fill="rgb(251,203,121)"/><rect x="2" y="2" width="3" height="2" fill="rgb(251,170,73)"/><rect x="5" y="2" width="2" height="2" fill="rgb(251,162,40)"/><rect x="59" y="2" width="2" height="2" fill="rgb(251,162,40)"/><rect x="61" y="2" width="3" height="2" fill="rgb(251,170,73)"/><rect x="1" y="3" width="1" height="1" fill="rgb(251,154,16)"/><rect x="7" y="3" width="1" height="1" fill="rgb(251,154,16)"/><rect x="8" y="3" width="9" height="1" fill="rgb(251,138,0)"/><rect x="17" y="3" width="32" height="1" fill="rgb(251,121,0)"/><rect x="49" y="3" width="9" height="1" fill="rgb(251,138,0)"/><rect x="58" y="3" width="1" height="1" fill="rgb(251,154,16)"/><rect x="64" y="3" width="1" height="1" fill="rgb(251,154,16)"/><rect x="1" y="4" width="1" height="1" fill="rgb(251,121,0)"/><rect x="2" y="4" width="1" height="1" fill="rgb(251,154,16)"/><rect x="4" y="4" width="2" height="1" fill="rgb(251,162,40)"/><rect x="6" y="4" width="5" height="1" fill="rgb(251,154,16)"/><rect x="11" y="4" width="44" height="1" fill="rgb(251,138,0)"/><rect x="55" y="4" width="5" height="1" fill="rgb(251,154,16)"/><rect x="60" y="4" width="2" height="1" fill="rgb(251,162,40)"/><rect x="63" y="4" width="1" height="1" fill="rgb(251,154,16)"/><rect x="64" y="4" width="1" height="1" fill="rgb(251,121,0)"/><rect x="3" y="4" width="1" height="2" fill="rgb(251,170,73)"/><rect x="62" y="4" width="1" height="2" fill="rgb(251,170,73)"/><rect x="2" y="5" width="1" height="1" fill="rgb(251,138,0)"/><rect x="4" y="5" width="1" height="1" fill="rgb(251,162,40)"/><rect x="5" y="5" width="56" height="1" fill="rgb(251,154,16)"/><rect x="61" y="5" width="1" height="1" fill="rgb(251,162,40)"/><rect x="63" y="5" width="1" height="1" fill="rgb(251,138,0)"/><rect x="3" y="6" width="60" height="1" fill="rgb(251,162,40)"/><rect x="1" y="5" width="1" height="3" fill="rgb(251,113,32)"/><rect x="64" y="5" width="1" height="3" fill="rgb(251,113,32)"/><rect x="2" y="6" width="1" height="2" fill="rgb(251,121,0)"/><rect x="63" y="6" width="1" height="2" fill="rgb(251,121,0)"/><rect x="3" y="7" width="6" height="1" fill="rgb(251,162,40)"/><rect x="9" y="7" width="2" height="1" fill="rgb(251,170,73)"/><rect x="11" y="7" width="44" height="1" fill="rgb(251,186,97)"/><rect x="55" y="7" width="2" height="1" fill="rgb(251,170,73)"/><rect x="57" y="7" width="6" height="1" fill="rgb(251,162,40)"/><rect x="3" y="8" width="5" height="1" fill="rgb(251,162,40)"/><rect x="8" y="8" width="1" height="1" fill="rgb(251,170,73)"/><rect x="9" y="8" width="2" height="1" fill="rgb(251,203,121)"/><rect x="11" y="8" width="1" height="1" fill="rgb(251,154,16)"/><rect x="12" y="8" width="42" height="1" fill="rgb(251,138,0)"/><rect x="54" y="8" width="1" height="1" fill="rgb(251,154,16)"/><rect x="55" y="8" width="2" height="1" fill="rgb(251,203,121)"/><rect x="57" y="8" width="1" height="1" fill="rgb(251,170,73)"/><rect x="58" y="8" width="5" height="1" fill="rgb(251,162,40)"/><rect x="4" y="9" width="3" height="1" fill="rgb(251,162,40)"/><rect x="7" y="9" width="1" height="1" fill="rgb(251,170,73)"/><rect x="8" y="9" width="1" height="1" fill="rgb(251,203,121)"/><rect x="9" y="9" width="3" height="1" fill="rgb(251,154,16)"/><rect x="54" y="9" width="3" height="1" fill="rgb(251,154,16)"/><rect x="57" y="9" width="1" height="1" fill="rgb(251,203,121)"/><rect x="58" y="9" width="1" height="1" fill="rgb(251,170,73)"/><rect x="59" y="9" width="3" height="1" fill="rgb(251,162,40)"/><rect x="1" y="8" width="2" height="3" fill="rgb(251,113,32)"/><rect x="63" y="8" width="2" height="3" fill="rgb(251,113,32)"/><rect x="7" y="10" width="1" height="1" fill="rgb(251,203,121)"/><rect x="9" y="10" width="1" height="1" fill="rgb(251,154,16)"/><rect x="56" y="10" width="1" height="1" fill="rgb(251,154,16)"/><rect x="58" y="10" width="1" height="1" fill="rgb(251,203,121)"/><rect x="3" y="9" width="1" height="3" fill="rgb(251,154,16)"/><rect x="62" y="9" width="1" height="3" fill="rgb(251,154,16)"/><rect x="4" y="10" width="3" height="2" fill="rgb(251,186,97)"/><rect x="8" y="10" width="1" height="2" fill="rgb(251,162,40)"/><rect x="57" y="10" width="1" height="2" fill="rgb(251,162,40)"/><rect x="59" y="10" width="3" height="2" fill="rgb(251,186,97)"/><rect x="7" y="11" width="1" height="1" fill="rgb(251,211,154)"/><rect x="58" y="11" width="1" height="1" fill="rgb(251,211,154)"/><rect x="7" y="12" width="2" height="1" fill="rgb(251,162,40)"/><rect x="57" y="12" width="2" height="1" fill="rgb(251,162,40)"/><rect x="4" y="12" width="2" height="2" fill="rgb(251,203,121)"/><rect x="6" y="12" width="1" height="2" fill="rgb(251,211,154)"/><rect x="59" y="12" width="1" height="2" fill="rgb(251,211,154)"/><rect x="60" y="12" width="2" height="2" fill="rgb(251,203,121)"/><rect x="3" y="12" width="1" height="3" fill="rgb(251,138,0)"/><rect x="62" y="12" width="1" height="3" fill="rgb(251,138,0)"/><rect x="4" y="14" width="3" height="1" fill="rgb(251,211,154)"/><rect x="59" y="14" width="3" height="1" fill="rgb(251,211,154)"/><rect x="2" y="11" width="1" height="6" fill="rgb(251,113,32)"/><rect x="63" y="11" width="1" height="6" fill="rgb(251,113,32)"/><rect x="3" y="15" width="1" height="2" fill="rgb(251,121,0)"/><rect x="62" y="15" width="1" height="2" fill="rgb(251,121,0)"/><rect x="2" y="17" width="2" height="1" fill="rgb(251,113,32)"/><rect x="62" y="17" width="2" height="1" fill="rgb(251,113,32)"/><rect x="4" y="15" width="2" height="5" fill="rgb(251,227,186)"/><rect x="6" y="15" width="1" height="5" fill="rgb(251,211,154)"/><rect x="59" y="15" width="1" height="5" fill="rgb(251,211,154)"/><rect x="60" y="15" width="2" height="5" fill="rgb(251,227,186)"/><rect x="4" y="20" width="3" height="2" fill="rgb(251,211,154)"/><rect x="59" y="20" width="3" height="2" fill="rgb(251,211,154)"/><rect x="1" y="11" width="1" height="14" fill="rgb(251,138,0)"/><rect x="64" y="11" width="1" height="14" fill="rgb(251,138,0)"/><rect x="2" y="18" width="1" height="7" fill="rgb(251,121,0)"/><rect x="63" y="18" width="1" height="7" fill="rgb(251,121,0)"/><rect x="4" y="22" width="2" height="10" fill="rgb(251,203,121)"/><rect x="60" y="22" width="2" height="10" fill="rgb(251,203,121)"/><rect x="7" y="13" width="1" height="21" fill="rgb(251,162,40)"/><rect x="58" y="13" width="1" height="21" fill="rgb(251,162,40)"/><rect x="6" y="22" width="1" height="14" fill="rgb(251,211,154)"/><rect x="59" y="22" width="1" height="14" fill="rgb(251,211,154)"/><rect x="4" y="32" width="2" height="4" fill="rgb(251,186,97)"/><rect x="60" y="32" width="2" height="4" fill="rgb(251,186,97)"/><rect x="4" y="36" width="2" height="3" fill="rgb(251,170,73)"/><rect x="60" y="36" width="2" height="3" fill="rgb(251,170,73)"/><rect x="4" y="39" width="2" height="5" fill="rgb(251,162,40)"/><rect x="60" y="39" width="2" height="5" fill="rgb(251,162,40)"/><rect x="1" y="25" width="2" height="25" fill="rgb(251,138,0)"/><rect x="63" y="25" width="2" height="25" fill="rgb(251,138,0)"/><rect x="6" y="36" width="1" height="14" fill="rgb(251,203,121)"/><rect x="59" y="36" width="1" height="14" fill="rgb(251,203,121)"/><rect x="4" y="44" width="2" height="6" fill="rgb(251,154,16)"/><rect x="60" y="44" width="2" height="6" fill="rgb(251,154,16)"/><rect x="4" y="50" width="2" height="2" fill="rgb(251,138,0)"/><rect x="60" y="50" width="2" height="2" fill="rgb(251,138,0)"/><rect x="7" y="34" width="1" height="19" fill="rgb(251,170,73)"/><rect x="58" y="34" width="1" height="19" fill="rgb(251,170,73)"/><rect x="6" y="50" width="1" height="4" fill="rgb(251,211,154)"/><rect x="59" y="50" width="1" height="4" fill="rgb(251,211,154)"/><rect x="7" y="53" width="2" height="1" fill="rgb(251,186,97)"/><rect x="57" y="53" width="2" height="1" fill="rgb(251,186,97)"/><rect x="6" y="54" width="1" height="1" fill="rgb(251,186,97)"/><rect x="7" y="54" width="1" height="1" fill="rgb(251,203,121)"/><rect x="8" y="54" width="1" height="1" fill="rgb(251,186,97)"/><rect x="57" y="54" width="1" height="1" fill="rgb(251,186,97)"/><rect x="58" y="54" width="1" height="1" fill="rgb(251,203,121)"/><rect x="59" y="54" width="1" height="1" fill="rgb(251,186,97)"/><rect x="6" y="55" width="1" height="1" fill="rgb(251,138,0)"/><rect x="7" y="55" width="1" height="1" fill="rgb(251,211,154)"/><rect x="8" y="55" width="2" height="1" fill="rgb(251,186,97)"/><rect x="56" y="55" width="2" height="1" fill="rgb(251,186,97)"/><rect x="58" y="55" width="1" height="1" fill="rgb(251,211,154)"/><rect x="59" y="55" width="1" height="1" fill="rgb(251,138,0)"/><rect x="4" y="52" width="2" height="5" fill="rgb(251,121,0)"/><rect x="60" y="52" width="2" height="5" fill="rgb(251,121,0)"/><rect x="7" y="56" width="1" height="1" fill="rgb(251,170,73)"/><rect x="8" y="56" width="1" height="1" fill="rgb(251,211,154)"/><rect x="9" y="56" width="3" height="1" fill="rgb(251,186,97)"/><rect x="54" y="56" width="3" height="1" fill="rgb(251,186,97)"/><rect x="57" y="56" width="1" height="1" fill="rgb(251,211,154)"/><rect x="58" y="56" width="1" height="1" fill="rgb(251,170,73)"/><rect x="6" y="56" width="1" height="2" fill="rgb(251,113,32)"/><rect x="59" y="56" width="1" height="2" fill="rgb(251,113,32)"/><rect x="7" y="57" width="1" height="1" fill="rgb(251,138,0)"/><rect x="8" y="57" width="1" height="1" fill="rgb(251,170,73)"/><rect x="9" y="57" width="1" height="1" fill="rgb(251,211,154)"/><rect x="10" y="57" width="1" height="1" fill="rgb(251,203,121)"/><rect x="11" y="57" width="44" height="1" fill="rgb(251,186,97)"/><rect x="55" y="57" width="1" height="1" fill="rgb(251,203,121)"/><rect x="56" y="57" width="1" height="1" fill="rgb(251,211,154)"/><rect x="57" y="57" width="1" height="1" fill="rgb(251,170,73)"/><rect x="58" y="57" width="1" height="1" fill="rgb(251,138,0)"/><rect x="6" y="58" width="3" height="1" fill="rgb(251,113,32)"/><rect x="9" y="58" width="1" height="1" fill="rgb(251,138,0)"/><rect x="10" y="58" width="1" height="1" fill="rgb(251,170,73)"/><rect x="11" y="58" width="4" height="1" fill="rgb(251,211,154)"/><rect x="15" y="58" width="36" height="1" fill="rgb(251,203,121)"/><rect x="51" y="58" width="4" height="1" fill="rgb(251,211,154)"/><rect x="55" y="58" width="1" height="1" fill="rgb(251,170,73)"/><rect x="56" y="58" width="1" height="1" fill="rgb(251,138,0)"/><rect x="57" y="58" width="3" height="1" fill="rgb(251,113,32)"/><rect x="3" y="18" width="1" height="42" fill="rgb(251,113,32)"/><rect x="62" y="18" width="1" height="42" fill="rgb(251,113,32)"/><rect x="2" y="50" width="1" height="10" fill="rgb(251,121,0)"/><rect x="63" y="50" width="1" height="10" fill="rgb(251,121,0)"/><rect x="5" y="57" width="1" height="3" fill="rgb(251,121,0)"/><rect x="60" y="57" width="1" height="3" fill="rgb(251,121,0)"/><rect x="6" y="59" width="5" height="1" fill="rgb(251,113,32)"/><rect x="11" y="59" width="1" height="1" fill="rgb(251,138,0)"/><rect x="12" y="59" width="42" height="1" fill="rgb(251,154,16)"/><rect x="54" y="59" width="1" height="1" fill="rgb(251,138,0)"/><rect x="55" y="59" width="5" height="1" fill="rgb(251,113,32)"/><rect x="4" y="57" width="1" height="4" fill="rgb(251,138,0)"/><rect x="61" y="57" width="1" height="4" fill="rgb(251,138,0)"/><rect x="5" y="60" width="2" height="1" fill="rgb(251,121,0)"/><rect x="59" y="60" width="2" height="1" fill="rgb(251,121,0)"/><rect x="7" y="60" width="52" height="2" fill="rgb(251,113,32)"/><rect x="6" y="61" width="1" height="1" fill="rgb(251,121,0)"/><rect x="59" y="61" width="1" height="1" fill="rgb(251,121,0)"/><rect x="6" y="62" width="2" height="1" fill="rgb(251,121,0)"/><rect x="8" y="62" width="50" height="1" fill="rgb(251,113,32)"/><rect x="58" y="62" width="2" height="1" fill="rgb(251,121,0)"/><rect x="6" y="63" width="4" height="1" fill="rgb(251,121,0)"/><rect x="10" y="63" width="30" height="1" fill="rgb(251,113,32)"/><rect x="40" y="63" width="2" height="1" fill="rgb(251,121,0)"/><rect x="42" y="63" width="14" height="1" fill="rgb(251,113,32)"/><rect x="56" y="63" width="4" height="1" fill="rgb(251,121,0)"/><rect x="6" y="64" width="2" height="1" fill="rgb(251,121,0)"/><rect x="8" y="64" width="16" height="1" fill="rgb(251,113,32)"/><rect x="24" y="64" width="16" height="1" fill="rgb(251,121,0)"/><rect x="40" y="64" width="18" height="1" fill="rgb(251,113,32)"/><rect x="58" y="64" width="2" height="1" fill="rgb(251,121,0)"/><rect x="5" y="61" width="1" height="5" fill="rgb(251,138,0)"/><rect x="60" y="61" width="1" height="5" fill="rgb(251,138,0)"/><rect x="6" y="65" width="4" height="1" fill="rgb(251,121,0)"/><rect x="10" y="65" width="14" height="1" fill="rgb(251,113,32)"/><rect x="24" y="65" width="18" height="1" fill="rgb(251,121,0)"/><rect x="42" y="65" width="14" height="1" fill="rgb(251,113,32)"/><rect x="56" y="65" width="4" height="1" fill="rgb(251,121,0)"/><rect x="4" y="61" width="1" height="6" fill="rgb(251,154,16)"/><rect x="61" y="61" width="1" height="6" fill="rgb(251,154,16)"/><rect x="5" y="66" width="2" height="1" fill="rgb(251,138,0)"/><rect x="7" y="66" width="52" height="1" fill="rgb(251,121,0)"/><rect x="59" y="66" width="2" height="1" fill="rgb(251,138,0)"/><rect x="1" y="50" width="1" height="18" fill="rgb(251,138,0)"/><rect x="64" y="50" width="1" height="18" fill="rgb(251,138,0)"/><rect x="2" y="60" width="2" height="8" fill="rgb(251,121,0)"/><rect x="62" y="60" width="2" height="8" fill="rgb(251,121,0)"/><rect x="4" y="67" width="2" height="1" fill="rgb(251,154,16)"/><rect x="6" y="67" width="2" height="1" fill="rgb(251,138,0)"/><rect x="8" y="67" width="50" height="1" fill="rgb(251,121,0)"/><rect x="58" y="67" width="2" height="1" fill="rgb(251,138,0)"/><rect x="60" y="67" width="2" height="1" fill="rgb(251,154,16)"/><rect x="5" y="68" width="1" height="1" fill="rgb(251,154,16)"/><rect x="6" y="68" width="3" height="1" fill="rgb(251,138,0)"/><rect x="9" y="68" width="11" height="1" fill="rgb(251,121,0)"/><rect x="20" y="68" width="26" height="1" fill="rgb(251,138,0)"/><rect x="46" y="68" width="11" height="1" fill="rgb(251,121,0)"/><rect x="57" y="68" width="3" height="1" fill="rgb(251,138,0)"/><rect x="60" y="68" width="1" height="1" fill="rgb(251,154,16)"/><rect x="3" y="68" width="1" height="2" fill="rgb(251,138,0)"/><rect x="4" y="68" width="1" height="2" fill="rgb(251,162,40)"/><rect x="61" y="68" width="1" height="2" fill="rgb(251,162,40)"/><rect x="62" y="68" width="1" height="2" fill="rgb(251,138,0)"/><rect x="5" y="69" width="2" height="1" fill="rgb(251,154,16)"/><rect x="7" y="69" width="52" height="1" fill="rgb(251,138,0)"/><rect x="59" y="69" width="2" height="1" fill="rgb(251,154,16)"/><rect x="1" y="68" width="2" height="3" fill="rgb(251,121,0)"/><rect x="63" y="68" width="2" height="3" fill="rgb(251,121,0)"/><rect x="4" y="70" width="2" height="1" fill="rgb(251,162,40)"/><rect x="6" y="70" width="2" height="1" fill="rgb(251,154,16)"/><rect x="8" y="70" width="21" height="1" fill="rgb(251,138,0)"/><rect x="29" y="70" width="6" height="1" fill="rgb(251,154,16)"/><rect x="35" y="70" width="23" height="1" fill="rgb(251,138,0)"/><rect x="58" y="70" width="2" height="1" fill="rgb(251,154,16)"/><rect x="60" y="70" width="2" height="1" fill="rgb(251,162,40)"/><rect x="4" y="71" width="1" height="1" fill="rgb(251,170,73)"/><rect x="5" y="71" width="2" height="1" fill="rgb(251,162,40)"/><rect x="7" y="71" width="2" height="1" fill="rgb(251,154,16)"/><rect x="9" y="71" width="11" height="1" fill="rgb(251,138,0)"/><rect x="20" y="71" width="26" height="1" fill="rgb(251,154,16)"/><rect x="46" y="71" width="11" height="1" fill="rgb(251,138,0)"/><rect x="57" y="71" width="2" height="1" fill="rgb(251,154,16)"/><rect x="59" y="71" width="2" height="1" fill="rgb(251,162,40)"/><rect x="61" y="71" width="1" height="1" fill="rgb(251,170,73)"/><rect x="3" y="70" width="1" height="3" fill="rgb(251,154,16)"/><rect x="62" y="70" width="1" height="3" fill="rgb(251,154,16)"/><rect x="1" y="71" width="1" height="2" fill="rgb(251,121,0)"/><rect x="2" y="71" width="1" height="2" fill="rgb(251,113,32)"/><rect x="63" y="71" width="1" height="2" fill="rgb(251,113,32)"/><rect x="64" y="71" width="1" height="2" fill="rgb(251,121,0)"/><rect x="6" y="72" width="2" height="1" fill="rgb(251,162,40)"/><rect x="8" y="72" width="50" height="1" fill="rgb(251,154,16)"/><rect x="58" y="72" width="2" height="1" fill="rgb(251,162,40)"/><rect x="4" y="72" width="2" height="2" fill="rgb(251,170,73)"/><rect x="60" y="72" width="2" height="2" fill="rgb(251,170,73)"/><rect x="1" y="73" width="2" height="1" fill="rgb(251,113,32)"/><rect x="3" y="73" width="1" height="1" fill="rgb(251,162,40)"/><rect x="6" y="73" width="3" height="1" fill="rgb(251,162,40)"/><rect x="9" y="73" width="16" height="1" fill="rgb(251,154,16)"/><rect x="25" y="73" width="14" height="1" fill="rgb(251,162,40)"/><rect x="39" y="73" width="1" height="1" fill="rgb(251,154,16)"/><rect x="40" y="73" width="1" height="1" fill="rgb(251,162,40)"/><rect x="41" y="73" width="16" height="1" fill="rgb(251,154,16)"/><rect x="57" y="73" width="3" height="1" fill="rgb(251,162,40)"/><rect x="62" y="73" width="1" height="1" fill="rgb(251,162,40)"/><rect x="63" y="73" width="2" height="1" fill="rgb(251,113,32)"/><rect x="2" y="74" width="1" height="1" fill="rgb(251,121,0)"/><rect x="3" y="74" width="1" height="1" fill="rgb(251,170,73)"/><rect x="4" y="74" width="1" height="1" fill="rgb(251,186,97)"/><rect x="5" y="74" width="2" height="1" fill="rgb(251,170,73)"/><rect x="7" y="74" width="6" height="1" fill="rgb(251,162,40)"/><rect x="13" y="74" width="6" height="1" fill="rgb(251,154,16)"/><rect x="19" y="74" width="28" height="1" fill="rgb(251,162,40)"/><rect x="47" y="74" width="6" height="1" fill="rgb(251,154,16)"/><rect x="53" y="74" width="6" height="1" fill="rgb(251,162,40)"/><rect x="59" y="74" width="2" height="1" fill="rgb(251,170,73)"/><rect x="61" y="74" width="1" height="1" fill="rgb(251,186,97)"/><rect x="62" y="74" width="1" height="1" fill="rgb(251,170,73)"/><rect x="63" y="74" width="1" height="1" fill="rgb(251,121,0)"/><rect x="3" y="75" width="3" height="1" fill="rgb(251,186,97)"/><rect x="6" y="75" width="2" height="1" fill="rgb(251,170,73)"/><rect x="8" y="75" width="50" height="1" fill="rgb(251,162,40)"/><rect x="58" y="75" width="2" height="1" fill="rgb(251,170,73)"/><rect x="60" y="75" width="3" height="1" fill="rgb(251,186,97)"/><rect x="1" y="74" width="1" height="3" fill="rgb(251,113,32)"/><rect x="64" y="74" width="1" height="3" fill="rgb(251,113,32)"/><rect x="2" y="75" width="1" height="2" fill="rgb(251,138,0)"/><rect x="63" y="75" width="1" height="2" fill="rgb(251,138,0)"/><rect x="3" y="76" width="4" height="1" fill="rgb(251,186,97)"/><rect x="7" y="76" width="4" height="1" fill="rgb(251,170,73)"/><rect x="11" y="76" width="9" height="1" fill="rgb(251,162,40)"/><rect x="20" y="76" width="26" height="1" fill="rgb(251,170,73)"/><rect x="46" y="76" width="9" height="1" fill="rgb(251,162,40)"/><rect x="55" y="76" width="4" height="1" fill="rgb(251,170,73)"/><rect x="59" y="76" width="4" height="1" fill="rgb(251,186,97)"/><rect x="0" y="4" width="1" height="74" fill="rgb(251,211,154)"/><rect x="65" y="4" width="1" height="74" fill="rgb(251,211,154)"/><rect x="1" y="77" width="1" height="1" fill="rgb(251,121,0)"/><rect x="2" y="77" width="1" height="1" fill="rgb(251,162,40)"/><rect x="3" y="77" width="6" height="1" fill="rgb(251,186,97)"/><rect x="9" y="77" width="48" height="1" fill="rgb(251,170,73)"/><rect x="57" y="77" width="6" height="1" fill="rgb(251,186,97)"/><rect x="63" y="77" width="1" height="1" fill="rgb(251,162,40)"/><rect x="64" y="77" width="1" height="1" fill="rgb(251,121,0)"/><rect x="1" y="78" width="1" height="1" fill="rgb(251,154,16)"/><rect x="2" y="78" width="11" height="1" fill="rgb(251,186,97)"/><rect x="13" y="78" width="40" height="1" fill="rgb(251,170,73)"/><rect x="53" y="78" width="11" height="1" fill="rgb(251,186,97)"/><rect x="64" y="78" width="1" height="1" fill="rgb(251,154,16)"/><rect x="1" y="79" width="1" height="1" fill="rgb(251,203,121)"/><rect x="2" y="79" width="62" height="1" fill="rgb(251,186,97)"/><rect x="64" y="79" width="1" height="1" fill="rgb(251,203,121)"/><rect x="2" y="80" width="1" height="1" fill="rgb(251,203,121)"/><rect x="3" y="80" width="60" height="1" fill="rgb(251,170,73)"/><rect x="63" y="80" width="1" height="1" fill="rgb(251,203,121)"/><rect x="4" y="81" width="58" height="1" fill="rgb(251,211,154)"/></svg>