<svg xmlns="http://www.w3.org/2000/svg" width="128" height="144" viewBox="0 0 128 144"><rect x="79" y="25" width="4" height="1" fill="rgb(44,131,251)"/><rect x="78" y="26" width="2" height="1" fill="rgb(44,131,251)"/><rect x="80" y="26" width="2" height="1" fill="rgb(71,155,251)"/><rect x="82" y="26" width="2" height="1" fill="rgb(44,131,251)"/><rect x="78" y="27" width="2" height="1" fill="rgb(17,114,251)"/><rect x="80" y="27" width="2" height="1" fill="rgb(44,131,251)"/><rect x="82" y="27" width="2" height="1" fill="rgb(17,114,251)"/><rect x="78" y="28" width="1" height="1" fill="rgb(0,71,228)"/><rect x="79" y="28" width="4" height="1" fill="rgb(17,114,251)"/><rect x="83" y="28" width="1" height="1" fill="rgb(0,71,228)"/><rect x="78" y="29" width="1" height="1" fill="rgb(17,114,251)"/><rect x="79" y="29" width="1" height="1" fill="rgb(0,71,228)"/><rect x="80" y="29" width="2" height="1" fill="rgb(0,53,212)"/><rect x="82" y="29" width="1" height="1" fill="rgb(0,71,228)"/><rect x="83" y="29" width="1" height="1" fill="rgb(17,114,251)"/><rect x="79" y="30" width="1" height="1" fill="rgb(17,114,251)"/><rect x="80" y="30" width="2" height="1" fill="rgb(0,71,228)"/><rect x="82" y="30" width="1" height="1" fill="rgb(17,114,251)"/><rect x="98" y="38" width="4" height="1" fill="rgb(44,131,251)"/><rect x="97" y="39" width="1" height="1" fill="rgb(44,131,251)"/><rect x="98" y="39" width="1" height="1" fill="rgb(71,155,251)"/><rect x="99" y="39" width="2" height="1" fill="rgb(97,179,251)"/><rect x="101" y="39" width="1" height="1" fill="rgb(71,155,251)"/><rect x="102" y="39" width="1" height="1" fill="rgb(44,131,251)"/><rect x="96" y="40" width="2" height="1" fill="rgb(17,114,251)"/><rect x="98" y="40" width="1" height="1" fill="rgb(44,131,251)"/><rect x="99" y="40" width="2" height="1" fill="rgb(71,155,251)"/><rect x="101" y="40" width="1" height="1" fill="rgb(44,131,251)"/><rect x="102" y="40" width="2" height="1" fill="rgb(17,114,251)"/><rect x="97" y="41" width="2" height="1" fill="rgb(17,114,251)"/><rect x="99" y="41" width="2" height="1" fill="rgb(44,131,251)"/><rect x="101" y="41" width="2" height="1" fill="rgb(17,114,251)"/><rect x="96" y="41" width="1" height="2" fill="rgb(0,88,243)"/><rect x="103" y="41" width="1" height="2" fill="rgb(0,88,243)"/><rect x="97" y="42" width="1" height="1" fill="rgb(0,71,228)"/><rect x="98" y="42" width="4" height="1" fill="rgb(17,114,251)"/><rect x="102" y="42" width="1" height="1" fill="rgb(0,71,228)"/><rect x="96" y="43" width="1" height="1" fill="rgb(17,114,251)"/><rect x="97" y="43" width="1" height="1" fill="rgb(0,88,243)"/><rect x="98" y="43" width="1" height="1" fill="rgb(0,71,228)"/><rect x="99" y="43" width="2" height="1" fill="rgb(0,53,212)"/><rect x="101" y="43" width="1" height="1" fill="rgb(0,71,228)"/><rect x="102" y="43" width="1" height="1" fill="rgb(0,88,243)"/><rect x="103" y="43" width="1" height="1" fill="rgb(17,114,251)"/><rect x="97" y="44" width="1" height="1" fill="rgb(44,131,251)"/><rect x="98" y="44" width="1" height="1" fill="rgb(0,88,243)"/><rect x="99" y="44" width="2" height="1" fill="rgb(0,71,228)"/><rect x="101" y="44" width="1" height="1" fill="rgb(0,88,243)"/><rect x="102" y="44" width="1" height="1" fill="rgb(44,131,251)"/><rect x="98" y="45" width="4" height="1" fill="rgb(44,131,251)"/><rect x="19" y="53" width="2" height="2" fill="rgb(44,131,251)"/><rect x="18" y="54" width="1" height="1" fill="rgb(0,71,228)"/><rect x="21" y="54" width="1" height="1" fill="rgb(0,71,228)"/><rect x="18" y="55" width="1" height="1" fill="rgb(0,88,243)"/><rect x="19" y="55" width="2" height="1" fill="rgb(0,71,228)"/><rect x="21" y="55" width="1" height="1" fill="rgb(0,88,243)"/><rect x="19" y="56" width="2" height="1" fill="rgb(17,114,251)"/><rect x="109" y="61" width="4" height="1" fill="rgb(44,131,251)"/><rect x="108" y="62" width="1" height="1" fill="rgb(44,131,251)"/><rect x="109" y="62" width="1" height="1" fill="rgb(71,155,251)"/><rect x="110" y="62" width="2" height="1" fill="rgb(97,179,251)"/><rect x="112" y="62" width="1" height="1" fill="rgb(71,155,251)"/><rect x="113" y="62" width="1" height="1" fill="rgb(44,131,251)"/><rect x="107" y="63" width="2" height="1" fill="rgb(17,114,251)"/><rect x="109" y="63" width="1" height="1" fill="rgb(44,131,251)"/><rect x="110" y="63" width="2" height="1" fill="rgb(71,155,251)"/><rect x="112" y="63" width="1" height="1" fill="rgb(44,131,251)"/><rect x="113" y="63" width="2" height="1" fill="rgb(17,114,251)"/><rect x="108" y="64" width="2" height="1" fill="rgb(17,114,251)"/><rect x="110" y="64" width="2" height="1" fill="rgb(44,131,251)"/><rect x="112" y="64" width="2" height="1" fill="rgb(17,114,251)"/><rect x="107" y="64" width="1" height="2" fill="rgb(0,88,243)"/><rect x="114" y="64" width="1" height="2" fill="rgb(0,88,243)"/><rect x="108" y="65" width="1" height="1" fill="rgb(0,71,228)"/><rect x="109" y="65" width="4" height="1" fill="rgb(17,114,251)"/><rect x="113" y="65" width="1" height="1" fill="rgb(0,71,228)"/><rect x="107" y="66" width="1" height="1" fill="rgb(17,114,251)"/><rect x="108" y="66" width="1" height="1" fill="rgb(0,88,243)"/><rect x="109" y="66" width="1" height="1" fill="rgb(0,71,228)"/><rect x="110" y="66" width="2" height="1" fill="rgb(0,53,212)"/><rect x="112" y="66" width="1" height="1" fill="rgb(0,71,228)"/><rect x="113" y="66" width="1" height="1" fill="rgb(0,88,243)"/><rect x="114" y="66" width="1" height="1" fill="rgb(17,114,251)"/><rect x="108" y="67" width="1" height="1" fill="rgb(44,131,251)"/><rect x="109" y="67" width="1" height="1" fill="rgb(0,88,243)"/><rect x="110" y="67" width="2" height="1" fill="rgb(0,71,228)"/><rect x="112" y="67" width="1" height="1" fill="rgb(0,88,243)"/><rect x="113" y="67" width="1" height="1" fill="rgb(44,131,251)"/><rect x="109" y="68" width="4" height="1" fill="rgb(44,131,251)"/><rect x="15" y="76" width="4" height="1" fill="rgb(44,131,251)"/><rect x="14" y="77" width="2" height="1" fill="rgb(44,131,251)"/><rect x="16" y="77" width="2" height="1" fill="rgb(71,155,251)"/><rect x="18" y="77" width="2" height="1" fill="rgb(44,131,251)"/><rect x="14" y="78" width="2" height="1" fill="rgb(17,114,251)"/><rect x="16" y="78" width="2" height="1" fill="rgb(44,131,251)"/><rect x="18" y="78" width="2" height="1" fill="rgb(17,114,251)"/><rect x="14" y="79" width="1" height="1" fill="rgb(0,71,228)"/><rect x="15" y="79" width="4" height="1" fill="rgb(17,114,251)"/><rect x="19" y="79" width="1" height="1" fill="rgb(0,71,228)"/><rect x="14" y="80" width="1" height="1" fill="rgb(17,114,251)"/><rect x="15" y="80" width="1" height="1" fill="rgb(0,71,228)"/><rect x="16" y="80" width="2" height="1" fill="rgb(0,53,212)"/><rect x="18" y="80" width="1" height="1" fill="rgb(0,71,228)"/><rect x="19" y="80" width="1" height="1" fill="rgb(17,114,251)"/><rect x="15" y="81" width="1" height="1" fill="rgb(17,114,251)"/><rect x="16" y="81" width="2" height="1" fill="rgb(0,71,228)"/><rect x="18" y="81" width="1" height="1" fill="rgb(17,114,251)"/><rect x="106" y="84" width="4" height="1" fill="rgb(44,131,251)"/><rect x="104" y="85" width="2" height="1" fill="rgb(44,131,251)"/><rect x="106" y="85" width="1" height="1" fill="rgb(71,155,251)"/><rect x="107" y="85" width="2" height="1" fill="rgb(97,179,251)"/><rect x="109" y="85" width="1" height="1" fill="rgb(71,155,251)"/><rect x="110" y="85" width="2" height="1" fill="rgb(44,131,251)"/><rect x="104" y="86" width="1" height="1" fill="rgb(44,131,251)"/><rect x="105" y="86" width="6" height="1" fill="rgb(71,155,251)"/><rect x="111" y="86" width="1" height="1" fill="rgb(44,131,251)"/><rect x="103" y="87" width="1" height="1" fill="rgb(0,88,243)"/><rect x="104" y="87" width="1" height="1" fill="rgb(17,114,251)"/><rect x="105" y="87" width="1" height="1" fill="rgb(44,131,251)"/><rect x="106" y="87" width="4" height="1" fill="rgb(71,155,251)"/><rect x="110" y="87" width="1" height="1" fill="rgb(44,131,251)"/><rect x="111" y="87" width="1" height="1" fill="rgb(17,114,251)"/><rect x="112" y="87" width="1" height="1" fill="rgb(0,88,243)"/><rect x="103" y="88" width="1" height="1" fill="rgb(0,71,228)"/><rect x="104" y="88" width="2" height="1" fill="rgb(17,114,251)"/><rect x="106" y="88" width="4" height="1" fill="rgb(44,131,251)"/><rect x="110" y="88" width="2" height="1" fill="rgb(17,114,251)"/><rect x="112" y="88" width="1" height="1" fill="rgb(0,71,228)"/><rect x="104" y="89" width="1" height="1" fill="rgb(0,71,228)"/><rect x="105" y="89" width="1" height="1" fill="rgb(0,88,243)"/><rect x="106" y="89" width="4" height="1" fill="rgb(17,114,251)"/><rect x="110" y="89" width="1" height="1" fill="rgb(0,88,243)"/><rect x="111" y="89" width="1" height="1" fill="rgb(0,71,228)"/><rect x="103" y="89" width="1" height="2" fill="rgb(0,88,243)"/><rect x="112" y="89" width="1" height="2" fill="rgb(0,88,243)"/><rect x="104" y="90" width="2" height="1" fill="rgb(0,71,228)"/><rect x="106" y="90" width="4" height="1" fill="rgb(0,53,212)"/><rect x="110" y="90" width="2" height="1" fill="rgb(0,71,228)"/><rect x="104" y="91" width="1" height="1" fill="rgb(0,88,243)"/><rect x="105" y="91" width="6" height="1" fill="rgb(0,71,228)"/><rect x="111" y="91" width="1" height="1" fill="rgb(0,88,243)"/><rect x="104" y="92" width="2" height="1" fill="rgb(44,131,251)"/><rect x="106" y="92" width="4" height="1" fill="rgb(0,88,243)"/><rect x="110" y="92" width="2" height="1" fill="rgb(44,131,251)"/><rect x="106" y="93" width="4" height="1" fill="rgb(44,131,251)"/><rect x="26" y="98" width="4" height="1" fill="rgb(44,131,251)"/><rect x="25" y="99" width="1" height="1" fill="rgb(44,131,251)"/><rect x="26" y="99" width="1" height="1" fill="rgb(71,155,251)"/><rect x="27" y="99" width="2" height="1" fill="rgb(97,179,251)"/><rect x="29" y="99" width="1" height="1" fill="rgb(71,155,251)"/><rect x="30" y="99" width="1" height="1" fill="rgb(44,131,251)"/><rect x="24" y="100" width="2" height="1" fill="rgb(17,114,251)"/><rect x="26" y="100" width="1" height="1" fill="rgb(44,131,251)"/><rect x="27" y="100" width="2" height="1" fill="rgb(71,155,251)"/><rect x="29" y="100" width="1" height="1" fill="rgb(44,131,251)"/><rect x="30" y="100" width="2" height="1" fill="rgb(17,114,251)"/><rect x="25" y="101" width="2" height="1" fill="rgb(17,114,251)"/><rect x="27" y="101" width="2" height="1" fill="rgb(44,131,251)"/><rect x="29" y="101" width="2" height="1" fill="rgb(17,114,251)"/><rect x="24" y="101" width="1" height="2" fill="rgb(0,88,243)"/><rect x="31" y="101" width="1" height="2" fill="rgb(0,88,243)"/><rect x="25" y="102" width="1" height="1" fill="rgb(0,71,228)"/><rect x="26" y="102" width="4" height="1" fill="rgb(17,114,251)"/><rect x="30" y="102" width="1" height="1" fill="rgb(0,71,228)"/><rect x="92" y="102" width="4" height="1" fill="rgb(44,131,251)"/><rect x="24" y="103" width="1" height="1" fill="rgb(17,114,251)"/><rect x="25" y="103" width="1" height="1" fill="rgb(0,88,243)"/><rect x="26" y="103" width="1" height="1" fill="rgb(0,71,228)"/><rect x="27" y="103" width="2" height="1" fill="rgb(0,53,212)"/><rect x="29" y="103" width="1" height="1" fill="rgb(0,71,228)"/><rect x="30" y="103" width="1" height="1" fill="rgb(0,88,243)"/><rect x="31" y="103" width="1" height="1" fill="rgb(17,114,251)"/><rect x="90" y="103" width="2" height="1" fill="rgb(44,131,251)"/><rect x="92" y="103" width="4" height="1" fill="rgb(71,155,251)"/><rect x="96" y="103" width="2" height="1" fill="rgb(44,131,251)"/><rect x="25" y="104" width="1" height="1" fill="rgb(44,131,251)"/><rect x="26" y="104" width="1" height="1" fill="rgb(0,88,243)"/><rect x="27" y="104" width="2" height="1" fill="rgb(0,71,228)"/><rect x="29" y="104" width="1" height="1" fill="rgb(0,88,243)"/><rect x="30" y="104" width="1" height="1" fill="rgb(44,131,251)"/><rect x="89" y="104" width="2" height="1" fill="rgb(44,131,251)"/><rect x="91" y="104" width="1" height="1" fill="rgb(71,155,251)"/><rect x="92" y="104" width="4" height="1" fill="rgb(97,179,251)"/><rect x="96" y="104" width="1" height="1" fill="rgb(71,155,251)"/><rect x="97" y="104" width="2" height="1" fill="rgb(44,131,251)"/><rect x="26" y="105" width="4" height="1" fill="rgb(44,131,251)"/><rect x="89" y="105" width="1" height="1" fill="rgb(44,131,251)"/><rect x="90" y="105" width="8" height="1" fill="rgb(71,155,251)"/><rect x="98" y="105" width="1" height="1" fill="rgb(44,131,251)"/><rect x="90" y="106" width="1" height="1" fill="rgb(17,114,251)"/><rect x="91" y="106" width="1" height="1" fill="rgb(44,131,251)"/><rect x="92" y="106" width="4" height="1" fill="rgb(71,155,251)"/><rect x="96" y="106" width="1" height="1" fill="rgb(44,131,251)"/><rect x="97" y="106" width="1" height="1" fill="rgb(17,114,251)"/><rect x="89" y="106" width="1" height="2" fill="rgb(0,88,243)"/><rect x="98" y="106" width="1" height="2" fill="rgb(0,88,243)"/><rect x="90" y="107" width="2" height="1" fill="rgb(17,114,251)"/><rect x="92" y="107" width="4" height="1" fill="rgb(44,131,251)"/><rect x="96" y="107" width="2" height="1" fill="rgb(17,114,251)"/><rect x="89" y="108" width="1" height="1" fill="rgb(0,71,228)"/><rect x="90" y="108" width="2" height="1" fill="rgb(0,88,243)"/><rect x="92" y="108" width="4" height="1" fill="rgb(17,114,251)"/><rect x="96" y="108" width="2" height="1" fill="rgb(0,88,243)"/><rect x="98" y="108" width="1" height="1" fill="rgb(0,71,228)"/><rect x="88" y="106" width="1" height="4" fill="rgb(17,114,251)"/><rect x="99" y="106" width="1" height="4" fill="rgb(17,114,251)"/><rect x="89" y="109" width="1" height="1" fill="rgb(0,88,243)"/><rect x="90" y="109" width="1" height="1" fill="rgb(0,71,228)"/><rect x="91" y="109" width="1" height="1" fill="rgb(0,53,212)"/><rect x="92" y="109" width="1" height="1" fill="rgb(0,71,228)"/><rect x="93" y="109" width="2" height="1" fill="rgb(0,88,243)"/><rect x="95" y="109" width="1" height="1" fill="rgb(0,71,228)"/><rect x="96" y="109" width="1" height="1" fill="rgb(0,53,212)"/><rect x="97" y="109" width="1" height="1" fill="rgb(0,71,228)"/><rect x="98" y="109" width="1" height="1" fill="rgb(0,88,243)"/><rect x="90" y="110" width="1" height="1" fill="rgb(0,88,243)"/><rect x="91" y="110" width="1" height="1" fill="rgb(0,71,228)"/><rect x="92" y="110" width="1" height="1" fill="rgb(0,53,212)"/><rect x="93" y="110" width="2" height="1" fill="rgb(0,35,187)"/><rect x="95" y="110" width="1" height="1" fill="rgb(0,53,212)"/><rect x="96" y="110" width="1" height="1" fill="rgb(0,71,228)"/><rect x="97" y="110" width="1" height="1" fill="rgb(0,88,243)"/><rect x="89" y="110" width="1" height="2" fill="rgb(17,114,251)"/><rect x="98" y="110" width="1" height="2" fill="rgb(17,114,251)"/><rect x="45" y="111" width="4" height="1" fill="rgb(44,131,251)"/><rect x="90" y="111" width="2" height="1" fill="rgb(0,88,243)"/><rect x="92" y="111" width="4" height="1" fill="rgb(0,71,228)"/><rect x="96" y="111" width="2" height="1" fill="rgb(0,88,243)"/><rect x="43" y="112" width="2" height="1" fill="rgb(44,131,251)"/><rect x="45" y="112" width="1" height="1" fill="rgb(71,155,251)"/><rect x="46" y="112" width="2" height="1" fill="rgb(97,179,251)"/><rect x="48" y="112" width="1" height="1" fill="rgb(71,155,251)"/><rect x="49" y="112" width="2" height="1" fill="rgb(44,131,251)"/><rect x="90" y="112" width="1" height="1" fill="rgb(44,131,251)"/><rect x="91" y="112" width="6" height="1" fill="rgb(17,114,251)"/><rect x="97" y="112" width="1" height="1" fill="rgb(44,131,251)"/><rect x="43" y="113" width="1" height="1" fill="rgb(44,131,251)"/><rect x="44" y="113" width="6" height="1" fill="rgb(71,155,251)"/><rect x="50" y="113" width="1" height="1" fill="rgb(44,131,251)"/><rect x="69" y="113" width="4" height="1" fill="rgb(44,131,251)"/><rect x="92" y="113" width="4" height="1" fill="rgb(44,131,251)"/><rect x="42" y="114" width="1" height="1" fill="rgb(0,88,243)"/><rect x="43" y="114" width="1" height="1" fill="rgb(17,114,251)"/><rect x="44" y="114" width="1" height="1" fill="rgb(44,131,251)"/><rect x="45" y="114" width="4" height="1" fill="rgb(71,155,251)"/><rect x="49" y="114" width="1" height="1" fill="rgb(44,131,251)"/><rect x="50" y="114" width="1" height="1" fill="rgb(17,114,251)"/><rect x="51" y="114" width="1" height="1" fill="rgb(0,88,243)"/><rect x="67" y="114" width="2" height="1" fill="rgb(44,131,251)"/><rect x="69" y="114" width="4" height="1" fill="rgb(71,155,251)"/><rect x="73" y="114" width="2" height="1" fill="rgb(44,131,251)"/><rect x="42" y="115" width="1" height="1" fill="rgb(0,71,228)"/><rect x="43" y="115" width="2" height="1" fill="rgb(17,114,251)"/><rect x="45" y="115" width="4" height="1" fill="rgb(44,131,251)"/><rect x="49" y="115" width="2" height="1" fill="rgb(17,114,251)"/><rect x="51" y="115" width="1" height="1" fill="rgb(0,71,228)"/><rect x="66" y="115" width="2" height="1" fill="rgb(44,131,251)"/><rect x="68" y="115" width="1" height="1" fill="rgb(71,155,251)"/><rect x="69" y="115" width="4" height="1" fill="rgb(97,179,251)"/><rect x="73" y="115" width="1" height="1" fill="rgb(71,155,251)"/><rect x="74" y="115" width="2" height="1" fill="rgb(44,131,251)"/><rect x="43" y="116" width="1" height="1" fill="rgb(0,71,228)"/><rect x="44" y="116" width="1" height="1" fill="rgb(0,88,243)"/><rect x="45" y="116" width="4" height="1" fill="rgb(17,114,251)"/><rect x="49" y="116" width="1" height="1" fill="rgb(0,88,243)"/><rect x="50" y="116" width="1" height="1" fill="rgb(0,71,228)"/><rect x="66" y="116" width="1" height="1" fill="rgb(44,131,251)"/><rect x="67" y="116" width="8" height="1" fill="rgb(71,155,251)"/><rect x="75" y="116" width="1" height="1" fill="rgb(44,131,251)"/><rect x="42" y="116" width="1" height="2" fill="rgb(0,88,243)"/><rect x="51" y="116" width="1" height="2" fill="rgb(0,88,243)"/><rect x="43" y="117" width="2" height="1" fill="rgb(0,71,228)"/><rect x="45" y="117" width="4" height="1" fill="rgb(0,53,212)"/><rect x="49" y="117" width="2" height="1" fill="rgb(0,71,228)"/><rect x="67" y="117" width="1" height="1" fill="rgb(17,114,251)"/><rect x="68" y="117" width="1" height="1" fill="rgb(44,131,251)"/><rect x="69" y="117" width="4" height="1" fill="rgb(71,155,251)"/><rect x="73" y="117" width="1" height="1" fill="rgb(44,131,251)"/><rect x="74" y="117" width="1" height="1" fill="rgb(17,114,251)"/><rect x="66" y="117" width="1" height="2" fill="rgb(0,88,243)"/><rect x="75" y="117" width="1" height="2" fill="rgb(0,88,243)"/><rect x="43" y="118" width="1" height="1" fill="rgb(0,88,243)"/><rect x="44" y="118" width="6" height="1" fill="rgb(0,71,228)"/><rect x="50" y="118" width="1" height="1" fill="rgb(0,88,243)"/><rect x="67" y="118" width="2" height="1" fill="rgb(17,114,251)"/><rect x="69" y="118" width="4" height="1" fill="rgb(44,131,251)"/><rect x="73" y="118" width="2" height="1" fill="rgb(17,114,251)"/><rect x="43" y="119" width="2" height="1" fill="rgb(44,131,251)"/><rect x="45" y="119" width="4" height="1" fill="rgb(0,88,243)"/><rect x="49" y="119" width="2" height="1" fill="rgb(44,131,251)"/><rect x="66" y="119" width="1" height="1" fill="rgb(0,71,228)"/><rect x="67" y="119" width="2" height="1" fill="rgb(0,88,243)"/><rect x="69" y="119" width="4" height="1" fill="rgb(17,114,251)"/><rect x="73" y="119" width="2" height="1" fill="rgb(0,88,243)"/><rect x="75" y="119" width="1" height="1" fill="rgb(0,71,228)"/><rect x="65" y="117" width="1" height="4" fill="rgb(17,114,251)"/><rect x="76" y="117" width="1" height="4" fill="rgb(17,114,251)"/><rect x="45" y="120" width="4" height="1" fill="rgb(44,131,251)"/><rect x="66" y="120" width="1" height="1" fill="rgb(0,88,243)"/><rect x="67" y="120" width="1" height="1" fill="rgb(0,71,228)"/><rect x="68" y="120" width="1" height="1" fill="rgb(0,53,212)"/><rect x="69" y="120" width="1" height="1" fill="rgb(0,71,228)"/><rect x="70" y="120" width="2" height="1" fill="rgb(0,88,243)"/><rect x="72" y="120" width="1" height="1" fill="rgb(0,71,228)"/><rect x="73" y="120" width="1" height="1" fill="rgb(0,53,212)"/><rect x="74" y="120" width="1" height="1" fill="rgb(0,71,228)"/><rect x="75" y="120" width="1" height="1" fill="rgb(0,88,243)"/><rect x="67" y="121" width="1" height="1" fill="rgb(0,88,243)"/><rect x="68" y="121" width="1" height="1" fill="rgb(0,71,228)"/><rect x="69" y="121" width="1" height="1" fill="rgb(0,53,212)"/><rect x="70" y="121" width="2" height="1" fill="rgb(0,35,187)"/><rect x="72" y="121" width="1" height="1" fill="rgb(0,53,212)"/><rect x="73" y="121" width="1" height="1" fill="rgb(0,71,228)"/><rect x="74" y="121" width="1" height="1" fill="rgb(0,88,243)"/><rect x="66" y="121" width="1" height="2" fill="rgb(17,114,251)"/><rect x="75" y="121" width="1" height="2" fill="rgb(17,114,251)"/><rect x="67" y="122" width="2" height="1" fill="rgb(0,88,243)"/><rect x="69" y="122" width="4" height="1" fill="rgb(0,71,228)"/><rect x="73" y="122" width="2" height="1" fill="rgb(0,88,243)"/><rect x="67" y="123" width="1" height="1" fill="rgb(44,131,251)"/><rect x="68" y="123" width="6" height="1" fill="rgb(17,114,251)"/><rect x="74" y="123" width="1" height="1" fill="rgb(44,131,251)"/><rect x="69" y="124" width="4" height="1" fill="rgb(44,131,251)"/></svg>