<svg xmlns="http://www.w3.org/2000/svg" width="128" height="144" viewBox="0 0 128 144"><rect x="73" y="22" width="4" height="1" fill="rgb(44,131,251)"/><rect x="72" y="23" width="1" height="1" fill="rgb(44,131,251)"/><rect x="73" y="23" width="1" height="1" fill="rgb(71,155,251)"/><rect x="74" y="23" width="2" height="1" fill="rgb(97,179,251)"/><rect x="76" y="23" width="1" height="1" fill="rgb(71,155,251)"/><rect x="77" y="23" width="1" height="1" fill="rgb(44,131,251)"/><rect x="48" y="24" width="4" height="1" fill="rgb(44,131,251)"/><rect x="71" y="24" width="2" height="1" fill="rgb(17,114,251)"/><rect x="73" y="24" width="1" height="1" fill="rgb(44,131,251)"/><rect x="74" y="24" width="2" height="1" fill="rgb(71,155,251)"/><rect x="76" y="24" width="1" height="1" fill="rgb(44,131,251)"/><rect x="77" y="24" width="2" height="1" fill="rgb(17,114,251)"/><rect x="47" y="25" width="2" height="1" fill="rgb(44,131,251)"/><rect x="49" y="25" width="2" height="1" fill="rgb(71,155,251)"/><rect x="51" y="25" width="2" height="1" fill="rgb(44,131,251)"/><rect x="72" y="25" width="2" height="1" fill="rgb(17,114,251)"/><rect x="74" y="25" width="2" height="1" fill="rgb(44,131,251)"/><rect x="76" y="25" width="2" height="1" fill="rgb(17,114,251)"/><rect x="71" y="25" width="1" height="2" fill="rgb(0,88,243)"/><rect x="78" y="25" width="1" height="2" fill="rgb(0,88,243)"/><rect x="47" y="26" width="2" height="1" fill="rgb(17,114,251)"/><rect x="49" y="26" width="2" height="1" fill="rgb(44,131,251)"/><rect x="51" y="26" width="2" height="1" fill="rgb(17,114,251)"/><rect x="72" y="26" width="1" height="1" fill="rgb(0,71,228)"/><rect x="73" y="26" width="4" height="1" fill="rgb(17,114,251)"/><rect x="77" y="26" width="1" height="1" fill="rgb(0,71,228)"/><rect x="47" y="27" width="1" height="1" fill="rgb(0,71,228)"/><rect x="48" y="27" width="4" height="1" fill="rgb(17,114,251)"/><rect x="52" y="27" width="1" height="1" fill="rgb(0,71,228)"/><rect x="71" y="27" width="1" height="1" fill="rgb(17,114,251)"/><rect x="72" y="27" width="1" height="1" fill="rgb(0,88,243)"/><rect x="73" y="27" width="1" height="1" fill="rgb(0,71,228)"/><rect x="74" y="27" width="2" height="1" fill="rgb(0,53,212)"/><rect x="76" y="27" width="1" height="1" fill="rgb(0,71,228)"/><rect x="77" y="27" width="1" height="1" fill="rgb(0,88,243)"/><rect x="78" y="27" width="1" height="1" fill="rgb(17,114,251)"/><rect x="47" y="28" width="1" height="1" fill="rgb(17,114,251)"/><rect x="48" y="28" width="1" height="1" fill="rgb(0,71,228)"/><rect x="49" y="28" width="2" height="1" fill="rgb(0,53,212)"/><rect x="51" y="28" width="1" height="1" fill="rgb(0,71,228)"/><rect x="52" y="28" width="1" height="1" fill="rgb(17,114,251)"/><rect x="72" y="28" width="1" height="1" fill="rgb(44,131,251)"/><rect x="73" y="28" width="1" height="1" fill="rgb(0,88,243)"/><rect x="74" y="28" width="2" height="1" fill="rgb(0,71,228)"/><rect x="76" y="28" width="1" height="1" fill="rgb(0,88,243)"/><rect x="77" y="28" width="1" height="1" fill="rgb(44,131,251)"/><rect x="48" y="29" width="1" height="1" fill="rgb(17,114,251)"/><rect x="49" y="29" width="2" height="1" fill="rgb(0,71,228)"/><rect x="51" y="29" width="1" height="1" fill="rgb(17,114,251)"/><rect x="73" y="29" width="4" height="1" fill="rgb(44,131,251)"/><rect x="94" y="33" width="4" height="1" fill="rgb(44,131,251)"/><rect x="93" y="34" width="1" height="1" fill="rgb(44,131,251)"/><rect x="94" y="34" width="1" height="1" fill="rgb(71,155,251)"/><rect x="95" y="34" width="2" height="1" fill="rgb(97,179,251)"/><rect x="97" y="34" width="1" height="1" fill="rgb(71,155,251)"/><rect x="98" y="34" width="1" height="1" fill="rgb(44,131,251)"/><rect x="92" y="35" width="2" height="1" fill="rgb(17,114,251)"/><rect x="94" y="35" width="1" height="1" fill="rgb(44,131,251)"/><rect x="95" y="35" width="2" height="1" fill="rgb(71,155,251)"/><rect x="97" y="35" width="1" height="1" fill="rgb(44,131,251)"/><rect x="98" y="35" width="2" height="1" fill="rgb(17,114,251)"/><rect x="27" y="36" width="4" height="1" fill="rgb(44,131,251)"/><rect x="93" y="36" width="2" height="1" fill="rgb(17,114,251)"/><rect x="95" y="36" width="2" height="1" fill="rgb(44,131,251)"/><rect x="97" y="36" width="2" height="1" fill="rgb(17,114,251)"/><rect x="92" y="36" width="1" height="2" fill="rgb(0,88,243)"/><rect x="99" y="36" width="1" height="2" fill="rgb(0,88,243)"/><rect x="26" y="37" width="1" height="1" fill="rgb(44,131,251)"/><rect x="27" y="37" width="1" height="1" fill="rgb(71,155,251)"/><rect x="28" y="37" width="2" height="1" fill="rgb(97,179,251)"/><rect x="30" y="37" width="1" height="1" fill="rgb(71,155,251)"/><rect x="31" y="37" width="1" height="1" fill="rgb(44,131,251)"/><rect x="93" y="37" width="1" height="1" fill="rgb(0,71,228)"/><rect x="94" y="37" width="4" height="1" fill="rgb(17,114,251)"/><rect x="98" y="37" width="1" height="1" fill="rgb(0,71,228)"/><rect x="25" y="38" width="2" height="1" fill="rgb(17,114,251)"/><rect x="27" y="38" width="1" height="1" fill="rgb(44,131,251)"/><rect x="28" y="38" width="2" height="1" fill="rgb(71,155,251)"/><rect x="30" y="38" width="1" height="1" fill="rgb(44,131,251)"/><rect x="31" y="38" width="2" height="1" fill="rgb(17,114,251)"/><rect x="92" y="38" width="1" height="1" fill="rgb(17,114,251)"/><rect x="93" y="38" width="1" height="1" fill="rgb(0,88,243)"/><rect x="94" y="38" width="1" height="1" fill="rgb(0,71,228)"/><rect x="95" y="38" width="2" height="1" fill="rgb(0,53,212)"/><rect x="97" y="38" width="1" height="1" fill="rgb(0,71,228)"/><rect x="98" y="38" width="1" height="1" fill="rgb(0,88,243)"/><rect x="99" y="38" width="1" height="1" fill="rgb(17,114,251)"/><rect x="26" y="39" width="2" height="1" fill="rgb(17,114,251)"/><rect x="28" y="39" width="2" height="1" fill="rgb(44,131,251)"/><rect x="30" y="39" width="2" height="1" fill="rgb(17,114,251)"/><rect x="93" y="39" width="1" height="1" fill="rgb(44,131,251)"/><rect x="94" y="39" width="1" height="1" fill="rgb(0,88,243)"/><rect x="95" y="39" width="2" height="1" fill="rgb(0,71,228)"/><rect x="97" y="39" width="1" height="1" fill="rgb(0,88,243)"/><rect x="98" y="39" width="1" height="1" fill="rgb(44,131,251)"/><rect x="25" y="39" width="1" height="2" fill="rgb(0,88,243)"/><rect x="32" y="39" width="1" height="2" fill="rgb(0,88,243)"/><rect x="26" y="40" width="1" height="1" fill="rgb(0,71,228)"/><rect x="27" y="40" width="4" height="1" fill="rgb(17,114,251)"/><rect x="31" y="40" width="1" height="1" fill="rgb(0,71,228)"/><rect x="94" y="40" width="4" height="1" fill="rgb(44,131,251)"/><rect x="25" y="41" width="1" height="1" fill="rgb(17,114,251)"/><rect x="26" y="41" width="1" height="1" fill="rgb(0,88,243)"/><rect x="27" y="41" width="1" height="1" fill="rgb(0,71,228)"/><rect x="28" y="41" width="2" height="1" fill="rgb(0,53,212)"/><rect x="30" y="41" width="1" height="1" fill="rgb(0,71,228)"/><rect x="31" y="41" width="1" height="1" fill="rgb(0,88,243)"/><rect x="32" y="41" width="1" height="1" fill="rgb(17,114,251)"/><rect x="26" y="42" width="1" height="1" fill="rgb(44,131,251)"/><rect x="27" y="42" width="1" height="1" fill="rgb(0,88,243)"/><rect x="28" y="42" width="2" height="1" fill="rgb(0,71,228)"/><rect x="30" y="42" width="1" height="1" fill="rgb(0,88,243)"/><rect x="31" y="42" width="1" height="1" fill="rgb(44,131,251)"/><rect x="27" y="43" width="4" height="1" fill="rgb(44,131,251)"/><rect x="107" y="54" width="4" height="1" fill="rgb(44,131,251)"/><rect x="106" y="55" width="1" height="1" fill="rgb(44,131,251)"/><rect x="107" y="55" width="1" height="1" fill="rgb(71,155,251)"/><rect x="108" y="55" width="2" height="1" fill="rgb(97,179,251)"/><rect x="110" y="55" width="1" height="1" fill="rgb(71,155,251)"/><rect x="111" y="55" width="1" height="1" fill="rgb(44,131,251)"/><rect x="105" y="56" width="2" height="1" fill="rgb(17,114,251)"/><rect x="107" y="56" width="1" height="1" fill="rgb(44,131,251)"/><rect x="108" y="56" width="2" height="1" fill="rgb(71,155,251)"/><rect x="110" y="56" width="1" height="1" fill="rgb(44,131,251)"/><rect x="111" y="56" width="2" height="1" fill="rgb(17,114,251)"/><rect x="16" y="57" width="4" height="1" fill="rgb(44,131,251)"/><rect x="106" y="57" width="2" height="1" fill="rgb(17,114,251)"/><rect x="108" y="57" width="2" height="1" fill="rgb(44,131,251)"/><rect x="110" y="57" width="2" height="1" fill="rgb(17,114,251)"/><rect x="105" y="57" width="1" height="2" fill="rgb(0,88,243)"/><rect x="112" y="57" width="1" height="2" fill="rgb(0,88,243)"/><rect x="15" y="58" width="1" height="1" fill="rgb(44,131,251)"/><rect x="16" y="58" width="1" height="1" fill="rgb(71,155,251)"/><rect x="17" y="58" width="2" height="1" fill="rgb(97,179,251)"/><rect x="19" y="58" width="1" height="1" fill="rgb(71,155,251)"/><rect x="20" y="58" width="1" height="1" fill="rgb(44,131,251)"/><rect x="106" y="58" width="1" height="1" fill="rgb(0,71,228)"/><rect x="107" y="58" width="4" height="1" fill="rgb(17,114,251)"/><rect x="111" y="58" width="1" height="1" fill="rgb(0,71,228)"/><rect x="14" y="59" width="2" height="1" fill="rgb(17,114,251)"/><rect x="16" y="59" width="1" height="1" fill="rgb(44,131,251)"/><rect x="17" y="59" width="2" height="1" fill="rgb(71,155,251)"/><rect x="19" y="59" width="1" height="1" fill="rgb(44,131,251)"/><rect x="20" y="59" width="2" height="1" fill="rgb(17,114,251)"/><rect x="105" y="59" width="1" height="1" fill="rgb(17,114,251)"/><rect x="106" y="59" width="1" height="1" fill="rgb(0,88,243)"/><rect x="107" y="59" width="1" height="1" fill="rgb(0,71,228)"/><rect x="108" y="59" width="2" height="1" fill="rgb(0,53,212)"/><rect x="110" y="59" width="1" height="1" fill="rgb(0,71,228)"/><rect x="111" y="59" width="1" height="1" fill="rgb(0,88,243)"/><rect x="112" y="59" width="1" height="1" fill="rgb(17,114,251)"/><rect x="15" y="60" width="2" height="1" fill="rgb(17,114,251)"/><rect x="17" y="60" width="2" height="1" fill="rgb(44,131,251)"/><rect x="19" y="60" width="2" height="1" fill="rgb(17,114,251)"/><rect x="106" y="60" width="1" height="1" fill="rgb(44,131,251)"/><rect x="107" y="60" width="1" height="1" fill="rgb(0,88,243)"/><rect x="108" y="60" width="2" height="1" fill="rgb(0,71,228)"/><rect x="110" y="60" width="1" height="1" fill="rgb(0,88,243)"/><rect x="111" y="60" width="1" height="1" fill="rgb(44,131,251)"/><rect x="14" y="60" width="1" height="2" fill="rgb(0,88,243)"/><rect x="21" y="60" width="1" height="2" fill="rgb(0,88,243)"/><rect x="15" y="61" width="1" height="1" fill="rgb(0,71,228)"/><rect x="16" y="61" width="4" height="1" fill="rgb(17,114,251)"/><rect x="20" y="61" width="1" height="1" fill="rgb(0,71,228)"/><rect x="107" y="61" width="4" height="1" fill="rgb(44,131,251)"/><rect x="14" y="62" width="1" height="1" fill="rgb(17,114,251)"/><rect x="15" y="62" width="1" height="1" fill="rgb(0,88,243)"/><rect x="16" y="62" width="1" height="1" fill="rgb(0,71,228)"/><rect x="17" y="62" width="2" height="1" fill="rgb(0,53,212)"/><rect x="19" y="62" width="1" height="1" fill="rgb(0,71,228)"/><rect x="20" y="62" width="1" height="1" fill="rgb(0,88,243)"/><rect x="21" y="62" width="1" height="1" fill="rgb(17,114,251)"/><rect x="15" y="63" width="1" height="1" fill="rgb(44,131,251)"/><rect x="16" y="63" width="1" height="1" fill="rgb(0,88,243)"/><rect x="17" y="63" width="2" height="1" fill="rgb(0,71,228)"/><rect x="19" y="63" width="1" height="1" fill="rgb(0,88,243)"/><rect x="20" y="63" width="1" height="1" fill="rgb(44,131,251)"/><rect x="16" y="64" width="4" height="1" fill="rgb(44,131,251)"/><rect x="108" y="78" width="4" height="1" fill="rgb(44,131,251)"/><rect x="106" y="79" width="2" height="1" fill="rgb(44,131,251)"/><rect x="108" y="79" width="1" height="1" fill="rgb(71,155,251)"/><rect x="109" y="79" width="2" height="1" fill="rgb(97,179,251)"/><rect x="111" y="79" width="1" height="1" fill="rgb(71,155,251)"/><rect x="112" y="79" width="2" height="1" fill="rgb(44,131,251)"/><rect x="106" y="80" width="1" height="1" fill="rgb(44,131,251)"/><rect x="107" y="80" width="6" height="1" fill="rgb(71,155,251)"/><rect x="113" y="80" width="1" height="1" fill="rgb(44,131,251)"/><rect x="17" y="81" width="4" height="1" fill="rgb(44,131,251)"/><rect x="105" y="81" width="1" height="1" fill="rgb(0,88,243)"/><rect x="106" y="81" width="1" height="1" fill="rgb(17,114,251)"/><rect x="107" y="81" width="1" height="1" fill="rgb(44,131,251)"/><rect x="108" y="81" width="4" height="1" fill="rgb(71,155,251)"/><rect x="112" y="81" width="1" height="1" fill="rgb(44,131,251)"/><rect x="113" y="81" width="1" height="1" fill="rgb(17,114,251)"/><rect x="114" y="81" width="1" height="1" fill="rgb(0,88,243)"/><rect x="15" y="82" width="2" height="1" fill="rgb(44,131,251)"/><rect x="17" y="82" width="1" height="1" fill="rgb(71,155,251)"/><rect x="18" y="82" width="2" height="1" fill="rgb(97,179,251)"/><rect x="20" y="82" width="1" height="1" fill="rgb(71,155,251)"/><rect x="21" y="82" width="2" height="1" fill="rgb(44,131,251)"/><rect x="105" y="82" width="1" height="1" fill="rgb(0,71,228)"/><rect x="106" y="82" width="2" height="1" fill="rgb(17,114,251)"/><rect x="108" y="82" width="4" height="1" fill="rgb(44,131,251)"/><rect x="112" y="82" width="2" height="1" fill="rgb(17,114,251)"/><rect x="114" y="82" width="1" height="1" fill="rgb(0,71,228)"/><rect x="15" y="83" width="1" height="1" fill="rgb(44,131,251)"/><rect x="16" y="83" width="6" height="1" fill="rgb(71,155,251)"/><rect x="22" y="83" width="1" height="1" fill="rgb(44,131,251)"/><rect x="106" y="83" width="1" height="1" fill="rgb(0,71,228)"/><rect x="107" y="83" width="1" height="1" fill="rgb(0,88,243)"/><rect x="108" y="83" width="4" height="1" fill="rgb(17,114,251)"/><rect x="112" y="83" width="1" height="1" fill="rgb(0,88,243)"/><rect x="113" y="83" width="1" height="1" fill="rgb(0,71,228)"/><rect x="105" y="83" width="1" height="2" fill="rgb(0,88,243)"/><rect x="114" y="83" width="1" height="2" fill="rgb(0,88,243)"/><rect x="14" y="84" width="1" height="1" fill="rgb(0,88,243)"/><rect x="15" y="84" width="1" height="1" fill="rgb(17,114,251)"/><rect x="16" y="84" width="1" height="1" fill="rgb(44,131,251)"/><rect x="17" y="84" width="4" height="1" fill="rgb(71,155,251)"/><rect x="21" y="84" width="1" height="1" fill="rgb(44,131,251)"/><rect x="22" y="84" width="1" height="1" fill="rgb(17,114,251)"/><rect x="23" y="84" width="1" height="1" fill="rgb(0,88,243)"/><rect x="106" y="84" width="2" height="1" fill="rgb(0,71,228)"/><rect x="108" y="84" width="4" height="1" fill="rgb(0,53,212)"/><rect x="112" y="84" width="2" height="1" fill="rgb(0,71,228)"/><rect x="14" y="85" width="1" height="1" fill="rgb(0,71,228)"/><rect x="15" y="85" width="2" height="1" fill="rgb(17,114,251)"/><rect x="17" y="85" width="4" height="1" fill="rgb(44,131,251)"/><rect x="21" y="85" width="2" height="1" fill="rgb(17,114,251)"/><rect x="23" y="85" width="1" height="1" fill="rgb(0,71,228)"/><rect x="106" y="85" width="1" height="1" fill="rgb(0,88,243)"/><rect x="107" y="85" width="6" height="1" fill="rgb(0,71,228)"/><rect x="113" y="85" width="1" height="1" fill="rgb(0,88,243)"/><rect x="15" y="86" width="1" height="1" fill="rgb(0,71,228)"/><rect x="16" y="86" width="1" height="1" fill="rgb(0,88,243)"/><rect x="17" y="86" width="4" height="1" fill="rgb(17,114,251)"/><rect x="21" y="86" width="1" height="1" fill="rgb(0,88,243)"/><rect x="22" y="86" width="1" height="1" fill="rgb(0,71,228)"/><rect x="106" y="86" width="2" height="1" fill="rgb(44,131,251)"/><rect x="108" y="86" width="4" height="1" fill="rgb(0,88,243)"/><rect x="112" y="86" width="2" height="1" fill="rgb(44,131,251)"/><rect x="14" y="86" width="1" height="2" fill="rgb(0,88,243)"/><rect x="23" y="86" width="1" height="2" fill="rgb(0,88,243)"/><rect x="15" y="87" width="2" height="1" fill="rgb(0,71,228)"/><rect x="17" y="87" width="4" height="1" fill="rgb(0,53,212)"/><rect x="21" y="87" width="2" height="1" fill="rgb(0,71,228)"/><rect x="108" y="87" width="4" height="1" fill="rgb(44,131,251)"/><rect x="15" y="88" width="1" height="1" fill="rgb(0,88,243)"/><rect x="16" y="88" width="6" height="1" fill="rgb(0,71,228)"/><rect x="22" y="88" width="1" height="1" fill="rgb(0,88,243)"/><rect x="15" y="89" width="2" height="1" fill="rgb(44,131,251)"/><rect x="17" y="89" width="4" height="1" fill="rgb(0,88,243)"/><rect x="21" y="89" width="2" height="1" fill="rgb(44,131,251)"/><rect x="17" y="90" width="4" height="1" fill="rgb(44,131,251)"/><rect x="97" y="98" width="4" height="1" fill="rgb(44,131,251)"/><rect x="95" y="99" width="2" height="1" fill="rgb(44,131,251)"/><rect x="97" y="99" width="4" height="1" fill="rgb(71,155,251)"/><rect x="101" y="99" width="2" height="1" fill="rgb(44,131,251)"/><rect x="94" y="100" width="2" height="1" fill="rgb(44,131,251)"/><rect x="96" y="100" width="1" height="1" fill="rgb(71,155,251)"/><rect x="97" y="100" width="4" height="1" fill="rgb(97,179,251)"/><rect x="101" y="100" width="1" height="1" fill="rgb(71,155,251)"/><rect x="102" y="100" width="2" height="1" fill="rgb(44,131,251)"/><rect x="30" y="101" width="4" height="1" fill="rgb(44,131,251)"/><rect x="94" y="101" width="1" height="1" fill="rgb(44,131,251)"/><rect x="95" y="101" width="8" height="1" fill="rgb(71,155,251)"/><rect x="103" y="101" width="1" height="1" fill="rgb(44,131,251)"/><rect x="28" y="102" width="2" height="1" fill="rgb(44,131,251)"/><rect x="30" y="102" width="4" height="1" fill="rgb(71,155,251)"/><rect x="34" y="102" width="2" height="1" fill="rgb(44,131,251)"/><rect x="95" y="102" width="1" height="1" fill="rgb(17,114,251)"/><rect x="96" y="102" width="1" height="1" fill="rgb(44,131,251)"/><rect x="97" y="102" width="4" height="1" fill="rgb(71,155,251)"/><rect x="101" y="102" width="1" height="1" fill="rgb(44,131,251)"/><rect x="102" y="102" width="1" height="1" fill="rgb(17,114,251)"/><rect x="94" y="102" width="1" height="2" fill="rgb(0,88,243)"/><rect x="103" y="102" width="1" height="2" fill="rgb(0,88,243)"/><rect x="27" y="103" width="2" height="1" fill="rgb(44,131,251)"/><rect x="29" y="103" width="1" height="1" fill="rgb(71,155,251)"/><rect x="30" y="103" width="4" height="1" fill="rgb(97,179,251)"/><rect x="34" y="103" width="1" height="1" fill="rgb(71,155,251)"/><rect x="35" y="103" width="2" height="1" fill="rgb(44,131,251)"/><rect x="95" y="103" width="2" height="1" fill="rgb(17,114,251)"/><rect x="97" y="103" width="4" height="1" fill="rgb(44,131,251)"/><rect x="101" y="103" width="2" height="1" fill="rgb(17,114,251)"/><rect x="27" y="104" width="1" height="1" fill="rgb(44,131,251)"/><rect x="28" y="104" width="8" height="1" fill="rgb(71,155,251)"/><rect x="36" y="104" width="1" height="1" fill="rgb(44,131,251)"/><rect x="94" y="104" width="1" height="1" fill="rgb(0,71,228)"/><rect x="95" y="104" width="2" height="1" fill="rgb(0,88,243)"/><rect x="97" y="104" width="4" height="1" fill="rgb(17,114,251)"/><rect x="101" y="104" width="2" height="1" fill="rgb(0,88,243)"/><rect x="103" y="104" width="1" height="1" fill="rgb(0,71,228)"/><rect x="93" y="102" width="1" height="4" fill="rgb(17,114,251)"/><rect x="104" y="102" width="1" height="4" fill="rgb(17,114,251)"/><rect x="28" y="105" width="1" height="1" fill="rgb(17,114,251)"/><rect x="29" y="105" width="1" height="1" fill="rgb(44,131,251)"/><rect x="30" y="105" width="4" height="1" fill="rgb(71,155,251)"/><rect x="34" y="105" width="1" height="1" fill="rgb(44,131,251)"/><rect x="35" y="105" width="1" height="1" fill="rgb(17,114,251)"/><rect x="94" y="105" width="1" height="1" fill="rgb(0,88,243)"/><rect x="95" y="105" width="1" height="1" fill="rgb(0,71,228)"/><rect x="96" y="105" width="1" height="1" fill="rgb(0,53,212)"/><rect x="97" y="105" width="1" height="1" fill="rgb(0,71,228)"/><rect x="98" y="105" width="2" height="1" fill="rgb(0,88,243)"/><rect x="100" y="105" width="1" height="1" fill="rgb(0,71,228)"/><rect x="101" y="105" width="1" height="1" fill="rgb(0,53,212)"/><rect x="102" y="105" width="1" height="1" fill="rgb(0,71,228)"/><rect x="103" y="105" width="1" height="1" fill="rgb(0,88,243)"/><rect x="27" y="105" width="1" height="2" fill="rgb(0,88,243)"/><rect x="36" y="105" width="1" height="2" fill="rgb(0,88,243)"/><rect x="28" y="106" width="2" height="1" fill="rgb(17,114,251)"/><rect x="30" y="106" width="4" height="1" fill="rgb(44,131,251)"/><rect x="34" y="106" width="2" height="1" fill="rgb(17,114,251)"/><rect x="95" y="106" width="1" height="1" fill="rgb(0,88,243)"/><rect x="96" y="106" width="1" height="1" fill="rgb(0,71,228)"/><rect x="97" y="106" width="1" height="1" fill="rgb(0,53,212)"/><rect x="98" y="106" width="2" height="1" fill="rgb(0,35,187)"/><rect x="100" y="106" width="1" height="1" fill="rgb(0,53,212)"/><rect x="101" y="106" width="1" height="1" fill="rgb(0,71,228)"/><rect x="102" y="106" width="1" height="1" fill="rgb(0,88,243)"/><rect x="94" y="106" width="1" height="2" fill="rgb(17,114,251)"/><rect x="103" y="106" width="1" height="2" fill="rgb(17,114,251)"/><rect x="27" y="107" width="1" height="1" fill="rgb(0,71,228)"/><rect x="28" y="107" width="2" height="1" fill="rgb(0,88,243)"/><rect x="30" y="107" width="4" height="1" fill="rgb(17,114,251)"/><rect x="34" y="107" width="2" height="1" fill="rgb(0,88,243)"/><rect x="36" y="107" width="1" height="1" fill="rgb(0,71,228)"/><rect x="95" y="107" width="2" height="1" fill="rgb(0,88,243)"/><rect x="97" y="107" width="4" height="1" fill="rgb(0,71,228)"/><rect x="101" y="107" width="2" height="1" fill="rgb(0,88,243)"/><rect x="26" y="105" width="1" height="4" fill="rgb(17,114,251)"/><rect x="37" y="105" width="1" height="4" fill="rgb(17,114,251)"/><rect x="27" y="108" width="1" height="1" fill="rgb(0,88,243)"/><rect x="28" y="108" width="1" height="1" fill="rgb(0,71,228)"/><rect x="29" y="108" width="1" height="1" fill="rgb(0,53,212)"/><rect x="30" y="108" width="1" height="1" fill="rgb(0,71,228)"/><rect x="31" y="108" width="2" height="1" fill="rgb(0,88,243)"/><rect x="33" y="108" width="1" height="1" fill="rgb(0,71,228)"/><rect x="34" y="108" width="1" height="1" fill="rgb(0,53,212)"/><rect x="35" y="108" width="1" height="1" fill="rgb(0,71,228)"/><rect x="36" y="108" width="1" height="1" fill="rgb(0,88,243)"/><rect x="95" y="108" width="1" height="1" fill="rgb(44,131,251)"/><rect x="96" y="108" width="6" height="1" fill="rgb(17,114,251)"/><rect x="102" y="108" width="1" height="1" fill="rgb(44,131,251)"/><rect x="28" y="109" width="1" height="1" fill="rgb(0,88,243)"/><rect x="29" y="109" width="1" height="1" fill="rgb(0,71,228)"/><rect x="30" y="109" width="1" height="1" fill="rgb(0,53,212)"/><rect x="31" y="109" width="2" height="1" fill="rgb(0,35,187)"/><rect x="33" y="109" width="1" height="1" fill="rgb(0,53,212)"/><rect x="34" y="109" width="1" height="1" fill="rgb(0,71,228)"/><rect x="35" y="109" width="1" height="1" fill="rgb(0,88,243)"/><rect x="97" y="109" width="4" height="1" fill="rgb(44,131,251)"/><rect x="27" y="109" width="1" height="2" fill="rgb(17,114,251)"/><rect x="36" y="109" width="1" height="2" fill="rgb(17,114,251)"/><rect x="28" y="110" width="2" height="1" fill="rgb(0,88,243)"/><rect x="30" y="110" width="4" height="1" fill="rgb(0,71,228)"/><rect x="34" y="110" width="2" height="1" fill="rgb(0,88,243)"/><rect x="28" y="111" width="1" height="1" fill="rgb(44,131,251)"/><rect x="29" y="111" width="6" height="1" fill="rgb(17,114,251)"/><rect x="35" y="111" width="1" height="1" fill="rgb(44,131,251)"/><rect x="76" y="111" width="4" height="1" fill="rgb(44,131,251)"/><rect x="30" y="112" width="4" height="1" fill="rgb(44,131,251)"/><rect x="51" y="112" width="4" height="1" fill="rgb(44,131,251)"/><rect x="74" y="112" width="2" height="1" fill="rgb(44,131,251)"/><rect x="76" y="112" width="4" height="1" fill="rgb(71,155,251)"/><rect x="80" y="112" width="2" height="1" fill="rgb(44,131,251)"/><rect x="49" y="113" width="2" height="1" fill="rgb(44,131,251)"/><rect x="51" y="113" width="4" height="1" fill="rgb(71,155,251)"/><rect x="55" y="113" width="2" height="1" fill="rgb(44,131,251)"/><rect x="73" y="113" width="2" height="1" fill="rgb(44,131,251)"/><rect x="75" y="113" width="1" height="1" fill="rgb(71,155,251)"/><rect x="76" y="113" width="4" height="1" fill="rgb(97,179,251)"/><rect x="80" y="113" width="1" height="1" fill="rgb(71,155,251)"/><rect x="81" y="113" width="2" height="1" fill="rgb(44,131,251)"/><rect x="48" y="114" width="2" height="1" fill="rgb(44,131,251)"/><rect x="50" y="114" width="1" height="1" fill="rgb(71,155,251)"/><rect x="51" y="114" width="4" height="1" fill="rgb(97,179,251)"/><rect x="55" y="114" width="1" height="1" fill="rgb(71,155,251)"/><rect x="56" y="114" width="2" height="1" fill="rgb(44,131,251)"/><rect x="73" y="114" width="1" height="1" fill="rgb(44,131,251)"/><rect x="74" y="114" width="8" height="1" fill="rgb(71,155,251)"/><rect x="82" y="114" width="1" height="1" fill="rgb(44,131,251)"/><rect x="48" y="115" width="1" height="1" fill="rgb(44,131,251)"/><rect x="49" y="115" width="8" height="1" fill="rgb(71,155,251)"/><rect x="57" y="115" width="1" height="1" fill="rgb(44,131,251)"/><rect x="74" y="115" width="1" height="1" fill="rgb(17,114,251)"/><rect x="75" y="115" width="1" height="1" fill="rgb(44,131,251)"/><rect x="76" y="115" width="4" height="1" fill="rgb(71,155,251)"/><rect x="80" y="115" width="1" height="1" fill="rgb(44,131,251)"/><rect x="81" y="115" width="1" height="1" fill="rgb(17,114,251)"/><rect x="73" y="115" width="1" height="2" fill="rgb(0,88,243)"/><rect x="82" y="115" width="1" height="2" fill="rgb(0,88,243)"/><rect x="49" y="116" width="1" height="1" fill="rgb(17,114,251)"/><rect x="50" y="116" width="1" height="1" fill="rgb(44,131,251)"/><rect x="51" y="116" width="4" height="1" fill="rgb(71,155,251)"/><rect x="55" y="116" width="1" height="1" fill="rgb(44,131,251)"/><rect x="56" y="116" width="1" height="1" fill="rgb(17,114,251)"/><rect x="74" y="116" width="2" height="1" fill="rgb(17,114,251)"/><rect x="76" y="116" width="4" height="1" fill="rgb(44,131,251)"/><rect x="80" y="116" width="2" height="1" fill="rgb(17,114,251)"/><rect x="48" y="116" width="1" height="2" fill="rgb(0,88,243)"/><rect x="57" y="116" width="1" height="2" fill="rgb(0,88,243)"/><rect x="49" y="117" width="2" height="1" fill="rgb(17,114,251)"/><rect x="51" y="117" width="4" height="1" fill="rgb(44,131,251)"/><rect x="55" y="117" width="2" height="1" fill="rgb(17,114,251)"/><rect x="73" y="117" width="1" height="1" fill="rgb(0,71,228)"/><rect x="74" y="117" width="2" height="1" fill="rgb(0,88,243)"/><rect x="76" y="117" width="4" height="1" fill="rgb(17,114,251)"/><rect x="80" y="117" width="2" height="1" fill="rgb(0,88,243)"/><rect x="82" y="117" width="1" height="1" fill="rgb(0,71,228)"/><rect x="72" y="115" width="1" height="4" fill="rgb(17,114,251)"/><rect x="83" y="115" width="1" height="4" fill="rgb(17,114,251)"/><rect x="48" y="118" width="1" height="1" fill="rgb(0,71,228)"/><rect x="49" y="118" width="2" height="1" fill="rgb(0,88,243)"/><rect x="51" y="118" width="4" height="1" fill="rgb(17,114,251)"/><rect x="55" y="118" width="2" height="1" fill="rgb(0,88,243)"/><rect x="57" y="118" width="1" height="1" fill="rgb(0,71,228)"/><rect x="73" y="118" width="1" height="1" fill="rgb(0,88,243)"/><rect x="74" y="118" width="1" height="1" fill="rgb(0,71,228)"/><rect x="75" y="118" width="1" height="1" fill="rgb(0,53,212)"/><rect x="76" y="118" width="1" height="1" fill="rgb(0,71,228)"/><rect x="77" y="118" width="2" height="1" fill="rgb(0,88,243)"/><rect x="79" y="118" width="1" height="1" fill="rgb(0,71,228)"/><rect x="80" y="118" width="1" height="1" fill="rgb(0,53,212)"/><rect x="81" y="118" width="1" height="1" fill="rgb(0,71,228)"/><rect x="82" y="118" width="1" height="1" fill="rgb(0,88,243)"/><rect x="47" y="116" width="1" height="4" fill="rgb(17,114,251)"/><rect x="58" y="116" width="1" height="4" fill="rgb(17,114,251)"/><rect x="48" y="119" width="1" height="1" fill="rgb(0,88,243)"/><rect x="49" y="119" width="1" height="1" fill="rgb(0,71,228)"/><rect x="50" y="119" width="1" height="1" fill="rgb(0,53,212)"/><rect x="51" y="119" width="1" height="1" fill="rgb(0,71,228)"/><rect x="52" y="119" width="2" height="1" fill="rgb(0,88,243)"/><rect x="54" y="119" width="1" height="1" fill="rgb(0,71,228)"/><rect x="55" y="119" width="1" height="1" fill="rgb(0,53,212)"/><rect x="56" y="119" width="1" height="1" fill="rgb(0,71,228)"/><rect x="57" y="119" width="1" height="1" fill="rgb(0,88,243)"/><rect x="74" y="119" width="1" height="1" fill="rgb(0,88,243)"/><rect x="75" y="119" width="1" height="1" fill="rgb(0,71,228)"/><rect x="76" y="119" width="1" height="1" fill="rgb(0,53,212)"/><rect x="77" y="119" width="2" height="1" fill="rgb(0,35,187)"/><rect x="79" y="119" width="1" height="1" fill="rgb(0,53,212)"/><rect x="80" y="119" width="1" height="1" fill="rgb(0,71,228)"/><rect x="81" y="119" width="1" height="1" fill="rgb(0,88,243)"/><rect x="73" y="119" width="1" height="2" fill="rgb(17,114,251)"/><rect x="82" y="119" width="1" height="2" fill="rgb(17,114,251)"/><rect x="49" y="120" width="1" height="1" fill="rgb(0,88,243)"/><rect x="50" y="120" width="1" height="1" fill="rgb(0,71,228)"/><rect x="51" y="120" width="1" height="1" fill="rgb(0,53,212)"/><rect x="52" y="120" width="2" height="1" fill="rgb(0,35,187)"/><rect x="54" y="120" width="1" height="1" fill="rgb(0,53,212)"/><rect x="55" y="120" width="1" height="1" fill="rgb(0,71,228)"/><rect x="56" y="120" width="1" height="1" fill="rgb(0,88,243)"/><rect x="74" y="120" width="2" height="1" fill="rgb(0,88,243)"/><rect x="76" y="120" width="4" height="1" fill="rgb(0,71,228)"/><rect x="80" y="120" width="2" height="1" fill="rgb(0,88,243)"/><rect x="48" y="120" width="1" height="2" fill="rgb(17,114,251)"/><rect x="57" y="120" width="1" height="2" fill="rgb(17,114,251)"/><rect x="49" y="121" width="2" height="1" fill="rgb(0,88,243)"/><rect x="51" y="121" width="4" height="1" fill="rgb(0,71,228)"/><rect x="55" y="121" width="2" height="1" fill="rgb(0,88,243)"/><rect x="74" y="121" width="1" height="1" fill="rgb(44,131,251)"/><rect x="75" y="121" width="6" height="1" fill="rgb(17,114,251)"/><rect x="81" y="121" width="1" height="1" fill="rgb(44,131,251)"/><rect x="49" y="122" width="1" height="1" fill="rgb(44,131,251)"/><rect x="50" y="122" width="6" height="1" fill="rgb(17,114,251)"/><rect x="56" y="122" width="1" height="1" fill="rgb(44,131,251)"/><rect x="76" y="122" width="4" height="1" fill="rgb(44,131,251)"/><rect x="51" y="123" width="4" height="1" fill="rgb(44,131,251)"/></svg>