<svg xmlns="http://www.w3.org/2000/svg" width="31" height="32" viewBox="0 0 31 32"><rect x="4" y="3" width="23" height="1" fill="rgb(122,204,251)"/><rect x="3" y="4" width="1" height="1" fill="rgb(122,204,251)"/><rect x="4" y="4" width="2" height="1" fill="rgb(71,155,251)"/><rect x="6" y="4" width="1" height="1" fill="rgb(44,131,251)"/><rect x="7" y="4" width="17" height="1" fill="rgb(17,114,251)"/><rect x="24" y="4" width="1" height="1" fill="rgb(44,131,251)"/><rect x="25" y="4" width="2" height="1" fill="rgb(71,155,251)"/><rect x="27" y="4" width="1" height="1" fill="rgb(122,204,251)"/><rect x="5" y="5" width="1" height="1" fill="rgb(17,114,251)"/><rect x="6" y="5" width="1" height="1" fill="rgb(0,88,243)"/><rect x="7" y="5" width="2" height="1" fill="rgb(0,71,228)"/><rect x="9" y="5" width="13" height="1" fill="rgb(0,53,212)"/><rect x="22" y="5" width="2" height="1" fill="rgb(0,71,228)"/><rect x="24" y="5" width="1" height="1" fill="rgb(0,88,243)"/><rect x="25" y="5" width="1" height="1" fill="rgb(17,114,251)"/><rect x="3" y="5" width="1" height="2" fill="rgb(44,131,251)"/><rect x="4" y="5" width="1" height="2" fill="rgb(0,35,187)"/><rect x="26" y="5" width="1" height="2" fill="rgb(0,35,187)"/><rect x="27" y="5" width="1" height="2" fill="rgb(44,131,251)"/><rect x="5" y="6" width="1" height="1" fill="rgb(0,71,228)"/><rect x="6" y="6" width="2" height="1" fill="rgb(0,88,243)"/><rect x="8" y="6" width="3" height="1" fill="rgb(0,71,228)"/><rect x="11" y="6" width="9" height="1" fill="rgb(0,53,212)"/><rect x="20" y="6" width="3" height="1" fill="rgb(0,71,228)"/><rect x="23" y="6" width="2" height="1" fill="rgb(0,88,243)"/><rect x="25" y="6" width="1" height="1" fill="rgb(0,71,228)"/><rect x="6" y="7" width="9" height="1" fill="rgb(0,88,243)"/><rect x="15" y="7" width="1" height="1" fill="rgb(0,71,228)"/><rect x="16" y="7" width="9" height="1" fill="rgb(0,88,243)"/><rect x="4" y="7" width="1" height="2" fill="rgb(44,131,251)"/><rect x="5" y="7" width="1" height="2" fill="rgb(0,35,187)"/><rect x="25" y="7" width="1" height="2" fill="rgb(0,35,187)"/><rect x="26" y="7" width="1" height="2" fill="rgb(44,131,251)"/><rect x="6" y="8" width="1" height="1" fill="rgb(0,53,212)"/><rect x="7" y="8" width="1" height="1" fill="rgb(17,114,251)"/><rect x="8" y="8" width="1" height="1" fill="rgb(71,155,251)"/><rect x="9" y="8" width="13" height="1" fill="rgb(44,131,251)"/><rect x="22" y="8" width="1" height="1" fill="rgb(71,155,251)"/><rect x="23" y="8" width="1" height="1" fill="rgb(17,114,251)"/><rect x="24" y="8" width="1" height="1" fill="rgb(0,53,212)"/><rect x="6" y="9" width="1" height="1" fill="rgb(0,35,187)"/><rect x="7" y="9" width="1" height="1" fill="rgb(0,53,212)"/><rect x="8" y="9" width="1" height="1" fill="rgb(44,131,251)"/><rect x="9" y="9" width="13" height="1" fill="rgb(71,155,251)"/><rect x="22" y="9" width="1" height="1" fill="rgb(44,131,251)"/><rect x="23" y="9" width="1" height="1" fill="rgb(0,53,212)"/><rect x="24" y="9" width="1" height="1" fill="rgb(0,35,187)"/><rect x="5" y="9" width="1" height="2" fill="rgb(44,131,251)"/><rect x="25" y="9" width="1" height="2" fill="rgb(44,131,251)"/><rect x="6" y="10" width="2" height="1" fill="rgb(0,35,187)"/><rect x="8" y="10" width="1" height="1" fill="rgb(0,88,243)"/><rect x="9" y="10" width="13" height="1" fill="rgb(44,131,251)"/><rect x="22" y="10" width="1" height="1" fill="rgb(0,88,243)"/><rect x="23" y="10" width="2" height="1" fill="rgb(0,35,187)"/><rect x="7" y="11" width="1" height="1" fill="rgb(0,35,187)"/><rect x="8" y="11" width="1" height="1" fill="rgb(0,53,212)"/><rect x="10" y="11" width="11" height="1" fill="rgb(44,131,251)"/><rect x="22" y="11" width="1" height="1" fill="rgb(0,53,212)"/><rect x="23" y="11" width="1" height="1" fill="rgb(0,35,187)"/><rect x="6" y="11" width="1" height="2" fill="rgb(44,131,251)"/><rect x="9" y="11" width="1" height="2" fill="rgb(0,88,243)"/><rect x="21" y="11" width="1" height="2" fill="rgb(0,88,243)"/><rect x="24" y="11" width="1" height="2" fill="rgb(44,131,251)"/><rect x="7" y="12" width="2" height="1" fill="rgb(0,35,187)"/><rect x="10" y="12" width="1" height="1" fill="rgb(17,114,251)"/><rect x="20" y="12" width="1" height="1" fill="rgb(17,114,251)"/><rect x="22" y="12" width="2" height="1" fill="rgb(0,35,187)"/><rect x="11" y="12" width="9" height="2" fill="rgb(44,131,251)"/><rect x="8" y="13" width="1" height="1" fill="rgb(0,35,187)"/><rect x="9" y="13" width="1" height="1" fill="rgb(0,53,212)"/><rect x="21" y="13" width="1" height="1" fill="rgb(0,53,212)"/><rect x="22" y="13" width="1" height="1" fill="rgb(0,35,187)"/><rect x="7" y="13" width="1" height="2" fill="rgb(44,131,251)"/><rect x="10" y="13" width="1" height="2" fill="rgb(0,88,243)"/><rect x="20" y="13" width="1" height="2" fill="rgb(0,88,243)"/><rect x="23" y="13" width="1" height="2" fill="rgb(44,131,251)"/><rect x="8" y="14" width="2" height="1" fill="rgb(0,35,187)"/><rect x="21" y="14" width="2" height="1" fill="rgb(0,35,187)"/><rect x="11" y="14" width="9" height="2" fill="rgb(17,114,251)"/><rect x="9" y="15" width="1" height="1" fill="rgb(0,35,187)"/><rect x="10" y="15" width="1" height="1" fill="rgb(0,53,212)"/><rect x="20" y="15" width="1" height="1" fill="rgb(0,53,212)"/><rect x="21" y="15" width="1" height="1" fill="rgb(0,35,187)"/><rect x="8" y="15" width="1" height="2" fill="rgb(44,131,251)"/><rect x="22" y="15" width="1" height="2" fill="rgb(44,131,251)"/><rect x="9" y="16" width="2" height="1" fill="rgb(0,35,187)"/><rect x="11" y="16" width="1" height="1" fill="rgb(0,88,243)"/><rect x="12" y="16" width="7" height="1" fill="rgb(17,114,251)"/><rect x="19" y="16" width="1" height="1" fill="rgb(0,88,243)"/><rect x="20" y="16" width="2" height="1" fill="rgb(0,35,187)"/><rect x="10" y="17" width="1" height="1" fill="rgb(0,35,187)"/><rect x="11" y="17" width="1" height="1" fill="rgb(0,53,212)"/><rect x="12" y="17" width="1" height="1" fill="rgb(44,131,251)"/><rect x="13" y="17" width="5" height="1" fill="rgb(17,114,251)"/><rect x="18" y="17" width="1" height="1" fill="rgb(44,131,251)"/><rect x="19" y="17" width="1" height="1" fill="rgb(0,53,212)"/><rect x="20" y="17" width="1" height="1" fill="rgb(0,35,187)"/><rect x="9" y="17" width="1" height="2" fill="rgb(44,131,251)"/><rect x="21" y="17" width="1" height="2" fill="rgb(44,131,251)"/><rect x="10" y="18" width="2" height="1" fill="rgb(0,35,187)"/><rect x="12" y="18" width="1" height="1" fill="rgb(0,88,243)"/><rect x="18" y="18" width="1" height="1" fill="rgb(0,88,243)"/><rect x="19" y="18" width="2" height="1" fill="rgb(0,35,187)"/><rect x="13" y="18" width="5" height="2" fill="rgb(44,131,251)"/><rect x="12" y="19" width="1" height="1" fill="rgb(0,71,228)"/><rect x="18" y="19" width="1" height="1" fill="rgb(0,71,228)"/><rect x="10" y="19" width="1" height="2" fill="rgb(44,131,251)"/><rect x="11" y="19" width="1" height="2" fill="rgb(0,35,187)"/><rect x="19" y="19" width="1" height="2" fill="rgb(0,35,187)"/><rect x="20" y="19" width="1" height="2" fill="rgb(44,131,251)"/><rect x="12" y="20" width="1" height="1" fill="rgb(0,53,212)"/><rect x="13" y="20" width="1" height="1" fill="rgb(0,88,243)"/><rect x="17" y="20" width="1" height="1" fill="rgb(0,88,243)"/><rect x="18" y="20" width="1" height="1" fill="rgb(0,53,212)"/><rect x="14" y="20" width="3" height="2" fill="rgb(44,131,251)"/><rect x="13" y="21" width="1" height="1" fill="rgb(0,71,228)"/><rect x="17" y="21" width="1" height="1" fill="rgb(0,71,228)"/><rect x="11" y="21" width="1" height="2" fill="rgb(44,131,251)"/><rect x="12" y="21" width="1" height="2" fill="rgb(0,35,187)"/><rect x="18" y="21" width="1" height="2" fill="rgb(0,35,187)"/><rect x="19" y="21" width="1" height="2" fill="rgb(44,131,251)"/><rect x="13" y="22" width="1" height="1" fill="rgb(0,53,212)"/><rect x="14" y="22" width="1" height="1" fill="rgb(17,114,251)"/><rect x="16" y="22" width="1" height="1" fill="rgb(17,114,251)"/><rect x="17" y="22" width="1" height="1" fill="rgb(0,53,212)"/><rect x="15" y="22" width="1" height="2" fill="rgb(44,131,251)"/><rect x="14" y="23" width="1" height="1" fill="rgb(0,88,243)"/><rect x="16" y="23" width="1" height="1" fill="rgb(0,88,243)"/><rect x="12" y="23" width="1" height="2" fill="rgb(44,131,251)"/><rect x="13" y="23" width="1" height="2" fill="rgb(0,35,187)"/><rect x="17" y="23" width="1" height="2" fill="rgb(0,35,187)"/><rect x="18" y="23" width="1" height="2" fill="rgb(44,131,251)"/><rect x="14" y="24" width="1" height="1" fill="rgb(0,53,212)"/><rect x="15" y="24" width="1" height="1" fill="rgb(0,88,243)"/><rect x="16" y="24" width="1" height="1" fill="rgb(0,53,212)"/><rect x="13" y="25" width="1" height="1" fill="rgb(44,131,251)"/><rect x="14" y="25" width="1" height="1" fill="rgb(0,35,187)"/><rect x="15" y="25" width="1" height="1" fill="rgb(0,53,212)"/><rect x="16" y="25" width="1" height="1" fill="rgb(0,35,187)"/><rect x="17" y="25" width="1" height="1" fill="rgb(44,131,251)"/><rect x="13" y="26" width="2" height="1" fill="rgb(44,131,251)"/><rect x="15" y="26" width="1" height="1" fill="rgb(0,35,187)"/><rect x="16" y="26" width="2" height="1" fill="rgb(44,131,251)"/><rect x="14" y="27" width="3" height="1" fill="rgb(44,131,251)"/><rect x="15" y="28" width="1" height="1" fill="rgb(44,131,251)"/></svg>