<svg xmlns="http://www.w3.org/2000/svg" width="128" height="144" viewBox="0 0 128 144"><rect x="56" y="21" width="4" height="1" fill="rgb(44,131,251)"/><rect x="55" y="22" width="1" height="1" fill="rgb(44,131,251)"/><rect x="56" y="22" width="1" height="1" fill="rgb(71,155,251)"/><rect x="57" y="22" width="2" height="1" fill="rgb(97,179,251)"/><rect x="59" y="22" width="1" height="1" fill="rgb(71,155,251)"/><rect x="60" y="22" width="1" height="1" fill="rgb(44,131,251)"/><rect x="54" y="23" width="2" height="1" fill="rgb(17,114,251)"/><rect x="56" y="23" width="1" height="1" fill="rgb(44,131,251)"/><rect x="57" y="23" width="2" height="1" fill="rgb(71,155,251)"/><rect x="59" y="23" width="1" height="1" fill="rgb(44,131,251)"/><rect x="60" y="23" width="2" height="1" fill="rgb(17,114,251)"/><rect x="55" y="24" width="2" height="1" fill="rgb(17,114,251)"/><rect x="57" y="24" width="2" height="1" fill="rgb(44,131,251)"/><rect x="59" y="24" width="2" height="1" fill="rgb(17,114,251)"/><rect x="82" y="24" width="4" height="1" fill="rgb(44,131,251)"/><rect x="54" y="24" width="1" height="2" fill="rgb(0,88,243)"/><rect x="61" y="24" width="1" height="2" fill="rgb(0,88,243)"/><rect x="55" y="25" width="1" height="1" fill="rgb(0,71,228)"/><rect x="56" y="25" width="4" height="1" fill="rgb(17,114,251)"/><rect x="60" y="25" width="1" height="1" fill="rgb(0,71,228)"/><rect x="80" y="25" width="2" height="1" fill="rgb(44,131,251)"/><rect x="82" y="25" width="1" height="1" fill="rgb(71,155,251)"/><rect x="83" y="25" width="2" height="1" fill="rgb(97,179,251)"/><rect x="85" y="25" width="1" height="1" fill="rgb(71,155,251)"/><rect x="86" y="25" width="2" height="1" fill="rgb(44,131,251)"/><rect x="54" y="26" width="1" height="1" fill="rgb(17,114,251)"/><rect x="55" y="26" width="1" height="1" fill="rgb(0,88,243)"/><rect x="56" y="26" width="1" height="1" fill="rgb(0,71,228)"/><rect x="57" y="26" width="2" height="1" fill="rgb(0,53,212)"/><rect x="59" y="26" width="1" height="1" fill="rgb(0,71,228)"/><rect x="60" y="26" width="1" height="1" fill="rgb(0,88,243)"/><rect x="61" y="26" width="1" height="1" fill="rgb(17,114,251)"/><rect x="80" y="26" width="1" height="1" fill="rgb(44,131,251)"/><rect x="81" y="26" width="6" height="1" fill="rgb(71,155,251)"/><rect x="87" y="26" width="1" height="1" fill="rgb(44,131,251)"/><rect x="55" y="27" width="1" height="1" fill="rgb(44,131,251)"/><rect x="56" y="27" width="1" height="1" fill="rgb(0,88,243)"/><rect x="57" y="27" width="2" height="1" fill="rgb(0,71,228)"/><rect x="59" y="27" width="1" height="1" fill="rgb(0,88,243)"/><rect x="60" y="27" width="1" height="1" fill="rgb(44,131,251)"/><rect x="79" y="27" width="1" height="1" fill="rgb(0,88,243)"/><rect x="80" y="27" width="1" height="1" fill="rgb(17,114,251)"/><rect x="81" y="27" width="1" height="1" fill="rgb(44,131,251)"/><rect x="82" y="27" width="4" height="1" fill="rgb(71,155,251)"/><rect x="86" y="27" width="1" height="1" fill="rgb(44,131,251)"/><rect x="87" y="27" width="1" height="1" fill="rgb(17,114,251)"/><rect x="88" y="27" width="1" height="1" fill="rgb(0,88,243)"/><rect x="56" y="28" width="4" height="1" fill="rgb(44,131,251)"/><rect x="79" y="28" width="1" height="1" fill="rgb(0,71,228)"/><rect x="80" y="28" width="2" height="1" fill="rgb(17,114,251)"/><rect x="82" y="28" width="4" height="1" fill="rgb(44,131,251)"/><rect x="86" y="28" width="2" height="1" fill="rgb(17,114,251)"/><rect x="88" y="28" width="1" height="1" fill="rgb(0,71,228)"/><rect x="34" y="29" width="4" height="1" fill="rgb(44,131,251)"/><rect x="80" y="29" width="1" height="1" fill="rgb(0,71,228)"/><rect x="81" y="29" width="1" height="1" fill="rgb(0,88,243)"/><rect x="82" y="29" width="4" height="1" fill="rgb(17,114,251)"/><rect x="86" y="29" width="1" height="1" fill="rgb(0,88,243)"/><rect x="87" y="29" width="1" height="1" fill="rgb(0,71,228)"/><rect x="79" y="29" width="1" height="2" fill="rgb(0,88,243)"/><rect x="88" y="29" width="1" height="2" fill="rgb(0,88,243)"/><rect x="32" y="30" width="2" height="1" fill="rgb(44,131,251)"/><rect x="34" y="30" width="1" height="1" fill="rgb(71,155,251)"/><rect x="35" y="30" width="2" height="1" fill="rgb(97,179,251)"/><rect x="37" y="30" width="1" height="1" fill="rgb(71,155,251)"/><rect x="38" y="30" width="2" height="1" fill="rgb(44,131,251)"/><rect x="80" y="30" width="2" height="1" fill="rgb(0,71,228)"/><rect x="82" y="30" width="4" height="1" fill="rgb(0,53,212)"/><rect x="86" y="30" width="2" height="1" fill="rgb(0,71,228)"/><rect x="32" y="31" width="1" height="1" fill="rgb(44,131,251)"/><rect x="33" y="31" width="6" height="1" fill="rgb(71,155,251)"/><rect x="39" y="31" width="1" height="1" fill="rgb(44,131,251)"/><rect x="80" y="31" width="1" height="1" fill="rgb(0,88,243)"/><rect x="81" y="31" width="6" height="1" fill="rgb(0,71,228)"/><rect x="87" y="31" width="1" height="1" fill="rgb(0,88,243)"/><rect x="31" y="32" width="1" height="1" fill="rgb(0,88,243)"/><rect x="32" y="32" width="1" height="1" fill="rgb(17,114,251)"/><rect x="33" y="32" width="1" height="1" fill="rgb(44,131,251)"/><rect x="34" y="32" width="4" height="1" fill="rgb(71,155,251)"/><rect x="38" y="32" width="1" height="1" fill="rgb(44,131,251)"/><rect x="39" y="32" width="1" height="1" fill="rgb(17,114,251)"/><rect x="40" y="32" width="1" height="1" fill="rgb(0,88,243)"/><rect x="80" y="32" width="2" height="1" fill="rgb(44,131,251)"/><rect x="82" y="32" width="4" height="1" fill="rgb(0,88,243)"/><rect x="86" y="32" width="2" height="1" fill="rgb(44,131,251)"/><rect x="31" y="33" width="1" height="1" fill="rgb(0,71,228)"/><rect x="32" y="33" width="2" height="1" fill="rgb(17,114,251)"/><rect x="34" y="33" width="4" height="1" fill="rgb(44,131,251)"/><rect x="38" y="33" width="2" height="1" fill="rgb(17,114,251)"/><rect x="40" y="33" width="1" height="1" fill="rgb(0,71,228)"/><rect x="82" y="33" width="4" height="1" fill="rgb(44,131,251)"/><rect x="32" y="34" width="1" height="1" fill="rgb(0,71,228)"/><rect x="33" y="34" width="1" height="1" fill="rgb(0,88,243)"/><rect x="34" y="34" width="4" height="1" fill="rgb(17,114,251)"/><rect x="38" y="34" width="1" height="1" fill="rgb(0,88,243)"/><rect x="39" y="34" width="1" height="1" fill="rgb(0,71,228)"/><rect x="31" y="34" width="1" height="2" fill="rgb(0,88,243)"/><rect x="40" y="34" width="1" height="2" fill="rgb(0,88,243)"/><rect x="32" y="35" width="2" height="1" fill="rgb(0,71,228)"/><rect x="34" y="35" width="4" height="1" fill="rgb(0,53,212)"/><rect x="38" y="35" width="2" height="1" fill="rgb(0,71,228)"/><rect x="32" y="36" width="1" height="1" fill="rgb(0,88,243)"/><rect x="33" y="36" width="6" height="1" fill="rgb(0,71,228)"/><rect x="39" y="36" width="1" height="1" fill="rgb(0,88,243)"/><rect x="32" y="37" width="2" height="1" fill="rgb(44,131,251)"/><rect x="34" y="37" width="4" height="1" fill="rgb(0,88,243)"/><rect x="38" y="37" width="2" height="1" fill="rgb(44,131,251)"/><rect x="34" y="38" width="4" height="1" fill="rgb(44,131,251)"/><rect x="100" y="39" width="4" height="1" fill="rgb(44,131,251)"/><rect x="98" y="40" width="2" height="1" fill="rgb(44,131,251)"/><rect x="100" y="40" width="1" height="1" fill="rgb(71,155,251)"/><rect x="101" y="40" width="2" height="1" fill="rgb(97,179,251)"/><rect x="103" y="40" width="1" height="1" fill="rgb(71,155,251)"/><rect x="104" y="40" width="2" height="1" fill="rgb(44,131,251)"/><rect x="98" y="41" width="1" height="1" fill="rgb(44,131,251)"/><rect x="99" y="41" width="6" height="1" fill="rgb(71,155,251)"/><rect x="105" y="41" width="1" height="1" fill="rgb(44,131,251)"/><rect x="97" y="42" width="1" height="1" fill="rgb(0,88,243)"/><rect x="98" y="42" width="1" height="1" fill="rgb(17,114,251)"/><rect x="99" y="42" width="1" height="1" fill="rgb(44,131,251)"/><rect x="100" y="42" width="4" height="1" fill="rgb(71,155,251)"/><rect x="104" y="42" width="1" height="1" fill="rgb(44,131,251)"/><rect x="105" y="42" width="1" height="1" fill="rgb(17,114,251)"/><rect x="106" y="42" width="1" height="1" fill="rgb(0,88,243)"/><rect x="97" y="43" width="1" height="1" fill="rgb(0,71,228)"/><rect x="98" y="43" width="2" height="1" fill="rgb(17,114,251)"/><rect x="100" y="43" width="4" height="1" fill="rgb(44,131,251)"/><rect x="104" y="43" width="2" height="1" fill="rgb(17,114,251)"/><rect x="106" y="43" width="1" height="1" fill="rgb(0,71,228)"/><rect x="98" y="44" width="1" height="1" fill="rgb(0,71,228)"/><rect x="99" y="44" width="1" height="1" fill="rgb(0,88,243)"/><rect x="100" y="44" width="4" height="1" fill="rgb(17,114,251)"/><rect x="104" y="44" width="1" height="1" fill="rgb(0,88,243)"/><rect x="105" y="44" width="1" height="1" fill="rgb(0,71,228)"/><rect x="97" y="44" width="1" height="2" fill="rgb(0,88,243)"/><rect x="106" y="44" width="1" height="2" fill="rgb(0,88,243)"/><rect x="98" y="45" width="2" height="1" fill="rgb(0,71,228)"/><rect x="100" y="45" width="4" height="1" fill="rgb(0,53,212)"/><rect x="104" y="45" width="2" height="1" fill="rgb(0,71,228)"/><rect x="98" y="46" width="1" height="1" fill="rgb(0,88,243)"/><rect x="99" y="46" width="6" height="1" fill="rgb(0,71,228)"/><rect x="105" y="46" width="1" height="1" fill="rgb(0,88,243)"/><rect x="19" y="47" width="4" height="1" fill="rgb(44,131,251)"/><rect x="98" y="47" width="2" height="1" fill="rgb(44,131,251)"/><rect x="100" y="47" width="4" height="1" fill="rgb(0,88,243)"/><rect x="104" y="47" width="2" height="1" fill="rgb(44,131,251)"/><rect x="17" y="48" width="2" height="1" fill="rgb(44,131,251)"/><rect x="19" y="48" width="1" height="1" fill="rgb(71,155,251)"/><rect x="20" y="48" width="2" height="1" fill="rgb(97,179,251)"/><rect x="22" y="48" width="1" height="1" fill="rgb(71,155,251)"/><rect x="23" y="48" width="2" height="1" fill="rgb(44,131,251)"/><rect x="100" y="48" width="4" height="1" fill="rgb(44,131,251)"/><rect x="17" y="49" width="1" height="1" fill="rgb(44,131,251)"/><rect x="18" y="49" width="6" height="1" fill="rgb(71,155,251)"/><rect x="24" y="49" width="1" height="1" fill="rgb(44,131,251)"/><rect x="16" y="50" width="1" height="1" fill="rgb(0,88,243)"/><rect x="17" y="50" width="1" height="1" fill="rgb(17,114,251)"/><rect x="18" y="50" width="1" height="1" fill="rgb(44,131,251)"/><rect x="19" y="50" width="4" height="1" fill="rgb(71,155,251)"/><rect x="23" y="50" width="1" height="1" fill="rgb(44,131,251)"/><rect x="24" y="50" width="1" height="1" fill="rgb(17,114,251)"/><rect x="25" y="50" width="1" height="1" fill="rgb(0,88,243)"/><rect x="16" y="51" width="1" height="1" fill="rgb(0,71,228)"/><rect x="17" y="51" width="2" height="1" fill="rgb(17,114,251)"/><rect x="19" y="51" width="4" height="1" fill="rgb(44,131,251)"/><rect x="23" y="51" width="2" height="1" fill="rgb(17,114,251)"/><rect x="25" y="51" width="1" height="1" fill="rgb(0,71,228)"/><rect x="17" y="52" width="1" height="1" fill="rgb(0,71,228)"/><rect x="18" y="52" width="1" height="1" fill="rgb(0,88,243)"/><rect x="19" y="52" width="4" height="1" fill="rgb(17,114,251)"/><rect x="23" y="52" width="1" height="1" fill="rgb(0,88,243)"/><rect x="24" y="52" width="1" height="1" fill="rgb(0,71,228)"/><rect x="16" y="52" width="1" height="2" fill="rgb(0,88,243)"/><rect x="25" y="52" width="1" height="2" fill="rgb(0,88,243)"/><rect x="17" y="53" width="2" height="1" fill="rgb(0,71,228)"/><rect x="19" y="53" width="4" height="1" fill="rgb(0,53,212)"/><rect x="23" y="53" width="2" height="1" fill="rgb(0,71,228)"/><rect x="17" y="54" width="1" height="1" fill="rgb(0,88,243)"/><rect x="18" y="54" width="6" height="1" fill="rgb(0,71,228)"/><rect x="24" y="54" width="1" height="1" fill="rgb(0,88,243)"/><rect x="17" y="55" width="2" height="1" fill="rgb(44,131,251)"/><rect x="19" y="55" width="4" height="1" fill="rgb(0,88,243)"/><rect x="23" y="55" width="2" height="1" fill="rgb(44,131,251)"/><rect x="19" y="56" width="4" height="1" fill="rgb(44,131,251)"/><rect x="109" y="61" width="4" height="1" fill="rgb(44,131,251)"/><rect x="107" y="62" width="2" height="1" fill="rgb(44,131,251)"/><rect x="109" y="62" width="1" height="1" fill="rgb(71,155,251)"/><rect x="110" y="62" width="2" height="1" fill="rgb(97,179,251)"/><rect x="112" y="62" width="1" height="1" fill="rgb(71,155,251)"/><rect x="113" y="62" width="2" height="1" fill="rgb(44,131,251)"/><rect x="107" y="63" width="1" height="1" fill="rgb(44,131,251)"/><rect x="108" y="63" width="6" height="1" fill="rgb(71,155,251)"/><rect x="114" y="63" width="1" height="1" fill="rgb(44,131,251)"/><rect x="106" y="64" width="1" height="1" fill="rgb(0,88,243)"/><rect x="107" y="64" width="1" height="1" fill="rgb(17,114,251)"/><rect x="108" y="64" width="1" height="1" fill="rgb(44,131,251)"/><rect x="109" y="64" width="4" height="1" fill="rgb(71,155,251)"/><rect x="113" y="64" width="1" height="1" fill="rgb(44,131,251)"/><rect x="114" y="64" width="1" height="1" fill="rgb(17,114,251)"/><rect x="115" y="64" width="1" height="1" fill="rgb(0,88,243)"/><rect x="106" y="65" width="1" height="1" fill="rgb(0,71,228)"/><rect x="107" y="65" width="2" height="1" fill="rgb(17,114,251)"/><rect x="109" y="65" width="4" height="1" fill="rgb(44,131,251)"/><rect x="113" y="65" width="2" height="1" fill="rgb(17,114,251)"/><rect x="115" y="65" width="1" height="1" fill="rgb(0,71,228)"/><rect x="107" y="66" width="1" height="1" fill="rgb(0,71,228)"/><rect x="108" y="66" width="1" height="1" fill="rgb(0,88,243)"/><rect x="109" y="66" width="4" height="1" fill="rgb(17,114,251)"/><rect x="113" y="66" width="1" height="1" fill="rgb(0,88,243)"/><rect x="114" y="66" width="1" height="1" fill="rgb(0,71,228)"/><rect x="106" y="66" width="1" height="2" fill="rgb(0,88,243)"/><rect x="115" y="66" width="1" height="2" fill="rgb(0,88,243)"/><rect x="107" y="67" width="2" height="1" fill="rgb(0,71,228)"/><rect x="109" y="67" width="4" height="1" fill="rgb(0,53,212)"/><rect x="113" y="67" width="2" height="1" fill="rgb(0,71,228)"/><rect x="107" y="68" width="1" height="1" fill="rgb(0,88,243)"/><rect x="108" y="68" width="6" height="1" fill="rgb(0,71,228)"/><rect x="114" y="68" width="1" height="1" fill="rgb(0,88,243)"/><rect x="107" y="69" width="2" height="1" fill="rgb(44,131,251)"/><rect x="109" y="69" width="4" height="1" fill="rgb(0,88,243)"/><rect x="113" y="69" width="2" height="1" fill="rgb(44,131,251)"/><rect x="109" y="70" width="4" height="1" fill="rgb(44,131,251)"/><rect x="15" y="73" width="4" height="1" fill="rgb(44,131,251)"/><rect x="13" y="74" width="2" height="1" fill="rgb(44,131,251)"/><rect x="15" y="74" width="1" height="1" fill="rgb(71,155,251)"/><rect x="16" y="74" width="2" height="1" fill="rgb(97,179,251)"/><rect x="18" y="74" width="1" height="1" fill="rgb(71,155,251)"/><rect x="19" y="74" width="2" height="1" fill="rgb(44,131,251)"/><rect x="13" y="75" width="1" height="1" fill="rgb(44,131,251)"/><rect x="14" y="75" width="6" height="1" fill="rgb(71,155,251)"/><rect x="20" y="75" width="1" height="1" fill="rgb(44,131,251)"/><rect x="12" y="76" width="1" height="1" fill="rgb(0,88,243)"/><rect x="13" y="76" width="1" height="1" fill="rgb(17,114,251)"/><rect x="14" y="76" width="1" height="1" fill="rgb(44,131,251)"/><rect x="15" y="76" width="4" height="1" fill="rgb(71,155,251)"/><rect x="19" y="76" width="1" height="1" fill="rgb(44,131,251)"/><rect x="20" y="76" width="1" height="1" fill="rgb(17,114,251)"/><rect x="21" y="76" width="1" height="1" fill="rgb(0,88,243)"/><rect x="12" y="77" width="1" height="1" fill="rgb(0,71,228)"/><rect x="13" y="77" width="2" height="1" fill="rgb(17,114,251)"/><rect x="15" y="77" width="4" height="1" fill="rgb(44,131,251)"/><rect x="19" y="77" width="2" height="1" fill="rgb(17,114,251)"/><rect x="21" y="77" width="1" height="1" fill="rgb(0,71,228)"/><rect x="13" y="78" width="1" height="1" fill="rgb(0,71,228)"/><rect x="14" y="78" width="1" height="1" fill="rgb(0,88,243)"/><rect x="15" y="78" width="4" height="1" fill="rgb(17,114,251)"/><rect x="19" y="78" width="1" height="1" fill="rgb(0,88,243)"/><rect x="20" y="78" width="1" height="1" fill="rgb(0,71,228)"/><rect x="12" y="78" width="1" height="2" fill="rgb(0,88,243)"/><rect x="21" y="78" width="1" height="2" fill="rgb(0,88,243)"/><rect x="13" y="79" width="2" height="1" fill="rgb(0,71,228)"/><rect x="15" y="79" width="4" height="1" fill="rgb(0,53,212)"/><rect x="19" y="79" width="2" height="1" fill="rgb(0,71,228)"/><rect x="13" y="80" width="1" height="1" fill="rgb(0,88,243)"/><rect x="14" y="80" width="6" height="1" fill="rgb(0,71,228)"/><rect x="20" y="80" width="1" height="1" fill="rgb(0,88,243)"/><rect x="13" y="81" width="2" height="1" fill="rgb(44,131,251)"/><rect x="15" y="81" width="4" height="1" fill="rgb(0,88,243)"/><rect x="19" y="81" width="2" height="1" fill="rgb(44,131,251)"/><rect x="15" y="82" width="4" height="1" fill="rgb(44,131,251)"/><rect x="105" y="87" width="4" height="1" fill="rgb(44,131,251)"/><rect x="103" y="88" width="2" height="1" fill="rgb(44,131,251)"/><rect x="105" y="88" width="1" height="1" fill="rgb(71,155,251)"/><rect x="106" y="88" width="2" height="1" fill="rgb(97,179,251)"/><rect x="108" y="88" width="1" height="1" fill="rgb(71,155,251)"/><rect x="109" y="88" width="2" height="1" fill="rgb(44,131,251)"/><rect x="103" y="89" width="1" height="1" fill="rgb(44,131,251)"/><rect x="104" y="89" width="6" height="1" fill="rgb(71,155,251)"/><rect x="110" y="89" width="1" height="1" fill="rgb(44,131,251)"/><rect x="102" y="90" width="1" height="1" fill="rgb(0,88,243)"/><rect x="103" y="90" width="1" height="1" fill="rgb(17,114,251)"/><rect x="104" y="90" width="1" height="1" fill="rgb(44,131,251)"/><rect x="105" y="90" width="4" height="1" fill="rgb(71,155,251)"/><rect x="109" y="90" width="1" height="1" fill="rgb(44,131,251)"/><rect x="110" y="90" width="1" height="1" fill="rgb(17,114,251)"/><rect x="111" y="90" width="1" height="1" fill="rgb(0,88,243)"/><rect x="102" y="91" width="1" height="1" fill="rgb(0,71,228)"/><rect x="103" y="91" width="2" height="1" fill="rgb(17,114,251)"/><rect x="105" y="91" width="4" height="1" fill="rgb(44,131,251)"/><rect x="109" y="91" width="2" height="1" fill="rgb(17,114,251)"/><rect x="111" y="91" width="1" height="1" fill="rgb(0,71,228)"/><rect x="103" y="92" width="1" height="1" fill="rgb(0,71,228)"/><rect x="104" y="92" width="1" height="1" fill="rgb(0,88,243)"/><rect x="105" y="92" width="4" height="1" fill="rgb(17,114,251)"/><rect x="109" y="92" width="1" height="1" fill="rgb(0,88,243)"/><rect x="110" y="92" width="1" height="1" fill="rgb(0,71,228)"/><rect x="102" y="92" width="1" height="2" fill="rgb(0,88,243)"/><rect x="111" y="92" width="1" height="2" fill="rgb(0,88,243)"/><rect x="103" y="93" width="2" height="1" fill="rgb(0,71,228)"/><rect x="105" y="93" width="4" height="1" fill="rgb(0,53,212)"/><rect x="109" y="93" width="2" height="1" fill="rgb(0,71,228)"/><rect x="103" y="94" width="1" height="1" fill="rgb(0,88,243)"/><rect x="104" y="94" width="6" height="1" fill="rgb(0,71,228)"/><rect x="110" y="94" width="1" height="1" fill="rgb(0,88,243)"/><rect x="24" y="95" width="4" height="1" fill="rgb(44,131,251)"/><rect x="103" y="95" width="2" height="1" fill="rgb(44,131,251)"/><rect x="105" y="95" width="4" height="1" fill="rgb(0,88,243)"/><rect x="109" y="95" width="2" height="1" fill="rgb(44,131,251)"/><rect x="22" y="96" width="2" height="1" fill="rgb(44,131,251)"/><rect x="24" y="96" width="1" height="1" fill="rgb(71,155,251)"/><rect x="25" y="96" width="2" height="1" fill="rgb(97,179,251)"/><rect x="27" y="96" width="1" height="1" fill="rgb(71,155,251)"/><rect x="28" y="96" width="2" height="1" fill="rgb(44,131,251)"/><rect x="105" y="96" width="4" height="1" fill="rgb(44,131,251)"/><rect x="22" y="97" width="1" height="1" fill="rgb(44,131,251)"/><rect x="23" y="97" width="6" height="1" fill="rgb(71,155,251)"/><rect x="29" y="97" width="1" height="1" fill="rgb(44,131,251)"/><rect x="21" y="98" width="1" height="1" fill="rgb(0,88,243)"/><rect x="22" y="98" width="1" height="1" fill="rgb(17,114,251)"/><rect x="23" y="98" width="1" height="1" fill="rgb(44,131,251)"/><rect x="24" y="98" width="4" height="1" fill="rgb(71,155,251)"/><rect x="28" y="98" width="1" height="1" fill="rgb(44,131,251)"/><rect x="29" y="98" width="1" height="1" fill="rgb(17,114,251)"/><rect x="30" y="98" width="1" height="1" fill="rgb(0,88,243)"/><rect x="21" y="99" width="1" height="1" fill="rgb(0,71,228)"/><rect x="22" y="99" width="2" height="1" fill="rgb(17,114,251)"/><rect x="24" y="99" width="4" height="1" fill="rgb(44,131,251)"/><rect x="28" y="99" width="2" height="1" fill="rgb(17,114,251)"/><rect x="30" y="99" width="1" height="1" fill="rgb(0,71,228)"/><rect x="22" y="100" width="1" height="1" fill="rgb(0,71,228)"/><rect x="23" y="100" width="1" height="1" fill="rgb(0,88,243)"/><rect x="24" y="100" width="4" height="1" fill="rgb(17,114,251)"/><rect x="28" y="100" width="1" height="1" fill="rgb(0,88,243)"/><rect x="29" y="100" width="1" height="1" fill="rgb(0,71,228)"/><rect x="21" y="100" width="1" height="2" fill="rgb(0,88,243)"/><rect x="30" y="100" width="1" height="2" fill="rgb(0,88,243)"/><rect x="22" y="101" width="2" height="1" fill="rgb(0,71,228)"/><rect x="24" y="101" width="4" height="1" fill="rgb(0,53,212)"/><rect x="28" y="101" width="2" height="1" fill="rgb(0,71,228)"/><rect x="22" y="102" width="1" height="1" fill="rgb(0,88,243)"/><rect x="23" y="102" width="6" height="1" fill="rgb(0,71,228)"/><rect x="29" y="102" width="1" height="1" fill="rgb(0,88,243)"/><rect x="22" y="103" width="2" height="1" fill="rgb(44,131,251)"/><rect x="24" y="103" width="4" height="1" fill="rgb(0,88,243)"/><rect x="28" y="103" width="2" height="1" fill="rgb(44,131,251)"/><rect x="24" y="104" width="4" height="1" fill="rgb(44,131,251)"/><rect x="90" y="105" width="4" height="1" fill="rgb(44,131,251)"/><rect x="88" y="106" width="2" height="1" fill="rgb(44,131,251)"/><rect x="90" y="106" width="1" height="1" fill="rgb(71,155,251)"/><rect x="91" y="106" width="2" height="1" fill="rgb(97,179,251)"/><rect x="93" y="106" width="1" height="1" fill="rgb(71,155,251)"/><rect x="94" y="106" width="2" height="1" fill="rgb(44,131,251)"/><rect x="88" y="107" width="1" height="1" fill="rgb(44,131,251)"/><rect x="89" y="107" width="6" height="1" fill="rgb(71,155,251)"/><rect x="95" y="107" width="1" height="1" fill="rgb(44,131,251)"/><rect x="87" y="108" width="1" height="1" fill="rgb(0,88,243)"/><rect x="88" y="108" width="1" height="1" fill="rgb(17,114,251)"/><rect x="89" y="108" width="1" height="1" fill="rgb(44,131,251)"/><rect x="90" y="108" width="4" height="1" fill="rgb(71,155,251)"/><rect x="94" y="108" width="1" height="1" fill="rgb(44,131,251)"/><rect x="95" y="108" width="1" height="1" fill="rgb(17,114,251)"/><rect x="96" y="108" width="1" height="1" fill="rgb(0,88,243)"/><rect x="87" y="109" width="1" height="1" fill="rgb(0,71,228)"/><rect x="88" y="109" width="2" height="1" fill="rgb(17,114,251)"/><rect x="90" y="109" width="4" height="1" fill="rgb(44,131,251)"/><rect x="94" y="109" width="2" height="1" fill="rgb(17,114,251)"/><rect x="96" y="109" width="1" height="1" fill="rgb(0,71,228)"/><rect x="42" y="110" width="4" height="1" fill="rgb(44,131,251)"/><rect x="88" y="110" width="1" height="1" fill="rgb(0,71,228)"/><rect x="89" y="110" width="1" height="1" fill="rgb(0,88,243)"/><rect x="90" y="110" width="4" height="1" fill="rgb(17,114,251)"/><rect x="94" y="110" width="1" height="1" fill="rgb(0,88,243)"/><rect x="95" y="110" width="1" height="1" fill="rgb(0,71,228)"/><rect x="87" y="110" width="1" height="2" fill="rgb(0,88,243)"/><rect x="96" y="110" width="1" height="2" fill="rgb(0,88,243)"/><rect x="40" y="111" width="2" height="1" fill="rgb(44,131,251)"/><rect x="42" y="111" width="1" height="1" fill="rgb(71,155,251)"/><rect x="43" y="111" width="2" height="1" fill="rgb(97,179,251)"/><rect x="45" y="111" width="1" height="1" fill="rgb(71,155,251)"/><rect x="46" y="111" width="2" height="1" fill="rgb(44,131,251)"/><rect x="88" y="111" width="2" height="1" fill="rgb(0,71,228)"/><rect x="90" y="111" width="4" height="1" fill="rgb(0,53,212)"/><rect x="94" y="111" width="2" height="1" fill="rgb(0,71,228)"/><rect x="40" y="112" width="1" height="1" fill="rgb(44,131,251)"/><rect x="41" y="112" width="6" height="1" fill="rgb(71,155,251)"/><rect x="47" y="112" width="1" height="1" fill="rgb(44,131,251)"/><rect x="88" y="112" width="1" height="1" fill="rgb(0,88,243)"/><rect x="89" y="112" width="6" height="1" fill="rgb(0,71,228)"/><rect x="95" y="112" width="1" height="1" fill="rgb(0,88,243)"/><rect x="39" y="113" width="1" height="1" fill="rgb(0,88,243)"/><rect x="40" y="113" width="1" height="1" fill="rgb(17,114,251)"/><rect x="41" y="113" width="1" height="1" fill="rgb(44,131,251)"/><rect x="42" y="113" width="4" height="1" fill="rgb(71,155,251)"/><rect x="46" y="113" width="1" height="1" fill="rgb(44,131,251)"/><rect x="47" y="113" width="1" height="1" fill="rgb(17,114,251)"/><rect x="48" y="113" width="1" height="1" fill="rgb(0,88,243)"/><rect x="68" y="113" width="4" height="1" fill="rgb(44,131,251)"/><rect x="88" y="113" width="2" height="1" fill="rgb(44,131,251)"/><rect x="90" y="113" width="4" height="1" fill="rgb(0,88,243)"/><rect x="94" y="113" width="2" height="1" fill="rgb(44,131,251)"/><rect x="39" y="114" width="1" height="1" fill="rgb(0,71,228)"/><rect x="40" y="114" width="2" height="1" fill="rgb(17,114,251)"/><rect x="42" y="114" width="4" height="1" fill="rgb(44,131,251)"/><rect x="46" y="114" width="2" height="1" fill="rgb(17,114,251)"/><rect x="48" y="114" width="1" height="1" fill="rgb(0,71,228)"/><rect x="66" y="114" width="2" height="1" fill="rgb(44,131,251)"/><rect x="68" y="114" width="4" height="1" fill="rgb(71,155,251)"/><rect x="72" y="114" width="2" height="1" fill="rgb(44,131,251)"/><rect x="90" y="114" width="4" height="1" fill="rgb(44,131,251)"/><rect x="40" y="115" width="1" height="1" fill="rgb(0,71,228)"/><rect x="41" y="115" width="1" height="1" fill="rgb(0,88,243)"/><rect x="42" y="115" width="4" height="1" fill="rgb(17,114,251)"/><rect x="46" y="115" width="1" height="1" fill="rgb(0,88,243)"/><rect x="47" y="115" width="1" height="1" fill="rgb(0,71,228)"/><rect x="65" y="115" width="2" height="1" fill="rgb(44,131,251)"/><rect x="67" y="115" width="1" height="1" fill="rgb(71,155,251)"/><rect x="68" y="115" width="4" height="1" fill="rgb(97,179,251)"/><rect x="72" y="115" width="1" height="1" fill="rgb(71,155,251)"/><rect x="73" y="115" width="2" height="1" fill="rgb(44,131,251)"/><rect x="39" y="115" width="1" height="2" fill="rgb(0,88,243)"/><rect x="48" y="115" width="1" height="2" fill="rgb(0,88,243)"/><rect x="40" y="116" width="2" height="1" fill="rgb(0,71,228)"/><rect x="42" y="116" width="4" height="1" fill="rgb(0,53,212)"/><rect x="46" y="116" width="2" height="1" fill="rgb(0,71,228)"/><rect x="65" y="116" width="1" height="1" fill="rgb(44,131,251)"/><rect x="66" y="116" width="8" height="1" fill="rgb(71,155,251)"/><rect x="74" y="116" width="1" height="1" fill="rgb(44,131,251)"/><rect x="40" y="117" width="1" height="1" fill="rgb(0,88,243)"/><rect x="41" y="117" width="6" height="1" fill="rgb(0,71,228)"/><rect x="47" y="117" width="1" height="1" fill="rgb(0,88,243)"/><rect x="66" y="117" width="1" height="1" fill="rgb(17,114,251)"/><rect x="67" y="117" width="1" height="1" fill="rgb(44,131,251)"/><rect x="68" y="117" width="4" height="1" fill="rgb(71,155,251)"/><rect x="72" y="117" width="1" height="1" fill="rgb(44,131,251)"/><rect x="73" y="117" width="1" height="1" fill="rgb(17,114,251)"/><rect x="65" y="117" width="1" height="2" fill="rgb(0,88,243)"/><rect x="74" y="117" width="1" height="2" fill="rgb(0,88,243)"/><rect x="40" y="118" width="2" height="1" fill="rgb(44,131,251)"/><rect x="42" y="118" width="4" height="1" fill="rgb(0,88,243)"/><rect x="46" y="118" width="2" height="1" fill="rgb(44,131,251)"/><rect x="66" y="118" width="2" height="1" fill="rgb(17,114,251)"/><rect x="68" y="118" width="4" height="1" fill="rgb(44,131,251)"/><rect x="72" y="118" width="2" height="1" fill="rgb(17,114,251)"/><rect x="42" y="119" width="4" height="1" fill="rgb(44,131,251)"/><rect x="65" y="119" width="1" height="1" fill="rgb(0,71,228)"/><rect x="66" y="119" width="2" height="1" fill="rgb(0,88,243)"/><rect x="68" y="119" width="4" height="1" fill="rgb(17,114,251)"/><rect x="72" y="119" width="2" height="1" fill="rgb(0,88,243)"/><rect x="74" y="119" width="1" height="1" fill="rgb(0,71,228)"/><rect x="64" y="117" width="1" height="4" fill="rgb(17,114,251)"/><rect x="75" y="117" width="1" height="4" fill="rgb(17,114,251)"/><rect x="65" y="120" width="1" height="1" fill="rgb(0,88,243)"/><rect x="66" y="120" width="1" height="1" fill="rgb(0,71,228)"/><rect x="67" y="120" width="1" height="1" fill="rgb(0,53,212)"/><rect x="68" y="120" width="1" height="1" fill="rgb(0,71,228)"/><rect x="69" y="120" width="2" height="1" fill="rgb(0,88,243)"/><rect x="71" y="120" width="1" height="1" fill="rgb(0,71,228)"/><rect x="72" y="120" width="1" height="1" fill="rgb(0,53,212)"/><rect x="73" y="120" width="1" height="1" fill="rgb(0,71,228)"/><rect x="74" y="120" width="1" height="1" fill="rgb(0,88,243)"/><rect x="66" y="121" width="1" height="1" fill="rgb(0,88,243)"/><rect x="67" y="121" width="1" height="1" fill="rgb(0,71,228)"/><rect x="68" y="121" width="1" height="1" fill="rgb(0,53,212)"/><rect x="69" y="121" width="2" height="1" fill="rgb(0,35,187)"/><rect x="71" y="121" width="1" height="1" fill="rgb(0,53,212)"/><rect x="72" y="121" width="1" height="1" fill="rgb(0,71,228)"/><rect x="73" y="121" width="1" height="1" fill="rgb(0,88,243)"/><rect x="65" y="121" width="1" height="2" fill="rgb(17,114,251)"/><rect x="74" y="121" width="1" height="2" fill="rgb(17,114,251)"/><rect x="66" y="122" width="2" height="1" fill="rgb(0,88,243)"/><rect x="68" y="122" width="4" height="1" fill="rgb(0,71,228)"/><rect x="72" y="122" width="2" height="1" fill="rgb(0,88,243)"/><rect x="66" y="123" width="1" height="1" fill="rgb(44,131,251)"/><rect x="67" y="123" width="6" height="1" fill="rgb(17,114,251)"/><rect x="73" y="123" width="1" height="1" fill="rgb(44,131,251)"/><rect x="68" y="124" width="4" height="1" fill="rgb(44,131,251)"/></svg>