<svg xmlns="http://www.w3.org/2000/svg" width="128" height="144" viewBox="0 0 128 144"><rect x="101" y="84" width="4" height="1" fill="rgb(44,131,251)"/><rect x="100" y="85" width="2" height="1" fill="rgb(44,131,251)"/><rect x="102" y="85" width="2" height="1" fill="rgb(71,155,251)"/><rect x="104" y="85" width="2" height="1" fill="rgb(44,131,251)"/><rect x="100" y="86" width="2" height="1" fill="rgb(17,114,251)"/><rect x="102" y="86" width="2" height="1" fill="rgb(44,131,251)"/><rect x="104" y="86" width="2" height="1" fill="rgb(17,114,251)"/><rect x="100" y="87" width="1" height="1" fill="rgb(0,71,228)"/><rect x="101" y="87" width="4" height="1" fill="rgb(17,114,251)"/><rect x="105" y="87" width="1" height="1" fill="rgb(0,71,228)"/><rect x="100" y="88" width="1" height="1" fill="rgb(17,114,251)"/><rect x="101" y="88" width="1" height="1" fill="rgb(0,71,228)"/><rect x="102" y="88" width="2" height="1" fill="rgb(0,53,212)"/><rect x="104" y="88" width="1" height="1" fill="rgb(0,71,228)"/><rect x="105" y="88" width="1" height="1" fill="rgb(17,114,251)"/><rect x="101" y="89" width="1" height="1" fill="rgb(17,114,251)"/><rect x="102" y="89" width="2" height="1" fill="rgb(0,71,228)"/><rect x="104" y="89" width="1" height="1" fill="rgb(17,114,251)"/><rect x="82" y="100" width="4" height="1" fill="rgb(44,131,251)"/><rect x="81" y="101" width="2" height="1" fill="rgb(44,131,251)"/><rect x="83" y="101" width="2" height="1" fill="rgb(71,155,251)"/><rect x="85" y="101" width="2" height="1" fill="rgb(44,131,251)"/><rect x="81" y="102" width="2" height="1" fill="rgb(17,114,251)"/><rect x="83" y="102" width="2" height="1" fill="rgb(44,131,251)"/><rect x="85" y="102" width="2" height="1" fill="rgb(17,114,251)"/><rect x="81" y="103" width="1" height="1" fill="rgb(0,71,228)"/><rect x="82" y="103" width="4" height="1" fill="rgb(17,114,251)"/><rect x="86" y="103" width="1" height="1" fill="rgb(0,71,228)"/><rect x="56" y="104" width="4" height="1" fill="rgb(44,131,251)"/><rect x="81" y="104" width="1" height="1" fill="rgb(17,114,251)"/><rect x="82" y="104" width="1" height="1" fill="rgb(0,71,228)"/><rect x="83" y="104" width="2" height="1" fill="rgb(0,53,212)"/><rect x="85" y="104" width="1" height="1" fill="rgb(0,71,228)"/><rect x="86" y="104" width="1" height="1" fill="rgb(17,114,251)"/><rect x="55" y="105" width="2" height="1" fill="rgb(44,131,251)"/><rect x="57" y="105" width="2" height="1" fill="rgb(71,155,251)"/><rect x="59" y="105" width="2" height="1" fill="rgb(44,131,251)"/><rect x="82" y="105" width="1" height="1" fill="rgb(17,114,251)"/><rect x="83" y="105" width="2" height="1" fill="rgb(0,71,228)"/><rect x="85" y="105" width="1" height="1" fill="rgb(17,114,251)"/><rect x="55" y="106" width="2" height="1" fill="rgb(17,114,251)"/><rect x="57" y="106" width="2" height="1" fill="rgb(44,131,251)"/><rect x="59" y="106" width="2" height="1" fill="rgb(17,114,251)"/><rect x="55" y="107" width="1" height="1" fill="rgb(0,71,228)"/><rect x="56" y="107" width="4" height="1" fill="rgb(17,114,251)"/><rect x="60" y="107" width="1" height="1" fill="rgb(0,71,228)"/><rect x="55" y="108" width="1" height="1" fill="rgb(17,114,251)"/><rect x="56" y="108" width="1" height="1" fill="rgb(0,71,228)"/><rect x="57" y="108" width="2" height="1" fill="rgb(0,53,212)"/><rect x="59" y="108" width="1" height="1" fill="rgb(0,71,228)"/><rect x="60" y="108" width="1" height="1" fill="rgb(17,114,251)"/><rect x="56" y="109" width="1" height="1" fill="rgb(17,114,251)"/><rect x="57" y="109" width="2" height="1" fill="rgb(0,71,228)"/><rect x="59" y="109" width="1" height="1" fill="rgb(17,114,251)"/></svg>