<svg xmlns="http://www.w3.org/2000/svg" width="128" height="144" viewBox="0 0 128 144"><rect x="87" y="93" width="4" height="1" fill="rgb(44,131,251)"/><rect x="86" y="94" width="2" height="1" fill="rgb(44,131,251)"/><rect x="88" y="94" width="2" height="1" fill="rgb(71,155,251)"/><rect x="90" y="94" width="2" height="1" fill="rgb(44,131,251)"/><rect x="86" y="95" width="2" height="1" fill="rgb(17,114,251)"/><rect x="88" y="95" width="2" height="1" fill="rgb(44,131,251)"/><rect x="90" y="95" width="2" height="1" fill="rgb(17,114,251)"/><rect x="86" y="96" width="1" height="1" fill="rgb(0,71,228)"/><rect x="87" y="96" width="4" height="1" fill="rgb(17,114,251)"/><rect x="91" y="96" width="1" height="1" fill="rgb(0,71,228)"/><rect x="86" y="97" width="1" height="1" fill="rgb(17,114,251)"/><rect x="87" y="97" width="1" height="1" fill="rgb(0,71,228)"/><rect x="88" y="97" width="2" height="1" fill="rgb(0,53,212)"/><rect x="90" y="97" width="1" height="1" fill="rgb(0,71,228)"/><rect x="91" y="97" width="1" height="1" fill="rgb(17,114,251)"/><rect x="87" y="98" width="1" height="1" fill="rgb(17,114,251)"/><rect x="88" y="98" width="2" height="1" fill="rgb(0,71,228)"/><rect x="90" y="98" width="1" height="1" fill="rgb(17,114,251)"/><rect x="65" y="101" width="2" height="2" fill="rgb(44,131,251)"/><rect x="64" y="102" width="1" height="1" fill="rgb(0,71,228)"/><rect x="67" y="102" width="1" height="1" fill="rgb(0,71,228)"/><rect x="64" y="103" width="1" height="1" fill="rgb(0,88,243)"/><rect x="65" y="103" width="2" height="1" fill="rgb(0,71,228)"/><rect x="67" y="103" width="1" height="1" fill="rgb(0,88,243)"/><rect x="65" y="104" width="2" height="1" fill="rgb(17,114,251)"/></svg>