<svg xmlns="http://www.w3.org/2000/svg" width="32" height="32" viewBox="0 0 32 32"><rect x="6" y="5" width="2" height="1" fill="rgb(0,17,228)"/><rect x="8" y="5" width="15" height="1" fill="rgb(7,53,212)"/><rect x="6" y="6" width="17" height="1" fill="rgb(0,17,228)"/><rect x="23" y="6" width="1" height="1" fill="rgb(0,0,196)"/><rect x="6" y="7" width="17" height="1" fill="rgb(0,0,196)"/><rect x="23" y="7" width="1" height="1" fill="rgb(0,17,228)"/><rect x="24" y="7" width="1" height="1" fill="rgb(7,53,212)"/><rect x="7" y="8" width="16" height="1" fill="rgb(0,0,172)"/><rect x="23" y="8" width="2" height="1" fill="rgb(0,17,228)"/><rect x="7" y="9" width="17" height="1" fill="rgb(0,0,172)"/><rect x="24" y="9" width="1" height="1" fill="rgb(0,17,228)"/><rect x="7" y="10" width="16" height="1" fill="rgb(0,0,139)"/><rect x="23" y="10" width="2" height="2" fill="rgb(0,0,172)"/><rect x="12" y="11" width="1" height="1" fill="rgb(251,251,251)"/><rect x="13" y="11" width="1" height="1" fill="rgb(53,139,243)"/><rect x="14" y="11" width="1" height="1" fill="rgb(0,0,172)"/><rect x="15" y="11" width="8" height="1" fill="rgb(0,0,139)"/><rect x="12" y="12" width="3" height="1" fill="rgb(251,251,251)"/><rect x="15" y="12" width="1" height="1" fill="rgb(53,139,243)"/><rect x="16" y="12" width="1" height="1" fill="rgb(0,0,172)"/><rect x="17" y="12" width="6" height="1" fill="rgb(0,0,139)"/><rect x="23" y="12" width="1" height="2" fill="rgb(0,0,196)"/><rect x="12" y="13" width="5" height="1" fill="rgb(251,251,251)"/><rect x="17" y="13" width="1" height="1" fill="rgb(53,139,243)"/><rect x="18" y="13" width="1" height="1" fill="rgb(0,0,172)"/><rect x="19" y="13" width="4" height="1" fill="rgb(0,0,139)"/><rect x="24" y="12" width="1" height="3" fill="rgb(0,0,172)"/><rect x="12" y="14" width="7" height="1" fill="rgb(251,251,251)"/><rect x="19" y="14" width="1" height="1" fill="rgb(53,139,243)"/><rect x="20" y="14" width="1" height="1" fill="rgb(0,0,172)"/><rect x="21" y="14" width="2" height="1" fill="rgb(0,0,139)"/><rect x="6" y="8" width="1" height="8" fill="rgb(0,0,196)"/><rect x="7" y="11" width="5" height="5" fill="rgb(0,0,139)"/><rect x="23" y="14" width="1" height="2" fill="rgb(0,17,228)"/><rect x="12" y="15" width="9" height="1" fill="rgb(251,251,251)"/><rect x="21" y="15" width="1" height="1" fill="rgb(53,139,243)"/><rect x="22" y="15" width="1" height="1" fill="rgb(0,0,139)"/><rect x="24" y="15" width="1" height="1" fill="rgb(0,0,196)"/><rect x="6" y="16" width="6" height="1" fill="rgb(0,0,196)"/><rect x="12" y="16" width="8" height="1" fill="rgb(53,139,243)"/><rect x="20" y="16" width="3" height="1" fill="rgb(0,0,196)"/><rect x="12" y="17" width="6" height="1" fill="rgb(53,139,243)"/><rect x="18" y="17" width="5" height="1" fill="rgb(0,17,228)"/><rect x="23" y="16" width="1" height="3" fill="rgb(7,53,212)"/><rect x="24" y="16" width="1" height="3" fill="rgb(0,17,228)"/><rect x="6" y="17" width="1" height="2" fill="rgb(0,0,196)"/><rect x="7" y="17" width="5" height="2" fill="rgb(0,17,228)"/><rect x="12" y="18" width="4" height="1" fill="rgb(53,139,243)"/><rect x="16" y="18" width="7" height="1" fill="rgb(0,17,228)"/><rect x="7" y="19" width="5" height="1" fill="rgb(7,53,212)"/><rect x="12" y="19" width="2" height="1" fill="rgb(53,139,243)"/><rect x="14" y="19" width="9" height="1" fill="rgb(7,53,212)"/><rect x="23" y="19" width="1" height="1" fill="rgb(7,80,196)"/><rect x="6" y="19" width="1" height="2" fill="rgb(0,17,228)"/><rect x="7" y="20" width="15" height="1" fill="rgb(7,53,212)"/><rect x="22" y="20" width="2" height="1" fill="rgb(7,80,196)"/><rect x="6" y="21" width="1" height="1" fill="rgb(7,53,212)"/><rect x="7" y="21" width="15" height="1" fill="rgb(7,80,196)"/><rect x="22" y="21" width="2" height="1" fill="rgb(35,114,236)"/><rect x="7" y="22" width="15" height="1" fill="rgb(35,114,236)"/><rect x="22" y="22" width="1" height="1" fill="rgb(53,139,243)"/><rect x="23" y="22" width="1" height="1" fill="rgb(35,114,236)"/><rect x="24" y="19" width="1" height="5" fill="rgb(7,53,212)"/><rect x="7" y="23" width="1" height="1" fill="rgb(35,114,236)"/><rect x="8" y="23" width="14" height="1" fill="rgb(53,139,243)"/><rect x="22" y="23" width="1" height="1" fill="rgb(35,114,236)"/><rect x="23" y="23" width="1" height="1" fill="rgb(7,80,196)"/><rect x="6" y="22" width="1" height="3" fill="rgb(7,80,196)"/><rect x="7" y="24" width="15" height="1" fill="rgb(35,114,236)"/><rect x="22" y="24" width="1" height="1" fill="rgb(7,80,196)"/><rect x="23" y="24" width="1" height="1" fill="rgb(7,53,212)"/><rect x="6" y="25" width="17" height="1" fill="rgb(7,80,196)"/></svg>