<svg xmlns="http://www.w3.org/2000/svg" width="128" height="144" viewBox="0 0 128 144"><rect x="104" y="80" width="2" height="2" fill="rgb(44,131,251)"/><rect x="103" y="81" width="1" height="1" fill="rgb(0,71,228)"/><rect x="106" y="81" width="1" height="1" fill="rgb(0,71,228)"/><rect x="103" y="82" width="1" height="1" fill="rgb(0,88,243)"/><rect x="104" y="82" width="2" height="1" fill="rgb(0,71,228)"/><rect x="106" y="82" width="1" height="1" fill="rgb(0,88,243)"/><rect x="104" y="83" width="2" height="1" fill="rgb(17,114,251)"/><rect x="85" y="96" width="4" height="1" fill="rgb(44,131,251)"/><rect x="84" y="97" width="2" height="1" fill="rgb(44,131,251)"/><rect x="86" y="97" width="2" height="1" fill="rgb(71,155,251)"/><rect x="88" y="97" width="2" height="1" fill="rgb(44,131,251)"/><rect x="84" y="98" width="2" height="1" fill="rgb(17,114,251)"/><rect x="86" y="98" width="2" height="1" fill="rgb(44,131,251)"/><rect x="88" y="98" width="2" height="1" fill="rgb(17,114,251)"/><rect x="84" y="99" width="1" height="1" fill="rgb(0,71,228)"/><rect x="85" y="99" width="4" height="1" fill="rgb(17,114,251)"/><rect x="89" y="99" width="1" height="1" fill="rgb(0,71,228)"/><rect x="84" y="100" width="1" height="1" fill="rgb(17,114,251)"/><rect x="85" y="100" width="1" height="1" fill="rgb(0,71,228)"/><rect x="86" y="100" width="2" height="1" fill="rgb(0,53,212)"/><rect x="88" y="100" width="1" height="1" fill="rgb(0,71,228)"/><rect x="89" y="100" width="1" height="1" fill="rgb(17,114,251)"/><rect x="85" y="101" width="1" height="1" fill="rgb(17,114,251)"/><rect x="86" y="101" width="2" height="1" fill="rgb(0,71,228)"/><rect x="88" y="101" width="1" height="1" fill="rgb(17,114,251)"/><rect x="61" y="103" width="2" height="2" fill="rgb(44,131,251)"/><rect x="60" y="104" width="1" height="1" fill="rgb(0,71,228)"/><rect x="63" y="104" width="1" height="1" fill="rgb(0,71,228)"/><rect x="60" y="105" width="1" height="1" fill="rgb(0,88,243)"/><rect x="61" y="105" width="2" height="1" fill="rgb(0,71,228)"/><rect x="63" y="105" width="1" height="1" fill="rgb(0,88,243)"/><rect x="61" y="106" width="2" height="1" fill="rgb(17,114,251)"/></svg>