<svg xmlns="http://www.w3.org/2000/svg" width="64" height="64" viewBox="0 0 64 64"><rect x="10" y="7" width="1" height="1" fill="rgb(255,255,255)"/><rect x="11" y="7" width="42" height="1" fill="rgb(252,252,252)"/><rect x="53" y="7" width="1" height="1" fill="rgb(255,255,255)"/><rect x="8" y="8" width="1" height="1" fill="rgb(255,255,255)"/><rect x="9" y="8" width="1" height="1" fill="rgb(252,252,252)"/><rect x="10" y="8" width="44" height="1" fill="rgb(255,255,255)"/><rect x="54" y="8" width="1" height="1" fill="rgb(252,252,252)"/><rect x="55" y="8" width="1" height="1" fill="rgb(255,255,255)"/><rect x="8" y="9" width="1" height="1" fill="rgb(252,252,252)"/><rect x="9" y="9" width="46" height="1" fill="rgb(255,255,255)"/><rect x="55" y="9" width="1" height="1" fill="rgb(252,252,252)"/><rect x="7" y="10" width="50" height="1" fill="rgb(255,255,255)"/><rect x="8" y="11" width="48" height="1" fill="rgb(255,255,255)"/><rect x="13" y="12" width="2" height="1" fill="rgb(240,240,240)"/><rect x="15" y="12" width="2" height="1" fill="rgb(230,230,230)"/><rect x="17" y="12" width="30" height="1" fill="rgb(219,219,219)"/><rect x="47" y="12" width="2" height="1" fill="rgb(230,230,230)"/><rect x="49" y="12" width="2" height="1" fill="rgb(240,240,240)"/><rect x="13" y="13" width="1" height="1" fill="rgb(240,240,240)"/><rect x="14" y="13" width="36" height="1" fill="rgb(230,230,230)"/><rect x="50" y="13" width="1" height="1" fill="rgb(240,240,240)"/><rect x="13" y="14" width="2" height="1" fill="rgb(230,230,230)"/><rect x="49" y="14" width="2" height="1" fill="rgb(230,230,230)"/><rect x="15" y="14" width="34" height="2" fill="rgb(240,240,240)"/><rect x="13" y="15" width="1" height="1" fill="rgb(240,240,240)"/><rect x="14" y="15" width="1" height="1" fill="rgb(230,230,230)"/><rect x="49" y="15" width="1" height="1" fill="rgb(230,230,230)"/><rect x="50" y="15" width="1" height="1" fill="rgb(240,240,240)"/><rect x="13" y="16" width="2" height="2" fill="rgb(240,240,240)"/><rect x="49" y="16" width="2" height="2" fill="rgb(240,240,240)"/><rect x="15" y="16" width="1" height="3" fill="rgb(230,230,230)"/><rect x="16" y="16" width="32" height="3" fill="rgb(240,240,240)"/><rect x="48" y="16" width="1" height="3" fill="rgb(230,230,230)"/><rect x="15" y="19" width="2" height="1" fill="rgb(240,240,240)"/><rect x="17" y="19" width="30" height="1" fill="rgb(252,252,252)"/><rect x="47" y="19" width="2" height="1" fill="rgb(240,240,240)"/><rect x="13" y="18" width="1" height="3" fill="rgb(240,240,240)"/><rect x="14" y="18" width="1" height="3" fill="rgb(252,252,252)"/><rect x="49" y="18" width="1" height="3" fill="rgb(252,252,252)"/><rect x="50" y="18" width="1" height="3" fill="rgb(240,240,240)"/><rect x="15" y="20" width="1" height="1" fill="rgb(240,240,240)"/><rect x="16" y="20" width="32" height="1" fill="rgb(252,252,252)"/><rect x="48" y="20" width="1" height="1" fill="rgb(240,240,240)"/><rect x="8" y="12" width="5" height="11" fill="rgb(255,255,255)"/><rect x="51" y="12" width="5" height="11" fill="rgb(255,255,255)"/><rect x="13" y="21" width="2" height="2" fill="rgb(252,252,252)"/><rect x="49" y="21" width="2" height="2" fill="rgb(252,252,252)"/><rect x="15" y="21" width="34" height="6" fill="rgb(255,255,255)"/><rect x="8" y="23" width="6" height="4" fill="rgb(255,255,255)"/><rect x="14" y="23" width="1" height="4" fill="rgb(252,252,252)"/><rect x="49" y="23" width="1" height="4" fill="rgb(252,252,252)"/><rect x="50" y="23" width="6" height="4" fill="rgb(255,255,255)"/><rect x="8" y="27" width="48" height="13" fill="rgb(255,255,255)"/><rect x="8" y="40" width="4" height="10" fill="rgb(255,255,255)"/><rect x="12" y="40" width="1" height="10" fill="rgb(252,252,252)"/><rect x="13" y="40" width="38" height="10" fill="rgb(255,255,255)"/><rect x="51" y="40" width="1" height="10" fill="rgb(252,252,252)"/><rect x="52" y="40" width="4" height="10" fill="rgb(255,255,255)"/><rect x="7" y="11" width="1" height="45" fill="rgb(252,252,252)"/><rect x="56" y="11" width="1" height="45" fill="rgb(252,252,252)"/><rect x="8" y="50" width="48" height="6" fill="rgb(255,255,255)"/><rect x="7" y="56" width="1" height="1" fill="rgb(255,255,255)"/><rect x="8" y="56" width="1" height="1" fill="rgb(252,252,252)"/><rect x="9" y="56" width="46" height="1" fill="rgb(255,255,255)"/><rect x="55" y="56" width="1" height="1" fill="rgb(252,252,252)"/><rect x="56" y="56" width="1" height="1" fill="rgb(255,255,255)"/><rect x="8" y="57" width="2" height="1" fill="rgb(252,252,252)"/><rect x="10" y="57" width="2" height="1" fill="rgb(219,219,219)"/><rect x="12" y="57" width="1" height="1" fill="rgb(230,230,230)"/><rect x="13" y="57" width="38" height="1" fill="rgb(240,240,240)"/><rect x="51" y="57" width="1" height="1" fill="rgb(230,230,230)"/><rect x="52" y="57" width="2" height="1" fill="rgb(219,219,219)"/><rect x="54" y="57" width="2" height="1" fill="rgb(252,252,252)"/><rect x="8" y="58" width="1" height="1" fill="rgb(255,255,255)"/><rect x="9" y="58" width="1" height="1" fill="rgb(252,252,252)"/><rect x="10" y="58" width="1" height="1" fill="rgb(219,219,219)"/><rect x="11" y="58" width="1" height="1" fill="rgb(230,230,230)"/><rect x="12" y="58" width="1" height="1" fill="rgb(240,240,240)"/><rect x="13" y="58" width="38" height="1" fill="rgb(252,252,252)"/><rect x="51" y="58" width="1" height="1" fill="rgb(240,240,240)"/><rect x="52" y="58" width="1" height="1" fill="rgb(230,230,230)"/><rect x="53" y="58" width="1" height="1" fill="rgb(219,219,219)"/><rect x="54" y="58" width="1" height="1" fill="rgb(252,252,252)"/><rect x="55" y="58" width="1" height="1" fill="rgb(255,255,255)"/><rect x="9" y="59" width="2" height="1" fill="rgb(252,252,252)"/><rect x="11" y="59" width="1" height="1" fill="rgb(240,240,240)"/><rect x="12" y="59" width="40" height="1" fill="rgb(252,252,252)"/><rect x="52" y="59" width="1" height="1" fill="rgb(240,240,240)"/><rect x="53" y="59" width="2" height="1" fill="rgb(252,252,252)"/><rect x="9" y="60" width="1" height="1" fill="rgb(255,255,255)"/><rect x="10" y="60" width="1" height="1" fill="rgb(252,252,252)"/><rect x="11" y="60" width="2" height="1" fill="rgb(240,240,240)"/><rect x="13" y="60" width="38" height="1" fill="rgb(252,252,252)"/><rect x="51" y="60" width="2" height="1" fill="rgb(240,240,240)"/><rect x="53" y="60" width="1" height="1" fill="rgb(252,252,252)"/><rect x="54" y="60" width="1" height="1" fill="rgb(255,255,255)"/><rect x="10" y="61" width="2" height="1" fill="rgb(252,252,252)"/><rect x="12" y="61" width="40" height="1" fill="rgb(240,240,240)"/><rect x="52" y="61" width="2" height="1" fill="rgb(252,252,252)"/><rect x="11" y="62" width="1" height="1" fill="rgb(252,252,252)"/><rect x="12" y="62" width="40" height="1" fill="rgb(219,219,219)"/><rect x="52" y="62" width="1" height="1" fill="rgb(252,252,252)"/></svg>