<svg xmlns="http://www.w3.org/2000/svg" width="64" height="67" viewBox="0 0 64 67"><defs><linearGradient id="g0" x1="9" y1="0" x2="15" y2="0" gradientUnits="userSpaceOnUse"><stop offset="8.333%" stop-color="rgb(246,246,246)"/><stop offset="25.000%" stop-color="rgb(255,255,255)"/><stop offset="41.667%" stop-color="rgb(246,246,246)"/><stop offset="58.333%" stop-color="rgb(223,223,223)"/><stop offset="75.000%" stop-color="rgb(214,214,214)"/><stop offset="91.667%" stop-color="rgb(206,206,206)"/></linearGradient><linearGradient id="g1" x1="49" y1="0" x2="55" y2="0" gradientUnits="userSpaceOnUse"><stop offset="8.333%" stop-color="rgb(206,206,206)"/><stop offset="25.000%" stop-color="rgb(214,214,214)"/><stop offset="41.667%" stop-color="rgb(223,223,223)"/><stop offset="58.333%" stop-color="rgb(246,246,246)"/><stop offset="75.000%" stop-color="rgb(255,255,255)"/><stop offset="91.667%" stop-color="rgb(246,246,246)"/></linearGradient></defs><rect x="9" y="51" width="6" height="1" fill="url(#g0)"/><rect x="49" y="51" width="6" height="1" fill="url(#g1)"/><rect x="10" y="7" width="1" height="1" fill="rgb(223,223,223)"/><rect x="11" y="7" width="42" height="1" fill="rgb(190,190,190)"/><rect x="53" y="7" width="1" height="1" fill="rgb(223,223,223)"/><rect x="8" y="8" width="1" height="1" fill="rgb(223,223,223)"/><rect x="9" y="8" width="1" height="1" fill="rgb(190,190,190)"/><rect x="10" y="8" width="1" height="1" fill="rgb(206,206,206)"/><rect x="11" y="8" width="1" height="1" fill="rgb(223,223,223)"/><rect x="12" y="8" width="40" height="1" fill="rgb(238,239,239)"/><rect x="52" y="8" width="1" height="1" fill="rgb(223,223,223)"/><rect x="53" y="8" width="1" height="1" fill="rgb(206,206,206)"/><rect x="54" y="8" width="1" height="1" fill="rgb(190,190,190)"/><rect x="55" y="8" width="1" height="1" fill="rgb(223,223,223)"/><rect x="8" y="9" width="1" height="1" fill="rgb(190,190,190)"/><rect x="9" y="9" width="1" height="1" fill="rgb(214,214,214)"/><rect x="10" y="9" width="1" height="1" fill="rgb(231,231,231)"/><rect x="11" y="9" width="42" height="1" fill="rgb(246,246,246)"/><rect x="53" y="9" width="1" height="1" fill="rgb(231,231,231)"/><rect x="54" y="9" width="1" height="1" fill="rgb(214,214,214)"/><rect x="55" y="9" width="1" height="1" fill="rgb(190,190,190)"/><rect x="7" y="10" width="1" height="1" fill="rgb(223,223,223)"/><rect x="8" y="10" width="1" height="1" fill="rgb(206,206,206)"/><rect x="9" y="10" width="1" height="1" fill="rgb(231,231,231)"/><rect x="10" y="10" width="2" height="1" fill="rgb(246,246,246)"/><rect x="12" y="10" width="1" height="1" fill="rgb(255,255,255)"/><rect x="13" y="10" width="38" height="1" fill="rgb(246,246,246)"/><rect x="51" y="10" width="1" height="1" fill="rgb(255,255,255)"/><rect x="52" y="10" width="2" height="1" fill="rgb(246,246,246)"/><rect x="54" y="10" width="1" height="1" fill="rgb(231,231,231)"/><rect x="55" y="10" width="1" height="1" fill="rgb(206,206,206)"/><rect x="56" y="10" width="1" height="1" fill="rgb(223,223,223)"/><rect x="8" y="11" width="1" height="1" fill="rgb(223,223,223)"/><rect x="9" y="11" width="2" height="1" fill="rgb(246,246,246)"/><rect x="11" y="11" width="1" height="1" fill="rgb(255,255,255)"/><rect x="12" y="11" width="1" height="1" fill="rgb(246,246,246)"/><rect x="13" y="11" width="2" height="1" fill="rgb(223,223,223)"/><rect x="15" y="11" width="34" height="1" fill="rgb(214,214,214)"/><rect x="49" y="11" width="2" height="1" fill="rgb(223,223,223)"/><rect x="51" y="11" width="1" height="1" fill="rgb(246,246,246)"/><rect x="52" y="11" width="1" height="1" fill="rgb(255,255,255)"/><rect x="53" y="11" width="2" height="1" fill="rgb(246,246,246)"/><rect x="55" y="11" width="1" height="1" fill="rgb(223,223,223)"/><rect x="11" y="12" width="1" height="1" fill="rgb(246,246,246)"/><rect x="12" y="12" width="1" height="1" fill="rgb(223,223,223)"/><rect x="13" y="12" width="2" height="1" fill="rgb(181,181,181)"/><rect x="15" y="12" width="2" height="1" fill="rgb(173,174,174)"/><rect x="17" y="12" width="30" height="1" fill="rgb(165,165,165)"/><rect x="47" y="12" width="2" height="1" fill="rgb(173,174,174)"/><rect x="49" y="12" width="2" height="1" fill="rgb(181,181,181)"/><rect x="51" y="12" width="1" height="1" fill="rgb(223,223,223)"/><rect x="52" y="12" width="1" height="1" fill="rgb(246,246,246)"/><rect x="13" y="13" width="1" height="1" fill="rgb(181,181,181)"/><rect x="14" y="13" width="36" height="1" fill="rgb(173,174,174)"/><rect x="50" y="13" width="1" height="1" fill="rgb(181,181,181)"/><rect x="13" y="14" width="2" height="1" fill="rgb(173,174,174)"/><rect x="49" y="14" width="2" height="1" fill="rgb(173,174,174)"/><rect x="15" y="14" width="34" height="2" fill="rgb(181,181,181)"/><rect x="13" y="15" width="1" height="1" fill="rgb(181,181,181)"/><rect x="14" y="15" width="1" height="1" fill="rgb(173,174,174)"/><rect x="49" y="15" width="1" height="1" fill="rgb(173,174,174)"/><rect x="50" y="15" width="1" height="1" fill="rgb(181,181,181)"/><rect x="13" y="16" width="2" height="2" fill="rgb(181,181,181)"/><rect x="49" y="16" width="2" height="2" fill="rgb(181,181,181)"/><rect x="15" y="16" width="1" height="3" fill="rgb(173,174,174)"/><rect x="16" y="16" width="32" height="3" fill="rgb(181,181,181)"/><rect x="48" y="16" width="1" height="3" fill="rgb(173,174,174)"/><rect x="15" y="19" width="2" height="1" fill="rgb(181,181,181)"/><rect x="17" y="19" width="30" height="1" fill="rgb(190,190,190)"/><rect x="47" y="19" width="2" height="1" fill="rgb(181,181,181)"/><rect x="13" y="18" width="1" height="3" fill="rgb(181,181,181)"/><rect x="14" y="18" width="1" height="3" fill="rgb(190,190,190)"/><rect x="49" y="18" width="1" height="3" fill="rgb(190,190,190)"/><rect x="50" y="18" width="1" height="3" fill="rgb(181,181,181)"/><rect x="15" y="20" width="1" height="1" fill="rgb(181,181,181)"/><rect x="16" y="20" width="32" height="1" fill="rgb(190,190,190)"/><rect x="48" y="20" width="1" height="1" fill="rgb(181,181,181)"/><rect x="12" y="13" width="1" height="10" fill="rgb(198,198,198)"/><rect x="51" y="13" width="1" height="10" fill="rgb(198,198,198)"/><rect x="13" y="21" width="2" height="2" fill="rgb(190,190,190)"/><rect x="49" y="21" width="2" height="2" fill="rgb(190,190,190)"/><rect x="9" y="12" width="1" height="13" fill="rgb(246,246,246)"/><rect x="10" y="12" width="1" height="13" fill="rgb(255,255,255)"/><rect x="53" y="12" width="1" height="13" fill="rgb(255,255,255)"/><rect x="54" y="12" width="1" height="13" fill="rgb(246,246,246)"/><rect x="12" y="23" width="2" height="2" fill="rgb(198,198,198)"/><rect x="50" y="23" width="2" height="2" fill="rgb(198,198,198)"/><rect x="15" y="21" width="1" height="6" fill="rgb(198,198,198)"/><rect x="48" y="21" width="1" height="6" fill="rgb(198,198,198)"/><rect x="14" y="23" width="1" height="4" fill="rgb(190,190,190)"/><rect x="49" y="23" width="1" height="4" fill="rgb(190,190,190)"/><rect x="13" y="25" width="1" height="4" fill="rgb(206,206,206)"/><rect x="50" y="25" width="1" height="4" fill="rgb(206,206,206)"/><rect x="14" y="27" width="2" height="2" fill="rgb(198,198,198)"/><rect x="48" y="27" width="2" height="2" fill="rgb(198,198,198)"/><rect x="16" y="21" width="32" height="10" fill="rgb(206,206,206)"/><rect x="15" y="29" width="1" height="2" fill="rgb(198,198,198)"/><rect x="48" y="29" width="1" height="2" fill="rgb(198,198,198)"/><rect x="12" y="25" width="1" height="15" fill="rgb(198,198,198)"/><rect x="51" y="25" width="1" height="15" fill="rgb(198,198,198)"/><rect x="12" y="40" width="1" height="10" fill="rgb(190,190,190)"/><rect x="51" y="40" width="1" height="10" fill="rgb(190,190,190)"/><rect x="11" y="13" width="1" height="38" fill="rgb(223,223,223)"/><rect x="52" y="13" width="1" height="38" fill="rgb(223,223,223)"/><rect x="9" y="25" width="2" height="26" fill="rgb(246,246,246)"/><rect x="53" y="25" width="2" height="26" fill="rgb(246,246,246)"/><rect x="13" y="29" width="2" height="22" fill="rgb(206,206,206)"/><rect x="49" y="29" width="2" height="22" fill="rgb(206,206,206)"/><rect x="12" y="50" width="1" height="1" fill="rgb(198,198,198)"/><rect x="51" y="50" width="1" height="1" fill="rgb(198,198,198)"/><rect x="15" y="31" width="1" height="21" fill="rgb(214,214,214)"/><rect x="16" y="31" width="32" height="21" fill="rgb(223,223,223)"/><rect x="48" y="31" width="1" height="21" fill="rgb(214,214,214)"/><rect x="8" y="12" width="1" height="41" fill="rgb(231,231,231)"/><rect x="55" y="12" width="1" height="41" fill="rgb(231,231,231)"/><rect x="9" y="52" width="2" height="1" fill="rgb(246,246,246)"/><rect x="11" y="52" width="1" height="1" fill="rgb(255,255,255)"/><rect x="12" y="52" width="1" height="1" fill="rgb(246,246,246)"/><rect x="13" y="52" width="38" height="1" fill="rgb(214,214,214)"/><rect x="51" y="52" width="1" height="1" fill="rgb(246,246,246)"/><rect x="52" y="52" width="1" height="1" fill="rgb(255,255,255)"/><rect x="53" y="52" width="2" height="1" fill="rgb(246,246,246)"/><rect x="8" y="53" width="2" height="1" fill="rgb(231,231,231)"/><rect x="10" y="53" width="2" height="1" fill="rgb(246,246,246)"/><rect x="12" y="53" width="40" height="1" fill="rgb(255,255,255)"/><rect x="52" y="53" width="2" height="1" fill="rgb(246,246,246)"/><rect x="54" y="53" width="2" height="1" fill="rgb(231,231,231)"/><rect x="9" y="54" width="1" height="1" fill="rgb(231,231,231)"/><rect x="10" y="54" width="44" height="1" fill="rgb(246,246,246)"/><rect x="54" y="54" width="1" height="1" fill="rgb(231,231,231)"/><rect x="7" y="11" width="1" height="45" fill="rgb(190,190,190)"/><rect x="56" y="11" width="1" height="45" fill="rgb(190,190,190)"/><rect x="8" y="54" width="1" height="2" fill="rgb(214,214,214)"/><rect x="55" y="54" width="1" height="2" fill="rgb(214,214,214)"/><rect x="9" y="55" width="3" height="1" fill="rgb(231,231,231)"/><rect x="12" y="55" width="40" height="1" fill="rgb(238,239,239)"/><rect x="52" y="55" width="3" height="1" fill="rgb(231,231,231)"/><rect x="7" y="56" width="1" height="1" fill="rgb(214,214,214)"/><rect x="8" y="56" width="1" height="1" fill="rgb(190,190,190)"/><rect x="9" y="56" width="1" height="1" fill="rgb(198,198,198)"/><rect x="10" y="56" width="44" height="1" fill="rgb(214,214,214)"/><rect x="54" y="56" width="1" height="1" fill="rgb(198,198,198)"/><rect x="55" y="56" width="1" height="1" fill="rgb(190,190,190)"/><rect x="56" y="56" width="1" height="1" fill="rgb(214,214,214)"/><rect x="8" y="57" width="2" height="1" fill="rgb(190,190,190)"/><rect x="10" y="57" width="2" height="1" fill="rgb(165,165,165)"/><rect x="12" y="57" width="1" height="1" fill="rgb(173,174,174)"/><rect x="13" y="57" width="38" height="1" fill="rgb(181,181,181)"/><rect x="51" y="57" width="1" height="1" fill="rgb(173,174,174)"/><rect x="52" y="57" width="2" height="1" fill="rgb(165,165,165)"/><rect x="54" y="57" width="2" height="1" fill="rgb(190,190,190)"/><rect x="8" y="58" width="1" height="1" fill="rgb(214,214,214)"/><rect x="9" y="58" width="1" height="1" fill="rgb(190,190,190)"/><rect x="10" y="58" width="1" height="1" fill="rgb(165,165,165)"/><rect x="11" y="58" width="1" height="1" fill="rgb(173,174,174)"/><rect x="12" y="58" width="1" height="1" fill="rgb(181,181,181)"/><rect x="13" y="58" width="38" height="1" fill="rgb(190,190,190)"/><rect x="51" y="58" width="1" height="1" fill="rgb(181,181,181)"/><rect x="52" y="58" width="1" height="1" fill="rgb(173,174,174)"/><rect x="53" y="58" width="1" height="1" fill="rgb(165,165,165)"/><rect x="54" y="58" width="1" height="1" fill="rgb(190,190,190)"/><rect x="55" y="58" width="1" height="1" fill="rgb(214,214,214)"/><rect x="9" y="59" width="2" height="1" fill="rgb(190,190,190)"/><rect x="11" y="59" width="1" height="1" fill="rgb(181,181,181)"/><rect x="12" y="59" width="40" height="1" fill="rgb(190,190,190)"/><rect x="52" y="59" width="1" height="1" fill="rgb(181,181,181)"/><rect x="53" y="59" width="2" height="1" fill="rgb(190,190,190)"/><rect x="9" y="60" width="1" height="1" fill="rgb(214,214,214)"/><rect x="10" y="60" width="1" height="1" fill="rgb(190,190,190)"/><rect x="11" y="60" width="2" height="1" fill="rgb(181,181,181)"/><rect x="13" y="60" width="38" height="1" fill="rgb(190,190,190)"/><rect x="51" y="60" width="2" height="1" fill="rgb(181,181,181)"/><rect x="53" y="60" width="1" height="1" fill="rgb(190,190,190)"/><rect x="54" y="60" width="1" height="1" fill="rgb(214,214,214)"/><rect x="10" y="61" width="2" height="1" fill="rgb(190,190,190)"/><rect x="12" y="61" width="40" height="1" fill="rgb(181,181,181)"/><rect x="52" y="61" width="2" height="1" fill="rgb(190,190,190)"/><rect x="11" y="62" width="1" height="1" fill="rgb(190,190,190)"/><rect x="12" y="62" width="40" height="1" fill="rgb(165,165,165)"/><rect x="52" y="62" width="1" height="1" fill="rgb(190,190,190)"/><rect x="11" y="63" width="1" height="1" fill="rgb(223,223,223)"/><rect x="12" y="63" width="2" height="1" fill="rgb(206,206,206)"/><rect x="14" y="63" width="36" height="1" fill="rgb(181,181,181)"/><rect x="50" y="63" width="2" height="1" fill="rgb(206,206,206)"/><rect x="52" y="63" width="1" height="1" fill="rgb(223,223,223)"/><rect x="11" y="64" width="2" height="1" fill="rgb(223,223,223)"/><rect x="13" y="64" width="38" height="1" fill="rgb(206,206,206)"/><rect x="51" y="64" width="2" height="1" fill="rgb(223,223,223)"/><rect x="12" y="65" width="2" height="1" fill="rgb(223,223,223)"/><rect x="14" y="65" width="36" height="1" fill="rgb(206,206,206)"/><rect x="50" y="65" width="2" height="1" fill="rgb(223,223,223)"/><rect x="13" y="66" width="38" height="1" fill="rgb(223,223,223)"/></svg>