<svg xmlns="http://www.w3.org/2000/svg" width="73" height="21" viewBox="0 0 73 21"><defs><linearGradient id="g0" x1="38" y1="0" x2="46" y2="0" gradientUnits="userSpaceOnUse"><stop offset="6.250%" stop-color="rgb(222,225,225)"/><stop offset="18.750%" stop-color="rgb(219,224,224)"/><stop offset="31.250%" stop-color="rgb(220,224,224)"/><stop offset="43.750%" stop-color="rgb(222,225,225)"/><stop offset="56.250%" stop-color="rgb(231,231,231)"/><stop offset="68.750%" stop-color="rgb(223,226,226)"/><stop offset="81.250%" stop-color="rgb(221,225,225)"/><stop offset="93.750%" stop-color="rgb(222,226,226)"/></linearGradient></defs><rect x="38" y="9" width="8" height="1" fill="url(#g0)"/><rect x="0" y="0" width="5" height="1" fill="rgb(227,227,227)"/><rect x="5" y="0" width="13" height="1" fill="rgb(231,231,231)"/><rect x="18" y="0" width="1" height="1" fill="rgb(227,227,227)"/><rect x="24" y="0" width="45" height="1" fill="rgb(215,223,223)"/><rect x="69" y="0" width="4" height="1" fill="rgb(170,211,203)"/><rect x="19" y="0" width="2" height="2" fill="rgb(223,223,223)"/><rect x="21" y="0" width="3" height="2" fill="rgb(231,231,231)"/><rect x="0" y="1" width="19" height="1" fill="rgb(227,227,227)"/><rect x="24" y="1" width="46" height="1" fill="rgb(215,223,223)"/><rect x="70" y="1" width="1" height="1" fill="rgb(223,231,231)"/><rect x="71" y="1" width="2" height="1" fill="rgb(170,211,203)"/><rect x="24" y="2" width="48" height="2" fill="rgb(223,231,231)"/><rect x="72" y="2" width="1" height="2" fill="rgb(170,211,203)"/><rect x="0" y="2" width="1" height="3" fill="rgb(231,231,231)"/><rect x="1" y="2" width="17" height="3" fill="rgb(235,235,235)"/><rect x="18" y="2" width="3" height="3" fill="rgb(231,231,231)"/><rect x="21" y="2" width="3" height="3" fill="rgb(239,239,239)"/><rect x="24" y="4" width="49" height="1" fill="rgb(223,231,231)"/><rect x="0" y="5" width="1" height="1" fill="rgb(239,239,239)"/><rect x="1" y="5" width="17" height="1" fill="rgb(243,243,243)"/><rect x="18" y="5" width="2" height="1" fill="rgb(239,239,239)"/><rect x="20" y="5" width="1" height="1" fill="rgb(235,235,235)"/><rect x="21" y="5" width="3" height="1" fill="rgb(243,243,243)"/><rect x="24" y="5" width="48" height="1" fill="rgb(231,239,235)"/><rect x="72" y="5" width="1" height="1" fill="rgb(223,231,231)"/><rect x="1" y="6" width="8" height="1" fill="rgb(235,235,235)"/><rect x="9" y="6" width="1" height="1" fill="rgb(237,237,237)"/><rect x="10" y="6" width="1" height="1" fill="rgb(238,238,238)"/><rect x="11" y="6" width="2" height="1" fill="rgb(239,239,239)"/><rect x="13" y="6" width="1" height="1" fill="rgb(238,238,238)"/><rect x="14" y="6" width="1" height="1" fill="rgb(237,237,237)"/><rect x="15" y="6" width="3" height="1" fill="rgb(235,235,235)"/><rect x="21" y="6" width="2" height="1" fill="rgb(239,239,239)"/><rect x="23" y="6" width="1" height="1" fill="rgb(235,237,237)"/><rect x="24" y="6" width="1" height="1" fill="rgb(229,235,233)"/><rect x="25" y="6" width="1" height="1" fill="rgb(226,234,231)"/><rect x="26" y="6" width="1" height="1" fill="rgb(225,233,231)"/><rect x="27" y="6" width="46" height="1" fill="rgb(223,231,231)"/><rect x="0" y="6" width="1" height="2" fill="rgb(231,231,231)"/><rect x="18" y="6" width="3" height="2" fill="rgb(231,231,231)"/><rect x="1" y="7" width="6" height="1" fill="rgb(235,235,235)"/><rect x="7" y="7" width="2" height="1" fill="rgb(233,233,233)"/><rect x="9" y="7" width="1" height="1" fill="rgb(234,234,234)"/><rect x="10" y="7" width="4" height="1" fill="rgb(235,235,235)"/><rect x="14" y="7" width="2" height="1" fill="rgb(234,234,234)"/><rect x="16" y="7" width="2" height="1" fill="rgb(235,235,235)"/><rect x="21" y="7" width="1" height="1" fill="rgb(239,239,239)"/><rect x="22" y="7" width="1" height="1" fill="rgb(234,235,235)"/><rect x="23" y="7" width="1" height="1" fill="rgb(229,233,232)"/><rect x="24" y="7" width="1" height="1" fill="rgb(224,230,229)"/><rect x="25" y="7" width="2" height="1" fill="rgb(221,228,228)"/><rect x="27" y="7" width="1" height="1" fill="rgb(222,229,229)"/><rect x="28" y="7" width="45" height="1" fill="rgb(223,231,231)"/><rect x="0" y="8" width="5" height="1" fill="rgb(227,227,227)"/><rect x="5" y="8" width="2" height="1" fill="rgb(231,231,231)"/><rect x="7" y="8" width="3" height="1" fill="rgb(230,230,230)"/><rect x="10" y="8" width="1" height="1" fill="rgb(231,231,231)"/><rect x="11" y="8" width="3" height="1" fill="rgb(232,232,232)"/><rect x="14" y="8" width="4" height="1" fill="rgb(231,231,231)"/><rect x="18" y="8" width="1" height="1" fill="rgb(227,227,227)"/><rect x="21" y="8" width="1" height="1" fill="rgb(229,229,229)"/><rect x="22" y="8" width="1" height="1" fill="rgb(229,230,230)"/><rect x="23" y="8" width="1" height="1" fill="rgb(226,229,229)"/><rect x="24" y="8" width="3" height="1" fill="rgb(215,223,223)"/><rect x="27" y="8" width="1" height="1" fill="rgb(222,227,227)"/><rect x="28" y="8" width="1" height="1" fill="rgb(222,228,228)"/><rect x="29" y="8" width="43" height="1" fill="rgb(215,223,223)"/><rect x="72" y="8" width="1" height="1" fill="rgb(223,231,231)"/><rect x="19" y="8" width="2" height="2" fill="rgb(223,223,223)"/><rect x="0" y="9" width="6" height="1" fill="rgb(227,227,227)"/><rect x="6" y="9" width="2" height="1" fill="rgb(228,228,228)"/><rect x="8" y="9" width="2" height="1" fill="rgb(227,227,227)"/><rect x="10" y="9" width="1" height="1" fill="rgb(228,228,228)"/><rect x="11" y="9" width="4" height="1" fill="rgb(229,229,229)"/><rect x="15" y="9" width="1" height="1" fill="rgb(228,228,228)"/><rect x="16" y="9" width="3" height="1" fill="rgb(227,227,227)"/><rect x="21" y="9" width="1" height="1" fill="rgb(224,225,225)"/><rect x="22" y="9" width="1" height="1" fill="rgb(227,227,227)"/><rect x="23" y="9" width="8" height="1" fill="rgb(231,231,231)"/><rect x="31" y="9" width="1" height="1" fill="rgb(222,226,226)"/><rect x="32" y="9" width="1" height="1" fill="rgb(220,224,224)"/><rect x="33" y="9" width="1" height="1" fill="rgb(219,224,224)"/><rect x="34" y="9" width="1" height="1" fill="rgb(222,225,225)"/><rect x="35" y="9" width="3" height="1" fill="rgb(231,231,231)"/><rect x="46" y="9" width="3" height="1" fill="rgb(231,231,231)"/><rect x="49" y="9" width="1" height="1" fill="rgb(222,226,226)"/><rect x="50" y="9" width="2" height="1" fill="rgb(220,224,224)"/><rect x="52" y="9" width="1" height="1" fill="rgb(222,226,226)"/><rect x="53" y="9" width="3" height="1" fill="rgb(231,231,231)"/><rect x="56" y="9" width="1" height="1" fill="rgb(222,225,225)"/><rect x="57" y="9" width="2" height="1" fill="rgb(220,224,224)"/><rect x="59" y="9" width="1" height="1" fill="rgb(223,226,226)"/><rect x="60" y="9" width="2" height="1" fill="rgb(231,231,231)"/><rect x="62" y="9" width="1" height="1" fill="rgb(222,226,226)"/><rect x="63" y="9" width="1" height="1" fill="rgb(220,224,224)"/><rect x="64" y="9" width="1" height="1" fill="rgb(219,224,224)"/><rect x="65" y="9" width="1" height="1" fill="rgb(222,225,225)"/><rect x="66" y="9" width="6" height="1" fill="rgb(231,231,231)"/><rect x="5" y="10" width="1" height="1" fill="rgb(224,224,224)"/><rect x="6" y="10" width="1" height="1" fill="rgb(225,225,225)"/><rect x="7" y="10" width="1" height="1" fill="rgb(226,226,226)"/><rect x="8" y="10" width="1" height="1" fill="rgb(225,225,225)"/><rect x="10" y="10" width="1" height="1" fill="rgb(225,225,225)"/><rect x="11" y="10" width="4" height="1" fill="rgb(227,227,227)"/><rect x="15" y="10" width="1" height="1" fill="rgb(225,225,225)"/><rect x="21" y="10" width="1" height="1" fill="rgb(220,220,220)"/><rect x="22" y="10" width="1" height="1" fill="rgb(224,224,224)"/><rect x="23" y="10" width="8" height="1" fill="rgb(227,227,227)"/><rect x="31" y="10" width="1" height="1" fill="rgb(225,226,226)"/><rect x="32" y="10" width="1" height="1" fill="rgb(223,225,225)"/><rect x="33" y="10" width="2" height="1" fill="rgb(222,224,224)"/><rect x="35" y="10" width="1" height="1" fill="rgb(225,226,226)"/><rect x="38" y="10" width="1" height="1" fill="rgb(223,224,224)"/><rect x="39" y="10" width="1" height="1" fill="rgb(221,224,224)"/><rect x="40" y="10" width="2" height="1" fill="rgb(223,225,225)"/><rect x="42" y="10" width="1" height="1" fill="rgb(225,226,226)"/><rect x="43" y="10" width="2" height="1" fill="rgb(224,226,226)"/><rect x="45" y="10" width="1" height="1" fill="rgb(223,225,225)"/><rect x="46" y="10" width="1" height="1" fill="rgb(226,226,226)"/><rect x="48" y="10" width="1" height="1" fill="rgb(226,226,226)"/><rect x="49" y="10" width="4" height="1" fill="rgb(223,225,225)"/><rect x="53" y="10" width="1" height="1" fill="rgb(226,226,226)"/><rect x="56" y="10" width="1" height="1" fill="rgb(223,224,224)"/><rect x="57" y="10" width="1" height="1" fill="rgb(222,224,224)"/><rect x="58" y="10" width="1" height="1" fill="rgb(224,225,225)"/><rect x="59" y="10" width="3" height="1" fill="rgb(227,227,227)"/><rect x="62" y="10" width="1" height="1" fill="rgb(225,226,226)"/><rect x="63" y="10" width="1" height="1" fill="rgb(223,225,225)"/><rect x="64" y="10" width="2" height="1" fill="rgb(222,224,224)"/><rect x="66" y="10" width="1" height="1" fill="rgb(225,226,226)"/><rect x="72" y="9" width="1" height="3" fill="rgb(239,239,239)"/><rect x="1" y="10" width="4" height="2" fill="rgb(223,223,223)"/><rect x="9" y="10" width="1" height="2" fill="rgb(223,223,223)"/><rect x="16" y="10" width="2" height="2" fill="rgb(223,223,223)"/><rect x="20" y="10" width="1" height="2" fill="rgb(215,215,215)"/><rect x="36" y="10" width="2" height="2" fill="rgb(227,227,227)"/><rect x="47" y="10" width="1" height="2" fill="rgb(227,227,227)"/><rect x="54" y="10" width="2" height="2" fill="rgb(227,227,227)"/><rect x="67" y="10" width="5" height="2" fill="rgb(227,227,227)"/><rect x="5" y="11" width="4" height="1" fill="rgb(224,224,224)"/><rect x="10" y="11" width="1" height="1" fill="rgb(224,224,224)"/><rect x="11" y="11" width="4" height="1" fill="rgb(225,225,225)"/><rect x="15" y="11" width="1" height="1" fill="rgb(224,224,224)"/><rect x="21" y="11" width="1" height="1" fill="rgb(218,218,218)"/><rect x="22" y="11" width="1" height="1" fill="rgb(221,221,221)"/><rect x="23" y="11" width="10" height="1" fill="rgb(227,227,227)"/><rect x="33" y="11" width="1" height="1" fill="rgb(221,222,222)"/><rect x="34" y="11" width="1" height="1" fill="rgb(221,221,221)"/><rect x="35" y="11" width="1" height="1" fill="rgb(222,222,222)"/><rect x="38" y="11" width="2" height="1" fill="rgb(221,222,222)"/><rect x="40" y="11" width="1" height="1" fill="rgb(227,227,227)"/><rect x="41" y="11" width="1" height="1" fill="rgb(222,222,222)"/><rect x="42" y="11" width="1" height="1" fill="rgb(222,223,223)"/><rect x="43" y="11" width="2" height="1" fill="rgb(227,227,227)"/><rect x="45" y="11" width="1" height="1" fill="rgb(222,222,222)"/><rect x="46" y="11" width="1" height="1" fill="rgb(222,223,223)"/><rect x="48" y="11" width="2" height="1" fill="rgb(223,223,223)"/><rect x="50" y="11" width="2" height="1" fill="rgb(227,227,227)"/><rect x="52" y="11" width="2" height="1" fill="rgb(222,223,223)"/><rect x="56" y="11" width="2" height="1" fill="rgb(221,222,222)"/><rect x="58" y="11" width="6" height="1" fill="rgb(227,227,227)"/><rect x="64" y="11" width="1" height="1" fill="rgb(221,222,222)"/><rect x="65" y="11" width="1" height="1" fill="rgb(221,221,221)"/><rect x="66" y="11" width="1" height="1" fill="rgb(222,222,222)"/><rect x="1" y="12" width="10" height="1" fill="rgb(223,223,223)"/><rect x="11" y="12" width="4" height="1" fill="rgb(224,224,224)"/><rect x="15" y="12" width="3" height="1" fill="rgb(223,223,223)"/><rect x="20" y="12" width="3" height="1" fill="rgb(215,215,215)"/><rect x="23" y="12" width="8" height="1" fill="rgb(211,211,211)"/><rect x="31" y="12" width="1" height="1" fill="rgb(217,217,217)"/><rect x="32" y="12" width="1" height="1" fill="rgb(218,218,218)"/><rect x="33" y="12" width="2" height="1" fill="rgb(217,217,217)"/><rect x="35" y="12" width="1" height="1" fill="rgb(216,216,216)"/><rect x="38" y="12" width="2" height="1" fill="rgb(215,215,215)"/><rect x="41" y="12" width="1" height="1" fill="rgb(215,215,215)"/><rect x="42" y="12" width="1" height="1" fill="rgb(215,216,216)"/><rect x="45" y="12" width="2" height="1" fill="rgb(215,216,216)"/><rect x="48" y="12" width="1" height="1" fill="rgb(216,216,216)"/><rect x="49" y="12" width="3" height="1" fill="rgb(218,218,218)"/><rect x="52" y="12" width="1" height="1" fill="rgb(216,217,217)"/><rect x="53" y="12" width="1" height="1" fill="rgb(215,215,215)"/><rect x="54" y="12" width="2" height="1" fill="rgb(211,211,211)"/><rect x="56" y="12" width="2" height="1" fill="rgb(215,215,215)"/><rect x="58" y="12" width="4" height="1" fill="rgb(211,211,211)"/><rect x="62" y="12" width="1" height="1" fill="rgb(217,217,217)"/><rect x="63" y="12" width="1" height="1" fill="rgb(218,218,218)"/><rect x="64" y="12" width="2" height="1" fill="rgb(217,217,217)"/><rect x="66" y="12" width="1" height="1" fill="rgb(216,216,216)"/><rect x="36" y="12" width="2" height="2" fill="rgb(211,211,211)"/><rect x="40" y="12" width="1" height="2" fill="rgb(211,211,211)"/><rect x="43" y="12" width="2" height="2" fill="rgb(211,211,211)"/><rect x="47" y="12" width="1" height="2" fill="rgb(211,211,211)"/><rect x="67" y="12" width="5" height="2" fill="rgb(211,211,211)"/><rect x="72" y="12" width="1" height="2" fill="rgb(223,223,223)"/><rect x="20" y="13" width="1" height="1" fill="rgb(215,215,215)"/><rect x="21" y="13" width="2" height="1" fill="rgb(214,214,214)"/><rect x="23" y="13" width="7" height="1" fill="rgb(211,211,211)"/><rect x="30" y="13" width="1" height="1" fill="rgb(212,212,212)"/><rect x="31" y="13" width="1" height="1" fill="rgb(214,214,214)"/><rect x="32" y="13" width="2" height="1" fill="rgb(211,211,211)"/><rect x="34" y="13" width="2" height="1" fill="rgb(214,214,214)"/><rect x="38" y="13" width="2" height="1" fill="rgb(213,213,213)"/><rect x="41" y="13" width="2" height="1" fill="rgb(213,214,214)"/><rect x="45" y="13" width="1" height="1" fill="rgb(213,214,214)"/><rect x="46" y="13" width="1" height="1" fill="rgb(214,214,214)"/><rect x="48" y="13" width="2" height="1" fill="rgb(214,214,214)"/><rect x="50" y="13" width="6" height="1" fill="rgb(211,211,211)"/><rect x="56" y="13" width="2" height="1" fill="rgb(213,213,213)"/><rect x="58" y="13" width="3" height="1" fill="rgb(211,211,211)"/><rect x="61" y="13" width="1" height="1" fill="rgb(212,212,212)"/><rect x="62" y="13" width="1" height="1" fill="rgb(214,214,214)"/><rect x="63" y="13" width="2" height="1" fill="rgb(211,211,211)"/><rect x="65" y="13" width="2" height="1" fill="rgb(214,214,214)"/><rect x="20" y="14" width="2" height="1" fill="rgb(215,215,215)"/><rect x="22" y="14" width="2" height="1" fill="rgb(214,214,214)"/><rect x="24" y="14" width="2" height="1" fill="rgb(215,215,215)"/><rect x="26" y="14" width="1" height="1" fill="rgb(214,214,214)"/><rect x="27" y="14" width="2" height="1" fill="rgb(213,213,213)"/><rect x="29" y="14" width="1" height="1" fill="rgb(215,215,215)"/><rect x="30" y="14" width="1" height="1" fill="rgb(214,214,214)"/><rect x="31" y="14" width="17" height="1" fill="rgb(215,215,215)"/><rect x="48" y="14" width="1" height="1" fill="rgb(214,214,214)"/><rect x="49" y="14" width="3" height="1" fill="rgb(215,215,215)"/><rect x="52" y="14" width="2" height="1" fill="rgb(214,214,214)"/><rect x="54" y="14" width="7" height="1" fill="rgb(215,215,215)"/><rect x="61" y="14" width="1" height="1" fill="rgb(214,214,214)"/><rect x="62" y="14" width="10" height="1" fill="rgb(215,215,215)"/><rect x="72" y="14" width="1" height="1" fill="rgb(227,227,227)"/><rect x="18" y="10" width="2" height="6" fill="rgb(219,219,219)"/><rect x="1" y="13" width="17" height="3" fill="rgb(223,223,223)"/><rect x="20" y="15" width="3" height="1" fill="rgb(215,215,215)"/><rect x="23" y="15" width="5" height="1" fill="rgb(216,216,216)"/><rect x="28" y="15" width="2" height="1" fill="rgb(215,215,215)"/><rect x="30" y="15" width="3" height="1" fill="rgb(216,216,216)"/><rect x="33" y="15" width="3" height="1" fill="rgb(217,217,217)"/><rect x="36" y="15" width="1" height="1" fill="rgb(216,216,216)"/><rect x="37" y="15" width="1" height="1" fill="rgb(215,215,215)"/><rect x="38" y="15" width="2" height="1" fill="rgb(216,216,216)"/><rect x="40" y="15" width="1" height="1" fill="rgb(215,215,215)"/><rect x="41" y="15" width="2" height="1" fill="rgb(216,216,216)"/><rect x="43" y="15" width="2" height="1" fill="rgb(215,215,215)"/><rect x="45" y="15" width="2" height="1" fill="rgb(216,216,216)"/><rect x="47" y="15" width="2" height="1" fill="rgb(215,215,215)"/><rect x="49" y="15" width="5" height="1" fill="rgb(216,216,216)"/><rect x="54" y="15" width="2" height="1" fill="rgb(215,215,215)"/><rect x="56" y="15" width="2" height="1" fill="rgb(216,216,216)"/><rect x="58" y="15" width="3" height="1" fill="rgb(215,215,215)"/><rect x="61" y="15" width="3" height="1" fill="rgb(216,216,216)"/><rect x="64" y="15" width="3" height="1" fill="rgb(217,217,217)"/><rect x="67" y="15" width="1" height="1" fill="rgb(216,216,216)"/><rect x="68" y="15" width="4" height="1" fill="rgb(215,215,215)"/><rect x="72" y="15" width="1" height="2" fill="rgb(231,231,231)"/><rect x="1" y="16" width="18" height="1" fill="rgb(223,223,223)"/><rect x="19" y="16" width="53" height="1" fill="rgb(219,219,219)"/><rect x="0" y="10" width="1" height="8" fill="rgb(219,219,219)"/><rect x="1" y="17" width="71" height="1" fill="rgb(223,223,223)"/><rect x="72" y="17" width="1" height="2" fill="rgb(235,235,235)"/><rect x="0" y="18" width="5" height="1" fill="rgb(227,227,227)"/><rect x="5" y="18" width="67" height="1" fill="rgb(231,231,231)"/><rect x="0" y="19" width="1" height="1" fill="rgb(231,231,231)"/><rect x="1" y="19" width="72" height="1" fill="rgb(235,235,235)"/><rect x="0" y="20" width="1" height="1" fill="rgb(219,219,219)"/><rect x="1" y="20" width="4" height="1" fill="rgb(235,235,235)"/><rect x="5" y="20" width="68" height="1" fill="rgb(243,243,243)"/></svg>