<svg xmlns="http://www.w3.org/2000/svg" width="73" height="21" viewBox="0 0 73 21"><defs><linearGradient id="g0" x1="22" y1="0" x2="30" y2="0" gradientUnits="userSpaceOnUse"><stop offset="6.250%" stop-color="rgb(222,225,225)"/><stop offset="18.750%" stop-color="rgb(219,224,224)"/><stop offset="31.250%" stop-color="rgb(220,224,224)"/><stop offset="43.750%" stop-color="rgb(222,225,225)"/><stop offset="56.250%" stop-color="rgb(231,231,231)"/><stop offset="68.750%" stop-color="rgb(223,226,226)"/><stop offset="81.250%" stop-color="rgb(221,225,225)"/><stop offset="93.750%" stop-color="rgb(222,226,226)"/></linearGradient><linearGradient id="g1" x1="60" y1="0" x2="66" y2="0" gradientUnits="userSpaceOnUse"><stop offset="8.333%" stop-color="rgb(224,224,224)"/><stop offset="25.000%" stop-color="rgb(225,225,225)"/><stop offset="41.667%" stop-color="rgb(224,224,224)"/><stop offset="58.333%" stop-color="rgb(223,223,223)"/><stop offset="75.000%" stop-color="rgb(225,225,225)"/><stop offset="91.667%" stop-color="rgb(226,226,226)"/></linearGradient></defs><rect x="22" y="9" width="8" height="1" fill="url(#g0)"/><rect x="60" y="10" width="6" height="1" fill="url(#g1)"/><rect x="0" y="0" width="4" height="1" fill="rgb(170,211,203)"/><rect x="4" y="0" width="45" height="1" fill="rgb(215,223,223)"/><rect x="56" y="0" width="1" height="1" fill="rgb(227,227,227)"/><rect x="57" y="0" width="11" height="1" fill="rgb(231,231,231)"/><rect x="68" y="0" width="5" height="1" fill="rgb(227,227,227)"/><rect x="49" y="0" width="3" height="2" fill="rgb(231,231,231)"/><rect x="52" y="0" width="1" height="2" fill="rgb(215,215,215)"/><rect x="53" y="0" width="2" height="2" fill="rgb(219,219,219)"/><rect x="55" y="0" width="1" height="2" fill="rgb(223,223,223)"/><rect x="0" y="1" width="2" height="1" fill="rgb(170,211,203)"/><rect x="2" y="1" width="1" height="1" fill="rgb(223,231,231)"/><rect x="3" y="1" width="46" height="1" fill="rgb(215,223,223)"/><rect x="56" y="1" width="17" height="1" fill="rgb(227,227,227)"/><rect x="0" y="2" width="1" height="2" fill="rgb(170,211,203)"/><rect x="1" y="2" width="48" height="2" fill="rgb(223,231,231)"/><rect x="49" y="2" width="3" height="3" fill="rgb(239,239,239)"/><rect x="52" y="2" width="2" height="3" fill="rgb(223,223,223)"/><rect x="54" y="2" width="1" height="3" fill="rgb(227,227,227)"/><rect x="55" y="2" width="2" height="3" fill="rgb(231,231,231)"/><rect x="57" y="2" width="15" height="3" fill="rgb(235,235,235)"/><rect x="72" y="2" width="1" height="3" fill="rgb(231,231,231)"/><rect x="0" y="4" width="49" height="1" fill="rgb(223,231,231)"/><rect x="0" y="5" width="1" height="1" fill="rgb(223,231,231)"/><rect x="1" y="5" width="48" height="1" fill="rgb(231,239,235)"/><rect x="49" y="5" width="3" height="1" fill="rgb(243,243,243)"/><rect x="52" y="5" width="3" height="1" fill="rgb(231,231,231)"/><rect x="55" y="5" width="1" height="1" fill="rgb(235,235,235)"/><rect x="56" y="5" width="1" height="1" fill="rgb(239,239,239)"/><rect x="57" y="5" width="15" height="1" fill="rgb(243,243,243)"/><rect x="72" y="5" width="1" height="1" fill="rgb(239,239,239)"/><rect x="0" y="6" width="7" height="1" fill="rgb(223,231,231)"/><rect x="7" y="6" width="4" height="1" fill="rgb(225,233,231)"/><rect x="11" y="6" width="38" height="1" fill="rgb(223,231,231)"/><rect x="57" y="6" width="1" height="1" fill="rgb(235,235,235)"/><rect x="58" y="6" width="1" height="1" fill="rgb(237,237,237)"/><rect x="59" y="6" width="4" height="1" fill="rgb(238,238,238)"/><rect x="63" y="6" width="1" height="1" fill="rgb(237,237,237)"/><rect x="64" y="6" width="8" height="1" fill="rgb(235,235,235)"/><rect x="49" y="6" width="3" height="2" fill="rgb(239,239,239)"/><rect x="52" y="6" width="2" height="2" fill="rgb(223,223,223)"/><rect x="54" y="6" width="1" height="2" fill="rgb(227,227,227)"/><rect x="55" y="6" width="2" height="2" fill="rgb(231,231,231)"/><rect x="72" y="6" width="1" height="2" fill="rgb(231,231,231)"/><rect x="0" y="7" width="6" height="1" fill="rgb(223,231,231)"/><rect x="6" y="7" width="2" height="1" fill="rgb(223,230,229)"/><rect x="8" y="7" width="1" height="1" fill="rgb(221,228,227)"/><rect x="9" y="7" width="2" height="1" fill="rgb(220,228,227)"/><rect x="11" y="7" width="1" height="1" fill="rgb(222,229,229)"/><rect x="12" y="7" width="37" height="1" fill="rgb(223,231,231)"/><rect x="57" y="7" width="1" height="1" fill="rgb(232,232,232)"/><rect x="58" y="7" width="1" height="1" fill="rgb(233,233,233)"/><rect x="59" y="7" width="4" height="1" fill="rgb(234,234,234)"/><rect x="63" y="7" width="3" height="1" fill="rgb(233,233,233)"/><rect x="66" y="7" width="6" height="1" fill="rgb(235,235,235)"/><rect x="0" y="8" width="1" height="1" fill="rgb(223,231,231)"/><rect x="1" y="8" width="4" height="1" fill="rgb(215,223,223)"/><rect x="5" y="8" width="1" height="1" fill="rgb(222,227,227)"/><rect x="6" y="8" width="1" height="1" fill="rgb(223,228,228)"/><rect x="7" y="8" width="1" height="1" fill="rgb(223,228,227)"/><rect x="8" y="8" width="3" height="1" fill="rgb(215,223,223)"/><rect x="11" y="8" width="1" height="1" fill="rgb(222,227,227)"/><rect x="12" y="8" width="1" height="1" fill="rgb(222,228,228)"/><rect x="13" y="8" width="36" height="1" fill="rgb(215,223,223)"/><rect x="49" y="8" width="3" height="1" fill="rgb(231,231,231)"/><rect x="57" y="8" width="1" height="1" fill="rgb(228,228,228)"/><rect x="58" y="8" width="1" height="1" fill="rgb(229,229,229)"/><rect x="59" y="8" width="7" height="1" fill="rgb(230,230,230)"/><rect x="66" y="8" width="2" height="1" fill="rgb(231,231,231)"/><rect x="68" y="8" width="5" height="1" fill="rgb(227,227,227)"/><rect x="52" y="8" width="1" height="2" fill="rgb(215,215,215)"/><rect x="53" y="8" width="2" height="2" fill="rgb(219,219,219)"/><rect x="55" y="8" width="1" height="2" fill="rgb(223,223,223)"/><rect x="56" y="8" width="1" height="2" fill="rgb(227,227,227)"/><rect x="1" y="9" width="4" height="1" fill="rgb(231,231,231)"/><rect x="5" y="9" width="2" height="1" fill="rgb(226,228,228)"/><rect x="7" y="9" width="8" height="1" fill="rgb(231,231,231)"/><rect x="15" y="9" width="1" height="1" fill="rgb(222,226,226)"/><rect x="16" y="9" width="1" height="1" fill="rgb(220,224,224)"/><rect x="17" y="9" width="1" height="1" fill="rgb(219,224,224)"/><rect x="18" y="9" width="1" height="1" fill="rgb(222,225,225)"/><rect x="19" y="9" width="3" height="1" fill="rgb(231,231,231)"/><rect x="30" y="9" width="3" height="1" fill="rgb(231,231,231)"/><rect x="33" y="9" width="1" height="1" fill="rgb(222,226,226)"/><rect x="34" y="9" width="2" height="1" fill="rgb(220,224,224)"/><rect x="36" y="9" width="1" height="1" fill="rgb(222,226,226)"/><rect x="37" y="9" width="3" height="1" fill="rgb(231,231,231)"/><rect x="40" y="9" width="1" height="1" fill="rgb(222,225,225)"/><rect x="41" y="9" width="2" height="1" fill="rgb(220,224,224)"/><rect x="43" y="9" width="1" height="1" fill="rgb(223,226,226)"/><rect x="44" y="9" width="2" height="1" fill="rgb(231,231,231)"/><rect x="46" y="9" width="1" height="1" fill="rgb(223,226,226)"/><rect x="47" y="9" width="1" height="1" fill="rgb(220,225,225)"/><rect x="48" y="9" width="1" height="1" fill="rgb(221,225,225)"/><rect x="49" y="9" width="1" height="1" fill="rgb(227,228,228)"/><rect x="50" y="9" width="2" height="1" fill="rgb(231,231,231)"/><rect x="57" y="9" width="2" height="1" fill="rgb(226,226,226)"/><rect x="59" y="9" width="6" height="1" fill="rgb(227,227,227)"/><rect x="65" y="9" width="2" height="1" fill="rgb(228,228,228)"/><rect x="67" y="9" width="6" height="1" fill="rgb(227,227,227)"/><rect x="5" y="10" width="2" height="1" fill="rgb(225,226,226)"/><rect x="7" y="10" width="8" height="1" fill="rgb(227,227,227)"/><rect x="15" y="10" width="1" height="1" fill="rgb(225,226,226)"/><rect x="16" y="10" width="1" height="1" fill="rgb(223,225,225)"/><rect x="17" y="10" width="2" height="1" fill="rgb(222,224,224)"/><rect x="19" y="10" width="1" height="1" fill="rgb(225,226,226)"/><rect x="22" y="10" width="1" height="1" fill="rgb(223,224,224)"/><rect x="23" y="10" width="1" height="1" fill="rgb(221,224,224)"/><rect x="24" y="10" width="2" height="1" fill="rgb(223,225,225)"/><rect x="26" y="10" width="1" height="1" fill="rgb(225,226,226)"/><rect x="27" y="10" width="2" height="1" fill="rgb(224,226,226)"/><rect x="29" y="10" width="1" height="1" fill="rgb(223,225,225)"/><rect x="30" y="10" width="1" height="1" fill="rgb(226,226,226)"/><rect x="32" y="10" width="1" height="1" fill="rgb(226,226,226)"/><rect x="33" y="10" width="4" height="1" fill="rgb(223,225,225)"/><rect x="37" y="10" width="1" height="1" fill="rgb(226,226,226)"/><rect x="40" y="10" width="1" height="1" fill="rgb(223,224,224)"/><rect x="41" y="10" width="1" height="1" fill="rgb(222,224,224)"/><rect x="42" y="10" width="1" height="1" fill="rgb(224,225,225)"/><rect x="43" y="10" width="3" height="1" fill="rgb(227,227,227)"/><rect x="46" y="10" width="1" height="1" fill="rgb(225,226,226)"/><rect x="47" y="10" width="1" height="1" fill="rgb(224,226,226)"/><rect x="48" y="10" width="1" height="1" fill="rgb(223,224,224)"/><rect x="49" y="10" width="1" height="1" fill="rgb(224,225,225)"/><rect x="50" y="10" width="1" height="1" fill="rgb(226,226,226)"/><rect x="57" y="10" width="1" height="1" fill="rgb(222,222,222)"/><rect x="58" y="10" width="2" height="1" fill="rgb(223,223,223)"/><rect x="66" y="10" width="2" height="1" fill="rgb(225,225,225)"/><rect x="0" y="9" width="1" height="3" fill="rgb(239,239,239)"/><rect x="1" y="10" width="4" height="2" fill="rgb(227,227,227)"/><rect x="20" y="10" width="2" height="2" fill="rgb(227,227,227)"/><rect x="31" y="10" width="1" height="2" fill="rgb(227,227,227)"/><rect x="38" y="10" width="2" height="2" fill="rgb(227,227,227)"/><rect x="51" y="10" width="1" height="2" fill="rgb(227,227,227)"/><rect x="52" y="10" width="2" height="2" fill="rgb(211,211,211)"/><rect x="68" y="10" width="4" height="2" fill="rgb(223,223,223)"/><rect x="5" y="11" width="2" height="1" fill="rgb(222,223,223)"/><rect x="7" y="11" width="10" height="1" fill="rgb(227,227,227)"/><rect x="17" y="11" width="1" height="1" fill="rgb(221,222,222)"/><rect x="18" y="11" width="1" height="1" fill="rgb(221,221,221)"/><rect x="19" y="11" width="1" height="1" fill="rgb(222,222,222)"/><rect x="22" y="11" width="2" height="1" fill="rgb(221,222,222)"/><rect x="24" y="11" width="1" height="1" fill="rgb(227,227,227)"/><rect x="25" y="11" width="1" height="1" fill="rgb(222,222,222)"/><rect x="26" y="11" width="1" height="1" fill="rgb(222,223,223)"/><rect x="27" y="11" width="2" height="1" fill="rgb(227,227,227)"/><rect x="29" y="11" width="1" height="1" fill="rgb(222,222,222)"/><rect x="30" y="11" width="1" height="1" fill="rgb(222,223,223)"/><rect x="32" y="11" width="2" height="1" fill="rgb(223,223,223)"/><rect x="34" y="11" width="2" height="1" fill="rgb(227,227,227)"/><rect x="36" y="11" width="2" height="1" fill="rgb(222,223,223)"/><rect x="40" y="11" width="2" height="1" fill="rgb(221,222,222)"/><rect x="42" y="11" width="6" height="1" fill="rgb(227,227,227)"/><rect x="48" y="11" width="1" height="1" fill="rgb(222,222,222)"/><rect x="49" y="11" width="1" height="1" fill="rgb(221,222,222)"/><rect x="50" y="11" width="1" height="1" fill="rgb(222,223,223)"/><rect x="57" y="11" width="1" height="1" fill="rgb(221,221,221)"/><rect x="59" y="11" width="5" height="1" fill="rgb(223,223,223)"/><rect x="64" y="11" width="4" height="1" fill="rgb(224,224,224)"/><rect x="54" y="10" width="2" height="3" fill="rgb(215,215,215)"/><rect x="58" y="11" width="1" height="2" fill="rgb(222,222,222)"/><rect x="5" y="12" width="2" height="1" fill="rgb(215,215,215)"/><rect x="7" y="12" width="8" height="1" fill="rgb(211,211,211)"/><rect x="15" y="12" width="1" height="1" fill="rgb(217,217,217)"/><rect x="16" y="12" width="1" height="1" fill="rgb(218,218,218)"/><rect x="17" y="12" width="2" height="1" fill="rgb(217,217,217)"/><rect x="19" y="12" width="1" height="1" fill="rgb(216,216,216)"/><rect x="22" y="12" width="2" height="1" fill="rgb(215,215,215)"/><rect x="25" y="12" width="1" height="1" fill="rgb(215,215,215)"/><rect x="26" y="12" width="1" height="1" fill="rgb(215,216,216)"/><rect x="29" y="12" width="2" height="1" fill="rgb(215,216,216)"/><rect x="32" y="12" width="1" height="1" fill="rgb(216,216,216)"/><rect x="33" y="12" width="3" height="1" fill="rgb(218,218,218)"/><rect x="36" y="12" width="1" height="1" fill="rgb(216,217,217)"/><rect x="37" y="12" width="1" height="1" fill="rgb(215,215,215)"/><rect x="38" y="12" width="2" height="1" fill="rgb(211,211,211)"/><rect x="40" y="12" width="2" height="1" fill="rgb(215,215,215)"/><rect x="42" y="12" width="4" height="1" fill="rgb(211,211,211)"/><rect x="46" y="12" width="1" height="1" fill="rgb(217,217,217)"/><rect x="47" y="12" width="1" height="1" fill="rgb(218,218,218)"/><rect x="48" y="12" width="2" height="1" fill="rgb(217,217,217)"/><rect x="50" y="12" width="1" height="1" fill="rgb(216,216,216)"/><rect x="51" y="12" width="3" height="1" fill="rgb(211,211,211)"/><rect x="59" y="12" width="13" height="1" fill="rgb(223,223,223)"/><rect x="0" y="12" width="1" height="2" fill="rgb(223,223,223)"/><rect x="1" y="12" width="4" height="2" fill="rgb(211,211,211)"/><rect x="20" y="12" width="2" height="2" fill="rgb(211,211,211)"/><rect x="24" y="12" width="1" height="2" fill="rgb(211,211,211)"/><rect x="27" y="12" width="2" height="2" fill="rgb(211,211,211)"/><rect x="31" y="12" width="1" height="2" fill="rgb(211,211,211)"/><rect x="5" y="13" width="2" height="1" fill="rgb(213,213,213)"/><rect x="7" y="13" width="7" height="1" fill="rgb(211,211,211)"/><rect x="14" y="13" width="1" height="1" fill="rgb(212,212,212)"/><rect x="15" y="13" width="1" height="1" fill="rgb(214,214,214)"/><rect x="16" y="13" width="2" height="1" fill="rgb(211,211,211)"/><rect x="18" y="13" width="2" height="1" fill="rgb(214,214,214)"/><rect x="22" y="13" width="2" height="1" fill="rgb(213,213,213)"/><rect x="25" y="13" width="2" height="1" fill="rgb(213,214,214)"/><rect x="29" y="13" width="1" height="1" fill="rgb(213,214,214)"/><rect x="30" y="13" width="1" height="1" fill="rgb(214,214,214)"/><rect x="32" y="13" width="2" height="1" fill="rgb(214,214,214)"/><rect x="34" y="13" width="6" height="1" fill="rgb(211,211,211)"/><rect x="40" y="13" width="2" height="1" fill="rgb(213,213,213)"/><rect x="42" y="13" width="3" height="1" fill="rgb(211,211,211)"/><rect x="45" y="13" width="1" height="1" fill="rgb(212,212,212)"/><rect x="46" y="13" width="1" height="1" fill="rgb(214,214,214)"/><rect x="47" y="13" width="2" height="1" fill="rgb(211,211,211)"/><rect x="49" y="13" width="2" height="1" fill="rgb(214,214,214)"/><rect x="51" y="13" width="2" height="1" fill="rgb(211,211,211)"/><rect x="53" y="13" width="3" height="1" fill="rgb(215,215,215)"/><rect x="60" y="13" width="2" height="1" fill="rgb(222,222,222)"/><rect x="62" y="13" width="10" height="1" fill="rgb(223,223,223)"/><rect x="56" y="10" width="1" height="5" fill="rgb(219,219,219)"/><rect x="57" y="12" width="1" height="3" fill="rgb(220,220,220)"/><rect x="58" y="13" width="1" height="2" fill="rgb(221,221,221)"/><rect x="59" y="13" width="1" height="2" fill="rgb(223,223,223)"/><rect x="0" y="14" width="1" height="1" fill="rgb(227,227,227)"/><rect x="1" y="14" width="5" height="1" fill="rgb(215,215,215)"/><rect x="6" y="14" width="2" height="1" fill="rgb(214,214,214)"/><rect x="8" y="14" width="2" height="1" fill="rgb(215,215,215)"/><rect x="10" y="14" width="1" height="1" fill="rgb(214,214,214)"/><rect x="11" y="14" width="2" height="1" fill="rgb(213,213,213)"/><rect x="13" y="14" width="1" height="1" fill="rgb(215,215,215)"/><rect x="14" y="14" width="1" height="1" fill="rgb(214,214,214)"/><rect x="15" y="14" width="17" height="1" fill="rgb(215,215,215)"/><rect x="32" y="14" width="1" height="1" fill="rgb(214,214,214)"/><rect x="33" y="14" width="3" height="1" fill="rgb(215,215,215)"/><rect x="36" y="14" width="2" height="1" fill="rgb(214,214,214)"/><rect x="38" y="14" width="7" height="1" fill="rgb(215,215,215)"/><rect x="45" y="14" width="1" height="1" fill="rgb(214,214,214)"/><rect x="46" y="14" width="10" height="1" fill="rgb(215,215,215)"/><rect x="60" y="14" width="3" height="1" fill="rgb(222,222,222)"/><rect x="1" y="15" width="6" height="1" fill="rgb(215,215,215)"/><rect x="7" y="15" width="5" height="1" fill="rgb(216,216,216)"/><rect x="12" y="15" width="2" height="1" fill="rgb(215,215,215)"/><rect x="14" y="15" width="3" height="1" fill="rgb(216,216,216)"/><rect x="17" y="15" width="3" height="1" fill="rgb(217,217,217)"/><rect x="20" y="15" width="1" height="1" fill="rgb(216,216,216)"/><rect x="21" y="15" width="1" height="1" fill="rgb(215,215,215)"/><rect x="22" y="15" width="2" height="1" fill="rgb(216,216,216)"/><rect x="24" y="15" width="1" height="1" fill="rgb(215,215,215)"/><rect x="25" y="15" width="2" height="1" fill="rgb(216,216,216)"/><rect x="27" y="15" width="2" height="1" fill="rgb(215,215,215)"/><rect x="29" y="15" width="2" height="1" fill="rgb(216,216,216)"/><rect x="31" y="15" width="2" height="1" fill="rgb(215,215,215)"/><rect x="33" y="15" width="5" height="1" fill="rgb(216,216,216)"/><rect x="38" y="15" width="2" height="1" fill="rgb(215,215,215)"/><rect x="40" y="15" width="2" height="1" fill="rgb(216,216,216)"/><rect x="42" y="15" width="3" height="1" fill="rgb(215,215,215)"/><rect x="45" y="15" width="3" height="1" fill="rgb(216,216,216)"/><rect x="48" y="15" width="3" height="1" fill="rgb(217,217,217)"/><rect x="51" y="15" width="1" height="1" fill="rgb(216,216,216)"/><rect x="52" y="15" width="3" height="1" fill="rgb(215,215,215)"/><rect x="55" y="15" width="2" height="1" fill="rgb(219,219,219)"/><rect x="57" y="15" width="1" height="1" fill="rgb(221,221,221)"/><rect x="63" y="14" width="9" height="3" fill="rgb(223,223,223)"/><rect x="0" y="15" width="1" height="2" fill="rgb(231,231,231)"/><rect x="58" y="15" width="5" height="2" fill="rgb(222,222,222)"/><rect x="1" y="16" width="55" height="1" fill="rgb(219,219,219)"/><rect x="56" y="16" width="2" height="1" fill="rgb(223,223,223)"/><rect x="72" y="10" width="1" height="8" fill="rgb(219,219,219)"/><rect x="1" y="17" width="71" height="1" fill="rgb(223,223,223)"/><rect x="0" y="17" width="1" height="2" fill="rgb(235,235,235)"/><rect x="1" y="18" width="67" height="1" fill="rgb(231,231,231)"/><rect x="68" y="18" width="5" height="1" fill="rgb(227,227,227)"/><rect x="0" y="19" width="72" height="1" fill="rgb(235,235,235)"/><rect x="72" y="19" width="1" height="1" fill="rgb(231,231,231)"/><rect x="0" y="20" width="68" height="1" fill="rgb(243,243,243)"/><rect x="68" y="20" width="4" height="1" fill="rgb(235,235,235)"/><rect x="72" y="20" width="1" height="1" fill="rgb(219,219,219)"/></svg>