<svg xmlns="http://www.w3.org/2000/svg" width="96" height="32" viewBox="0 0 96 32" shape-rendering="geometricPrecision"><path d="M27 2 L69 2 L90 2.25 L90 2.75 L69 3 L27 3 L6 2.75 L6 2.25Z M6 3.25 L6 3.75 L5.5 4 L4.5 4 L4 3.75 L4 3.25 L4.5 3 L5.5 3Z M90.5 3 L91.5 3 L92 3.25 L92 3.75 L91.5 4 L90.5 4 L90 3.75 L90 3.25Z M4 4.5 L4 5.5 L3.75 6 L3.25 6 L3 5.5 L3 4.5 L3.25 4 L3.75 4Z M92.25 4 L92.75 4 L93 4.5 L93 5.5 L92.75 6 L92.25 6 L92 5.5 L92 4.5Z M3 11 L3 21 L2.75 26 L2.25 26 L2 21 L2 11 L2.25 6 L2.75 6Z M93.25 6 L93.75 6 L94 11 L94 21 L93.75 26 L93.25 26 L93 21 L93 11Z M3.25 26 L3.75 26 L4 26.5 L4 27.5 L3.75 28 L3.25 28 L3 27.5 L3 26.5Z M93 26.5 L93 27.5 L92.75 28 L92.25 28 L92 27.5 L92 26.5 L92.25 26 L92.75 26Z M4.5 28 L5.5 28 L6 28.25 L6 28.75 L5.5 29 L4.5 29 L4 28.75 L4 28.25Z M92 28.25 L92 28.75 L91.5 29 L90.5 29 L90 28.75 L90 28.25 L90.5 28 L91.5 28Z M27 29 L69 29 L90 29.25 L90 29.75 L69 30 L27 30 L6 29.75 L6 29.25Z" fill="#3071b2" stroke="#3071b2" stroke-width="0.75" stroke-linejoin="round" fill-rule="evenodd"/><path d="M91.25 22 L91.75 22 L92 22.75 L92 24.25 L91.75 25 L91.25 25 L91 25.25 L91 25.75 L90.75 26 L90.25 26 L90 26.25 L90 26.75 L69.25 27 L27.75 27 L7 26.75 L7 26.25 L6.75 26 L6.25 26 L6 25.75 L6 25.25 L26.75 25 L68.25 25 L89 24.75 L89 24.25 L89.5 24 L90.5 24 L91 23.5 L91 22.5Z" fill="#1092fb" stroke="#1092fb" stroke-width="0.75" stroke-linejoin="round" fill-rule="evenodd"/><path d="M92.25 6 L92.75 6 L93 11 L93 21 L92.75 26 L92.25 26 L92 26.5 L92 27.5 L91.5 28 L90.5 28 L90 28.25 L90 28.75 L69 29 L27 29 L6 28.75 L6 28.25 L5.5 28 L4.5 28 L4 27.5 L4 26.5 L4.25 26 L4.75 26 L5 25.75 L5 25.25 L5.25 25 L5.75 25 L6 24.75 L6 24.25 L26.5 24 L67.5 24 L88 23.75 L88 23.25 L88.5 23 L89.5 23 L90 22.75 L90 22.25 L90.25 22 L90.75 22 L91 18.5 L91 11.5 L91.25 8 L91.75 8 L92 7.5 L92 6.5Z M91.75 22 L91.25 22 L91 22.5 L91 23.5 L90.5 24 L89.5 24 L89 24.25 L89 24.75 L68.25 25 L26.75 25 L6 25.25 L6 25.75 L6.25 26 L6.75 26 L7 26.25 L7 26.75 L27.75 27 L69.25 27 L90 26.75 L90 26.25 L90.25 26 L90.75 26 L91 25.75 L91 25.25 L91.25 25 L91.75 25 L92 24.25 L92 22.75Z" fill="#28a2fb" stroke="#28a2fb" stroke-width="0.75" stroke-linejoin="round" fill-rule="evenodd"/><path d="M91.25 7 L91.75 7 L92 7.25 L92 7.75 L91.75 8 L91.25 8 L91 7.75 L91 7.25Z M91 11.5 L91 18.5 L90.75 22 L90.25 22 L90 22.25 L90 22.75 L89.5 23 L88.5 23 L88 23.25 L88 23.75 L67.5 24 L26.5 24 L6 24.25 L6 24.75 L5.75 25 L5.25 25 L5 25.25 L5 25.75 L4.5 26 L3.5 26 L3 25.75 L3 25.25 L3.25 25 L3.75 25 L4 24.5 L4 23.5 L4.25 23 L4.75 23 L5 19.75 L5 13.25 L5.25 10 L5.75 10 L6 9.75 L6 9.25 L6.5 9 L7.5 9 L8 8.75 L8 8.25 L28 8 L68 8 L88 8.25 L88 8.75 L88.5 9 L89.5 9 L90 8.75 L90 8.25 L90.25 8 L90.75 8Z" fill="#30baf3" stroke="#30baf3" stroke-width="0.75" stroke-linejoin="round" fill-rule="evenodd"/><path d="M27 3 L69 3 L90 3.25 L90 3.75 L69 4 L27 4 L6 3.75 L6 3.25Z M6 4.25 L6 4.75 L5.75 5 L5.25 5 L5 5.25 L5 5.75 L4.75 6 L4.25 6 L4 5.5 L4 4.5 L4.5 4 L5.5 4Z M90.5 4 L91.5 4 L92 4.75 L92 6.25 L91.75 7 L91.25 7 L91 7.25 L91 7.75 L90.75 8 L90.25 8 L90 8.25 L90 8.75 L89.5 9 L88.5 9 L88 8.75 L88 8.25 L68 8 L28 8 L8 8.25 L8 8.75 L7.5 9 L6.5 9 L6 9.25 L6 9.75 L5.75 10 L5.25 10 L5 13.25 L5 19.75 L4.75 23 L4.25 23 L4 23.5 L4 24.5 L3.75 25 L3.25 25 L3 20.25 L3 10.75 L3.25 6 L3.75 6 L4 6.75 L4 8.25 L4.25 9 L4.75 9 L5 8.5 L5 7.5 L5.5 7 L6.5 7 L7 6.75 L7 6.25 L28 6 L70 6 L91 5.75 L91 5.25 L90.75 5 L90.25 5 L90 4.75 L90 4.25Z" fill="#59cbeb" stroke="#59cbeb" stroke-width="0.75" stroke-linejoin="round" fill-rule="evenodd"/><path d="M94.25 7 L94.75 7 L95 12 L95 22 L94.75 27 L94.25 27 L94 27.5 L94 28.5 L93.75 29 L93.25 29 L93 29.25 L93 29.75 L92.5 30 L91.5 30 L91 30.25 L91 30.75 L69.75 31 L27.25 31 L6 30.75 L6 30.25 L5.5 30 L4.5 30 L4 29.75 L4 29.25 L3.75 29 L3.25 29 L3 28.75 L3 28.25 L3.25 28 L3.75 28 L4 28.25 L4 28.75 L4.5 29 L5.5 29 L6 29.25 L6 29.75 L27 30 L69 30 L90 29.75 L90 29.25 L90.5 29 L91.5 29 L92 28.75 L92 28.25 L92.25 28 L92.75 28 L93 27.5 L93 26.5 L93.25 26 L93.75 26 L94 21.25 L94 11.75Z M2.25 26 L2.75 26 L3 26.25 L3 26.75 L2.75 27 L2.25 27 L2 26.75 L2 26.25Z" fill="#c3c3c3" stroke="#c3c3c3" stroke-width="0.75" stroke-linejoin="round" fill-rule="evenodd"/><path d="M27 4 L69 4 L90 4.25 L90 4.75 L90.25 5 L90.75 5 L91 5.25 L91 5.75 L70 6 L28 6 L7 6.25 L7 6.75 L6.5 7 L5.5 7 L5 7.5 L5 8.5 L4.75 9 L4.25 9 L4 8.25 L4 6.75 L4.25 6 L4.75 6 L5 5.75 L5 5.25 L5.25 5 L5.75 5 L6 4.75 L6 4.25Z" fill="#82e3db" stroke="#82e3db" stroke-width="0.75" stroke-linejoin="round" fill-rule="evenodd"/><path d="M27 0 L69 0 L90 0.25 L90 0.75 L90.5 1 L91.5 1 L92 1.25 L92 1.75 L92.25 2 L92.75 2 L93 2.25 L93 2.75 L93.25 3 L93.75 3 L94 3.5 L94 4.5 L94.25 5 L94.75 5 L95 5.5 L95 6.5 L94.75 7 L94.25 7 L94 6.75 L94 6.25 L93.75 6 L93.25 6 L93 5.5 L93 4.5 L92.75 4 L92.25 4 L92 3.75 L92 3.25 L91.5 3 L90.5 3 L90 2.75 L90 2.25 L69 2 L27 2 L6 2.25 L6 2.75 L5.5 3 L4.5 3 L4 3.25 L4 3.75 L3.75 4 L3.25 4 L3 4.5 L3 5.5 L2.75 6 L2.25 6 L2 11.25 L2 21.75 L1.75 27 L1.25 27 L1 21.5 L1 10.5 L1.25 5 L1.75 5 L2 4.5 L2 3.5 L2.25 3 L2.75 3 L3 2.75 L3 2.25 L3.25 2 L3.75 2 L4 1.75 L4 1.25 L4.5 1 L5.5 1 L6 0.75 L6 0.25Z M95.25 7 L95.75 7 L96 12.25 L96 22.75 L95.75 28 L95.25 28 L95 28.5 L95 29.5 L94.75 30 L94.25 30 L94 30.25 L94 30.75 L93.5 31 L92.5 31 L92 31.25 L92 31.75 L70.5 32 L27.5 32 L6 31.75 L6 31.25 L5.5 31 L4.5 31 L4 30.75 L4 30.25 L3.75 30 L3.25 30 L3 29.75 L3 29.25 L2.75 29 L2.25 29 L2 28.5 L2 27.5 L2.25 27 L2.75 27 L3 27.5 L3 28.5 L3.25 29 L3.75 29 L4 29.25 L4 29.75 L4.5 30 L5.5 30 L6 30.25 L6 30.75 L27.25 31 L69.75 31 L91 30.75 L91 30.25 L91.5 30 L92.5 30 L93 29.75 L93 29.25 L93.25 29 L93.75 29 L94 28.5 L94 27.5 L94.25 27 L94.75 27 L95 22 L95 12Z" fill="#ebebeb" stroke="#ebebeb" stroke-width="0.75" stroke-linejoin="round" fill-rule="evenodd"/></svg>