<svg xmlns="http://www.w3.org/2000/svg" width="224" height="156" viewBox="0 0 224 156"><rect x="4" y="0" width="216" height="1" fill="rgb(186,0,32)"/><rect x="2" y="1" width="3" height="1" fill="rgb(186,0,32)"/><rect x="5" y="1" width="214" height="1" fill="rgb(219,0,32)"/><rect x="219" y="1" width="3" height="1" fill="rgb(186,0,32)"/><rect x="1" y="2" width="3" height="1" fill="rgb(186,0,32)"/><rect x="4" y="2" width="2" height="1" fill="rgb(219,0,32)"/><rect x="6" y="2" width="212" height="1" fill="rgb(251,24,48)"/><rect x="218" y="2" width="2" height="1" fill="rgb(219,0,32)"/><rect x="220" y="2" width="3" height="1" fill="rgb(186,0,32)"/><rect x="1" y="3" width="2" height="1" fill="rgb(186,0,32)"/><rect x="3" y="3" width="218" height="1" fill="rgb(219,0,32)"/><rect x="221" y="3" width="2" height="1" fill="rgb(186,0,32)"/><rect x="3" y="4" width="2" height="1" fill="rgb(219,0,32)"/><rect x="5" y="4" width="214" height="1" fill="rgb(251,24,48)"/><rect x="219" y="4" width="2" height="1" fill="rgb(219,0,32)"/><rect x="0" y="4" width="3" height="2" fill="rgb(186,0,32)"/><rect x="221" y="4" width="3" height="2" fill="rgb(186,0,32)"/><rect x="3" y="5" width="218" height="1" fill="rgb(219,0,32)"/><rect x="0" y="6" width="1" height="144" fill="rgb(162,162,162)"/><rect x="1" y="6" width="1" height="144" fill="rgb(195,195,195)"/><rect x="2" y="6" width="1" height="144" fill="rgb(219,219,219)"/><rect x="3" y="6" width="218" height="144" fill="rgb(251,251,251)"/><rect x="221" y="6" width="1" height="144" fill="rgb(219,219,219)"/><rect x="222" y="6" width="1" height="144" fill="rgb(195,195,195)"/><rect x="223" y="6" width="1" height="144" fill="rgb(162,162,162)"/><rect x="3" y="150" width="218" height="1" fill="rgb(219,0,32)"/><rect x="0" y="150" width="3" height="2" fill="rgb(186,0,32)"/><rect x="221" y="150" width="3" height="2" fill="rgb(186,0,32)"/><rect x="3" y="151" width="2" height="1" fill="rgb(219,0,32)"/><rect x="5" y="151" width="214" height="1" fill="rgb(251,24,48)"/><rect x="219" y="151" width="2" height="1" fill="rgb(219,0,32)"/><rect x="1" y="152" width="2" height="1" fill="rgb(186,0,32)"/><rect x="3" y="152" width="218" height="1" fill="rgb(219,0,32)"/><rect x="221" y="152" width="2" height="1" fill="rgb(186,0,32)"/><rect x="1" y="153" width="3" height="1" fill="rgb(186,0,32)"/><rect x="4" y="153" width="2" height="1" fill="rgb(219,0,32)"/><rect x="6" y="153" width="212" height="1" fill="rgb(251,24,48)"/><rect x="218" y="153" width="2" height="1" fill="rgb(219,0,32)"/><rect x="220" y="153" width="3" height="1" fill="rgb(186,0,32)"/><rect x="2" y="154" width="3" height="1" fill="rgb(186,0,32)"/><rect x="5" y="154" width="214" height="1" fill="rgb(219,0,32)"/><rect x="219" y="154" width="3" height="1" fill="rgb(186,0,32)"/><rect x="4" y="155" width="216" height="1" fill="rgb(186,0,32)"/></svg>