<svg xmlns="http://www.w3.org/2000/svg" width="272" height="32" viewBox="0 0 2176 256" shape-rendering="geometricPrecision"><g transform="translate(0.000000,256.000000) scale(0.100000,-0.100000)" fill="#ffffff">
<path d="M20200 2515 c0 -40 -3 -46 -32 -61 -18 -9 -36 -22 -40 -28 -4 -6 -8
-49 -8 -96 0 -47 -4 -90 -8 -96 -4 -6 -22 -19 -39 -28 -31 -15 -33 -20 -33
-69 0 -61 -4 -69 -47 -91 -36 -18 -35 -16 -34 -131 1 -79 -1 -86 -46 -109
l-33 -17 0 -99 0 -100 -40 -20 c-39 -20 -40 -22 -40 -73 0 -61 -4 -69 -47 -91
l-32 -16 -3 -102 c-3 -93 -5 -103 -24 -113 -50 -25 -53 -33 -56 -133 -3 -87
-5 -97 -24 -107 -46 -23 -54 -36 -54 -91 0 -52 -1 -55 -40 -79 l-39 -25 -3
-97 c-3 -88 -5 -98 -24 -108 -51 -25 -54 -33 -54 -131 l0 -94 -35 -17 c-42
-20 -44 -25 -47 -135 -4 -118 -1 -121 128 -119 70 1 103 6 113 16 11 10 14 38
12 109 l-2 95 41 21 c40 20 40 20 40 80 0 59 0 60 40 80 l40 20 0 100 0 100
40 20 40 20 0 100 0 100 40 20 40 20 0 100 0 100 40 20 c39 20 40 22 40 73 0
61 4 69 48 91 35 18 34 16 33 131 -1 79 1 86 47 109 l32 17 0 99 0 100 40 20
c39 20 40 22 40 73 0 61 4 69 48 91 l32 17 0 94 c0 98 7 116 51 130 32 10 36
39 31 203 l-4 152 -84 0 -84 0 0 -45z"/>
<path d="M638 2362 c-9 -2 -22 -17 -28 -33 -17 -39 -43 -52 -90 -44 -30 5 -42
3 -54 -12 -46 -54 -233 -240 -246 -245 -11 -3 -14 -19 -12 -61 2 -56 2 -57
-39 -82 l-40 -26 3 -133 c3 -135 -4 -166 -37 -166 -35 0 -37 -24 -37 -395 0
-371 2 -395 37 -395 29 0 39 -32 39 -128 1 -88 3 -97 22 -107 46 -23 54 -36
54 -91 0 -52 1 -55 40 -79 39 -24 40 -27 40 -80 0 -51 2 -57 31 -74 17 -11 39
-33 50 -50 17 -28 23 -30 81 -33 55 -3 64 -6 75 -28 19 -39 42 -50 85 -44 41
7 88 -15 88 -41 0 -13 33 -15 224 -15 216 0 225 1 231 20 9 30 41 42 87 35 38
-7 43 -5 83 36 23 24 48 49 55 56 34 33 72 69 125 123 48 48 103 96 120 106
16 9 20 22 21 70 0 32 5 59 10 61 5 2 24 12 43 24 l34 21 -6 167 c-3 91 -2
172 2 179 4 7 23 21 42 30 l34 17 0 220 0 220 -34 17 c-19 9 -38 23 -43 30 -5
7 -6 86 -2 174 6 156 6 162 -15 183 -11 11 -28 21 -36 21 -23 0 -36 36 -29 79
5 31 2 43 -15 60 -12 12 -28 21 -36 21 -23 0 -36 36 -29 79 5 31 2 42 -14 56
-25 23 -144 142 -166 167 -14 16 -25 18 -56 13 -47 -8 -73 5 -90 45 -7 16 -18
30 -24 30 -58 3 -566 4 -578 2z m434 -329 c10 -9 18 -22 18 -30 0 -7 16 -23
35 -34 19 -11 37 -29 40 -40 4 -11 24 -31 46 -45 38 -23 39 -26 39 -79 0 -53
1 -55 41 -81 l42 -26 -6 -129 c-6 -139 -7 -135 51 -169 l32 -20 0 -215 0 -215
-32 -20 c-58 -34 -57 -30 -51 -169 l6 -129 -41 -26 c-39 -25 -41 -28 -44 -83
-3 -52 -6 -60 -35 -78 -17 -11 -38 -35 -47 -52 -15 -31 -19 -33 -68 -33 -52 0
-88 -19 -88 -46 0 -22 -43 -44 -85 -44 -41 0 -85 22 -85 42 0 29 -34 48 -87
48 -50 0 -54 2 -69 33 -9 18 -29 40 -45 49 -16 10 -34 28 -40 42 -7 13 -24 30
-40 36 -16 7 -31 21 -34 31 -4 10 -5 72 -4 138 3 118 -5 151 -34 151 -6 0 -19
7 -29 17 -17 15 -18 39 -18 349 l0 334 40 25 c44 27 43 25 40 137 l-2 77 41
25 c39 25 41 28 41 79 0 73 8 81 82 87 51 4 64 9 73 26 26 53 29 54 168 54
107 0 134 -3 149 -17z"/>
<path d="M2784 2351 c-21 -24 -61 -64 -85 -85 -16 -14 -19 -25 -13 -64 8 -63
-16 -88 -75 -78 -50 8 -68 1 -87 -36 -8 -16 -26 -34 -39 -40 -14 -6 -34 -26
-45 -45 -18 -31 -22 -33 -78 -33 -77 0 -85 -11 -88 -108 -3 -102 2 -118 41
-141 19 -11 41 -34 50 -51 16 -30 18 -31 78 -28 59 3 63 4 79 37 22 44 33 51
86 51 38 0 45 4 63 35 29 49 54 61 85 40 25 -16 26 -18 20 -123 -11 -212 -17
-1607 -7 -1622 8 -12 43 -15 192 -16 130 0 185 3 193 12 10 9 12 268 10 1153
-1 627 -5 1145 -9 1151 -4 6 -70 10 -181 10 -158 0 -175 -2 -190 -19z"/>
<path d="M4478 2362 c-9 -2 -22 -17 -28 -33 -16 -37 -43 -52 -80 -44 -42 9
-68 -2 -85 -36 -9 -16 -28 -35 -44 -44 -16 -8 -33 -24 -36 -35 -4 -12 -24 -32
-45 -45 -37 -23 -39 -27 -42 -82 -3 -56 -4 -59 -40 -76 -22 -10 -38 -24 -38
-35 -1 -9 -3 -72 -5 -139 -4 -150 0 -159 76 -156 54 2 89 -15 89 -43 0 -26 48
-47 95 -42 65 8 75 20 75 90 0 56 1 59 35 79 38 23 50 48 40 86 -9 36 3 61 36
79 16 8 35 26 41 39 6 14 26 34 45 45 18 10 33 26 33 33 0 8 8 21 18 30 16 14
44 17 190 17 179 0 192 -3 206 -48 3 -9 19 -25 36 -34 16 -9 35 -28 41 -41 6
-13 26 -32 45 -40 l34 -17 0 -178 c0 -161 -2 -181 -18 -195 -10 -10 -24 -17
-31 -17 -6 0 -21 -15 -31 -33 -11 -19 -31 -39 -45 -45 -13 -6 -31 -25 -40 -41
-16 -31 -52 -48 -81 -37 -28 11 -62 -5 -75 -35 -16 -39 -40 -51 -88 -43 -32 5
-42 2 -57 -15 -11 -12 -37 -41 -59 -66 -22 -24 -48 -54 -58 -65 -15 -18 -25
-20 -62 -15 -35 6 -46 4 -60 -13 -23 -25 -302 -304 -327 -327 -16 -14 -19 -25
-14 -58 7 -49 2 -59 -41 -80 -40 -21 -46 -41 -38 -130 7 -81 3 -91 -46 -115
l-34 -17 -3 -137 c-3 -177 -10 -171 173 -156 134 10 1352 4 1431 -8 34 -5 46
-2 63 15 19 19 21 32 21 150 0 104 -3 133 -16 145 -18 19 13 19 -664 6 l-505
-10 -17 21 c-35 41 -15 159 26 159 26 0 46 36 46 83 0 47 14 71 49 82 10 3 23
16 29 30 6 13 24 31 40 39 16 8 39 32 51 52 21 35 23 36 68 31 49 -5 46 -7
108 65 14 17 24 19 60 13 36 -5 47 -3 64 14 12 12 21 28 21 36 0 23 36 36 79
29 32 -5 42 -2 57 15 50 56 236 241 243 241 4 0 13 11 19 25 6 13 25 31 41 39
16 9 33 25 36 36 4 12 24 32 46 46 l39 24 0 290 c0 264 -2 291 -17 305 -75 66
-233 224 -233 233 0 20 -38 33 -79 26 -41 -6 -47 -2 -89 54 l-17 23 -321 2
c-176 1 -328 1 -336 -1z"/>
<path d="M6302 2350 c-7 -8 -39 -43 -72 -77 -56 -60 -61 -63 -107 -63 -68 0
-77 -9 -83 -82 -4 -51 -9 -64 -26 -73 -51 -25 -54 -32 -54 -134 0 -62 4 -101
12 -109 7 -7 35 -12 63 -12 59 0 67 -5 88 -47 19 -35 57 -49 110 -38 49 11 57
22 57 82 l0 55 73 72 c40 39 80 83 90 99 l17 27 215 0 c227 0 235 -2 250 -50
3 -11 11 -20 17 -20 5 0 31 -21 57 -47 26 -27 55 -53 65 -58 16 -9 18 -24 19
-110 0 -87 -2 -100 -18 -109 -11 -6 -40 -32 -66 -58 -26 -27 -52 -48 -57 -48
-6 0 -14 -9 -17 -20 -12 -38 -34 -50 -91 -50 -52 0 -55 -1 -79 -40 l-25 -39
-177 6 c-157 5 -180 4 -192 -10 -9 -12 -14 -55 -15 -148 -2 -112 0 -135 15
-153 19 -23 6 -23 294 -10 163 6 162 7 190 -50 8 -16 21 -22 55 -24 72 -4 87
-10 100 -42 7 -16 17 -30 22 -30 5 0 31 -21 57 -47 26 -27 55 -53 66 -59 16
-9 19 -23 21 -90 2 -104 -2 -122 -40 -141 -41 -21 -46 -29 -46 -90 0 -48 -2
-52 -35 -72 -19 -11 -40 -32 -45 -46 -13 -34 -49 -46 -119 -39 -78 9 -109 0
-117 -31 -11 -42 -40 -55 -129 -55 -83 0 -125 15 -125 45 0 27 -31 45 -79 45
-48 0 -81 20 -81 49 0 6 -16 21 -35 32 -19 11 -37 29 -40 40 -4 10 -22 31 -41
45 -32 25 -34 30 -34 84 0 68 -11 80 -75 88 -48 5 -95 -16 -95 -43 0 -29 -30
-45 -81 -44 -80 3 -82 -1 -80 -178 1 -101 3 -115 21 -130 12 -10 41 -37 65
-60 24 -24 48 -43 54 -43 5 0 18 -16 29 -35 20 -32 24 -34 84 -37 55 -3 64 -6
75 -28 19 -39 42 -50 85 -44 41 7 88 -15 88 -41 0 -13 43 -15 305 -15 249 0
305 2 305 13 0 28 37 49 82 47 63 -4 64 -3 87 35 20 34 22 35 81 35 59 0 61 1
81 35 12 19 25 35 30 35 6 0 20 11 33 23 20 20 23 31 19 70 -5 44 -4 46 36 71
44 28 45 30 41 93 -2 39 1 43 39 67 l41 26 0 95 0 94 -32 17 c-18 9 -36 22
-40 28 -4 6 -8 53 -8 103 l0 93 -39 24 c-22 14 -42 34 -46 45 -3 11 -15 23
-25 26 -11 3 -33 24 -50 45 -17 21 -39 41 -49 45 -10 3 -23 17 -30 31 -6 14
-26 31 -45 39 -19 8 -37 24 -41 34 -8 25 11 61 31 61 12 0 64 45 124 107 8 9
22 23 31 31 72 64 70 60 63 100 -7 43 -2 49 54 82 l32 20 0 135 0 135 -40 25
c-39 24 -40 27 -40 80 0 53 -1 56 -39 79 -22 14 -42 34 -46 46 -3 11 -20 27
-36 35 -16 9 -35 28 -43 44 -19 35 -37 43 -86 35 -39 -6 -46 -2 -88 54 l-17
23 -370 2 c-318 2 -372 0 -383 -13z"/>
<path d="M8775 2350 c-13 -15 -16 -29 -11 -59 8 -50 1 -68 -36 -87 -16 -8 -34
-26 -40 -40 -7 -14 -24 -32 -40 -40 -15 -8 -34 -27 -42 -43 -8 -15 -29 -34
-46 -41 -32 -13 -34 -20 -30 -87 2 -39 -1 -44 -34 -64 -20 -12 -43 -34 -51
-49 -8 -16 -23 -31 -33 -34 -11 -4 -33 -24 -51 -46 -18 -22 -38 -40 -46 -40
-23 0 -36 -36 -29 -79 5 -32 2 -42 -15 -57 -12 -11 -41 -37 -66 -59 -24 -22
-54 -48 -65 -58 -18 -15 -20 -25 -15 -62 6 -36 4 -46 -14 -62 -12 -10 -32 -29
-45 -42 -13 -13 -30 -30 -39 -38 -8 -9 -26 -27 -40 -40 -13 -14 -31 -32 -40
-40 -8 -9 -26 -25 -40 -38 -22 -19 -24 -28 -20 -68 5 -44 4 -46 -35 -71 -22
-14 -43 -34 -47 -45 -3 -11 -21 -29 -40 -40 l-35 -20 -2 -153 c-3 -244 -9
-233 127 -224 50 3 272 7 494 8 477 2 434 15 426 -132 -17 -325 -17 -318 2
-337 16 -16 36 -18 188 -16 94 1 173 2 177 2 23 3 27 50 19 237 -5 109 -5 208
-1 220 5 12 17 23 27 26 11 3 90 1 178 -4 215 -11 205 -19 205 157 0 177 9
169 -174 158 -182 -10 -213 -10 -228 5 -13 13 -14 828 -2 1264 5 176 4 231 -6
243 -10 12 -43 15 -190 15 -163 0 -178 -1 -195 -20z m-7 -702 c9 -9 12 -111
12 -398 0 -356 -1 -388 -17 -402 -15 -14 -62 -16 -321 -16 l-303 0 -15 23
c-21 32 -9 64 26 77 16 5 38 25 49 44 11 19 26 34 32 34 30 0 49 33 49 86 0
45 4 55 22 65 12 6 66 56 120 110 98 98 98 98 96 145 -1 39 3 50 23 65 13 10
31 25 39 34 8 9 31 33 51 53 19 20 43 49 52 65 19 29 63 37 85 15z"/>
<path d="M9892 2350 c-12 -12 -14 -41 -8 -176 8 -179 5 -196 -44 -212 -16 -6
-30 -15 -30 -19 -1 -4 -2 -212 -3 -462 -2 -369 0 -457 11 -468 10 -9 48 -13
143 -13 118 0 130 2 147 21 9 11 33 37 52 57 20 20 43 49 53 64 15 23 24 27
74 30 47 2 59 7 68 24 28 56 21 55 254 52 l216 -3 20 -31 c11 -17 32 -38 48
-47 15 -9 32 -27 39 -41 6 -14 19 -28 29 -31 37 -12 49 -35 49 -91 0 -53 1
-54 40 -74 28 -14 40 -27 41 -43 1 -23 1 -140 0 -169 -1 -10 -19 -27 -41 -38
-39 -20 -40 -21 -40 -74 0 -56 -12 -79 -49 -91 -10 -3 -23 -17 -29 -31 -7 -14
-25 -32 -41 -42 -16 -9 -36 -31 -45 -49 -15 -31 -18 -33 -70 -33 -55 0 -86
-16 -86 -45 0 -30 -42 -45 -125 -45 -83 0 -125 15 -125 45 0 28 -31 45 -79 45
-50 0 -64 9 -86 54 -8 17 -21 22 -65 24 -84 5 -93 17 -84 124 8 112 -2 128
-82 128 -52 0 -55 -2 -78 -39 -14 -21 -31 -41 -38 -44 -7 -2 -48 -2 -91 1
-100 6 -117 -6 -117 -84 0 -52 1 -55 40 -79 38 -24 40 -28 40 -75 0 -38 5 -54
20 -67 11 -10 40 -37 64 -60 24 -24 49 -43 54 -43 6 0 19 -16 31 -35 20 -34
23 -35 79 -35 57 0 59 -1 83 -37 22 -34 29 -38 64 -36 60 3 84 -5 97 -32 l11
-25 264 0 c214 0 263 3 263 13 0 8 9 22 20 32 17 16 32 17 109 12 l90 -7 31
40 c17 21 39 41 49 45 10 3 23 17 29 30 7 14 27 35 46 46 20 11 38 29 41 39 3
10 21 28 40 39 33 19 35 23 35 74 0 56 8 69 54 92 21 11 21 12 19 345 -2 300
-4 336 -19 345 -51 31 -57 41 -56 91 2 55 -1 62 -40 87 -15 9 -34 30 -43 46
-8 16 -24 32 -34 36 -11 3 -29 21 -40 40 -18 32 -24 35 -66 35 -58 0 -79 11
-95 49 -6 16 -17 31 -23 33 -7 2 -158 1 -337 -2 l-325 -5 -18 -38 c-22 -44
-58 -58 -86 -33 -18 16 -19 34 -15 279 3 203 7 264 18 275 15 16 146 17 686 6
289 -6 327 -5 338 9 18 22 21 282 3 300 -9 9 -162 12 -673 12 -566 0 -664 -2
-676 -15z"/>
<path d="M12150 2360 c-4 -3 -15 -19 -23 -37 -19 -37 -43 -47 -91 -38 -27 5
-38 3 -51 -13 -23 -25 -222 -224 -247 -247 -16 -14 -19 -25 -14 -56 7 -43 -6
-79 -29 -79 -8 0 -24 -9 -35 -20 -19 -19 -20 -28 -14 -110 l7 -89 -37 -22
c-20 -12 -40 -29 -45 -38 -4 -9 -4 -83 0 -166 5 -82 8 -280 7 -439 -1 -273 0
-291 17 -300 10 -6 29 -21 42 -33 22 -21 23 -27 17 -111 l-7 -90 34 -17 c45
-23 49 -31 49 -93 0 -49 2 -54 33 -72 19 -11 39 -31 45 -45 6 -13 25 -31 41
-39 16 -9 36 -28 43 -43 12 -25 19 -28 78 -33 56 -4 66 -8 77 -30 19 -39 42
-50 85 -44 41 7 88 -15 88 -41 0 -13 33 -15 225 -15 192 0 225 2 225 15 0 8
11 22 25 31 21 14 41 16 108 10 89 -7 94 -5 120 37 10 15 29 32 42 37 13 5 31
22 39 38 8 15 26 33 40 40 14 6 32 24 40 40 8 15 26 33 40 40 14 6 32 22 41
36 9 14 33 34 52 46 l36 21 -5 122 c-3 67 -3 128 0 135 2 7 22 24 43 38 l39
24 0 95 0 95 -39 24 c-21 14 -41 31 -44 38 -3 7 -2 50 1 95 l5 82 -34 20 c-19
12 -38 22 -44 24 -5 2 -8 27 -7 55 1 40 -2 56 -17 68 -24 21 -64 61 -85 86
-14 16 -25 18 -61 13 -36 -6 -46 -4 -62 14 -61 70 -62 72 -88 65 -42 -10 -74
4 -92 41 -9 19 -21 36 -27 38 -6 1 -123 1 -259 -1 l-248 -4 -19 -38 c-20 -40
-46 -52 -90 -43 -30 5 -39 -2 -70 -54 -15 -25 -27 -33 -48 -33 -15 0 -33 5
-40 12 -14 14 -17 254 -3 291 5 13 23 30 40 37 32 13 39 27 43 95 2 32 9 44
34 60 17 11 38 32 47 48 9 15 28 32 42 37 14 5 28 18 32 27 19 53 18 53 289
53 l254 0 17 -27 c10 -16 49 -59 88 -98 39 -38 79 -83 88 -98 18 -28 18 -28
119 -25 101 3 101 3 118 33 9 17 27 35 41 42 34 17 49 42 49 79 0 50 -15 80
-49 94 -17 6 -33 21 -36 31 -4 11 -24 31 -45 44 -21 13 -41 33 -45 45 -3 11
-20 27 -36 35 -16 9 -36 29 -44 45 -16 32 -50 46 -84 35 -34 -10 -60 4 -76 41
-8 19 -20 34 -27 35 -79 3 -662 3 -668 -1z m522 -1127 c10 -9 18 -22 18 -30 0
-7 16 -23 35 -34 19 -11 37 -29 40 -40 4 -11 24 -31 45 -44 37 -23 39 -27 42
-82 2 -47 7 -59 24 -68 53 -26 54 -29 54 -170 0 -141 -1 -144 -54 -170 -17 -8
-22 -22 -26 -70 -5 -54 -8 -62 -37 -80 -18 -11 -35 -28 -38 -37 -12 -35 -36
-48 -85 -48 -49 0 -80 -17 -80 -45 0 -30 -42 -45 -125 -45 -83 0 -125 15 -125
45 0 29 -31 45 -86 45 -52 0 -55 1 -71 34 -8 19 -27 39 -40 45 -13 6 -32 24
-41 40 -9 17 -27 35 -40 40 -13 6 -30 24 -40 40 -9 16 -31 36 -49 45 -18 9
-33 21 -33 28 -6 159 -5 337 2 351 5 10 20 22 34 27 14 6 32 23 42 39 9 17 27
35 39 40 13 6 32 25 43 43 18 30 25 33 82 38 58 5 64 7 77 35 8 17 19 33 25
37 6 4 87 8 180 8 144 0 172 -3 188 -17z"/>
<path d="M13569 2354 c-5 -7 -10 -73 -11 -149 -1 -112 2 -139 15 -152 18 -19
135 -19 737 -3 343 10 355 9 373 -9 28 -28 15 -68 -26 -86 -18 -7 -39 -25 -47
-39 -7 -14 -21 -28 -32 -31 -34 -12 -48 -35 -48 -84 0 -50 -9 -64 -54 -86 -17
-8 -22 -22 -26 -69 -4 -44 -10 -62 -25 -70 -10 -6 -38 -29 -61 -51 -24 -22
-53 -48 -65 -59 -17 -14 -20 -25 -16 -54 8 -44 -3 -64 -49 -91 l-37 -22 7 -85
c6 -88 -2 -124 -29 -124 -8 0 -24 -9 -36 -21 -17 -17 -20 -28 -15 -64 8 -47 4
-52 -53 -86 l-34 -21 6 -129 c7 -139 8 -135 -50 -169 l-33 -20 0 -254 c0 -206
3 -257 14 -269 21 -21 372 -18 387 3 7 10 9 99 5 259 -5 245 -2 281 29 281 8
0 25 10 36 21 20 20 21 28 14 139 -7 122 0 160 30 160 8 0 25 10 36 21 20 20
21 29 15 101 -7 82 2 118 29 118 8 0 24 9 36 21 17 17 20 29 15 60 -7 43 6 79
29 79 8 0 24 9 36 21 17 17 19 28 14 64 -6 36 -4 46 14 62 12 10 41 36 66 58
24 22 53 48 65 58 18 15 20 25 14 66 -6 49 -6 49 34 75 22 14 43 34 47 46 3
11 20 27 36 35 16 9 35 28 43 43 8 16 26 33 40 40 14 6 32 25 40 41 9 16 24
32 34 35 11 4 33 24 51 46 18 22 38 40 46 40 8 0 19 9 25 19 12 23 13 260 2
278 -11 18 -1659 24 -1673 7z"/>
<path d="M15914 2357 c-8 -4 -21 -21 -29 -37 -8 -16 -24 -32 -35 -35 -12 -4
-32 -24 -46 -46 -24 -39 -25 -39 -81 -37 -42 2 -58 -1 -61 -12 -7 -19 -63 -75
-82 -82 -12 -4 -14 -21 -12 -88 3 -102 -1 -116 -41 -137 -44 -22 -47 -28 -47
-115 0 -94 4 -105 46 -123 40 -17 49 -44 41 -130 -6 -65 8 -105 38 -105 8 0
26 -16 41 -35 25 -33 30 -35 84 -35 61 0 90 -18 90 -57 0 -35 -31 -53 -93 -53
-51 0 -58 -3 -77 -30 -12 -17 -34 -37 -50 -45 -16 -8 -31 -24 -35 -35 -4 -11
-21 -28 -38 -37 -43 -21 -48 -31 -41 -79 6 -45 2 -51 -53 -84 l-33 -20 0 -175
0 -175 33 -20 c58 -34 58 -34 51 -130 l-7 -88 40 -25 c22 -14 47 -36 56 -50 9
-14 25 -28 36 -32 11 -3 29 -21 40 -40 20 -34 23 -35 79 -35 57 0 59 -1 83
-37 l24 -38 93 4 c78 3 96 1 112 -14 11 -10 20 -24 20 -32 0 -10 50 -13 265
-13 227 0 265 2 265 15 0 27 47 48 90 41 42 -7 47 -3 89 53 15 21 25 24 73 22
54 -1 56 0 77 34 11 19 32 40 46 45 14 5 30 21 37 35 6 14 26 34 45 45 31 18
33 23 33 73 0 53 18 87 47 87 28 0 32 33 34 275 1 247 1 250 -21 265 -12 8
-33 26 -45 38 -36 37 -44 44 -91 87 -47 42 -91 85 -102 98 -4 5 -22 17 -40 28
-46 27 -42 66 10 94 20 11 42 30 47 43 6 12 19 25 28 29 41 14 53 35 53 89 0
52 1 54 40 74 l39 20 3 157 c2 87 0 167 -4 179 -3 12 -23 31 -42 42 -36 21
-36 23 -34 79 2 41 -1 58 -12 61 -20 7 -150 136 -150 150 0 20 -38 33 -79 26
-41 -6 -47 -2 -89 54 l-17 23 -363 2 c-200 1 -370 -2 -378 -6z m600 -323 c9
-8 16 -19 16 -24 0 -24 34 -40 84 -40 33 0 58 -5 65 -14 7 -8 12 -76 15 -187
3 -170 2 -174 -20 -194 -30 -25 -47 -43 -79 -78 -24 -27 -27 -28 -95 -21 -90
9 -112 2 -132 -40 -19 -39 -56 -52 -114 -41 -27 5 -39 14 -51 41 -20 42 -42
49 -131 40 -73 -7 -93 0 -115 44 -7 14 -23 30 -36 36 -43 22 -45 29 -44 171 2
121 4 139 19 148 10 6 39 31 65 58 26 26 52 47 57 47 6 0 14 9 17 20 15 48 23
50 250 50 181 0 216 -2 229 -16z m-27 -944 c15 0 28 -11 39 -32 22 -44 31 -48
87 -46 50 1 62 -5 81 -43 6 -13 22 -29 35 -35 43 -22 44 -27 44 -211 -1 -159
-2 -179 -18 -188 -28 -16 -141 -128 -154 -152 -10 -19 -20 -23 -63 -23 -52 0
-88 -19 -88 -46 0 -33 -42 -44 -165 -44 -124 0 -165 11 -165 45 0 29 -31 45
-86 45 -52 0 -55 2 -70 33 -9 18 -29 40 -45 49 -16 10 -34 28 -40 41 -6 13
-26 32 -45 40 l-34 17 0 145 0 144 33 17 c42 22 47 30 47 90 0 27 5 55 12 62
7 7 35 12 63 12 59 0 67 5 88 47 10 19 26 33 39 35 18 2 239 2 405 -2z"/>
<path d="M17838 2362 c-9 -2 -22 -17 -28 -33 -17 -39 -43 -52 -90 -44 -32 5
-42 3 -57 -15 -49 -57 -198 -211 -237 -246 -23 -20 -24 -26 -19 -105 6 -90 3
-97 -51 -124 -21 -10 -21 -16 -21 -230 0 -214 0 -220 21 -230 45 -22 53 -36
56 -93 2 -46 7 -58 24 -67 46 -23 54 -36 54 -90 0 -31 5 -57 13 -63 7 -6 37
-12 67 -14 49 -3 56 -6 78 -38 13 -19 32 -40 43 -46 11 -5 29 -25 39 -42 l20
-32 95 0 96 0 21 -36 c11 -19 30 -39 42 -43 12 -4 75 -5 141 -1 109 5 120 7
130 26 25 51 33 54 127 54 l89 0 20 35 c12 20 30 40 40 46 11 5 31 28 44 49
20 31 32 40 53 40 48 0 52 -13 52 -160 0 -106 -3 -140 -16 -158 -8 -12 -21
-22 -28 -22 -27 0 -46 -36 -46 -87 0 -48 -2 -52 -35 -72 -19 -11 -40 -31 -46
-43 -5 -13 -23 -31 -40 -40 -16 -10 -33 -28 -39 -42 -12 -34 -39 -46 -87 -39
-39 5 -41 3 -69 -38 l-30 -44 -88 -3 c-91 -3 -136 11 -136 42 0 33 -35 46
-128 46 l-92 0 -16 33 c-9 17 -30 41 -47 52 -30 19 -32 25 -35 83 -3 57 -5 64
-28 72 -33 13 -160 13 -183 0 -10 -5 -24 -23 -31 -40 -13 -30 -20 -33 -77 -30
-43 2 -70 -7 -77 -27 -8 -19 19 -63 39 -63 25 0 45 -41 39 -81 -5 -30 -2 -40
15 -55 12 -11 42 -38 66 -62 24 -23 48 -42 54 -42 5 0 18 -16 30 -35 20 -34
23 -35 79 -35 57 0 59 -1 83 -37 22 -34 29 -38 64 -36 60 3 84 -5 97 -32 l11
-25 264 0 c214 0 263 3 263 13 0 30 38 50 83 44 48 -7 63 1 90 46 16 25 23 27
77 27 57 0 61 2 79 31 11 17 33 39 50 50 29 17 31 23 31 74 0 53 1 56 40 80
39 24 40 27 40 80 0 53 1 56 39 79 21 14 41 31 43 38 3 7 3 68 0 135 l-5 121
42 26 c22 15 41 30 41 34 0 4 1 153 3 332 2 299 1 326 -15 342 -10 10 -25 18
-33 18 -29 0 -35 36 -28 163 l6 125 -42 26 c-44 28 -45 30 -41 93 2 39 -1 43
-38 67 -22 14 -43 34 -47 46 -3 11 -20 27 -36 35 -16 9 -35 28 -43 43 -8 16
-26 33 -40 40 -14 6 -32 25 -40 41 -18 34 -44 45 -86 36 -38 -8 -65 7 -78 45
-6 16 -17 30 -24 31 -51 2 -648 3 -660 1z m604 -347 c11 -20 33 -42 48 -50 16
-8 32 -24 35 -35 4 -12 24 -32 45 -45 l39 -25 3 -97 c3 -94 4 -98 29 -110 43
-21 48 -34 51 -132 2 -85 1 -95 -17 -105 -11 -6 -40 -32 -66 -58 -26 -27 -51
-48 -56 -48 -4 0 -16 -14 -25 -30 -9 -17 -28 -35 -41 -41 -13 -6 -32 -26 -40
-45 l-17 -34 -100 0 -100 0 -17 -37 c-15 -32 -23 -38 -48 -38 -24 0 -33 7 -46
35 l-17 35 -98 5 c-98 5 -99 5 -119 37 -11 17 -30 36 -43 42 -13 6 -31 25 -40
41 -9 17 -25 33 -34 36 -46 14 -48 24 -48 248 0 229 -1 224 54 251 17 9 22 22
26 73 6 74 14 82 87 82 51 0 54 2 78 40 l25 40 215 0 216 0 21 -35z"/>
<path d="M20859 2048 c-10 -4 -19 -13 -20 -20 -7 -119 -2 -444 7 -456 9 -13
47 -16 234 -17 158 0 227 3 238 11 15 11 17 40 17 234 1 160 -2 226 -11 238
-11 15 -38 17 -229 17 -119 0 -225 -3 -236 -7z"/>
<path d="M20937 835 c-28 -31 -51 -54 -82 -82 -25 -22 -25 -24 -25 -191 0
-129 3 -173 14 -188 13 -18 29 -19 237 -20 200 0 224 1 240 17 16 16 18 38 17
191 -2 169 -2 173 -26 194 -31 27 -48 45 -78 78 -23 25 -26 26 -149 26 -121 0
-127 -1 -148 -25z"/>
</g></svg>