<svg xmlns="http://www.w3.org/2000/svg" width="48" height="64" viewBox="0 0 48 64"><rect x="0" y="0" width="2" height="1" fill="rgb(81,81,81)"/><rect x="3" y="0" width="2" height="1" fill="rgb(81,81,81)"/><rect x="6" y="0" width="2" height="1" fill="rgb(81,81,81)"/><rect x="9" y="0" width="2" height="1" fill="rgb(81,81,81)"/><rect x="12" y="0" width="2" height="1" fill="rgb(81,81,81)"/><rect x="15" y="0" width="2" height="1" fill="rgb(81,81,81)"/><rect x="18" y="0" width="2" height="1" fill="rgb(81,81,81)"/><rect x="21" y="0" width="2" height="1" fill="rgb(81,81,81)"/><rect x="24" y="0" width="2" height="1" fill="rgb(81,81,81)"/><rect x="27" y="0" width="2" height="1" fill="rgb(81,81,81)"/><rect x="30" y="0" width="2" height="1" fill="rgb(81,81,81)"/><rect x="33" y="0" width="2" height="1" fill="rgb(81,81,81)"/><rect x="36" y="0" width="2" height="1" fill="rgb(81,81,81)"/><rect x="39" y="0" width="2" height="1" fill="rgb(81,81,81)"/><rect x="0" y="1" width="2" height="1" fill="rgb(73,73,73)"/><rect x="3" y="1" width="2" height="1" fill="rgb(73,73,73)"/><rect x="6" y="1" width="2" height="1" fill="rgb(73,73,73)"/><rect x="9" y="1" width="2" height="1" fill="rgb(73,73,73)"/><rect x="12" y="1" width="2" height="1" fill="rgb(73,73,73)"/><rect x="15" y="1" width="2" height="1" fill="rgb(73,73,73)"/><rect x="18" y="1" width="2" height="1" fill="rgb(73,73,73)"/><rect x="21" y="1" width="2" height="1" fill="rgb(73,73,73)"/><rect x="24" y="1" width="2" height="1" fill="rgb(73,73,73)"/><rect x="27" y="1" width="2" height="1" fill="rgb(73,73,73)"/><rect x="30" y="1" width="2" height="1" fill="rgb(73,73,73)"/><rect x="33" y="1" width="2" height="1" fill="rgb(73,73,73)"/><rect x="36" y="1" width="2" height="1" fill="rgb(73,73,73)"/><rect x="39" y="1" width="2" height="1" fill="rgb(73,73,73)"/><rect x="41" y="1" width="1" height="1" fill="rgb(81,81,81)"/><rect x="41" y="2" width="1" height="1" fill="rgb(73,73,73)"/><rect x="43" y="3" width="1" height="1" fill="rgb(63,63,63)"/><rect x="0" y="3" width="1" height="2" fill="rgb(81,81,81)"/><rect x="1" y="3" width="1" height="2" fill="rgb(73,73,73)"/><rect x="43" y="4" width="1" height="1" fill="rgb(73,73,73)"/><rect x="44" y="4" width="1" height="1" fill="rgb(81,81,81)"/><rect x="44" y="5" width="1" height="1" fill="rgb(73,73,73)"/><rect x="45" y="5" width="1" height="1" fill="rgb(63,63,63)"/><rect x="46" y="6" width="1" height="1" fill="rgb(63,63,63)"/><rect x="0" y="6" width="1" height="2" fill="rgb(81,81,81)"/><rect x="1" y="6" width="1" height="2" fill="rgb(73,73,73)"/><rect x="46" y="7" width="1" height="3" fill="rgb(73,73,73)"/><rect x="47" y="7" width="1" height="3" fill="rgb(81,81,81)"/><rect x="0" y="9" width="1" height="2" fill="rgb(81,81,81)"/><rect x="1" y="9" width="1" height="2" fill="rgb(73,73,73)"/><rect x="46" y="11" width="1" height="2" fill="rgb(73,73,73)"/><rect x="47" y="11" width="1" height="2" fill="rgb(81,81,81)"/><rect x="0" y="12" width="1" height="2" fill="rgb(81,81,81)"/><rect x="1" y="12" width="1" height="2" fill="rgb(73,73,73)"/><rect x="46" y="14" width="1" height="2" fill="rgb(73,73,73)"/><rect x="47" y="14" width="1" height="2" fill="rgb(81,81,81)"/><rect x="0" y="15" width="1" height="2" fill="rgb(81,81,81)"/><rect x="1" y="15" width="1" height="2" fill="rgb(73,73,73)"/><rect x="46" y="17" width="1" height="2" fill="rgb(73,73,73)"/><rect x="47" y="17" width="1" height="2" fill="rgb(81,81,81)"/><rect x="0" y="18" width="1" height="2" fill="rgb(81,81,81)"/><rect x="1" y="18" width="1" height="2" fill="rgb(73,73,73)"/><rect x="46" y="20" width="1" height="2" fill="rgb(73,73,73)"/><rect x="47" y="20" width="1" height="2" fill="rgb(81,81,81)"/><rect x="0" y="21" width="1" height="2" fill="rgb(81,81,81)"/><rect x="1" y="21" width="1" height="2" fill="rgb(73,73,73)"/><rect x="46" y="23" width="1" height="2" fill="rgb(73,73,73)"/><rect x="47" y="23" width="1" height="2" fill="rgb(81,81,81)"/><rect x="0" y="24" width="1" height="2" fill="rgb(81,81,81)"/><rect x="1" y="24" width="1" height="2" fill="rgb(73,73,73)"/><rect x="46" y="26" width="1" height="2" fill="rgb(73,73,73)"/><rect x="47" y="26" width="1" height="2" fill="rgb(81,81,81)"/><rect x="0" y="27" width="1" height="2" fill="rgb(81,81,81)"/><rect x="1" y="27" width="1" height="2" fill="rgb(73,73,73)"/><rect x="13" y="28" width="4" height="1" fill="rgb(63,63,63)"/><rect x="17" y="28" width="7" height="1" fill="rgb(73,73,73)"/><rect x="26" y="28" width="3" height="1" fill="rgb(73,73,73)"/><rect x="29" y="28" width="3" height="1" fill="rgb(63,63,63)"/><rect x="12" y="29" width="2" height="1" fill="rgb(73,73,73)"/><rect x="14" y="29" width="9" height="1" fill="rgb(81,81,81)"/><rect x="23" y="29" width="1" height="1" fill="rgb(73,73,73)"/><rect x="26" y="29" width="1" height="1" fill="rgb(73,73,73)"/><rect x="27" y="29" width="3" height="1" fill="rgb(81,81,81)"/><rect x="30" y="29" width="1" height="1" fill="rgb(73,73,73)"/><rect x="31" y="29" width="1" height="1" fill="rgb(63,63,63)"/><rect x="33" y="29" width="2" height="1" fill="rgb(63,63,63)"/><rect x="25" y="29" width="1" height="2" fill="rgb(63,63,63)"/><rect x="46" y="29" width="1" height="2" fill="rgb(73,73,73)"/><rect x="47" y="29" width="1" height="2" fill="rgb(81,81,81)"/><rect x="11" y="30" width="1" height="1" fill="rgb(63,63,63)"/><rect x="12" y="30" width="3" height="1" fill="rgb(81,81,81)"/><rect x="15" y="30" width="8" height="1" fill="rgb(73,73,73)"/><rect x="23" y="30" width="1" height="1" fill="rgb(63,63,63)"/><rect x="26" y="30" width="3" height="1" fill="rgb(81,81,81)"/><rect x="29" y="30" width="1" height="1" fill="rgb(73,73,73)"/><rect x="30" y="30" width="2" height="1" fill="rgb(63,63,63)"/><rect x="32" y="30" width="2" height="1" fill="rgb(73,73,73)"/><rect x="34" y="30" width="3" height="1" fill="rgb(63,63,63)"/><rect x="0" y="30" width="1" height="2" fill="rgb(81,81,81)"/><rect x="1" y="30" width="1" height="2" fill="rgb(73,73,73)"/><rect x="11" y="31" width="1" height="1" fill="rgb(73,73,73)"/><rect x="12" y="31" width="2" height="1" fill="rgb(81,81,81)"/><rect x="14" y="31" width="1" height="1" fill="rgb(73,73,73)"/><rect x="15" y="31" width="1" height="1" fill="rgb(63,63,63)"/><rect x="30" y="31" width="1" height="1" fill="rgb(63,63,63)"/><rect x="31" y="31" width="2" height="1" fill="rgb(73,73,73)"/><rect x="33" y="31" width="1" height="1" fill="rgb(63,63,63)"/><rect x="34" y="31" width="1" height="1" fill="rgb(73,73,73)"/><rect x="35" y="31" width="2" height="1" fill="rgb(81,81,81)"/><rect x="37" y="31" width="1" height="1" fill="rgb(73,73,73)"/><rect x="11" y="32" width="1" height="1" fill="rgb(63,63,63)"/><rect x="12" y="32" width="3" height="1" fill="rgb(81,81,81)"/><rect x="15" y="32" width="1" height="1" fill="rgb(73,73,73)"/><rect x="16" y="32" width="1" height="1" fill="rgb(63,63,63)"/><rect x="31" y="32" width="2" height="1" fill="rgb(63,63,63)"/><rect x="33" y="32" width="1" height="1" fill="rgb(73,73,73)"/><rect x="34" y="32" width="4" height="1" fill="rgb(81,81,81)"/><rect x="46" y="32" width="1" height="2" fill="rgb(73,73,73)"/><rect x="47" y="32" width="1" height="2" fill="rgb(81,81,81)"/><rect x="12" y="33" width="1" height="1" fill="rgb(73,73,73)"/><rect x="13" y="33" width="5" height="1" fill="rgb(81,81,81)"/><rect x="18" y="33" width="1" height="1" fill="rgb(73,73,73)"/><rect x="19" y="33" width="1" height="1" fill="rgb(63,63,63)"/><rect x="31" y="33" width="2" height="1" fill="rgb(73,73,73)"/><rect x="33" y="33" width="5" height="1" fill="rgb(81,81,81)"/><rect x="0" y="33" width="1" height="2" fill="rgb(81,81,81)"/><rect x="1" y="33" width="1" height="2" fill="rgb(73,73,73)"/><rect x="39" y="33" width="1" height="2" fill="rgb(63,63,63)"/><rect x="13" y="34" width="1" height="1" fill="rgb(63,63,63)"/><rect x="14" y="34" width="1" height="1" fill="rgb(73,73,73)"/><rect x="15" y="34" width="5" height="1" fill="rgb(81,81,81)"/><rect x="20" y="34" width="1" height="1" fill="rgb(73,73,73)"/><rect x="29" y="34" width="1" height="1" fill="rgb(63,63,63)"/><rect x="30" y="34" width="1" height="1" fill="rgb(73,73,73)"/><rect x="31" y="34" width="7" height="1" fill="rgb(81,81,81)"/><rect x="38" y="32" width="1" height="4" fill="rgb(73,73,73)"/><rect x="15" y="35" width="1" height="1" fill="rgb(63,63,63)"/><rect x="16" y="35" width="1" height="1" fill="rgb(73,73,73)"/><rect x="17" y="35" width="4" height="1" fill="rgb(81,81,81)"/><rect x="21" y="35" width="1" height="1" fill="rgb(73,73,73)"/><rect x="23" y="35" width="4" height="1" fill="rgb(63,63,63)"/><rect x="27" y="35" width="2" height="1" fill="rgb(73,73,73)"/><rect x="29" y="35" width="9" height="1" fill="rgb(81,81,81)"/><rect x="46" y="35" width="1" height="2" fill="rgb(73,73,73)"/><rect x="47" y="35" width="1" height="2" fill="rgb(81,81,81)"/><rect x="9" y="36" width="1" height="1" fill="rgb(63,63,63)"/><rect x="10" y="36" width="6" height="1" fill="rgb(73,73,73)"/><rect x="16" y="36" width="6" height="1" fill="rgb(81,81,81)"/><rect x="23" y="36" width="2" height="1" fill="rgb(73,73,73)"/><rect x="25" y="36" width="12" height="1" fill="rgb(81,81,81)"/><rect x="37" y="36" width="1" height="1" fill="rgb(73,73,73)"/><rect x="0" y="36" width="1" height="2" fill="rgb(81,81,81)"/><rect x="1" y="36" width="1" height="2" fill="rgb(73,73,73)"/><rect x="8" y="37" width="1" height="1" fill="rgb(63,63,63)"/><rect x="9" y="37" width="1" height="1" fill="rgb(73,73,73)"/><rect x="10" y="37" width="11" height="1" fill="rgb(81,81,81)"/><rect x="21" y="37" width="1" height="1" fill="rgb(73,73,73)"/><rect x="24" y="37" width="11" height="1" fill="rgb(81,81,81)"/><rect x="35" y="37" width="1" height="1" fill="rgb(73,73,73)"/><rect x="36" y="37" width="1" height="1" fill="rgb(63,63,63)"/><rect x="23" y="37" width="1" height="2" fill="rgb(73,73,73)"/><rect x="8" y="38" width="1" height="1" fill="rgb(73,73,73)"/><rect x="9" y="38" width="11" height="1" fill="rgb(81,81,81)"/><rect x="20" y="38" width="1" height="1" fill="rgb(73,73,73)"/><rect x="24" y="38" width="9" height="1" fill="rgb(81,81,81)"/><rect x="33" y="38" width="1" height="1" fill="rgb(73,73,73)"/><rect x="34" y="38" width="1" height="1" fill="rgb(63,63,63)"/><rect x="46" y="38" width="1" height="2" fill="rgb(73,73,73)"/><rect x="47" y="38" width="1" height="2" fill="rgb(81,81,81)"/><rect x="8" y="39" width="11" height="1" fill="rgb(73,73,73)"/><rect x="19" y="39" width="1" height="1" fill="rgb(63,63,63)"/><rect x="23" y="39" width="8" height="1" fill="rgb(73,73,73)"/><rect x="31" y="39" width="2" height="1" fill="rgb(63,63,63)"/><rect x="0" y="39" width="1" height="2" fill="rgb(81,81,81)"/><rect x="1" y="39" width="1" height="2" fill="rgb(73,73,73)"/><rect x="46" y="41" width="1" height="2" fill="rgb(73,73,73)"/><rect x="47" y="41" width="1" height="2" fill="rgb(81,81,81)"/><rect x="0" y="42" width="1" height="2" fill="rgb(81,81,81)"/><rect x="1" y="42" width="1" height="2" fill="rgb(73,73,73)"/><rect x="46" y="44" width="1" height="2" fill="rgb(73,73,73)"/><rect x="47" y="44" width="1" height="2" fill="rgb(81,81,81)"/><rect x="0" y="45" width="1" height="2" fill="rgb(81,81,81)"/><rect x="1" y="45" width="1" height="2" fill="rgb(73,73,73)"/><rect x="46" y="47" width="1" height="2" fill="rgb(73,73,73)"/><rect x="47" y="47" width="1" height="2" fill="rgb(81,81,81)"/><rect x="0" y="48" width="1" height="2" fill="rgb(81,81,81)"/><rect x="1" y="48" width="1" height="2" fill="rgb(73,73,73)"/><rect x="46" y="50" width="1" height="2" fill="rgb(73,73,73)"/><rect x="47" y="50" width="1" height="2" fill="rgb(81,81,81)"/><rect x="0" y="51" width="1" height="2" fill="rgb(81,81,81)"/><rect x="1" y="51" width="1" height="2" fill="rgb(73,73,73)"/><rect x="46" y="53" width="1" height="2" fill="rgb(73,73,73)"/><rect x="47" y="53" width="1" height="2" fill="rgb(81,81,81)"/><rect x="0" y="54" width="1" height="2" fill="rgb(81,81,81)"/><rect x="1" y="54" width="1" height="2" fill="rgb(73,73,73)"/><rect x="46" y="56" width="1" height="2" fill="rgb(73,73,73)"/><rect x="47" y="56" width="1" height="2" fill="rgb(81,81,81)"/><rect x="0" y="57" width="1" height="2" fill="rgb(81,81,81)"/><rect x="1" y="57" width="1" height="2" fill="rgb(73,73,73)"/><rect x="46" y="59" width="1" height="2" fill="rgb(73,73,73)"/><rect x="47" y="59" width="1" height="2" fill="rgb(81,81,81)"/><rect x="0" y="60" width="1" height="2" fill="rgb(81,81,81)"/><rect x="1" y="60" width="1" height="2" fill="rgb(73,73,73)"/><rect x="0" y="62" width="2" height="1" fill="rgb(73,73,73)"/><rect x="3" y="62" width="2" height="1" fill="rgb(73,73,73)"/><rect x="6" y="62" width="2" height="1" fill="rgb(73,73,73)"/><rect x="9" y="62" width="2" height="1" fill="rgb(73,73,73)"/><rect x="12" y="62" width="2" height="1" fill="rgb(73,73,73)"/><rect x="15" y="62" width="2" height="1" fill="rgb(73,73,73)"/><rect x="18" y="62" width="2" height="1" fill="rgb(73,73,73)"/><rect x="21" y="62" width="2" height="1" fill="rgb(73,73,73)"/><rect x="24" y="62" width="2" height="1" fill="rgb(73,73,73)"/><rect x="27" y="62" width="2" height="1" fill="rgb(73,73,73)"/><rect x="30" y="62" width="2" height="1" fill="rgb(73,73,73)"/><rect x="33" y="62" width="2" height="1" fill="rgb(73,73,73)"/><rect x="36" y="62" width="2" height="1" fill="rgb(73,73,73)"/><rect x="39" y="62" width="2" height="1" fill="rgb(73,73,73)"/><rect x="42" y="62" width="2" height="1" fill="rgb(73,73,73)"/><rect x="45" y="62" width="2" height="1" fill="rgb(73,73,73)"/><rect x="47" y="62" width="1" height="1" fill="rgb(81,81,81)"/><rect x="0" y="63" width="2" height="1" fill="rgb(81,81,81)"/><rect x="3" y="63" width="2" height="1" fill="rgb(81,81,81)"/><rect x="6" y="63" width="2" height="1" fill="rgb(81,81,81)"/><rect x="9" y="63" width="2" height="1" fill="rgb(81,81,81)"/><rect x="12" y="63" width="2" height="1" fill="rgb(81,81,81)"/><rect x="15" y="63" width="2" height="1" fill="rgb(81,81,81)"/><rect x="18" y="63" width="2" height="1" fill="rgb(81,81,81)"/><rect x="21" y="63" width="2" height="1" fill="rgb(81,81,81)"/><rect x="24" y="63" width="2" height="1" fill="rgb(81,81,81)"/><rect x="27" y="63" width="2" height="1" fill="rgb(81,81,81)"/><rect x="30" y="63" width="2" height="1" fill="rgb(81,81,81)"/><rect x="33" y="63" width="2" height="1" fill="rgb(81,81,81)"/><rect x="36" y="63" width="2" height="1" fill="rgb(81,81,81)"/><rect x="39" y="63" width="2" height="1" fill="rgb(81,81,81)"/><rect x="42" y="63" width="2" height="1" fill="rgb(81,81,81)"/><rect x="45" y="63" width="3" height="1" fill="rgb(81,81,81)"/></svg>