<svg xmlns="http://www.w3.org/2000/svg" width="92" height="96" viewBox="0 0 92 96"><rect x="2" y="2" width="1" height="1" fill="rgb(165,165,165)"/><rect x="3" y="2" width="86" height="1" fill="rgb(231,231,231)"/><rect x="89" y="2" width="1" height="1" fill="rgb(165,165,165)"/><rect x="1" y="3" width="1" height="1" fill="rgb(165,165,165)"/><rect x="2" y="3" width="1" height="1" fill="rgb(231,231,231)"/><rect x="3" y="3" width="1" height="1" fill="rgb(98,98,98)"/><rect x="88" y="3" width="1" height="1" fill="rgb(98,98,98)"/><rect x="89" y="3" width="1" height="1" fill="rgb(231,231,231)"/><rect x="90" y="3" width="1" height="1" fill="rgb(165,165,165)"/><rect x="2" y="4" width="1" height="1" fill="rgb(98,98,98)"/><rect x="89" y="4" width="1" height="1" fill="rgb(98,98,98)"/><rect x="22" y="6" width="1" height="1" fill="rgb(165,165,165)"/><rect x="23" y="6" width="46" height="1" fill="rgb(231,231,231)"/><rect x="69" y="6" width="1" height="1" fill="rgb(165,165,165)"/><rect x="11" y="31" width="3" height="1" fill="rgb(98,98,98)"/><rect x="78" y="31" width="3" height="1" fill="rgb(98,98,98)"/><rect x="10" y="32" width="1" height="1" fill="rgb(165,165,165)"/><rect x="11" y="32" width="3" height="1" fill="rgb(231,231,231)"/><rect x="14" y="32" width="1" height="1" fill="rgb(165,165,165)"/><rect x="77" y="32" width="1" height="1" fill="rgb(165,165,165)"/><rect x="78" y="32" width="3" height="1" fill="rgb(231,231,231)"/><rect x="81" y="32" width="1" height="1" fill="rgb(165,165,165)"/><rect x="11" y="33" width="3" height="1" fill="rgb(98,98,98)"/><rect x="78" y="33" width="3" height="1" fill="rgb(98,98,98)"/><rect x="22" y="7" width="1" height="34" fill="rgb(231,231,231)"/><rect x="69" y="7" width="1" height="34" fill="rgb(231,231,231)"/><rect x="22" y="41" width="1" height="1" fill="rgb(165,165,165)"/><rect x="23" y="41" width="46" height="1" fill="rgb(231,231,231)"/><rect x="69" y="41" width="1" height="1" fill="rgb(165,165,165)"/><rect x="1" y="4" width="1" height="40" fill="rgb(231,231,231)"/><rect x="90" y="4" width="1" height="40" fill="rgb(231,231,231)"/><rect x="1" y="44" width="90" height="1" fill="rgb(231,231,231)"/><rect x="44" y="46" width="1" height="1" fill="rgb(98,98,98)"/><rect x="45" y="46" width="2" height="1" fill="rgb(165,165,165)"/><rect x="47" y="46" width="1" height="1" fill="rgb(98,98,98)"/><rect x="44" y="47" width="1" height="1" fill="rgb(165,165,165)"/><rect x="45" y="47" width="2" height="1" fill="rgb(231,231,231)"/><rect x="47" y="47" width="1" height="1" fill="rgb(165,165,165)"/><rect x="56" y="47" width="1" height="1" fill="rgb(231,231,231)"/><rect x="44" y="48" width="1" height="1" fill="rgb(98,98,98)"/><rect x="45" y="48" width="2" height="1" fill="rgb(165,165,165)"/><rect x="47" y="48" width="1" height="1" fill="rgb(98,98,98)"/><rect x="1" y="45" width="1" height="5" fill="rgb(231,231,231)"/><rect x="13" y="45" width="1" height="5" fill="rgb(231,231,231)"/><rect x="78" y="45" width="1" height="5" fill="rgb(231,231,231)"/><rect x="90" y="45" width="1" height="5" fill="rgb(231,231,231)"/><rect x="1" y="50" width="90" height="1" fill="rgb(231,231,231)"/><rect x="22" y="54" width="1" height="1" fill="rgb(165,165,165)"/><rect x="23" y="54" width="46" height="1" fill="rgb(231,231,231)"/><rect x="69" y="54" width="1" height="1" fill="rgb(165,165,165)"/><rect x="79" y="59" width="1" height="1" fill="rgb(165,165,165)"/><rect x="80" y="59" width="1" height="1" fill="rgb(231,231,231)"/><rect x="81" y="59" width="1" height="1" fill="rgb(165,165,165)"/><rect x="78" y="60" width="1" height="1" fill="rgb(165,165,165)"/><rect x="79" y="60" width="1" height="1" fill="rgb(98,98,98)"/><rect x="81" y="60" width="1" height="1" fill="rgb(98,98,98)"/><rect x="82" y="60" width="1" height="1" fill="rgb(165,165,165)"/><rect x="10" y="61" width="1" height="1" fill="rgb(165,165,165)"/><rect x="11" y="61" width="3" height="1" fill="rgb(231,231,231)"/><rect x="14" y="61" width="1" height="1" fill="rgb(165,165,165)"/><rect x="78" y="61" width="1" height="1" fill="rgb(231,231,231)"/><rect x="82" y="61" width="1" height="1" fill="rgb(231,231,231)"/><rect x="78" y="62" width="1" height="1" fill="rgb(165,165,165)"/><rect x="79" y="62" width="1" height="1" fill="rgb(98,98,98)"/><rect x="81" y="62" width="1" height="1" fill="rgb(98,98,98)"/><rect x="82" y="62" width="1" height="1" fill="rgb(165,165,165)"/><rect x="79" y="63" width="1" height="1" fill="rgb(165,165,165)"/><rect x="80" y="63" width="1" height="1" fill="rgb(231,231,231)"/><rect x="81" y="63" width="1" height="1" fill="rgb(165,165,165)"/><rect x="10" y="62" width="1" height="3" fill="rgb(231,231,231)"/><rect x="14" y="62" width="1" height="3" fill="rgb(231,231,231)"/><rect x="74" y="64" width="1" height="1" fill="rgb(165,165,165)"/><rect x="75" y="64" width="1" height="1" fill="rgb(231,231,231)"/><rect x="76" y="64" width="1" height="1" fill="rgb(165,165,165)"/><rect x="84" y="64" width="1" height="1" fill="rgb(165,165,165)"/><rect x="85" y="64" width="1" height="1" fill="rgb(231,231,231)"/><rect x="86" y="64" width="1" height="1" fill="rgb(165,165,165)"/><rect x="6" y="65" width="1" height="1" fill="rgb(165,165,165)"/><rect x="7" y="65" width="4" height="1" fill="rgb(231,231,231)"/><rect x="14" y="65" width="4" height="1" fill="rgb(231,231,231)"/><rect x="18" y="65" width="1" height="1" fill="rgb(165,165,165)"/><rect x="73" y="65" width="1" height="1" fill="rgb(165,165,165)"/><rect x="74" y="65" width="1" height="1" fill="rgb(98,98,98)"/><rect x="76" y="65" width="1" height="1" fill="rgb(98,98,98)"/><rect x="77" y="65" width="1" height="1" fill="rgb(165,165,165)"/><rect x="83" y="65" width="1" height="1" fill="rgb(165,165,165)"/><rect x="84" y="65" width="1" height="1" fill="rgb(98,98,98)"/><rect x="86" y="65" width="1" height="1" fill="rgb(98,98,98)"/><rect x="87" y="65" width="1" height="1" fill="rgb(165,165,165)"/><rect x="73" y="66" width="1" height="1" fill="rgb(231,231,231)"/><rect x="77" y="66" width="1" height="1" fill="rgb(231,231,231)"/><rect x="83" y="66" width="1" height="1" fill="rgb(231,231,231)"/><rect x="87" y="66" width="1" height="1" fill="rgb(231,231,231)"/><rect x="73" y="67" width="1" height="1" fill="rgb(165,165,165)"/><rect x="74" y="67" width="1" height="1" fill="rgb(98,98,98)"/><rect x="76" y="67" width="1" height="1" fill="rgb(98,98,98)"/><rect x="77" y="67" width="1" height="1" fill="rgb(165,165,165)"/><rect x="83" y="67" width="1" height="1" fill="rgb(165,165,165)"/><rect x="84" y="67" width="1" height="1" fill="rgb(98,98,98)"/><rect x="86" y="67" width="1" height="1" fill="rgb(98,98,98)"/><rect x="87" y="67" width="1" height="1" fill="rgb(165,165,165)"/><rect x="6" y="66" width="1" height="3" fill="rgb(231,231,231)"/><rect x="18" y="66" width="1" height="3" fill="rgb(231,231,231)"/><rect x="74" y="68" width="1" height="1" fill="rgb(165,165,165)"/><rect x="75" y="68" width="1" height="1" fill="rgb(231,231,231)"/><rect x="76" y="68" width="1" height="1" fill="rgb(165,165,165)"/><rect x="84" y="68" width="1" height="1" fill="rgb(165,165,165)"/><rect x="85" y="68" width="1" height="1" fill="rgb(231,231,231)"/><rect x="86" y="68" width="1" height="1" fill="rgb(165,165,165)"/><rect x="6" y="69" width="1" height="1" fill="rgb(165,165,165)"/><rect x="7" y="69" width="4" height="1" fill="rgb(231,231,231)"/><rect x="14" y="69" width="4" height="1" fill="rgb(231,231,231)"/><rect x="18" y="69" width="1" height="1" fill="rgb(165,165,165)"/><rect x="79" y="69" width="1" height="1" fill="rgb(165,165,165)"/><rect x="80" y="69" width="1" height="1" fill="rgb(231,231,231)"/><rect x="81" y="69" width="1" height="1" fill="rgb(165,165,165)"/><rect x="78" y="70" width="1" height="1" fill="rgb(165,165,165)"/><rect x="79" y="70" width="1" height="1" fill="rgb(98,98,98)"/><rect x="81" y="70" width="1" height="1" fill="rgb(98,98,98)"/><rect x="82" y="70" width="1" height="1" fill="rgb(165,165,165)"/><rect x="78" y="71" width="1" height="1" fill="rgb(231,231,231)"/><rect x="82" y="71" width="1" height="1" fill="rgb(231,231,231)"/><rect x="10" y="70" width="1" height="3" fill="rgb(231,231,231)"/><rect x="14" y="70" width="1" height="3" fill="rgb(231,231,231)"/><rect x="78" y="72" width="1" height="1" fill="rgb(165,165,165)"/><rect x="79" y="72" width="1" height="1" fill="rgb(98,98,98)"/><rect x="81" y="72" width="1" height="1" fill="rgb(98,98,98)"/><rect x="82" y="72" width="1" height="1" fill="rgb(165,165,165)"/><rect x="10" y="73" width="1" height="1" fill="rgb(165,165,165)"/><rect x="11" y="73" width="3" height="1" fill="rgb(231,231,231)"/><rect x="14" y="73" width="1" height="1" fill="rgb(165,165,165)"/><rect x="79" y="73" width="1" height="1" fill="rgb(165,165,165)"/><rect x="80" y="73" width="1" height="1" fill="rgb(231,231,231)"/><rect x="81" y="73" width="1" height="1" fill="rgb(165,165,165)"/><rect x="73" y="80" width="1" height="1" fill="rgb(98,98,98)"/><rect x="74" y="80" width="1" height="1" fill="rgb(165,165,165)"/><rect x="75" y="80" width="1" height="1" fill="rgb(98,98,98)"/><rect x="73" y="81" width="1" height="1" fill="rgb(165,165,165)"/><rect x="75" y="81" width="1" height="1" fill="rgb(165,165,165)"/><rect x="73" y="82" width="1" height="1" fill="rgb(98,98,98)"/><rect x="74" y="82" width="1" height="1" fill="rgb(165,165,165)"/><rect x="75" y="82" width="1" height="1" fill="rgb(98,98,98)"/><rect x="17" y="85" width="1" height="1" fill="rgb(98,98,98)"/><rect x="18" y="85" width="1" height="1" fill="rgb(165,165,165)"/><rect x="19" y="85" width="1" height="1" fill="rgb(98,98,98)"/><rect x="73" y="85" width="1" height="1" fill="rgb(98,98,98)"/><rect x="74" y="85" width="1" height="1" fill="rgb(165,165,165)"/><rect x="75" y="85" width="1" height="1" fill="rgb(98,98,98)"/><rect x="17" y="86" width="1" height="1" fill="rgb(165,165,165)"/><rect x="19" y="86" width="1" height="1" fill="rgb(165,165,165)"/><rect x="73" y="86" width="1" height="1" fill="rgb(165,165,165)"/><rect x="75" y="86" width="1" height="1" fill="rgb(165,165,165)"/><rect x="17" y="87" width="1" height="1" fill="rgb(98,98,98)"/><rect x="18" y="87" width="1" height="1" fill="rgb(165,165,165)"/><rect x="19" y="87" width="1" height="1" fill="rgb(98,98,98)"/><rect x="73" y="87" width="1" height="1" fill="rgb(98,98,98)"/><rect x="74" y="87" width="1" height="1" fill="rgb(165,165,165)"/><rect x="75" y="87" width="1" height="1" fill="rgb(98,98,98)"/><rect x="22" y="55" width="1" height="34" fill="rgb(231,231,231)"/><rect x="69" y="55" width="1" height="34" fill="rgb(231,231,231)"/><rect x="22" y="89" width="1" height="1" fill="rgb(165,165,165)"/><rect x="23" y="89" width="46" height="1" fill="rgb(231,231,231)"/><rect x="69" y="89" width="1" height="1" fill="rgb(165,165,165)"/><rect x="1" y="51" width="1" height="40" fill="rgb(231,231,231)"/><rect x="90" y="51" width="1" height="40" fill="rgb(231,231,231)"/><rect x="2" y="90" width="1" height="1" fill="rgb(98,98,98)"/><rect x="89" y="90" width="1" height="1" fill="rgb(98,98,98)"/><rect x="1" y="91" width="1" height="1" fill="rgb(165,165,165)"/><rect x="2" y="91" width="1" height="1" fill="rgb(231,231,231)"/><rect x="3" y="91" width="1" height="1" fill="rgb(98,98,98)"/><rect x="88" y="91" width="1" height="1" fill="rgb(98,98,98)"/><rect x="89" y="91" width="1" height="1" fill="rgb(231,231,231)"/><rect x="90" y="91" width="1" height="1" fill="rgb(165,165,165)"/><rect x="2" y="92" width="1" height="1" fill="rgb(165,165,165)"/><rect x="3" y="92" width="86" height="1" fill="rgb(231,231,231)"/><rect x="89" y="92" width="1" height="1" fill="rgb(165,165,165)"/></svg>