<svg xmlns="http://www.w3.org/2000/svg" width="32" height="66" viewBox="0 0 32 66"><defs><linearGradient id="g0" x1="2" y1="0" x2="20" y2="0" gradientUnits="userSpaceOnUse"><stop offset="2.778%" stop-color="rgb(251,89,113)"/><stop offset="8.333%" stop-color="rgb(251,97,121)"/><stop offset="13.889%" stop-color="rgb(251,89,113)"/><stop offset="19.444%" stop-color="rgb(251,97,121)"/><stop offset="25.000%" stop-color="rgb(251,89,113)"/><stop offset="30.556%" stop-color="rgb(251,97,121)"/><stop offset="36.111%" stop-color="rgb(251,89,113)"/><stop offset="41.667%" stop-color="rgb(251,97,121)"/><stop offset="47.222%" stop-color="rgb(251,89,113)"/><stop offset="52.778%" stop-color="rgb(251,97,121)"/><stop offset="58.333%" stop-color="rgb(251,89,113)"/><stop offset="63.889%" stop-color="rgb(251,97,121)"/><stop offset="69.444%" stop-color="rgb(251,89,113)"/><stop offset="75.000%" stop-color="rgb(251,97,121)"/><stop offset="80.556%" stop-color="rgb(251,89,113)"/><stop offset="86.111%" stop-color="rgb(251,97,121)"/><stop offset="91.667%" stop-color="rgb(251,89,113)"/><stop offset="97.222%" stop-color="rgb(251,97,121)"/></linearGradient><linearGradient id="g1" x1="2" y1="0" x2="20" y2="0" gradientUnits="userSpaceOnUse"><stop offset="2.778%" stop-color="rgb(251,89,113)"/><stop offset="8.333%" stop-color="rgb(251,97,121)"/><stop offset="13.889%" stop-color="rgb(251,89,113)"/><stop offset="19.444%" stop-color="rgb(251,97,121)"/><stop offset="25.000%" stop-color="rgb(251,89,113)"/><stop offset="30.556%" stop-color="rgb(251,97,121)"/><stop offset="36.111%" stop-color="rgb(251,89,113)"/><stop offset="41.667%" stop-color="rgb(251,97,121)"/><stop offset="47.222%" stop-color="rgb(251,89,113)"/><stop offset="52.778%" stop-color="rgb(251,97,121)"/><stop offset="58.333%" stop-color="rgb(251,89,113)"/><stop offset="63.889%" stop-color="rgb(251,97,121)"/><stop offset="69.444%" stop-color="rgb(251,89,113)"/><stop offset="75.000%" stop-color="rgb(251,97,121)"/><stop offset="80.556%" stop-color="rgb(251,89,113)"/><stop offset="86.111%" stop-color="rgb(251,97,121)"/><stop offset="91.667%" stop-color="rgb(251,89,113)"/><stop offset="97.222%" stop-color="rgb(251,97,121)"/></linearGradient><linearGradient id="g2" x1="14" y1="0" x2="20" y2="0" gradientUnits="userSpaceOnUse"><stop offset="8.333%" stop-color="rgb(251,56,81)"/><stop offset="25.000%" stop-color="rgb(251,73,89)"/><stop offset="41.667%" stop-color="rgb(251,89,113)"/><stop offset="58.333%" stop-color="rgb(251,73,89)"/><stop offset="75.000%" stop-color="rgb(251,89,113)"/><stop offset="91.667%" stop-color="rgb(251,73,89)"/></linearGradient><linearGradient id="g3" x1="10" y1="0" x2="20" y2="0" gradientUnits="userSpaceOnUse"><stop offset="5.000%" stop-color="rgb(251,56,81)"/><stop offset="15.000%" stop-color="rgb(251,73,89)"/><stop offset="25.000%" stop-color="rgb(251,56,81)"/><stop offset="35.000%" stop-color="rgb(251,73,89)"/><stop offset="45.000%" stop-color="rgb(251,56,81)"/><stop offset="55.000%" stop-color="rgb(251,73,89)"/><stop offset="65.000%" stop-color="rgb(251,56,81)"/><stop offset="75.000%" stop-color="rgb(251,73,89)"/><stop offset="85.000%" stop-color="rgb(251,56,81)"/><stop offset="95.000%" stop-color="rgb(251,73,89)"/></linearGradient><linearGradient id="g4" x1="9" y1="0" x2="20" y2="0" gradientUnits="userSpaceOnUse"><stop offset="4.545%" stop-color="rgb(251,56,81)"/><stop offset="13.636%" stop-color="rgb(251,73,89)"/><stop offset="22.727%" stop-color="rgb(251,56,81)"/><stop offset="31.818%" stop-color="rgb(251,73,89)"/><stop offset="40.909%" stop-color="rgb(251,56,81)"/><stop offset="50.000%" stop-color="rgb(251,73,89)"/><stop offset="59.091%" stop-color="rgb(251,56,81)"/><stop offset="68.182%" stop-color="rgb(251,73,89)"/><stop offset="77.273%" stop-color="rgb(251,56,81)"/><stop offset="86.364%" stop-color="rgb(251,73,89)"/><stop offset="95.455%" stop-color="rgb(251,56,81)"/></linearGradient><linearGradient id="g5" x1="1" y1="0" x2="20" y2="0" gradientUnits="userSpaceOnUse"><stop offset="2.632%" stop-color="rgb(251,56,81)"/><stop offset="7.895%" stop-color="rgb(251,32,56)"/><stop offset="13.158%" stop-color="rgb(251,56,81)"/><stop offset="18.421%" stop-color="rgb(251,32,56)"/><stop offset="23.684%" stop-color="rgb(251,56,81)"/><stop offset="28.947%" stop-color="rgb(251,32,56)"/><stop offset="34.211%" stop-color="rgb(251,56,81)"/><stop offset="39.474%" stop-color="rgb(251,32,56)"/><stop offset="44.737%" stop-color="rgb(251,56,81)"/><stop offset="50.000%" stop-color="rgb(251,32,56)"/><stop offset="55.263%" stop-color="rgb(251,56,81)"/><stop offset="60.526%" stop-color="rgb(251,32,56)"/><stop offset="65.789%" stop-color="rgb(251,56,81)"/><stop offset="71.053%" stop-color="rgb(251,32,56)"/><stop offset="76.316%" stop-color="rgb(251,56,81)"/><stop offset="81.579%" stop-color="rgb(251,32,56)"/><stop offset="86.842%" stop-color="rgb(251,56,81)"/><stop offset="92.105%" stop-color="rgb(251,32,56)"/><stop offset="97.368%" stop-color="rgb(251,56,81)"/></linearGradient><linearGradient id="g6" x1="1" y1="0" x2="20" y2="0" gradientUnits="userSpaceOnUse"><stop offset="2.632%" stop-color="rgb(251,32,56)"/><stop offset="7.895%" stop-color="rgb(251,56,81)"/><stop offset="13.158%" stop-color="rgb(251,32,56)"/><stop offset="18.421%" stop-color="rgb(251,56,81)"/><stop offset="23.684%" stop-color="rgb(251,32,56)"/><stop offset="28.947%" stop-color="rgb(251,56,81)"/><stop offset="34.211%" stop-color="rgb(251,32,56)"/><stop offset="39.474%" stop-color="rgb(251,56,81)"/><stop offset="44.737%" stop-color="rgb(251,32,56)"/><stop offset="50.000%" stop-color="rgb(251,56,81)"/><stop offset="55.263%" stop-color="rgb(251,32,56)"/><stop offset="60.526%" stop-color="rgb(251,56,81)"/><stop offset="65.789%" stop-color="rgb(251,32,56)"/><stop offset="71.053%" stop-color="rgb(251,56,81)"/><stop offset="76.316%" stop-color="rgb(251,32,56)"/><stop offset="81.579%" stop-color="rgb(251,56,81)"/><stop offset="86.842%" stop-color="rgb(251,32,56)"/><stop offset="92.105%" stop-color="rgb(251,56,81)"/><stop offset="97.368%" stop-color="rgb(251,32,56)"/></linearGradient><linearGradient id="g7" x1="1" y1="0" x2="20" y2="0" gradientUnits="userSpaceOnUse"><stop offset="2.632%" stop-color="rgb(251,24,65)"/><stop offset="7.895%" stop-color="rgb(251,32,56)"/><stop offset="13.158%" stop-color="rgb(251,24,65)"/><stop offset="18.421%" stop-color="rgb(251,32,56)"/><stop offset="23.684%" stop-color="rgb(251,24,65)"/><stop offset="28.947%" stop-color="rgb(251,32,56)"/><stop offset="34.211%" stop-color="rgb(251,24,65)"/><stop offset="39.474%" stop-color="rgb(251,32,56)"/><stop offset="44.737%" stop-color="rgb(251,24,65)"/><stop offset="50.000%" stop-color="rgb(251,32,56)"/><stop offset="55.263%" stop-color="rgb(251,24,65)"/><stop offset="60.526%" stop-color="rgb(251,32,56)"/><stop offset="65.789%" stop-color="rgb(251,24,65)"/><stop offset="71.053%" stop-color="rgb(251,32,56)"/><stop offset="76.316%" stop-color="rgb(251,24,65)"/><stop offset="81.579%" stop-color="rgb(251,32,56)"/><stop offset="86.842%" stop-color="rgb(251,24,65)"/><stop offset="92.105%" stop-color="rgb(251,32,56)"/><stop offset="97.368%" stop-color="rgb(251,24,65)"/></linearGradient><linearGradient id="g8" x1="1" y1="0" x2="20" y2="0" gradientUnits="userSpaceOnUse"><stop offset="2.632%" stop-color="rgb(251,32,56)"/><stop offset="7.895%" stop-color="rgb(251,24,65)"/><stop offset="13.158%" stop-color="rgb(251,32,56)"/><stop offset="18.421%" stop-color="rgb(251,24,65)"/><stop offset="23.684%" stop-color="rgb(251,32,56)"/><stop offset="28.947%" stop-color="rgb(251,24,65)"/><stop offset="34.211%" stop-color="rgb(251,32,56)"/><stop offset="39.474%" stop-color="rgb(251,24,65)"/><stop offset="44.737%" stop-color="rgb(251,32,56)"/><stop offset="50.000%" stop-color="rgb(251,24,65)"/><stop offset="55.263%" stop-color="rgb(251,32,56)"/><stop offset="60.526%" stop-color="rgb(251,24,65)"/><stop offset="65.789%" stop-color="rgb(251,32,56)"/><stop offset="71.053%" stop-color="rgb(251,24,65)"/><stop offset="76.316%" stop-color="rgb(251,32,56)"/><stop offset="81.579%" stop-color="rgb(251,24,65)"/><stop offset="86.842%" stop-color="rgb(251,32,56)"/><stop offset="92.105%" stop-color="rgb(251,24,65)"/><stop offset="97.368%" stop-color="rgb(251,32,56)"/></linearGradient><linearGradient id="g9" x1="1" y1="0" x2="20" y2="0" gradientUnits="userSpaceOnUse"><stop offset="2.632%" stop-color="rgb(251,24,65)"/><stop offset="7.895%" stop-color="rgb(251,32,56)"/><stop offset="13.158%" stop-color="rgb(251,24,65)"/><stop offset="18.421%" stop-color="rgb(251,32,56)"/><stop offset="23.684%" stop-color="rgb(251,24,65)"/><stop offset="28.947%" stop-color="rgb(251,32,56)"/><stop offset="34.211%" stop-color="rgb(251,24,65)"/><stop offset="39.474%" stop-color="rgb(251,32,56)"/><stop offset="44.737%" stop-color="rgb(251,24,65)"/><stop offset="50.000%" stop-color="rgb(251,32,56)"/><stop offset="55.263%" stop-color="rgb(251,24,65)"/><stop offset="60.526%" stop-color="rgb(251,32,56)"/><stop offset="65.789%" stop-color="rgb(251,24,65)"/><stop offset="71.053%" stop-color="rgb(251,32,56)"/><stop offset="76.316%" stop-color="rgb(251,24,65)"/><stop offset="81.579%" stop-color="rgb(251,32,56)"/><stop offset="86.842%" stop-color="rgb(251,24,65)"/><stop offset="92.105%" stop-color="rgb(251,32,56)"/><stop offset="97.368%" stop-color="rgb(251,24,65)"/></linearGradient><linearGradient id="g10" x1="1" y1="0" x2="20" y2="0" gradientUnits="userSpaceOnUse"><stop offset="2.632%" stop-color="rgb(251,32,56)"/><stop offset="7.895%" stop-color="rgb(251,24,65)"/><stop offset="13.158%" stop-color="rgb(251,32,56)"/><stop offset="18.421%" stop-color="rgb(251,24,65)"/><stop offset="23.684%" stop-color="rgb(251,32,56)"/><stop offset="28.947%" stop-color="rgb(251,24,65)"/><stop offset="34.211%" stop-color="rgb(251,32,56)"/><stop offset="39.474%" stop-color="rgb(251,24,65)"/><stop offset="44.737%" stop-color="rgb(251,32,56)"/><stop offset="50.000%" stop-color="rgb(251,24,65)"/><stop offset="55.263%" stop-color="rgb(251,32,56)"/><stop offset="60.526%" stop-color="rgb(251,24,65)"/><stop offset="65.789%" stop-color="rgb(251,32,56)"/><stop offset="71.053%" stop-color="rgb(251,24,65)"/><stop offset="76.316%" stop-color="rgb(251,32,56)"/><stop offset="81.579%" stop-color="rgb(251,24,65)"/><stop offset="86.842%" stop-color="rgb(251,32,56)"/><stop offset="92.105%" stop-color="rgb(251,24,65)"/><stop offset="97.368%" stop-color="rgb(251,32,56)"/></linearGradient></defs><rect x="2" y="8" width="18" height="1" fill="url(#g0)"/><rect x="2" y="10" width="18" height="1" fill="url(#g1)"/><rect x="14" y="34" width="6" height="1" fill="url(#g2)"/><rect x="10" y="38" width="10" height="1" fill="url(#g3)"/><rect x="9" y="39" width="11" height="1" fill="url(#g4)"/><rect x="1" y="45" width="19" height="1" fill="url(#g5)"/><rect x="1" y="46" width="19" height="1" fill="url(#g6)"/><rect x="1" y="54" width="19" height="1" fill="url(#g7)"/><rect x="1" y="55" width="19" height="1" fill="url(#g8)"/><rect x="1" y="56" width="19" height="1" fill="url(#g9)"/><rect x="1" y="57" width="19" height="1" fill="url(#g10)"/><rect x="2" y="0" width="17" height="1" fill="rgb(251,73,89)"/><rect x="1" y="1" width="2" height="1" fill="rgb(251,73,89)"/><rect x="3" y="1" width="15" height="1" fill="rgb(251,89,113)"/><rect x="18" y="1" width="2" height="1" fill="rgb(251,73,89)"/><rect x="0" y="2" width="2" height="1" fill="rgb(251,73,89)"/><rect x="2" y="2" width="17" height="1" fill="rgb(251,89,113)"/><rect x="19" y="2" width="2" height="1" fill="rgb(251,73,89)"/><rect x="0" y="3" width="1" height="1" fill="rgb(251,73,89)"/><rect x="1" y="3" width="19" height="1" fill="rgb(251,89,113)"/><rect x="21" y="4" width="1" height="1" fill="rgb(48,48,48)"/><rect x="0" y="4" width="20" height="4" fill="rgb(251,89,113)"/><rect x="0" y="8" width="2" height="1" fill="rgb(251,97,121)"/><rect x="0" y="9" width="20" height="1" fill="rgb(251,97,121)"/><rect x="0" y="10" width="2" height="1" fill="rgb(251,97,121)"/><rect x="1" y="11" width="19" height="9" fill="rgb(251,89,113)"/><rect x="6" y="20" width="1" height="1" fill="rgb(251,24,65)"/><rect x="7" y="20" width="13" height="1" fill="rgb(251,89,113)"/><rect x="6" y="21" width="1" height="1" fill="rgb(251,97,121)"/><rect x="7" y="21" width="1" height="1" fill="rgb(251,24,65)"/><rect x="8" y="21" width="12" height="1" fill="rgb(251,89,113)"/><rect x="6" y="22" width="1" height="1" fill="rgb(251,251,251)"/><rect x="7" y="22" width="1" height="1" fill="rgb(251,97,121)"/><rect x="8" y="22" width="1" height="1" fill="rgb(251,24,65)"/><rect x="9" y="22" width="11" height="1" fill="rgb(251,89,113)"/><rect x="6" y="23" width="2" height="1" fill="rgb(251,251,251)"/><rect x="8" y="23" width="1" height="1" fill="rgb(251,97,121)"/><rect x="9" y="23" width="1" height="1" fill="rgb(251,24,65)"/><rect x="10" y="23" width="10" height="1" fill="rgb(251,89,113)"/><rect x="6" y="24" width="3" height="1" fill="rgb(251,251,251)"/><rect x="9" y="24" width="1" height="1" fill="rgb(251,97,121)"/><rect x="10" y="24" width="1" height="1" fill="rgb(251,24,65)"/><rect x="11" y="24" width="9" height="1" fill="rgb(251,89,113)"/><rect x="6" y="25" width="4" height="1" fill="rgb(251,251,251)"/><rect x="10" y="25" width="1" height="1" fill="rgb(251,97,121)"/><rect x="11" y="25" width="1" height="1" fill="rgb(251,24,65)"/><rect x="12" y="25" width="8" height="1" fill="rgb(251,89,113)"/><rect x="6" y="26" width="5" height="1" fill="rgb(251,251,251)"/><rect x="11" y="26" width="1" height="1" fill="rgb(251,97,121)"/><rect x="12" y="26" width="1" height="1" fill="rgb(251,24,65)"/><rect x="13" y="26" width="7" height="1" fill="rgb(251,89,113)"/><rect x="6" y="27" width="6" height="1" fill="rgb(251,251,251)"/><rect x="12" y="27" width="1" height="1" fill="rgb(251,97,121)"/><rect x="13" y="27" width="1" height="1" fill="rgb(251,24,65)"/><rect x="14" y="27" width="6" height="1" fill="rgb(251,89,113)"/><rect x="6" y="28" width="7" height="1" fill="rgb(251,251,251)"/><rect x="13" y="28" width="1" height="1" fill="rgb(251,97,121)"/><rect x="14" y="28" width="1" height="1" fill="rgb(251,24,65)"/><rect x="15" y="28" width="5" height="1" fill="rgb(251,89,113)"/><rect x="6" y="29" width="8" height="1" fill="rgb(251,251,251)"/><rect x="14" y="29" width="1" height="1" fill="rgb(251,97,121)"/><rect x="15" y="29" width="1" height="1" fill="rgb(251,24,65)"/><rect x="16" y="29" width="4" height="1" fill="rgb(251,89,113)"/><rect x="6" y="30" width="9" height="1" fill="rgb(251,251,251)"/><rect x="15" y="30" width="1" height="1" fill="rgb(251,97,121)"/><rect x="16" y="30" width="1" height="1" fill="rgb(251,24,65)"/><rect x="17" y="30" width="3" height="1" fill="rgb(251,89,113)"/><rect x="1" y="20" width="5" height="12" fill="rgb(251,89,113)"/><rect x="16" y="31" width="1" height="1" fill="rgb(251,97,121)"/><rect x="17" y="31" width="1" height="1" fill="rgb(251,56,81)"/><rect x="18" y="31" width="2" height="1" fill="rgb(251,89,113)"/><rect x="0" y="11" width="1" height="22" fill="rgb(251,97,121)"/><rect x="6" y="31" width="10" height="2" fill="rgb(251,251,251)"/><rect x="1" y="32" width="1" height="1" fill="rgb(251,73,89)"/><rect x="2" y="32" width="1" height="1" fill="rgb(251,89,113)"/><rect x="3" y="32" width="1" height="1" fill="rgb(251,73,89)"/><rect x="4" y="32" width="1" height="1" fill="rgb(251,89,113)"/><rect x="5" y="32" width="1" height="1" fill="rgb(251,73,89)"/><rect x="16" y="32" width="1" height="1" fill="rgb(251,56,81)"/><rect x="17" y="32" width="1" height="1" fill="rgb(251,73,89)"/><rect x="18" y="32" width="1" height="1" fill="rgb(251,89,113)"/><rect x="19" y="32" width="1" height="1" fill="rgb(251,73,89)"/><rect x="0" y="33" width="2" height="1" fill="rgb(251,89,113)"/><rect x="2" y="33" width="1" height="1" fill="rgb(251,73,89)"/><rect x="3" y="33" width="1" height="1" fill="rgb(251,89,113)"/><rect x="4" y="33" width="1" height="1" fill="rgb(251,73,89)"/><rect x="5" y="33" width="1" height="1" fill="rgb(251,89,113)"/><rect x="6" y="33" width="9" height="1" fill="rgb(251,251,251)"/><rect x="15" y="33" width="1" height="1" fill="rgb(251,56,81)"/><rect x="16" y="33" width="1" height="1" fill="rgb(251,73,89)"/><rect x="17" y="33" width="1" height="1" fill="rgb(251,89,113)"/><rect x="18" y="33" width="1" height="1" fill="rgb(251,73,89)"/><rect x="19" y="33" width="1" height="1" fill="rgb(251,89,113)"/><rect x="1" y="34" width="1" height="1" fill="rgb(251,73,89)"/><rect x="2" y="34" width="1" height="1" fill="rgb(251,89,113)"/><rect x="3" y="34" width="1" height="1" fill="rgb(251,73,89)"/><rect x="4" y="34" width="1" height="1" fill="rgb(251,89,113)"/><rect x="5" y="34" width="1" height="1" fill="rgb(251,73,89)"/><rect x="6" y="34" width="8" height="1" fill="rgb(251,251,251)"/><rect x="6" y="35" width="7" height="1" fill="rgb(251,251,251)"/><rect x="13" y="35" width="1" height="1" fill="rgb(251,56,81)"/><rect x="14" y="35" width="6" height="1" fill="rgb(251,73,89)"/><rect x="6" y="36" width="6" height="1" fill="rgb(251,251,251)"/><rect x="12" y="36" width="1" height="1" fill="rgb(251,56,81)"/><rect x="13" y="36" width="7" height="1" fill="rgb(251,73,89)"/><rect x="1" y="35" width="5" height="3" fill="rgb(251,73,89)"/><rect x="6" y="37" width="5" height="1" fill="rgb(251,251,251)"/><rect x="11" y="37" width="1" height="1" fill="rgb(251,56,81)"/><rect x="12" y="37" width="8" height="1" fill="rgb(251,73,89)"/><rect x="1" y="38" width="1" height="1" fill="rgb(251,73,89)"/><rect x="2" y="38" width="1" height="1" fill="rgb(251,56,81)"/><rect x="3" y="38" width="1" height="1" fill="rgb(251,73,89)"/><rect x="4" y="38" width="1" height="1" fill="rgb(251,56,81)"/><rect x="5" y="38" width="1" height="1" fill="rgb(251,73,89)"/><rect x="6" y="38" width="4" height="1" fill="rgb(251,251,251)"/><rect x="1" y="39" width="1" height="1" fill="rgb(251,56,81)"/><rect x="2" y="39" width="1" height="1" fill="rgb(251,73,89)"/><rect x="3" y="39" width="1" height="1" fill="rgb(251,56,81)"/><rect x="4" y="39" width="1" height="1" fill="rgb(251,73,89)"/><rect x="5" y="39" width="1" height="1" fill="rgb(251,56,81)"/><rect x="6" y="39" width="3" height="1" fill="rgb(251,251,251)"/><rect x="6" y="40" width="2" height="1" fill="rgb(251,251,251)"/><rect x="8" y="40" width="12" height="1" fill="rgb(251,56,81)"/><rect x="1" y="40" width="5" height="2" fill="rgb(251,56,81)"/><rect x="6" y="41" width="1" height="1" fill="rgb(251,251,251)"/><rect x="7" y="41" width="13" height="1" fill="rgb(251,56,81)"/><rect x="1" y="42" width="19" height="3" fill="rgb(251,56,81)"/><rect x="1" y="47" width="19" height="7" fill="rgb(251,32,56)"/><rect x="1" y="58" width="19" height="2" fill="rgb(251,24,65)"/><rect x="0" y="34" width="1" height="27" fill="rgb(251,89,113)"/><rect x="1" y="60" width="1" height="1" fill="rgb(251,56,81)"/><rect x="20" y="3" width="1" height="59" fill="rgb(178,40,65)"/><rect x="21" y="5" width="1" height="57" fill="rgb(32,32,32)"/><rect x="2" y="60" width="18" height="2" fill="rgb(251,24,65)"/><rect x="0" y="61" width="1" height="1" fill="rgb(251,73,89)"/><rect x="1" y="61" width="1" height="1" fill="rgb(251,89,113)"/><rect x="22" y="5" width="1" height="58" fill="rgb(48,48,48)"/><rect x="1" y="62" width="1" height="1" fill="rgb(251,73,89)"/><rect x="2" y="62" width="1" height="1" fill="rgb(251,89,113)"/><rect x="3" y="62" width="16" height="1" fill="rgb(251,24,65)"/><rect x="19" y="62" width="1" height="1" fill="rgb(178,40,65)"/><rect x="20" y="62" width="2" height="1" fill="rgb(32,32,32)"/><rect x="2" y="63" width="1" height="1" fill="rgb(251,73,89)"/><rect x="3" y="63" width="16" height="1" fill="rgb(178,40,65)"/><rect x="19" y="63" width="2" height="1" fill="rgb(32,32,32)"/><rect x="21" y="63" width="1" height="1" fill="rgb(48,48,48)"/><rect x="4" y="64" width="1" height="1" fill="rgb(48,48,48)"/><rect x="5" y="64" width="15" height="1" fill="rgb(32,32,32)"/><rect x="20" y="64" width="1" height="1" fill="rgb(48,48,48)"/><rect x="5" y="65" width="15" height="1" fill="rgb(48,48,48)"/></svg>