<svg xmlns="http://www.w3.org/2000/svg" width="25" height="32" viewBox="0 0 25 32"><defs><linearGradient id="g0" x1="3" y1="0" x2="22" y2="0" gradientUnits="userSpaceOnUse"><stop offset="2.632%" stop-color="rgb(154,162,170)"/><stop offset="7.895%" stop-color="rgb(146,154,162)"/><stop offset="13.158%" stop-color="rgb(154,162,170)"/><stop offset="18.421%" stop-color="rgb(146,154,162)"/><stop offset="23.684%" stop-color="rgb(154,162,170)"/><stop offset="28.947%" stop-color="rgb(146,154,162)"/><stop offset="34.211%" stop-color="rgb(154,162,170)"/><stop offset="39.474%" stop-color="rgb(146,154,162)"/><stop offset="44.737%" stop-color="rgb(154,162,170)"/><stop offset="50.000%" stop-color="rgb(146,154,162)"/><stop offset="55.263%" stop-color="rgb(154,162,170)"/><stop offset="60.526%" stop-color="rgb(146,154,162)"/><stop offset="65.789%" stop-color="rgb(154,162,170)"/><stop offset="71.053%" stop-color="rgb(146,154,162)"/><stop offset="76.316%" stop-color="rgb(154,162,170)"/><stop offset="81.579%" stop-color="rgb(146,154,162)"/><stop offset="86.842%" stop-color="rgb(154,162,170)"/><stop offset="92.105%" stop-color="rgb(146,154,162)"/><stop offset="97.368%" stop-color="rgb(154,162,170)"/></linearGradient><linearGradient id="g1" x1="3" y1="0" x2="22" y2="0" gradientUnits="userSpaceOnUse"><stop offset="2.632%" stop-color="rgb(146,154,162)"/><stop offset="7.895%" stop-color="rgb(154,162,170)"/><stop offset="13.158%" stop-color="rgb(146,154,162)"/><stop offset="18.421%" stop-color="rgb(154,162,170)"/><stop offset="23.684%" stop-color="rgb(146,154,162)"/><stop offset="28.947%" stop-color="rgb(154,162,170)"/><stop offset="34.211%" stop-color="rgb(146,154,162)"/><stop offset="39.474%" stop-color="rgb(154,162,170)"/><stop offset="44.737%" stop-color="rgb(146,154,162)"/><stop offset="50.000%" stop-color="rgb(113,130,146)"/><stop offset="55.263%" stop-color="rgb(146,154,162)"/><stop offset="60.526%" stop-color="rgb(154,162,170)"/><stop offset="65.789%" stop-color="rgb(146,154,162)"/><stop offset="71.053%" stop-color="rgb(154,162,170)"/><stop offset="76.316%" stop-color="rgb(146,154,162)"/><stop offset="81.579%" stop-color="rgb(154,162,170)"/><stop offset="86.842%" stop-color="rgb(146,154,162)"/><stop offset="92.105%" stop-color="rgb(154,162,170)"/><stop offset="97.368%" stop-color="rgb(146,154,162)"/></linearGradient><linearGradient id="g2" x1="3" y1="0" x2="11" y2="0" gradientUnits="userSpaceOnUse"><stop offset="6.250%" stop-color="rgb(138,154,162)"/><stop offset="18.750%" stop-color="rgb(146,154,162)"/><stop offset="31.250%" stop-color="rgb(138,154,162)"/><stop offset="43.750%" stop-color="rgb(146,154,162)"/><stop offset="56.250%" stop-color="rgb(138,154,162)"/><stop offset="68.750%" stop-color="rgb(146,154,162)"/><stop offset="81.250%" stop-color="rgb(138,154,162)"/><stop offset="93.750%" stop-color="rgb(113,130,146)"/></linearGradient><linearGradient id="g3" x1="14" y1="0" x2="22" y2="0" gradientUnits="userSpaceOnUse"><stop offset="6.250%" stop-color="rgb(113,130,146)"/><stop offset="18.750%" stop-color="rgb(138,154,162)"/><stop offset="31.250%" stop-color="rgb(146,154,162)"/><stop offset="43.750%" stop-color="rgb(138,154,162)"/><stop offset="56.250%" stop-color="rgb(146,154,162)"/><stop offset="68.750%" stop-color="rgb(138,154,162)"/><stop offset="81.250%" stop-color="rgb(146,154,162)"/><stop offset="93.750%" stop-color="rgb(138,154,162)"/></linearGradient><linearGradient id="g4" x1="3" y1="0" x2="10" y2="0" gradientUnits="userSpaceOnUse"><stop offset="7.143%" stop-color="rgb(121,138,154)"/><stop offset="21.429%" stop-color="rgb(138,154,162)"/><stop offset="35.714%" stop-color="rgb(121,138,154)"/><stop offset="50.000%" stop-color="rgb(138,154,162)"/><stop offset="64.286%" stop-color="rgb(121,138,154)"/><stop offset="78.571%" stop-color="rgb(138,154,162)"/><stop offset="92.857%" stop-color="rgb(113,130,146)"/></linearGradient><linearGradient id="g5" x1="15" y1="0" x2="22" y2="0" gradientUnits="userSpaceOnUse"><stop offset="7.143%" stop-color="rgb(113,130,146)"/><stop offset="21.429%" stop-color="rgb(138,154,162)"/><stop offset="35.714%" stop-color="rgb(121,138,154)"/><stop offset="50.000%" stop-color="rgb(138,154,162)"/><stop offset="64.286%" stop-color="rgb(121,138,154)"/><stop offset="78.571%" stop-color="rgb(138,154,162)"/><stop offset="92.857%" stop-color="rgb(121,138,154)"/></linearGradient><linearGradient id="g6" x1="3" y1="0" x2="9" y2="0" gradientUnits="userSpaceOnUse"><stop offset="8.333%" stop-color="rgb(121,138,154)"/><stop offset="25.000%" stop-color="rgb(113,130,146)"/><stop offset="41.667%" stop-color="rgb(121,138,154)"/><stop offset="58.333%" stop-color="rgb(113,130,146)"/><stop offset="75.000%" stop-color="rgb(121,138,154)"/><stop offset="91.667%" stop-color="rgb(113,130,146)"/></linearGradient><linearGradient id="g7" x1="16" y1="0" x2="22" y2="0" gradientUnits="userSpaceOnUse"><stop offset="8.333%" stop-color="rgb(113,130,146)"/><stop offset="25.000%" stop-color="rgb(121,138,154)"/><stop offset="41.667%" stop-color="rgb(113,130,146)"/><stop offset="58.333%" stop-color="rgb(121,138,154)"/><stop offset="75.000%" stop-color="rgb(113,130,146)"/><stop offset="91.667%" stop-color="rgb(121,138,154)"/></linearGradient><linearGradient id="g8" x1="3" y1="0" x2="22" y2="0" gradientUnits="userSpaceOnUse"><stop offset="2.632%" stop-color="rgb(97,113,121)"/><stop offset="7.895%" stop-color="rgb(105,121,138)"/><stop offset="13.158%" stop-color="rgb(97,113,121)"/><stop offset="18.421%" stop-color="rgb(105,121,138)"/><stop offset="23.684%" stop-color="rgb(97,113,121)"/><stop offset="28.947%" stop-color="rgb(105,121,138)"/><stop offset="34.211%" stop-color="rgb(97,113,121)"/><stop offset="39.474%" stop-color="rgb(105,121,138)"/><stop offset="44.737%" stop-color="rgb(97,113,121)"/><stop offset="50.000%" stop-color="rgb(105,121,138)"/><stop offset="55.263%" stop-color="rgb(97,113,121)"/><stop offset="60.526%" stop-color="rgb(105,121,138)"/><stop offset="65.789%" stop-color="rgb(97,113,121)"/><stop offset="71.053%" stop-color="rgb(105,121,138)"/><stop offset="76.316%" stop-color="rgb(97,113,121)"/><stop offset="81.579%" stop-color="rgb(105,121,138)"/><stop offset="86.842%" stop-color="rgb(97,113,121)"/><stop offset="92.105%" stop-color="rgb(105,121,138)"/><stop offset="97.368%" stop-color="rgb(97,113,121)"/></linearGradient></defs><rect x="3" y="14" width="19" height="1" fill="url(#g0)"/><rect x="3" y="15" width="19" height="1" fill="url(#g1)"/><rect x="3" y="18" width="8" height="1" fill="url(#g2)"/><rect x="14" y="18" width="8" height="1" fill="url(#g3)"/><rect x="3" y="20" width="7" height="1" fill="url(#g4)"/><rect x="15" y="20" width="7" height="1" fill="url(#g5)"/><rect x="3" y="22" width="6" height="1" fill="url(#g6)"/><rect x="16" y="22" width="6" height="1" fill="url(#g7)"/><rect x="3" y="26" width="19" height="1" fill="url(#g8)"/><rect x="3" y="12" width="1" height="1" fill="rgb(81,81,89)"/><rect x="4" y="12" width="17" height="1" fill="rgb(154,162,170)"/><rect x="21" y="12" width="1" height="1" fill="rgb(81,81,89)"/><rect x="3" y="13" width="19" height="1" fill="rgb(154,162,170)"/><rect x="11" y="16" width="1" height="1" fill="rgb(113,130,146)"/><rect x="13" y="16" width="1" height="1" fill="rgb(113,130,146)"/><rect x="3" y="16" width="8" height="2" fill="rgb(146,154,162)"/><rect x="12" y="16" width="1" height="2" fill="rgb(211,211,211)"/><rect x="14" y="16" width="8" height="2" fill="rgb(146,154,162)"/><rect x="11" y="17" width="1" height="1" fill="rgb(154,162,170)"/><rect x="13" y="17" width="1" height="1" fill="rgb(154,162,170)"/><rect x="11" y="18" width="3" height="2" fill="rgb(211,211,211)"/><rect x="3" y="19" width="7" height="1" fill="rgb(138,154,162)"/><rect x="10" y="19" width="1" height="1" fill="rgb(154,162,170)"/><rect x="14" y="19" width="1" height="1" fill="rgb(154,162,170)"/><rect x="15" y="19" width="7" height="1" fill="rgb(138,154,162)"/><rect x="10" y="20" width="5" height="2" fill="rgb(211,211,211)"/><rect x="3" y="21" width="6" height="1" fill="rgb(121,138,154)"/><rect x="9" y="21" width="1" height="1" fill="rgb(154,162,170)"/><rect x="15" y="21" width="1" height="1" fill="rgb(154,162,170)"/><rect x="16" y="21" width="6" height="1" fill="rgb(121,138,154)"/><rect x="9" y="22" width="7" height="2" fill="rgb(211,211,211)"/><rect x="3" y="23" width="5" height="1" fill="rgb(113,130,146)"/><rect x="8" y="23" width="1" height="1" fill="rgb(154,162,170)"/><rect x="16" y="23" width="1" height="1" fill="rgb(154,162,170)"/><rect x="17" y="23" width="5" height="1" fill="rgb(113,130,146)"/><rect x="3" y="24" width="1" height="1" fill="rgb(113,130,146)"/><rect x="4" y="24" width="1" height="1" fill="rgb(105,121,138)"/><rect x="5" y="24" width="1" height="1" fill="rgb(113,130,146)"/><rect x="6" y="24" width="1" height="1" fill="rgb(105,121,138)"/><rect x="7" y="24" width="1" height="1" fill="rgb(113,130,146)"/><rect x="8" y="24" width="9" height="1" fill="rgb(211,211,211)"/><rect x="17" y="24" width="1" height="1" fill="rgb(113,130,146)"/><rect x="18" y="24" width="1" height="1" fill="rgb(105,121,138)"/><rect x="19" y="24" width="1" height="1" fill="rgb(113,130,146)"/><rect x="20" y="24" width="1" height="1" fill="rgb(105,121,138)"/><rect x="21" y="24" width="1" height="1" fill="rgb(113,130,146)"/><rect x="3" y="25" width="19" height="1" fill="rgb(105,121,138)"/><rect x="3" y="27" width="1" height="1" fill="rgb(81,81,89)"/><rect x="4" y="27" width="17" height="1" fill="rgb(97,113,121)"/><rect x="21" y="27" width="1" height="1" fill="rgb(81,81,89)"/><rect x="3" y="28" width="1" height="1" fill="rgb(56,65,73)"/><rect x="4" y="28" width="17" height="1" fill="rgb(81,81,89)"/><rect x="21" y="28" width="1" height="1" fill="rgb(56,65,73)"/><rect x="3" y="29" width="19" height="1" fill="rgb(48,48,48)"/></svg>