<svg xmlns="http://www.w3.org/2000/svg" width="68" height="64" viewBox="0 0 68 64"><rect x="3" y="0" width="1" height="1" fill="rgb(63,63,63)"/><rect x="4" y="0" width="60" height="1" fill="rgb(81,81,81)"/><rect x="64" y="0" width="1" height="1" fill="rgb(63,63,63)"/><rect x="3" y="1" width="62" height="1" fill="rgb(81,81,81)"/><rect x="17" y="2" width="1" height="1" fill="rgb(73,73,73)"/><rect x="18" y="2" width="32" height="1" fill="rgb(63,63,63)"/><rect x="50" y="2" width="1" height="1" fill="rgb(73,73,73)"/><rect x="17" y="3" width="34" height="23" fill="rgb(63,63,63)"/><rect x="3" y="2" width="14" height="25" fill="rgb(81,81,81)"/><rect x="51" y="2" width="14" height="25" fill="rgb(81,81,81)"/><rect x="17" y="26" width="1" height="1" fill="rgb(73,73,73)"/><rect x="18" y="26" width="32" height="1" fill="rgb(63,63,63)"/><rect x="50" y="26" width="1" height="1" fill="rgb(73,73,73)"/><rect x="3" y="27" width="62" height="2" fill="rgb(81,81,81)"/><rect x="3" y="29" width="62" height="1" fill="rgb(63,63,63)"/><rect x="3" y="30" width="62" height="1" fill="rgb(81,81,81)"/><rect x="3" y="31" width="29" height="2" fill="rgb(81,81,81)"/><rect x="32" y="31" width="1" height="2" fill="rgb(73,73,73)"/><rect x="33" y="31" width="2" height="2" fill="rgb(63,63,63)"/><rect x="35" y="31" width="1" height="2" fill="rgb(73,73,73)"/><rect x="36" y="31" width="29" height="2" fill="rgb(81,81,81)"/><rect x="3" y="33" width="62" height="1" fill="rgb(81,81,81)"/><rect x="3" y="34" width="62" height="1" fill="rgb(63,63,63)"/><rect x="3" y="35" width="62" height="2" fill="rgb(81,81,81)"/><rect x="17" y="37" width="1" height="1" fill="rgb(73,73,73)"/><rect x="18" y="37" width="32" height="1" fill="rgb(63,63,63)"/><rect x="50" y="37" width="1" height="1" fill="rgb(73,73,73)"/><rect x="3" y="37" width="14" height="8" fill="rgb(81,81,81)"/><rect x="51" y="37" width="14" height="8" fill="rgb(81,81,81)"/><rect x="57" y="45" width="1" height="1" fill="rgb(73,73,73)"/><rect x="58" y="45" width="1" height="1" fill="rgb(63,63,63)"/><rect x="59" y="45" width="1" height="1" fill="rgb(73,73,73)"/><rect x="57" y="46" width="3" height="1" fill="rgb(63,63,63)"/><rect x="3" y="45" width="5" height="3" fill="rgb(81,81,81)"/><rect x="8" y="45" width="3" height="3" fill="rgb(63,63,63)"/><rect x="11" y="45" width="6" height="3" fill="rgb(81,81,81)"/><rect x="51" y="45" width="6" height="3" fill="rgb(81,81,81)"/><rect x="60" y="45" width="5" height="3" fill="rgb(81,81,81)"/><rect x="57" y="47" width="1" height="1" fill="rgb(73,73,73)"/><rect x="58" y="47" width="1" height="1" fill="rgb(63,63,63)"/><rect x="59" y="47" width="1" height="1" fill="rgb(73,73,73)"/><rect x="54" y="48" width="1" height="1" fill="rgb(73,73,73)"/><rect x="55" y="48" width="1" height="1" fill="rgb(63,63,63)"/><rect x="56" y="48" width="1" height="1" fill="rgb(73,73,73)"/><rect x="60" y="48" width="1" height="1" fill="rgb(73,73,73)"/><rect x="61" y="48" width="1" height="1" fill="rgb(63,63,63)"/><rect x="62" y="48" width="1" height="1" fill="rgb(73,73,73)"/><rect x="54" y="49" width="3" height="1" fill="rgb(63,63,63)"/><rect x="60" y="49" width="3" height="1" fill="rgb(63,63,63)"/><rect x="3" y="48" width="2" height="3" fill="rgb(81,81,81)"/><rect x="5" y="48" width="9" height="3" fill="rgb(63,63,63)"/><rect x="14" y="48" width="3" height="3" fill="rgb(81,81,81)"/><rect x="51" y="48" width="3" height="3" fill="rgb(81,81,81)"/><rect x="57" y="48" width="3" height="3" fill="rgb(81,81,81)"/><rect x="63" y="48" width="2" height="3" fill="rgb(81,81,81)"/><rect x="54" y="50" width="1" height="1" fill="rgb(73,73,73)"/><rect x="55" y="50" width="1" height="1" fill="rgb(63,63,63)"/><rect x="56" y="50" width="1" height="1" fill="rgb(73,73,73)"/><rect x="60" y="50" width="1" height="1" fill="rgb(73,73,73)"/><rect x="61" y="50" width="1" height="1" fill="rgb(63,63,63)"/><rect x="62" y="50" width="1" height="1" fill="rgb(73,73,73)"/><rect x="57" y="51" width="1" height="1" fill="rgb(73,73,73)"/><rect x="58" y="51" width="1" height="1" fill="rgb(63,63,63)"/><rect x="59" y="51" width="1" height="1" fill="rgb(73,73,73)"/><rect x="57" y="52" width="3" height="1" fill="rgb(63,63,63)"/><rect x="3" y="51" width="5" height="3" fill="rgb(81,81,81)"/><rect x="8" y="51" width="3" height="3" fill="rgb(63,63,63)"/><rect x="11" y="51" width="6" height="3" fill="rgb(81,81,81)"/><rect x="51" y="51" width="6" height="3" fill="rgb(81,81,81)"/><rect x="60" y="51" width="5" height="3" fill="rgb(81,81,81)"/><rect x="57" y="53" width="1" height="1" fill="rgb(73,73,73)"/><rect x="58" y="53" width="1" height="1" fill="rgb(63,63,63)"/><rect x="59" y="53" width="1" height="1" fill="rgb(73,73,73)"/><rect x="17" y="38" width="34" height="23" fill="rgb(63,63,63)"/><rect x="3" y="54" width="14" height="8" fill="rgb(81,81,81)"/><rect x="51" y="54" width="14" height="8" fill="rgb(81,81,81)"/><rect x="17" y="61" width="1" height="1" fill="rgb(73,73,73)"/><rect x="18" y="61" width="32" height="1" fill="rgb(63,63,63)"/><rect x="50" y="61" width="1" height="1" fill="rgb(73,73,73)"/><rect x="3" y="62" width="62" height="1" fill="rgb(81,81,81)"/><rect x="3" y="63" width="1" height="1" fill="rgb(63,63,63)"/><rect x="4" y="63" width="60" height="1" fill="rgb(81,81,81)"/><rect x="64" y="63" width="1" height="1" fill="rgb(63,63,63)"/></svg>