<svg xmlns="http://www.w3.org/2000/svg" width="256" height="32" viewBox="0 0 256 32"><defs><pattern id="t" x="0" y="0" width="2" height="29" patternUnits="userSpaceOnUse"><rect x="0" y="3" width="2" height="2" fill="rgb(90,90,90)"/><rect x="0" y="5" width="1" height="1" fill="rgb(90,90,90)"/><rect x="1" y="5" width="1" height="1" fill="rgb(106,106,106)"/><rect x="0" y="6" width="2" height="1" fill="rgb(106,106,106)"/><rect x="0" y="7" width="1" height="1" fill="rgb(106,106,106)"/><rect x="1" y="7" width="1" height="1" fill="rgb(157,157,157)"/><rect x="0" y="8" width="2" height="2" fill="rgb(157,157,157)"/><rect x="0" y="10" width="1" height="1" fill="rgb(157,157,157)"/><rect x="1" y="10" width="1" height="1" fill="rgb(173,174,174)"/><rect x="0" y="11" width="2" height="2" fill="rgb(173,174,174)"/><rect x="0" y="13" width="1" height="1" fill="rgb(173,174,174)"/><rect x="1" y="13" width="1" height="1" fill="rgb(181,181,181)"/><rect x="0" y="14" width="2" height="2" fill="rgb(181,181,181)"/><rect x="0" y="16" width="1" height="1" fill="rgb(181,181,181)"/><rect x="1" y="16" width="1" height="1" fill="rgb(198,198,198)"/><rect x="0" y="17" width="2" height="7" fill="rgb(198,198,198)"/></pattern></defs><rect x="0" y="0" width="256" height="32" fill="url(#t)"/></svg>