<svg xmlns="http://www.w3.org/2000/svg" width="64" height="32" viewBox="0 0 64 32"><defs><pattern id="t" x="0" y="0" width="2" height="30" patternUnits="userSpaceOnUse"><rect x="0" y="3" width="2" height="2" fill="rgb(154,162,170)"/><rect x="0" y="5" width="1" height="1" fill="rgb(146,154,162)"/><rect x="1" y="5" width="1" height="1" fill="rgb(154,162,170)"/><rect x="0" y="6" width="1" height="1" fill="rgb(154,162,170)"/><rect x="1" y="6" width="1" height="1" fill="rgb(146,154,162)"/><rect x="0" y="7" width="2" height="2" fill="rgb(146,154,162)"/><rect x="0" y="9" width="1" height="1" fill="rgb(138,154,162)"/><rect x="1" y="9" width="1" height="1" fill="rgb(146,154,162)"/><rect x="0" y="10" width="1" height="1" fill="rgb(146,154,162)"/><rect x="1" y="10" width="1" height="1" fill="rgb(138,154,162)"/><rect x="0" y="11" width="2" height="2" fill="rgb(138,154,162)"/><rect x="0" y="13" width="1" height="1" fill="rgb(121,138,154)"/><rect x="1" y="13" width="1" height="1" fill="rgb(138,154,162)"/><rect x="0" y="14" width="1" height="1" fill="rgb(138,154,162)"/><rect x="1" y="14" width="1" height="1" fill="rgb(121,138,154)"/><rect x="0" y="15" width="2" height="2" fill="rgb(121,138,154)"/><rect x="0" y="17" width="1" height="1" fill="rgb(113,130,146)"/><rect x="1" y="17" width="1" height="1" fill="rgb(121,138,154)"/><rect x="0" y="18" width="1" height="1" fill="rgb(121,138,154)"/><rect x="1" y="18" width="1" height="1" fill="rgb(113,130,146)"/><rect x="0" y="19" width="2" height="3" fill="rgb(113,130,146)"/><rect x="0" y="22" width="1" height="1" fill="rgb(105,121,138)"/><rect x="1" y="22" width="1" height="1" fill="rgb(113,130,146)"/><rect x="0" y="23" width="1" height="1" fill="rgb(113,130,146)"/><rect x="1" y="23" width="1" height="1" fill="rgb(105,121,138)"/><rect x="0" y="24" width="2" height="2" fill="rgb(105,121,138)"/><rect x="0" y="26" width="2" height="1" fill="rgb(113,130,146)"/><rect x="0" y="27" width="2" height="2" fill="rgb(32,32,32)"/><rect x="0" y="29" width="2" height="1" fill="rgb(48,48,48)"/></pattern></defs><rect x="0" y="0" width="64" height="32" fill="url(#t)"/></svg>