<svg xmlns="http://www.w3.org/2000/svg" width="112" height="80" viewBox="0 0 112 80"><defs><linearGradient id="g0" x1="0" y1="12" x2="0" y2="27" gradientUnits="userSpaceOnUse"><stop offset="3.333%" stop-color="rgb(132,132,132)"/><stop offset="10.000%" stop-color="rgb(149,149,149)"/><stop offset="16.667%" stop-color="rgb(132,132,132)"/><stop offset="23.333%" stop-color="rgb(149,149,149)"/><stop offset="30.000%" stop-color="rgb(132,132,132)"/><stop offset="36.667%" stop-color="rgb(149,149,149)"/><stop offset="43.333%" stop-color="rgb(132,132,132)"/><stop offset="50.000%" stop-color="rgb(149,149,149)"/><stop offset="56.667%" stop-color="rgb(132,132,132)"/><stop offset="63.333%" stop-color="rgb(149,149,149)"/><stop offset="70.000%" stop-color="rgb(132,132,132)"/><stop offset="76.667%" stop-color="rgb(149,149,149)"/><stop offset="83.333%" stop-color="rgb(132,132,132)"/><stop offset="90.000%" stop-color="rgb(149,149,149)"/><stop offset="96.667%" stop-color="rgb(132,132,132)"/></linearGradient><linearGradient id="g1" x1="0" y1="12" x2="0" y2="27" gradientUnits="userSpaceOnUse"><stop offset="3.333%" stop-color="rgb(132,132,132)"/><stop offset="10.000%" stop-color="rgb(149,149,149)"/><stop offset="16.667%" stop-color="rgb(132,132,132)"/><stop offset="23.333%" stop-color="rgb(149,149,149)"/><stop offset="30.000%" stop-color="rgb(132,132,132)"/><stop offset="36.667%" stop-color="rgb(149,149,149)"/><stop offset="43.333%" stop-color="rgb(132,132,132)"/><stop offset="50.000%" stop-color="rgb(149,149,149)"/><stop offset="56.667%" stop-color="rgb(132,132,132)"/><stop offset="63.333%" stop-color="rgb(149,149,149)"/><stop offset="70.000%" stop-color="rgb(132,132,132)"/><stop offset="76.667%" stop-color="rgb(149,149,149)"/><stop offset="83.333%" stop-color="rgb(132,132,132)"/><stop offset="90.000%" stop-color="rgb(149,149,149)"/><stop offset="96.667%" stop-color="rgb(132,132,132)"/></linearGradient><linearGradient id="g2" x1="0" y1="27" x2="0" y2="54" gradientUnits="userSpaceOnUse"><stop offset="1.852%" stop-color="rgb(149,149,149)"/><stop offset="5.556%" stop-color="rgb(132,132,132)"/><stop offset="9.259%" stop-color="rgb(149,149,149)"/><stop offset="12.963%" stop-color="rgb(132,132,132)"/><stop offset="16.667%" stop-color="rgb(149,149,149)"/><stop offset="20.370%" stop-color="rgb(132,132,132)"/><stop offset="24.074%" stop-color="rgb(149,149,149)"/><stop offset="27.778%" stop-color="rgb(132,132,132)"/><stop offset="31.481%" stop-color="rgb(149,149,149)"/><stop offset="35.185%" stop-color="rgb(132,132,132)"/><stop offset="38.889%" stop-color="rgb(149,149,149)"/><stop offset="42.593%" stop-color="rgb(132,132,132)"/><stop offset="46.296%" stop-color="rgb(149,149,149)"/><stop offset="50.000%" stop-color="rgb(132,132,132)"/><stop offset="53.704%" stop-color="rgb(149,149,149)"/><stop offset="57.407%" stop-color="rgb(132,132,132)"/><stop offset="61.111%" stop-color="rgb(149,149,149)"/><stop offset="64.815%" stop-color="rgb(132,132,132)"/><stop offset="68.519%" stop-color="rgb(149,149,149)"/><stop offset="72.222%" stop-color="rgb(132,132,132)"/><stop offset="75.926%" stop-color="rgb(149,149,149)"/><stop offset="79.630%" stop-color="rgb(132,132,132)"/><stop offset="83.333%" stop-color="rgb(149,149,149)"/><stop offset="87.037%" stop-color="rgb(132,132,132)"/><stop offset="90.741%" stop-color="rgb(149,149,149)"/><stop offset="94.444%" stop-color="rgb(132,132,132)"/><stop offset="98.148%" stop-color="rgb(149,149,149)"/></linearGradient><linearGradient id="g3" x1="0" y1="34" x2="0" y2="51" gradientUnits="userSpaceOnUse"><stop offset="2.941%" stop-color="rgb(132,132,132)"/><stop offset="8.824%" stop-color="rgb(149,149,149)"/><stop offset="14.706%" stop-color="rgb(132,132,132)"/><stop offset="20.588%" stop-color="rgb(149,149,149)"/><stop offset="26.471%" stop-color="rgb(132,132,132)"/><stop offset="32.353%" stop-color="rgb(149,149,149)"/><stop offset="38.235%" stop-color="rgb(132,132,132)"/><stop offset="44.118%" stop-color="rgb(149,149,149)"/><stop offset="50.000%" stop-color="rgb(132,132,132)"/><stop offset="55.882%" stop-color="rgb(149,149,149)"/><stop offset="61.765%" stop-color="rgb(132,132,132)"/><stop offset="67.647%" stop-color="rgb(149,149,149)"/><stop offset="73.529%" stop-color="rgb(132,132,132)"/><stop offset="79.412%" stop-color="rgb(149,149,149)"/><stop offset="85.294%" stop-color="rgb(132,132,132)"/><stop offset="91.176%" stop-color="rgb(149,149,149)"/><stop offset="97.059%" stop-color="rgb(132,132,132)"/></linearGradient><linearGradient id="g4" x1="0" y1="34" x2="0" y2="51" gradientUnits="userSpaceOnUse"><stop offset="2.941%" stop-color="rgb(132,132,132)"/><stop offset="8.824%" stop-color="rgb(149,149,149)"/><stop offset="14.706%" stop-color="rgb(132,132,132)"/><stop offset="20.588%" stop-color="rgb(149,149,149)"/><stop offset="26.471%" stop-color="rgb(132,132,132)"/><stop offset="32.353%" stop-color="rgb(149,149,149)"/><stop offset="38.235%" stop-color="rgb(132,132,132)"/><stop offset="44.118%" stop-color="rgb(149,149,149)"/><stop offset="50.000%" stop-color="rgb(132,132,132)"/><stop offset="55.882%" stop-color="rgb(149,149,149)"/><stop offset="61.765%" stop-color="rgb(132,132,132)"/><stop offset="67.647%" stop-color="rgb(149,149,149)"/><stop offset="73.529%" stop-color="rgb(132,132,132)"/><stop offset="79.412%" stop-color="rgb(149,149,149)"/><stop offset="85.294%" stop-color="rgb(132,132,132)"/><stop offset="91.176%" stop-color="rgb(149,149,149)"/><stop offset="97.059%" stop-color="rgb(132,132,132)"/></linearGradient><linearGradient id="g5" x1="0" y1="27" x2="0" y2="54" gradientUnits="userSpaceOnUse"><stop offset="1.852%" stop-color="rgb(149,149,149)"/><stop offset="5.556%" stop-color="rgb(132,132,132)"/><stop offset="9.259%" stop-color="rgb(149,149,149)"/><stop offset="12.963%" stop-color="rgb(132,132,132)"/><stop offset="16.667%" stop-color="rgb(149,149,149)"/><stop offset="20.370%" stop-color="rgb(132,132,132)"/><stop offset="24.074%" stop-color="rgb(149,149,149)"/><stop offset="27.778%" stop-color="rgb(132,132,132)"/><stop offset="31.481%" stop-color="rgb(149,149,149)"/><stop offset="35.185%" stop-color="rgb(132,132,132)"/><stop offset="38.889%" stop-color="rgb(149,149,149)"/><stop offset="42.593%" stop-color="rgb(132,132,132)"/><stop offset="46.296%" stop-color="rgb(149,149,149)"/><stop offset="50.000%" stop-color="rgb(132,132,132)"/><stop offset="53.704%" stop-color="rgb(149,149,149)"/><stop offset="57.407%" stop-color="rgb(132,132,132)"/><stop offset="61.111%" stop-color="rgb(149,149,149)"/><stop offset="64.815%" stop-color="rgb(132,132,132)"/><stop offset="68.519%" stop-color="rgb(149,149,149)"/><stop offset="72.222%" stop-color="rgb(132,132,132)"/><stop offset="75.926%" stop-color="rgb(149,149,149)"/><stop offset="79.630%" stop-color="rgb(132,132,132)"/><stop offset="83.333%" stop-color="rgb(149,149,149)"/><stop offset="87.037%" stop-color="rgb(132,132,132)"/><stop offset="90.741%" stop-color="rgb(149,149,149)"/><stop offset="94.444%" stop-color="rgb(132,132,132)"/><stop offset="98.148%" stop-color="rgb(149,149,149)"/></linearGradient><linearGradient id="g6" x1="0" y1="58" x2="0" y2="66" gradientUnits="userSpaceOnUse"><stop offset="6.250%" stop-color="rgb(132,132,132)"/><stop offset="18.750%" stop-color="rgb(149,149,149)"/><stop offset="31.250%" stop-color="rgb(132,132,132)"/><stop offset="43.750%" stop-color="rgb(149,149,149)"/><stop offset="56.250%" stop-color="rgb(132,132,132)"/><stop offset="68.750%" stop-color="rgb(149,149,149)"/><stop offset="81.250%" stop-color="rgb(132,132,132)"/><stop offset="93.750%" stop-color="rgb(149,149,149)"/></linearGradient><linearGradient id="g7" x1="0" y1="58" x2="0" y2="66" gradientUnits="userSpaceOnUse"><stop offset="6.250%" stop-color="rgb(132,132,132)"/><stop offset="18.750%" stop-color="rgb(149,149,149)"/><stop offset="31.250%" stop-color="rgb(132,132,132)"/><stop offset="43.750%" stop-color="rgb(149,149,149)"/><stop offset="56.250%" stop-color="rgb(132,132,132)"/><stop offset="68.750%" stop-color="rgb(149,149,149)"/><stop offset="81.250%" stop-color="rgb(132,132,132)"/><stop offset="93.750%" stop-color="rgb(149,149,149)"/></linearGradient></defs><rect x="0" y="12" width="43" height="15" fill="url(#g0)"/><rect x="69" y="12" width="43" height="15" fill="url(#g1)"/><rect x="0" y="27" width="36" height="27" fill="url(#g2)"/><rect x="40" y="34" width="3" height="17" fill="url(#g3)"/><rect x="69" y="34" width="3" height="17" fill="url(#g4)"/><rect x="76" y="27" width="36" height="27" fill="url(#g5)"/><rect x="0" y="58" width="54" height="8" fill="url(#g6)"/><rect x="58" y="58" width="54" height="8" fill="url(#g7)"/><rect x="4" y="0" width="2" height="1" fill="rgb(98,98,98)"/><rect x="6" y="0" width="100" height="1" fill="rgb(132,132,132)"/><rect x="106" y="0" width="2" height="1" fill="rgb(98,98,98)"/><rect x="2" y="1" width="1" height="1" fill="rgb(98,98,98)"/><rect x="3" y="1" width="106" height="1" fill="rgb(149,149,149)"/><rect x="109" y="1" width="1" height="1" fill="rgb(98,98,98)"/><rect x="1" y="2" width="1" height="1" fill="rgb(98,98,98)"/><rect x="2" y="2" width="108" height="1" fill="rgb(132,132,132)"/><rect x="110" y="2" width="1" height="1" fill="rgb(98,98,98)"/><rect x="1" y="3" width="110" height="1" fill="rgb(149,149,149)"/><rect x="1" y="4" width="110" height="1" fill="rgb(132,132,132)"/><rect x="0" y="4" width="1" height="2" fill="rgb(98,98,98)"/><rect x="111" y="4" width="1" height="2" fill="rgb(98,98,98)"/><rect x="1" y="5" width="110" height="1" fill="rgb(149,149,149)"/><rect x="0" y="6" width="112" height="1" fill="rgb(132,132,132)"/><rect x="0" y="7" width="112" height="1" fill="rgb(149,149,149)"/><rect x="0" y="8" width="112" height="1" fill="rgb(132,132,132)"/><rect x="0" y="9" width="112" height="1" fill="rgb(149,149,149)"/><rect x="0" y="10" width="112" height="1" fill="rgb(132,132,132)"/><rect x="0" y="11" width="44" height="1" fill="rgb(149,149,149)"/><rect x="44" y="11" width="1" height="1" fill="rgb(165,165,165)"/><rect x="45" y="11" width="22" height="1" fill="rgb(181,181,181)"/><rect x="67" y="11" width="1" height="1" fill="rgb(165,165,165)"/><rect x="68" y="11" width="44" height="1" fill="rgb(149,149,149)"/><rect x="43" y="12" width="1" height="2" fill="rgb(165,165,165)"/><rect x="44" y="12" width="24" height="2" fill="rgb(181,181,181)"/><rect x="68" y="12" width="1" height="2" fill="rgb(165,165,165)"/><rect x="40" y="27" width="3" height="1" fill="rgb(149,149,149)"/><rect x="69" y="27" width="3" height="1" fill="rgb(149,149,149)"/><rect x="40" y="28" width="3" height="1" fill="rgb(132,132,132)"/><rect x="69" y="28" width="3" height="1" fill="rgb(132,132,132)"/><rect x="40" y="29" width="3" height="1" fill="rgb(149,149,149)"/><rect x="69" y="29" width="3" height="1" fill="rgb(149,149,149)"/><rect x="43" y="14" width="26" height="17" fill="rgb(181,181,181)"/><rect x="36" y="27" width="4" height="4" fill="rgb(181,181,181)"/><rect x="72" y="27" width="4" height="4" fill="rgb(181,181,181)"/><rect x="40" y="30" width="3" height="1" fill="rgb(132,132,132)"/><rect x="69" y="30" width="3" height="1" fill="rgb(132,132,132)"/><rect x="36" y="31" width="40" height="3" fill="rgb(181,181,181)"/><rect x="43" y="34" width="26" height="15" fill="rgb(181,181,181)"/><rect x="43" y="49" width="1" height="2" fill="rgb(165,165,165)"/><rect x="44" y="49" width="24" height="2" fill="rgb(181,181,181)"/><rect x="68" y="49" width="1" height="2" fill="rgb(165,165,165)"/><rect x="40" y="51" width="4" height="1" fill="rgb(149,149,149)"/><rect x="44" y="51" width="1" height="1" fill="rgb(165,165,165)"/><rect x="45" y="51" width="22" height="1" fill="rgb(181,181,181)"/><rect x="67" y="51" width="1" height="1" fill="rgb(165,165,165)"/><rect x="68" y="51" width="4" height="1" fill="rgb(149,149,149)"/><rect x="36" y="34" width="4" height="19" fill="rgb(181,181,181)"/><rect x="72" y="34" width="4" height="19" fill="rgb(181,181,181)"/><rect x="40" y="52" width="1" height="1" fill="rgb(165,165,165)"/><rect x="41" y="52" width="30" height="1" fill="rgb(132,132,132)"/><rect x="71" y="52" width="1" height="1" fill="rgb(165,165,165)"/><rect x="36" y="53" width="1" height="1" fill="rgb(165,165,165)"/><rect x="37" y="53" width="4" height="1" fill="rgb(181,181,181)"/><rect x="41" y="53" width="1" height="1" fill="rgb(165,165,165)"/><rect x="42" y="53" width="28" height="1" fill="rgb(149,149,149)"/><rect x="70" y="53" width="1" height="1" fill="rgb(165,165,165)"/><rect x="71" y="53" width="4" height="1" fill="rgb(181,181,181)"/><rect x="75" y="53" width="1" height="1" fill="rgb(165,165,165)"/><rect x="0" y="54" width="37" height="1" fill="rgb(132,132,132)"/><rect x="37" y="54" width="38" height="1" fill="rgb(181,181,181)"/><rect x="75" y="54" width="37" height="1" fill="rgb(132,132,132)"/><rect x="0" y="55" width="37" height="1" fill="rgb(149,149,149)"/><rect x="37" y="55" width="1" height="1" fill="rgb(165,165,165)"/><rect x="38" y="55" width="36" height="1" fill="rgb(181,181,181)"/><rect x="74" y="55" width="1" height="1" fill="rgb(165,165,165)"/><rect x="75" y="55" width="37" height="1" fill="rgb(149,149,149)"/><rect x="0" y="56" width="38" height="1" fill="rgb(132,132,132)"/><rect x="38" y="56" width="1" height="1" fill="rgb(165,165,165)"/><rect x="39" y="56" width="34" height="1" fill="rgb(181,181,181)"/><rect x="73" y="56" width="1" height="1" fill="rgb(165,165,165)"/><rect x="74" y="56" width="38" height="1" fill="rgb(132,132,132)"/><rect x="0" y="57" width="39" height="1" fill="rgb(149,149,149)"/><rect x="39" y="57" width="2" height="1" fill="rgb(165,165,165)"/><rect x="41" y="57" width="30" height="1" fill="rgb(181,181,181)"/><rect x="71" y="57" width="2" height="1" fill="rgb(165,165,165)"/><rect x="73" y="57" width="39" height="1" fill="rgb(149,149,149)"/><rect x="54" y="58" width="4" height="8" fill="rgb(181,181,181)"/><rect x="0" y="66" width="39" height="1" fill="rgb(132,132,132)"/><rect x="39" y="66" width="2" height="1" fill="rgb(165,165,165)"/><rect x="41" y="66" width="30" height="1" fill="rgb(181,181,181)"/><rect x="71" y="66" width="2" height="1" fill="rgb(165,165,165)"/><rect x="73" y="66" width="39" height="1" fill="rgb(132,132,132)"/><rect x="0" y="67" width="38" height="1" fill="rgb(149,149,149)"/><rect x="38" y="67" width="1" height="1" fill="rgb(165,165,165)"/><rect x="39" y="67" width="34" height="1" fill="rgb(181,181,181)"/><rect x="73" y="67" width="1" height="1" fill="rgb(165,165,165)"/><rect x="74" y="67" width="38" height="1" fill="rgb(149,149,149)"/><rect x="0" y="68" width="38" height="1" fill="rgb(132,132,132)"/><rect x="74" y="68" width="38" height="1" fill="rgb(132,132,132)"/><rect x="0" y="69" width="38" height="1" fill="rgb(149,149,149)"/><rect x="74" y="69" width="38" height="1" fill="rgb(149,149,149)"/><rect x="38" y="68" width="36" height="3" fill="rgb(181,181,181)"/><rect x="0" y="70" width="38" height="1" fill="rgb(132,132,132)"/><rect x="74" y="70" width="38" height="1" fill="rgb(132,132,132)"/><rect x="0" y="71" width="112" height="1" fill="rgb(149,149,149)"/><rect x="0" y="72" width="112" height="1" fill="rgb(132,132,132)"/><rect x="0" y="73" width="112" height="1" fill="rgb(149,149,149)"/><rect x="1" y="74" width="110" height="1" fill="rgb(132,132,132)"/><rect x="0" y="74" width="1" height="2" fill="rgb(98,98,98)"/><rect x="111" y="74" width="1" height="2" fill="rgb(98,98,98)"/><rect x="1" y="75" width="110" height="1" fill="rgb(149,149,149)"/><rect x="1" y="76" width="110" height="1" fill="rgb(132,132,132)"/><rect x="1" y="77" width="1" height="1" fill="rgb(98,98,98)"/><rect x="2" y="77" width="108" height="1" fill="rgb(149,149,149)"/><rect x="110" y="77" width="1" height="1" fill="rgb(98,98,98)"/><rect x="2" y="78" width="1" height="1" fill="rgb(98,98,98)"/><rect x="3" y="78" width="106" height="1" fill="rgb(132,132,132)"/><rect x="109" y="78" width="1" height="1" fill="rgb(98,98,98)"/><rect x="4" y="79" width="2" height="1" fill="rgb(98,98,98)"/><rect x="6" y="79" width="100" height="1" fill="rgb(149,149,149)"/><rect x="106" y="79" width="2" height="1" fill="rgb(98,98,98)"/></svg>