<svg xmlns="http://www.w3.org/2000/svg" width="32" height="15" viewBox="0 0 32 15" shape-rendering="geometricPrecision"><rect x="14" y="2" width="1" height="1" fill="#b4b4b4"/><rect x="14" y="12" width="1" height="1" fill="#b4b4b4"/><rect x="16" y="6" width="1" height="1" fill="#ff9c4a"/><rect x="16" y="8" width="1" height="1" fill="#ff2000"/><rect x="16" y="5" width="3" height="1" fill="#ff9c4a"/><rect x="16" y="7" width="3" height="1" fill="#ff6a29"/><rect x="16" y="9" width="3" height="1" fill="#ff2000"/><rect x="16" y="4" width="11" height="1" fill="#ff6a29"/><rect x="16" y="10" width="11" height="1" fill="#ff6a29"/><rect x="23" y="5" width="4" height="1" fill="#ff9c4a"/><rect x="23" y="9" width="4" height="1" fill="#ff2000"/><rect x="24" y="6" width="3" height="1" fill="#ff9c4a"/><rect x="24" y="8" width="3" height="1" fill="#ff2000"/><path d="M18.25 2 L24.75 2 L28 2.25 L28 2.75 L24.75 3 L18.25 3 L15 2.75 L15 2.25Z M15 5.25 L15 9.75 L14.75 12 L14.25 12 L14 11.5 L14 10.5 L13.5 10 L12.5 10 L12 8.75 L12 6.25 L12.5 5 L13.5 5 L14 4.5 L14 3.5 L14.25 3 L14.75 3Z M28.25 3 L28.75 3 L29 5.25 L29 9.75 L28.75 12 L28.25 12 L28 9.75 L28 5.25Z M20 5 L22 5 L23 5.25 L23 5.75 L23.25 6 L23.75 6 L24 6.25 L24 6.75 L24.75 7 L26.25 7 L27 7.25 L27 7.75 L26.25 8 L24.75 8 L24 8.25 L24 8.75 L23.75 9 L23.25 9 L23 9.25 L23 9.75 L22 10 L20 10 L19 9.75 L19 9.25 L18.5 9 L17.5 9 L17 8.75 L17 8.25 L17.5 8 L18.5 8 L19 7.75 L19 7.25 L18.5 7 L17.5 7 L17 6.75 L17 6.25 L17.5 6 L18.5 6 L19 5.75 L19 5.25Z M18.25 12 L24.75 12 L28 12.25 L28 12.75 L24.75 13 L18.25 13 L15 12.75 L15 12.25Z" fill="#414141" fill-rule="evenodd"/></svg>