<svg xmlns="http://www.w3.org/2000/svg" width="32" height="15" viewBox="0 0 32 15" shape-rendering="geometricPrecision"><rect x="14" y="2" width="1" height="1" fill="#595959"/><rect x="14" y="12" width="1" height="1" fill="#595959"/><rect x="16" y="4" width="2" height="7" fill="#595959"/><rect x="19" y="4" width="2" height="7" fill="#595959"/><rect x="22" y="4" width="2" height="7" fill="#595959"/><rect x="25" y="4" width="2" height="1" fill="#e30000"/><rect x="25" y="5" width="2" height="2" fill="#eb4949"/><rect x="25" y="7" width="2" height="1" fill="#e30000"/><rect x="25" y="8" width="2" height="2" fill="#c30000"/><rect x="25" y="10" width="2" height="1" fill="#e30000"/><path d="M18.25 2 L24.75 2 L28 2.25 L28 2.75 L24.75 3 L18.25 3 L15 2.75 L15 2.25Z M15 5.25 L15 9.75 L14.75 12 L14.25 12 L14 11.5 L14 10.5 L13.5 10 L12.5 10 L12 8.75 L12 6.25 L12.5 5 L13.5 5 L14 4.5 L14 3.5 L14.25 3 L14.75 3Z M28.25 3 L28.75 3 L29 5.25 L29 9.75 L28.75 12 L28.25 12 L28 9.75 L28 5.25Z M18.25 12 L24.75 12 L28 12.25 L28 12.75 L24.75 13 L18.25 13 L15 12.75 L15 12.25Z" fill="#cbcbcb" fill-rule="evenodd"/></svg>